<?xml version="1.0" encoding="UTF-8" standalone="yes"?>
<!DOCTYPE svg PUBLIC "-//W3C//DTD SVG 1.0//EN" "http://www.w3.org/TR/2001/REC-SVG-20010904/DTD/svg10.dtd">
<svg height="250" width="370" xmlns="http://www.w3.org/2000/svg" xmlns:svg="http://www.w3.org/2000/svg" xmlns:xlink="http://www.w3.org/1999/xlink">


<g id="background">
<rect id="" width="370" height="250" fill="#222222"/>
</g>
  <g id="100" style="stroke-miterlimit: 3; fill: #F1F1F1; stroke: #000000; stroke-opacity: 1; stroke-width: 0.05; stroke-linejoin: bevel; stroke-linecap: square">
    <polygon id="Bulgaria" points="326.9,119.3 327.8,121.5 328.0,122.6 328.1,123.2 328.0,127.2 327.4,127.6 322.5,127.1 320.9,126.9 320.2,126.8 318.5,126.9 312.3,131.7 305.3,136.1 304.8,136.6 304.2,137.4 301.5,140.6 301.3,141.3 302.3,142.5 304.7,143.6 305.2,143.4 306.2,142.7 307.6,142.5 311.3,142.6 315.0,144.3 316.5,145.4 316.2,146.1 316.5,147.3 319.3,153.6 319.8,154.5 321.0,155.7 325.6,159.4 328.1,161.2 330.4,163.0 332.2,164.8 333.9,166.7 335.4,169.2 334.8,170.2 332.3,170.1 328.3,169.4 326.3,168.8 324.3,169.0 316.6,170.5 312.6,171.6 312.0,171.9 310.1,172.9 309.2,174.3 308.7,174.6 307.7,174.4 300.9,170.5 299.3,169.5 298.2,168.6 296.9,166.8 296.4,165.6 293.3,163.8 292.1,163.3 291.5,163.1 288.6,162.6 278.9,163.8 277.3,164.0 276.6,164.3 272.5,168.9 270.9,168.7 252.3,170.7 249.4,172.7 248.7,173.3 249.6,175.1 249.0,176.7 248.6,177.9 247.9,179.0 247.4,179.4 246.8,179.4 243.8,179.5 243.2,179.5 242.0,179.5 238.7,179.6 238.1,179.6 236.2,181.4 235.6,182.5 235.2,183.8 235.2,184.5 235.8,185.3 236.6,186.1 233.8,186.4 232.9,186.4 231.9,186.3 231.2,186.0 229.5,184.7 228.7,184.3 226.0,184.1 225.1,184.1 223.7,184.6 220.3,185.9 219.4,187.1 219.4,187.8 219.5,189.3 221.4,191.1 222.4,191.1 223.2,190.9 226.3,196.2 227.2,202.4 223.8,207.4 214.8,209.4 214.2,209.5 209.9,210.0 208.8,210.1 204.5,208.5 194.9,209.6 189.9,209.3 188.8,209.9 186.1,211.2 176.7,213.6 176.1,213.6 173.1,214.0 170.7,213.4 167.5,210.5 165.9,209.6 159.8,206.9 158.4,206.4 150.5,204.0 145.5,204.4 145.1,206.0 144.9,207.5 142.4,206.4 133.2,202.9 132.7,202.5 130.6,199.4 130.4,198.6 124.5,195.7 115.2,196.0 112.9,194.6 112.0,194.6 109.7,195.5 108.8,196.2 106.2,196.3 102.9,195.8 101.7,196.3 100.8,197.3 100.8,199.6 95.7,202.3 90.2,201.6 84.8,202.5 81.4,204.2 75.3,206.0 73.1,205.8 70.3,205.2 69.6,204.9 63.7,204.1 55.1,204.3 54.5,204.4 53.9,204.7 51.3,206.0 51.1,206.7 51.3,207.5 50.4,208.4 49.6,208.9 48.9,209.2 48.3,209.3 44.7,209.4 43.2,209.4 36.2,208.5 33.8,208.1 35.0,207.5 35.5,206.7 35.2,200.2 34.8,192.9 34.8,191.3 35.0,190.4 36.9,188.9 38.3,187.5 38.7,186.9 39.4,185.9 39.6,185.2 38.5,183.2 37.6,182.7 36.0,182.6 35.4,182.2 34.2,180.5 31.7,176.3 30.4,173.0 27.5,167.5 26.8,167.5 19.0,165.3 14.5,163.0 9.2,160.3 2.5,152.6 0.0,149.9 2.7,149.2 5.6,147.6 9.1,145.5 10.1,144.0 11.4,140.7 10.9,138.9 9.3,137.6 6.3,135.6 4.9,133.6 4.4,120.8 4.9,120.1 8.8,117.4 9.5,117.0 13.1,116.2 14.1,116.0 14.8,116.1 17.2,116.7 21.8,116.4 22.3,116.3 35.6,103.8 37.1,102.0 37.3,101.4 37.9,98.4 34.1,97.4 32.1,96.3 28.7,93.1 28.5,92.5 27.8,90.5 27.3,89.9 23.8,87.0 21.3,86.1 18.0,85.2 15.6,84.3 11.0,82.1 10.1,81.3 2.9,67.8 2.5,66.8 0.1,60.8 3.1,50.1 10.2,47.1 11.1,46.8 14.8,43.6 15.1,40.5 16.9,38.0 18.4,37.2 19.0,37.6 19.7,38.0 32.1,43.8 33.0,44.1 34.4,44.4 37.5,44.6 38.9,45.1 39.8,45.5 40.4,46.5 40.3,47.0 39.6,47.9 37.8,49.5 36.9,49.9 35.2,49.8 32.9,50.4 32.1,50.6 30.8,51.3 28.3,56.2 28.2,57.2 28.6,58.4 29.2,59.3 30.2,59.9 31.4,60.3 35.7,61.4 41.4,62.3 45.9,61.9 46.4,61.8 47.2,61.3 49.4,60.6 50.9,60.1 52.8,59.7 53.6,59.5 54.4,59.4 62.4,59.1 63.0,59.1 64.1,59.4 67.7,60.2 68.2,60.3 68.9,60.9 69.6,61.3 71.4,62.0 73.3,62.5 73.9,62.6 75.0,62.7 83.5,63.1 96.2,65.7 100.9,67.1 103.8,68.3 106.1,68.9 107.6,69.2 108.5,69.2 110.2,69.0 112.2,68.7 113.9,68.5 115.2,68.5 115.9,68.5 117.3,68.7 117.8,68.6 118.5,68.4 120.9,67.2 122.9,66.2 124.1,65.7 126.4,64.8 126.9,64.7 128.3,64.7 130.3,64.8 132.4,65.1 133.3,65.4 137.6,67.3 138.7,67.4 139.8,67.5 144.0,67.6 149.2,67.6 157.5,67.7 169.5,69.1 171.7,69.6 172.5,70.0 174.8,71.2 176.3,72.1 176.9,72.5 177.7,72.8 178.4,72.9 179.7,72.9 180.9,72.8 181.7,72.7 182.3,72.5 183.7,71.9 187.7,71.7 192.3,70.6 196.6,68.9 199.6,68.7 201.3,68.3 202.0,68.0 202.9,67.6 208.3,63.7 208.5,62.9 209.0,62.3 211.8,59.8 212.4,59.3 220.5,53.5 222.1,52.4 223.1,51.8 224.0,51.4 233.4,48.7 238.1,48.0 238.7,47.9 240.0,48.0 241.5,48.1 243.9,47.6 255.3,46.3 262.6,44.9 265.3,43.7 268.3,42.7 269.6,42.5 276.9,41.8 281.4,42.2 284.6,42.8 285.9,43.2 286.6,43.3 288.0,43.4 288.9,43.3 289.6,43.1 290.9,42.7 291.3,44.3 292.0,45.3 292.6,45.8 298.2,49.1 299.5,49.3 303.0,49.4 311.2,49.2 311.7,49.1 312.2,48.6 312.8,48.2 313.7,48.0 314.7,48.5 315.4,49.3 316.2,50.9 316.7,51.9 317.3,52.5 318.1,52.9 319.1,53.0 322.6,52.7 323.4,52.6 324.2,52.4 325.3,51.9 326.2,51.5 329.0,50.3 329.8,50.4 330.8,51.3 331.4,52.2 331.5,53.0 331.8,54.2 333.5,58.2 333.9,58.9 335.8,60.1 336.9,60.5 341.9,62.3 344.8,63.3 348.0,64.2 349.3,64.5 358.0,65.4 362.8,65.7 368.6,65.5 368.2,66.4 367.8,69.0 368.0,74.2 368.4,75.0 369.3,75.9 369.8,76.8 370.0,77.6 370.0,78.3 369.8,78.8 369.4,79.5 368.9,80.5 367.3,82.7 366.9,83.3 366.2,83.9 365.2,84.6 362.5,86.5 360.9,87.0 359.6,86.8 358.5,86.3 357.5,85.7 356.7,85.3 354.3,84.9 353.6,84.8 351.8,84.8 343.1,85.8 341.9,86.2 341.3,86.6 339.6,87.9 339.1,88.5 338.8,89.1 338.3,90.7 337.3,93.0 335.0,96.5 330.8,99.9 327.5,107.4 327.3,107.9 327.3,109.0 327.9,114.3 328.3,116.1 328.2,118.4 326.9,119.3 " />
  </g>
</svg>