<?xml version="1.0" encoding="UTF-8" standalone="yes"?>
<!DOCTYPE svg PUBLIC "-//W3C//DTD SVG 1.0//EN" "http://www.w3.org/TR/2001/REC-SVG-20010904/DTD/svg10.dtd">
<svg height="250" width="370" xmlns="http://www.w3.org/2000/svg" xmlns:svg="http://www.w3.org/2000/svg" xmlns:xlink="http://www.w3.org/1999/xlink">


<g id="background">
<rect id="" width="370" height="250" fill="#222222"/>
</g>
  <g id="104" style="stroke-miterlimit: 3; fill: #F1F1F1; stroke: #000000; stroke-opacity: 1; stroke-width: 0.05; stroke-linejoin: bevel; stroke-linecap: square">
    <polygon id="Myanmar" points="200.6,2.7 201.2,2.4 201.8,2.2 203.5,3.6 203.3,4.2 205.0,5.2 205.3,5.8 205.2,7.1 205.8,9.4 206.3,10.6 206.7,11.4 207.1,12.2 207.2,12.9 207.4,13.4 207.9,13.6 208.5,13.4 208.9,12.8 208.9,12.2 209.3,11.7 210.3,12.0 211.8,12.6 212.5,13.5 212.4,14.3 212.6,15.5 213.0,16.3 212.7,17.2 212.4,17.8 212.7,18.9 213.1,20.6 213.3,22.1 213.6,23.4 213.6,25.4 213.2,28.3 212.9,29.1 212.6,30.6 213.0,31.4 212.7,32.2 212.1,32.7 211.9,32.1 211.1,32.1 210.9,32.9 211.2,34.0 211.9,34.6 212.7,35.2 212.7,35.8 211.8,36.5 211.0,36.4 210.5,36.0 209.7,36.6 209.6,37.2 209.1,38.1 208.3,39.4 207.6,39.9 206.2,39.4 205.4,39.6 205.0,41.8 204.1,43.1 202.6,44.4 202.0,44.5 201.7,44.0 201.2,43.7 200.7,44.5 200.6,45.0 200.0,46.0 199.5,47.5 199.7,48.4 199.1,49.5 197.6,50.5 197.4,51.0 197.5,51.6 197.4,53.0 197.1,54.3 198.6,54.7 199.4,55.6 200.0,57.1 199.9,58.4 199.5,59.0 198.5,59.9 197.1,61.2 197.6,61.7 198.2,62.0 198.6,62.6 199.1,62.2 200.1,61.6 201.4,60.9 202.0,60.3 203.8,59.5 205.7,59.0 209.2,58.8 210.1,58.9 211.0,59.3 214.4,59.0 215.1,58.5 215.3,59.0 214.8,59.6 213.3,60.6 212.3,61.0 212.4,63.1 213.9,63.6 214.6,65.4 214.0,66.6 214.2,67.5 214.7,67.4 215.3,68.0 215.4,68.5 215.5,69.6 215.5,70.2 215.6,71.4 217.7,72.5 219.2,72.6 219.8,72.4 221.2,72.2 223.2,72.7 224.0,74.6 223.6,75.1 222.4,75.7 221.1,77.7 221.7,79.2 221.7,80.5 221.4,81.0 220.6,81.8 218.7,85.1 219.6,85.7 221.3,86.0 221.9,85.9 222.7,85.5 224.4,85.8 225.2,86.1 226.0,86.7 226.5,86.3 228.4,86.5 229.1,86.6 229.7,87.6 229.5,88.4 229.2,89.1 229.1,89.7 229.5,90.8 229.9,91.3 231.0,91.4 231.7,92.1 231.3,92.7 231.4,93.6 232.1,94.4 232.7,94.8 233.6,94.2 234.4,93.7 234.9,93.4 235.5,93.5 236.0,94.1 237.3,94.6 238.4,94.2 239.4,93.8 240.5,92.9 240.9,92.0 244.4,90.4 245.4,92.1 245.4,92.6 245.3,93.3 244.9,94.0 243.3,95.2 241.4,96.3 240.9,96.6 240.4,96.6 239.7,96.4 239.2,97.5 239.2,98.0 238.8,98.9 238.2,99.8 237.6,100.1 236.8,101.2 236.7,102.1 237.4,102.3 238.1,102.1 238.1,102.7 237.5,103.0 237.0,103.2 236.0,103.1 235.0,102.9 233.7,103.6 232.7,104.6 232.2,105.4 231.9,106.7 231.7,107.4 231.5,108.5 231.1,109.3 230.1,108.8 229.6,108.2 228.3,108.1 227.7,108.9 227.3,109.4 225.5,109.8 224.7,109.6 223.7,109.3 223.2,109.8 223.9,111.1 223.8,111.8 223.1,112.3 222.5,112.6 221.0,113.0 220.5,112.9 220.0,112.5 219.2,112.2 218.6,112.2 217.7,112.5 217.1,113.3 216.8,114.9 217.0,115.5 216.9,116.2 216.6,116.8 215.8,117.0 215.2,117.0 214.4,116.4 211.9,117.3 210.1,117.8 209.6,118.0 208.4,118.0 207.8,118.0 206.4,118.0 205.6,117.2 205.1,116.8 204.3,116.5 203.6,117.6 203.7,118.3 202.8,119.2 202.0,119.6 201.5,119.6 201.4,120.3 200.4,121.9 200.6,122.4 201.0,123.4 201.1,124.5 201.1,125.0 201.0,125.8 200.4,126.3 199.9,126.8 198.9,128.0 199.4,128.7 200.3,131.4 200.3,132.1 200.2,132.9 198.6,133.1 197.3,133.7 196.6,133.9 196.0,134.0 194.8,133.2 194.9,133.7 195.7,135.1 195.9,135.7 196.0,136.2 196.5,136.8 197.0,137.0 197.2,136.4 197.8,136.2 198.5,136.7 198.2,137.2 198.2,137.7 199.0,138.8 199.9,140.9 199.4,141.4 199.0,142.1 200.3,144.5 201.2,145.5 202.2,146.3 202.8,146.8 203.9,148.3 204.8,149.7 205.6,150.4 206.8,151.6 208.2,153.2 208.9,153.2 209.4,153.7 210.0,154.7 210.5,155.4 210.1,156.7 209.6,157.3 210.2,158.1 210.7,158.8 212.0,161.0 212.1,162.1 212.4,163.4 213.7,162.5 214.2,161.8 215.4,161.9 215.5,163.6 214.7,165.3 214.1,165.8 212.6,165.5 211.6,166.6 211.4,167.7 210.7,170.9 210.9,171.7 210.7,172.3 210.8,173.1 211.1,174.1 211.1,175.0 211.0,175.7 210.4,175.7 209.9,175.4 208.9,175.7 208.8,176.7 206.4,177.6 205.9,179.5 206.1,180.6 206.5,181.4 206.6,181.9 206.7,183.0 207.5,184.3 208.3,185.1 209.1,185.6 209.5,186.2 210.1,187.4 210.4,187.9 210.8,188.7 211.4,189.5 213.3,191.0 214.0,191.4 215.0,192.1 215.7,192.5 216.2,192.9 216.6,193.7 217.0,194.7 218.2,196.9 218.9,197.5 218.8,198.3 218.9,199.5 219.3,200.9 219.4,201.6 219.4,204.1 218.7,204.5 218.1,204.8 218.0,206.3 219.7,210.6 220.6,211.6 222.4,212.9 222.3,213.9 222.5,216.0 222.6,216.5 223.2,218.0 224.1,218.6 224.0,219.2 224.0,220.3 224.3,221.9 224.9,222.7 225.1,223.8 224.1,225.3 222.7,226.3 221.3,229.2 220.9,230.1 220.1,231.5 219.4,232.5 218.9,233.2 218.2,233.5 217.2,234.4 215.7,236.2 215.2,236.8 214.7,236.9 214.2,237.4 213.7,238.1 213.5,238.8 213.9,239.3 214.2,240.2 213.9,241.0 213.3,241.7 213.1,242.5 212.7,243.6 212.3,244.5 211.2,246.4 210.7,247.2 210.2,246.9 210.0,245.1 210.0,244.1 210.3,242.5 210.0,241.6 209.3,238.2 209.3,237.5 209.8,237.4 210.3,237.9 211.6,235.9 212.6,235.0 212.8,234.5 212.7,233.9 212.5,232.0 213.0,231.5 213.3,230.3 213.0,229.5 212.6,228.8 212.8,226.4 213.1,224.9 214.2,224.4 214.9,224.5 213.7,223.6 212.6,224.5 212.0,224.7 211.3,224.2 211.3,223.1 212.0,221.6 212.8,221.1 212.8,220.3 211.9,218.3 212.7,217.8 212.4,217.3 211.7,217.5 211.2,217.9 210.5,217.7 210.3,217.0 211.7,216.4 212.3,216.3 212.3,215.6 211.6,215.2 211.3,214.3 211.5,213.1 211.9,212.4 212.3,211.3 211.7,208.9 211.2,208.4 211.0,206.0 211.0,205.1 210.2,204.0 209.5,203.4 209.3,202.5 209.2,201.7 209.0,200.9 208.6,200.2 207.5,198.7 207.0,198.1 206.6,196.8 206.5,195.7 206.4,194.6 206.1,193.5 205.7,194.7 205.8,195.3 205.9,198.4 205.7,200.0 205.1,200.0 204.3,197.0 204.6,196.4 204.6,195.1 204.3,193.2 204.4,191.5 203.7,190.5 203.3,189.9 203.0,189.1 201.6,184.9 201.3,184.3 200.9,183.3 200.5,182.1 200.5,181.6 200.7,179.1 200.7,178.6 200.5,178.1 199.8,177.2 199.7,176.1 200.3,174.8 200.1,173.7 199.5,170.3 199.6,169.3 199.3,168.7 198.4,167.9 197.8,167.2 197.5,166.6 197.8,166.1 198.1,165.5 198.5,163.8 198.4,163.1 198.2,162.5 198.2,161.6 198.3,160.7 198.9,160.0 199.7,159.7 198.8,159.9 197.7,160.1 196.7,160.1 195.4,160.2 194.7,160.2 192.6,156.0 192.7,155.2 192.1,153.1 191.9,152.2 190.7,150.5 190.0,150.0 189.5,149.6 188.8,149.1 188.3,147.9 187.8,148.5 188.3,149.3 188.1,150.6 187.8,151.2 188.0,151.9 188.5,152.7 188.7,153.3 188.2,154.9 187.3,155.1 187.8,155.7 187.2,157.5 186.8,158.0 185.7,159.1 184.9,159.7 184.4,160.1 183.2,160.4 182.7,160.5 182.0,160.6 180.6,159.9 180.1,159.2 179.6,157.9 179.5,157.3 179.9,156.8 179.2,157.0 179.2,157.6 179.3,158.1 179.6,159.3 179.9,159.9 180.2,160.5 180.6,161.0 180.1,162.0 179.0,162.6 177.7,162.5 176.7,162.1 177.4,162.7 177.4,163.2 176.9,163.8 176.2,164.3 175.6,164.1 175.0,164.1 173.3,165.3 172.5,166.6 172.4,167.2 172.2,167.8 171.7,168.3 170.2,169.9 169.2,170.6 168.6,171.0 167.3,170.9 166.9,170.1 166.9,169.5 167.5,168.9 168.0,167.6 168.1,166.6 168.1,165.4 167.6,165.8 167.9,166.3 167.9,166.8 167.8,167.3 167.1,168.6 166.5,169.0 166.7,168.1 166.9,167.2 166.4,167.9 166.2,168.7 166.2,169.5 166.2,170.1 165.6,170.2 165.1,169.9 164.8,169.4 164.6,167.4 164.6,166.7 164.9,166.1 165.5,165.7 166.2,165.7 165.7,165.4 165.1,165.4 164.5,165.8 164.2,166.4 164.2,167.2 164.2,167.9 163.9,169.4 163.7,169.9 162.8,170.5 161.3,170.2 161.3,168.7 161.0,168.0 161.7,167.0 161.5,166.0 161.5,165.3 162.0,164.7 162.5,164.6 163.1,164.1 161.9,164.5 161.4,165.0 161.2,165.7 161.3,166.3 161.3,166.8 159.7,169.0 159.0,169.3 158.1,168.8 158.0,168.3 158.7,167.9 159.4,167.3 160.2,165.8 160.5,165.3 159.6,166.1 159.5,166.7 158.2,167.9 157.6,168.1 157.6,167.4 158.2,166.9 158.6,166.4 159.0,165.7 159.1,164.8 158.5,162.7 158.0,162.8 157.3,163.6 156.8,163.4 156.8,164.4 155.7,166.3 154.3,167.4 153.3,167.8 152.6,166.9 153.0,162.6 154.0,160.3 154.5,159.9 155.3,156.6 155.2,156.0 155.4,155.3 156.0,154.3 156.9,151.6 156.7,151.0 157.3,149.7 157.4,148.4 157.5,147.7 157.5,147.2 158.1,146.7 157.8,145.7 157.2,144.4 156.5,142.8 156.1,140.5 156.5,139.8 155.0,135.7 154.5,135.3 153.2,133.5 153.1,130.7 151.9,129.0 151.5,129.8 150.5,129.3 150.3,128.7 150.5,127.7 150.7,126.5 150.3,125.3 150.5,124.8 150.6,124.3 149.9,125.2 149.3,125.3 148.5,124.4 148.2,123.8 148.8,123.3 149.6,122.5 149.8,121.2 148.7,120.9 147.5,119.9 146.4,119.0 145.7,117.6 144.6,117.7 144.6,116.8 145.3,115.6 145.9,115.4 146.5,115.0 144.8,115.1 144.0,115.4 143.8,114.9 143.1,114.4 142.6,114.6 142.0,114.2 141.9,113.6 140.4,113.3 138.8,113.2 138.3,112.8 138.8,114.2 139.4,115.5 139.7,116.0 138.9,114.9 138.5,114.4 137.9,114.2 138.0,114.7 138.3,115.8 138.8,116.5 138.2,116.0 136.4,113.0 136.2,112.3 137.4,112.2 137.9,111.8 138.2,111.1 137.6,111.3 137.1,111.8 136.6,112.0 136.5,111.2 137.0,108.8 137.7,107.1 137.7,106.6 137.0,107.7 136.9,108.3 136.9,108.8 136.7,109.9 135.2,112.3 133.6,111.3 133.8,110.5 134.8,109.9 134.5,108.5 133.9,107.4 132.8,105.9 132.0,104.8 132.4,105.7 133.1,108.0 133.1,110.3 132.5,109.9 131.5,107.8 130.0,105.8 129.4,105.3 128.7,104.8 128.1,103.8 127.4,102.0 127.1,101.5 126.9,100.8 126.8,99.9 126.4,99.1 126.0,97.7 126.0,96.6 126.2,95.8 126.7,95.1 128.0,94.3 130.4,95.5 131.0,97.0 131.6,97.2 132.1,96.7 131.9,95.9 131.7,95.1 131.5,94.3 131.3,92.1 131.3,90.0 131.3,89.3 131.6,88.8 131.5,88.3 131.3,87.7 132.2,87.0 132.5,86.0 132.6,85.3 133.8,85.8 134.7,86.5 135.1,87.0 135.6,87.2 136.5,86.6 136.8,85.7 137.2,84.6 137.9,84.5 138.5,84.8 139.2,83.8 139.2,83.0 139.2,82.5 139.0,81.6 138.5,81.1 138.2,80.2 137.9,78.4 137.8,77.7 138.0,76.6 138.1,75.7 138.5,74.6 138.3,73.8 138.4,73.3 139.0,73.2 139.6,73.6 140.2,73.9 140.7,73.7 141.2,73.0 141.8,71.0 141.5,69.2 141.9,68.3 142.3,66.0 142.2,65.1 142.1,64.5 141.7,62.6 141.3,61.2 141.0,60.1 141.1,59.6 141.7,59.4 142.2,59.9 142.9,61.0 143.6,61.1 144.5,61.0 144.9,60.4 145.7,60.4 146.6,60.5 147.1,61.0 147.6,61.5 148.6,61.2 150.3,61.7 151.1,62.1 151.7,62.7 152.8,60.5 153.1,59.5 153.5,58.2 154.1,56.8 154.7,55.7 156.2,52.9 157.9,51.0 158.8,49.1 159.7,47.0 159.7,45.7 159.2,45.3 158.2,45.0 157.7,44.6 157.7,43.5 158.3,42.0 158.8,41.3 159.7,40.7 160.4,40.7 161.7,39.6 163.2,37.5 163.6,36.3 164.0,34.7 164.6,34.4 165.4,33.5 165.6,33.0 164.8,32.1 164.3,30.9 164.1,29.9 164.1,27.7 165.1,25.8 166.3,25.0 166.9,25.4 168.4,24.8 169.1,24.5 169.6,24.0 169.8,23.4 170.3,23.0 171.2,23.0 172.2,22.0 174.0,20.6 174.8,20.5 175.3,20.3 176.1,19.6 176.4,18.9 176.7,18.4 177.8,17.6 178.6,17.2 179.2,17.0 182.2,16.6 183.2,16.6 184.9,15.8 186.1,15.7 186.7,15.9 187.5,16.3 188.0,17.1 188.1,17.7 188.4,18.3 189.4,18.7 189.9,18.9 190.7,19.4 191.6,19.5 192.0,18.9 190.5,16.8 190.0,16.3 189.5,15.8 188.7,14.7 188.4,12.7 189.0,11.8 189.9,11.1 190.5,10.7 191.5,10.1 194.7,8.1 195.0,7.4 194.7,6.7 194.1,6.2 194.3,5.1 194.5,4.3 195.4,3.4 195.9,3.4 196.3,2.8 196.5,1.8 197.2,0.1 199.2,0.4 199.7,1.1 199.8,1.6 200.5,2.7 " />
    <polygon id="Myanmar" points="136.9,116.2 135.4,113.1 135.9,113.0 136.9,115.4 136.9,116.2 " />
    <polygon id="Myanmar" points="143.4,117.3 142.7,116.9 141.9,114.9 142.4,114.7 143.1,115.3 143.3,115.9 143.5,117.1 " />
    <polygon id="Myanmar" points="147.3,123.7 145.5,121.4 145.2,120.8 145.6,119.8 146.4,119.9 148.6,121.0 149.4,121.5 149.5,122.3 148.8,123.1 148.1,123.5 147.3,123.7 " />
    <polygon id="Myanmar" points="147.1,124.2 147.8,124.0 148.5,124.5 149.2,126.2 149.7,127.7 149.5,128.3 149.1,129.1 148.0,128.6 146.0,127.0 145.5,126.4 145.1,125.5 144.2,124.3 143.3,123.2 143.0,122.7 143.0,122.1 143.5,121.5 144.7,121.9 145.1,122.5 145.5,123.3 146.5,123.9 147.1,124.2 " />
    <polygon id="Myanmar" points="145.5,129.0 146.3,129.0 146.7,130.7 146.5,131.2 146.0,131.7 145.2,131.5 143.8,130.3 143.2,129.4 143.2,128.9 143.9,128.9 145.1,128.7 " />
    <polygon id="Myanmar" points="197.5,164.1 196.8,164.0 196.1,163.1 195.9,161.3 196.0,160.8 196.6,160.5 197.9,160.8 197.6,163.9 " />
    <polygon id="Myanmar" points="157.7,167.1 155.5,169.0 155.0,167.6 155.4,167.0 155.9,166.9 156.4,166.4 157.0,165.5 157.5,164.8 158.0,164.3 158.5,164.0 158.8,164.5 158.7,165.4 157.7,167.0 " />
    <polygon id="Myanmar" points="160.5,170.0 159.8,169.9 160.5,168.2 161.1,168.8 160.8,169.8 " />
    <polygon id="Myanmar" points="198.8,173.6 198.6,172.8 198.8,173.5 " />
    <polygon id="Myanmar" points="146.2,181.8 145.8,182.5 145.9,181.9 " />
    <polygon id="Myanmar" points="200.6,192.1 200.5,191.5 200.6,192.1 " />
    <polygon id="Myanmar" points="141.7,193.0 141.7,191.9 141.9,192.6 " />
    <polygon id="Myanmar" points="202.2,195.1 " />
    <polygon id="Myanmar" points="202.2,196.7 202.1,195.8 202.3,196.4 " />
    <polygon id="Myanmar" points="207.3,206.6 207.2,208.0 207.0,207.2 206.8,206.5 206.6,205.9 206.4,205.2 206.4,204.6 207.3,206.1 207.3,206.6 " />
    <polygon id="Myanmar" points="201.5,210.3 201.0,210.1 201.5,210.3 " />
    <polygon id="Myanmar" points="207.9,216.3 207.3,216.1 207.5,215.3 207.7,214.8 207.5,213.9 207.3,212.8 207.2,212.2 207.5,211.6 208.1,211.6 209.2,212.4 209.4,213.8 209.3,214.4 208.5,215.6 208.0,216.2 " />
    <polygon id="Myanmar" points="201.3,213.3 200.8,212.8 201.4,212.9 " />
    <polygon id="Myanmar" points="207.0,213.8 206.5,214.0 206.3,213.2 207.1,213.6 " />
    <polygon id="Myanmar" points="209.9,215.1 209.7,213.9 210.1,215.0 " />
    <polygon id="Myanmar" points="204.4,215.7 203.3,216.7 202.4,216.0 202.5,215.4 203.4,215.1 204.2,215.0 204.6,215.5 " />
    <polygon id="Myanmar" points="211.4,215.8 212.1,215.8 211.3,216.3 210.7,216.1 210.4,215.6 210.8,215.1 211.3,215.6 " />
    <polygon id="Myanmar" points="211.8,215.5 " />
    <polygon id="Myanmar" points="205.1,218.6 204.2,218.4 203.7,217.8 203.7,217.3 204.0,216.8 204.7,216.7 205.1,218.5 " />
    <polygon id="Myanmar" points="209.9,222.0 209.1,220.5 208.9,219.2 209.4,219.3 210.1,220.5 210.6,220.6 212.0,221.2 209.9,222.0 " />
    <polygon id="Myanmar" points="206.6,221.6 206.4,220.8 206.8,221.4 " />
    <polygon id="Myanmar" points="206.8,222.5 206.6,221.8 206.9,222.4 " />
    <polygon id="Myanmar" points="198.8,222.7 198.3,222.2 198.8,221.9 198.8,222.6 " />
    <polygon id="Myanmar" points="204.4,225.4 203.9,225.1 203.5,224.1 203.2,222.8 204.4,225.3 " />
    <polygon id="Myanmar" points="196.4,223.5 195.8,223.3 196.4,223.4 " />
    <polygon id="Myanmar" points="209.9,226.3 208.9,226.4 208.7,225.9 208.3,224.9 208.1,223.4 209.2,223.1 210.3,223.1 210.6,224.4 210.5,225.6 209.9,226.3 " />
    <polygon id="Myanmar" points="206.0,227.9 205.4,227.8 205.8,226.9 206.4,224.7 206.8,223.3 207.4,223.8 207.2,225.2 206.9,226.9 206.0,227.9 " />
    <polygon id="Myanmar" points="206.6,231.0 206.3,230.3 206.8,230.1 207.2,230.6 206.6,231.0 " />
    <polygon id="Myanmar" points="210.3,234.5 209.7,234.5 209.5,234.0 210.0,233.5 210.1,232.9 210.5,233.6 210.4,234.3 " />
    <polygon id="Myanmar" points="209.0,234.3 209.2,233.7 209.1,234.3 " />
    <polygon id="Myanmar" points="206.0,234.5 206.7,236.0 207.0,237.5 206.3,238.0 206.3,237.5 206.4,236.9 206.4,236.2 206.1,235.6 205.3,234.9 204.6,235.4 205.1,234.2 206.0,234.4 " />
    <polygon id="Myanmar" points="202.1,235.7 201.8,235.1 202.4,234.9 202.4,235.4 " />
    <polygon id="Myanmar" points="210.2,236.7 209.8,236.1 209.7,235.5 210.5,235.7 210.5,236.4 " />
    <polygon id="Myanmar" points="206.1,240.7 205.8,240.2 206.3,240.1 206.2,240.6 " />
    <polygon id="Myanmar" points="202.0,241.9 201.8,240.9 202.4,241.2 202.2,241.7 " />
    <polygon id="Myanmar" points="205.7,246.6 205.4,245.2 205.6,244.7 206.4,244.9 205.8,246.5 " />
    <polygon id="Myanmar" points="207.1,247.0 205.6,248.1 205.3,248.8 205.1,249.3 204.8,248.3 205.4,247.1 206.4,246.4 207.0,246.4 207.1,247.0 " />
    <polygon id="Myanmar" points="203.7,250.0 203.4,249.5 204.0,249.6 " />
  </g>
</svg>