<?xml version="1.0" encoding="UTF-8" standalone="yes"?>
<!DOCTYPE svg PUBLIC "-//W3C//DTD SVG 1.0//EN" "http://www.w3.org/TR/2001/REC-SVG-20010904/DTD/svg10.dtd">
<svg height="250" width="370" xmlns="http://www.w3.org/2000/svg" xmlns:svg="http://www.w3.org/2000/svg" xmlns:xlink="http://www.w3.org/1999/xlink">


<g id="background">
<rect id="" width="370" height="250" fill="#222222"/>
</g>
  <g id="108" style="stroke-miterlimit: 3; fill: #F1F1F1; stroke: #000000; stroke-opacity: 1; stroke-width: 0.05; stroke-linejoin: bevel; stroke-linecap: square">
    <polygon id="Burundi" points="105.6,168.9 105.9,168.1 106.4,165.3 106.7,163.2 106.9,161.1 107.6,150.7 107.0,139.3 106.5,135.0 105.8,130.8 105.1,126.7 103.7,120.4 103.1,117.9 103.2,116.3 103.4,115.8 104.1,114.9 106.4,113.2 104.8,111.7 103.8,110.3 103.4,109.1 103.5,99.9 103.6,99.3 106.8,95.3 106.8,90.4 106.7,89.0 106.5,88.4 105.8,86.7 104.7,84.6 103.7,83.9 103.0,84.0 101.7,84.4 100.9,84.4 99.7,84.0 96.2,81.2 78.2,60.5 77.4,59.6 77.0,58.4 77.0,56.8 77.1,56.1 77.5,54.9 78.1,53.9 78.9,53.2 80.1,52.7 81.7,51.9 83.4,50.6 84.0,49.7 84.9,47.4 85.1,46.8 85.2,46.1 85.1,45.3 84.4,43.6 84.3,42.1 85.1,36.7 85.7,35.7 86.6,34.9 87.2,34.7 89.1,34.3 90.5,34.1 95.2,33.9 111.4,39.1 117.1,41.3 117.1,42.2 116.8,44.8 119.8,48.2 120.3,49.2 120.1,50.6 119.4,51.5 118.1,52.6 118.1,54.1 119.5,59.3 120.2,60.2 121.1,61.0 122.2,61.4 123.0,61.4 123.6,61.2 130.5,57.9 132.6,58.9 133.1,59.2 140.2,61.5 140.9,61.4 141.5,61.1 145.2,58.4 147.0,58.8 147.7,58.9 149.0,58.6 149.5,58.3 150.5,57.7 152.2,56.2 158.0,58.8 159.3,59.1 160.9,59.1 164.5,58.8 165.1,58.6 174.4,55.2 177.8,53.7 179.2,52.7 180.8,51.1 183.5,47.4 184.4,45.9 184.6,45.3 186.1,41.2 185.9,40.0 185.4,31.2 187.6,8.5 189.0,2.7 189.6,1.3 195.6,4.4 205.5,12.6 206.4,13.3 207.9,14.1 208.5,14.3 213.0,15.4 214.1,14.9 228.4,6.7 236.6,4.5 238.7,1.0 239.5,0.2 240.1,0.0 240.8,0.1 242.0,0.5 245.1,2.0 246.9,3.1 247.1,3.7 248.8,5.9 249.6,6.7 253.9,9.7 254.9,10.2 259.8,11.7 261.1,12.0 261.8,11.8 256.3,18.1 255.6,19.7 250.9,34.1 243.4,63.6 243.4,64.3 243.7,65.6 244.0,66.1 251.5,75.5 252.7,75.7 258.8,69.8 259.9,69.3 260.7,69.2 261.2,69.4 266.4,72.2 270.6,75.3 271.2,76.3 271.2,77.9 272.6,78.9 281.5,80.4 282.9,80.6 293.3,79.2 292.5,81.0 291.4,90.7 292.1,91.6 292.4,92.2 294.2,98.5 294.4,99.9 294.4,100.6 292.2,111.5 288.8,114.4 285.0,116.3 284.4,116.5 283.8,116.4 281.0,114.5 272.3,119.3 271.4,119.9 269.7,121.5 269.1,122.4 267.5,124.7 268.3,125.0 269.0,125.1 270.3,125.4 271.4,125.9 272.3,126.6 272.6,127.1 272.7,127.8 272.8,128.6 272.4,129.8 268.6,134.0 267.7,134.7 267.0,134.8 264.7,134.9 264.0,135.1 263.5,135.4 257.3,138.5 253.6,140.4 248.1,144.4 247.4,145.3 246.9,146.5 241.3,161.8 240.7,164.3 241.9,168.6 242.2,170.7 242.2,171.4 242.1,172.1 241.8,173.0 239.5,172.0 238.5,171.4 237.9,171.3 235.4,171.2 234.7,171.3 232.5,173.1 221.7,189.5 221.4,190.8 221.3,193.9 215.7,206.9 215.2,208.0 198.2,229.2 188.3,236.3 186.9,237.2 168.0,248.8 157.1,249.8 129.8,250.0 128.2,250.0 126.3,240.8 125.1,232.3 124.7,224.5 124.6,220.6 124.3,218.4 123.9,216.4 122.9,213.4 119.4,204.8 118.9,203.7 118.3,202.7 117.7,201.7 115.3,198.5 113.1,195.9 110.9,193.3 110.0,192.5 108.3,191.1 106.9,189.2 106.4,188.1 105.9,184.5 104.9,174.2 104.9,173.4 104.9,171.9 105.6,168.9 " />
  </g>
</svg>