<?xml version="1.0" encoding="UTF-8" standalone="yes"?>
<!DOCTYPE svg PUBLIC "-//W3C//DTD SVG 1.0//EN" "http://www.w3.org/TR/2001/REC-SVG-20010904/DTD/svg10.dtd">
<svg height="250" width="370" xmlns="http://www.w3.org/2000/svg" xmlns:svg="http://www.w3.org/2000/svg" xmlns:xlink="http://www.w3.org/1999/xlink">


<g id="background">
<rect id="" width="370" height="250" fill="#222222"/>
</g>
  <g id="112" style="stroke-miterlimit: 3; fill: #F1F1F1; stroke: #000000; stroke-opacity: 1; stroke-width: 0.05; stroke-linejoin: bevel; stroke-linecap: square">
    <polygon id="Belarus" points="134.2,49.1 134.9,48.4 135.7,48.0 136.4,47.9 137.3,48.1 138.8,48.6 139.3,48.6 140.1,48.6 143.4,47.7 143.9,47.5 144.7,46.6 145.4,45.3 148.5,43.1 154.9,42.5 157.3,43.3 161.2,44.0 169.7,44.7 170.8,44.7 172.3,44.6 173.1,43.6 173.5,42.9 173.5,42.1 174.0,39.9 174.5,39.3 176.7,38.2 179.9,36.5 183.7,34.0 184.6,32.8 184.9,32.3 192.4,30.1 192.9,30.1 193.6,30.3 194.3,30.7 195.0,31.3 199.7,34.5 200.9,34.6 201.5,34.3 202.0,33.5 202.4,33.0 207.9,32.5 208.5,32.5 211.5,32.7 212.1,32.7 212.8,32.9 214.7,35.1 215.1,35.8 215.1,36.6 215.6,37.5 216.3,38.1 216.9,38.3 220.0,38.8 220.5,38.8 220.5,38.3 220.7,37.7 221.4,37.3 226.7,35.6 227.3,35.4 228.7,35.3 231.8,35.7 233.1,35.9 241.9,38.0 242.9,38.4 243.8,39.1 244.4,39.8 243.5,40.1 242.6,40.3 242.1,40.7 240.4,44.2 240.8,45.4 241.3,46.0 245.0,48.3 245.5,48.6 246.3,48.5 247.3,48.0 251.8,45.6 261.5,42.5 262.3,42.3 263.0,42.2 264.0,42.1 274.6,42.2 283.1,44.1 284.0,44.3 288.4,47.0 288.8,47.9 290.4,49.7 294.1,52.0 294.8,52.2 295.3,52.2 297.4,51.5 298.4,51.3 299.0,51.3 299.6,51.3 300.2,51.5 300.9,51.9 301.0,52.9 301.4,56.0 301.4,59.1 301.4,59.7 300.5,60.5 299.5,60.6 298.2,61.5 297.2,62.4 296.7,63.1 296.5,63.8 300.4,67.3 301.4,67.7 302.9,69.3 304.8,73.0 304.9,73.5 301.6,76.5 300.5,76.9 299.9,77.0 298.5,77.2 297.5,78.2 295.9,80.9 295.6,81.5 295.3,82.4 295.2,83.0 297.2,83.6 298.9,84.1 300.6,84.8 303.9,86.3 307.7,88.9 309.3,91.3 308.8,91.8 308.0,92.7 307.5,93.3 307.1,93.8 307.0,94.6 307.8,95.1 308.8,95.3 311.4,96.0 312.3,96.0 315.8,100.3 315.7,101.3 315.7,102.1 316.3,104.3 324.0,108.0 324.7,108.3 329.8,109.7 331.4,109.7 332.1,109.7 332.7,109.7 336.3,111.3 337.1,113.6 336.8,115.0 335.7,118.2 335.1,119.2 334.2,119.7 333.6,120.4 333.2,121.3 337.8,122.4 338.3,122.4 339.9,122.0 341.2,121.6 342.1,121.4 347.0,120.8 355.1,123.0 359.8,124.4 360.9,124.8 361.9,125.6 362.0,126.2 361.1,126.8 359.2,127.3 358.5,127.4 358.7,129.0 359.3,130.1 359.9,130.7 360.5,131.0 366.1,133.2 367.0,133.1 367.8,133.1 370.9,134.5 370.9,135.2 370.3,138.5 366.0,140.4 359.8,143.9 359.0,144.7 358.4,145.1 353.9,147.4 351.0,148.4 348.1,149.0 346.9,149.1 346.4,149.1 340.7,148.8 339.2,148.7 334.8,147.7 334.5,146.8 334.3,146.2 334.1,145.5 333.7,145.0 328.1,144.1 327.5,144.0 320.7,144.3 320.0,144.4 319.4,144.9 319.0,145.4 318.6,146.2 318.4,146.9 318.2,147.7 318.7,148.3 315.9,150.5 314.0,151.5 318.8,155.9 319.8,156.6 320.7,157.1 322.1,157.7 322.8,157.9 323.4,158.0 324.5,158.0 326.1,159.9 326.4,160.7 326.7,162.4 325.7,163.7 324.9,164.1 323.7,164.2 323.1,164.3 323.3,164.9 326.3,168.1 327.2,172.1 328.0,176.6 327.5,178.0 326.8,178.5 326.9,179.3 330.8,182.5 333.0,184.2 333.6,184.4 334.1,184.9 334.1,186.3 334.0,186.9 332.1,187.0 327.8,186.9 323.9,186.6 323.1,186.6 320.0,186.5 318.4,186.5 317.7,186.6 316.9,186.7 316.2,187.0 315.4,187.6 308.8,187.8 307.8,187.8 302.7,187.9 302.1,188.0 301.5,188.2 301.2,188.8 301.0,189.8 302.1,191.1 299.7,192.0 297.0,193.1 293.9,195.1 290.8,197.8 290.6,198.3 291.0,199.0 289.4,202.2 286.9,204.9 286.5,208.8 287.7,210.8 289.9,215.4 290.0,216.9 289.1,217.2 287.1,218.1 286.4,220.0 283.0,218.3 278.6,215.9 278.6,214.8 278.5,214.2 273.3,211.2 272.8,210.9 272.2,210.8 271.3,210.7 270.6,210.7 266.7,210.8 265.5,210.8 264.4,210.9 261.7,211.5 260.5,212.0 258.7,212.7 256.1,212.7 255.2,212.5 254.8,211.9 254.5,211.1 253.8,210.5 252.8,210.4 250.6,210.7 242.3,214.2 240.1,215.2 239.5,215.3 239.0,215.1 238.4,214.7 236.0,210.6 236.1,209.9 235.8,209.0 233.4,205.9 232.8,205.5 231.0,205.1 229.9,205.1 229.2,205.1 228.5,205.3 220.5,208.3 219.8,208.6 219.1,209.1 218.4,209.8 217.7,210.6 217.3,211.3 217.5,212.4 217.4,213.4 216.9,213.8 213.8,212.7 213.1,211.9 212.5,210.2 212.2,209.2 212.3,208.2 206.9,207.3 206.2,207.3 205.6,207.5 204.5,207.9 200.1,207.0 198.1,204.4 197.0,204.2 196.2,204.4 195.1,204.9 194.5,205.4 193.9,206.2 193.3,207.1 192.2,207.7 191.2,207.9 190.5,207.9 188.0,208.0 187.5,207.9 186.8,207.8 186.1,207.5 185.2,207.1 184.4,206.5 183.8,206.0 182.7,205.6 182.1,205.8 181.0,206.4 180.5,207.0 180.5,207.6 180.8,208.1 180.8,208.7 180.5,209.5 178.2,211.7 175.6,210.7 176.6,208.5 177.2,207.9 177.3,207.3 176.7,206.7 175.7,206.5 172.2,205.9 168.9,205.4 167.0,206.4 166.4,206.5 165.3,206.6 160.5,206.7 160.0,206.6 156.9,203.8 156.9,203.2 157.0,202.2 157.1,201.0 156.9,200.5 156.1,200.3 155.4,200.2 152.3,199.9 150.3,200.0 149.2,200.2 148.0,200.7 147.2,200.8 146.6,200.8 146.1,200.7 145.1,200.5 142.2,199.9 140.4,199.4 138.4,198.7 136.5,198.2 135.6,198.0 135.1,198.0 134.0,198.0 132.6,198.1 131.0,198.3 129.8,198.4 128.2,198.3 127.5,198.0 127.6,196.7 126.9,196.6 124.6,196.5 123.6,196.6 122.2,196.7 118.6,196.6 117.5,196.4 116.3,195.9 111.6,194.6 103.5,193.6 101.9,193.4 100.5,193.8 99.9,194.0 98.8,194.1 98.0,194.1 95.0,194.2 93.6,194.2 93.0,194.1 88.9,194.1 85.8,193.9 85.1,193.8 83.9,193.4 82.6,193.0 82.0,192.8 81.3,192.7 78.8,192.6 75.5,193.3 73.9,193.7 71.6,194.5 68.2,194.9 61.9,195.4 60.3,195.2 49.1,195.4 48.4,195.5 45.5,197.8 45.1,198.4 45.0,199.0 44.8,200.0 44.4,200.9 36.0,205.6 34.9,206.2 33.5,206.7 32.8,206.9 32.2,207.1 31.5,207.1 30.9,206.9 30.6,206.3 30.2,205.7 29.5,205.2 24.3,204.5 23.7,204.5 20.4,205.0 19.7,205.1 18.6,205.6 18.1,206.2 18.6,207.0 19.0,207.6 19.6,208.9 19.6,209.6 18.0,209.3 17.1,209.2 16.4,208.9 15.4,206.8 15.3,204.5 16.0,204.2 15.8,203.2 16.2,200.7 18.2,194.4 18.8,193.0 20.1,190.9 19.3,188.0 17.6,186.8 8.5,183.2 7.8,183.1 6.1,182.9 3.2,182.5 2.6,182.4 2.0,182.0 1.0,180.2 4.0,176.8 9.2,171.8 10.0,171.2 10.7,170.8 14.1,169.2 14.8,168.9 17.7,168.0 19.1,167.7 19.9,167.5 21.2,167.2 22.1,167.3 23.1,167.4 23.7,167.3 28.8,164.9 29.7,164.4 30.5,163.8 30.8,163.3 31.0,162.1 30.9,161.3 30.6,157.9 30.4,154.4 30.7,152.1 27.8,144.9 25.0,140.3 21.7,134.9 20.9,133.9 20.5,133.1 19.3,130.8 18.6,129.1 18.3,128.4 18.1,127.8 17.6,126.3 17.4,125.7 17.0,124.2 15.5,120.0 14.4,118.0 14.2,117.4 14.1,116.9 14.0,116.0 14.6,115.9 15.6,116.0 16.6,116.2 17.4,116.4 22.0,116.8 24.9,116.3 29.3,116.1 32.7,116.2 33.9,116.2 36.2,116.3 36.7,116.2 37.5,116.0 38.0,115.6 38.8,115.2 40.0,115.1 40.9,115.1 41.9,115.5 42.5,115.8 43.0,116.3 43.3,117.1 44.0,117.7 48.0,118.1 48.9,117.9 51.1,116.9 52.8,115.9 53.5,115.6 56.9,114.1 59.7,113.7 60.4,114.0 60.6,114.6 61.4,115.0 65.0,114.7 65.6,113.9 65.8,113.1 65.7,112.5 65.3,111.7 64.6,110.8 64.0,109.9 65.6,108.4 66.1,108.2 70.2,107.7 70.7,107.7 71.3,107.8 71.9,108.2 72.8,108.8 73.5,108.8 74.7,108.6 75.8,108.2 78.1,107.2 78.8,106.6 79.7,105.7 85.2,104.0 86.3,104.0 87.0,103.9 87.6,103.7 88.3,103.2 88.8,102.7 89.3,102.2 89.9,102.0 91.2,102.1 93.7,104.1 94.1,104.7 93.1,106.0 91.4,106.6 92.5,108.1 93.2,108.3 97.5,108.6 98.2,108.5 101.5,107.9 102.2,107.6 102.5,107.0 103.1,104.4 99.6,101.1 99.0,100.9 98.0,101.4 97.4,101.6 96.7,101.7 95.5,101.8 94.4,101.8 93.9,101.7 93.2,101.4 93.1,100.2 93.4,99.7 97.0,93.8 97.7,93.3 99.6,92.7 100.8,92.0 101.4,91.4 101.5,90.9 101.3,90.2 100.8,89.6 100.2,88.6 100.0,88.1 100.0,87.4 100.3,83.5 102.4,80.2 105.6,77.5 107.1,77.0 107.8,76.9 108.3,76.9 113.5,76.6 116.7,76.1 118.6,74.4 120.1,72.4 120.2,71.7 120.2,70.9 120.5,70.2 121.2,69.6 129.1,69.2 130.0,69.3 130.7,69.4 135.3,67.8 140.5,65.5 141.1,65.2 142.0,64.6 141.9,63.8 140.8,63.2 140.2,63.1 135.5,62.4 134.9,62.4 132.4,63.0 131.0,62.9 130.1,62.7 128.8,62.3 128.3,62.1 130.9,57.9 134.7,52.3 134.7,50.3 134.5,49.6 " />
  </g>
</svg>