<?xml version="1.0" encoding="UTF-8" standalone="yes"?>
<!DOCTYPE svg PUBLIC "-//W3C//DTD SVG 1.0//EN" "http://www.w3.org/TR/2001/REC-SVG-20010904/DTD/svg10.dtd">
<svg height="250" width="370" xmlns="http://www.w3.org/2000/svg" xmlns:svg="http://www.w3.org/2000/svg" xmlns:xlink="http://www.w3.org/1999/xlink">


<g id="background">
<rect id="" width="370" height="250" fill="#222222"/>
</g>
  <g id="116" style="stroke-miterlimit: 3; fill: #F1F1F1; stroke: #000000; stroke-opacity: 1; stroke-width: 0.05; stroke-linejoin: bevel; stroke-linecap: square">
    <polygon id="Cambodia" points="331.0,15.2 330.7,15.8 330.0,16.6 329.3,16.8 328.6,16.6 328.3,15.9 327.8,15.7 326.8,16.3 326.4,16.8 324.6,20.8 324.3,21.5 324.4,22.2 325.1,23.4 325.2,24.1 325.2,24.8 325.0,26.9 324.9,27.7 323.7,31.3 323.4,32.1 322.9,32.9 322.5,33.7 322.4,34.7 324.0,40.0 324.7,41.0 330.1,45.3 329.9,50.6 329.6,53.3 336.8,64.9 339.2,68.0 339.2,68.6 339.6,77.4 337.9,81.5 330.7,98.5 331.2,102.2 332.1,106.1 332.3,106.7 332.8,107.6 334.9,110.0 335.5,110.8 335.7,111.6 337.1,122.8 337.2,125.7 334.9,136.2 334.5,137.2 333.7,138.2 328.8,142.8 328.2,143.2 327.6,143.3 325.7,141.2 324.6,139.8 323.6,138.8 322.9,138.5 319.8,139.2 316.4,140.3 313.6,141.2 312.2,141.8 309.0,145.4 307.3,147.6 305.6,149.9 301.4,153.0 300.6,153.4 299.9,153.6 298.1,154.2 297.2,154.3 296.5,154.2 294.2,154.1 290.2,153.7 287.7,158.0 287.0,159.2 286.2,159.8 284.9,160.2 281.5,160.2 281.0,159.6 280.5,159.4 270.3,159.0 268.7,159.5 271.1,164.7 270.4,168.4 270.2,168.9 269.7,170.0 270.3,174.9 270.9,177.5 268.5,176.9 263.0,176.7 262.2,176.8 261.7,176.6 260.4,175.3 259.9,174.4 259.4,174.0 249.2,171.3 247.4,171.0 246.5,171.0 245.8,171.4 245.4,172.1 245.2,172.8 245.1,173.9 244.9,174.7 242.4,178.3 241.9,178.8 241.2,179.0 239.9,178.3 239.1,177.7 237.9,177.3 237.2,177.2 236.5,177.2 235.7,177.6 233.5,180.3 233.6,181.7 236.6,183.7 237.3,184.5 238.4,190.4 238.3,191.3 237.3,195.1 236.6,198.4 236.6,199.0 240.1,203.5 241.2,204.5 250.3,211.4 251.4,211.6 251.9,211.1 253.0,210.9 254.7,212.4 255.3,213.2 256.7,217.8 255.1,217.8 253.8,217.6 253.1,217.8 252.8,218.5 252.7,220.8 254.5,223.9 256.0,229.7 249.0,227.8 241.8,223.2 235.9,221.2 231.5,215.2 229.9,215.1 228.9,215.3 228.1,215.5 227.2,216.0 226.4,216.6 222.9,218.1 220.2,218.7 218.2,219.1 216.6,219.4 211.3,218.3 210.8,218.4 207.7,221.9 207.1,222.8 206.8,223.8 203.4,223.6 199.5,222.8 197.9,222.2 197.0,221.8 192.2,218.9 191.4,219.1 189.4,221.0 188.8,221.8 188.1,222.5 188.0,223.1 188.1,223.7 188.7,225.4 189.4,226.6 191.2,230.9 191.4,231.4 191.7,232.3 191.6,232.9 189.8,234.0 188.8,234.4 185.1,236.4 184.5,236.7 183.6,237.4 182.8,238.3 182.3,239.0 181.7,240.0 181.1,241.0 179.9,242.7 179.1,243.5 178.4,244.0 177.4,244.2 176.8,244.3 174.2,244.3 172.5,244.2 170.3,244.0 169.2,243.8 168.4,243.7 166.9,243.4 166.3,243.3 162.4,243.5 160.8,245.0 160.2,245.8 159.7,246.9 159.3,247.9 156.0,250.0 153.5,250.0 147.7,245.9 143.6,243.0 142.3,241.7 137.1,241.9 135.0,242.1 133.2,242.7 129.4,242.0 127.8,241.6 123.7,240.5 117.6,242.6 117.2,243.1 116.1,243.7 113.4,243.6 112.2,245.7 106.9,246.3 106.0,246.0 99.6,239.4 99.3,237.4 101.5,233.3 102.3,232.7 103.5,232.0 109.1,231.5 108.2,230.7 108.5,228.2 109.0,227.5 109.7,227.3 110.4,227.0 110.9,226.3 111.1,225.4 111.3,224.1 111.1,222.9 110.7,221.4 108.1,214.7 102.1,207.6 101.6,207.2 101.0,207.0 99.2,207.0 98.6,207.1 96.9,208.6 95.5,210.7 94.5,215.2 93.2,219.6 89.5,223.1 79.5,224.2 77.9,223.7 76.7,223.1 74.9,220.7 74.7,220.0 75.0,219.1 75.6,218.3 76.0,209.8 75.9,207.8 75.7,207.1 74.7,204.7 74.4,204.1 75.1,196.0 73.6,190.5 70.9,184.7 67.9,185.5 67.3,185.2 66.8,184.7 67.5,183.4 68.1,182.8 68.3,181.9 68.2,180.3 67.4,179.2 67.1,177.3 68.4,175.5 68.9,175.1 70.2,174.3 72.9,175.4 73.7,174.9 74.1,174.3 70.5,173.8 69.5,174.0 68.9,174.2 68.0,174.9 67.4,173.6 66.7,172.2 64.3,169.9 64.1,169.3 63.2,168.0 62.9,168.6 63.7,170.4 65.1,171.4 66.2,172.2 66.6,173.2 67.2,174.3 66.8,176.5 66.6,177.8 66.9,178.9 67.3,181.4 67.1,182.0 66.8,182.9 65.5,182.0 64.3,179.2 64.8,178.4 64.8,177.7 64.3,173.2 64.2,172.4 63.9,171.8 63.3,170.9 62.6,170.4 60.6,168.0 60.0,166.9 52.9,149.0 52.6,148.3 52.7,146.6 54.1,136.8 54.7,135.8 56.8,133.7 56.3,131.6 47.9,122.9 44.6,120.6 43.8,120.2 42.2,120.1 41.4,119.7 40.7,119.2 40.2,118.3 40.1,117.7 40.3,115.1 41.3,114.2 41.8,112.2 42.0,111.4 39.6,101.0 35.2,92.8 34.1,90.6 33.7,89.8 31.1,83.8 31.0,82.8 31.3,82.2 31.5,81.4 31.6,77.5 31.8,70.9 32.8,66.2 34.0,66.5 36.5,66.9 38.0,66.9 41.6,66.5 42.2,66.5 43.1,66.2 43.7,65.8 45.9,64.3 45.7,63.2 44.6,62.5 44.0,62.1 43.5,61.4 43.4,60.6 43.6,60.1 44.4,59.4 47.6,57.8 52.6,55.4 53.1,55.0 55.2,50.5 55.5,49.6 56.1,47.8 56.5,46.1 56.7,45.5 57.4,44.5 58.1,43.9 60.9,41.7 63.5,39.2 65.6,33.1 65.4,31.5 65.5,30.9 66.0,30.2 66.8,29.4 67.8,29.1 68.8,28.9 70.0,28.4 70.6,28.0 71.3,27.4 72.4,25.9 73.2,25.2 74.7,24.4 77.6,22.8 79.7,22.1 83.4,21.8 84.8,20.9 85.5,20.6 87.4,20.4 88.2,20.4 88.9,20.4 90.3,20.5 91.2,20.5 91.9,20.5 96.4,19.7 96.9,19.4 98.8,18.2 99.4,17.9 101.6,16.8 102.6,16.5 107.6,15.2 109.3,15.4 110.0,16.4 111.3,18.6 123.0,21.6 129.3,21.2 129.9,20.9 130.8,20.4 134.4,19.0 135.0,18.8 143.8,17.5 144.3,17.6 152.2,19.4 154.3,20.0 154.8,20.4 155.5,20.6 159.8,20.2 161.1,20.0 161.9,19.6 162.5,18.4 163.1,17.8 165.0,16.3 174.5,15.2 179.4,16.9 181.1,17.9 184.1,18.4 185.3,18.7 185.8,18.9 186.3,19.6 185.9,21.1 185.6,22.3 185.9,23.3 186.4,24.5 187.8,26.9 188.3,27.5 188.9,28.1 189.9,28.6 190.8,28.6 191.5,28.4 192.9,27.9 194.0,27.3 194.8,26.4 195.4,23.7 196.2,21.3 197.3,20.8 198.1,20.9 198.0,24.1 198.1,24.7 202.1,30.7 207.1,35.0 207.6,35.1 211.5,34.6 214.7,33.5 218.5,31.5 228.6,34.9 231.4,36.5 231.8,37.7 231.9,39.0 232.3,39.8 233.0,40.3 237.7,44.2 238.9,45.3 241.1,45.6 247.5,45.4 250.6,44.5 254.2,38.7 254.4,38.2 254.4,37.6 254.2,36.8 251.1,33.4 246.6,28.2 246.1,27.5 244.0,22.2 243.9,21.7 243.8,21.1 243.9,20.3 244.4,19.6 249.9,19.1 252.2,19.2 253.3,19.6 254.0,20.1 254.7,20.1 256.8,19.3 257.3,18.9 258.1,17.3 258.6,15.3 258.6,14.0 258.6,13.3 258.7,12.7 261.1,13.3 261.9,14.4 262.5,15.0 263.5,15.4 267.5,14.9 268.0,14.7 269.4,13.0 269.3,11.7 271.5,8.7 272.1,8.3 274.6,6.6 275.2,6.4 275.7,6.4 279.2,11.6 280.8,14.1 285.2,16.0 288.1,17.5 288.8,18.7 290.7,21.1 291.3,21.7 293.6,23.6 309.3,17.9 312.4,15.7 316.2,12.3 317.3,10.4 322.8,6.6 330.1,4.0 334.4,0.0 335.1,2.7 335.1,3.3 333.7,8.8 333.5,9.5 331.9,13.2 331.0,15.2 " />
    <polygon id="Cambodia" points="71.1,191.1 70.6,191.6 68.9,186.8 68.9,186.2 69.7,185.7 70.3,185.9 71.2,186.6 71.7,188.6 71.9,189.6 71.8,190.2 71.1,191.1 " />
    <polygon id="Cambodia" points="70.8,202.0 69.5,201.7 68.9,201.3 68.4,200.3 67.9,193.8 67.9,193.1 68.1,192.3 68.4,191.7 69.9,191.7 70.6,192.3 71.0,192.8 71.6,194.4 72.0,198.5 71.9,199.1 71.8,199.6 71.1,201.6 " />
    <polygon id="Cambodia" points="87.5,232.5 87.6,233.4 87.3,233.9 84.9,235.6 84.4,234.0 84.1,233.3 83.6,232.7 82.4,232.8 81.8,232.6 80.5,230.5 80.7,230.0 81.4,229.3 83.5,229.2 84.0,229.5 87.4,232.4 " />
    <polygon id="Cambodia" points="114.4,248.8 113.8,248.5 113.1,247.6 112.8,246.9 113.3,244.8 114.8,244.6 115.4,244.9 115.8,245.5 116.0,247.4 116.0,248.1 114.4,248.8 " />
  </g>
</svg>