<?xml version="1.0" encoding="UTF-8" standalone="yes"?>
<!DOCTYPE svg PUBLIC "-//W3C//DTD SVG 1.0//EN" "http://www.w3.org/TR/2001/REC-SVG-20010904/DTD/svg10.dtd">
<svg height="250" width="370" xmlns="http://www.w3.org/2000/svg" xmlns:svg="http://www.w3.org/2000/svg" xmlns:xlink="http://www.w3.org/1999/xlink">


<g id="background">
<rect id="" width="370" height="250" fill="#222222"/>
</g>
  <g id="12" style="stroke-miterlimit: 3; fill: #F1F1F1; stroke: #000000; stroke-opacity: 1; stroke-width: 0.05; stroke-linejoin: bevel; stroke-linecap: square">
    <polygon id="Algeria" points="203.5,4.0 204.0,3.9 204.6,4.0 205.2,4.7 205.9,4.9 206.6,4.8 207.2,4.3 208.3,4.3 209.2,4.4 210.5,4.5 211.5,4.2 212.6,3.9 213.2,3.6 213.8,3.0 214.4,2.8 215.3,2.6 216.3,2.4 216.8,2.7 217.8,2.7 218.9,2.8 221.2,2.6 221.9,2.6 223.2,2.7 225.4,2.9 226.1,2.8 227.5,2.8 228.0,2.8 228.7,2.7 230.6,3.4 233.0,4.3 232.8,4.9 233.1,5.4 233.8,5.7 234.3,5.9 234.9,6.1 235.8,6.2 237.5,6.0 238.0,5.9 238.9,5.5 239.3,4.9 239.9,4.4 241.3,3.7 241.8,3.6 242.4,3.6 242.9,3.8 243.6,3.8 245.4,3.5 247.7,2.7 248.6,2.5 249.1,1.9 249.1,1.0 250.4,0.2 250.9,0.1 251.8,0.0 252.4,0.2 253.3,1.1 258.0,2.8 258.5,2.9 261.1,2.5 262.3,1.9 262.7,1.4 262.7,0.9 262.1,0.6 262.6,0.2 263.2,0.2 265.6,0.7 266.9,1.2 267.4,1.5 269.3,1.7 269.9,2.3 269.9,2.9 270.4,3.2 271.3,3.4 272.1,3.4 273.6,3.0 275.2,2.3 276.0,2.0 278.4,2.4 280.6,2.3 281.6,2.1 281.7,2.9 281.8,3.6 279.6,4.8 279.3,5.8 277.9,6.7 276.5,7.2 275.8,7.4 275.5,8.0 276.3,8.4 276.8,8.4 278.1,8.7 278.2,9.4 278.2,9.9 277.7,11.0 277.4,12.1 277.2,13.7 277.0,15.1 276.9,15.6 276.7,16.3 276.6,17.0 276.7,17.7 276.8,18.4 277.2,18.9 277.7,19.5 277.8,20.1 277.8,20.8 277.5,22.5 277.2,23.3 277.2,23.8 277.4,24.5 278.6,26.2 277.7,27.2 277.0,29.3 276.8,30.9 277.0,32.2 276.4,32.7 276.1,33.2 276.5,33.8 274.7,35.2 274.0,35.5 271.2,36.6 270.6,37.3 270.6,37.9 270.1,39.1 269.3,39.5 268.6,39.6 268.1,39.8 266.5,41.2 266.4,42.5 266.2,43.1 266.0,43.7 266.0,44.2 266.3,45.3 266.9,47.1 268.5,49.5 269.2,50.7 269.2,51.3 269.2,52.1 269.3,53.0 269.8,53.6 273.2,54.9 274.0,55.0 275.2,56.1 276.8,58.2 277.2,58.8 277.3,59.3 277.4,60.1 277.8,62.3 277.8,62.9 278.8,63.5 280.7,64.7 282.5,65.8 284.9,67.3 286.9,68.5 287.6,68.9 288.0,70.3 288.3,71.5 289.3,75.5 289.8,77.2 290.9,81.7 291.4,83.6 292.1,86.3 292.8,89.1 293.3,90.8 294.0,93.7 294.2,94.4 292.1,95.6 291.2,96.0 291.6,96.8 292.1,97.3 292.5,97.8 293.0,98.3 294.4,100.2 294.8,100.8 295.6,102.1 295.9,102.7 296.2,103.2 296.8,104.5 297.3,105.4 298.3,108.9 298.4,109.5 298.5,110.0 298.6,110.8 298.8,111.8 298.8,112.4 298.9,113.6 298.9,114.3 298.8,114.9 298.7,115.7 298.5,116.8 298.4,117.6 298.0,119.8 297.8,121.0 297.7,121.7 298.3,123.3 299.3,125.6 300.0,127.3 299.9,127.9 299.1,130.3 298.9,130.9 298.1,131.8 297.5,133.2 297.0,134.8 297.1,135.7 297.9,137.9 298.1,138.5 298.3,139.2 298.5,140.5 299.2,140.9 299.5,142.0 299.2,143.5 299.2,144.7 298.9,146.0 297.3,146.6 296.1,147.1 293.7,148.1 292.9,149.3 292.3,150.2 292.3,151.0 292.8,151.6 293.4,152.4 297.7,158.0 298.6,159.1 300.7,161.8 301.1,162.4 301.2,163.0 301.2,165.7 301.3,166.8 301.3,167.7 301.3,168.7 302.5,169.7 303.0,170.0 303.6,170.3 303.8,171.0 303.9,171.6 304.1,172.3 304.8,172.9 306.2,173.9 307.2,174.1 308.6,173.6 309.8,173.1 310.5,172.8 311.1,173.1 312.1,173.5 314.0,174.2 314.6,174.4 316.0,174.7 318.2,175.4 319.3,175.7 320.5,176.0 322.1,176.5 324.4,180.7 324.9,181.5 327.1,185.5 328.0,187.3 325.0,189.0 324.2,189.4 315.8,194.2 312.1,196.4 311.0,197.0 309.1,198.1 305.3,200.3 302.3,202.1 297.1,205.1 293.3,207.4 286.8,211.2 282.9,213.6 281.1,214.7 273.7,219.1 271.9,220.2 269.2,221.9 268.2,222.5 265.7,224.0 258.3,230.2 254.3,233.6 252.0,235.6 249.6,237.7 245.2,241.5 242.8,243.5 240.7,243.9 239.2,244.2 235.9,244.8 230.1,246.0 224.7,247.0 222.7,247.4 221.2,247.7 218.9,248.1 217.2,248.4 216.6,248.5 214.1,249.0 208.6,250.0 206.6,248.6 206.0,248.1 205.6,247.5 206.0,246.9 206.7,246.1 207.7,244.6 207.8,244.0 207.4,243.5 207.0,242.1 207.0,241.5 207.2,239.5 207.3,238.5 204.4,237.0 202.7,236.3 200.0,235.8 198.3,235.9 197.4,235.6 196.0,235.1 195.5,234.4 195.1,233.6 194.6,233.1 194.1,232.6 193.4,232.1 192.7,232.0 192.0,232.6 191.4,232.9 188.8,232.3 187.6,231.7 186.3,230.8 185.7,230.3 185.7,229.6 185.6,228.5 184.4,227.6 183.6,227.2 183.0,227.0 181.3,226.5 178.9,225.8 178.6,224.9 178.7,224.4 178.9,223.8 179.1,222.9 179.1,222.0 179.0,221.3 178.8,220.7 173.2,217.2 168.1,214.1 166.3,213.0 164.7,212.0 162.8,210.8 161.1,209.6 156.8,206.6 151.9,203.3 146.8,199.8 143.1,197.3 138.5,194.1 133.8,191.0 128.8,187.7 123.6,184.3 118.0,180.7 114.8,178.6 110.3,175.7 105.7,172.8 100.2,169.3 96.3,166.9 95.2,166.2 89.6,162.7 84.8,159.8 82.3,158.2 75.9,154.4 70.7,151.3 69.2,150.4 66.2,148.6 63.2,146.9 62.4,146.4 56.4,142.9 50.4,139.5 49.4,138.9 43.3,135.4 43.0,132.4 43.0,131.0 43.0,130.1 43.0,126.4 43.0,115.7 43.5,115.4 44.2,115.0 45.0,114.7 46.5,113.8 47.0,113.1 49.4,111.3 50.1,110.9 52.4,110.0 55.0,108.1 56.5,107.0 57.1,106.4 57.7,106.2 58.3,106.2 58.9,106.3 59.6,106.3 61.1,105.3 61.6,104.6 63.3,103.4 64.2,102.9 68.2,103.2 68.9,103.3 69.5,103.5 70.1,103.7 71.0,103.9 71.6,103.9 72.2,103.6 72.7,103.0 72.9,102.5 73.2,101.5 74.3,100.6 76.6,100.6 77.2,100.5 77.8,100.0 78.6,100.0 79.2,100.1 79.8,100.2 80.5,100.1 81.2,99.8 82.7,99.6 83.5,99.5 84.0,99.4 85.0,99.3 85.6,99.3 86.2,99.2 88.2,98.2 88.8,97.9 89.3,97.5 89.8,97.1 90.5,96.4 91.3,95.7 91.8,95.1 92.4,94.3 92.9,93.5 93.2,92.9 93.7,92.0 94.1,91.4 94.7,90.9 98.6,89.6 101.0,89.1 101.5,89.1 102.2,88.8 102.7,88.3 103.8,87.8 104.4,87.6 105.1,87.3 105.6,86.7 106.9,85.5 107.4,85.2 108.4,85.1 109.1,85.0 109.6,84.9 110.2,84.9 110.8,84.9 111.3,84.9 112.3,84.6 112.9,84.2 113.0,83.7 113.0,82.9 111.6,82.0 110.5,81.9 109.9,81.9 110.1,79.4 109.9,78.0 109.6,77.3 109.7,75.1 109.8,74.6 110.4,74.3 111.3,74.2 112.1,74.2 113.4,74.6 113.9,74.8 114.6,74.7 115.4,74.3 117.2,73.8 118.0,73.6 119.0,73.3 119.9,73.1 121.2,72.6 121.8,72.1 122.0,71.2 122.0,70.2 122.5,69.4 123.1,69.1 128.6,68.3 129.2,68.2 130.2,68.1 130.8,68.1 131.4,68.1 132.7,68.2 133.5,68.4 135.3,68.5 136.0,68.6 139.7,68.7 142.0,68.8 144.4,68.9 144.9,69.0 145.5,69.1 146.2,68.9 146.4,68.3 145.5,67.9 144.9,68.1 145.3,67.4 145.3,65.8 145.8,65.1 146.3,64.6 147.2,64.5 147.9,64.1 148.6,63.4 145.1,61.1 143.5,60.3 141.3,57.3 142.0,56.9 142.2,56.3 142.2,55.8 141.7,55.2 140.8,54.5 139.9,53.3 139.6,51.5 139.9,50.8 140.2,50.2 140.5,49.4 140.5,48.8 140.4,48.2 140.0,47.5 139.3,47.1 138.8,46.9 139.0,44.3 139.3,43.1 139.8,41.5 138.9,39.0 138.5,37.8 137.9,37.4 138.7,36.6 139.3,36.0 138.7,35.8 137.0,34.4 137.4,33.8 138.5,32.4 137.8,32.0 137.0,31.6 134.0,29.6 132.5,28.7 132.1,27.7 132.7,27.5 133.3,27.6 134.1,27.9 135.3,27.9 135.8,27.8 136.4,27.7 138.0,27.2 138.7,26.9 141.0,25.3 141.6,25.0 142.3,24.6 143.1,24.7 143.7,24.6 144.7,23.9 145.2,23.3 145.5,22.4 145.7,21.9 146.1,21.3 147.1,20.5 148.3,19.5 150.2,19.0 151.7,18.3 153.0,18.9 153.6,19.0 155.2,18.3 155.8,17.5 156.0,17.0 157.4,16.4 157.9,16.4 158.5,16.8 158.6,17.4 159.2,17.7 160.6,18.0 161.2,18.0 161.9,17.7 162.8,17.2 163.8,15.9 164.2,15.0 164.3,14.5 165.4,13.6 167.2,12.8 170.0,11.3 171.1,10.8 172.0,10.5 172.7,10.5 173.2,10.4 174.2,10.0 175.2,9.5 175.7,8.9 176.8,8.5 178.9,8.0 182.0,7.8 183.2,7.8 184.2,7.7 184.9,7.6 185.5,7.5 186.4,7.5 188.0,7.2 188.8,7.2 189.5,7.3 190.8,7.2 192.2,7.0 192.7,6.8 193.3,6.6 194.5,6.4 195.1,6.3 195.7,6.5 196.2,6.9 196.8,7.0 198.0,6.9 198.5,6.8 201.0,5.7 201.5,5.3 202.6,4.1 203.1,4.0 " />
  </g>
</svg>