<?xml version="1.0" encoding="UTF-8" standalone="yes"?>
<!DOCTYPE svg PUBLIC "-//W3C//DTD SVG 1.0//EN" "http://www.w3.org/TR/2001/REC-SVG-20010904/DTD/svg10.dtd">
<svg height="250" width="370" xmlns="http://www.w3.org/2000/svg" xmlns:svg="http://www.w3.org/2000/svg" xmlns:xlink="http://www.w3.org/1999/xlink">


<g id="background">
<rect id="" width="370" height="250" fill="#222222"/>
</g>
  <g id="120" style="stroke-miterlimit: 3; fill: #F1F1F1; stroke: #000000; stroke-opacity: 1; stroke-width: 0.05; stroke-linejoin: bevel; stroke-linecap: square">
    <polygon id="Cameroon" points="233.9,7.6 234.9,7.7 236.7,8.1 239.1,9.8 241.0,15.5 241.1,16.7 241.0,18.7 240.9,19.4 240.8,20.0 241.0,20.6 242.0,21.6 242.6,21.8 244.0,22.0 244.9,29.1 244.5,30.3 245.1,32.7 245.5,34.7 244.6,36.0 244.2,36.9 243.5,41.0 243.5,41.5 243.5,42.6 243.7,43.9 244.7,47.5 244.8,48.4 244.6,49.0 244.3,49.7 245.1,51.5 245.6,52.0 246.1,53.0 246.4,53.9 247.3,56.5 249.2,58.9 251.3,62.0 254.0,65.2 255.0,65.9 256.0,66.4 256.9,66.9 257.4,67.3 258.0,67.7 256.0,68.2 254.8,68.5 252.3,69.1 249.3,68.1 248.4,67.7 246.6,67.7 245.8,67.8 245.3,68.0 244.5,68.6 243.5,68.6 241.7,68.1 238.5,69.1 235.5,68.4 231.9,67.6 231.3,67.5 225.5,67.9 225.2,68.8 224.4,70.4 223.9,71.2 223.1,72.1 222.5,72.4 221.9,72.9 221.5,73.4 220.3,75.1 220.7,75.6 221.4,75.8 228.4,83.7 228.9,84.3 228.8,85.0 233.3,89.1 234.8,90.2 239.3,93.5 239.9,93.3 240.5,93.6 241.4,94.3 244.6,97.0 247.5,100.6 248.0,101.7 248.9,103.8 250.6,107.5 251.0,108.1 251.3,108.7 251.4,109.3 251.6,110.2 252.6,113.1 252.8,113.8 253.5,115.3 254.0,116.1 254.7,116.2 255.8,116.5 255.8,117.0 255.9,117.9 255.6,119.3 255.1,120.3 254.1,121.5 252.9,124.5 251.3,125.5 249.7,126.5 248.8,127.2 248.4,127.7 247.7,128.9 246.2,132.7 246.1,133.4 245.9,134.2 244.4,137.9 243.1,138.7 242.3,138.8 241.8,139.9 239.3,145.5 238.7,146.4 238.8,147.4 237.5,149.1 233.9,150.8 231.1,152.9 230.4,153.9 230.5,154.8 231.8,156.7 233.2,157.0 233.9,156.5 234.4,156.6 234.8,157.2 234.9,158.6 234.9,160.8 234.9,165.4 234.7,166.0 234.2,168.0 233.7,168.9 232.9,170.4 233.3,171.0 233.9,171.4 234.6,171.7 235.3,171.9 235.9,172.7 236.3,174.1 236.3,175.9 236.0,176.5 236.3,177.1 236.8,179.5 237.0,180.9 237.0,182.9 237.0,184.6 237.3,185.1 238.5,186.6 240.8,188.3 241.6,188.6 243.3,189.5 244.9,192.1 245.2,192.6 245.2,193.6 245.3,195.5 246.2,197.1 244.1,198.1 244.5,199.5 244.8,200.4 245.8,201.8 248.0,204.8 248.8,205.8 249.6,206.6 256.0,213.0 259.9,217.3 260.8,218.3 262.0,218.2 262.9,218.1 263.7,218.4 266.6,221.8 267.2,222.8 267.4,223.7 267.5,224.2 267.2,224.8 266.6,224.9 267.0,230.7 267.0,231.6 267.3,233.0 267.9,234.6 268.9,236.8 269.5,237.6 268.7,238.4 268.1,238.2 267.5,238.0 266.8,239.0 266.8,241.5 267.0,243.5 267.8,245.8 268.1,246.8 268.5,248.3 266.6,250.0 265.8,249.5 265.6,248.8 264.5,247.4 262.4,246.4 259.9,244.6 258.5,243.9 258.0,243.9 257.2,243.9 254.5,243.3 253.7,243.0 252.9,243.1 249.6,243.0 248.3,241.8 247.7,241.6 246.4,241.6 245.8,242.2 245.4,242.8 244.8,242.9 243.7,242.7 240.6,242.1 240.0,240.6 237.8,240.9 236.9,239.7 233.6,238.7 231.4,239.3 227.8,239.1 223.8,239.0 215.8,238.9 213.8,238.9 206.1,238.8 205.9,237.8 205.7,237.3 205.0,236.7 203.3,236.3 202.3,236.3 199.4,236.8 196.4,237.2 194.0,237.3 191.3,236.9 190.5,236.8 188.9,236.2 188.4,236.0 187.8,235.8 184.8,235.5 183.8,235.8 182.8,236.2 182.3,236.3 172.3,236.3 171.1,235.8 168.3,235.5 163.9,235.8 163.3,237.3 163.1,238.7 160.6,238.8 157.4,238.8 148.0,238.8 146.1,238.8 145.5,238.8 143.6,238.8 143.0,238.8 141.0,238.8 140.4,238.8 137.7,238.8 135.4,238.8 134.3,238.8 133.6,238.7 132.3,238.3 131.5,237.9 130.2,236.9 129.9,236.3 129.6,234.9 129.9,233.1 129.7,232.4 129.7,231.8 129.8,230.6 129.9,230.0 131.0,223.9 131.5,221.6 131.7,221.0 132.3,220.5 132.7,219.8 132.9,219.3 133.0,218.7 132.7,218.0 132.3,216.9 131.8,215.3 132.2,214.7 131.1,214.0 130.5,213.1 129.6,211.9 127.7,209.9 127.1,209.5 126.5,209.1 128.0,207.7 128.2,207.1 127.4,207.5 126.4,207.6 125.6,207.5 125.8,206.4 124.1,203.4 123.8,202.9 125.9,201.8 127.7,202.1 126.7,200.9 125.3,199.8 123.4,198.0 122.9,197.4 122.8,196.5 122.3,196.3 121.7,197.0 122.9,198.2 123.4,198.8 122.2,200.7 121.5,200.9 120.6,200.9 120.0,200.8 119.4,200.6 118.7,200.0 116.6,198.7 114.1,198.0 112.9,197.4 111.4,196.6 111.4,195.4 111.6,194.5 111.6,194.0 110.9,193.3 110.3,192.3 109.8,190.6 109.7,189.0 109.8,187.9 110.2,187.4 110.4,186.7 109.7,185.8 108.5,184.7 108.6,185.5 109.2,186.6 107.3,186.9 106.0,186.2 104.6,183.8 104.6,184.6 104.8,185.9 105.0,186.6 105.5,186.8 105.9,187.3 105.4,187.9 101.9,187.7 101.4,187.5 101.0,186.8 101.2,184.9 101.5,184.1 102.7,181.1 103.3,181.0 103.9,180.7 103.9,180.1 103.6,179.5 104.9,177.4 105.7,176.4 107.7,173.5 108.1,172.7 108.4,170.4 108.2,169.9 108.2,169.2 108.3,168.5 108.8,165.9 109.2,165.2 109.9,164.6 110.2,163.8 109.9,163.1 109.3,162.5 108.6,161.0 108.8,158.8 110.4,157.1 110.9,157.0 113.5,154.7 116.8,151.7 119.2,148.8 119.8,147.9 120.8,147.8 121.3,147.8 121.8,146.9 122.1,146.1 123.4,145.6 124.9,144.1 125.8,143.5 127.4,143.6 128.2,141.0 129.1,137.9 129.3,137.4 131.0,138.0 135.8,133.9 137.4,132.6 137.9,133.6 137.9,134.1 137.9,134.7 138.2,135.3 139.0,135.8 139.6,135.8 145.0,135.8 146.0,132.6 147.2,131.6 149.8,133.1 151.7,133.7 152.2,134.0 152.6,134.7 153.0,135.8 153.0,136.6 153.5,137.3 154.3,137.9 155.0,138.0 155.6,137.9 156.2,138.1 157.2,139.2 157.4,140.1 157.3,140.9 157.2,141.7 157.6,143.5 157.7,144.1 158.0,144.9 158.7,145.5 159.6,145.5 161.5,145.5 163.1,145.3 163.8,145.1 164.5,144.5 164.7,143.8 165.1,142.1 166.0,141.8 166.7,141.8 167.8,140.7 168.3,139.4 168.5,138.3 168.4,137.7 167.9,137.2 168.3,135.7 169.6,134.3 171.0,133.6 172.2,133.1 174.5,131.2 174.9,130.2 173.0,127.6 172.4,127.5 172.2,127.0 173.1,126.6 174.1,124.7 174.7,124.1 175.2,123.7 175.8,123.2 178.4,120.5 178.4,119.3 178.0,118.6 178.1,118.1 178.2,117.4 178.5,116.9 178.9,116.1 179.6,115.0 180.1,114.5 180.6,113.9 181.2,112.8 182.1,111.1 181.9,110.3 181.9,109.6 181.9,109.0 182.1,108.3 182.6,107.6 183.1,106.9 183.1,106.0 182.8,105.3 182.7,104.4 182.8,103.0 183.0,102.3 183.7,101.8 184.5,102.0 185.1,101.9 185.7,101.4 186.6,100.5 186.7,99.9 186.6,99.3 186.2,98.7 186.2,98.2 187.9,97.5 188.5,97.5 189.4,97.8 190.9,97.4 192.3,96.9 194.9,94.5 195.3,93.4 195.5,92.7 196.1,89.0 196.0,88.4 195.8,87.7 197.1,81.7 198.6,79.5 199.9,78.5 200.5,78.2 201.5,78.1 202.5,78.1 203.4,77.8 204.1,77.3 204.6,76.7 205.0,72.9 204.6,70.7 204.4,70.1 204.4,69.6 204.7,66.8 204.9,66.0 205.7,65.5 206.5,65.3 208.0,65.1 209.2,64.1 209.6,63.4 209.5,62.7 209.4,62.1 210.7,56.5 211.3,54.4 211.5,53.7 211.9,52.9 212.1,52.4 212.9,51.4 213.6,50.6 214.2,49.8 214.8,49.0 215.1,48.3 216.2,47.1 216.3,46.2 217.0,44.4 218.8,41.9 220.7,39.9 221.3,39.4 221.8,39.5 223.0,39.9 223.6,40.1 224.5,40.4 225.4,40.3 226.1,39.8 228.4,38.2 229.4,37.3 229.9,36.9 230.7,36.8 231.2,36.6 234.6,34.7 235.3,33.2 235.3,31.5 234.3,30.6 234.1,29.1 234.6,27.6 235.0,26.1 235.2,24.3 234.8,23.2 235.4,21.2 235.3,19.6 233.4,18.4 232.6,16.8 232.0,16.4 230.8,16.1 229.8,16.0 228.4,16.0 226.5,16.0 225.1,15.1 225.5,13.5 225.6,12.8 225.0,10.1 223.4,2.8 222.9,0.4 224.7,0.0 230.6,0.0 231.2,0.3 231.6,1.0 232.2,1.8 232.7,2.4 233.0,5.1 233.2,6.7 233.9,7.6 " />
    <polygon id="Cameroon" points="126.9,208.0 125.6,208.5 125.8,208.0 126.7,207.8 " />
  </g>
</svg>