<?xml version="1.0" encoding="UTF-8" standalone="yes"?>
<!DOCTYPE svg PUBLIC "-//W3C//DTD SVG 1.0//EN" "http://www.w3.org/TR/2001/REC-SVG-20010904/DTD/svg10.dtd">
<svg height="250" width="370" xmlns="http://www.w3.org/2000/svg" xmlns:svg="http://www.w3.org/2000/svg" xmlns:xlink="http://www.w3.org/1999/xlink">


<g id="background">
<rect id="" width="370" height="250" fill="#222222"/>
</g>
  <g id="132" style="stroke-miterlimit: 3; fill: #F1F1F1; stroke: #000000; stroke-opacity: 1; stroke-width: 0.05; stroke-linejoin: bevel; stroke-linecap: square">
    <polygon id="Cape Verde" points="52.3,29.4 50.8,29.4 50.2,29.2 49.4,28.6 44.0,15.6 44.1,14.4 44.8,12.9 45.3,12.0 46.7,10.4 60.3,3.6 67.8,0.6 71.6,0.0 72.2,0.1 78.0,1.7 84.5,8.4 84.7,9.7 84.2,11.3 84.0,11.8 82.5,14.0 81.8,14.7 76.4,17.5 71.4,19.9 70.1,20.8 65.8,24.6 64.7,26.5 64.3,27.5 63.4,28.1 62.3,28.5 60.6,29.0 60.0,29.1 52.3,29.4 " />
    <polygon id="Cape Verde" points="89.6,41.3 82.5,43.4 75.0,40.3 72.2,38.6 72.0,38.0 72.2,37.4 73.0,35.3 75.1,33.0 84.3,28.9 88.9,28.5 89.5,28.7 90.3,29.3 94.7,35.2 94.8,37.9 94.8,38.6 94.6,39.2 93.9,39.6 92.9,40.1 89.6,41.3 " />
    <polygon id="Cape Verde" points="183.2,62.9 184.3,64.7 184.3,65.4 183.8,66.3 183.0,66.8 181.8,67.0 176.8,67.0 176.2,67.0 174.2,66.7 173.0,66.5 172.1,65.9 169.8,64.5 164.5,63.0 162.3,62.9 158.7,63.3 158.1,64.0 156.3,66.6 154.9,68.9 154.3,70.2 153.7,71.8 153.4,73.0 153.1,74.5 143.9,62.4 141.9,60.7 141.5,60.0 141.4,57.6 141.6,57.1 142.7,55.7 149.4,53.5 151.9,55.0 165.1,58.0 174.6,59.5 176.9,60.1 183.2,62.9 " />
    <polygon id="Cape Verde" points="322.6,121.4 312.7,127.5 304.8,127.3 297.2,123.4 296.4,122.7 295.7,120.5 296.2,115.8 296.3,115.2 301.0,108.3 305.2,103.6 312.9,100.5 316.5,101.3 320.7,102.7 321.5,103.5 325.9,110.9 326.8,114.9 326.8,115.6 325.3,118.9 322.6,121.4 " />
    <polygon id="Cape Verde" points="244.9,232.0 244.0,232.4 236.6,241.1 225.3,239.2 222.2,238.0 220.2,236.9 219.5,236.2 215.8,232.6 211.4,227.1 209.1,223.7 208.6,222.7 208.6,221.3 211.3,203.6 218.8,199.2 221.9,204.6 228.1,210.8 228.8,211.6 231.2,213.6 238.0,218.0 243.5,226.7 245.1,229.5 244.9,232.0 " />
    <polygon id="Cape Verde" points="148.1,249.9 145.9,250.0 143.3,249.6 142.1,249.3 140.1,248.3 136.7,245.8 134.4,243.7 133.4,242.6 131.8,239.0 131.7,238.5 131.8,237.8 134.2,232.9 134.8,232.1 135.9,231.0 140.0,228.7 146.2,225.4 147.4,225.3 152.2,227.0 153.9,229.0 154.9,231.9 155.7,237.8 155.8,242.3 155.8,243.8 155.4,244.8 153.3,247.0 151.2,248.5 148.7,249.7 148.1,249.9 " />
  </g>
</svg>