<?xml version="1.0" encoding="UTF-8" standalone="yes"?>
<!DOCTYPE svg PUBLIC "-//W3C//DTD SVG 1.0//EN" "http://www.w3.org/TR/2001/REC-SVG-20010904/DTD/svg10.dtd">
<svg height="250" width="370" xmlns="http://www.w3.org/2000/svg" xmlns:svg="http://www.w3.org/2000/svg" xmlns:xlink="http://www.w3.org/1999/xlink">


<g id="background">
<rect id="" width="370" height="250" fill="#222222"/>
</g>
  <g id="140" style="stroke-miterlimit: 3; fill: #F1F1F1; stroke: #000000; stroke-opacity: 1; stroke-width: 0.05; stroke-linejoin: bevel; stroke-linecap: square">
    <polygon id="Central African Republic" points="131.6,69.6 132.3,68.1 133.5,67.0 133.2,66.4 130.9,64.7 129.6,64.3 127.9,63.5 126.5,62.2 126.3,61.5 126.9,60.8 128.0,59.9 129.7,58.7 130.5,58.2 132.4,57.4 133.1,57.3 135.5,57.1 141.6,57.2 147.3,56.9 153.5,56.2 155.7,56.0 156.5,56.0 157.3,55.4 160.1,53.9 163.7,54.1 166.0,54.3 167.5,54.7 168.9,54.6 170.3,53.7 171.4,52.7 172.2,51.7 172.6,50.9 172.4,49.9 181.1,45.7 181.8,44.9 182.1,44.2 183.0,43.3 183.7,43.0 186.0,40.6 188.1,35.9 193.1,30.9 194.0,30.0 194.6,29.9 195.1,30.1 196.3,30.5 196.8,30.3 198.3,29.1 199.0,28.2 199.6,26.8 199.6,26.1 200.2,25.1 200.9,24.3 201.5,23.6 202.0,23.2 202.7,23.2 203.8,23.3 204.8,23.0 205.6,22.6 207.0,21.1 207.9,17.8 207.7,16.7 207.3,16.2 206.8,15.3 206.6,14.7 206.6,13.4 207.0,11.3 209.0,10.3 209.7,10.1 212.1,9.3 213.9,8.5 215.3,7.5 222.0,3.5 224.2,2.6 225.4,2.2 226.6,2.1 227.2,1.5 228.2,0.9 234.3,1.8 238.5,2.9 239.7,3.1 240.1,3.8 240.7,4.7 241.9,6.7 243.7,9.5 245.2,10.4 252.1,16.3 252.6,17.1 258.7,26.9 262.4,33.1 263.2,38.6 262.2,40.7 261.9,41.2 261.4,41.9 261.1,42.5 261.4,44.9 262.0,45.1 262.0,49.7 259.7,52.2 258.9,52.6 258.0,52.5 257.4,52.7 257.0,53.5 256.2,57.0 256.4,57.8 257.2,58.6 257.7,58.8 258.5,58.9 259.1,57.9 259.7,57.5 260.0,60.0 259.4,61.4 259.0,62.1 258.4,62.7 257.9,63.0 257.6,64.0 258.1,65.8 258.7,66.0 259.3,66.1 264.4,66.0 265.0,65.9 265.8,65.5 266.8,65.4 269.7,65.7 272.3,66.1 272.9,66.2 273.6,66.4 274.3,66.5 275.4,66.6 276.1,66.5 276.8,66.3 277.5,66.6 279.4,69.2 279.0,69.9 278.5,70.1 277.6,71.1 276.5,72.5 275.8,75.4 276.2,76.1 276.4,76.7 277.3,77.4 278.4,78.0 279.0,78.1 281.4,78.6 285.4,79.3 289.5,79.8 290.6,79.8 292.1,80.1 294.7,80.6 295.8,81.1 296.4,81.4 298.3,83.4 298.7,84.0 298.6,84.9 299.4,85.9 300.7,87.3 301.7,88.3 302.5,88.9 303.0,89.2 303.6,89.1 304.2,88.9 305.5,88.8 306.6,89.7 307.4,90.3 308.3,92.2 308.7,94.9 308.6,96.0 308.2,96.5 307.7,96.7 307.1,96.7 305.9,97.4 305.3,98.2 305.9,99.8 306.1,100.3 306.6,100.4 307.7,100.8 309.6,102.3 310.0,102.9 310.1,103.5 310.2,104.0 310.6,104.5 313.1,106.0 317.9,108.4 320.9,109.6 324.3,111.3 328.1,113.9 329.9,115.4 330.1,116.3 330.4,117.2 331.3,118.7 332.0,119.3 336.1,122.7 337.2,122.9 337.7,123.0 338.8,123.4 339.8,124.2 340.1,124.7 339.0,126.2 337.5,128.7 337.0,129.6 337.1,131.4 337.3,131.9 339.1,133.0 341.3,134.2 343.4,136.5 343.6,137.1 343.6,137.6 343.2,138.1 342.6,138.4 342.1,138.8 341.5,139.2 341.1,140.0 341.0,140.6 344.6,142.0 345.9,142.4 347.2,142.7 347.8,142.5 348.4,142.3 349.4,142.5 351.5,143.4 352.0,144.0 352.0,144.9 352.1,145.5 352.7,145.8 354.8,146.6 356.4,146.8 360.1,148.7 361.0,149.3 362.6,150.9 363.8,152.8 364.8,154.4 364.9,155.6 364.4,156.4 364.2,156.9 363.7,158.7 363.6,159.3 364.2,161.8 364.7,163.1 365.3,164.5 366.0,165.2 367.2,166.2 368.0,166.6 368.5,167.1 369.9,168.8 370.0,169.3 370.0,170.4 369.1,169.3 368.6,168.9 365.8,167.6 361.3,165.7 359.7,165.4 358.8,165.4 357.7,165.9 357.2,166.1 355.4,167.0 354.3,168.2 353.7,169.2 353.4,170.2 351.1,169.5 350.4,168.8 349.7,168.6 348.9,168.5 347.9,168.7 346.2,169.2 343.3,170.0 342.8,169.9 342.0,169.7 341.4,168.8 339.7,167.4 334.2,164.5 332.2,164.1 331.7,164.5 331.2,165.3 330.4,165.6 329.5,165.7 326.1,166.1 325.5,165.7 323.3,164.4 320.5,163.1 318.2,162.5 316.9,161.0 315.6,160.3 310.5,162.2 309.8,163.7 309.1,165.4 309.0,166.1 309.2,166.7 309.9,166.9 309.9,168.0 309.4,169.7 308.9,170.2 308.4,170.4 306.7,171.0 305.4,171.3 302.7,171.9 300.1,171.7 299.2,171.5 298.6,171.6 295.0,172.9 293.9,173.6 292.7,173.7 290.1,171.9 289.2,170.7 286.7,169.0 285.3,168.4 284.7,168.1 283.0,167.9 282.0,169.3 282.8,169.8 283.2,170.3 282.4,170.8 278.6,172.3 277.3,172.8 273.6,173.9 268.7,176.1 267.2,176.2 260.0,178.7 256.2,180.8 255.7,181.3 255.7,182.5 254.4,182.8 252.9,182.6 249.5,180.2 246.8,179.4 246.1,179.5 244.1,178.4 243.4,177.0 243.0,176.2 242.4,175.9 240.5,176.2 237.4,179.0 236.5,181.0 235.7,183.0 234.7,185.8 233.8,185.8 233.2,185.7 232.6,185.7 232.0,186.2 231.8,186.7 231.7,187.8 231.3,190.1 230.5,193.1 229.2,194.4 228.0,195.4 227.3,195.7 226.3,195.9 224.9,195.9 223.4,195.9 222.9,195.8 222.0,195.6 221.3,195.4 220.6,195.1 219.7,194.8 219.2,194.4 218.3,193.6 217.7,193.4 216.1,193.1 214.7,192.5 210.3,192.0 207.8,191.2 205.4,191.0 204.8,191.1 203.8,191.7 203.2,192.2 202.7,192.5 202.0,192.6 201.3,192.5 192.6,191.3 191.4,190.9 189.9,189.9 189.5,189.4 189.2,188.7 187.7,187.9 186.0,187.3 183.1,186.9 182.1,186.8 178.6,187.4 175.8,187.9 175.3,188.0 174.6,187.7 171.9,185.4 171.2,184.7 171.4,182.3 168.2,177.9 163.4,174.8 158.5,171.8 157.9,171.6 157.0,171.6 156.3,171.5 155.7,171.4 155.1,171.0 154.3,169.4 153.9,168.8 153.2,168.4 151.5,167.8 150.3,167.4 149.6,167.2 148.5,167.1 146.0,166.9 145.5,166.9 142.1,167.3 141.4,167.6 136.6,171.0 135.9,171.9 135.5,172.6 135.0,172.8 133.0,173.1 132.3,173.7 131.8,174.3 130.8,176.4 129.9,178.4 128.7,179.3 125.6,182.9 125.0,183.9 124.4,185.8 124.1,186.5 123.6,187.5 123.0,188.4 122.4,188.8 121.9,189.0 119.9,189.5 119.2,189.4 118.6,189.1 117.9,189.1 117.1,189.8 116.8,190.4 116.9,191.0 117.5,191.9 118.4,193.0 119.5,195.7 119.9,198.0 119.9,198.6 120.0,199.5 120.0,200.0 118.9,203.3 118.5,206.1 118.4,207.1 118.4,208.0 118.6,209.0 119.2,212.3 119.3,214.3 118.7,214.3 118.1,213.7 117.7,212.6 116.8,211.0 115.5,209.8 115.0,209.7 114.5,210.4 109.3,211.4 109.0,212.0 108.8,212.8 108.4,213.5 107.9,214.0 107.2,214.2 106.7,214.2 106.3,213.2 106.0,212.5 105.0,212.0 103.5,211.8 102.8,211.8 99.0,212.2 97.8,212.7 97.1,211.5 96.9,210.6 94.9,210.1 92.6,210.0 91.5,210.0 90.7,210.0 89.2,209.4 88.0,208.4 87.5,207.9 86.7,207.7 85.0,208.6 83.6,210.3 82.9,210.6 76.3,211.8 72.4,212.4 71.8,212.1 69.7,211.8 64.7,212.4 63.8,212.6 63.1,213.1 61.6,214.2 61.2,214.8 61.0,216.0 61.0,216.5 60.8,218.3 59.8,221.3 59.2,222.1 58.8,222.8 58.6,223.3 58.1,229.3 58.1,230.1 58.3,230.6 58.9,231.2 59.1,232.2 58.5,233.5 57.4,235.8 56.3,238.1 53.5,244.1 52.5,246.2 50.7,250.0 50.0,248.9 48.7,246.3 48.0,244.6 47.9,244.0 47.6,242.1 47.4,241.0 46.8,234.0 47.4,233.4 48.1,232.9 48.0,231.9 47.8,230.8 47.0,229.5 43.2,225.0 42.3,224.7 41.0,224.8 39.9,225.1 38.3,223.7 33.2,218.1 24.9,209.7 24.1,209.0 22.9,207.4 20.4,204.1 20.0,203.5 18.7,201.8 18.3,200.6 17.7,198.7 20.6,197.5 19.5,195.7 19.2,192.9 19.1,192.2 19.2,191.6 18.9,191.0 17.0,187.9 14.5,186.5 13.4,186.0 11.2,184.4 10.5,183.9 9.1,182.2 8.7,181.3 8.6,179.0 8.6,177.0 8.6,176.4 8.3,174.6 7.8,171.8 7.2,170.8 7.5,170.2 7.7,167.9 7.3,166.3 6.8,165.2 6.1,164.6 5.4,164.4 4.9,164.3 3.8,163.6 3.3,163.0 3.8,161.4 4.3,160.8 4.9,159.7 5.6,157.1 5.8,156.5 5.9,150.8 5.8,147.5 5.7,145.7 5.4,145.1 4.6,144.8 4.1,145.3 2.4,145.3 1.9,145.1 0.2,142.6 0.0,141.8 0.3,140.5 0.9,140.1 4.6,137.4 9.1,135.3 11.0,132.9 10.7,131.7 11.6,130.5 14.7,123.3 15.3,122.0 16.2,121.8 17.9,121.0 20.2,115.8 20.4,114.8 20.5,114.0 22.5,109.0 22.9,108.0 23.3,107.4 23.9,106.8 24.9,106.0 27.1,104.6 29.1,103.2 30.7,99.5 31.2,99.7 31.9,99.8 32.5,99.9 34.0,99.7 35.0,99.5 35.7,99.5 36.3,99.7 36.8,100.2 37.1,100.9 38.5,101.4 39.1,101.4 42.4,100.7 44.1,100.2 45.3,99.3 45.6,98.6 46.0,98.1 47.0,97.6 48.1,97.5 49.1,97.4 50.9,97.0 56.4,94.8 56.3,94.1 56.5,92.6 57.1,91.8 59.1,90.3 60.0,89.8 60.9,89.6 61.0,90.2 60.9,90.9 60.9,92.1 67.0,98.4 68.1,98.9 69.3,98.3 69.5,97.7 69.4,97.0 70.8,96.2 72.8,95.8 74.9,95.6 77.2,94.5 79.4,92.9 80.0,91.6 80.5,91.4 83.7,89.8 85.9,88.8 87.7,88.5 89.8,87.9 90.9,87.3 91.2,86.6 91.9,86.3 93.6,86.5 98.3,87.2 102.3,85.7 102.9,85.6 108.4,85.3 113.2,85.1 117.5,84.9 118.3,84.9 119.1,84.3 119.7,83.5 119.6,82.4 119.7,81.9 119.9,81.4 120.4,80.7 121.1,80.0 121.6,79.7 123.0,79.2 124.2,78.9 125.4,77.8 127.3,75.6 127.7,75.1 128.0,74.1 129.6,72.0 131.6,69.6 " />
  </g>
</svg>