<?xml version="1.0" encoding="UTF-8" standalone="yes"?>
<!DOCTYPE svg PUBLIC "-//W3C//DTD SVG 1.0//EN" "http://www.w3.org/TR/2001/REC-SVG-20010904/DTD/svg10.dtd">
<svg height="250" width="370" xmlns="http://www.w3.org/2000/svg" xmlns:svg="http://www.w3.org/2000/svg" xmlns:xlink="http://www.w3.org/1999/xlink">


<g id="background">
<rect id="" width="370" height="250" fill="#222222"/>
</g>
  <g id="144" style="stroke-miterlimit: 3; fill: #F1F1F1; stroke: #000000; stroke-opacity: 1; stroke-width: 0.05; stroke-linejoin: bevel; stroke-linecap: square">
    <polygon id="Sri Lanka" points="153.8,3.4 158.0,8.9 159.0,10.0 161.9,13.0 173.0,21.5 173.8,22.0 175.2,22.8 176.3,23.5 177.1,24.0 178.6,25.2 182.0,28.5 185.2,31.8 187.3,34.0 189.0,36.2 190.3,38.4 190.6,39.0 195.8,50.3 195.7,54.3 195.2,54.6 194.6,55.9 194.7,56.6 195.4,57.3 196.0,57.4 197.6,56.7 198.2,56.0 201.9,58.3 210.8,69.3 214.4,74.5 215.0,75.3 216.4,81.5 216.3,82.2 215.8,82.6 215.0,82.5 214.8,81.1 214.5,80.6 213.9,80.3 209.9,83.0 208.5,84.6 209.0,85.4 214.2,87.3 216.4,87.8 217.2,87.9 218.1,87.5 218.8,86.4 219.0,85.7 218.6,85.1 220.7,83.6 221.4,83.7 222.9,85.2 223.4,86.1 225.0,92.3 225.2,93.0 227.2,104.0 225.9,105.1 225.4,105.0 225.2,107.3 227.1,110.8 233.4,116.9 239.4,128.1 244.4,132.1 245.1,132.8 245.8,134.2 245.7,135.0 244.1,136.0 244.1,137.2 245.4,139.2 246.2,139.9 246.9,140.0 248.4,141.7 249.5,144.4 249.1,145.8 248.6,148.4 249.2,151.2 251.0,152.4 252.0,152.6 252.4,150.6 253.1,150.6 254.9,154.9 255.9,158.3 256.0,159.0 256.4,160.9 256.5,162.4 256.4,170.1 257.2,179.9 257.1,180.8 256.5,183.5 254.5,191.6 253.4,195.8 251.8,200.0 250.8,201.3 250.3,203.6 250.2,204.8 249.9,205.4 249.0,207.1 245.6,212.6 244.9,213.8 243.5,215.5 242.4,216.6 239.3,219.0 226.3,228.6 220.9,232.1 220.3,232.3 203.7,237.9 201.4,238.2 199.6,238.6 193.2,240.8 189.3,242.1 186.9,243.7 186.1,244.4 183.9,246.2 181.0,247.3 174.1,250.0 165.2,248.2 154.8,245.3 151.8,244.3 149.1,243.1 148.0,242.5 143.5,237.3 141.5,234.0 139.2,229.4 137.7,223.9 135.4,217.1 134.4,211.2 133.2,208.0 131.4,203.6 129.8,199.5 128.6,196.7 127.4,194.1 127.1,193.5 126.8,191.3 125.8,185.2 125.9,184.5 126.5,183.4 127.4,182.1 127.4,181.3 126.8,172.9 125.4,168.2 125.8,163.7 125.6,161.8 124.5,155.1 124.4,154.3 122.6,142.2 123.2,140.3 123.3,138.5 122.4,132.8 120.5,124.3 119.8,121.9 119.6,121.3 119.1,120.4 118.8,119.4 118.2,117.8 118.0,117.1 117.9,116.4 117.5,114.6 117.2,111.8 116.9,104.6 117.6,102.8 118.5,101.5 120.2,99.9 118.7,108.7 118.9,115.6 119.1,116.3 119.7,117.0 120.4,117.6 121.1,117.8 122.6,118.1 123.5,118.1 124.2,117.9 124.8,117.6 125.4,116.9 125.4,116.1 125.1,115.4 124.4,114.4 124.3,101.2 127.6,83.0 127.9,82.4 129.6,81.5 130.8,80.9 132.5,76.6 133.1,70.6 133.0,69.8 131.8,63.3 130.9,57.3 131.2,56.8 134.5,54.7 135.7,54.2 138.6,52.2 139.5,51.3 140.4,49.0 143.1,41.4 143.4,40.3 144.1,37.1 143.8,34.0 143.1,33.4 142.5,33.1 142.3,26.7 144.9,25.8 148.7,22.9 148.3,21.9 148.0,21.4 146.2,19.7 144.9,18.8 144.0,18.3 141.8,16.9 140.1,15.9 139.5,15.2 140.5,15.0 142.0,15.3 151.5,19.0 153.9,21.0 166.5,21.7 167.8,22.2 169.7,23.0 170.6,23.4 171.4,24.0 171.9,24.4 172.7,24.5 175.2,24.8 175.3,24.3 173.9,23.4 170.6,21.5 165.9,19.0 163.8,18.6 162.3,18.9 161.1,19.0 157.5,17.5 156.4,16.3 155.4,15.6 149.7,12.3 148.8,11.8 148.2,11.5 147.4,11.5 146.9,12.3 147.6,13.3 148.1,13.7 148.8,14.3 149.0,15.0 148.7,15.6 148.1,15.7 144.0,14.6 137.8,11.7 133.1,9.1 132.6,8.6 132.4,8.0 131.5,5.3 131.5,3.7 134.3,1.2 134.9,0.8 137.3,0.6 138.2,0.6 143.5,1.6 144.2,3.2 144.9,3.8 146.7,3.9 148.8,5.0 150.7,4.9 152.2,7.4 153.8,8.5 155.9,11.3 158.8,13.3 159.5,13.9 161.1,15.0 164.6,16.4 164.4,15.9 153.7,6.9 150.6,3.4 149.2,3.7 148.3,3.7 146.3,3.0 145.2,2.3 146.3,1.5 146.5,0.9 151.5,0.0 152.3,0.1 152.7,1.0 152.9,1.7 153.1,2.3 153.8,3.4 " />
    <polygon id="Sri Lanka" points="134.6,13.6 130.4,13.7 129.7,13.5 128.1,12.4 126.6,10.3 126.5,9.1 126.4,7.8 126.8,5.2 127.5,4.6 128.7,4.4 129.1,7.3 129.4,8.7 129.7,9.7 132.0,11.4 132.8,12.0 134.4,12.6 134.8,13.4 " />
    <polygon id="Sri Lanka" points="118.1,22.4 117.4,22.6 114.9,21.5 114.0,20.5 114.1,18.0 114.4,17.4 115.0,17.7 115.7,18.8 118.0,19.5 118.8,21.3 118.4,22.2 " />
    <polygon id="Sri Lanka" points="130.7,51.8 129.5,53.8 126.7,52.9 117.3,48.0 116.7,47.3 116.8,46.8 118.7,46.5 119.9,46.3 120.7,46.4 125.2,47.6 125.8,47.8 126.3,48.2 129.9,50.9 130.6,51.5 " />
    <polygon id="Sri Lanka" points="251.8,150.3 250.8,150.0 250.1,149.3 250.5,144.6 249.2,141.5 247.8,139.7 246.7,136.9 246.4,133.6 247.1,134.2 248.3,136.5 248.6,137.4 251.3,141.8 251.6,142.4 252.0,143.8 252.1,144.5 253.1,149.8 251.8,150.3 " />
    <polygon id="Sri Lanka" points="245.9,137.3 245.2,137.6 245.1,136.9 245.5,136.0 246.0,136.3 246.0,136.9 " />
  </g>
</svg>