<?xml version="1.0" encoding="UTF-8" standalone="yes"?>
<!DOCTYPE svg PUBLIC "-//W3C//DTD SVG 1.0//EN" "http://www.w3.org/TR/2001/REC-SVG-20010904/DTD/svg10.dtd">
<svg height="250" width="370" xmlns="http://www.w3.org/2000/svg" xmlns:svg="http://www.w3.org/2000/svg" xmlns:xlink="http://www.w3.org/1999/xlink">


<g id="background">
<rect id="" width="370" height="250" fill="#222222"/>
</g>
  <g id="148" style="stroke-miterlimit: 3; fill: #F1F1F1; stroke: #000000; stroke-opacity: 1; stroke-width: 0.05; stroke-linejoin: bevel; stroke-linecap: square">
    <polygon id="Chad" points="119.2,163.3 118.8,162.7 118.3,162.0 113.9,162.1 112.6,162.1 109.9,158.2 107.7,155.1 105.7,152.4 105.2,150.4 104.6,147.8 103.0,141.0 103.1,140.5 103.9,140.0 104.5,139.7 105.4,139.7 105.9,139.4 106.4,139.0 106.5,138.4 107.7,136.7 108.2,136.3 108.0,135.2 107.8,134.5 108.1,133.8 109.2,131.5 111.4,128.9 112.5,127.2 114.5,124.5 115.7,122.8 117.2,120.6 120.4,117.3 125.6,111.9 129.0,108.3 130.8,106.4 132.6,104.6 134.2,102.9 134.7,102.2 135.2,95.2 135.8,85.2 136.0,81.3 136.0,80.7 136.5,73.0 136.6,72.0 137.0,69.3 138.2,59.9 138.5,57.8 138.8,55.0 139.6,53.6 140.7,51.8 142.4,48.8 137.6,43.0 136.9,42.7 136.2,42.1 135.8,41.2 135.7,40.6 135.9,39.9 136.5,39.1 136.2,38.0 135.4,36.9 131.5,31.3 130.4,30.7 130.2,28.7 130.2,28.1 130.1,25.5 130.1,22.7 129.5,19.5 127.8,10.9 127.2,7.7 127.0,7.0 129.1,6.1 132.3,4.6 142.7,0.0 148.1,2.5 158.0,7.1 168.6,12.0 174.5,14.9 179.6,17.3 186.0,20.3 189.6,22.1 194.2,24.3 203.2,28.7 211.6,32.9 220.2,37.2 226.8,40.5 233.1,43.7 241.5,48.0 252.4,53.7 259.2,57.2 267.8,61.8 267.7,62.3 267.7,62.8 267.7,72.2 267.7,73.4 267.7,76.9 267.7,80.5 267.7,112.3 267.7,114.4 267.7,119.1 267.7,121.0 267.2,121.2 265.6,120.7 264.7,120.4 262.5,120.3 261.6,120.2 260.9,120.4 260.4,120.5 259.6,120.8 258.9,121.1 258.1,121.4 257.3,121.4 255.9,121.1 254.8,121.0 254.0,121.0 251.1,123.3 250.8,123.9 250.9,124.5 251.7,125.4 252.0,126.2 252.1,126.8 252.0,127.7 251.9,128.5 251.1,130.2 250.4,130.5 249.7,130.9 248.8,131.9 248.2,132.5 247.0,134.3 246.9,134.9 247.1,135.8 247.3,136.5 244.3,137.8 243.0,138.3 242.5,139.1 242.5,139.6 243.3,140.0 243.5,141.8 243.5,142.6 244.5,144.0 245.1,144.1 245.3,145.1 245.2,145.6 243.3,146.9 242.3,147.3 241.5,147.5 240.2,148.2 239.6,148.9 237.8,151.2 238.6,152.9 240.0,155.6 241.1,157.4 240.9,158.0 239.0,160.4 237.7,161.0 236.9,161.1 235.6,162.5 234.8,164.0 233.8,166.5 234.6,168.0 235.2,168.7 235.7,168.9 236.5,169.0 237.3,169.0 238.3,168.9 238.8,168.7 239.6,167.8 241.7,168.5 243.8,169.3 242.9,171.4 243.3,173.5 244.3,176.4 245.3,177.8 246.0,179.1 245.8,180.1 245.4,182.1 245.1,184.1 245.2,184.7 245.6,185.3 246.1,186.0 246.5,186.6 248.8,187.9 251.0,188.1 251.6,190.2 251.7,191.3 250.4,195.0 250.0,195.8 249.4,195.7 247.0,195.1 243.8,194.6 243.2,194.9 242.2,195.3 241.5,195.5 240.3,196.0 236.6,198.2 235.8,198.8 234.8,199.2 233.8,199.7 233.1,199.8 232.2,200.2 231.8,201.4 231.8,202.0 231.9,202.6 232.3,203.1 232.5,203.8 232.1,205.5 231.3,206.6 230.4,206.9 229.8,207.0 229.3,206.9 228.7,207.5 228.0,208.4 227.7,209.5 227.2,210.2 226.7,210.7 226.1,210.9 225.4,210.7 224.9,210.6 224.4,211.2 221.6,213.9 220.4,216.5 219.2,217.7 218.3,218.4 218.0,219.4 213.1,221.5 213.0,222.1 212.8,222.6 212.4,223.1 211.8,223.7 211.0,224.2 210.3,224.3 209.4,224.0 208.1,223.9 206.3,223.8 204.6,224.6 203.7,225.0 202.6,225.1 199.1,225.5 196.0,225.6 192.6,225.6 191.3,225.7 190.0,226.1 189.4,226.5 188.5,227.1 187.9,227.6 187.5,228.2 188.4,229.1 189.4,229.6 190.0,229.7 191.4,230.7 191.1,231.4 190.5,232.5 189.4,233.8 188.6,234.8 188.4,235.3 187.1,237.0 186.5,237.5 185.9,237.7 185.0,238.0 184.4,238.4 184.0,238.9 183.8,239.5 183.9,240.1 183.1,240.9 180.3,241.0 177.7,241.1 174.7,241.3 172.1,242.2 169.5,241.8 168.6,241.7 168.0,242.2 167.5,242.5 166.3,242.9 165.5,243.1 164.1,243.6 162.3,244.5 161.7,245.3 160.5,246.2 159.2,246.8 158.1,246.9 157.0,247.1 156.3,247.4 156.2,247.9 155.7,248.5 154.9,248.3 151.6,244.9 151.4,244.4 151.6,243.8 151.0,243.6 149.4,244.7 149.0,246.0 146.2,247.5 145.0,247.8 144.4,247.8 143.9,247.9 143.3,248.1 143.0,248.7 142.4,249.3 141.3,249.6 139.5,250.0 138.6,249.8 138.2,249.3 137.6,248.9 137.0,249.0 135.9,249.1 135.2,249.1 135.5,248.2 136.0,247.3 136.2,246.4 136.1,245.6 135.3,245.1 134.6,244.6 134.0,243.4 133.2,241.0 133.0,240.4 133.0,239.9 132.7,239.3 131.2,236.2 130.6,234.7 130.4,234.2 128.3,231.5 125.8,229.4 125.2,228.9 124.6,228.8 121.1,226.5 120.3,225.9 116.9,222.8 116.9,222.3 111.7,216.3 111.1,216.1 111.6,214.5 112.0,214.0 112.7,213.6 113.3,212.9 113.7,212.3 114.2,211.3 114.5,210.5 118.3,210.3 119.0,210.4 121.6,210.9 123.6,211.5 125.8,210.7 127.3,211.0 128.0,211.1 128.6,210.7 129.5,210.4 130.8,210.5 131.5,210.7 133.6,211.4 135.4,211.0 136.3,210.8 137.5,210.5 136.9,209.8 136.3,209.5 135.5,209.1 134.9,208.7 132.9,206.4 131.4,204.2 130.0,202.4 129.4,200.7 129.2,199.9 128.9,199.3 128.0,197.9 128.0,197.4 128.2,196.6 128.2,196.0 127.5,193.4 127.3,192.5 127.3,191.7 127.8,188.5 128.1,187.9 128.7,186.9 128.5,185.5 128.0,184.0 128.3,182.8 127.7,177.8 126.8,177.5 126.3,177.4 125.5,176.8 125.5,175.9 125.6,174.0 125.5,173.1 124.3,169.1 122.5,167.8 121.2,167.5 120.6,167.5 120.0,167.0 119.9,165.7 119.6,163.8 " />
  </g>
</svg>