<?xml version="1.0" encoding="UTF-8" standalone="yes"?>
<!DOCTYPE svg PUBLIC "-//W3C//DTD SVG 1.0//EN" "http://www.w3.org/TR/2001/REC-SVG-20010904/DTD/svg10.dtd">
<svg height="250" width="370" xmlns="http://www.w3.org/2000/svg" xmlns:svg="http://www.w3.org/2000/svg" xmlns:xlink="http://www.w3.org/1999/xlink">


<g id="background">
<rect id="" width="370" height="250" fill="#222222"/>
</g>
  <g id="156" style="stroke-miterlimit: 3; fill: #F1F1F1; stroke: #000000; stroke-opacity: 1; stroke-width: 0.05; stroke-linejoin: bevel; stroke-linecap: square">
    <polygon id="China" points="301.1,19.1 301.7,19.0 302.5,19.0 304.0,19.4 304.7,19.6 305.5,20.2 306.0,20.1 306.6,20.3 307.3,21.0 307.8,21.1 308.5,21.1 309.1,21.3 309.8,21.5 310.3,21.2 311.2,21.1 311.9,21.1 312.6,21.4 313.3,21.7 313.8,21.9 314.3,21.9 315.3,22.4 314.8,22.9 315.4,22.9 316.1,23.0 316.7,23.7 317.2,23.6 316.8,24.4 317.0,24.9 318.0,25.0 318.1,25.5 318.6,25.6 319.0,26.1 319.0,26.9 319.7,27.3 320.3,27.5 320.0,28.1 319.8,28.7 320.6,29.6 321.2,30.0 321.3,30.5 321.7,31.8 322.3,32.0 321.8,32.5 322.3,32.9 322.7,32.4 322.5,32.9 322.4,33.6 323.2,34.6 323.8,35.0 324.7,35.9 324.8,36.5 325.2,37.0 324.7,37.6 325.0,38.5 325.6,38.8 326.3,39.0 326.5,39.5 326.0,40.1 326.0,41.4 326.5,41.8 327.1,42.0 327.3,42.5 327.9,42.9 329.6,43.2 330.2,43.2 331.4,43.0 332.1,42.9 333.0,42.9 333.7,43.0 334.3,43.6 335.0,43.8 335.5,44.3 336.1,44.2 337.4,43.9 338.0,43.9 338.3,44.5 338.8,44.8 339.3,44.8 339.5,45.3 340.6,46.0 341.8,46.9 342.3,47.2 343.3,47.2 343.8,47.1 344.4,47.4 344.9,47.2 344.6,48.2 344.3,48.7 344.8,49.4 345.6,49.9 346.1,50.5 345.7,51.4 345.2,51.7 345.7,52.6 346.3,52.9 346.7,53.5 346.8,54.1 347.3,54.5 348.1,54.4 348.7,54.2 349.7,54.1 350.4,54.2 350.9,54.6 352.1,54.5 352.7,54.5 354.0,54.4 354.5,54.3 355.0,54.1 355.5,54.1 356.0,54.2 356.6,54.2 357.2,53.3 358.4,52.6 359.7,51.9 360.4,51.9 361.8,52.0 362.4,52.1 362.8,51.6 363.8,51.0 364.6,50.9 365.4,50.7 366.6,50.4 367.8,50.2 369.2,50.8 369.8,50.9 369.5,51.4 369.3,52.0 368.7,52.4 368.9,53.0 369.5,53.7 370.0,54.1 368.7,55.7 368.1,56.0 367.4,56.0 366.4,56.6 366.5,57.5 366.6,58.0 366.0,58.2 365.7,58.8 365.6,59.4 365.6,60.0 365.4,60.6 364.8,61.1 364.4,61.7 364.9,62.2 364.7,63.1 363.8,63.7 363.7,64.2 363.3,64.9 362.8,65.4 362.2,65.7 362.2,66.5 361.8,67.1 360.9,67.5 360.2,67.9 359.9,68.9 360.0,69.5 359.7,70.1 359.0,70.5 358.4,70.4 356.7,70.0 355.4,69.7 354.4,69.5 353.2,69.2 352.7,68.8 352.2,68.7 351.4,69.4 351.1,69.9 350.0,70.8 349.3,70.8 348.5,71.2 347.9,71.1 347.0,71.6 347.4,72.1 347.9,73.2 348.7,75.6 348.9,76.2 348.6,76.9 348.4,77.8 348.3,79.4 348.8,79.9 349.1,80.4 348.8,81.1 348.3,81.6 347.8,82.5 347.9,83.1 347.3,83.6 346.5,83.7 345.9,83.5 345.0,83.8 344.3,84.0 343.8,84.3 344.3,84.7 344.9,85.2 344.6,85.9 344.2,85.4 343.4,85.1 342.6,84.5 342.6,83.9 342.6,83.4 341.3,83.0 340.8,82.8 340.2,83.1 340.0,83.7 339.7,84.4 339.4,85.5 339.4,86.0 338.2,86.5 337.2,86.1 336.6,86.5 336.3,87.2 336.0,87.8 335.2,88.2 334.6,88.7 334.1,88.6 333.2,88.7 332.5,88.8 331.9,88.8 331.2,88.6 330.6,88.6 329.4,88.8 329.4,89.4 329.6,90.0 329.9,90.5 330.5,90.9 330.8,91.4 330.4,92.2 329.8,92.6 329.3,92.5 328.6,92.2 328.0,92.4 327.2,92.4 324.6,92.0 323.9,91.7 323.6,91.1 323.3,90.6 322.6,90.1 322.1,90.4 321.2,90.7 320.4,91.1 320.0,92.5 319.4,92.9 318.8,93.6 317.7,94.7 317.0,95.5 316.5,95.6 315.1,95.7 314.5,96.3 313.6,96.7 313.1,97.0 312.6,97.0 311.7,97.4 311.1,97.7 310.3,98.0 309.7,98.5 309.1,99.1 308.6,99.2 307.3,100.1 307.0,100.7 306.6,101.4 305.6,102.0 304.9,102.1 303.5,102.0 303.0,101.9 302.1,102.3 301.2,102.5 300.3,102.0 300.2,102.6 299.7,103.0 298.8,103.1 297.6,103.4 296.3,104.1 295.5,104.5 294.9,104.6 294.1,105.3 293.5,106.1 292.5,106.8 291.1,106.8 290.6,107.0 290.8,107.5 289.5,108.1 289.0,108.1 288.3,108.3 287.7,108.7 287.2,107.6 287.8,107.3 289.3,106.9 289.9,106.7 290.6,106.5 290.6,106.0 291.2,104.8 290.7,104.8 289.9,104.8 289.5,104.3 289.0,103.8 288.1,103.9 289.5,103.2 290.0,102.9 289.4,102.5 289.9,101.8 290.9,101.4 291.4,101.4 292.0,101.0 292.7,100.2 293.4,99.4 293.9,98.8 294.5,98.1 293.5,96.8 293.0,96.4 292.4,96.2 291.2,95.8 290.4,95.9 289.8,95.5 289.0,95.3 287.9,95.3 287.3,95.6 286.7,95.9 286.3,96.4 286.9,96.6 286.3,96.8 285.8,96.8 284.7,97.8 283.9,98.5 283.7,99.3 283.2,99.8 282.3,100.0 281.5,100.3 280.8,100.5 280.2,100.7 279.5,101.1 278.5,101.3 277.8,101.6 276.7,102.6 276.1,103.6 276.1,104.4 275.4,105.0 274.8,105.5 274.4,106.0 273.9,106.2 273.3,106.0 272.5,105.9 271.8,106.0 270.9,106.6 270.4,106.7 269.8,106.2 269.3,105.8 268.7,105.6 267.9,105.8 267.3,106.0 266.9,106.5 266.4,107.6 266.0,108.2 265.7,108.9 265.8,109.4 266.2,110.2 266.7,110.8 267.3,111.4 267.8,111.5 268.7,112.0 269.6,112.1 270.7,112.2 271.2,112.3 272.1,112.3 272.8,112.2 273.5,112.1 274.3,112.8 274.7,113.6 274.9,114.5 274.9,115.0 274.3,115.6 274.2,116.8 274.4,117.4 275.3,117.9 276.0,118.2 276.9,118.3 277.4,118.3 278.1,118.2 278.9,118.2 279.8,117.8 279.8,117.1 280.6,116.6 281.5,116.2 282.4,115.5 282.7,114.9 283.7,114.5 284.6,114.3 285.1,114.0 285.9,114.1 287.4,115.1 289.0,115.7 289.6,116.2 290.1,116.5 290.7,116.4 291.6,116.3 292.4,116.3 293.1,115.8 293.6,115.9 293.6,116.4 296.1,116.7 296.3,117.8 295.8,118.1 295.1,118.9 296.0,118.9 295.9,119.6 294.9,120.1 293.9,120.0 293.7,119.4 293.0,119.2 292.4,119.1 291.1,120.0 290.3,120.5 289.7,120.5 290.3,120.1 289.6,120.2 288.9,120.7 288.4,120.9 287.7,121.0 287.2,121.4 286.4,121.6 285.9,121.3 285.4,121.4 285.2,121.9 285.7,121.5 286.3,121.8 286.1,122.7 285.5,122.3 284.9,122.6 284.7,123.5 284.9,124.2 283.2,124.8 282.6,124.9 282.8,124.1 282.5,123.5 281.6,123.9 281.2,124.4 281.7,125.2 281.2,125.7 280.1,126.6 280.0,127.2 279.0,127.4 278.5,127.7 278.2,128.4 277.7,129.1 277.1,129.5 276.9,130.1 276.6,130.6 276.0,130.8 275.6,131.9 275.8,132.6 276.3,132.7 277.2,132.7 277.8,133.5 278.5,134.0 279.3,134.3 279.9,134.4 280.5,134.6 282.0,135.3 282.5,136.1 282.8,137.0 283.5,138.7 283.6,139.3 283.9,139.9 284.4,140.4 284.6,141.0 285.1,141.9 285.5,142.4 286.0,143.4 285.9,144.5 285.7,145.0 286.3,145.8 287.3,146.2 288.2,146.5 289.1,147.0 289.2,147.8 289.3,148.6 289.8,148.6 290.7,149.0 291.7,149.8 292.1,150.8 292.0,151.3 291.0,151.2 290.4,150.9 289.6,150.5 288.5,150.1 287.1,150.2 286.3,150.1 285.8,149.4 285.1,149.0 284.5,148.8 283.8,148.7 282.8,149.2 282.3,149.6 281.8,149.7 281.2,149.6 280.7,149.4 280.1,148.7 280.0,148.1 279.8,147.6 279.2,147.3 278.7,147.5 278.2,148.1 278.8,147.9 279.3,148.2 279.8,148.9 280.0,149.4 280.6,149.7 281.2,149.8 282.0,149.9 282.9,149.6 283.6,149.2 284.8,149.4 285.4,150.1 285.7,150.8 286.3,150.8 287.2,151.1 288.0,151.6 288.6,152.4 289.4,152.8 290.3,153.3 290.8,153.6 291.3,154.1 291.9,155.3 292.1,155.8 291.5,156.3 290.9,156.2 290.1,156.3 289.5,156.5 288.8,157.1 288.3,157.3 286.6,158.0 286.3,158.6 285.9,159.2 285.4,159.4 284.9,159.1 283.4,159.0 282.9,159.2 281.5,160.2 282.5,160.1 283.1,159.7 283.7,159.5 284.0,160.2 284.3,160.7 285.4,161.1 287.1,159.9 287.6,159.6 288.3,159.6 289.1,159.9 289.6,160.3 290.4,161.3 291.0,161.7 291.8,161.9 292.4,162.1 292.9,162.1 293.4,162.0 292.9,162.4 292.0,162.8 291.5,163.4 290.9,164.1 289.8,164.3 289.3,164.7 291.0,164.2 291.5,164.6 291.1,164.1 292.1,163.6 292.2,164.9 292.1,165.7 292.6,165.9 291.8,166.5 291.6,165.8 291.5,165.2 291.3,165.8 291.2,166.3 290.7,166.3 290.1,165.7 289.7,166.2 289.2,166.5 289.7,166.8 290.5,166.9 291.0,167.8 290.2,167.9 289.7,167.8 290.2,168.1 290.7,168.7 289.9,169.3 289.0,169.2 288.5,169.0 287.6,168.4 288.4,169.1 289.1,169.3 289.7,169.6 289.8,170.2 290.3,171.1 290.2,171.9 289.4,171.5 289.0,172.1 288.7,172.7 288.2,172.3 287.9,171.4 287.3,171.8 287.3,172.3 286.4,173.5 285.7,173.6 284.7,173.3 284.2,173.0 285.0,173.6 285.7,173.8 285.7,174.3 284.8,175.2 284.7,175.7 284.1,176.0 284.3,176.5 284.5,177.3 283.9,177.6 283.8,178.2 283.3,178.2 282.7,178.1 281.9,177.8 281.7,178.3 282.6,178.2 283.2,178.7 282.6,179.0 282.1,178.8 282.0,179.4 281.9,180.1 281.3,180.0 280.8,180.2 281.1,180.7 281.4,181.7 280.6,182.0 280.0,182.5 280.0,181.9 280.5,181.7 281.1,180.9 280.4,180.8 280.0,181.4 279.4,181.5 279.3,180.8 278.7,180.7 278.8,181.2 278.3,180.8 277.8,181.7 278.3,182.1 279.0,181.9 279.5,182.9 279.0,183.0 278.5,182.6 278.5,183.6 279.1,183.4 280.3,183.4 279.7,183.7 279.2,183.9 278.6,183.9 278.2,184.6 277.6,185.3 277.1,185.6 275.8,185.0 275.2,184.8 276.1,185.8 276.7,186.0 277.3,185.9 277.7,185.4 278.7,185.5 278.6,186.0 278.2,186.8 278.1,187.5 277.3,187.5 277.5,188.2 278.5,189.1 278.3,189.6 277.6,188.8 276.9,188.1 276.1,188.6 275.6,188.9 275.6,189.6 276.2,189.7 276.2,190.6 275.5,191.0 274.8,190.9 275.0,190.4 274.2,190.0 274.4,190.6 273.8,191.0 274.5,191.8 272.9,192.6 272.8,192.1 272.0,192.4 272.3,193.0 272.8,192.9 272.5,194.2 271.9,194.6 271.7,194.1 271.0,194.0 270.5,194.2 270.0,194.5 269.7,193.8 268.8,194.0 268.6,194.5 268.7,195.0 268.1,194.9 267.6,194.8 267.9,195.4 268.7,195.3 269.2,196.0 268.7,196.5 267.7,197.5 267.1,198.2 267.3,197.7 266.8,197.5 266.4,198.1 265.4,198.7 264.7,199.0 264.1,199.3 263.7,200.0 262.8,200.0 262.0,199.8 261.7,200.4 261.6,201.0 261.1,201.6 260.2,201.6 259.7,201.2 259.8,201.7 260.9,201.8 261.2,202.4 259.5,202.5 259.7,203.6 259.4,204.1 258.7,204.2 257.8,204.2 257.2,204.7 256.7,204.7 255.6,205.0 254.4,204.5 253.8,204.7 253.8,205.7 252.7,205.7 251.7,205.1 250.7,205.1 250.0,205.3 250.0,205.9 249.8,206.5 249.0,206.3 248.7,205.6 249.2,205.1 248.5,205.1 247.7,205.4 247.3,205.9 247.9,206.6 247.2,206.6 246.7,206.1 246.2,206.2 245.7,206.5 244.5,206.7 244.0,206.7 243.5,207.0 243.3,206.4 243.1,205.8 242.9,205.3 242.0,204.8 241.9,203.8 241.4,203.7 241.9,203.2 242.5,203.0 243.1,203.0 242.5,202.8 241.2,203.5 241.2,204.3 240.6,204.3 241.0,205.0 241.1,205.5 241.5,206.1 241.7,206.9 241.5,207.4 241.8,208.3 241.1,208.8 240.0,207.7 239.6,206.8 239.7,207.3 240.4,208.4 239.8,209.1 239.6,209.6 239.0,209.3 239.0,208.8 238.4,209.0 238.2,209.8 238.1,210.4 237.6,210.7 237.4,210.1 236.8,210.2 236.3,210.7 235.7,211.3 235.1,211.0 234.6,211.3 233.9,211.6 232.6,211.1 232.0,210.8 232.0,211.3 231.5,211.8 231.0,211.4 230.3,211.2 230.8,211.5 230.9,212.2 230.4,212.2 230.1,212.7 229.1,212.8 228.5,212.7 227.1,213.1 226.4,212.7 226.1,213.2 226.6,213.0 225.4,213.5 224.9,213.4 224.3,213.8 224.1,214.3 223.9,213.8 224.5,213.5 223.9,213.6 223.9,214.2 223.3,214.6 222.7,214.6 222.7,214.0 222.6,214.5 222.1,215.2 221.3,215.6 221.0,216.3 221.1,216.8 221.6,216.9 222.1,216.7 222.6,217.4 222.0,217.4 222.1,218.0 222.6,218.4 223.2,218.7 223.2,219.3 222.8,219.9 222.0,220.4 221.1,220.5 220.5,220.2 220.0,220.2 219.4,219.7 220.0,219.8 220.1,219.2 219.2,218.9 218.6,218.0 218.3,217.0 218.1,216.4 218.3,215.8 218.1,215.1 218.7,213.8 219.3,213.7 219.8,213.2 219.0,213.1 218.7,212.4 218.7,212.9 218.1,212.9 217.5,211.8 217.5,212.4 217.3,212.9 216.7,213.1 216.1,213.2 215.5,213.3 214.9,213.5 214.6,213.0 214.9,212.3 214.4,212.2 213.8,212.2 213.2,211.8 213.6,211.3 212.9,210.9 213.1,211.6 213.1,212.1 212.5,212.2 212.0,211.5 211.7,210.8 210.9,210.2 211.0,211.2 211.4,211.8 211.1,212.3 210.5,212.5 210.7,211.9 210.0,211.7 209.9,212.3 209.3,212.9 209.3,212.3 208.5,212.6 208.0,212.6 207.2,212.0 206.7,211.8 206.0,212.2 205.2,212.3 204.3,212.3 204.0,211.7 203.5,211.6 202.2,210.9 202.3,210.4 201.4,210.0 200.4,209.8 200.0,208.8 199.9,207.9 199.4,207.8 199.3,207.2 199.6,206.2 200.3,206.0 200.7,205.2 200.2,204.6 199.5,204.3 199.0,204.2 198.0,204.7 197.5,204.6 197.3,204.1 196.7,203.8 196.0,203.9 195.2,204.3 194.6,203.7 193.8,203.4 193.3,203.0 192.3,202.1 191.4,201.9 189.3,202.7 188.8,203.1 189.0,204.0 188.3,204.8 187.7,204.8 187.1,204.9 186.1,205.7 185.4,205.4 185.4,204.9 184.6,205.0 184.0,205.6 183.9,206.3 183.3,206.6 182.8,206.1 181.7,205.1 181.2,205.5 181.0,206.2 180.5,205.9 180.4,205.4 179.9,205.0 178.8,206.5 178.2,207.1 177.4,206.9 177.0,206.4 176.0,205.7 174.9,205.2 174.3,205.7 173.3,206.8 172.7,207.3 171.9,207.1 171.3,207.2 170.5,206.9 169.9,207.0 169.8,207.5 169.5,208.1 169.4,210.0 170.3,210.8 170.2,211.4 170.4,211.9 170.3,212.9 170.2,213.7 170.8,214.3 170.5,215.0 169.9,214.8 169.4,214.5 168.8,214.4 168.0,214.5 167.5,214.8 167.2,213.9 166.8,212.5 166.4,211.2 164.7,211.9 164.0,212.8 163.5,213.0 162.6,213.1 161.9,212.6 161.3,213.0 160.8,213.2 160.3,212.7 160.5,212.0 159.7,211.7 159.3,210.9 159.5,210.3 159.4,209.5 158.1,209.4 157.5,209.3 156.4,209.0 155.8,209.3 155.1,209.2 154.6,208.9 155.3,207.4 155.8,206.9 155.9,206.3 155.7,205.6 156.2,204.6 156.8,204.3 156.7,203.3 155.8,203.0 155.2,203.1 154.2,203.2 153.1,202.6 153.1,202.1 153.1,201.3 152.5,200.9 152.7,199.9 152.5,199.2 151.7,198.8 151.6,197.9 152.7,197.3 152.9,196.8 151.1,197.2 150.2,196.9 148.9,197.0 147.9,197.2 147.0,197.6 146.1,198.2 145.4,198.6 144.9,198.2 145.4,197.4 145.9,196.9 146.1,196.2 145.8,195.5 144.8,194.8 144.9,194.3 144.9,193.7 144.8,193.2 145.5,192.7 145.9,192.2 145.9,191.3 146.3,190.6 146.5,190.1 147.0,190.4 147.9,189.8 148.3,189.3 148.5,188.3 149.3,188.3 149.8,188.1 150.2,187.5 150.4,186.9 151.0,186.7 151.8,186.5 151.5,185.9 151.0,185.1 151.5,185.0 151.9,184.5 151.9,183.4 152.2,182.0 152.2,180.8 152.1,180.2 152.0,179.5 151.8,178.8 151.7,178.2 152.0,177.7 151.7,176.8 151.4,175.9 150.7,175.6 150.1,175.7 149.9,176.3 149.4,176.2 149.3,175.7 148.9,175.0 148.7,174.5 148.4,173.5 148.5,172.8 147.7,172.3 147.0,171.2 146.4,171.4 146.0,170.9 145.8,170.4 144.9,170.2 144.5,171.0 144.3,171.7 143.7,172.0 143.0,171.8 142.4,171.3 141.9,171.3 140.3,171.3 139.5,170.7 139.0,170.7 138.2,171.0 137.6,171.1 137.5,170.3 138.0,170.0 139.1,169.0 138.6,168.1 138.4,167.3 137.6,167.2 137.0,167.7 136.5,168.1 136.3,167.1 136.7,166.6 137.3,166.4 137.8,165.9 137.2,166.0 136.6,165.6 136.3,165.1 135.8,164.7 135.1,165.1 134.1,165.4 133.1,165.9 132.6,166.3 132.2,167.1 131.7,167.3 130.2,166.8 129.3,166.6 128.5,166.4 128.1,165.9 127.5,165.4 126.9,165.8 126.2,166.1 125.2,166.6 124.5,167.4 123.9,168.1 123.4,168.6 123.1,169.5 122.5,169.3 121.7,169.4 121.2,169.6 120.6,169.5 119.9,169.6 119.4,169.8 119.0,170.5 118.7,171.2 118.0,171.6 116.8,172.1 116.2,172.2 115.5,172.7 115.5,173.2 115.4,173.8 114.5,174.4 114.0,174.6 113.3,174.7 112.7,174.4 112.1,174.6 111.5,175.0 110.5,175.1 109.1,174.9 109.1,174.4 109.2,173.9 108.3,173.6 107.7,173.5 107.1,173.1 106.5,173.0 106.0,173.6 105.3,173.7 104.7,173.3 104.2,173.2 103.7,173.1 103.1,173.0 102.5,173.1 101.9,173.1 101.4,173.0 101.4,172.5 101.5,172.0 100.9,171.9 100.2,171.7 99.3,171.6 98.3,171.9 97.8,172.4 97.3,172.5 96.6,172.7 96.0,173.2 95.5,173.8 94.7,174.6 94.3,175.1 93.8,175.8 93.6,176.3 93.0,176.6 92.7,177.2 92.0,177.2 91.6,176.3 91.9,175.7 92.2,175.2 92.3,174.5 92.1,173.5 91.5,173.1 90.9,172.8 90.4,173.1 89.4,173.6 87.9,173.8 87.9,174.3 87.4,174.1 86.3,174.0 85.7,174.6 85.0,174.6 84.2,174.5 83.4,174.5 82.8,174.6 82.1,174.6 81.6,174.2 80.6,173.8 79.5,173.4 79.2,172.8 78.5,172.8 78.2,173.4 78.0,173.9 77.1,173.9 76.3,173.5 76.2,172.9 75.5,173.0 75.7,173.6 75.5,174.2 74.9,174.2 74.6,173.4 74.2,172.6 73.6,172.3 72.4,171.8 71.6,171.7 70.6,171.9 69.7,171.7 69.6,171.1 70.0,170.3 69.5,169.7 68.6,170.2 67.9,170.2 67.1,169.9 66.7,169.3 65.8,169.1 65.3,168.4 64.8,168.2 64.2,168.0 64.3,167.1 63.8,166.6 63.5,165.9 62.7,165.7 61.3,166.0 60.7,166.5 60.1,166.3 59.3,165.3 59.1,164.8 58.3,164.0 57.8,163.6 57.1,163.7 56.3,163.3 55.4,163.0 54.7,162.4 53.3,161.4 52.1,161.0 51.4,159.4 50.4,159.2 49.9,159.1 49.1,159.0 48.5,158.9 48.0,159.3 47.5,159.2 47.0,159.8 47.0,160.3 46.5,160.9 45.9,161.3 45.4,161.3 45.1,160.6 44.9,160.1 44.3,159.8 43.5,159.5 42.3,158.6 41.8,158.5 41.1,158.2 40.5,158.0 39.9,157.9 40.2,157.0 38.4,156.1 37.9,155.6 37.1,155.4 36.6,155.5 35.9,155.6 35.1,155.1 34.5,154.6 34.0,153.9 33.9,153.4 33.1,152.7 31.8,153.6 31.2,153.5 30.8,152.4 31.6,151.7 31.1,151.3 30.7,150.7 31.0,150.0 31.2,149.4 30.6,149.1 30.1,148.5 29.7,148.0 29.4,146.8 29.0,146.2 29.5,145.8 30.0,145.9 30.6,145.8 31.1,145.5 31.1,146.0 31.3,146.6 32.1,147.1 33.0,147.0 33.3,146.5 33.8,146.3 34.4,146.3 35.3,145.7 35.8,144.9 35.3,144.0 34.8,143.6 34.8,142.9 34.2,142.1 33.7,141.9 33.2,141.7 32.6,141.4 32.2,140.9 31.6,140.5 31.4,140.0 31.4,139.3 31.5,138.7 31.4,138.2 31.1,137.5 30.9,137.0 31.5,136.5 32.0,136.3 32.5,136.0 32.6,135.4 32.3,134.9 30.9,134.1 30.3,133.9 29.5,133.8 28.9,133.7 28.4,133.3 27.9,132.0 27.6,131.5 27.3,130.5 26.8,129.9 26.7,129.3 26.9,128.6 26.4,128.2 25.9,128.5 25.3,128.1 24.8,128.4 24.2,128.3 23.7,128.2 23.1,128.3 22.0,127.9 21.1,127.8 19.8,127.5 19.1,127.2 18.6,126.8 18.0,126.6 17.8,125.7 17.1,126.0 16.2,126.2 15.6,126.3 15.3,125.7 15.1,125.2 14.5,125.1 13.9,124.5 14.4,124.1 14.5,122.5 13.9,121.4 13.2,120.9 12.7,120.6 11.8,120.5 11.2,120.7 10.9,120.1 10.8,119.6 10.0,119.4 9.5,119.3 8.5,119.1 7.3,118.9 6.6,118.7 5.7,118.9 4.7,118.2 5.5,117.6 6.0,117.6 6.8,117.3 7.4,117.7 7.9,117.6 8.8,117.2 9.5,116.6 8.8,116.0 8.1,115.7 7.8,115.2 8.3,114.4 7.8,113.9 7.9,113.0 7.3,112.6 7.1,111.8 7.1,111.2 7.5,110.7 7.5,110.2 6.4,109.6 4.7,109.0 3.3,108.9 2.7,109.4 2.2,109.8 1.4,109.4 0.9,108.4 0.6,107.9 1.0,107.4 1.0,106.7 0.0,105.6 0.3,104.9 0.2,104.2 1.0,104.1 2.0,103.4 1.9,102.8 1.4,102.4 2.2,100.7 3.4,100.3 3.9,100.3 4.5,100.3 5.4,99.8 5.9,99.3 6.7,98.9 7.2,98.9 7.3,98.1 7.9,97.9 8.5,98.2 9.7,98.2 10.3,97.8 11.3,97.2 11.8,97.0 12.2,97.6 12.4,98.7 13.8,99.1 14.3,98.7 15.0,98.5 15.8,98.5 16.3,98.6 17.1,98.5 17.6,97.9 18.0,97.4 18.3,96.8 19.1,95.2 19.7,94.8 20.5,94.6 21.1,94.7 22.1,94.8 22.8,94.7 23.3,94.9 24.6,94.9 25.2,94.6 25.7,94.4 26.5,94.5 27.0,94.6 27.7,94.3 28.1,93.7 28.7,93.2 28.7,92.7 29.7,92.1 30.6,91.7 31.2,91.5 32.3,91.0 32.9,90.7 33.5,90.5 34.6,90.1 35.8,89.8 36.5,89.5 37.1,89.5 37.6,89.0 38.2,88.7 38.8,88.6 39.5,88.7 40.0,88.6 40.1,87.8 40.3,87.0 39.6,85.0 40.1,84.0 40.6,83.8 42.0,83.5 41.5,83.1 41.0,82.8 42.3,82.0 42.9,82.0 43.4,82.0 43.3,81.1 43.1,80.0 42.7,79.4 42.4,78.7 42.0,77.9 41.7,77.3 41.3,76.5 40.8,76.0 41.0,75.5 40.9,74.6 40.7,74.0 40.9,72.9 41.7,72.5 40.3,71.8 39.5,71.8 38.9,71.9 37.9,71.5 39.1,70.5 39.6,70.4 40.2,70.5 41.0,70.4 41.8,70.0 43.1,69.8 44.2,69.8 44.7,69.7 45.6,69.4 46.1,69.3 47.0,69.0 47.6,69.0 48.2,68.8 48.7,68.6 49.2,68.6 49.6,69.2 50.4,69.7 50.9,69.7 51.5,69.5 52.0,69.3 52.6,69.2 53.5,69.8 54.0,69.9 54.5,69.3 54.7,68.6 54.6,68.1 54.1,67.8 53.2,67.7 52.7,67.6 53.1,66.4 53.4,65.8 53.8,65.2 54.1,64.2 54.2,63.6 54.5,63.1 55.0,62.5 55.3,61.8 55.5,61.1 55.8,60.4 56.1,59.8 56.6,59.2 57.0,58.1 57.0,57.6 57.5,57.2 58.1,57.4 58.8,57.6 59.3,57.7 60.1,58.2 61.0,58.3 61.5,58.4 62.2,58.7 63.3,58.7 63.9,58.6 64.6,58.5 66.4,58.6 66.9,58.6 67.4,58.9 67.3,59.5 68.6,59.4 69.2,59.0 69.9,58.7 70.4,58.3 71.2,58.3 72.0,58.2 72.3,57.7 72.9,57.3 73.1,56.4 72.7,55.8 72.6,55.2 72.4,54.0 72.2,53.4 72.1,52.9 72.5,52.1 72.6,51.6 73.3,50.4 73.9,50.0 75.0,49.9 75.8,49.9 76.3,50.0 76.8,49.6 77.4,49.5 78.5,49.3 78.9,48.7 79.5,48.3 79.8,47.5 79.4,47.0 79.6,46.3 80.1,45.8 81.7,45.7 82.9,45.9 83.5,46.0 84.0,45.9 85.2,45.5 85.9,45.4 86.4,46.4 85.9,46.8 86.0,47.7 86.6,47.9 87.3,48.0 87.2,48.6 87.0,49.1 88.1,49.5 89.0,49.6 90.1,50.0 90.6,50.4 90.6,51.1 92.2,51.8 92.7,51.8 93.3,52.3 94.4,52.6 94.9,52.5 95.4,52.2 96.3,52.3 97.1,53.0 97.7,53.5 98.7,53.5 99.5,53.2 99.6,53.7 100.7,54.3 101.3,54.7 101.5,55.2 102.1,56.6 102.6,57.4 103.4,58.3 104.0,58.6 104.5,58.7 105.3,60.1 105.3,61.0 105.0,62.5 104.9,63.4 105.3,64.0 105.3,64.5 104.8,64.9 104.3,65.3 103.5,66.2 103.2,67.2 103.3,67.7 103.8,68.0 104.5,69.1 105.2,69.3 106.0,69.4 106.6,69.8 107.4,69.9 108.0,69.7 108.5,70.2 110.4,70.2 111.3,70.2 113.1,70.5 114.2,70.7 115.1,70.5 115.8,70.4 116.6,70.4 117.2,70.6 117.8,70.6 118.3,70.6 118.8,70.7 119.5,70.7 120.5,70.9 121.2,71.1 121.7,71.4 122.3,71.7 122.8,71.9 123.8,72.3 124.8,72.9 125.3,73.2 126.0,73.6 126.5,73.8 127.3,74.2 129.5,75.2 130.5,75.1 131.1,75.0 131.7,74.9 131.5,75.6 131.4,76.6 131.9,76.7 132.5,76.8 133.2,77.6 133.3,78.2 133.7,78.9 134.1,79.5 134.4,80.0 134.6,80.6 134.9,81.3 136.2,82.3 137.6,83.3 137.7,84.3 138.9,84.3 139.8,84.3 140.5,84.2 141.2,84.2 142.4,84.0 143.8,84.2 144.4,84.3 145.1,84.4 146.0,84.5 148.0,84.8 148.7,84.9 149.5,84.9 150.5,85.0 152.2,85.1 154.3,85.2 155.0,85.3 156.6,85.4 159.5,84.9 160.4,84.9 161.2,84.9 163.8,84.7 164.7,84.7 165.5,84.9 167.0,85.2 168.2,85.4 169.3,85.6 170.6,85.7 171.7,86.9 172.2,87.4 174.4,87.9 175.0,87.8 176.0,87.8 177.1,88.2 178.6,88.9 179.9,89.3 182.9,90.0 184.2,90.0 187.0,89.6 187.0,90.3 187.0,90.8 188.0,91.0 188.9,90.9 189.4,90.9 191.2,90.4 192.0,90.1 192.7,89.8 193.4,89.5 195.0,88.9 196.7,88.4 198.9,87.6 200.6,87.0 201.9,86.9 203.6,86.6 204.8,86.0 205.3,86.3 207.5,86.3 209.4,86.0 209.9,86.2 211.2,86.1 212.1,86.3 213.1,86.4 214.1,86.0 214.7,86.1 215.9,86.2 216.4,86.1 217.2,86.1 218.2,85.5 219.7,84.9 220.8,84.9 222.3,84.3 222.8,84.0 223.5,83.4 224.2,82.8 224.6,82.2 225.4,81.5 226.1,80.9 226.6,80.6 227.5,80.3 228.1,80.2 229.2,79.8 230.0,79.5 230.7,78.8 231.6,78.7 232.1,78.2 231.5,77.1 230.5,76.5 229.5,75.7 228.8,74.8 228.8,74.2 229.2,73.7 229.6,73.1 230.0,72.0 230.8,70.8 231.5,70.4 232.1,70.1 232.7,70.1 233.6,70.2 234.4,70.3 235.2,70.5 235.8,71.0 237.4,71.6 239.1,71.9 239.7,71.9 241.4,72.0 242.1,72.2 242.6,71.9 243.2,71.5 243.8,71.1 244.5,71.1 245.1,70.8 245.8,70.2 246.4,69.9 247.0,69.5 247.6,68.7 248.8,68.0 249.4,68.2 250.0,68.4 251.4,68.2 252.2,68.2 252.7,68.3 254.6,67.9 255.2,67.4 256.0,66.8 256.6,66.5 257.3,66.5 258.1,65.9 257.8,65.4 258.2,64.7 258.6,64.1 259.2,63.6 259.8,63.1 260.5,62.6 261.0,62.6 261.5,62.2 262.9,62.4 264.7,62.4 264.8,61.9 265.1,61.2 266.1,60.9 266.8,61.5 267.5,61.4 268.1,60.9 269.2,60.5 270.3,60.2 270.9,60.2 273.2,60.5 273.6,60.0 274.4,60.1 275.0,60.6 276.4,60.9 276.9,60.9 277.8,60.8 278.4,60.8 279.1,60.9 279.7,60.6 280.1,59.2 279.4,58.6 279.3,58.0 278.5,57.2 277.6,56.6 277.1,56.3 276.6,55.8 276.0,55.5 275.5,55.3 275.4,54.7 274.4,54.3 273.5,54.0 272.6,53.3 271.8,52.6 270.9,52.5 269.9,52.3 268.9,52.4 267.9,52.4 267.4,52.4 266.5,53.1 264.9,54.6 263.2,53.7 261.7,53.2 260.8,53.3 260.0,53.4 259.5,53.5 258.6,53.4 258.0,53.3 257.1,53.6 256.3,54.4 254.0,53.0 253.6,51.7 255.4,51.0 255.4,50.5 255.3,49.4 256.1,48.5 256.9,47.6 257.2,46.6 258.1,45.3 258.5,44.6 259.0,43.9 259.4,43.3 259.9,42.7 260.3,42.0 260.7,41.4 262.0,42.0 263.5,42.5 264.0,42.7 264.6,42.7 265.1,42.7 265.6,42.7 266.9,43.2 267.8,43.3 268.8,42.8 269.6,42.4 270.7,41.8 271.4,41.4 271.9,40.9 272.6,40.7 273.8,40.6 274.4,40.5 274.9,40.5 275.6,40.4 276.5,39.9 276.7,39.3 276.6,38.8 276.0,38.4 275.4,38.2 276.0,37.8 276.3,36.8 277.3,36.3 277.7,35.6 277.7,35.0 278.4,34.4 279.1,33.9 279.3,33.4 279.5,32.8 280.4,32.0 280.5,31.5 281.0,30.6 281.5,30.4 282.5,29.7 283.6,29.1 284.4,28.9 284.9,28.5 285.3,27.6 285.2,27.0 284.6,26.6 284.6,25.9 285.0,25.1 283.4,24.5 282.4,24.6 281.8,24.8 281.2,24.8 280.8,23.7 281.4,23.4 282.2,23.2 282.7,22.8 283.5,22.1 284.0,21.8 284.8,21.3 285.6,20.7 287.1,20.5 287.8,20.6 288.3,20.5 289.2,20.4 289.8,20.3 290.5,20.1 291.4,19.8 292.4,19.7 293.0,19.8 294.2,19.5 295.6,19.6 296.4,19.5 297.1,19.5 297.6,19.6 298.3,19.4 299.4,19.3 299.9,19.1 300.5,18.9 301.0,19.1 " />
    <polygon id="China" points="289.3,104.6 288.5,104.6 288.7,104.1 289.3,104.1 " />
    <polygon id="China" points="280.0,148.9 279.3,148.6 279.3,148.1 279.1,147.6 279.6,147.8 280.0,148.9 " />
    <polygon id="China" points="289.6,151.0 290.4,151.6 291.2,151.9 291.8,152.1 291.7,152.6 291.2,152.6 290.0,152.2 289.1,151.8 288.6,151.4 288.0,150.7 288.6,150.4 289.2,150.7 " />
    <polygon id="China" points="291.8,153.6 291.5,153.1 291.8,153.6 " />
    <polygon id="China" points="295.3,158.9 294.4,158.8 295.2,158.7 " />
    <polygon id="China" points="294.0,160.0 293.3,159.8 294.0,159.4 294.0,159.9 " />
    <polygon id="China" points="294.7,161.3 294.5,161.8 293.8,161.5 293.2,161.3 292.5,161.1 292.5,160.6 293.0,160.6 293.7,160.7 294.5,161.0 " />
    <polygon id="China" points="291.9,161.6 291.7,161.1 291.9,161.6 " />
    <polygon id="China" points="295.2,161.8 295.1,162.5 294.6,161.8 295.2,161.7 " />
    <polygon id="China" points="293.4,162.7 293.8,163.2 293.3,163.1 " />
    <polygon id="China" points="292.4,167.2 291.9,166.6 292.5,166.6 292.4,167.1 " />
    <polygon id="China" points="287.7,173.2 287.4,172.7 287.9,172.3 288.1,173.0 " />
    <polygon id="China" points="276.2,185.4 277.0,185.6 276.2,185.7 275.8,185.2 " />
    <polygon id="China" points="279.6,188.1 279.2,189.1 278.6,188.8 278.7,188.1 279.3,187.7 " />
    <polygon id="China" points="276.4,189.1 276.2,188.6 276.4,189.1 " />
    <polygon id="China" points="269.3,195.1 269.1,194.4 269.6,194.5 269.4,195.1 " />
    <polygon id="China" points="264.9,199.1 265.4,199.2 265.0,200.1 264.4,200.3 264.5,199.6 " />
    <polygon id="China" points="263.2,201.4 262.7,201.3 262.1,201.2 263.1,200.8 263.2,201.3 " />
    <polygon id="China" points="241.8,205.3 241.0,204.9 240.7,204.3 241.2,204.4 241.9,205.1 " />
    <polygon id="China" points="241.9,205.9 241.2,205.5 241.8,205.7 " />
    <polygon id="China" points="240.1,209.4 240.3,208.9 240.1,209.4 " />
    <polygon id="China" points="240.6,209.8 " />
    <polygon id="China" points="237.1,211.9 236.5,211.7 236.9,211.2 237.5,211.2 237.1,211.9 " />
    <polygon id="China" points="235.4,212.3 235.7,211.8 236.2,211.7 235.4,212.3 " />
    <polygon id="China" points="210.0,211.9 " />
    <polygon id="China" points="231.2,212.5 231.4,211.9 232.2,211.9 231.2,212.5 " />
    <polygon id="China" points="223.1,214.7 223.8,214.7 223.5,215.2 222.8,214.9 " />
    <polygon id="China" points="223.4,215.5 223.3,216.0 222.6,215.8 222.0,216.0 222.1,215.4 222.7,215.6 223.2,215.4 " />
    <polygon id="China" points="214.8,215.5 " />
    <polygon id="China" points="223.7,216.6 " />
    <polygon id="China" points="260.8,217.6 " />
    <polygon id="China" points="224.5,221.5 225.2,222.0 225.7,221.9 226.0,222.6 226.4,224.1 225.8,224.3 225.1,224.6 224.5,225.5 223.6,227.0 223.1,227.0 223.6,227.1 223.1,228.5 223.3,229.2 222.5,229.8 221.8,230.0 220.8,230.7 220.5,231.3 219.9,231.7 218.8,231.6 218.3,232.5 217.7,232.8 217.1,232.5 216.1,232.2 215.4,232.2 214.4,231.8 213.8,231.6 213.2,231.3 212.7,231.1 212.1,230.9 212.2,230.4 212.2,229.7 212.0,228.3 211.8,227.5 211.8,226.3 212.2,225.7 213.6,224.9 214.1,224.4 214.6,224.3 215.8,223.4 215.3,223.5 215.6,222.5 216.8,222.7 217.5,222.0 218.1,221.9 218.8,222.1 219.7,222.0 220.7,222.1 221.0,221.6 222.4,221.6 223.2,221.8 223.7,221.3 224.3,221.3 " />
    <polygon id="China" points="223.3,227.2 " />
  </g>
</svg>