<?xml version="1.0" encoding="UTF-8" standalone="yes"?>
<!DOCTYPE svg PUBLIC "-//W3C//DTD SVG 1.0//EN" "http://www.w3.org/TR/2001/REC-SVG-20010904/DTD/svg10.dtd">
<svg height="250" width="370" xmlns="http://www.w3.org/2000/svg" xmlns:svg="http://www.w3.org/2000/svg" xmlns:xlink="http://www.w3.org/1999/xlink">


<g id="background">
<rect id="" width="370" height="250" fill="#222222"/>
</g>
  <g id="158" style="stroke-miterlimit: 3; fill: #F1F1F1; stroke: #000000; stroke-opacity: 1; stroke-width: 0.05; stroke-linejoin: bevel; stroke-linecap: square">
    <polygon id="Taiwan" points="177.4,2.5 176.8,2.3 176.6,1.5 176.7,0.8 178.1,0.1 178.7,0.1 179.6,0.6 179.6,1.6 177.4,2.5 " />
    <polygon id="Taiwan" points="175.2,5.5 174.5,5.7 174.0,5.5 174.0,4.1 176.2,3.9 176.4,4.6 175.7,5.2 175.2,5.5 " />
    <polygon id="Taiwan" points="280.1,63.4 283.2,64.1 288.6,64.8 295.4,70.8 295.6,71.4 294.2,72.2 293.7,72.3 292.4,72.8 290.5,73.8 288.7,75.4 285.5,79.2 285.0,80.0 284.7,81.1 284.2,83.7 283.9,85.6 283.9,86.3 284.9,92.5 285.0,93.1 285.5,93.9 286.4,94.3 286.7,95.2 287.0,96.8 287.0,98.6 286.2,101.9 285.7,102.2 284.8,102.6 284.1,103.1 282.7,104.8 282.5,105.5 281.5,110.1 281.6,110.8 282.3,112.0 281.1,112.6 276.7,117.7 275.7,118.8 272.7,124.6 272.4,126.0 272.8,127.2 272.9,130.5 272.0,135.4 268.6,146.9 266.2,159.5 265.1,163.1 264.9,164.4 263.7,168.7 258.0,182.6 252.4,193.5 247.1,201.5 245.4,203.1 244.9,203.5 244.3,203.7 243.7,203.8 242.0,204.6 239.1,207.7 238.2,208.9 235.6,212.8 234.8,214.7 230.3,226.0 230.0,227.0 229.9,228.8 230.0,229.8 230.4,232.3 230.7,240.1 230.5,243.5 227.2,250.0 221.3,250.0 220.6,249.8 219.9,249.2 219.2,242.7 219.5,239.7 219.4,239.1 218.7,235.8 218.5,235.2 215.8,229.7 215.3,228.6 214.7,227.6 212.7,224.8 211.4,223.6 208.6,221.2 207.7,220.9 206.9,220.7 205.1,219.5 204.2,218.7 203.5,217.8 202.1,218.0 201.5,217.9 199.3,216.5 198.4,215.6 197.1,214.4 196.8,213.8 198.1,215.2 198.6,215.2 198.4,214.6 198.0,213.6 197.4,212.5 196.5,211.1 195.0,210.3 194.5,210.0 194.0,209.3 193.5,208.6 193.2,208.1 193.1,207.4 193.9,206.4 193.9,205.7 192.6,203.0 191.3,200.9 190.9,200.1 189.3,194.6 189.0,193.0 188.8,190.4 187.1,186.4 185.5,186.9 183.0,185.7 182.5,185.3 182.3,184.8 182.1,184.2 182.4,183.5 183.2,183.1 184.3,183.1 184.8,182.8 185.1,182.2 184.7,180.4 184.0,179.9 183.2,179.7 182.7,179.4 182.5,178.8 184.1,174.4 185.1,172.2 185.6,171.0 186.8,169.2 187.5,169.1 187.9,164.9 187.1,160.6 186.8,159.0 186.5,158.1 186.0,154.6 185.7,152.0 186.0,151.0 190.5,142.3 192.2,140.1 193.2,139.5 195.5,136.0 195.8,135.5 197.4,132.3 200.4,126.8 203.7,121.4 204.1,120.9 206.7,118.4 206.9,117.4 208.8,112.9 210.9,108.5 211.7,107.2 212.5,106.2 213.8,104.7 215.8,102.6 216.6,101.7 217.1,100.9 217.4,99.9 218.0,98.6 219.6,94.9 222.9,91.9 229.3,86.7 229.9,86.6 231.8,81.0 232.8,78.7 234.6,75.9 235.0,75.4 237.5,71.4 240.8,68.7 248.7,65.1 250.4,64.7 253.4,64.6 255.4,64.1 257.1,63.8 258.5,63.1 259.0,62.8 259.8,62.3 260.4,62.2 261.2,62.4 261.7,62.8 263.0,64.0 260.4,61.2 260.3,60.6 262.7,57.7 265.0,55.8 267.2,55.1 269.9,54.9 271.3,55.4 272.1,55.9 272.6,56.3 273.2,57.0 274.4,59.0 277.0,61.7 280.1,63.4 " />
    <polygon id="Taiwan" points="87.4,106.6 80.2,107.0 79.5,106.8 79.1,106.0 80.1,105.2 80.5,104.4 82.2,102.7 85.9,99.6 86.4,99.3 88.4,100.6 89.2,102.2 89.2,102.9 89.0,104.3 88.8,105.0 87.6,106.4 " />
    <polygon id="Taiwan" points="76.0,106.1 75.3,106.1 75.3,105.2 76.2,103.9 76.7,103.6 77.3,103.9 77.5,104.4 77.5,105.1 76.3,106.0 " />
    <polygon id="Taiwan" points="160.1,155.7 155.5,158.0 153.2,157.8 152.5,157.6 151.8,156.7 152.9,156.7 154.2,156.8 155.1,156.1 154.2,155.6 153.1,155.1 153.1,154.1 154.7,152.8 155.9,152.4 156.6,152.5 159.1,153.8 160.1,155.2 160.1,155.7 " />
    <polygon id="Taiwan" points="270.9,245.7 269.8,245.5 267.8,244.5 266.7,243.8 266.4,243.2 265.9,241.5 266.5,241.2 269.2,241.3 270.1,242.4 271.1,244.2 271.3,244.8 271.1,245.6 " />
  </g>
</svg>