<?xml version="1.0" encoding="UTF-8" standalone="yes"?>
<!DOCTYPE svg PUBLIC "-//W3C//DTD SVG 1.0//EN" "http://www.w3.org/TR/2001/REC-SVG-20010904/DTD/svg10.dtd">
<svg height="250" width="370" xmlns="http://www.w3.org/2000/svg" xmlns:svg="http://www.w3.org/2000/svg" xmlns:xlink="http://www.w3.org/1999/xlink">


<g id="background">
<rect id="" width="370" height="250" fill="#222222"/>
</g>
  <g id="174" style="stroke-miterlimit: 3; fill: #F1F1F1; stroke: #000000; stroke-opacity: 1; stroke-width: 0.05; stroke-linejoin: bevel; stroke-linecap: square">
    <polygon id="Comoros" points="83.6,139.9 82.0,140.0 75.6,136.8 42.5,118.0 38.4,115.4 36.7,114.1 33.8,110.4 24.8,98.1 24.4,97.0 23.3,93.2 23.0,90.2 23.2,88.7 24.5,85.4 27.6,80.2 29.4,77.3 30.5,75.0 30.8,73.7 32.0,45.3 32.6,26.9 31.7,19.5 32.0,18.2 32.3,16.9 34.5,10.9 35.8,7.4 37.8,4.6 39.7,3.1 41.0,2.8 51.8,0.3 54.8,0.0 61.6,1.0 62.6,1.7 64.1,3.5 67.7,9.6 68.2,12.4 68.0,18.4 63.8,52.6 62.6,59.3 62.4,60.8 62.8,62.1 64.8,68.3 74.8,84.3 76.4,85.9 78.3,89.1 93.0,126.0 93.1,127.5 92.8,128.7 90.8,134.1 89.8,136.3 84.7,139.4 83.6,139.9 " />
    <polygon id="Comoros" points="336.4,178.6 344.0,208.3 347.1,240.6 346.9,242.1 346.1,245.8 343.9,248.7 342.8,249.3 341.5,249.2 337.0,247.0 336.1,246.4 321.6,231.9 313.0,222.7 312.4,221.6 295.8,213.7 293.4,212.8 277.4,204.6 273.2,202.2 270.3,200.2 268.1,197.4 267.3,195.6 269.7,195.5 272.4,195.9 273.4,196.4 274.0,197.4 274.9,198.3 275.9,198.9 288.9,201.7 290.4,201.9 296.6,201.9 305.9,200.2 308.5,199.6 310.7,198.4 317.1,193.6 317.6,192.5 319.9,185.8 319.7,182.9 318.2,179.5 318.0,178.0 323.3,175.2 328.0,173.2 330.9,172.8 332.0,173.2 333.8,174.8 335.3,176.7 336.4,178.6 " />
    <polygon id="Comoros" points="182.2,243.4 182.9,244.4 183.0,245.8 182.6,247.2 182.2,248.2 180.7,250.0 161.1,245.2 152.5,244.2 150.5,245.6 145.6,245.2 134.9,243.7 132.1,241.9 125.5,229.6 124.1,226.1 123.3,223.6 123.3,222.0 123.7,219.3 125.0,217.4 127.0,216.0 129.1,214.9 130.4,215.2 148.8,221.6 151.8,223.3 173.2,236.1 176.1,238.0 180.5,241.7 182.2,243.4 " />
  </g>
</svg>