<?xml version="1.0" encoding="UTF-8" standalone="yes"?>
<!DOCTYPE svg PUBLIC "-//W3C//DTD SVG 1.0//EN" "http://www.w3.org/TR/2001/REC-SVG-20010904/DTD/svg10.dtd">
<svg height="250" width="370" xmlns="http://www.w3.org/2000/svg" xmlns:svg="http://www.w3.org/2000/svg" xmlns:xlink="http://www.w3.org/1999/xlink">


<g id="background">
<rect id="" width="370" height="250" fill="#222222"/>
</g>
  <g id="175" style="stroke-miterlimit: 3; fill: #F1F1F1; stroke: #000000; stroke-opacity: 1; stroke-width: 0.05; stroke-linejoin: bevel; stroke-linecap: square">
    <polygon id="Mayotte" points="214.6,141.8 193.0,195.7 193.6,201.3 194.2,203.7 196.5,234.0 162.7,250.0 153.4,249.2 133.2,245.0 112.4,223.3 105.2,177.2 107.1,174.7 110.3,172.8 120.1,172.1 124.8,172.8 128.6,174.2 131.5,181.4 132.1,185.8 134.7,187.9 145.0,180.9 147.2,181.5 149.7,181.5 152.7,179.1 154.0,174.2 153.4,168.8 137.8,125.6 103.5,66.9 91.1,59.3 89.6,55.8 89.0,38.5 93.6,24.8 119.1,0.0 217.2,49.2 228.1,58.3 233.8,68.0 232.9,72.0 214.6,141.8 " />
    <polygon id="Mayotte" points="273.3,107.3 269.8,108.0 266.0,101.9 263.0,94.7 258.2,80.6 259.2,77.7 261.3,74.5 266.0,69.0 268.7,66.3 273.8,64.4 276.5,66.3 279.7,77.0 281.5,90.3 280.5,94.3 273.3,107.3 " />
  </g>
</svg>