<?xml version="1.0" encoding="UTF-8" standalone="yes"?>
<!DOCTYPE svg PUBLIC "-//W3C//DTD SVG 1.0//EN" "http://www.w3.org/TR/2001/REC-SVG-20010904/DTD/svg10.dtd">
<svg height="250" width="370" xmlns="http://www.w3.org/2000/svg" xmlns:svg="http://www.w3.org/2000/svg" xmlns:xlink="http://www.w3.org/1999/xlink">


<g id="background">
<rect id="" width="370" height="250" fill="#222222"/>
</g>
  <g id="178" style="stroke-miterlimit: 3; fill: #F1F1F1; stroke: #000000; stroke-opacity: 1; stroke-width: 0.05; stroke-linejoin: bevel; stroke-linecap: square">
    <polygon id="Congo" points="124.9,232.0 124.4,232.2 123.9,232.8 122.5,234.4 121.6,235.7 121.4,236.5 120.8,236.9 115.9,237.8 114.4,238.1 113.9,238.3 113.6,238.9 113.9,239.4 113.9,239.9 113.5,241.1 112.4,243.2 111.9,243.4 111.0,243.4 110.2,243.4 109.1,242.7 108.5,242.5 107.9,244.5 107.7,245.3 107.4,246.5 103.3,249.9 102.7,250.0 100.7,247.3 97.6,243.8 97.1,243.2 96.9,242.6 96.4,240.5 96.3,239.0 96.7,238.4 96.9,237.8 96.6,237.0 96.0,236.1 95.5,235.6 95.0,235.1 94.2,234.3 92.4,232.6 90.0,230.8 85.0,226.4 84.4,225.6 84.2,224.2 84.0,223.7 83.2,222.9 80.2,220.6 78.6,219.3 78.0,218.7 78.8,216.3 80.4,212.2 82.6,210.3 87.9,206.8 89.0,206.7 89.8,206.9 90.6,207.4 92.0,209.3 92.7,210.4 95.2,211.8 98.0,212.4 98.8,212.5 99.7,211.6 100.1,211.0 100.5,210.4 100.0,209.8 99.1,209.4 98.4,209.1 98.0,208.3 99.8,203.9 100.2,203.2 100.8,202.7 101.6,202.3 101.9,201.6 101.6,200.7 96.9,198.3 96.4,198.1 95.8,197.8 94.4,197.3 94.0,194.9 94.5,193.8 94.9,193.3 95.4,193.5 96.4,193.2 97.0,192.7 96.6,192.0 92.7,187.2 91.9,187.0 90.7,187.7 90.3,188.3 89.7,188.3 89.5,187.4 89.6,186.3 90.4,185.4 90.9,184.8 91.5,184.1 92.1,182.7 92.5,181.5 92.4,180.7 92.0,179.3 91.2,176.5 90.4,173.3 91.3,173.1 92.8,173.7 93.5,174.4 95.0,175.5 95.8,175.1 96.9,174.2 101.1,173.1 101.6,173.1 102.6,174.0 103.1,174.7 103.6,175.2 104.1,175.5 116.3,172.9 116.8,170.0 117.0,167.4 116.3,165.9 115.4,164.3 115.1,160.7 115.3,160.2 115.9,160.7 116.7,161.3 117.2,161.2 117.7,160.6 117.4,160.0 119.3,158.6 121.2,158.5 123.1,159.3 123.9,160.2 125.3,160.7 126.0,160.9 126.8,162.3 126.8,163.2 128.4,167.6 129.0,168.8 129.6,169.1 130.2,168.7 131.1,170.0 131.7,171.3 131.6,172.6 131.3,174.1 131.9,173.2 137.0,173.9 138.4,174.2 140.7,175.1 142.3,175.8 144.9,176.1 145.5,175.4 146.0,174.6 147.3,173.6 148.1,172.9 151.1,169.9 152.0,168.8 152.0,168.1 152.9,166.2 154.4,167.7 156.4,172.6 156.0,175.7 156.0,176.8 157.4,177.6 162.2,177.8 163.0,177.7 163.3,176.9 164.2,175.0 165.0,174.2 165.6,173.8 166.2,171.9 167.1,167.2 167.5,164.8 167.4,164.3 167.2,162.9 168.9,161.8 170.1,161.5 170.8,161.4 171.5,161.0 172.1,160.6 172.1,160.1 171.7,159.5 171.4,152.0 172.4,151.2 173.2,150.7 173.5,147.3 173.7,142.4 173.7,141.0 172.9,138.6 172.1,136.3 171.9,134.8 172.1,133.1 173.4,127.5 174.0,126.4 174.4,125.4 174.8,124.0 173.7,122.0 172.9,121.1 171.8,120.0 169.3,118.9 168.6,118.7 166.6,118.9 165.4,119.0 164.9,118.1 164.6,117.0 164.2,115.8 163.7,114.5 162.0,113.6 159.3,113.1 158.2,113.0 157.5,113.8 156.8,113.8 155.6,112.2 155.6,111.5 155.8,110.7 157.0,109.1 158.1,107.4 158.5,105.6 157.3,103.1 156.6,100.9 156.6,100.2 158.7,96.4 162.0,91.3 162.6,90.8 163.8,90.5 164.7,90.6 165.5,91.0 167.4,90.7 169.7,88.6 173.4,82.5 173.8,80.1 173.3,79.7 172.0,78.8 169.0,74.6 168.3,72.1 168.3,70.5 167.8,68.5 167.4,67.9 166.6,67.3 165.4,66.5 164.4,66.4 163.7,66.3 163.1,66.5 162.5,66.8 159.2,65.8 157.1,65.1 154.4,65.2 153.7,66.2 147.6,68.9 144.7,69.4 141.8,69.8 140.1,70.9 138.9,71.2 137.1,71.3 136.6,71.3 136.1,70.4 136.3,69.7 136.8,69.3 137.3,69.3 138.3,68.3 138.3,66.3 138.0,65.4 137.7,64.8 136.7,63.1 135.8,62.3 135.2,61.4 135.0,60.8 135.3,57.5 136.1,55.8 136.7,54.7 136.7,53.6 136.5,52.8 136.5,51.1 137.2,49.7 138.8,48.2 139.2,47.7 139.5,47.1 139.6,44.4 150.2,44.4 152.7,44.4 163.3,44.5 168.4,44.7 173.1,44.9 175.9,44.2 180.3,45.5 181.6,47.0 184.4,46.7 185.3,48.6 189.3,49.4 190.7,49.7 191.4,49.6 192.0,48.7 192.7,48.0 194.5,48.0 195.3,48.2 196.9,49.7 201.3,49.9 202.4,49.7 203.4,50.2 207.0,51.0 207.9,50.9 208.6,51.0 210.0,51.6 213.7,54.2 216.5,55.6 217.9,56.8 218.0,57.3 218.3,58.2 219.2,58.9 221.7,57.1 221.2,54.8 220.8,53.5 219.9,50.5 219.5,47.8 219.5,44.9 220.1,43.3 220.9,43.4 221.6,43.8 222.9,43.1 224.9,38.9 225.9,36.7 228.7,30.7 229.8,28.4 230.9,26.1 231.5,24.7 231.4,23.8 230.7,23.2 230.5,22.6 230.5,21.9 230.9,16.1 231.2,15.2 231.6,14.6 232.2,13.7 233.1,11.2 233.4,8.9 233.4,8.4 233.5,7.7 233.8,6.8 235.5,5.4 236.3,5.0 237.1,4.8 242.2,4.2 244.3,4.4 244.9,4.7 248.9,4.2 255.5,3.0 256.1,2.7 257.7,0.9 259.0,0.1 259.7,0.0 260.7,0.8 261.9,1.7 263.4,2.4 264.1,2.4 265.2,2.4 267.6,2.5 269.3,2.6 269.7,3.4 270.2,5.0 271.8,4.6 275.6,4.2 276.3,4.2 277.3,4.3 278.5,4.6 279.0,5.2 279.1,6.2 279.8,6.6 280.7,6.4 281.2,5.9 281.6,5.1 281.8,4.5 282.0,3.9 287.3,2.8 287.9,2.1 288.4,2.2 289.5,3.1 290.6,5.0 291.0,6.0 291.5,6.6 292.3,6.7 292.5,7.3 292.8,11.1 292.8,14.4 292.1,16.3 291.5,17.0 291.0,17.5 290.4,17.8 289.9,18.2 287.8,22.8 286.2,26.8 285.3,29.0 284.2,31.5 283.6,32.4 282.8,33.0 282.0,33.4 281.4,33.8 280.9,34.5 280.9,35.2 280.9,35.9 280.8,37.1 280.4,37.8 279.2,39.5 278.2,40.3 277.5,41.0 277.0,42.5 276.5,47.1 276.4,48.0 276.2,52.6 276.5,56.0 276.6,56.8 276.6,58.5 276.6,61.4 276.4,62.4 273.8,70.6 273.1,72.5 272.7,73.5 272.3,74.3 271.5,75.4 271.1,76.2 270.9,76.7 270.8,77.8 270.8,78.5 271.0,79.6 271.1,80.3 271.5,81.4 271.7,82.6 271.7,83.3 271.7,84.7 271.5,85.4 271.3,86.4 271.2,86.9 271.4,89.1 271.8,89.9 272.3,90.6 273.4,92.6 273.5,93.3 273.3,94.9 273.2,95.5 272.9,96.4 272.4,97.0 271.9,97.7 270.7,98.9 269.9,99.9 268.8,102.0 268.6,102.6 268.5,103.1 267.8,105.8 267.0,108.1 266.5,109.6 266.3,110.1 266.1,111.3 266.0,111.9 266.1,112.4 266.2,113.5 266.8,115.4 267.0,116.2 267.1,117.1 267.0,118.1 266.8,119.2 266.4,120.9 266.2,121.7 265.7,122.8 265.4,123.4 263.5,126.1 261.7,128.2 261.3,128.8 257.3,133.1 255.1,135.0 254.5,135.4 253.7,135.9 252.9,136.1 251.8,136.2 250.8,136.4 250.0,136.5 249.2,136.9 244.8,139.3 244.2,139.9 242.4,141.6 241.8,142.2 240.2,144.0 238.6,146.7 238.3,147.3 237.7,148.4 237.5,148.9 236.5,151.3 236.3,151.9 236.0,153.1 235.1,154.6 234.4,155.7 232.7,158.7 232.4,159.4 232.0,160.0 230.5,161.6 228.8,163.2 227.6,164.2 226.8,165.0 225.0,166.1 224.3,166.6 223.0,168.1 222.6,168.9 222.5,169.7 222.4,170.6 222.4,172.3 222.4,173.8 222.5,174.6 222.5,175.1 223.3,178.5 223.3,183.5 223.1,184.3 222.9,185.1 222.4,188.5 222.3,189.7 222.4,190.3 222.7,192.2 222.7,194.9 222.5,196.0 222.6,199.3 222.8,199.9 223.5,200.4 223.6,201.0 223.6,201.6 223.4,202.2 222.5,204.0 220.9,207.0 220.1,208.2 219.7,208.8 218.9,209.4 216.5,214.1 215.0,217.5 214.0,219.2 213.2,219.7 212.5,220.0 210.8,220.4 210.2,220.4 208.3,220.7 205.2,221.7 204.6,221.9 204.0,222.3 203.4,222.9 203.3,223.6 202.5,224.7 202.3,225.2 202.4,225.7 202.5,226.6 202.3,227.4 201.7,228.3 201.3,228.8 200.4,229.3 199.8,229.2 198.5,228.9 198.0,228.8 196.7,229.2 195.0,230.2 194.1,230.9 192.8,232.9 192.5,233.5 191.2,235.1 190.6,235.7 189.1,236.6 186.6,239.2 185.9,240.0 185.4,240.9 184.9,241.9 183.9,243.9 183.4,244.6 180.2,246.3 179.2,246.7 178.4,246.9 177.0,246.3 176.4,245.9 175.8,245.3 174.1,244.9 171.9,246.2 171.7,245.6 171.6,244.5 171.9,242.5 170.8,238.7 170.3,237.1 170.4,236.5 171.0,235.9 171.8,235.5 172.6,234.8 173.5,233.9 173.8,233.2 171.6,229.1 170.5,228.9 168.5,229.6 160.3,233.4 160.0,233.9 159.0,234.9 158.4,235.0 157.2,234.8 155.7,233.5 155.0,233.0 154.3,232.8 153.6,233.0 152.4,233.5 152.0,234.2 152.4,235.3 152.4,236.2 152.4,236.9 151.3,241.5 148.7,243.1 148.1,243.2 147.2,242.5 146.6,242.3 145.6,242.8 145.9,243.3 143.1,246.1 136.8,240.4 136.5,239.9 136.3,238.9 135.4,237.7 134.8,237.3 134.1,237.2 133.7,238.4 133.8,238.9 132.9,238.6 132.3,238.1 131.6,237.4 128.9,234.6 128.5,234.0 128.4,233.1 127.7,232.3 124.9,232.0 " />
  </g>
</svg>