<?xml version="1.0" encoding="UTF-8" standalone="yes"?>
<!DOCTYPE svg PUBLIC "-//W3C//DTD SVG 1.0//EN" "http://www.w3.org/TR/2001/REC-SVG-20010904/DTD/svg10.dtd">
<svg height="250" width="370" xmlns="http://www.w3.org/2000/svg" xmlns:svg="http://www.w3.org/2000/svg" xmlns:xlink="http://www.w3.org/1999/xlink">


<g id="background">
<rect id="" width="370" height="250" fill="#222222"/>
</g>
  <g id="180" style="stroke-miterlimit: 3; fill: #F1F1F1; stroke: #000000; stroke-opacity: 1; stroke-width: 0.05; stroke-linejoin: bevel; stroke-linecap: square">
    <polygon id="Democratic Republic of Congo" points="240.5,2.5 242.3,2.5 242.8,2.4 243.4,2.0 244.6,2.0 247.2,3.3 247.8,3.8 248.2,4.4 248.8,4.5 250.2,4.2 251.0,3.9 251.8,3.8 252.5,4.3 253.4,4.7 253.7,4.1 254.4,3.2 255.3,2.7 256.1,2.4 257.0,2.5 259.4,3.4 260.4,3.9 261.2,4.8 262.2,5.8 263.8,6.4 265.4,7.9 265.7,8.8 265.4,9.5 265.7,10.4 266.6,10.9 267.5,11.0 268.8,11.7 269.6,12.6 271.0,13.6 273.3,14.5 274.8,14.0 275.2,13.4 276.2,13.0 276.8,12.8 277.4,12.3 277.6,11.6 278.8,10.9 279.2,11.4 279.4,11.9 280.3,12.0 281.3,11.9 281.9,11.7 283.5,12.9 284.4,13.7 285.0,13.7 286.0,13.2 287.5,11.4 287.9,10.5 287.9,10.0 288.1,9.3 289.9,9.6 291.0,10.1 292.4,10.8 292.4,11.7 292.3,12.5 292.3,13.2 292.8,13.7 294.5,14.5 294.9,15.2 295.8,16.5 296.4,16.7 296.9,16.9 297.2,17.8 297.7,18.7 298.3,18.9 299.5,19.1 300.8,19.8 301.4,20.1 301.9,20.0 302.7,22.2 302.7,22.8 302.4,23.4 303.0,23.6 304.6,23.2 305.4,22.8 306.3,24.6 306.9,24.7 307.4,26.0 306.7,27.3 306.0,28.4 305.4,29.9 305.1,30.7 305.2,31.2 305.8,31.5 306.3,32.0 306.7,33.0 306.7,33.6 306.4,34.4 305.9,35.1 305.5,35.9 305.1,36.9 304.7,38.5 306.6,40.4 307.1,40.4 307.4,39.7 307.9,39.4 309.2,40.6 311.0,41.8 312.3,42.7 312.3,43.3 311.1,45.0 308.8,48.0 306.3,49.9 304.3,51.5 302.3,53.9 301.5,54.9 301.0,55.4 299.9,55.5 298.7,55.9 298.1,56.4 297.9,57.2 297.9,58.2 297.2,59.3 296.6,59.5 295.5,59.8 294.9,60.1 294.4,60.6 294.2,63.0 294.3,63.9 294.5,64.9 293.9,65.7 293.1,66.5 292.9,67.7 292.6,69.2 292.1,69.1 291.5,70.0 291.2,70.7 291.5,71.3 291.2,72.4 290.9,74.1 290.6,75.5 290.4,77.2 290.6,79.1 290.2,79.9 289.9,81.1 290.1,81.7 290.1,83.2 289.5,83.3 289.3,87.0 289.7,87.5 289.8,88.8 289.7,89.8 288.9,90.2 288.3,90.6 287.8,91.4 286.6,91.4 285.3,93.0 283.7,95.4 283.5,96.0 283.4,96.7 283.4,97.3 283.7,98.1 283.9,98.8 284.0,99.6 283.7,100.5 283.4,101.1 283.0,101.6 281.5,102.4 280.5,102.8 280.0,103.3 279.8,104.9 280.4,106.7 281.1,107.2 281.6,107.2 282.1,107.7 281.5,108.3 281.7,108.8 283.7,111.2 284.3,111.5 284.8,111.8 284.9,112.8 284.6,113.3 284.5,114.4 284.7,115.0 284.6,115.6 284.7,116.4 284.9,117.3 285.0,119.1 284.9,120.3 284.8,121.1 284.7,121.7 284.8,123.0 284.9,123.5 285.6,124.3 286.2,124.9 286.8,126.3 286.9,126.8 287.0,127.5 287.0,128.4 287.2,129.4 287.4,130.4 287.5,131.1 287.5,131.7 287.2,132.5 286.7,133.7 286.5,134.3 286.3,135.1 286.3,135.8 286.3,136.7 286.6,137.7 286.8,138.3 287.1,139.1 287.4,139.7 287.8,140.2 288.1,140.9 288.2,141.7 288.6,142.9 288.7,143.4 289.0,144.0 289.3,144.7 289.7,145.4 290.1,146.9 290.1,147.6 289.9,148.4 289.3,149.1 288.8,149.6 288.4,150.3 288.3,151.0 288.4,151.8 288.9,154.4 289.0,154.9 289.3,155.5 289.9,156.3 291.1,158.8 291.5,159.4 293.4,160.9 294.0,161.2 294.8,161.6 295.5,161.9 296.9,163.2 297.5,163.8 298.0,164.5 299.1,166.1 299.5,166.8 300.0,168.0 300.4,169.0 300.6,169.7 300.7,170.3 300.8,171.2 301.0,171.7 301.2,172.4 301.8,173.3 302.7,174.6 303.2,175.4 303.6,175.9 303.9,176.4 304.3,177.2 305.1,179.5 305.2,180.1 301.7,180.6 300.8,180.8 298.4,181.2 296.1,181.5 294.0,181.8 289.6,182.5 287.0,182.9 284.9,183.2 281.6,183.7 280.7,183.9 280.8,184.5 281.1,185.4 281.2,186.0 281.1,186.7 280.8,187.4 280.0,188.5 279.2,189.6 278.1,190.7 276.7,192.1 275.3,193.1 274.7,193.4 274.1,193.7 273.6,194.0 273.4,194.6 274.1,195.1 274.9,195.3 275.4,195.7 275.6,197.1 277.4,200.8 277.7,201.3 277.2,202.2 276.8,203.1 276.7,203.9 276.7,206.1 276.4,207.4 276.9,210.9 277.3,211.5 277.7,212.7 277.3,213.5 276.7,213.6 276.1,214.6 275.8,215.1 275.5,216.8 274.9,219.5 274.7,220.3 273.9,222.3 273.4,223.0 273.2,223.7 273.2,224.2 273.4,224.8 273.9,225.6 274.1,226.2 274.4,226.9 274.4,227.6 275.1,228.9 276.9,230.1 277.5,230.4 279.6,231.9 280.6,233.0 281.8,234.7 282.1,235.3 283.1,235.8 283.7,235.7 285.2,235.5 287.1,236.4 288.0,236.7 288.5,236.6 288.8,236.1 288.2,235.9 287.7,235.2 288.0,234.0 289.3,233.2 292.0,232.7 292.4,233.6 292.4,236.9 292.4,237.8 292.4,241.0 292.4,246.2 292.4,249.5 291.4,250.0 290.5,249.7 290.0,249.2 290.3,248.2 290.8,247.8 290.7,247.3 289.7,246.9 289.0,247.0 288.2,247.8 285.8,248.9 284.5,249.7 283.0,249.1 282.3,249.2 281.4,248.7 281.2,248.2 281.1,247.6 280.7,246.0 279.4,244.3 278.4,242.8 277.5,241.9 276.9,241.8 276.5,242.4 275.9,242.3 275.1,240.8 275.0,240.3 275.6,239.6 274.5,237.7 273.1,236.5 271.5,236.3 270.6,236.4 269.1,235.5 268.1,234.9 267.3,234.3 266.7,234.1 266.1,234.4 265.6,234.6 264.3,234.7 263.7,234.2 263.2,233.7 262.4,233.1 261.8,231.5 261.7,230.9 261.6,230.3 261.2,229.8 260.7,229.4 260.2,229.1 258.7,228.2 258.3,227.6 258.2,227.0 258.2,226.3 258.1,225.4 255.7,225.3 255.2,227.4 255.1,228.3 255.0,229.0 254.6,229.6 253.9,230.1 253.4,230.3 251.9,230.4 250.9,230.5 249.9,230.3 248.3,229.7 247.8,229.5 244.6,229.4 242.9,229.4 242.0,229.4 239.8,228.0 237.8,227.6 235.3,226.8 233.6,226.0 233.0,224.7 232.9,224.2 232.5,222.4 232.9,221.7 233.2,221.1 233.3,220.2 232.7,220.0 232.2,220.3 231.2,220.7 230.4,220.9 229.5,220.8 228.4,220.9 225.3,221.6 224.6,221.9 223.5,222.7 223.2,223.2 222.4,223.5 221.4,223.5 220.4,222.8 220.2,222.1 220.8,221.2 220.9,220.4 220.7,218.9 219.8,218.1 217.9,217.8 217.3,217.1 217.2,216.3 216.6,216.0 216.1,215.8 215.4,215.6 214.8,216.4 213.9,217.6 211.0,217.5 210.2,217.3 209.3,216.9 208.7,216.8 208.2,216.8 207.4,217.0 206.0,217.7 205.4,218.1 203.3,218.7 202.3,218.7 201.5,218.6 201.0,218.4 200.3,218.0 199.6,218.4 198.4,218.6 197.7,218.5 197.2,218.2 196.5,217.8 195.9,217.9 195.5,218.4 195.4,218.9 192.8,220.5 192.2,220.2 192.1,218.4 191.7,217.6 191.4,216.9 191.1,215.7 191.3,215.1 192.2,214.6 193.0,213.8 192.9,213.1 192.9,212.2 192.5,210.9 192.9,209.7 193.0,209.2 192.4,207.8 191.9,206.9 191.6,206.2 191.5,205.2 191.2,203.6 190.9,203.0 189.7,202.6 189.2,202.1 187.2,199.7 186.9,199.1 186.1,196.4 186.3,195.4 186.5,194.9 186.7,192.9 186.7,191.8 186.9,190.0 187.2,188.2 187.4,187.3 187.9,185.3 188.0,184.8 188.1,184.2 188.0,183.2 187.6,182.7 187.6,182.0 187.3,181.4 187.0,180.3 186.7,179.3 186.3,178.3 185.7,177.8 185.5,176.8 185.7,175.4 185.8,174.6 186.4,173.0 186.9,172.2 187.0,170.7 186.7,169.2 186.4,168.5 185.8,168.0 183.6,168.0 178.3,168.1 169.6,168.1 169.3,167.6 169.4,166.7 169.5,166.0 170.1,164.7 170.4,164.0 170.7,163.2 166.7,163.2 166.5,163.7 166.4,164.2 161.8,164.2 156.2,164.3 155.7,166.2 155.5,168.0 155.6,168.5 155.7,169.1 156.0,169.9 156.1,170.6 155.4,171.7 154.5,171.9 154.0,172.1 154.4,173.3 154.2,174.4 153.9,174.9 153.7,176.1 153.8,176.7 154.0,177.4 149.1,177.6 146.3,177.6 146.0,176.9 142.8,176.6 142.7,177.3 141.1,177.7 140.1,177.5 138.4,177.5 137.3,178.0 137.2,178.7 136.3,179.0 135.8,179.0 135.2,178.4 134.4,178.1 132.5,178.5 131.3,178.8 129.9,178.7 129.2,177.6 128.3,175.9 127.7,175.5 126.6,174.3 126.3,173.3 125.0,171.1 124.5,170.3 123.9,169.9 123.8,169.3 123.4,168.8 122.5,168.3 121.8,167.1 121.6,165.8 121.9,165.2 122.1,164.7 121.6,162.9 121.1,162.5 120.3,161.5 119.6,160.1 118.6,157.2 118.4,156.4 118.4,155.8 118.9,153.7 118.5,152.9 117.3,151.4 117.3,150.8 117.2,150.0 116.1,149.4 114.1,149.1 113.5,149.1 112.1,149.1 111.1,149.1 110.6,149.2 108.3,149.2 106.8,149.3 105.2,149.1 97.0,149.2 94.0,149.3 92.8,149.4 92.1,149.4 90.6,149.8 87.2,149.6 85.9,149.5 83.8,149.3 82.7,149.0 81.9,148.9 79.5,149.2 76.8,149.3 76.2,149.1 75.6,149.0 74.8,149.1 72.7,149.2 71.8,149.1 71.0,149.3 69.5,149.0 68.2,148.5 66.3,149.1 65.8,149.8 65.7,150.3 65.0,150.7 63.1,151.1 61.9,151.3 59.7,149.2 59.3,148.7 59.0,148.0 59.7,147.6 61.0,147.5 62.6,147.4 63.1,147.4 63.3,141.4 63.2,139.3 63.7,138.1 64.2,137.7 65.5,136.7 65.6,136.1 67.0,134.3 67.6,134.0 69.9,133.4 70.5,133.4 70.6,132.8 70.6,132.2 71.3,132.2 71.7,132.8 72.0,133.5 74.9,136.2 76.3,135.1 76.5,134.5 77.1,134.8 78.7,134.2 79.2,132.0 79.3,131.3 79.1,130.7 79.8,130.1 80.4,130.1 81.4,131.0 82.0,131.1 82.8,130.6 86.7,128.6 87.6,128.3 88.1,128.3 89.2,130.2 88.6,131.0 88.0,131.4 87.5,132.0 87.8,132.8 88.3,134.5 88.2,135.5 88.2,136.0 89.1,135.7 90.1,135.9 90.6,136.3 91.2,136.5 92.0,136.4 93.6,135.5 94.3,134.3 94.5,133.8 94.9,133.2 96.1,132.0 96.9,131.4 97.7,130.6 98.6,129.2 99.6,128.6 100.3,128.2 101.1,128.3 101.7,128.3 102.2,127.7 102.5,127.2 102.4,126.5 102.8,125.8 103.2,125.2 103.7,124.9 105.1,124.4 106.0,124.3 107.0,124.1 107.6,123.8 108.2,123.0 109.0,121.4 109.9,119.3 110.4,118.9 110.9,118.2 111.7,116.7 112.1,115.8 112.3,115.3 111.9,114.8 111.7,113.0 111.8,111.2 111.7,110.5 111.6,109.7 111.9,107.9 112.0,107.3 112.1,105.0 111.7,103.3 111.7,102.7 111.7,102.0 111.7,101.2 111.8,100.4 112.4,99.5 113.7,98.6 114.6,97.8 115.3,97.2 116.0,96.5 116.5,95.7 117.2,94.3 117.6,93.8 117.9,93.2 118.1,92.6 118.7,91.2 119.0,90.4 119.8,89.1 120.7,88.1 121.8,87.0 124.1,85.6 124.6,85.4 125.3,85.3 126.0,85.2 126.6,84.9 127.7,84.0 129.7,81.8 130.7,80.7 131.5,79.5 131.9,78.7 132.1,78.2 132.3,77.4 132.4,76.4 132.3,75.8 132.0,75.0 131.9,74.4 131.9,73.7 132.0,73.2 132.4,72.3 132.7,71.2 133.1,69.9 133.2,69.4 133.6,68.6 134.1,68.0 134.6,67.4 135.1,66.8 135.3,66.1 135.4,65.4 134.8,64.1 134.4,63.4 134.3,62.4 134.4,61.7 134.5,60.9 134.5,60.4 134.4,59.9 134.3,59.4 134.1,58.5 134.1,57.8 134.4,57.1 134.8,56.6 135.1,55.9 135.5,54.9 136.7,51.2 136.8,50.6 136.8,49.3 136.8,48.5 136.6,46.5 136.7,44.4 137.0,42.0 137.2,41.1 137.9,40.6 138.5,39.8 138.8,38.8 138.8,38.3 139.3,37.6 139.8,37.3 140.3,36.7 140.9,35.6 141.3,34.6 142.0,32.7 143.0,30.6 143.5,30.2 144.0,29.7 144.3,28.9 144.3,27.5 144.2,25.6 144.0,24.3 143.7,22.8 143.6,22.1 143.7,21.4 143.9,20.1 144.3,18.8 144.4,18.0 144.1,16.5 143.7,15.3 143.2,14.8 142.9,14.2 143.2,13.6 143.7,13.4 144.3,13.6 145.1,13.5 145.7,13.2 146.3,12.2 146.6,11.2 147.0,10.6 148.5,8.9 149.0,8.4 149.4,7.5 149.9,6.6 150.5,6.0 151.4,5.9 152.0,5.1 154.4,3.4 156.3,3.1 157.6,3.2 158.2,3.2 159.1,3.5 159.7,3.7 160.3,4.0 160.7,4.8 161.3,5.2 161.9,5.3 164.7,6.8 166.8,8.1 168.4,10.0 168.3,11.4 169.9,12.8 170.5,12.9 171.8,12.7 173.4,12.4 173.9,12.4 175.1,12.6 176.0,12.9 176.5,13.1 177.0,13.7 177.7,14.3 178.4,14.5 182.4,15.1 182.9,15.1 183.4,14.8 184.1,14.4 185.3,14.4 186.6,14.8 188.7,15.1 189.3,15.3 190.1,15.4 190.8,15.9 191.4,16.3 192.1,16.5 192.8,16.6 193.5,16.6 194.0,16.6 194.6,16.5 195.5,16.0 196.0,15.5 196.4,13.9 196.6,12.9 196.7,12.4 197.3,11.9 197.9,12.0 198.5,10.8 198.9,9.7 199.1,9.0 200.7,7.5 201.6,7.3 202.1,7.8 202.3,8.3 203.2,8.9 204.9,9.3 206.4,10.3 207.2,10.5 207.7,10.5 207.8,9.9 209.8,8.6 213.0,7.5 213.9,7.4 216.2,6.4 217.9,5.8 218.6,5.6 220.2,5.0 220.7,4.7 220.2,4.4 220.5,3.6 221.4,3.6 222.4,4.0 223.4,4.7 223.9,5.4 225.1,6.2 225.7,6.2 226.3,5.9 227.9,5.3 228.4,5.2 229.9,5.4 231.1,5.1 231.7,5.0 232.5,4.7 233.2,3.6 233.3,3.1 232.8,2.5 233.2,1.6 233.5,0.9 235.8,0.0 236.4,0.1 237.1,1.0 238.2,1.3 239.5,1.9 240.5,2.5 " />
    <polygon id="Democratic Republic of Congo" points="68.8,149.4 68.0,149.5 67.3,149.6 66.4,150.3 66.1,149.8 67.3,149.1 69.0,149.1 " />
  </g>
</svg>