<?xml version="1.0" encoding="UTF-8" standalone="yes"?>
<!DOCTYPE svg PUBLIC "-//W3C//DTD SVG 1.0//EN" "http://www.w3.org/TR/2001/REC-SVG-20010904/DTD/svg10.dtd">
<svg height="250" width="370" xmlns="http://www.w3.org/2000/svg" xmlns:svg="http://www.w3.org/2000/svg" xmlns:xlink="http://www.w3.org/1999/xlink">


<g id="background">
<rect id="" width="370" height="250" fill="#222222"/>
</g>
  <g id="191" style="stroke-miterlimit: 3; fill: #F1F1F1; stroke: #000000; stroke-opacity: 1; stroke-width: 0.05; stroke-linejoin: bevel; stroke-linecap: square">
    <polygon id="Croatia" points="191.8,4.7 192.5,4.8 193.4,4.7 193.9,4.6 195.2,4.7 197.1,5.2 205.6,9.7 208.0,11.0 209.5,11.9 210.0,12.4 210.3,13.0 210.3,14.7 211.0,16.1 212.8,17.7 213.9,18.3 216.0,19.3 220.0,20.4 226.7,22.4 228.5,23.9 231.5,27.5 232.1,28.3 233.0,30.1 233.2,32.0 236.4,34.9 238.8,36.2 241.1,37.1 242.9,37.3 243.7,37.2 243.5,36.2 245.3,36.1 252.4,37.0 253.0,37.2 255.4,39.1 256.3,39.8 256.8,40.8 257.0,42.2 257.3,43.0 258.0,43.3 270.8,46.4 278.4,46.2 287.3,46.2 289.4,46.4 290.2,46.4 291.3,46.6 292.0,46.8 292.7,47.4 293.8,47.7 297.9,48.2 302.6,48.6 303.6,48.5 304.8,48.3 311.3,45.5 314.0,43.9 315.1,42.7 315.6,42.0 321.2,38.6 325.1,39.7 326.8,39.2 327.4,38.6 328.2,40.8 331.3,43.7 332.6,44.2 333.8,44.7 335.7,46.4 336.6,53.2 336.5,53.7 336.0,54.3 334.7,55.7 333.1,56.1 332.8,56.7 332.4,58.9 332.7,59.5 333.9,60.7 334.9,61.2 335.7,61.3 336.3,61.2 336.8,61.1 338.2,60.1 339.3,59.7 339.9,59.9 344.2,62.2 344.6,63.0 344.4,63.6 343.7,64.2 342.9,64.4 341.9,64.4 341.0,64.2 340.3,63.8 339.7,63.6 339.0,63.7 338.4,64.1 337.1,70.2 337.2,70.9 337.7,71.4 345.2,75.8 346.8,76.4 349.9,77.4 354.1,78.8 355.6,79.1 357.8,79.4 359.2,79.6 360.0,79.6 361.9,79.5 362.6,79.5 363.7,79.6 364.0,80.1 364.1,81.1 364.0,82.3 363.9,82.9 363.2,83.2 359.7,83.3 354.2,82.9 353.6,82.7 352.6,81.7 351.6,81.2 350.9,81.0 349.7,80.7 348.7,80.7 344.7,87.9 345.4,91.8 341.5,98.1 340.6,97.8 339.2,98.8 338.8,99.3 339.0,100.1 340.1,101.0 340.8,102.1 340.2,102.2 336.5,102.6 335.8,102.6 330.0,102.3 329.4,102.2 328.8,102.0 326.0,100.1 324.4,98.8 324.0,97.5 324.7,97.1 325.7,97.5 326.4,96.8 326.1,94.4 316.3,88.7 303.3,87.2 294.3,85.5 293.2,85.4 292.1,85.6 291.1,85.9 290.7,86.8 291.1,87.6 290.9,88.4 289.9,88.8 288.8,89.1 288.1,89.0 285.9,88.8 285.3,88.7 284.7,88.6 282.3,87.5 274.0,88.9 272.7,89.7 270.4,90.7 269.8,90.8 269.1,90.8 267.9,90.4 263.4,88.5 259.3,86.3 253.6,87.2 249.0,87.1 247.5,87.1 246.8,87.1 246.7,85.8 234.7,83.1 232.5,84.5 231.5,84.9 229.0,84.8 228.3,84.8 221.9,82.4 220.6,81.6 220.0,80.9 219.8,80.0 212.4,77.7 208.3,81.6 207.9,82.3 207.0,82.4 206.3,82.4 198.5,81.4 197.2,81.1 195.2,80.4 193.6,79.9 192.8,79.9 189.9,80.0 189.3,80.1 187.9,80.8 186.0,82.5 182.4,86.3 179.3,91.2 178.9,92.8 178.4,93.5 177.9,93.7 174.8,93.8 173.2,93.3 172.2,92.9 170.5,92.1 169.9,91.7 169.1,91.1 164.2,86.4 163.8,85.9 159.4,81.3 158.6,80.8 153.4,80.0 152.7,80.0 150.1,80.3 147.2,81.0 146.5,81.4 145.8,82.0 145.3,82.4 144.8,82.9 144.0,84.0 143.1,88.8 143.0,89.3 143.0,90.4 143.3,98.4 141.7,104.0 141.3,104.8 141.6,105.6 142.7,106.8 148.4,111.0 149.0,111.2 149.7,111.3 152.9,111.1 153.6,111.2 154.6,111.9 157.9,116.9 159.2,119.5 161.7,122.1 164.0,123.3 164.8,124.0 165.3,124.8 169.2,132.8 168.8,135.2 165.9,141.8 166.3,142.4 166.9,142.5 167.6,142.6 169.2,142.4 170.2,142.2 171.6,142.2 172.3,142.3 173.2,142.7 174.1,143.5 175.5,144.7 175.9,145.2 176.4,146.0 176.7,146.8 177.1,147.9 177.7,148.5 178.6,149.2 182.3,151.5 183.0,151.9 183.7,152.2 185.2,152.5 187.7,152.8 188.4,152.8 189.2,153.1 196.0,159.2 196.5,159.7 199.3,162.9 199.9,163.8 200.2,164.6 207.3,170.7 213.8,177.0 214.9,178.1 216.2,179.2 220.4,181.9 221.2,182.4 221.9,182.8 223.6,183.5 224.6,183.9 227.3,184.5 231.1,185.7 232.6,186.3 233.4,186.8 234.0,187.5 233.9,188.2 233.4,188.7 233.1,189.5 234.4,194.5 234.9,196.0 235.1,196.6 235.6,197.6 236.3,198.2 243.9,203.7 251.4,207.4 252.1,207.8 253.2,208.4 255.7,209.9 256.5,210.7 256.9,211.2 257.4,212.2 257.8,212.8 258.1,213.6 258.7,215.0 259.2,216.1 258.5,216.8 258.0,216.9 252.6,218.0 249.8,217.7 249.0,217.5 247.1,216.1 246.2,215.3 246.0,213.5 245.1,212.5 237.6,207.6 232.8,205.2 231.1,204.8 228.7,204.2 228.2,204.0 225.5,202.5 222.0,200.4 221.4,199.6 220.6,198.3 220.1,197.9 214.0,192.5 210.6,190.2 209.2,190.1 207.8,190.1 206.4,190.0 203.4,189.7 201.7,189.4 195.9,188.0 194.6,187.4 187.4,184.2 185.3,182.6 185.3,182.0 183.4,181.6 178.9,181.3 178.3,181.3 176.0,181.8 168.7,183.7 167.5,184.6 164.2,185.8 163.6,185.8 162.9,185.8 159.6,185.5 156.5,184.1 152.8,180.9 152.2,180.2 152.1,176.9 152.5,176.4 153.1,176.6 154.7,176.6 155.3,176.5 153.6,173.3 144.4,169.0 143.9,168.9 138.4,167.5 133.0,163.5 129.1,161.3 128.9,160.6 128.2,160.3 126.8,159.6 126.1,159.2 124.8,159.0 124.1,158.7 121.3,156.3 113.8,149.7 110.8,147.0 106.0,142.3 106.4,140.8 103.7,138.4 104.1,137.4 105.2,137.0 105.7,137.2 107.4,139.3 109.1,138.8 109.3,138.2 108.2,136.9 109.4,137.0 110.8,137.1 114.0,139.3 114.5,138.8 113.7,135.7 112.6,134.6 114.2,134.6 117.5,136.8 120.1,137.8 121.8,138.5 127.4,138.8 128.4,138.8 128.8,138.3 128.3,137.6 127.2,137.5 125.9,137.6 124.1,137.1 113.5,132.1 112.8,131.6 107.8,127.7 105.3,125.6 102.6,122.9 98.3,120.1 97.3,120.1 96.2,119.2 95.4,118.2 94.8,117.5 92.4,114.6 90.5,112.4 90.1,111.1 89.5,105.5 89.5,104.8 89.5,103.5 89.5,102.7 90.3,100.6 91.2,99.3 91.9,96.8 92.0,95.8 87.3,87.0 86.2,86.7 84.8,86.3 82.2,85.7 81.6,85.5 80.6,85.0 79.8,84.5 77.2,82.8 71.8,78.5 65.6,75.0 63.9,74.5 63.1,74.2 56.3,72.4 55.7,72.7 54.1,74.1 53.5,75.2 51.8,79.8 51.3,81.2 51.5,82.4 50.9,83.8 50.4,85.0 49.5,86.3 47.1,88.6 46.4,88.9 45.7,88.9 45.8,91.4 46.4,93.6 46.7,94.4 45.4,95.9 41.7,96.1 36.3,100.0 35.9,100.7 35.0,102.9 34.9,104.3 36.1,104.8 36.1,105.4 31.1,107.6 30.3,107.4 25.6,102.6 25.1,101.9 26.1,101.8 26.9,101.2 21.7,94.9 17.2,90.7 12.4,84.2 12.0,78.8 10.8,75.6 8.2,69.5 6.0,64.1 6.5,63.3 9.5,63.9 11.8,64.7 12.7,65.5 13.9,66.0 14.6,66.3 15.1,66.5 16.4,66.8 17.0,66.9 18.5,66.9 30.8,66.4 33.5,66.2 35.3,66.0 36.2,65.3 44.7,65.1 59.8,64.5 60.4,64.4 61.0,64.2 61.8,63.9 65.8,61.8 66.4,61.0 66.7,60.4 68.7,56.8 70.4,53.8 71.3,53.3 72.7,53.0 73.2,53.2 73.2,55.2 73.2,55.9 73.6,56.5 74.2,57.1 80.1,61.7 85.8,65.6 86.6,65.6 88.6,65.5 91.2,65.0 91.9,64.0 95.6,63.5 102.3,65.2 105.9,67.7 106.6,68.0 107.4,68.0 113.6,65.8 115.3,61.5 114.6,57.9 115.4,55.7 118.1,54.4 119.0,51.3 118.5,50.6 117.9,50.5 115.2,51.1 115.2,51.6 114.6,52.2 113.9,51.8 113.8,51.1 114.4,49.6 115.5,48.3 116.3,47.8 117.0,47.5 127.0,43.3 133.2,42.5 133.9,42.6 134.5,43.2 135.2,43.6 135.9,44.0 136.5,44.0 138.8,42.9 140.6,37.1 140.3,31.0 140.2,30.5 139.8,30.0 137.8,29.4 136.8,29.3 135.3,28.4 133.4,26.4 133.0,24.8 133.8,23.3 136.0,20.4 136.8,19.8 137.4,19.7 138.8,19.8 145.0,19.3 158.3,15.4 161.9,13.5 162.0,12.2 161.7,11.4 161.7,10.9 161.8,10.2 165.4,8.9 173.3,8.0 172.3,4.0 172.4,3.2 173.4,2.3 174.9,1.3 177.5,1.1 180.4,1.0 185.1,1.9 187.0,2.5 187.3,3.1 188.5,3.7 190.8,4.4 191.8,4.7 " />
    <polygon id="Croatia" points="82.1,97.3 80.7,97.4 80.0,97.4 78.6,96.9 75.3,95.8 70.4,92.6 65.8,91.7 64.4,90.9 63.0,89.7 62.3,89.0 62.3,88.3 64.4,86.2 68.0,85.0 69.0,79.3 69.6,78.9 70.1,78.8 71.6,79.1 72.2,79.4 76.1,86.3 78.9,89.6 84.3,93.2 85.1,94.0 85.5,94.5 85.6,95.2 85.0,95.6 82.4,97.2 " />
    <polygon id="Croatia" points="63.9,99.2 63.3,101.1 64.2,104.2 64.5,105.3 64.2,107.0 65.0,108.2 64.8,109.4 65.1,111.8 67.0,113.6 68.4,115.5 68.4,116.1 67.7,117.0 66.2,117.5 65.6,117.5 63.7,116.3 59.9,112.2 59.9,109.9 59.0,108.9 58.5,106.0 56.4,102.8 55.5,100.6 54.2,99.4 54.3,97.9 55.1,96.9 56.9,98.8 58.1,99.3 59.8,99.4 60.4,99.3 60.1,96.4 58.0,91.4 57.7,90.8 57.1,90.4 55.8,89.9 55.0,89.3 53.0,87.5 52.9,86.8 53.1,86.1 54.9,83.6 55.5,83.2 57.5,83.6 58.0,83.8 58.7,84.6 58.3,85.2 57.8,86.6 58.1,87.7 59.2,90.6 61.2,93.5 61.7,94.2 62.2,94.7 64.4,94.8 65.2,96.2 64.3,96.7 63.9,99.2 " />
    <polygon id="Croatia" points="82.2,105.6 83.5,106.3 86.3,108.1 88.5,110.6 88.7,111.5 87.6,111.7 87.0,111.6 81.2,108.1 78.7,108.0 76.2,106.2 78.0,106.1 78.7,105.4 80.3,106.0 79.3,104.6 78.4,104.1 77.9,103.6 80.1,102.6 81.4,103.0 82.3,103.5 82.2,105.6 " />
    <polygon id="Croatia" points="67.9,125.5 67.3,125.5 58.6,118.5 57.4,114.6 56.7,111.9 56.8,111.3 59.4,112.0 60.0,112.4 60.3,113.0 60.3,113.5 60.2,114.3 60.2,116.1 61.0,117.7 61.6,118.4 62.2,119.0 65.2,121.8 66.0,122.4 66.9,122.6 67.6,123.2 68.5,124.1 68.7,124.7 68.4,125.3 " />
    <polygon id="Croatia" points="87.1,117.3 89.1,117.5 91.3,117.5 92.5,118.0 94.4,119.2 95.0,120.4 96.1,121.4 97.3,122.0 99.2,122.4 99.7,122.9 101.2,125.1 100.6,125.2 99.1,124.2 97.9,124.0 97.5,123.1 96.4,122.5 95.0,122.2 93.6,121.2 91.7,120.9 91.6,121.4 93.0,121.7 96.4,124.7 100.3,128.4 102.7,129.5 101.2,128.1 99.8,127.3 99.4,125.4 99.9,125.4 102.0,126.5 103.9,127.6 111.3,133.0 111.9,133.7 111.8,134.4 110.1,135.7 107.4,134.9 107.3,136.3 105.3,135.8 104.4,135.3 103.4,134.6 102.8,133.7 102.3,132.0 103.6,131.7 103.0,130.6 101.6,130.2 100.7,130.6 99.0,130.4 98.2,128.7 95.4,126.6 91.2,125.1 90.7,124.3 91.9,123.7 81.4,113.4 80.9,112.6 80.7,112.0 81.4,112.2 84.1,114.2 87.1,117.3 " />
    <polygon id="Croatia" points="88.1,143.6 96.4,149.1 98.1,149.8 98.4,151.6 99.0,152.5 99.9,153.3 101.8,154.9 102.5,155.2 104.0,155.6 104.1,156.3 105.5,157.1 107.9,158.6 109.9,159.5 110.5,160.1 109.9,160.8 108.5,161.9 107.7,161.7 105.8,160.8 105.1,160.4 103.3,159.0 102.8,158.5 101.1,156.7 100.3,155.7 99.7,154.8 99.0,153.9 98.6,153.4 96.2,150.8 95.5,150.2 92.9,148.7 91.8,147.6 89.7,146.3 88.8,146.3 87.7,146.0 86.6,145.6 86.0,145.3 85.8,144.6 86.9,145.3 87.5,145.3 88.4,145.5 89.0,145.5 88.4,144.7 88.0,144.1 88.1,143.6 " />
    <polygon id="Croatia" points="111.9,153.2 107.6,151.1 104.7,149.1 101.0,146.1 100.6,144.9 106.2,147.6 107.3,148.1 111.5,151.0 112.3,152.8 " />
    <polygon id="Croatia" points="123.8,161.0 121.9,160.8 118.0,158.6 115.1,156.6 112.7,154.0 113.2,153.5 113.9,153.5 119.6,156.1 123.7,160.4 123.8,161.0 " />
    <polygon id="Croatia" points="117.7,165.7 119.6,167.7 116.6,166.8 112.2,164.0 111.5,163.5 110.5,162.2 110.6,161.6 111.2,161.7 112.0,162.6 112.9,163.3 114.5,164.1 116.4,164.7 117.4,165.4 " />
    <polygon id="Croatia" points="138.3,176.5 137.1,176.1 135.5,175.2 133.6,174.0 134.7,173.9 136.8,174.3 139.3,176.1 138.3,176.5 " />
    <polygon id="Croatia" points="180.8,194.5 180.0,194.7 176.2,193.7 169.8,191.4 169.2,190.2 169.7,189.5 171.7,189.6 172.4,189.6 174.1,189.9 176.9,190.8 180.8,194.0 " />
    <polygon id="Croatia" points="208.7,198.3 208.1,198.5 207.1,198.4 205.1,198.3 200.5,198.5 199.9,198.5 198.7,198.8 195.2,198.7 192.1,198.3 188.6,197.9 186.7,197.3 182.5,195.7 181.9,195.3 181.7,194.6 183.0,191.1 183.6,191.0 193.5,191.7 199.5,192.3 202.7,192.6 204.1,192.8 205.9,193.3 210.3,195.1 210.9,195.8 210.8,196.6 208.7,198.3 " />
    <polygon id="Croatia" points="191.2,200.6 192.1,201.7 193.2,201.4 194.3,201.6 196.3,201.5 197.1,201.8 197.2,202.5 198.9,203.5 199.5,204.5 200.7,204.8 206.2,204.8 215.3,205.5 224.6,206.3 227.1,206.2 229.1,206.9 227.5,207.3 224.3,207.5 221.1,207.8 210.3,207.3 202.4,206.6 197.4,207.4 196.7,207.3 189.5,205.9 185.3,204.9 183.2,204.3 180.1,203.2 180.2,202.6 184.8,201.9 186.0,201.8 188.5,202.0 191.1,203.6 192.4,203.4 190.6,201.7 188.9,201.2 190.1,201.0 191.2,200.6 " />
    <polygon id="Croatia" points="169.8,213.2 162.9,214.0 161.1,213.9 160.3,210.8 161.2,210.3 162.3,209.9 163.5,209.7 164.1,209.6 165.7,209.6 168.4,209.6 171.1,209.8 172.1,210.1 172.6,210.8 170.0,213.1 " />
    <polygon id="Croatia" points="235.7,214.1 243.3,217.0 244.1,217.3 244.7,217.7 249.2,219.4 257.6,222.1 257.1,221.4 259.0,219.5 259.8,219.0 260.8,219.0 262.6,219.4 265.8,220.4 268.4,222.4 268.7,223.0 270.6,225.2 275.6,227.9 276.9,228.6 277.9,229.0 287.7,233.0 291.4,235.8 292.0,236.2 294.0,237.5 294.7,237.8 295.4,237.8 296.3,237.7 296.8,237.5 298.3,237.0 298.9,237.0 299.9,237.1 302.0,237.8 302.9,238.3 305.5,240.8 305.4,243.5 305.4,244.0 305.5,244.7 305.8,245.5 306.2,246.1 307.0,246.9 308.1,247.7 309.4,248.7 309.7,249.2 309.8,250.9 309.0,250.9 308.5,250.4 299.6,245.0 291.0,240.0 281.5,234.9 270.6,228.6 262.9,226.7 262.0,226.9 251.0,224.2 244.1,222.2 239.7,219.7 230.8,215.8 229.9,215.6 229.4,215.6 228.8,216.1 228.1,216.1 226.4,216.0 221.9,215.4 218.4,214.2 217.9,211.7 218.6,211.6 233.9,213.8 235.7,214.1 " />
    <polygon id="Croatia" points="206.8,217.0 209.4,217.2 210.0,217.2 211.4,216.9 212.3,216.4 214.0,216.2 215.5,216.0 218.8,216.0 220.3,216.1 225.8,216.9 228.7,219.5 225.7,219.9 225.1,219.9 216.5,218.9 214.1,219.9 209.5,220.7 207.4,220.4 200.9,219.4 197.8,219.0 197.1,219.3 195.9,218.8 197.6,217.6 200.0,217.2 199.2,216.4 195.5,215.7 196.1,215.4 198.7,215.1 200.8,215.5 201.5,215.8 202.9,216.2 203.9,216.4 206.8,217.0 " />
    <polygon id="Croatia" points="262.6,233.2 261.6,232.8 259.9,232.3 259.3,232.2 255.9,231.6 254.5,231.4 250.7,231.0 240.1,229.2 239.3,229.0 237.8,228.3 237.0,227.4 239.5,226.5 240.4,226.5 241.7,226.8 257.6,230.5 261.7,232.1 262.3,232.5 262.7,233.0 " />
    <polygon id="Croatia" points="211.8,231.1 211.2,231.2 207.7,231.0 206.9,230.7 206.3,230.1 206.4,228.6 209.2,228.0 209.8,228.0 213.2,228.2 214.0,228.6 213.2,230.2 212.5,230.8 211.8,231.1 " />
  </g>
</svg>