<?xml version="1.0" encoding="UTF-8" standalone="yes"?>
<!DOCTYPE svg PUBLIC "-//W3C//DTD SVG 1.0//EN" "http://www.w3.org/TR/2001/REC-SVG-20010904/DTD/svg10.dtd">
<svg height="250" width="370" xmlns="http://www.w3.org/2000/svg" xmlns:svg="http://www.w3.org/2000/svg" xmlns:xlink="http://www.w3.org/1999/xlink">


<g id="background">
<rect id="" width="370" height="250" fill="#222222"/>
</g>
  <g id="196" style="stroke-miterlimit: 3; fill: #F1F1F1; stroke: #000000; stroke-opacity: 1; stroke-width: 0.05; stroke-linejoin: bevel; stroke-linecap: square">
    <polygon id="Cyprus" points="220.5,88.8 230.1,84.4 235.9,82.0 237.1,81.6 240.0,81.2 245.1,81.5 252.5,81.0 255.3,80.5 271.0,75.8 322.4,55.0 325.9,53.5 329.5,51.3 330.5,49.8 331.7,48.5 333.3,47.7 337.9,45.8 363.4,36.8 364.6,36.4 368.6,35.5 370.0,35.3 370.0,35.8 366.7,42.7 337.5,60.0 320.6,69.3 317.2,70.8 311.8,72.7 295.0,81.4 269.2,95.4 267.6,96.3 266.4,97.5 263.3,101.8 261.6,104.9 260.9,106.7 260.2,110.9 260.0,113.7 260.2,119.1 271.7,131.2 280.7,137.9 281.5,138.7 284.6,142.0 286.6,144.7 288.2,146.9 289.8,151.0 289.2,151.7 286.6,151.6 285.9,151.4 281.4,149.7 280.0,148.7 279.3,148.5 272.2,148.2 268.8,148.8 264.6,149.5 262.1,150.1 260.4,151.0 259.8,151.7 259.4,152.4 257.6,153.9 254.8,155.2 254.2,155.4 253.4,155.4 251.7,154.4 249.5,152.6 248.8,151.7 246.3,150.7 242.4,150.0 238.1,149.6 229.7,149.4 228.9,149.5 225.7,150.4 224.5,150.8 222.9,151.6 222.0,152.4 220.0,154.5 219.5,155.5 218.6,157.9 218.3,159.2 217.9,161.2 217.3,165.4 218.1,166.8 218.2,167.5 213.2,173.9 212.1,174.5 198.8,179.8 175.9,188.7 174.7,189.1 168.5,190.5 167.0,190.7 159.9,191.6 151.1,193.2 140.9,192.7 137.8,192.8 135.1,193.3 133.2,193.8 127.1,195.9 126.0,196.4 121.3,199.8 117.6,203.9 117.6,209.7 121.4,215.0 113.6,213.5 107.2,215.0 107.2,209.9 103.4,204.4 100.4,200.8 94.1,198.5 89.6,198.3 79.7,200.0 78.4,200.3 76.9,201.2 75.8,201.7 75.0,201.9 70.9,202.6 68.4,202.3 61.5,200.5 59.4,199.9 35.5,192.7 32.2,191.0 22.0,185.3 21.5,185.0 11.7,167.6 11.3,166.5 8.6,159.7 1.2,139.4 0.8,138.3 0.2,135.3 0.0,133.4 0.2,132.0 1.0,130.4 2.0,129.8 3.6,129.9 4.6,130.5 5.7,131.9 6.9,133.0 9.2,134.8 11.5,136.6 13.5,137.9 15.9,138.9 16.6,139.1 17.4,139.3 20.5,139.0 24.0,138.4 25.3,138.1 27.0,137.3 30.5,135.0 35.5,130.3 36.2,129.4 37.1,127.9 39.3,123.6 40.3,122.3 44.6,117.6 45.3,117.6 47.2,118.4 56.3,115.9 60.9,115.1 62.4,114.9 72.2,116.5 79.8,119.2 86.0,121.6 87.9,122.3 89.5,122.6 90.9,122.4 93.9,121.3 97.8,119.4 99.9,118.2 100.9,117.5 101.7,116.7 102.6,115.2 103.2,113.4 105.7,103.3 106.8,93.1 104.2,88.2 103.9,82.6 106.7,82.5 116.9,87.0 159.8,91.1 173.0,92.6 175.4,92.9 177.9,92.9 184.6,93.0 191.1,93.0 192.5,92.8 217.2,89.4 220.5,88.8 " />
  </g>
</svg>