<?xml version="1.0" encoding="UTF-8" standalone="yes"?>
<!DOCTYPE svg PUBLIC "-//W3C//DTD SVG 1.0//EN" "http://www.w3.org/TR/2001/REC-SVG-20010904/DTD/svg10.dtd">
<svg height="250" width="370" xmlns="http://www.w3.org/2000/svg" xmlns:svg="http://www.w3.org/2000/svg" xmlns:xlink="http://www.w3.org/1999/xlink">


<g id="background">
<rect id="" width="370" height="250" fill="#222222"/>
</g>
  <g id="20" style="stroke-miterlimit: 3; fill: #F1F1F1; stroke: #000000; stroke-opacity: 1; stroke-width: 0.05; stroke-linejoin: bevel; stroke-linecap: square">
    <polygon id="Andorra" points="370.0,101.6 362.8,100.4 356.0,100.4 341.4,101.5 330.3,108.1 322.3,117.5 312.0,142.6 311.2,147.7 310.0,157.7 310.3,163.7 305.5,170.3 246.2,202.8 239.3,206.5 123.5,237.9 114.9,239.0 93.3,238.7 34.2,233.3 27.7,223.9 2.9,180.2 0.0,126.3 13.4,95.0 25.1,68.7 61.3,22.2 72.4,15.7 138.6,12.8 145.5,13.7 284.4,43.9 325.7,53.9 370.0,101.6 " />
  </g>
</svg>