<?xml version="1.0" encoding="UTF-8" standalone="yes"?>
<!DOCTYPE svg PUBLIC "-//W3C//DTD SVG 1.0//EN" "http://www.w3.org/TR/2001/REC-SVG-20010904/DTD/svg10.dtd">
<svg height="250" width="370" xmlns="http://www.w3.org/2000/svg" xmlns:svg="http://www.w3.org/2000/svg" xmlns:xlink="http://www.w3.org/1999/xlink">


<g id="background">
<rect id="" width="370" height="250" fill="#222222"/>
</g>
  <g id="204" style="stroke-miterlimit: 3; fill: #F1F1F1; stroke: #000000; stroke-opacity: 1; stroke-width: 0.05; stroke-linejoin: bevel; stroke-linecap: square">
    <polygon id="Benin" points="192.1,246.1 190.9,246.4 188.9,246.5 187.5,246.5 186.9,246.5 185.9,246.6 183.7,246.8 174.8,247.9 172.0,248.4 169.5,248.7 164.5,249.4 160.3,250.2 157.9,250.9 157.5,250.2 158.4,249.7 159.4,249.4 160.4,249.3 162.1,248.9 164.3,248.5 164.2,247.4 163.3,243.2 162.4,241.4 160.1,237.6 159.2,236.5 158.6,236.8 157.1,235.9 155.3,232.3 155.9,231.0 156.6,227.6 156.7,224.2 156.6,223.6 155.4,223.1 154.9,221.7 154.2,219.6 158.0,219.6 158.2,205.9 158.1,202.8 158.1,201.5 158.3,198.7 158.6,197.9 158.4,197.4 158.0,194.3 158.0,193.6 157.9,188.7 157.9,179.0 157.7,164.4 157.0,164.1 157.3,161.7 157.3,155.2 157.4,149.5 157.4,144.6 157.1,137.4 157.0,136.4 156.6,134.6 156.4,134.1 155.1,131.7 154.4,131.1 153.8,130.8 152.7,129.9 152.0,129.2 150.3,127.1 149.5,126.3 149.0,125.6 148.5,124.5 148.2,123.1 148.2,122.4 148.2,121.1 147.9,119.1 147.8,118.5 146.8,119.0 145.7,116.5 146.9,114.3 147.0,112.7 146.6,101.4 146.4,98.2 144.5,97.0 139.6,93.9 139.0,93.6 134.7,90.9 132.0,89.1 123.0,82.7 123.3,76.8 123.8,76.0 124.1,75.0 124.2,73.4 124.1,72.2 124.0,70.4 124.0,69.6 124.1,68.9 127.2,65.6 127.7,62.9 127.6,61.1 128.7,57.7 130.0,56.3 131.4,54.3 135.4,52.6 138.1,48.4 139.8,46.8 142.7,47.6 146.2,45.3 145.9,44.6 145.4,44.0 145.3,43.3 147.7,40.1 148.7,39.4 149.4,39.2 151.6,38.9 153.9,39.0 155.0,39.2 155.6,40.4 155.7,41.1 156.7,41.8 161.9,40.7 164.6,39.7 166.9,39.5 167.7,39.6 168.6,40.1 171.9,40.6 172.7,40.6 173.3,40.3 174.6,39.1 180.4,33.1 182.9,31.6 185.0,29.7 186.3,26.4 188.4,21.6 188.8,18.8 188.8,13.6 188.3,12.0 187.7,8.7 187.7,7.5 188.3,6.9 194.2,5.7 197.3,5.2 199.4,4.8 201.3,2.9 201.9,2.6 203.9,1.7 206.4,1.0 207.2,1.4 207.8,1.8 213.4,6.2 219.5,12.5 223.1,16.2 223.4,16.7 223.6,18.0 223.9,19.0 225.0,20.7 225.6,21.5 226.2,21.8 227.3,21.7 228.0,21.3 231.9,22.9 233.1,23.7 233.7,24.4 235.1,26.2 235.4,27.4 235.7,28.0 237.4,29.5 236.2,31.0 234.2,34.7 232.2,40.1 237.6,47.4 241.1,52.1 241.9,52.4 242.7,52.6 242.5,54.1 242.5,54.7 242.5,55.9 242.6,56.6 243.2,57.0 244.3,61.6 243.7,63.7 243.3,64.3 243.3,65.5 244.8,67.4 246.4,69.1 247.2,69.5 247.3,70.1 247.6,74.3 245.9,79.8 245.1,81.6 244.1,81.4 242.9,80.8 241.6,79.9 240.8,79.8 238.9,81.2 236.5,86.8 239.0,89.9 239.6,90.2 240.4,90.5 240.6,91.1 240.7,91.9 240.5,93.1 240.3,93.8 237.9,99.5 237.6,100.1 235.6,102.8 234.2,104.3 233.7,104.1 232.6,103.8 232.0,103.8 227.3,105.4 226.6,106.4 226.4,107.1 226.4,107.9 226.6,108.7 227.2,110.0 227.7,110.9 225.8,112.7 219.9,118.4 218.7,120.6 218.8,121.5 219.1,122.0 219.4,122.8 219.7,123.4 219.7,126.2 218.3,130.6 216.8,134.8 213.2,135.8 212.5,136.0 211.7,135.1 209.1,135.3 205.4,135.8 204.7,136.1 204.5,136.7 204.2,137.8 202.7,146.7 202.6,147.7 202.7,149.8 203.1,155.4 203.1,156.4 203.0,157.2 203.4,157.9 203.2,159.0 203.0,160.2 202.0,161.2 201.7,161.7 201.2,164.7 201.2,165.2 201.2,165.7 202.0,168.5 202.4,169.2 202.9,170.1 202.9,171.0 202.5,172.6 201.9,174.5 201.2,178.6 200.5,182.7 200.6,183.7 200.9,184.4 202.3,186.3 202.6,187.2 202.6,187.7 202.4,190.4 202.2,192.7 202.3,195.3 203.7,209.1 204.0,213.9 202.8,215.6 201.9,221.2 202.1,221.8 202.7,222.3 203.1,223.0 203.4,228.9 203.3,232.7 203.1,236.8 201.9,240.6 201.6,241.6 201.6,245.1 198.5,245.4 194.4,245.9 192.1,246.1 " />
  </g>
</svg>