<?xml version="1.0" encoding="UTF-8" standalone="yes"?>
<!DOCTYPE svg PUBLIC "-//W3C//DTD SVG 1.0//EN" "http://www.w3.org/TR/2001/REC-SVG-20010904/DTD/svg10.dtd">
<svg height="250" width="370" xmlns="http://www.w3.org/2000/svg" xmlns:svg="http://www.w3.org/2000/svg" xmlns:xlink="http://www.w3.org/1999/xlink">


<g id="background">
<rect id="" width="370" height="250" fill="#222222"/>
</g>
  <g id="208" style="stroke-miterlimit: 3; fill: #F1F1F1; stroke: #000000; stroke-opacity: 1; stroke-width: 0.05; stroke-linejoin: bevel; stroke-linecap: square">
    <polygon id="Denmark" points="122.9,50.2 122.8,50.9 123.0,52.4 123.5,53.4 127.9,59.6 128.6,69.2 128.0,69.6 127.1,70.0 124.0,71.6 123.4,72.0 122.4,73.0 121.9,73.8 117.8,81.7 113.0,81.8 112.2,81.7 110.3,81.1 108.2,80.0 106.5,79.1 101.9,76.9 101.3,76.7 100.6,76.5 74.0,78.8 63.0,81.0 61.9,81.3 61.2,81.5 60.6,81.5 60.1,81.4 59.4,81.2 58.5,80.7 57.3,80.0 56.2,79.4 55.2,79.0 53.9,78.5 54.1,79.2 53.4,79.6 49.8,80.6 49.3,80.6 48.9,80.0 48.4,79.9 47.8,80.0 41.8,81.4 38.8,82.8 36.0,83.8 35.0,83.9 34.0,83.5 33.4,83.5 31.1,83.9 30.6,84.1 27.9,87.3 27.8,87.9 27.8,88.4 27.5,89.2 25.4,90.7 24.8,91.1 23.4,91.5 22.4,91.7 21.7,91.9 21.0,92.4 19.7,97.1 17.2,98.1 18.6,98.3 21.0,98.5 22.4,98.7 23.5,98.3 24.3,97.9 25.3,97.6 25.8,97.5 26.4,97.7 27.2,100.6 26.8,101.8 24.5,103.1 23.8,103.0 22.9,102.5 20.5,100.6 19.5,100.0 18.9,99.4 18.3,99.2 16.3,98.4 14.7,98.2 8.5,97.1 7.9,96.3 7.8,95.0 7.7,94.1 7.8,93.4 8.3,91.4 8.8,90.5 9.3,90.0 10.7,88.6 13.1,86.2 15.3,84.1 19.0,81.0 25.7,76.2 27.1,75.3 27.8,74.9 28.4,74.7 28.9,74.7 29.7,74.9 32.8,75.7 34.1,75.9 35.6,76.0 37.6,75.8 39.8,75.6 42.3,75.0 48.7,73.2 52.0,73.7 56.3,74.1 58.1,74.1 60.6,74.1 61.7,74.0 67.9,73.4 69.1,73.0 71.9,72.0 72.6,71.7 73.8,71.3 76.2,70.1 78.2,68.6 81.8,65.4 84.9,62.1 85.6,61.4 86.1,60.6 87.8,58.4 89.4,57.0 97.6,50.7 98.1,50.4 98.7,50.4 100.2,50.4 102.5,50.4 105.7,50.4 106.9,50.3 108.6,50.2 109.7,50.1 111.6,49.7 114.2,49.1 115.4,48.7 116.0,48.5 121.6,46.0 124.0,44.7 126.9,43.3 128.4,42.6 129.6,42.2 130.4,42.1 131.9,42.3 134.0,42.6 132.8,43.1 130.5,44.0 129.6,44.5 127.8,45.4 126.7,46.3 125.4,47.4 124.4,48.3 123.6,49.0 123.1,49.7 122.9,50.2 " />
    <polygon id="Denmark" points="162.9,65.0 156.7,68.2 155.6,68.6 153.8,69.2 152.5,69.6 151.7,69.6 150.6,68.8 150.0,68.4 149.1,68.2 148.5,68.1 147.8,68.3 147.2,68.4 146.6,68.4 146.0,68.3 145.5,68.0 145.0,67.6 148.3,65.5 153.9,64.5 160.2,63.9 162.2,64.1 162.8,64.4 162.9,65.0 " />
    <polygon id="Denmark" points="98.9,77.5 106.7,80.3 107.9,80.9 108.5,81.1 109.6,81.6 110.9,81.9 111.6,82.1 112.2,82.2 113.1,82.2 116.5,82.2 115.3,83.2 115.0,83.8 114.5,85.1 114.3,86.3 114.9,90.4 115.2,91.7 116.2,94.5 112.8,96.0 108.6,95.9 93.2,99.6 94.3,100.0 96.7,100.0 100.4,99.1 104.3,97.7 109.5,97.2 116.8,97.2 117.9,97.2 118.7,97.9 119.1,98.5 119.3,99.9 119.0,100.6 118.1,101.0 117.5,101.5 116.6,101.6 115.2,102.2 114.5,102.6 113.1,103.6 111.7,104.7 111.2,105.6 110.0,109.1 112.3,108.9 112.1,108.0 111.9,107.1 111.9,105.4 112.3,104.9 116.4,103.4 117.5,103.8 119.0,104.2 119.5,104.7 121.9,106.0 122.5,106.2 126.9,106.9 128.0,107.0 130.9,106.9 134.1,106.3 140.3,105.8 141.4,105.7 144.4,106.2 145.3,106.6 145.9,107.0 150.5,110.3 148.5,115.6 147.7,116.4 139.2,125.1 135.5,123.8 136.2,123.5 136.5,122.8 136.4,122.2 135.2,121.8 134.1,121.6 133.5,121.6 133.0,121.7 132.2,121.9 131.1,122.8 129.3,124.4 129.0,124.9 129.0,125.5 130.2,126.7 130.5,127.2 130.1,127.8 129.5,128.2 128.8,128.5 128.3,128.5 127.7,128.5 120.6,125.2 118.7,123.4 122.6,122.1 123.4,122.2 125.3,122.1 126.8,119.8 123.7,118.4 121.2,118.4 113.1,124.3 112.4,124.9 111.7,125.7 111.5,126.3 111.8,126.9 112.7,127.4 113.6,128.6 113.9,129.5 114.9,132.7 113.4,137.8 110.3,142.4 109.8,142.8 109.3,142.7 108.1,142.3 107.6,141.9 107.3,141.0 106.5,140.4 105.7,140.1 105.1,140.0 103.4,140.0 102.8,140.0 100.8,140.2 99.3,140.4 93.5,141.5 93.6,142.1 94.6,142.4 96.2,142.6 97.9,142.8 100.2,143.0 102.3,143.2 102.6,146.7 99.8,149.1 91.4,150.9 90.3,151.0 86.5,150.2 85.8,149.9 83.8,149.2 83.0,148.9 81.9,148.8 81.3,148.8 77.0,148.9 77.1,149.5 77.9,149.7 78.5,149.7 80.1,149.6 81.3,149.7 82.0,150.1 85.6,151.8 90.7,154.4 84.7,158.2 78.9,163.7 78.6,164.3 79.1,165.0 79.8,165.4 79.3,166.2 79.1,166.8 82.5,171.0 83.1,171.5 83.6,171.7 84.2,172.0 84.9,172.1 85.1,173.2 83.9,175.7 83.3,176.1 82.4,176.3 81.3,176.6 80.3,176.0 79.6,175.9 78.8,175.9 78.1,176.1 77.4,176.2 73.5,178.1 72.1,179.3 72.0,179.9 74.4,183.4 76.6,184.3 81.2,185.2 85.5,186.3 86.2,187.0 86.9,188.8 87.9,191.2 88.1,191.7 87.1,194.4 86.7,194.9 85.9,195.1 80.7,193.8 80.0,191.8 81.0,191.2 81.7,190.9 81.5,190.3 80.9,190.0 79.9,189.8 79.4,189.8 74.2,192.9 71.8,194.5 71.3,194.9 69.5,194.8 68.4,194.7 67.7,195.0 67.1,195.3 66.6,195.9 65.8,196.1 61.1,196.0 60.6,195.7 59.8,194.7 60.1,194.1 56.7,193.1 44.7,191.0 43.6,190.9 39.5,190.6 38.9,190.5 36.6,191.0 35.4,191.3 33.1,191.7 32.1,191.7 31.4,191.3 30.2,190.6 29.7,187.0 30.9,180.1 24.8,180.8 24.8,181.4 21.8,182.8 21.0,182.7 20.1,182.2 20.0,181.6 19.4,179.5 20.1,177.1 20.3,176.5 20.7,176.0 22.0,175.7 24.7,175.9 25.2,175.9 26.1,176.2 26.3,176.8 25.1,177.2 24.4,177.9 25.2,178.5 26.1,178.7 28.5,179.1 29.2,179.2 31.2,179.1 31.7,178.6 31.5,177.6 30.1,175.4 29.9,172.5 29.9,170.2 30.1,169.6 30.1,168.6 28.9,164.9 28.1,163.6 27.5,163.3 26.8,162.9 26.3,162.8 23.5,162.5 20.6,162.3 20.0,162.2 19.0,162.4 18.5,162.3 11.5,157.0 8.9,160.3 0.9,157.9 0.2,157.5 0.0,157.0 0.3,156.4 1.7,155.0 2.1,154.4 2.7,153.3 4.8,148.8 5.0,148.2 5.2,147.1 5.0,146.5 4.1,141.6 3.5,138.9 2.9,136.9 2.5,135.8 2.1,134.7 2.7,134.4 3.4,135.3 3.7,136.1 3.9,136.6 4.2,137.8 4.5,139.0 5.0,142.1 5.0,143.4 5.6,143.7 9.9,142.3 12.4,141.2 16.1,139.3 15.6,137.7 12.0,133.1 11.8,131.2 9.6,129.7 8.8,129.3 7.2,128.8 3.1,127.8 3.0,129.4 3.1,129.9 2.9,133.7 2.1,133.9 1.4,133.6 1.1,132.7 0.7,130.9 0.8,129.9 1.0,127.5 1.9,115.4 1.7,110.1 1.6,105.8 1.8,104.8 3.6,100.2 4.1,99.4 4.6,98.7 5.6,97.4 6.4,96.6 7.0,96.5 7.9,97.6 7.1,98.8 6.5,99.4 6.1,100.2 8.5,102.0 12.6,103.3 15.9,103.1 16.5,103.2 17.2,103.4 20.1,104.3 22.6,105.2 26.5,107.3 28.3,108.6 29.3,108.9 33.6,108.4 34.2,108.2 34.6,107.5 35.1,104.9 35.6,104.4 35.2,103.9 33.6,103.3 32.8,103.0 31.1,101.5 39.3,96.1 39.7,95.4 40.6,94.3 41.2,93.7 45.3,91.5 46.1,91.4 51.5,91.3 53.3,92.0 55.8,96.8 54.9,97.3 50.7,100.6 50.1,102.1 50.2,102.7 50.7,103.7 51.7,104.2 52.6,103.8 53.1,103.1 52.9,102.3 53.3,101.7 57.1,100.8 58.9,100.5 59.6,100.4 60.9,100.5 62.2,100.6 62.7,101.2 62.6,102.0 61.7,102.3 61.0,103.1 61.8,104.4 62.4,105.0 64.2,106.1 67.3,105.3 67.5,104.4 67.2,103.8 65.8,104.0 64.7,98.2 63.8,97.0 63.3,96.7 62.5,96.8 61.8,97.2 57.6,98.6 56.9,98.4 56.5,86.9 57.2,85.7 63.0,81.5 63.6,81.3 67.0,80.6 69.3,80.3 70.1,80.2 72.3,80.2 72.9,80.3 74.9,80.4 76.7,80.9 83.8,79.2 87.9,78.5 88.4,78.4 90.1,78.6 92.5,78.9 97.1,78.4 97.7,78.2 98.5,77.8 " />
    <polygon id="Denmark" points="43.9,85.5 41.5,91.8 39.0,94.7 35.8,97.3 34.5,97.6 33.9,97.7 29.8,98.3 28.8,97.1 27.0,95.6 25.0,95.0 23.9,95.0 22.9,95.3 22.4,95.3 22.1,94.8 24.0,92.1 27.8,90.1 29.4,87.2 29.9,87.0 30.5,86.9 31.9,86.9 33.8,86.8 38.1,86.2 38.7,85.7 39.4,84.6 40.1,83.8 40.8,83.6 42.6,83.6 43.1,84.0 43.9,85.3 " />
    <polygon id="Denmark" points="182.2,98.5 181.2,98.5 178.9,96.9 186.0,95.8 186.5,95.8 182.2,98.5 " />
    <polygon id="Denmark" points="234.7,134.1 232.7,136.3 232.1,137.5 232.2,138.3 234.3,140.6 234.7,141.1 235.1,141.7 236.2,144.2 236.4,145.8 236.4,146.5 235.6,147.5 236.4,149.0 234.4,151.1 233.8,151.6 232.4,152.5 231.3,153.0 231.0,154.3 230.5,154.5 228.5,154.4 227.8,153.9 227.1,153.7 226.1,153.7 225.5,153.9 224.9,154.1 223.0,155.0 219.1,156.7 218.3,157.1 215.8,159.7 215.3,160.4 215.0,161.0 215.0,161.6 215.2,162.3 215.8,163.1 216.7,163.6 220.6,164.9 223.0,165.0 224.0,165.1 224.7,165.3 225.9,166.1 227.5,167.1 228.2,167.8 228.7,168.4 229.2,170.7 228.5,171.6 227.3,172.3 226.6,172.6 222.5,173.7 221.5,173.8 220.4,173.8 219.3,173.8 217.8,173.6 215.6,174.1 214.2,174.5 206.9,177.0 206.3,177.2 205.8,177.6 205.8,178.2 208.0,179.1 208.9,179.3 209.5,179.3 211.0,179.1 211.8,179.0 212.8,179.2 214.1,179.6 214.1,185.8 213.3,186.4 208.7,187.7 207.1,187.8 205.7,187.7 204.7,187.5 203.8,187.1 202.5,186.1 201.6,185.9 200.5,185.8 199.6,186.5 199.8,187.1 197.6,185.3 196.6,184.8 190.9,182.9 193.6,179.1 194.4,177.9 191.4,175.6 190.9,175.4 190.2,175.2 189.0,175.2 188.4,175.3 187.1,176.2 184.7,176.2 181.6,176.0 181.0,175.9 179.8,175.6 176.4,174.9 175.0,174.7 174.4,174.7 173.6,174.9 171.0,175.5 169.5,176.1 168.6,176.1 166.9,175.9 166.3,175.9 165.5,175.6 162.4,168.3 164.0,165.4 163.3,162.5 160.4,156.3 160.2,155.8 157.3,151.3 156.5,150.8 152.3,149.8 146.3,147.8 147.2,147.3 149.5,147.3 150.1,147.4 159.4,148.2 160.6,149.0 161.4,149.2 162.5,149.4 163.1,149.5 163.7,149.4 170.6,146.9 178.1,141.9 178.8,141.2 179.1,140.6 179.4,140.0 179.6,139.3 179.3,138.1 178.3,137.3 177.7,137.0 176.1,136.7 172.5,136.4 171.4,136.3 167.4,135.1 166.9,134.1 169.0,134.6 174.0,135.7 184.4,137.0 187.4,136.7 189.6,136.2 191.2,135.8 192.0,135.5 192.6,135.5 193.4,135.8 193.4,136.3 191.3,137.8 187.7,139.4 187.7,143.4 190.2,144.5 190.7,144.4 191.6,145.0 192.7,146.3 194.5,150.0 194.2,151.4 195.5,150.7 196.2,149.0 196.8,146.0 199.9,137.5 200.5,137.3 201.1,137.4 201.9,137.6 202.9,138.0 204.3,138.6 204.9,139.2 206.8,143.8 207.1,144.5 207.9,146.7 207.9,147.5 207.6,148.1 206.6,148.6 205.5,148.6 203.4,148.4 201.7,150.6 201.6,151.8 208.0,151.8 209.8,149.5 209.9,148.8 209.8,148.2 209.6,147.3 208.8,146.0 207.2,137.9 205.8,135.9 203.9,135.9 201.5,136.3 199.0,137.0 198.5,137.0 198.0,136.9 197.3,136.6 197.0,135.8 197.6,135.4 200.7,133.9 214.1,128.2 215.5,127.8 219.4,127.0 220.2,126.9 220.8,126.9 221.4,127.0 222.3,127.1 231.9,129.1 232.9,129.4 237.1,131.3 237.4,131.9 236.1,133.4 235.6,133.7 235.0,133.9 " />
    <polygon id="Denmark" points="133.2,140.7 134.3,140.8 135.0,140.4 135.1,139.3 135.1,140.2 132.4,146.0 131.7,146.4 131.1,146.4 128.7,146.2 128.2,146.1 127.0,144.0 127.3,135.2 127.6,134.6 128.5,134.0 129.3,133.8 129.4,134.5 129.4,135.2 129.6,136.1 132.7,140.3 133.2,140.7 " />
    <polygon id="Denmark" points="235.3,157.2 234.3,157.2 233.6,156.9 232.6,156.0 232.1,155.4 231.8,154.3 232.3,153.6 233.8,152.7 235.3,151.1 235.9,150.4 236.7,149.6 237.3,150.0 239.0,152.5 239.9,153.7 240.4,154.7 240.4,155.2 235.3,157.2 " />
    <polygon id="Denmark" points="139.2,160.8 141.6,167.0 143.6,170.0 143.9,170.6 142.9,175.3 142.7,176.3 141.4,179.3 141.0,179.9 139.0,182.5 138.2,182.8 135.1,182.9 133.1,182.8 132.5,182.9 131.6,183.0 130.8,183.3 127.9,184.5 127.4,184.5 126.3,184.5 108.2,181.6 107.3,179.9 108.1,179.6 108.2,179.1 106.4,176.7 105.9,176.3 105.4,176.2 100.5,175.9 94.8,171.4 94.4,168.4 90.3,163.2 88.1,161.6 86.0,161.2 83.7,160.3 83.4,159.7 87.0,157.7 90.4,157.4 91.0,157.4 91.5,157.7 91.6,158.4 92.7,159.2 94.1,159.5 94.7,159.6 95.2,159.5 96.1,159.3 96.8,159.1 100.2,157.7 104.1,156.9 106.7,156.3 108.0,156.0 108.8,155.7 109.5,155.4 111.3,154.7 115.4,153.8 116.4,153.7 117.3,154.0 121.1,155.2 125.6,158.1 125.0,159.1 123.9,160.8 122.6,161.5 122.0,162.3 122.2,162.9 123.1,163.1 124.8,163.1 125.3,163.1 131.7,160.7 132.1,160.2 132.4,158.8 132.6,156.5 132.3,155.0 132.0,154.5 132.2,153.7 133.0,153.7 134.7,155.1 139.2,160.0 139.2,160.8 " />
    <polygon id="Denmark" points="19.7,168.5 19.2,168.5 18.4,168.2 16.5,166.2 15.8,165.2 14.1,162.3 15.4,161.6 16.5,161.5 19.4,163.7 20.2,168.1 19.7,168.5 " />
    <polygon id="Denmark" points="364.8,186.3 359.1,185.3 356.0,184.5 348.9,182.6 348.0,182.2 345.4,180.8 346.4,174.8 348.7,170.7 349.6,170.1 350.1,170.0 351.6,171.3 352.3,171.9 353.0,172.6 353.7,172.9 356.2,174.0 362.0,176.2 365.5,177.5 366.9,177.9 368.6,178.2 369.2,178.5 369.9,179.3 370.0,181.4 367.8,184.7 366.2,186.0 365.4,186.2 364.8,186.3 " />
    <polygon id="Denmark" points="139.9,197.7 137.6,200.4 137.1,200.4 136.3,199.8 135.6,198.9 134.5,196.4 134.4,194.6 135.9,190.8 136.5,190.1 138.8,188.1 140.4,187.2 141.6,186.9 142.2,186.5 144.8,183.7 146.6,180.6 147.7,178.8 148.7,177.9 149.2,177.6 149.9,177.6 150.4,178.0 149.3,181.3 149.0,182.1 147.9,184.6 147.2,186.0 146.6,186.6 145.1,187.7 144.2,189.0 141.4,194.2 139.9,197.7 " />
    <polygon id="Denmark" points="89.3,182.1 98.4,185.4 100.2,186.9 102.4,189.2 103.8,191.5 104.0,192.3 99.6,193.4 99.1,193.4 97.9,193.5 96.9,193.4 94.7,192.8 89.9,191.3 89.0,191.0 88.3,189.8 87.5,188.1 87.6,187.1 88.8,187.7 90.7,188.8 91.3,189.1 91.9,189.2 91.8,187.6 89.7,185.5 88.8,185.2 86.7,185.4 85.4,185.5 84.5,185.5 83.5,185.2 80.9,183.6 81.3,183.0 82.6,182.5 84.9,181.8 87.3,181.6 88.3,181.8 89.3,182.1 " />
    <polygon id="Denmark" points="132.4,188.6 129.8,188.9 129.0,188.7 127.3,187.1 126.3,185.9 132.8,183.7 135.5,186.3 135.6,186.9 135.1,187.4 132.4,188.6 " />
    <polygon id="Denmark" points="234.2,187.9 233.7,188.7 233.1,188.9 232.3,189.0 231.3,188.8 229.7,188.4 226.2,188.0 224.7,188.0 223.9,188.0 222.7,188.2 221.3,188.6 218.8,190.3 214.6,192.3 213.6,192.2 212.9,192.0 211.0,191.1 211.9,188.6 214.3,187.0 221.3,184.2 225.7,184.3 228.7,184.6 231.5,185.2 232.6,185.5 234.0,187.5 " />
    <polygon id="Denmark" points="122.9,194.3 121.5,195.4 113.2,191.1 110.2,188.2 109.9,187.7 110.1,187.2 115.2,189.4 116.3,189.9 123.3,193.2 122.9,194.3 " />
    <polygon id="Denmark" points="207.0,191.7 208.2,191.7 209.1,191.6 210.0,191.7 210.8,191.9 212.1,192.9 213.8,194.3 213.3,195.0 211.3,196.2 210.6,196.5 209.6,196.8 209.1,197.1 207.9,197.8 204.0,201.2 203.4,201.8 203.0,202.5 202.8,203.7 202.9,204.5 203.0,205.4 203.3,206.5 203.6,207.7 203.9,208.2 203.4,209.0 202.1,208.7 201.3,208.4 198.3,204.3 198.2,203.5 198.6,202.4 199.3,201.7 199.7,200.8 197.4,197.9 194.6,194.5 193.6,194.0 192.2,193.6 189.7,189.4 191.0,188.4 191.5,188.2 192.8,188.0 196.9,188.3 197.9,188.8 204.8,191.1 206.0,191.5 207.0,191.7 " />
    <polygon id="Denmark" points="179.5,195.0 182.2,195.4 186.3,192.4 186.2,191.2 187.0,191.1 189.7,192.6 191.1,193.6 196.9,198.1 197.7,199.3 197.6,202.3 196.8,203.4 196.3,203.8 193.7,204.9 191.2,204.6 190.4,204.3 188.9,204.1 186.1,203.7 183.4,203.7 180.0,204.8 177.3,205.8 176.8,206.0 176.2,205.9 172.4,204.5 170.9,203.9 169.1,203.0 167.2,201.8 166.3,201.4 165.5,201.1 162.6,200.4 160.2,199.8 159.2,199.6 157.8,199.5 154.3,198.8 153.6,198.5 152.3,197.4 153.9,195.8 153.3,191.8 154.0,190.7 154.8,190.1 155.6,189.4 156.3,189.1 158.8,188.6 159.7,188.5 161.2,188.3 162.7,188.3 165.2,188.3 167.0,188.7 167.7,189.0 169.9,190.3 170.8,191.5 171.5,192.1 173.2,192.9 174.0,193.2 179.5,195.0 " />
  </g>
</svg>