<?xml version="1.0" encoding="UTF-8" standalone="yes"?>
<!DOCTYPE svg PUBLIC "-//W3C//DTD SVG 1.0//EN" "http://www.w3.org/TR/2001/REC-SVG-20010904/DTD/svg10.dtd">
<svg height="250" width="370" xmlns="http://www.w3.org/2000/svg" xmlns:svg="http://www.w3.org/2000/svg" xmlns:xlink="http://www.w3.org/1999/xlink">


<g id="background">
<rect id="" width="370" height="250" fill="#222222"/>
</g>
  <g id="226" style="stroke-miterlimit: 3; fill: #F1F1F1; stroke: #000000; stroke-opacity: 1; stroke-width: 0.05; stroke-linejoin: bevel; stroke-linecap: square">
    <polygon id="Equatorial Guinea" points="203.6,12.6 201.0,17.5 199.9,20.5 199.8,21.1 199.4,22.0 196.1,26.7 195.4,27.0 186.4,24.8 185.7,24.6 184.8,24.2 184.0,23.3 183.2,21.2 183.0,20.5 182.9,19.9 183.1,18.5 183.3,18.0 184.2,15.6 184.5,15.1 185.0,14.5 187.6,14.3 188.2,14.4 189.2,14.8 189.7,14.7 190.5,14.1 192.2,10.4 192.3,9.8 192.5,8.0 192.6,5.7 193.5,3.8 195.4,1.0 198.0,0.0 206.0,0.5 206.7,0.9 207.3,1.3 208.4,2.8 208.6,4.2 208.5,5.2 208.2,6.2 207.8,7.0 206.6,8.1 204.4,11.2 204.0,11.7 203.6,12.6 " />
    <polygon id="Equatorial Guinea" points="259.3,76.1 261.6,76.1 266.7,76.1 272.7,76.1 274.0,76.1 277.6,76.1 278.2,76.1 279.5,76.1 283.7,76.1 285.0,76.1 289.2,76.1 309.7,76.1 316.5,76.1 322.0,76.0 322.2,83.7 322.2,84.7 322.2,87.9 322.3,92.2 322.3,96.4 322.4,98.7 322.4,102.9 322.5,110.4 322.6,131.7 317.4,131.7 304.3,131.6 301.5,131.6 294.9,131.6 282.9,131.7 281.6,131.7 277.9,131.6 272.8,131.6 271.5,131.6 270.2,131.6 268.9,131.6 259.4,131.6 258.1,131.7 256.9,134.3 256.1,134.9 255.4,135.3 252.9,134.1 252.2,133.3 251.7,132.5 250.4,131.7 249.8,131.7 248.7,131.6 248.6,130.4 250.5,128.4 247.8,127.3 246.5,126.9 245.6,127.0 243.9,127.1 242.6,127.5 237.7,128.4 236.8,126.3 236.3,125.8 235.1,125.4 234.0,125.3 233.4,125.3 232.9,125.8 230.3,126.8 229.2,126.4 227.8,124.6 227.4,123.8 227.7,123.1 230.7,117.8 232.1,113.4 232.5,112.7 233.6,111.5 237.1,108.3 240.9,103.9 239.6,101.7 239.6,100.3 240.9,98.4 242.9,96.4 244.0,95.8 244.5,95.4 248.3,89.4 249.1,87.9 249.2,87.4 249.2,86.8 248.5,84.2 247.5,78.5 247.2,69.2 247.2,68.6 249.1,67.7 249.8,70.8 249.9,71.3 250.2,72.0 253.1,74.0 255.0,75.0 256.9,75.7 257.6,75.9 258.8,76.1 " />
    <polygon id="Equatorial Guinea" points="49.5,250.0 49.0,248.0 49.2,247.5 49.9,247.2 50.4,247.9 50.5,248.4 50.5,249.0 50.2,249.8 " />
  </g>
</svg>