<?xml version="1.0" encoding="UTF-8" standalone="yes"?>
<!DOCTYPE svg PUBLIC "-//W3C//DTD SVG 1.0//EN" "http://www.w3.org/TR/2001/REC-SVG-20010904/DTD/svg10.dtd">
<svg height="250" width="370" xmlns="http://www.w3.org/2000/svg" xmlns:svg="http://www.w3.org/2000/svg" xmlns:xlink="http://www.w3.org/1999/xlink">


<g id="background">
<rect id="" width="370" height="250" fill="#222222"/>
</g>
  <g id="231" style="stroke-miterlimit: 3; fill: #F1F1F1; stroke: #000000; stroke-opacity: 1; stroke-width: 0.05; stroke-linejoin: bevel; stroke-linecap: square">
    <polygon id="Ethiopia" points="99.4,13.5 99.7,13.0 101.4,12.4 103.6,12.1 105.5,12.1 106.8,12.3 108.1,12.7 108.5,13.2 109.1,13.5 110.8,13.1 111.3,12.6 111.3,11.9 111.3,11.2 111.5,10.7 112.0,10.0 113.6,9.4 115.4,9.4 115.9,9.5 116.7,10.0 117.8,11.4 118.8,13.4 120.7,16.7 121.8,17.0 124.2,11.4 127.6,3.7 129.2,0.0 130.1,1.0 130.6,1.7 130.6,2.2 131.5,3.2 132.1,3.6 134.1,4.4 134.9,4.3 135.5,4.1 136.3,4.2 136.8,4.4 137.8,6.3 138.2,7.6 140.7,10.1 141.2,10.2 143.1,10.0 148.4,9.0 150.6,8.3 152.1,7.4 153.0,6.6 153.4,5.0 154.8,5.2 155.5,5.5 156.2,6.2 156.7,6.8 157.0,7.3 157.5,8.7 158.6,8.9 161.0,8.7 163.3,8.2 164.5,6.9 166.3,8.1 167.9,8.5 168.6,8.5 169.1,8.3 169.8,8.0 171.2,8.6 172.1,9.5 172.7,9.9 173.2,9.9 175.1,9.3 177.0,9.0 178.1,9.1 179.6,9.6 180.6,10.0 181.2,10.4 182.3,11.4 182.9,12.0 184.0,13.0 184.9,13.6 186.7,14.4 187.6,14.8 188.5,15.1 189.1,15.2 189.8,15.3 191.0,15.5 191.6,15.7 192.1,15.9 194.5,18.1 196.6,20.5 197.5,21.4 197.9,22.0 198.6,23.0 199.0,23.7 199.3,24.3 200.3,26.2 201.1,27.5 201.7,28.1 205.8,30.7 207.9,32.0 208.4,32.4 209.5,33.1 212.9,35.9 213.5,36.4 213.8,36.9 214.2,37.5 214.8,38.7 216.3,42.0 216.7,42.7 217.2,43.4 217.8,44.1 218.5,44.5 219.1,44.7 219.9,45.0 220.7,45.3 221.4,45.8 222.4,46.5 223.0,47.1 224.0,48.6 224.6,49.7 225.0,50.4 225.7,51.3 226.9,52.6 226.2,53.4 225.6,54.2 225.3,55.0 225.0,56.1 223.8,57.1 221.9,59.8 221.0,60.8 219.5,63.3 218.8,64.4 217.1,66.8 215.9,67.7 214.5,68.4 213.8,70.7 213.0,73.5 213.7,76.1 214.1,78.8 214.0,80.9 213.9,82.4 213.9,83.9 213.7,84.4 214.7,85.2 215.7,85.4 216.4,85.6 218.1,85.9 218.8,85.7 219.9,85.2 220.9,84.6 221.8,84.6 224.8,84.3 226.1,84.2 229.1,83.2 231.5,82.6 232.1,82.5 234.4,82.9 234.8,83.4 235.1,84.2 235.6,84.7 237.5,85.0 238.8,84.5 238.2,85.6 236.9,86.9 234.9,89.3 232.7,92.4 233.1,93.7 233.7,94.7 234.4,95.5 235.4,96.5 235.6,97.0 235.7,98.1 235.8,98.6 236.0,99.5 236.7,101.5 237.1,102.1 237.8,102.8 238.3,103.2 238.8,103.4 239.6,103.8 240.2,104.5 240.8,105.8 240.9,106.5 241.2,107.2 241.7,107.9 242.3,108.3 242.9,108.5 243.6,108.5 244.3,108.6 244.9,109.3 245.2,110.6 245.4,111.8 245.7,113.2 246.0,114.1 246.7,114.5 247.3,114.7 248.4,116.0 249.3,117.5 249.2,118.3 249.4,118.9 249.9,119.3 252.0,120.5 252.7,120.8 253.7,120.4 255.9,122.4 262.0,128.0 276.0,132.6 283.6,135.2 287.7,136.5 292.5,138.1 297.0,139.6 306.7,142.9 312.6,144.9 317.4,146.5 322.6,148.3 327.0,149.8 329.0,149.9 340.4,149.9 343.4,149.9 345.7,149.9 346.8,149.9 348.7,149.9 346.8,151.7 343.7,154.6 341.5,156.7 339.2,158.8 327.0,170.5 317.6,180.0 307.8,190.0 305.2,192.7 304.4,193.5 299.2,199.2 294.2,204.6 291.7,207.4 285.7,214.0 283.8,216.1 282.5,217.4 273.0,216.8 272.0,216.7 268.1,216.5 266.6,216.4 263.3,216.2 261.4,216.1 260.8,216.4 260.1,216.7 259.3,217.0 258.7,217.2 257.5,217.3 256.7,217.4 256.2,217.4 255.0,217.6 252.8,218.3 250.7,219.2 247.8,220.4 247.0,220.8 244.2,222.1 243.6,222.5 241.9,223.8 239.8,225.5 239.3,226.2 238.9,227.2 238.6,228.5 238.1,229.3 237.4,230.1 236.8,230.5 235.0,231.0 234.4,231.1 232.5,231.3 232.0,231.4 231.4,231.5 228.8,232.1 227.0,232.5 226.1,232.7 224.3,232.6 223.4,232.5 222.5,232.5 221.6,232.6 220.8,232.8 219.8,233.2 219.1,234.0 217.4,235.1 216.9,235.7 216.9,236.5 216.2,237.5 214.9,238.2 214.0,238.0 213.4,237.4 212.3,237.1 209.8,237.3 208.2,237.6 207.3,237.8 206.7,238.2 202.4,238.4 200.6,238.4 199.9,238.2 199.3,237.9 198.5,237.1 197.9,236.5 197.6,236.0 196.7,234.7 193.8,232.4 193.3,232.0 191.7,230.8 189.3,232.1 183.4,234.4 183.1,234.9 178.6,236.6 174.7,238.6 171.8,239.9 169.9,244.1 165.8,247.9 165.1,250.0 164.3,250.0 163.8,249.5 163.7,248.9 162.7,248.8 162.1,248.8 160.1,248.6 160.3,248.1 159.8,248.0 159.3,248.5 158.3,248.6 157.2,248.4 155.7,247.7 154.7,247.2 153.9,247.3 151.9,247.6 151.0,247.7 148.7,247.0 147.0,246.5 144.7,245.7 142.4,245.2 140.9,245.8 138.2,245.6 133.7,245.5 132.3,244.7 131.8,243.6 131.1,243.0 115.4,232.8 112.2,230.8 111.6,229.9 110.2,228.9 106.9,227.6 103.1,227.6 102.1,227.6 97.0,227.4 93.5,227.5 92.1,227.3 88.5,227.3 86.5,225.7 86.2,223.5 82.6,219.7 82.6,213.6 83.2,213.0 83.6,212.5 83.9,211.9 83.8,211.3 83.2,210.7 83.1,210.1 83.1,209.6 83.7,208.1 83.1,208.1 82.2,207.8 81.7,207.4 77.4,206.0 76.8,205.9 75.9,205.9 75.3,206.0 75.0,206.6 73.6,207.6 73.0,207.6 72.3,207.1 71.7,205.8 71.9,205.2 72.2,204.6 68.0,201.5 68.0,200.4 66.4,197.6 65.5,196.2 65.2,194.6 65.2,194.1 65.5,193.2 65.4,192.2 65.1,191.7 64.6,191.2 64.1,190.6 62.9,188.3 62.7,187.8 62.6,187.2 62.5,185.5 60.6,180.3 59.3,178.7 58.8,178.3 58.2,177.9 57.6,177.6 57.1,177.5 56.2,177.5 55.6,177.4 54.6,174.7 54.7,174.1 54.3,173.6 53.4,173.2 52.0,172.6 51.3,172.6 50.6,172.5 50.0,172.2 49.1,171.3 48.8,170.8 48.2,169.8 47.5,168.0 46.1,167.4 44.6,166.5 44.6,165.6 44.7,165.1 44.7,163.7 41.6,160.4 38.0,157.6 36.3,156.8 32.4,155.5 31.8,155.5 27.8,155.1 24.3,154.7 23.4,154.5 22.5,153.3 22.1,152.4 22.0,151.7 22.9,150.0 24.7,147.8 25.6,147.5 26.1,147.1 26.1,145.1 25.8,143.9 25.7,142.3 25.8,141.4 27.7,140.0 29.1,140.0 30.3,140.4 33.2,139.9 35.8,139.7 36.7,140.3 37.2,141.0 37.5,141.7 39.0,141.9 39.9,141.0 40.8,140.7 41.5,140.5 42.3,140.6 43.0,140.6 43.5,140.3 44.0,139.9 45.5,138.5 46.1,138.0 46.6,137.4 46.7,136.1 46.8,132.4 46.9,129.1 46.2,119.8 46.1,119.0 46.0,118.3 45.8,116.1 47.0,111.6 48.5,108.4 48.8,107.0 49.0,105.8 51.0,103.8 51.6,101.3 51.4,100.3 51.1,98.8 50.2,94.3 50.8,93.6 51.7,92.6 53.6,89.3 56.9,87.0 58.7,88.2 59.5,88.9 60.7,90.0 61.4,90.6 62.5,90.6 65.2,87.5 65.3,86.4 64.3,85.5 65.4,82.2 65.9,80.8 65.9,80.3 65.3,79.7 65.0,79.0 65.1,78.5 65.5,77.7 65.9,77.0 67.7,72.9 67.9,72.0 67.5,71.1 67.2,70.3 67.0,68.9 67.1,68.2 67.5,67.1 67.9,66.6 68.4,66.0 69.4,65.5 70.2,65.3 70.7,65.1 71.3,64.6 71.9,63.2 74.1,59.3 79.8,50.0 80.5,49.9 81.0,49.3 81.0,48.3 86.8,47.2 87.7,47.0 88.2,47.2 88.9,47.1 89.5,47.2 90.1,47.7 90.6,47.5 91.1,43.7 90.5,43.0 90.5,42.3 90.8,41.7 91.2,41.1 90.9,40.5 93.0,33.0 95.1,30.1 96.2,28.7 96.5,27.9 96.4,27.3 96.5,26.6 96.8,25.7 97.8,23.5 98.1,22.7 97.3,20.2 99.3,13.9 " />
  </g>
</svg>