<?xml version="1.0" encoding="UTF-8" standalone="yes"?>
<!DOCTYPE svg PUBLIC "-//W3C//DTD SVG 1.0//EN" "http://www.w3.org/TR/2001/REC-SVG-20010904/DTD/svg10.dtd">
<svg height="250" width="370" xmlns="http://www.w3.org/2000/svg" xmlns:svg="http://www.w3.org/2000/svg" xmlns:xlink="http://www.w3.org/1999/xlink">


<g id="background">
<rect id="" width="370" height="250" fill="#222222"/>
</g>
  <g id="232" style="stroke-miterlimit: 3; fill: #F1F1F1; stroke: #000000; stroke-opacity: 1; stroke-width: 0.05; stroke-linejoin: bevel; stroke-linecap: square">
    <polygon id="Eritrea" points="141.5,15.2 145.8,23.9 148.1,28.7 150.6,35.8 152.2,41.8 154.9,50.3 155.6,51.9 156.5,53.9 157.6,58.4 157.7,60.3 157.7,63.1 157.8,64.4 158.2,67.1 158.4,67.8 158.8,68.6 159.1,70.9 159.0,71.4 159.5,73.3 159.6,75.8 159.9,78.4 160.0,79.4 160.7,82.9 162.5,89.1 164.1,92.9 166.7,95.2 169.3,98.8 170.5,104.1 170.4,106.1 169.9,106.1 170.8,109.6 171.8,110.2 172.9,110.1 173.6,109.8 174.2,109.2 175.2,109.1 175.9,109.3 176.5,109.7 177.6,111.0 177.9,111.6 181.2,119.0 182.1,121.3 182.2,122.1 181.7,124.4 181.3,126.8 181.3,127.4 182.3,128.9 184.6,130.2 186.0,129.8 186.7,129.5 188.4,125.6 188.5,125.1 188.5,124.5 187.9,122.9 187.0,120.8 186.3,120.4 186.0,121.3 185.3,121.6 185.1,120.6 184.7,116.2 184.7,115.6 185.9,113.3 187.8,112.0 188.5,111.7 189.6,111.2 194.5,115.7 197.1,120.1 196.1,122.2 196.8,124.0 198.0,125.3 198.7,126.0 201.9,131.6 201.9,132.2 201.7,132.9 201.7,133.4 202.5,134.1 207.8,136.8 208.7,136.7 209.9,135.5 211.0,134.5 213.7,133.1 215.0,132.6 221.3,135.3 224.8,137.2 227.3,140.2 227.4,141.9 230.7,146.0 232.6,145.5 234.1,145.6 246.9,149.3 253.1,156.2 256.1,160.8 259.2,165.3 262.0,168.4 266.5,174.4 268.1,177.0 268.4,177.5 268.7,178.4 268.9,179.2 269.2,180.0 269.7,180.4 271.3,181.1 277.0,183.1 279.0,183.1 279.7,182.9 281.7,183.6 283.0,185.1 286.3,189.4 286.7,190.8 287.7,191.6 291.9,196.2 293.5,197.3 293.4,193.7 292.4,192.8 291.7,192.6 291.0,192.8 291.2,192.1 293.6,193.5 296.3,196.2 296.8,197.2 298.8,202.8 299.0,203.8 299.2,206.2 300.0,211.9 300.8,212.4 303.1,213.2 303.9,213.4 304.8,213.4 305.3,213.3 306.0,213.1 309.2,214.6 315.5,219.6 316.2,220.5 317.4,224.3 318.0,226.4 319.4,228.6 322.5,230.1 323.2,230.4 324.9,230.6 325.6,230.6 327.0,230.1 327.6,229.4 327.6,228.5 327.8,227.3 328.0,226.5 328.7,226.6 331.4,229.0 331.9,230.0 332.3,230.8 333.3,233.8 333.5,234.7 325.0,238.5 320.2,242.2 319.6,242.8 319.5,243.4 319.5,244.0 319.6,244.7 320.2,245.9 320.1,246.6 317.1,248.9 314.7,250.0 312.5,248.5 311.2,247.0 309.9,245.4 307.5,243.8 306.0,243.2 305.2,243.0 304.0,242.7 301.4,245.3 299.9,243.8 299.3,243.1 298.2,241.8 297.5,240.9 297.1,240.4 296.8,239.8 295.4,237.3 293.4,234.1 292.5,233.2 290.8,231.8 290.2,231.4 289.3,230.7 288.7,230.4 288.0,230.1 287.1,229.8 286.2,229.4 285.5,229.2 284.8,228.9 284.2,228.8 283.1,228.2 282.4,227.7 281.8,227.0 280.6,225.2 280.0,224.2 276.8,217.4 275.7,215.0 274.8,213.4 274.0,212.3 272.9,211.3 266.6,206.1 265.9,205.5 264.5,204.6 263.7,204.1 262.9,203.6 258.3,200.8 250.0,195.5 249.3,194.9 248.7,194.2 247.2,191.5 245.2,187.7 244.4,186.4 243.9,185.4 242.7,183.6 242.4,183.0 241.4,181.8 239.7,179.8 236.2,175.9 235.3,175.0 231.1,170.9 230.5,170.5 229.4,170.0 228.2,169.7 225.7,169.3 224.4,169.0 223.8,169.0 223.2,168.9 222.2,168.7 221.2,168.3 219.4,167.6 215.7,165.8 214.3,164.9 212.3,163.2 211.7,162.6 210.4,161.4 209.2,160.1 208.3,159.3 206.9,158.5 205.0,157.7 202.9,157.0 201.9,156.7 200.5,156.5 199.9,156.5 195.7,157.0 192.9,158.1 192.3,158.3 191.4,158.4 190.9,158.3 190.0,157.8 188.5,156.3 187.9,155.7 185.6,154.6 185.0,154.5 184.5,154.6 183.6,155.0 183.0,155.3 181.7,155.5 181.1,155.4 177.8,154.7 174.1,152.3 172.1,154.6 167.5,155.8 167.0,155.9 162.2,156.3 159.8,155.8 159.0,153.3 158.7,152.7 158.2,151.9 157.3,150.7 156.5,149.9 155.8,149.4 155.0,148.9 154.4,148.6 151.6,148.3 151.3,150.7 151.0,151.4 149.0,153.1 145.8,155.1 141.4,156.5 131.4,158.4 130.6,158.5 126.7,158.9 126.1,158.8 121.2,154.6 120.7,153.7 119.7,151.0 117.9,147.4 117.4,146.9 116.6,146.7 115.0,146.5 114.5,146.6 113.9,146.9 112.8,147.0 112.2,147.0 108.1,145.4 106.9,144.7 105.3,143.1 105.2,142.1 105.1,141.5 104.2,140.2 103.0,138.8 102.2,138.1 98.9,145.6 92.1,161.4 87.1,172.8 85.8,172.6 85.0,172.1 80.9,165.5 79.2,161.7 76.7,158.4 75.1,157.5 74.1,157.2 70.7,157.2 67.8,158.0 67.2,158.4 66.7,159.1 66.2,159.9 65.8,160.8 65.7,161.6 65.8,162.4 65.8,163.3 65.5,164.2 64.9,164.8 62.1,165.7 61.6,165.8 60.0,165.1 59.7,164.2 56.7,163.1 53.9,162.8 50.0,162.8 45.9,163.3 42.4,164.4 41.9,164.8 41.4,165.7 41.4,165.0 40.2,157.4 37.4,129.9 37.0,126.3 38.6,125.0 41.4,122.5 42.4,119.5 44.4,113.6 45.1,111.2 47.1,103.7 48.2,99.9 51.2,97.1 54.0,89.6 56.8,82.1 58.0,79.0 58.7,78.2 59.8,77.5 60.4,76.8 60.6,76.0 59.8,69.7 59.5,69.1 58.5,68.2 57.5,67.0 57.3,66.3 57.1,65.6 57.2,64.7 57.7,60.4 58.0,59.7 58.7,58.8 59.4,58.2 59.9,57.9 60.9,57.2 61.2,56.4 62.0,54.3 62.2,53.2 62.5,43.7 62.1,42.9 61.4,42.0 61.3,41.3 62.9,40.7 66.4,41.9 67.7,43.2 68.5,43.5 72.9,43.1 78.6,42.3 80.5,42.7 83.3,39.3 84.8,35.5 85.2,33.9 85.4,33.1 84.8,31.8 84.4,30.2 87.6,28.7 89.4,28.3 94.8,27.2 101.5,24.6 103.2,23.8 104.5,22.1 107.4,20.3 108.0,19.9 108.6,19.7 109.5,19.7 110.0,19.8 112.1,22.0 117.1,20.7 117.7,20.4 122.5,14.7 126.1,6.4 126.5,5.5 128.6,3.6 132.8,0.0 133.3,1.5 136.0,6.6 137.5,9.5 139.4,11.9 141.5,15.2 " />
    <polygon id="Eritrea" points="199.9,86.1 200.0,88.6 199.1,89.1 197.6,88.8 194.9,88.0 194.2,88.1 194.0,87.4 194.3,86.8 196.0,84.4 196.5,84.3 197.6,84.8 199.9,85.9 " />
    <polygon id="Eritrea" points="198.8,95.2 201.1,97.1 200.9,99.6 200.6,100.5 200.6,101.1 200.8,101.8 201.2,103.2 201.6,104.0 202.3,104.6 205.2,105.2 206.1,103.9 205.3,103.4 204.7,103.1 204.8,102.5 205.5,101.9 206.2,101.8 207.5,101.8 208.1,101.9 208.8,102.1 212.8,104.6 213.1,105.5 213.5,107.2 212.5,107.5 209.4,107.4 206.1,106.8 200.4,106.0 199.9,106.7 198.8,107.0 197.1,106.9 194.2,106.3 193.1,105.3 192.7,103.1 193.3,102.9 194.2,103.4 196.0,104.4 196.7,104.6 197.5,104.2 198.3,103.7 197.6,102.4 195.8,100.5 194.0,100.0 193.5,100.0 192.9,100.0 192.4,100.3 191.4,99.5 191.7,98.2 194.1,96.8 196.0,96.5 196.5,96.3 196.7,95.7 194.9,93.6 195.6,93.6 198.8,95.2 " />
  </g>
</svg>