<?xml version="1.0" encoding="UTF-8" standalone="yes"?>
<!DOCTYPE svg PUBLIC "-//W3C//DTD SVG 1.0//EN" "http://www.w3.org/TR/2001/REC-SVG-20010904/DTD/svg10.dtd">
<svg height="250" width="370" xmlns="http://www.w3.org/2000/svg" xmlns:svg="http://www.w3.org/2000/svg" xmlns:xlink="http://www.w3.org/1999/xlink">


<g id="background">
<rect id="" width="370" height="250" fill="#222222"/>
</g>
  <g id="233" style="stroke-miterlimit: 3; fill: #F1F1F1; stroke: #000000; stroke-opacity: 1; stroke-width: 0.05; stroke-linejoin: bevel; stroke-linecap: square">
    <polygon id="Estonia" points="230.6,65.5 236.0,67.3 242.2,65.3 245.1,65.9 245.9,66.0 247.9,67.2 258.6,68.0 266.0,69.4 270.0,70.6 271.3,71.0 272.2,71.1 273.9,70.9 274.6,70.7 276.0,70.4 276.6,70.1 277.6,69.6 279.5,69.7 281.2,69.9 282.7,70.2 286.2,71.7 288.3,72.8 290.9,74.1 292.8,74.8 293.4,75.0 294.7,75.4 296.9,75.9 299.4,76.2 300.4,76.3 303.4,76.3 306.6,76.4 312.3,76.1 324.2,76.0 326.3,76.0 327.3,76.1 328.1,76.2 329.6,76.5 331.2,76.8 333.7,77.2 350.8,78.4 352.7,78.4 353.6,78.3 355.8,77.8 357.0,77.3 358.4,76.5 359.2,75.8 360.6,74.2 361.2,74.5 364.1,75.7 366.0,76.7 369.5,78.9 370.2,79.4 370.9,80.2 370.9,80.9 370.1,83.0 369.6,84.1 368.8,84.8 368.0,85.2 365.2,85.6 362.9,85.8 361.4,86.0 360.3,85.8 359.4,85.5 358.0,85.4 356.8,85.5 355.0,86.1 352.7,88.8 350.2,93.3 348.6,96.1 348.2,97.1 347.6,98.4 342.5,102.9 341.6,103.3 336.2,106.1 333.5,107.4 332.5,107.8 330.2,108.9 328.1,110.7 327.1,111.7 326.4,112.6 326.1,113.6 326.0,114.4 327.7,120.3 329.9,126.7 330.3,127.7 330.6,128.3 331.6,130.6 331.8,131.2 332.6,134.0 333.0,136.2 333.1,137.3 333.1,138.5 332.9,139.2 332.1,140.0 331.4,140.5 330.4,141.1 329.7,141.6 328.7,142.6 328.5,143.7 328.9,147.1 329.1,147.8 329.4,148.4 333.4,152.3 334.4,152.9 335.2,153.3 336.5,153.8 337.9,154.3 338.8,154.6 339.3,154.7 340.1,155.1 340.7,155.6 341.1,156.6 341.4,162.2 346.5,165.9 347.1,166.1 348.3,166.6 349.0,167.0 349.4,167.6 348.8,168.3 347.2,169.0 345.3,169.6 344.2,169.8 342.3,170.0 340.7,170.1 338.1,170.2 335.1,170.5 333.6,170.7 325.1,178.5 321.7,183.7 321.7,184.2 322.0,185.3 322.5,186.5 323.1,187.2 319.5,187.5 306.6,185.7 305.6,185.4 304.5,184.2 303.8,183.5 302.6,182.8 301.3,182.4 299.8,182.1 296.0,181.6 294.7,181.5 294.1,181.7 283.9,184.9 280.3,186.0 279.8,186.3 279.1,187.4 278.4,187.8 274.7,188.0 273.8,188.0 273.1,187.8 261.6,183.2 260.7,182.8 260.1,182.4 259.3,181.7 255.2,178.0 245.4,170.5 240.3,168.7 236.6,168.6 233.8,168.3 231.8,168.0 221.4,165.1 212.0,160.5 211.3,159.9 211.1,159.0 210.6,158.5 209.7,158.2 203.1,155.5 202.4,155.3 201.2,155.5 200.7,155.7 200.6,156.7 202.0,157.5 202.5,158.0 202.7,158.7 202.7,159.4 201.8,160.0 199.6,160.7 198.7,160.6 198.2,160.4 197.7,159.9 197.3,158.6 197.1,157.9 196.8,157.3 196.4,156.8 195.7,156.1 195.1,155.9 193.3,155.8 192.4,155.8 190.5,156.1 189.3,156.4 188.7,156.7 187.4,157.3 186.1,157.9 169.2,162.3 159.7,162.8 158.6,163.0 153.4,165.3 152.8,165.8 152.6,166.5 151.9,167.2 150.5,167.7 148.8,167.8 145.9,167.8 145.4,167.7 146.7,164.6 147.2,163.7 147.6,162.9 148.2,162.0 149.7,160.1 150.4,159.3 151.0,158.5 151.8,157.8 153.6,155.8 154.4,153.1 154.5,152.5 154.5,151.6 153.4,149.6 154.4,146.3 154.9,145.5 156.0,145.0 157.7,144.3 158.6,143.7 159.4,143.0 159.7,142.0 159.4,141.2 158.5,140.6 157.2,139.7 153.7,138.2 151.5,137.7 149.8,137.5 148.1,137.4 147.3,137.5 146.6,137.6 146.0,137.8 144.5,139.3 144.1,140.7 144.0,141.7 143.4,142.5 141.4,144.1 133.5,146.7 132.9,146.5 130.4,144.6 127.7,142.9 126.7,142.3 125.5,141.9 124.1,141.5 123.4,141.3 117.0,139.6 114.4,139.9 113.7,140.0 111.3,138.7 108.4,135.5 105.6,129.8 104.8,129.6 99.4,127.8 98.1,126.7 97.7,119.9 99.3,117.5 100.3,116.8 100.9,117.0 102.0,117.5 102.8,117.6 103.9,117.6 111.1,116.9 119.4,115.7 118.8,114.9 117.0,114.2 115.7,113.8 114.9,113.7 103.3,114.4 97.0,113.1 93.4,107.7 93.1,106.8 94.0,105.6 94.8,105.5 96.7,105.7 98.4,105.7 102.5,105.1 103.1,104.9 106.0,103.8 105.5,102.0 105.2,101.2 103.3,100.0 102.2,99.5 101.5,99.3 102.1,100.0 103.9,100.7 104.5,101.5 101.3,102.8 98.8,103.2 96.0,103.0 95.2,102.9 94.3,102.2 93.0,101.3 93.8,99.1 94.5,98.3 97.0,96.9 96.0,90.9 95.9,90.1 98.0,89.0 98.6,88.8 104.6,88.1 110.3,88.6 111.2,88.7 111.9,88.5 112.1,87.7 111.1,86.7 111.3,86.0 112.1,85.9 117.2,85.2 118.7,85.6 120.7,86.2 121.6,86.3 123.3,86.2 128.6,85.3 128.5,81.4 128.2,80.5 128.8,79.7 130.0,79.2 130.8,79.2 131.8,79.3 133.2,79.7 134.3,80.2 135.7,81.0 137.3,81.8 137.9,82.1 138.6,82.1 139.4,82.0 145.6,77.3 145.9,75.5 146.8,74.8 147.4,74.7 148.2,74.5 150.0,74.5 151.0,74.6 158.3,75.5 169.1,75.7 173.1,72.4 172.4,71.8 171.9,69.7 173.0,69.1 173.7,69.3 177.1,70.4 178.7,71.7 179.9,72.6 181.0,72.6 188.1,72.3 191.1,71.5 192.3,71.1 194.2,71.2 200.2,72.2 201.7,72.5 203.8,73.1 206.1,73.6 208.0,73.8 208.8,73.5 213.7,69.4 212.5,64.4 212.9,63.5 213.9,63.5 219.6,67.0 220.7,68.0 222.0,69.0 222.6,69.2 223.3,69.4 224.4,69.4 226.0,69.0 226.5,68.8 226.8,67.8 226.4,67.0 225.5,66.4 224.1,64.1 225.0,63.4 225.6,63.2 226.4,63.3 227.1,63.5 229.8,64.8 230.6,65.5 " />
    <polygon id="Estonia" points="54.4,102.1 57.4,102.2 59.8,101.9 60.8,102.0 64.8,103.1 66.2,104.0 71.5,110.7 71.6,111.6 70.2,112.5 69.2,111.9 66.6,111.1 65.9,111.1 62.2,111.8 61.1,112.3 62.1,112.7 62.4,114.4 60.1,115.2 58.2,115.3 57.2,115.2 56.4,115.1 56.0,114.3 56.9,113.7 57.5,113.5 58.6,113.0 58.8,112.3 58.0,112.2 57.2,112.2 55.9,112.6 54.2,113.4 52.7,114.8 51.6,116.4 51.0,117.2 50.4,118.5 49.6,119.2 48.4,119.6 47.1,120.0 45.4,120.2 43.6,120.3 42.6,120.3 41.7,120.2 40.9,120.0 38.7,119.5 38.1,119.3 38.1,118.6 38.2,115.8 36.9,111.9 35.5,110.5 34.3,109.5 33.5,108.9 32.3,108.5 30.3,108.3 26.9,108.5 25.0,109.1 24.1,109.2 21.1,108.5 20.4,108.4 14.5,106.5 13.9,106.3 13.2,105.6 13.8,105.0 14.6,104.9 21.9,105.1 32.6,104.9 36.0,104.0 38.0,103.4 39.1,102.5 41.2,100.8 44.3,98.1 51.4,99.1 51.4,100.9 52.6,101.9 53.4,102.0 54.4,102.1 " />
    <polygon id="Estonia" points="85.0,104.2 79.4,104.3 78.5,104.2 77.8,104.1 76.9,103.4 75.5,101.1 75.7,100.3 76.3,100.0 76.9,99.8 77.7,99.7 79.5,99.6 80.1,99.6 87.9,99.9 88.7,100.0 89.4,100.2 90.0,100.5 91.4,101.8 91.7,102.7 91.1,103.4 90.4,103.6 85.9,104.2 85.0,104.2 " />
    <polygon id="Estonia" points="90.1,129.4 82.1,129.4 81.4,129.2 74.2,126.5 73.1,126.0 72.4,125.3 72.5,124.4 77.1,121.5 77.6,121.2 79.0,120.9 79.8,120.8 80.6,120.7 81.5,120.8 83.3,121.2 84.7,121.6 87.4,122.4 88.6,122.8 91.9,127.3 92.0,128.2 90.8,129.2 90.1,129.4 " />
    <polygon id="Estonia" points="68.4,125.5 74.2,127.4 84.2,131.4 84.8,131.6 85.7,132.2 87.5,133.4 88.2,134.1 88.0,135.0 84.5,135.2 83.5,135.2 82.1,134.8 80.9,134.3 77.2,134.4 73.4,136.2 72.6,137.8 70.6,139.4 54.8,146.2 48.5,146.8 44.6,146.2 41.0,146.1 39.1,146.1 38.4,146.2 32.8,147.2 32.1,147.4 27.6,149.3 27.0,149.5 26.3,150.3 26.4,151.1 26.8,151.9 26.2,154.3 22.5,161.0 16.5,164.3 15.0,165.1 13.8,165.5 13.0,165.5 12.1,165.5 11.4,165.3 10.8,165.0 9.6,162.7 9.9,161.6 15.6,155.8 16.6,155.3 17.3,155.3 19.6,155.2 22.2,152.2 22.2,151.4 21.1,150.9 19.2,151.0 18.4,150.9 15.3,150.3 14.8,150.1 4.1,145.6 3.2,145.0 2.0,144.0 1.5,143.2 3.5,140.5 4.1,140.3 4.9,140.3 8.2,140.3 11.2,139.7 10.6,138.0 5.9,133.6 5.1,133.0 3.7,132.6 3.1,132.4 2.1,131.9 1.0,130.9 1.6,130.7 6.4,130.1 9.9,130.2 10.8,130.3 17.3,131.6 21.8,128.5 22.3,128.3 29.8,126.6 39.9,125.2 47.1,125.7 55.4,125.3 57.7,124.4 58.7,124.3 61.5,124.3 63.4,124.3 64.1,124.4 67.7,125.3 68.4,125.5 " />
    <polygon id="Estonia" points="126.5,154.4 125.8,154.5 124.9,154.4 124.3,154.2 123.5,153.6 123.6,152.5 124.0,151.7 125.0,151.1 125.9,151.0 126.8,151.1 127.4,151.3 128.0,151.6 128.5,152.2 128.0,153.6 127.2,154.2 126.5,154.4 " />
  </g>
</svg>