<?xml version="1.0" encoding="UTF-8" standalone="yes"?>
<!DOCTYPE svg PUBLIC "-//W3C//DTD SVG 1.0//EN" "http://www.w3.org/TR/2001/REC-SVG-20010904/DTD/svg10.dtd">
<svg height="250" width="370" xmlns="http://www.w3.org/2000/svg" xmlns:svg="http://www.w3.org/2000/svg" xmlns:xlink="http://www.w3.org/1999/xlink">


<g id="background">
<rect id="" width="370" height="250" fill="#222222"/>
</g>
  <g id="234" style="stroke-miterlimit: 3; fill: #F1F1F1; stroke: #000000; stroke-opacity: 1; stroke-width: 0.05; stroke-linejoin: bevel; stroke-linecap: square">
    <polygon id="Faroe Islands" points="311.0,27.9 308.8,27.9 306.9,27.6 292.6,24.6 290.6,22.2 276.1,3.3 276.5,2.5 280.1,0.7 281.5,0.2 283.0,0.0 288.2,2.6 290.4,3.9 314.6,24.8 311.0,27.9 " />
    <polygon id="Faroe Islands" points="266.5,34.8 264.2,34.9 260.9,34.3 259.7,33.7 258.0,32.2 247.0,18.5 246.1,16.7 246.0,15.6 246.4,12.3 246.6,11.2 247.9,6.1 249.4,5.6 251.6,5.6 253.5,5.9 255.0,6.5 269.5,22.4 271.3,24.9 272.5,28.6 272.6,29.7 272.5,30.6 271.5,32.6 269.8,34.2 266.5,34.8 " />
    <polygon id="Faroe Islands" points="307.9,52.8 283.3,56.5 281.0,55.3 274.0,49.6 269.8,45.9 267.4,42.6 265.9,39.0 275.1,36.2 275.6,23.8 269.3,11.7 277.4,9.8 278.7,13.5 282.2,19.6 289.5,26.2 290.5,26.9 305.1,31.7 313.1,33.9 314.5,34.4 315.3,35.2 315.4,36.2 315.1,37.4 310.8,50.9 310.4,51.6 309.5,52.5 307.9,52.8 " />
    <polygon id="Faroe Islands" points="248.7,75.5 248.7,84.5 245.7,83.9 225.1,75.4 183.2,56.9 176.7,53.2 172.7,50.5 161.1,42.3 157.6,39.5 156.5,37.8 148.3,25.1 148.9,20.7 174.2,14.3 176.1,14.6 179.2,15.6 211.6,26.4 229.5,33.9 262.7,49.6 263.5,50.3 265.9,65.1 250.6,73.0 249.5,73.7 248.9,74.6 248.7,75.5 " />
    <polygon id="Faroe Islands" points="258.0,41.4 257.1,42.2 255.0,42.0 248.6,40.3 242.8,38.3 241.7,37.7 235.3,25.5 233.0,16.2 255.0,34.2 256.6,35.6 257.9,39.4 258.2,40.3 258.0,41.4 " />
    <polygon id="Faroe Islands" points="236.5,113.9 233.8,114.9 231.9,114.6 220.1,110.8 196.3,99.0 173.5,86.8 155.2,70.6 131.5,67.3 106.3,55.6 105.6,54.8 105.6,53.8 105.9,50.5 106.1,49.3 111.6,27.8 115.3,22.9 116.2,22.1 130.4,23.1 132.1,23.5 142.1,26.3 146.3,27.8 147.5,28.4 148.3,29.2 149.6,30.8 150.9,34.6 152.7,38.1 153.3,38.9 154.7,40.5 166.1,50.5 170.3,53.2 177.2,56.7 184.5,60.2 203.1,67.5 229.5,87.6 232.1,89.7 233.5,91.3 239.1,103.5 239.1,104.5 237.6,113.2 236.5,113.9 " />
    <polygon id="Faroe Islands" points="151.5,81.6 150.2,83.4 148.3,86.1 122.9,92.5 117.8,93.5 113.8,93.8 116.3,90.7 116.2,88.5 115.8,87.6 114.7,86.0 111.3,84.1 107.6,82.4 106.2,82.3 106.0,83.4 101.6,87.8 78.2,85.4 76.5,85.0 70.1,82.3 69.2,81.5 57.0,69.6 56.3,67.8 56.1,66.7 56.0,63.6 56.3,62.8 58.1,62.5 106.5,58.7 108.5,58.9 123.4,66.5 149.9,73.9 152.7,75.0 153.6,75.7 153.8,76.6 153.6,77.8 151.5,81.6 " />
    <polygon id="Faroe Islands" points="261.9,142.6 255.5,157.6 253.3,160.2 250.0,162.1 237.0,153.5 204.4,143.6 203.2,143.6 197.0,138.7 186.4,122.9 186.5,122.0 187.4,121.2 197.4,121.3 199.6,121.5 217.5,123.9 219.1,124.3 247.8,133.4 250.0,134.6 261.9,141.5 261.9,142.6 " />
    <polygon id="Faroe Islands" points="249.3,249.7 248.0,250.0 246.1,249.7 233.4,245.2 202.0,230.2 174.1,197.9 173.0,192.8 173.7,191.9 177.5,188.4 182.1,187.3 185.6,186.7 191.2,186.4 231.0,203.5 232.1,204.1 235.8,207.9 249.3,238.9 252.6,246.9 252.5,247.8 249.3,249.7 " />
  </g>
</svg>