<?xml version="1.0" encoding="UTF-8" standalone="yes"?>
<!DOCTYPE svg PUBLIC "-//W3C//DTD SVG 1.0//EN" "http://www.w3.org/TR/2001/REC-SVG-20010904/DTD/svg10.dtd">
<svg height="250" width="370" xmlns="http://www.w3.org/2000/svg" xmlns:svg="http://www.w3.org/2000/svg" xmlns:xlink="http://www.w3.org/1999/xlink">


<g id="background">
<rect id="" width="370" height="250" fill="#222222"/>
</g>
  <g id="24" style="stroke-miterlimit: 3; fill: #F1F1F1; stroke: #000000; stroke-opacity: 1; stroke-width: 0.05; stroke-linejoin: bevel; stroke-linecap: square">
    <polygon id="Angola" points="98.2,5.0 97.4,5.1 93.9,6.0 93.2,6.4 91.3,8.9 91.2,9.4 89.3,11.2 88.8,11.5 87.9,13.3 88.0,16.2 87.8,24.5 87.1,24.5 84.9,24.6 83.4,24.7 82.6,24.9 81.4,24.3 81.0,23.7 81.0,22.7 81.1,22.0 81.4,21.1 82.1,21.1 82.5,20.5 82.4,20.0 81.4,17.1 81.2,16.6 80.6,15.4 79.7,13.9 79.0,12.8 78.5,12.0 78.7,11.5 81.2,9.3 81.5,8.5 81.6,8.0 82.0,6.8 83.1,7.3 83.6,7.3 84.1,7.4 85.2,6.0 85.4,5.2 85.3,4.5 85.6,4.0 86.7,3.7 89.8,3.2 90.4,2.4 90.8,1.7 91.8,0.6 92.3,0.0 94.0,0.2 94.6,0.5 94.7,1.0 95.0,1.7 96.8,3.5 97.5,4.2 98.2,4.5 98.2,5.0 " />
    <polygon id="Angola" points="114.8,26.8 116.3,27.1 119.3,27.5 121.1,27.6 125.8,27.9 127.9,27.4 128.8,27.3 130.5,27.2 134.6,27.0 145.7,26.9 148.1,27.2 150.2,27.0 153.4,27.0 154.2,26.9 155.5,26.8 157.4,26.8 158.3,26.9 161.0,27.3 162.2,27.7 162.7,29.2 162.7,30.1 164.0,32.0 164.7,32.6 164.9,33.2 164.4,36.0 164.2,36.9 164.5,38.1 165.9,42.1 166.9,44.1 167.5,45.2 168.1,45.4 168.6,45.9 169.3,48.1 169.2,49.1 168.7,50.0 168.8,51.4 169.7,53.3 171.1,54.1 171.7,54.9 171.8,55.6 172.7,56.2 173.3,57.3 175.1,60.4 175.6,61.8 177.0,63.4 177.6,63.6 179.2,66.3 179.5,67.2 180.1,67.8 181.4,68.0 182.0,67.9 183.8,67.5 186.0,67.0 186.8,67.1 187.5,67.5 188.3,68.2 189.0,68.2 190.4,68.2 190.3,66.8 191.8,66.2 194.3,66.2 195.6,66.4 197.9,66.2 197.8,65.5 198.0,65.0 202.3,65.0 202.4,65.7 202.8,66.2 206.6,66.2 213.4,66.2 213.2,65.1 213.0,64.3 213.2,62.9 213.5,62.3 213.9,60.7 213.6,59.3 213.4,58.7 214.1,58.4 215.0,58.4 216.3,56.8 216.4,56.1 215.8,54.8 215.6,53.8 215.6,53.0 215.7,51.2 215.9,50.5 216.5,47.8 224.3,47.8 230.7,47.8 230.7,47.1 231.0,46.3 236.5,46.3 236.3,47.3 235.7,48.5 235.0,49.9 234.7,51.2 234.6,52.3 235.0,53.1 247.1,53.1 254.3,53.1 257.5,53.1 258.1,53.5 258.7,54.6 259.1,56.6 258.9,58.8 258.6,59.6 257.5,62.0 257.3,63.2 257.0,65.0 257.1,66.2 257.7,66.8 258.6,68.7 259.0,69.8 259.4,71.4 260.0,72.3 260.0,73.3 260.5,73.9 260.5,75.3 260.4,76.3 260.2,77.0 259.6,79.7 259.4,80.9 258.9,83.4 258.6,85.9 258.7,87.4 258.4,90.1 258.1,90.9 257.8,92.0 258.9,96.0 259.3,96.8 262.0,100.1 262.7,100.8 264.0,101.1 264.6,101.7 264.8,102.2 265.3,104.5 265.4,105.8 265.8,106.6 266.6,108.0 267.4,109.6 267.2,110.7 266.6,112.3 267.2,113.6 267.3,114.2 267.2,115.3 267.4,116.2 266.3,117.4 265.5,117.8 264.8,118.5 265.2,120.7 265.6,121.6 266.1,122.4 266.4,124.6 266.3,125.1 267.1,125.6 270.2,123.9 270.8,123.2 270.9,122.5 271.3,122.0 271.9,121.9 272.5,122.0 273.1,122.5 273.9,122.8 274.8,123.0 275.8,123.0 276.4,122.7 277.1,122.2 278.2,122.4 278.7,122.9 280.3,123.0 281.5,123.1 283.9,122.7 284.5,122.3 285.4,121.8 286.7,121.0 287.3,120.7 288.3,120.5 289.1,120.5 289.9,120.7 290.7,120.9 292.1,121.5 295.6,121.8 296.2,121.6 297.4,120.2 298.1,118.9 298.1,119.8 298.5,123.5 298.8,125.9 299.9,128.7 299.2,129.2 297.7,133.3 298.0,134.0 298.3,134.6 298.6,136.2 298.0,137.5 297.9,143.3 298.5,143.9 299.0,144.5 299.1,145.1 299.3,146.7 298.1,148.7 296.3,153.4 296.3,154.5 296.6,155.2 297.2,155.7 298.2,156.7 298.5,157.2 298.7,157.8 296.1,158.1 290.7,158.1 287.7,158.1 285.2,158.1 279.9,158.1 270.8,158.1 261.7,158.1 261.6,163.8 261.6,166.3 261.6,170.8 261.6,171.3 261.6,174.8 261.6,175.7 261.6,176.4 261.6,184.6 261.6,190.0 261.6,191.9 261.6,192.8 261.6,193.7 261.6,202.9 261.6,205.8 261.6,213.0 261.6,215.3 261.6,216.2 262.8,217.2 263.7,218.9 264.0,219.5 264.1,220.2 264.0,221.7 265.1,222.9 265.7,223.3 267.0,224.2 270.6,227.2 275.0,232.1 275.6,232.6 281.2,237.4 283.7,240.2 288.3,242.7 285.3,243.5 279.9,244.5 278.3,244.8 277.8,244.9 272.0,246.0 267.0,246.9 257.1,248.7 250.2,250.0 248.2,249.0 247.7,248.6 246.4,248.4 245.8,248.5 243.7,248.8 242.7,249.0 241.3,249.6 240.6,250.0 239.3,249.9 238.7,249.6 236.8,249.3 235.9,249.4 235.3,249.4 234.0,248.6 233.4,248.1 231.1,247.1 230.0,247.1 229.3,247.5 227.3,247.8 226.8,247.8 225.3,247.7 224.6,247.6 224.0,247.2 223.5,247.1 221.7,247.1 221.2,247.2 219.5,247.3 216.9,247.3 214.8,247.2 214.2,247.2 212.9,246.9 212.2,246.5 211.2,246.2 209.8,246.1 209.2,246.0 208.7,246.4 207.6,246.5 207.1,246.6 206.4,246.5 205.2,246.3 203.1,245.5 202.2,245.1 200.0,243.2 198.9,241.9 197.7,240.0 196.5,238.5 195.4,238.5 191.7,238.5 190.4,238.5 188.3,238.4 183.4,238.5 180.2,238.5 179.3,238.5 175.0,238.5 162.7,238.5 151.6,238.4 150.8,238.4 143.9,238.5 142.3,238.5 133.1,238.5 126.5,238.5 123.1,238.5 121.5,238.5 118.9,238.5 118.4,239.0 116.4,239.2 115.8,239.0 115.3,238.9 114.7,239.1 113.6,238.7 112.0,237.3 109.3,235.8 108.7,235.4 106.2,233.4 106.2,232.8 105.6,231.9 103.6,230.9 102.9,230.8 102.4,231.0 101.5,231.1 100.4,230.9 99.7,230.5 97.0,230.9 96.3,231.2 95.1,231.7 94.4,232.0 93.8,232.7 93.2,233.3 89.3,235.5 88.4,235.8 87.0,235.8 86.1,235.3 83.5,235.6 82.5,235.3 82.0,234.9 79.8,233.9 79.1,234.0 77.7,234.4 77.0,234.6 76.4,235.1 75.0,236.2 73.6,236.0 73.7,233.9 74.0,230.7 74.0,228.4 74.7,227.5 74.9,225.9 74.9,225.4 74.9,222.2 74.9,221.7 74.8,220.8 74.7,219.8 74.4,217.4 74.3,216.6 74.1,214.9 74.3,214.1 74.6,213.6 74.7,212.9 74.5,212.3 74.1,211.8 73.5,210.9 73.2,210.3 73.4,209.7 74.0,209.1 74.6,208.8 74.9,209.3 75.5,209.2 76.1,208.6 78.2,205.7 78.5,205.1 78.8,203.9 78.8,203.3 78.8,202.6 78.7,202.0 79.2,198.7 80.1,196.8 81.1,194.5 81.9,192.4 82.7,190.8 83.2,190.2 83.3,188.6 83.4,188.0 83.7,186.0 84.0,184.9 84.3,184.1 84.4,183.5 84.6,182.0 84.6,181.3 84.2,180.6 84.0,180.1 84.3,178.2 84.7,177.1 85.7,175.4 86.8,174.1 87.4,173.6 88.0,168.6 87.8,168.0 87.5,166.0 88.1,165.3 92.2,161.6 94.0,159.5 95.4,157.9 95.8,157.3 95.6,156.6 95.2,155.4 95.3,154.8 96.0,154.0 98.8,151.7 100.1,150.7 100.7,150.9 102.9,150.7 103.5,150.3 104.9,149.1 105.2,148.4 105.2,147.8 105.4,147.1 105.8,146.5 106.7,145.6 108.7,142.7 110.5,138.6 111.0,135.9 111.1,135.2 111.0,134.7 110.7,131.9 110.8,130.8 111.0,127.5 111.5,126.9 112.1,123.0 112.2,121.4 112.1,120.5 111.9,119.9 110.9,118.6 109.8,117.2 110.1,116.4 110.7,115.8 110.7,115.3 110.2,114.7 108.3,112.7 106.5,110.8 106.1,110.1 106.2,109.4 106.0,108.3 105.5,107.5 104.8,106.5 102.2,102.4 102.6,101.4 102.1,100.3 101.2,98.8 100.5,96.7 100.6,95.9 99.6,92.1 99.1,90.8 98.7,90.1 96.2,86.2 96.6,85.0 97.0,84.0 97.9,83.1 98.9,82.2 98.6,82.8 97.8,83.5 97.1,84.3 96.7,85.2 96.7,86.2 97.5,85.0 98.4,83.8 100.0,82.1 101.6,80.6 103.1,80.3 103.6,79.8 104.0,78.4 103.9,77.8 103.3,76.9 103.0,75.5 102.9,74.9 103.4,74.9 103.7,73.6 103.4,72.4 103.1,71.9 102.4,71.0 101.3,69.3 100.5,67.4 100.2,66.8 99.4,64.7 98.7,63.0 98.4,62.4 97.9,61.8 96.7,58.8 96.2,57.6 95.6,55.9 94.1,52.8 93.6,49.5 93.5,48.3 93.4,47.7 93.2,47.0 90.5,43.8 89.2,42.3 88.4,41.8 88.0,41.2 86.7,38.2 84.8,34.3 84.4,33.6 83.9,33.1 83.0,32.0 82.7,31.4 83.3,30.7 83.9,30.6 83.9,31.3 85.7,31.0 87.9,30.4 88.8,30.2 91.5,29.9 92.7,29.9 93.3,29.7 94.5,29.2 95.2,28.6 95.5,28.0 96.1,27.5 97.4,27.3 98.1,27.7 98.7,27.6 99.7,27.1 101.0,27.0 103.9,26.9 104.8,26.8 105.9,26.9 106.5,27.1 110.5,27.0 113.7,26.6 114.3,26.6 114.8,26.8 " />
    <polygon id="Angola" points="73.6,226.9 74.0,227.8 73.5,227.4 72.6,225.5 72.1,224.1 72.0,223.5 72.4,222.9 72.9,223.0 73.2,223.9 73.1,224.5 73.2,225.6 73.5,226.7 " />
  </g>
</svg>