<?xml version="1.0" encoding="UTF-8" standalone="yes"?>
<!DOCTYPE svg PUBLIC "-//W3C//DTD SVG 1.0//EN" "http://www.w3.org/TR/2001/REC-SVG-20010904/DTD/svg10.dtd">
<svg height="250" width="370" xmlns="http://www.w3.org/2000/svg" xmlns:svg="http://www.w3.org/2000/svg" xmlns:xlink="http://www.w3.org/1999/xlink">


<g id="background">
<rect id="" width="370" height="250" fill="#222222"/>
</g>
  <g id="246" style="stroke-miterlimit: 3; fill: #F1F1F1; stroke: #000000; stroke-opacity: 1; stroke-width: 0.05; stroke-linejoin: bevel; stroke-linecap: square">
    <polygon id="Finland" points="236.4,4.3 237.2,4.4 237.9,4.5 239.1,4.7 239.9,4.8 240.6,5.1 241.1,5.8 241.6,6.4 242.2,6.5 249.2,7.8 250.4,8.0 254.5,8.6 255.4,8.8 256.5,8.9 259.1,9.3 259.8,9.8 260.9,11.0 263.8,14.4 263.6,15.2 259.6,17.5 258.2,18.1 257.5,18.4 256.7,18.8 255.0,19.5 254.3,19.8 252.7,20.6 251.7,21.9 251.4,22.6 251.4,23.2 251.9,23.9 252.5,24.2 253.2,24.5 254.0,24.7 255.6,25.2 254.6,25.4 253.7,25.6 253.2,25.7 250.5,26.5 243.5,28.5 242.9,29.0 243.6,29.5 244.7,29.6 246.1,29.5 249.5,29.4 250.3,29.5 251.6,29.9 252.2,30.1 251.9,30.9 250.9,32.4 250.3,32.9 248.3,34.2 245.1,36.4 243.7,37.6 246.0,41.4 248.5,45.0 249.2,46.0 252.4,46.6 260.6,47.9 265.3,48.8 266.0,49.3 269.8,52.3 273.5,55.3 274.4,55.6 278.6,57.1 281.7,58.2 280.4,61.2 280.1,61.9 279.3,62.6 278.5,63.1 274.8,65.0 269.4,67.9 260.5,74.3 259.9,74.8 258.9,75.7 258.6,76.5 258.5,77.2 258.5,78.0 258.9,78.7 259.7,79.4 261.6,80.6 262.6,81.0 263.3,81.5 264.4,82.2 265.2,82.8 266.0,84.1 266.7,84.8 270.1,88.0 270.5,89.0 270.6,89.5 271.0,90.1 271.9,91.2 275.4,94.2 276.1,94.7 276.7,95.1 277.3,95.4 278.0,95.7 278.5,96.0 279.0,96.7 279.7,98.2 281.8,101.3 283.2,103.2 283.5,103.8 284.2,106.2 284.2,107.3 283.7,107.5 283.0,107.4 281.9,106.9 280.8,107.1 276.6,107.8 276.9,109.4 276.1,110.6 275.2,111.0 274.6,112.0 274.6,112.6 274.8,113.6 274.9,115.1 273.8,115.9 273.2,116.2 271.8,117.0 271.2,117.4 271.5,118.0 272.2,118.3 272.8,118.3 274.6,118.2 275.8,118.2 276.5,118.3 277.2,118.4 277.7,118.7 277.9,120.7 277.0,121.1 276.3,121.3 275.5,121.4 274.3,121.5 273.3,121.7 272.6,121.9 272.0,122.2 271.5,123.1 271.4,123.7 272.1,125.5 272.5,126.0 274.0,127.3 274.6,127.7 275.5,128.3 276.2,128.7 277.2,128.8 278.3,128.7 279.2,128.7 279.8,128.7 282.1,128.7 282.8,128.7 283.8,128.9 284.4,129.2 286.1,131.7 285.8,132.2 285.1,132.8 284.4,133.0 282.7,133.3 281.8,133.5 280.5,133.8 280.7,134.6 281.2,135.6 282.2,135.8 283.1,136.3 283.0,137.0 282.5,137.7 282.6,138.4 283.9,139.0 284.8,139.4 285.8,139.5 288.8,140.0 289.7,140.2 290.5,140.5 294.4,142.0 294.9,142.4 295.8,145.5 295.8,146.2 295.4,146.9 294.6,147.5 293.8,148.0 292.9,148.6 290.7,149.7 287.7,152.1 287.2,152.4 286.1,152.9 284.3,153.4 282.5,153.7 281.8,153.8 281.1,154.0 281.1,154.6 286.0,157.4 286.5,157.7 287.2,158.0 288.5,158.4 289.7,158.7 290.5,159.0 292.0,160.0 292.5,160.5 296.8,161.6 298.4,162.0 303.2,163.7 309.8,166.5 310.6,166.9 311.2,167.3 314.6,170.6 317.8,172.6 319.6,174.4 318.0,175.9 317.0,176.7 315.7,178.2 313.1,181.7 312.4,182.9 312.1,183.6 311.6,184.3 307.3,186.6 304.4,188.4 301.3,190.0 300.2,190.5 298.1,191.5 296.4,192.6 290.6,196.2 288.3,197.7 285.9,199.3 284.7,200.1 281.1,203.0 276.3,206.2 273.3,208.0 272.5,208.4 268.8,210.3 265.5,212.1 264.8,212.6 264.0,213.2 263.4,213.8 262.7,214.2 261.9,214.8 260.9,215.2 258.4,216.1 256.0,217.0 252.3,218.3 249.9,219.8 248.7,220.9 248.2,221.5 247.7,221.9 246.4,221.9 245.7,221.9 245.0,222.1 243.7,222.8 241.8,223.7 240.9,224.2 240.4,224.7 239.6,225.3 238.9,225.7 238.3,226.0 234.6,227.9 229.6,230.9 227.7,232.0 227.1,231.4 226.6,231.3 226.0,231.5 225.9,232.2 226.0,232.8 224.4,233.0 222.8,233.0 219.6,232.9 219.5,233.7 215.2,233.0 214.7,232.5 213.5,231.1 208.8,232.2 207.3,234.4 205.7,233.7 203.5,233.8 201.7,234.3 200.0,234.9 197.4,234.9 196.0,234.5 195.3,233.9 197.5,231.3 198.2,230.7 198.7,230.5 199.5,230.5 200.5,230.7 201.6,231.3 201.3,230.2 200.6,229.7 199.8,229.5 198.7,229.7 197.0,231.1 195.0,232.9 194.7,233.5 195.1,234.1 195.5,234.6 194.9,235.1 194.0,235.7 187.3,235.7 185.2,235.0 186.5,237.2 186.0,237.8 184.8,238.1 184.8,237.5 183.6,236.9 181.2,235.8 179.8,235.5 180.4,235.9 181.5,236.5 182.0,239.2 181.3,239.4 180.8,238.9 177.8,237.6 177.5,238.2 178.6,238.7 179.6,238.7 178.4,239.6 176.9,239.2 175.8,238.6 175.2,238.1 175.2,237.1 176.3,237.0 176.0,236.5 175.5,236.5 173.4,237.3 172.7,237.7 171.3,239.3 168.4,239.0 164.3,239.4 163.0,239.8 163.8,240.1 164.4,240.3 161.0,241.5 158.4,241.9 155.8,241.9 153.4,241.9 149.8,242.3 149.9,242.9 149.5,243.9 146.8,245.5 145.4,245.6 145.4,244.6 144.0,243.6 143.2,243.5 142.2,243.6 140.4,244.3 136.9,244.9 130.2,246.2 127.9,246.4 126.1,246.4 124.5,246.0 123.2,246.0 121.4,246.5 122.5,245.3 123.5,244.8 124.1,243.6 123.4,243.7 122.8,243.8 119.7,246.7 116.9,249.2 115.5,249.4 108.6,250.0 109.2,249.1 112.9,248.2 113.6,248.1 114.6,248.1 117.1,247.2 118.0,246.3 118.7,245.3 119.0,244.6 118.4,244.9 117.6,245.8 116.9,246.6 116.3,247.1 113.7,247.1 113.4,246.0 114.9,245.6 115.7,245.4 116.3,245.2 117.1,244.4 115.6,244.1 114.4,244.1 113.5,244.3 112.8,244.5 112.0,244.4 110.7,243.9 110.6,243.3 111.2,242.8 111.9,242.4 111.4,242.1 110.0,242.5 108.5,242.2 107.8,241.7 107.6,240.9 108.4,240.1 109.2,239.6 109.9,239.2 111.1,238.5 112.9,237.0 112.2,236.7 108.8,237.9 106.1,238.9 105.0,239.3 104.1,239.5 103.5,239.7 102.6,239.9 100.5,240.1 97.5,239.4 97.7,238.9 98.4,238.3 99.5,237.7 101.6,236.3 101.9,235.7 98.3,235.7 93.2,235.9 92.3,235.3 90.8,234.8 89.3,234.3 88.5,234.5 86.8,233.9 85.8,233.4 85.3,232.8 83.3,232.5 82.6,232.5 83.2,233.8 81.7,233.5 81.6,231.7 82.3,231.1 82.2,230.2 81.0,230.6 78.3,231.8 76.5,232.9 76.2,231.6 75.4,231.4 74.8,231.3 74.3,231.3 73.7,231.5 73.2,231.6 72.6,231.3 70.9,229.4 70.8,228.6 71.6,228.6 71.7,226.9 70.8,225.4 70.2,224.2 71.6,222.4 72.0,220.2 73.0,216.9 74.2,215.2 75.4,214.2 75.7,213.4 75.1,210.1 74.8,208.6 74.3,208.3 73.5,207.6 74.2,207.0 76.9,207.7 78.2,208.0 76.8,206.3 75.2,205.1 73.6,202.6 74.1,201.6 72.2,199.3 71.0,198.4 69.5,198.1 68.3,196.5 69.1,195.0 69.6,194.0 70.3,192.9 71.4,192.3 71.7,191.7 71.2,190.3 70.4,188.2 68.5,187.5 66.0,186.6 64.9,185.7 65.0,184.7 65.2,183.3 63.8,182.3 64.7,178.1 65.4,177.5 69.4,175.7 70.4,175.9 71.0,175.8 71.8,175.1 72.7,173.7 73.0,173.1 73.1,172.2 72.7,171.6 74.2,170.7 74.8,170.7 75.4,171.0 77.3,171.9 78.5,171.9 78.2,171.2 77.1,170.7 76.2,170.5 74.9,169.4 74.4,168.4 74.2,167.7 74.4,167.1 75.2,166.8 75.7,166.8 76.4,167.3 77.6,167.6 79.0,167.2 83.3,166.1 83.8,166.2 83.9,167.3 85.7,167.9 88.6,166.9 90.9,166.7 91.8,166.6 94.7,165.7 95.4,164.8 95.1,164.1 94.5,163.4 93.8,163.2 93.1,162.9 91.4,162.2 91.0,161.6 91.1,161.1 93.4,159.6 94.5,159.6 95.6,160.4 96.9,160.2 98.4,158.6 99.0,157.8 98.7,157.2 100.8,155.4 102.5,155.3 103.0,155.4 103.6,155.8 103.7,156.4 104.3,157.2 105.5,157.1 106.5,156.7 108.4,155.3 109.1,154.0 108.9,152.9 112.4,151.6 114.3,151.0 115.6,150.8 118.6,150.5 119.8,149.5 119.8,148.3 120.0,147.0 121.0,146.8 123.2,147.1 125.4,146.5 125.6,145.6 126.7,144.6 127.7,144.2 128.4,143.5 131.6,142.1 133.3,141.5 133.4,140.8 134.9,138.8 138.0,137.4 140.2,136.5 141.9,135.9 143.3,135.4 143.8,134.8 144.3,133.9 144.1,133.2 145.4,131.6 148.1,130.0 148.2,128.7 152.9,127.2 154.6,126.9 159.4,126.3 161.3,125.9 161.9,125.8 163.8,126.9 164.2,127.5 165.0,128.1 165.8,128.2 166.7,128.2 167.2,128.1 168.2,127.9 168.3,126.3 167.6,126.0 166.8,126.0 165.1,125.5 164.1,124.6 164.5,124.0 167.0,124.1 167.7,124.3 168.2,124.6 169.3,125.1 170.1,124.9 169.5,122.9 168.4,121.8 167.9,121.4 166.7,121.1 165.9,119.6 166.6,117.2 166.7,116.6 167.3,115.3 168.1,113.7 168.1,112.9 168.0,112.1 167.0,111.3 164.8,110.3 164.2,110.1 163.6,110.1 162.9,110.3 162.1,110.0 161.7,109.3 161.1,108.9 156.9,108.0 154.5,107.7 153.9,107.7 153.2,108.0 151.4,107.8 148.8,106.1 148.6,105.4 148.6,104.9 150.4,102.9 151.9,101.9 150.5,102.1 148.8,103.5 148.2,104.4 146.0,104.4 145.3,105.0 140.6,104.9 139.4,104.5 139.2,103.9 139.0,103.3 135.9,98.9 134.3,97.6 133.9,96.9 133.4,96.1 132.5,95.6 131.8,95.5 130.7,95.3 129.2,94.9 128.5,94.6 127.5,93.0 127.0,92.1 126.3,88.9 126.7,88.3 128.4,87.2 130.4,86.3 131.8,86.1 132.3,85.7 132.8,82.9 132.7,82.1 132.5,81.5 133.6,80.3 134.8,80.2 133.9,78.2 131.9,76.8 130.0,75.5 129.2,75.3 128.6,74.9 127.4,73.9 124.9,71.5 125.1,69.4 125.5,68.8 126.3,68.6 127.4,68.4 128.0,68.3 128.6,68.2 129.6,67.4 129.5,65.1 128.7,64.7 125.0,64.2 124.2,64.1 123.6,64.2 123.0,64.5 122.3,64.4 121.7,64.1 121.2,63.5 122.3,61.6 123.2,58.9 122.8,57.8 122.2,55.2 122.6,54.1 123.2,53.6 124.1,53.5 125.3,53.3 126.5,52.9 127.0,52.5 126.8,52.0 123.7,51.0 120.4,49.7 119.7,49.2 112.4,43.8 110.1,43.1 109.3,42.9 108.6,42.8 107.5,42.1 106.7,41.4 102.9,40.6 100.6,40.4 98.7,40.1 97.0,39.8 95.5,39.5 90.6,39.5 88.1,39.2 87.5,39.0 87.0,38.5 86.4,38.1 85.5,37.6 84.9,37.3 84.0,36.9 83.2,36.8 82.2,36.9 81.0,36.8 80.1,36.6 79.5,36.2 77.8,35.2 76.8,34.8 75.6,34.7 74.4,34.5 73.5,34.3 72.4,33.2 67.5,30.9 64.2,29.7 63.6,29.6 62.8,29.4 62.0,29.4 61.2,29.4 60.1,29.2 59.5,28.9 59.5,28.3 60.1,27.9 60.7,27.6 60.0,26.8 59.4,26.5 58.5,26.2 57.1,25.9 56.0,25.7 53.7,25.4 52.6,25.2 52.0,25.0 52.7,24.8 54.3,24.4 54.8,24.2 55.5,24.1 56.7,24.2 57.9,24.4 60.6,25.0 61.7,25.4 63.0,25.7 63.6,25.6 64.2,25.1 64.7,24.4 64.9,23.8 64.1,23.6 63.5,23.1 62.9,21.4 63.5,20.9 70.0,18.5 78.8,19.5 86.4,24.6 87.5,25.2 91.6,27.6 91.3,28.2 93.3,29.3 94.9,30.2 95.3,31.2 96.2,33.5 98.7,33.1 99.9,32.8 106.0,34.0 107.5,33.9 112.4,33.9 113.2,34.4 114.2,35.0 114.8,35.3 115.4,35.4 117.1,35.3 117.7,35.2 118.9,34.7 120.7,34.2 122.2,34.0 123.4,33.8 125.0,33.6 127.0,33.5 127.6,33.5 128.8,32.7 129.3,32.3 129.9,31.9 130.7,30.8 131.6,30.5 132.7,30.5 134.5,30.5 135.8,30.7 136.5,30.8 137.1,31.1 138.0,31.7 139.9,32.5 143.3,33.4 143.9,33.6 145.3,33.7 146.1,33.8 147.6,33.9 149.2,34.0 150.4,34.1 151.9,34.3 153.5,34.7 154.5,35.2 155.3,35.7 155.9,36.4 157.8,36.7 161.3,35.7 161.9,35.4 162.0,34.8 162.0,34.3 163.2,32.1 163.6,31.5 164.6,30.9 168.3,29.5 168.8,29.4 169.3,29.2 169.9,29.1 170.9,29.1 171.8,29.2 172.9,29.4 173.7,29.4 174.3,29.4 175.2,28.9 176.3,28.1 177.9,26.7 178.1,25.4 177.2,23.8 176.6,21.5 176.8,20.3 177.4,18.7 177.8,18.2 179.2,17.5 179.7,17.1 180.7,14.6 182.5,12.4 182.9,11.8 183.1,11.3 182.9,10.7 182.3,10.4 182.9,9.7 183.5,9.3 184.0,9.1 186.2,8.8 187.0,8.6 187.5,8.4 192.7,5.8 193.3,5.4 193.9,4.8 194.3,4.2 195.2,3.7 198.4,3.4 203.3,3.3 204.6,3.4 205.3,3.9 209.0,4.4 209.7,4.4 213.1,3.8 214.9,3.4 215.4,3.3 215.4,2.8 218.3,1.8 221.8,0.6 222.6,0.4 229.3,0.0 230.0,0.0 230.6,0.0 231.4,0.5 231.7,1.1 231.7,1.8 232.3,2.3 234.6,3.7 236.1,4.2 " />
    <polygon id="Finland" points="146.4,105.1 145.7,105.0 146.4,104.5 147.2,104.6 146.4,105.1 " />
    <polygon id="Finland" points="153.0,125.1 152.3,125.0 149.8,124.6 148.9,123.9 148.5,123.1 150.1,122.3 150.8,122.2 151.6,122.0 152.2,122.0 154.8,121.8 155.4,121.8 159.9,122.6 158.5,123.1 155.7,123.6 155.1,124.6 153.0,125.1 " />
    <polygon id="Finland" points="107.7,152.9 107.6,153.6 106.4,153.4 105.2,153.3 103.7,153.5 103.0,153.2 103.1,152.7 106.1,151.0 107.6,151.1 108.2,151.2 108.8,152.1 108.1,152.5 " />
    <polygon id="Finland" points="70.0,165.3 67.9,164.5 69.3,163.8 70.4,163.8 71.3,163.9 70.6,165.0 70.0,165.3 " />
    <polygon id="Finland" points="90.9,165.9 88.4,165.5 87.6,165.0 88.3,164.6 91.2,164.5 91.6,165.0 91.0,165.7 " />
    <polygon id="Finland" points="64.1,165.5 69.3,166.5 70.7,166.2 71.2,166.1 72.2,166.2 72.6,167.5 69.7,168.6 69.0,168.7 68.2,168.8 66.9,167.8 66.2,168.1 65.4,167.7 64.6,166.6 64.2,165.8 " />
    <polygon id="Finland" points="70.1,223.9 68.6,223.9 68.2,222.2 68.7,221.8 69.4,221.7 70.0,222.1 70.6,222.6 70.1,223.9 " />
    <polygon id="Finland" points="69.2,230.4 69.2,231.6 67.8,230.9 67.4,230.3 68.4,229.6 69.2,230.4 " />
    <polygon id="Finland" points="73.9,232.6 72.7,233.8 72.1,233.7 70.1,232.7 70.0,232.1 70.9,231.7 71.7,231.7 73.3,232.2 73.9,232.5 " />
    <polygon id="Finland" points="70.2,233.6 68.9,233.6 67.8,231.9 68.9,232.1 70.0,233.2 " />
    <polygon id="Finland" points="80.5,233.1 79.0,234.3 79.1,233.5 79.9,232.6 80.6,232.5 80.6,233.0 " />
    <polygon id="Finland" points="86.1,237.4 85.5,237.4 84.1,237.1 82.1,236.6 81.5,236.3 81.8,234.1 82.3,233.9 84.0,234.5 84.9,235.1 86.4,236.5 86.5,237.1 " />
    <polygon id="Finland" points="95.8,238.3 94.2,237.6 94.5,237.0 96.1,236.7 98.0,237.3 97.5,237.8 96.7,238.1 95.8,238.3 " />
    <polygon id="Finland" points="94.8,238.4 94.3,238.9 93.7,238.8 92.2,239.1 91.7,239.4 91.8,238.7 90.0,238.4 90.9,238.6 90.2,239.0 89.6,239.0 88.4,238.9 88.2,238.3 88.8,237.8 91.5,237.7 92.4,237.8 94.2,238.1 94.8,238.3 " />
    <polygon id="Finland" points="175.9,239.5 174.9,240.4 174.0,240.2 173.1,238.9 173.4,238.2 174.1,238.2 175.8,239.2 " />
    <polygon id="Finland" points="92.4,240.9 91.7,240.9 91.7,240.4 91.9,239.8 92.6,239.4 93.4,239.2 93.9,239.8 92.9,240.6 92.4,240.9 " />
    <polygon id="Finland" points="106.5,239.7 106.8,240.5 107.1,242.2 106.9,242.9 104.4,245.2 103.1,245.3 101.9,245.1 101.1,245.7 101.1,245.1 100.4,244.6 99.4,245.1 98.0,245.3 98.0,243.5 96.8,242.6 96.6,241.6 97.0,240.5 97.4,240.0 98.0,240.0 100.8,240.3 102.2,240.1 104.3,239.9 106.5,239.7 " />
    <polygon id="Finland" points="180.1,240.5 179.3,240.5 179.8,240.0 180.7,240.1 180.1,240.5 " />
    <polygon id="Finland" points="86.5,242.1 85.6,242.0 85.0,241.3 87.3,240.3 88.0,240.3 87.2,241.8 86.5,242.1 " />
    <polygon id="Finland" points="71.8,240.9 71.6,241.5 69.7,241.0 68.8,240.8 69.4,240.3 70.4,240.3 71.6,240.7 " />
    <polygon id="Finland" points="80.4,242.6 79.9,242.6 79.3,242.5 79.3,241.2 82.3,240.6 83.0,240.6 83.7,241.0 83.2,241.5 81.3,242.4 80.4,242.6 " />
    <polygon id="Finland" points="76.7,242.9 74.8,243.0 74.0,242.6 74.4,241.9 75.1,241.5 75.6,241.3 76.7,241.2 77.6,241.3 78.1,241.5 77.7,242.6 76.7,242.9 " />
    <polygon id="Finland" points="97.2,245.4 95.8,245.6 95.1,244.4 95.0,243.8 96.3,243.2 97.1,243.4 97.5,243.9 97.4,244.9 " />
    <polygon id="Finland" points="106.8,246.3 109.4,246.3 110.4,246.3 112.1,246.3 112.2,247.6 111.2,247.7 109.5,247.6 108.8,247.7 108.0,247.6 107.1,247.2 106.1,246.6 106.2,246.0 106.7,245.9 " />
    <polygon id="Finland" points="128.0,247.0 126.6,247.2 125.8,247.1 123.1,247.3 120.6,247.7 120.1,247.6 120.1,247.1 123.4,246.3 124.2,246.2 128.4,246.9 " />
  </g>
</svg>