<?xml version="1.0" encoding="UTF-8" standalone="yes"?>
<!DOCTYPE svg PUBLIC "-//W3C//DTD SVG 1.0//EN" "http://www.w3.org/TR/2001/REC-SVG-20010904/DTD/svg10.dtd">
<svg height="250" width="370" xmlns="http://www.w3.org/2000/svg" xmlns:svg="http://www.w3.org/2000/svg" xmlns:xlink="http://www.w3.org/1999/xlink">


<g id="background">
<rect id="" width="370" height="250" fill="#222222"/>
</g>
  <g id="248" style="stroke-miterlimit: 3; fill: #F1F1F1; stroke: #000000; stroke-opacity: 1; stroke-width: 0.05; stroke-linejoin: bevel; stroke-linecap: square">
    <polygon id="Aland+Islands" points="228.0,61.8 304.5,92.0 280.8,118.1 262.5,135.8 258.7,136.4 230.9,133.2 228.3,131.7 227.1,129.8 234.5,115.3 236.3,113.0 243.1,111.1 242.1,105.6 220.8,83.2 218.8,81.4 213.0,78.7 209.0,77.5 204.4,77.5 160.2,114.6 160.1,116.8 165.2,124.3 167.0,126.3 169.5,127.7 172.8,129.1 189.4,133.2 204.6,139.6 214.7,160.7 215.3,162.8 214.5,165.2 212.0,166.9 202.9,166.8 194.1,165.3 181.7,165.0 177.6,165.3 175.0,167.0 173.6,169.6 172.0,183.9 169.9,177.4 165.6,167.4 164.4,165.6 161.8,164.0 157.8,163.0 152.5,162.2 144.7,163.1 142.2,164.8 142.7,166.9 143.9,168.8 142.0,170.2 138.3,170.7 133.8,170.7 103.7,168.8 95.4,163.1 83.8,150.8 74.9,137.8 73.7,135.9 54.7,98.9 54.8,96.6 94.6,79.9 108.1,84.7 105.8,97.2 102.2,101.8 100.0,103.8 99.3,106.2 111.9,124.9 113.3,126.7 118.6,127.4 121.5,126.1 166.9,90.9 168.6,88.6 169.4,86.2 169.5,83.8 167.0,80.2 154.1,66.0 151.5,64.5 147.7,65.1 145.9,67.4 144.5,70.1 143.7,72.5 141.8,74.8 139.6,76.8 130.4,73.9 128.5,72.9 107.0,62.2 108.1,60.1 118.2,51.0 124.8,45.1 137.6,40.6 142.2,40.6 156.9,42.0 228.0,61.8 " />
    <polygon id="Aland+Islands" points="352.0,123.4 348.2,124.1 331.4,109.2 330.1,107.4 329.5,105.3 330.4,102.9 332.6,100.9 339.7,95.4 343.4,94.8 350.8,94.9 367.6,98.6 369.4,100.4 370.0,102.4 369.6,104.4 356.9,119.9 352.0,123.4 " />
    <polygon id="Aland+Islands" points="65.9,138.5 64.5,141.2 37.3,140.1 25.7,152.4 20.7,152.1 16.1,151.2 12.8,149.9 5.1,141.0 0.0,131.3 0.7,128.8 9.9,111.4 12.1,109.4 21.6,102.1 24.3,100.6 27.6,99.6 31.3,98.9 36.3,99.3 40.3,100.4 46.3,104.0 61.8,124.1 63.0,126.0 64.8,132.1 65.9,138.5 " />
    <polygon id="Aland+Islands" points="301.7,178.0 298.8,179.3 275.7,168.5 273.8,166.8 273.3,164.8 275.6,157.4 279.9,145.6 282.9,144.3 301.3,144.8 303.9,146.3 308.5,149.5 310.3,151.1 311.6,153.0 312.8,157.2 312.7,159.4 301.7,178.0 " />
    <polygon id="Aland+Islands" points="278.0,208.8 275.0,210.0 248.8,204.2 245.6,202.8 196.0,180.6 194.0,178.9 195.4,176.3 197.6,174.3 231.7,163.9 235.1,162.9 237.7,164.5 238.0,165.9 243.2,168.9 259.3,173.6 271.0,175.2 275.8,175.6 278.5,177.0 284.6,199.7 284.1,200.8 278.0,208.8 " />
  </g>
</svg>