<?xml version="1.0" encoding="UTF-8" standalone="yes"?>
<!DOCTYPE svg PUBLIC "-//W3C//DTD SVG 1.0//EN" "http://www.w3.org/TR/2001/REC-SVG-20010904/DTD/svg10.dtd">
<svg height="250" width="370" xmlns="http://www.w3.org/2000/svg" xmlns:svg="http://www.w3.org/2000/svg" xmlns:xlink="http://www.w3.org/1999/xlink">


<g id="background">
<rect id="" width="370" height="250" fill="#222222"/>
</g>
  <g id="250" style="stroke-miterlimit: 3; fill: #F1F1F1; stroke: #000000; stroke-opacity: 1; stroke-width: 0.05; stroke-linejoin: bevel; stroke-linecap: square">
    <polygon id="France" points="193.3,3.1 194.7,5.5 194.7,7.3 196.0,10.0 199.3,11.6 201.5,12.6 202.2,12.9 203.4,11.9 205.0,11.2 205.8,11.0 207.7,10.7 208.4,10.7 208.9,10.9 209.4,11.5 209.8,12.3 210.9,13.8 211.8,17.0 212.3,17.4 214.0,18.1 216.2,17.8 217.8,17.5 220.1,18.1 221.3,19.0 221.7,19.5 221.8,20.6 224.3,21.7 227.2,22.0 229.6,21.9 230.8,21.6 234.1,23.5 234.9,24.6 234.3,27.1 233.7,30.3 233.7,31.1 234.4,31.1 235.4,31.6 236.2,31.5 238.0,31.4 240.4,31.9 241.2,32.1 242.8,31.9 246.9,30.7 247.5,29.5 247.4,29.0 247.4,28.5 249.2,27.2 250.5,26.4 252.2,26.7 252.3,27.3 251.5,28.2 251.1,28.8 250.6,30.8 251.7,35.4 252.8,35.9 253.5,35.9 254.1,35.6 254.8,35.5 263.5,39.2 265.0,40.1 265.6,40.3 266.2,40.7 267.1,42.1 266.8,42.7 268.1,43.0 270.1,42.5 271.1,42.3 272.8,42.1 275.1,42.0 276.3,42.8 279.8,44.5 282.6,44.4 283.3,43.9 283.4,43.4 284.3,43.1 286.1,43.0 287.9,43.8 288.6,44.0 289.4,44.2 290.7,43.8 292.1,44.2 293.1,44.6 293.7,44.9 295.3,46.6 297.6,49.6 298.4,50.9 298.6,51.5 301.0,51.9 301.6,51.8 302.0,51.2 301.5,50.6 303.5,50.2 306.0,51.0 307.8,52.6 309.3,52.7 312.7,53.0 314.6,52.2 314.8,51.5 315.9,51.3 317.8,51.6 321.3,54.0 321.9,54.6 324.1,54.7 326.2,54.6 329.0,54.5 331.7,55.5 334.6,56.4 336.4,56.7 335.9,56.8 334.2,58.4 333.7,59.2 333.4,59.8 333.3,60.4 329.7,62.7 327.6,64.2 325.7,66.4 324.3,70.2 324.0,70.9 324.2,71.6 324.4,72.2 323.0,74.0 320.8,76.8 320.1,77.9 319.8,78.7 319.8,79.4 319.9,80.0 320.9,80.8 321.2,81.3 320.2,83.4 319.5,84.4 318.8,86.3 318.4,88.4 318.6,89.3 319.1,89.6 319.6,90.0 320.2,90.8 320.3,91.4 319.8,91.4 319.3,91.9 318.6,92.0 318.1,92.3 318.1,93.5 316.9,94.3 316.0,94.9 315.3,95.2 314.5,95.2 314.0,95.1 313.3,95.0 312.4,95.2 311.8,95.5 310.2,95.0 309.2,93.6 306.1,93.3 305.3,93.6 302.6,96.7 303.8,97.1 305.0,97.0 305.5,96.9 304.8,98.8 301.5,101.7 300.3,102.8 297.9,104.5 297.4,105.3 296.4,106.0 294.6,106.6 293.6,106.8 291.9,108.7 291.6,110.2 291.9,111.5 291.3,112.2 289.6,113.2 289.0,113.4 287.1,114.1 283.6,116.4 283.7,117.7 282.5,120.0 282.1,120.6 283.1,121.0 284.1,121.5 284.2,122.2 283.3,123.4 283.3,124.5 282.4,125.1 281.9,125.0 281.1,125.2 280.6,125.4 279.9,125.7 279.5,126.2 280.2,127.6 283.4,127.6 284.2,127.4 285.0,127.0 286.5,125.8 287.2,124.7 286.5,123.3 286.3,122.6 287.8,121.4 288.6,121.0 292.7,119.9 293.4,119.7 296.3,119.6 298.0,119.8 298.9,120.0 300.2,120.4 300.6,121.1 300.5,121.8 300.0,127.1 300.2,127.7 302.3,129.1 303.8,129.9 305.6,131.3 306.3,132.2 306.5,133.0 305.4,134.2 304.8,134.6 304.1,134.9 303.5,135.0 302.9,135.1 302.3,134.9 300.9,135.3 300.5,136.4 300.7,138.0 304.7,141.4 305.2,143.0 307.7,144.5 309.2,145.6 309.5,147.0 308.7,149.9 307.1,150.9 304.0,151.9 301.1,152.7 299.8,152.2 297.9,152.7 297.3,152.8 296.4,153.3 297.0,155.5 299.1,158.5 299.8,158.8 301.5,159.6 302.8,160.0 303.4,159.9 304.2,159.7 304.8,159.9 305.6,160.2 306.3,160.7 306.2,162.9 305.0,164.2 304.3,164.9 301.8,168.0 301.8,168.6 302.4,172.2 304.9,174.5 306.3,175.4 314.3,178.3 316.0,178.5 317.2,178.2 318.6,177.7 321.0,177.1 322.2,177.3 322.1,178.0 322.3,178.6 323.3,179.3 322.1,181.4 320.6,182.5 318.1,184.5 317.9,185.1 318.4,186.1 318.8,187.0 318.3,186.9 317.7,187.1 316.6,187.7 316.0,187.4 315.3,188.0 315.4,188.5 313.5,189.0 311.9,189.1 309.5,190.1 307.4,192.4 302.8,195.8 301.6,196.1 300.3,196.2 296.3,199.0 296.4,199.6 297.6,199.6 296.5,202.2 295.4,202.0 293.6,202.1 290.5,202.7 285.0,203.6 284.5,203.9 284.3,205.1 283.2,205.2 281.9,204.3 279.2,203.8 278.7,204.5 277.1,205.3 276.3,205.3 274.8,204.7 274.9,204.2 275.7,203.9 272.5,202.1 268.2,201.5 265.6,201.4 264.7,201.3 264.1,201.1 264.1,200.6 264.6,200.0 264.3,198.6 263.9,198.0 263.3,197.6 262.0,197.8 261.4,198.1 260.8,198.3 257.6,198.3 256.6,198.2 255.9,198.0 256.2,197.3 256.8,196.7 257.5,196.7 258.7,196.3 259.9,195.9 260.9,195.1 261.0,194.5 255.9,192.8 255.4,193.8 255.6,194.5 256.3,194.7 256.1,195.3 256.1,195.8 255.6,196.0 255.0,196.1 254.1,196.1 253.5,195.9 252.0,196.1 251.5,196.4 250.9,196.5 251.2,197.0 250.7,196.9 249.9,196.5 248.9,196.2 248.6,195.5 248.9,194.6 248.9,194.0 248.6,193.3 248.0,192.6 247.5,192.3 248.3,195.7 248.6,196.3 248.6,196.9 249.2,197.1 246.4,197.8 245.6,197.7 244.7,197.5 244.4,197.0 245.0,196.3 244.9,195.8 244.2,195.5 243.5,195.3 242.7,195.2 241.9,195.2 241.4,195.2 240.6,195.4 238.2,195.3 238.1,194.4 237.2,194.1 236.3,194.4 237.3,195.3 235.1,195.2 234.1,195.0 233.3,194.4 233.5,193.8 233.2,193.1 232.4,192.8 231.5,192.6 229.1,193.2 227.9,193.6 226.0,194.8 223.0,196.5 218.6,198.8 215.6,199.6 215.0,199.6 213.2,200.1 212.7,200.4 211.3,201.1 208.3,203.3 206.8,205.1 206.8,205.8 205.9,208.0 204.9,209.8 203.9,210.6 204.1,211.5 205.1,211.9 205.8,213.7 205.8,216.5 206.0,218.0 207.1,218.7 207.8,218.8 208.3,218.9 208.8,220.0 209.2,220.8 207.5,221.2 206.7,220.9 206.0,220.4 203.5,219.9 197.9,221.4 196.7,221.9 196.2,222.3 196.6,223.0 193.3,223.6 191.8,223.4 190.8,222.5 188.0,221.5 186.7,221.1 183.4,221.4 182.9,221.7 182.6,222.3 182.0,222.8 181.2,223.0 180.2,223.1 179.3,222.7 178.6,221.6 177.3,220.7 175.9,220.2 174.1,219.7 172.7,219.2 172.7,218.6 173.0,218.0 173.8,217.6 173.0,216.5 172.0,216.2 168.6,215.5 166.8,215.5 165.7,216.8 164.9,215.6 164.3,214.7 163.5,214.0 162.7,213.9 158.8,214.1 158.2,213.8 158.0,213.0 156.8,212.2 151.8,211.5 150.0,211.0 147.4,210.4 146.7,210.5 146.1,210.9 145.7,212.2 145.8,213.0 146.4,213.6 146.5,214.2 145.9,214.6 144.3,214.5 143.4,214.5 142.1,214.6 140.2,214.7 136.1,214.3 134.0,213.5 132.9,213.8 132.1,214.1 129.5,214.7 128.0,214.6 127.7,214.0 126.2,212.9 125.4,212.4 124.7,212.2 124.1,212.0 122.7,211.4 121.7,210.9 121.1,211.2 119.4,211.9 115.4,212.4 111.3,209.8 110.8,209.2 111.0,208.4 110.6,207.8 110.0,207.7 109.5,207.9 108.7,208.2 105.8,208.0 104.3,207.4 102.3,206.7 99.0,205.7 96.5,205.0 95.5,205.8 94.1,205.9 93.3,205.7 92.8,205.4 92.2,204.7 93.3,203.9 93.7,203.4 94.4,201.7 94.5,200.6 93.8,199.9 91.4,199.6 87.6,199.0 86.7,199.1 85.7,199.3 84.5,198.2 85.7,197.3 87.3,197.1 89.1,195.9 90.7,194.0 91.8,192.5 92.9,190.7 93.0,190.1 93.0,189.4 93.4,187.1 95.4,180.3 95.7,179.5 96.4,176.7 97.4,171.7 97.6,170.3 97.8,169.1 98.2,167.6 98.8,165.9 100.2,165.1 100.9,165.3 101.7,165.2 102.7,165.0 103.2,164.4 102.7,163.8 101.0,162.6 100.1,162.2 98.4,163.7 98.1,164.3 97.8,165.0 97.9,162.6 98.9,156.1 99.9,151.2 100.3,147.1 100.3,146.6 100.4,145.7 100.5,144.1 101.7,142.6 102.4,142.1 102.8,142.6 102.5,143.2 104.1,144.4 104.8,144.7 105.4,144.8 106.1,145.1 108.9,147.2 109.9,148.4 110.7,150.5 110.8,151.2 111.3,153.2 111.7,154.0 115.5,159.1 115.7,156.9 115.3,155.9 114.0,155.2 113.4,154.7 112.8,154.0 112.4,153.3 111.5,148.4 111.2,147.5 110.5,145.9 109.7,144.9 109.0,144.2 107.6,143.2 104.1,141.0 102.0,140.0 99.9,139.2 98.5,138.8 98.2,136.9 99.3,136.3 100.4,136.3 100.4,134.6 102.1,133.9 102.8,131.0 102.8,130.4 101.1,128.1 100.4,127.4 101.4,124.8 101.2,123.3 100.0,123.1 99.1,123.3 98.5,124.0 97.4,123.6 92.3,121.4 87.6,120.1 84.3,119.0 83.4,117.0 82.4,115.2 81.1,114.0 78.7,112.1 78.1,111.7 77.4,111.5 76.8,111.2 76.2,110.8 75.6,110.2 75.5,108.9 76.7,107.6 78.0,106.6 79.3,105.3 78.9,104.6 78.3,104.1 77.6,103.7 77.1,103.5 76.1,103.2 74.6,102.9 74.8,100.5 75.0,100.0 75.5,99.1 77.8,98.9 78.9,99.0 80.5,99.2 81.4,99.7 83.9,100.8 84.6,100.9 85.3,100.9 81.8,98.9 80.9,98.6 78.8,98.1 78.1,98.1 75.7,98.3 74.2,99.0 72.0,100.0 68.0,99.5 66.8,99.1 65.4,98.7 65.6,96.4 66.8,95.7 67.7,95.8 68.7,95.9 67.3,94.7 66.8,94.8 66.5,93.7 68.3,93.5 69.5,93.5 66.1,92.8 64.3,92.6 62.2,93.2 59.0,93.8 58.3,93.7 57.0,92.5 57.6,92.3 58.5,92.4 59.4,92.3 59.9,92.4 60.5,92.4 61.6,91.2 61.8,90.6 61.3,90.1 56.5,91.0 55.6,91.5 51.4,91.4 50.7,91.1 50.5,92.8 50.7,93.5 51.3,93.9 50.4,94.2 50.0,92.9 50.4,92.0 50.4,91.4 50.0,90.8 48.9,90.3 48.3,89.7 40.9,87.0 37.8,86.5 33.8,86.1 32.7,86.0 31.7,85.4 31.0,84.6 29.0,83.7 26.0,84.1 24.8,84.6 24.7,85.2 24.0,85.9 23.3,86.0 22.1,86.1 19.5,85.9 19.2,85.3 19.8,85.1 19.8,84.2 19.4,83.5 18.7,82.6 18.0,81.9 17.2,81.4 16.4,80.9 15.4,80.4 13.7,80.5 11.2,80.2 10.5,80.0 10.7,79.3 19.5,78.1 20.2,78.3 20.9,78.5 21.4,78.1 21.6,77.4 21.6,76.9 21.0,76.1 17.5,74.9 16.9,74.8 16.4,74.9 15.7,75.9 15.0,76.5 13.0,74.2 14.1,72.7 14.7,72.4 15.2,72.3 14.9,72.9 14.8,73.4 18.3,73.8 21.9,73.8 23.4,73.5 21.0,72.9 18.4,72.7 17.5,72.6 17.5,72.0 13.3,72.3 10.7,72.5 9.6,72.5 9.1,72.1 8.7,70.3 9.0,68.1 9.5,67.5 10.2,66.9 10.9,66.6 12.7,66.3 13.4,66.5 14.3,65.3 14.9,64.9 19.7,64.0 24.2,63.6 28.7,62.7 29.4,62.7 29.3,63.3 29.8,64.4 32.2,64.9 32.1,63.8 32.8,63.0 33.3,62.7 35.4,63.0 36.7,63.5 37.7,63.8 38.7,63.9 39.3,63.8 40.4,62.3 39.6,61.7 39.2,61.0 40.2,60.2 40.8,59.9 41.8,59.8 44.2,60.2 47.9,59.1 50.6,59.2 52.2,60.1 56.8,63.8 58.5,65.5 60.8,67.5 61.4,68.0 67.0,65.3 68.4,64.5 71.2,63.9 71.8,64.0 75.7,64.9 77.9,65.8 79.4,68.0 80.2,67.7 80.1,66.4 79.4,65.9 78.7,65.8 78.7,65.1 78.5,64.6 79.2,63.6 80.6,63.4 82.7,63.1 83.0,63.6 82.4,64.0 82.2,64.6 82.6,65.1 83.3,65.5 84.3,65.6 85.9,65.6 87.7,65.5 88.5,65.3 89.3,64.8 91.0,64.9 92.4,64.9 94.8,64.7 92.8,63.9 91.8,63.7 90.0,62.2 89.5,59.8 89.6,59.2 89.9,57.9 90.1,55.4 89.6,55.6 89.1,54.8 88.7,53.5 88.7,50.4 86.9,48.4 86.3,47.8 85.4,46.9 84.5,46.4 83.9,46.3 82.8,43.2 82.8,41.5 83.0,40.7 82.7,39.8 82.3,39.2 81.4,39.0 80.4,38.8 80.3,37.7 81.1,37.5 82.8,37.8 86.1,38.6 87.1,39.0 87.7,39.2 88.5,39.3 90.6,39.2 91.5,39.0 92.0,38.7 93.8,38.0 94.5,38.0 96.0,38.1 96.8,38.3 97.4,38.5 98.1,39.3 98.3,39.9 97.6,40.7 96.7,41.1 96.4,41.6 96.6,42.2 97.4,43.3 98.1,44.0 99.9,45.5 101.2,46.6 101.8,46.1 102.4,45.8 104.7,45.8 105.9,45.8 106.6,46.2 107.4,46.5 108.4,46.7 111.0,46.9 113.6,47.1 114.7,47.1 116.6,47.1 118.6,47.2 119.6,47.4 120.2,47.7 121.7,48.1 123.5,48.6 126.6,48.2 127.4,48.1 128.3,47.8 129.3,47.5 130.8,46.9 131.4,46.6 132.1,45.9 133.0,45.5 133.5,45.3 135.2,45.0 136.1,44.9 136.7,44.9 138.5,44.7 140.0,44.4 140.6,44.2 141.2,43.8 141.7,43.5 140.4,43.9 139.0,44.2 138.2,44.3 137.4,44.4 135.7,44.3 133.3,44.0 132.3,43.6 131.2,42.9 131.2,42.3 133.5,38.4 134.5,37.7 136.0,37.3 137.1,37.0 140.0,35.9 143.5,34.5 144.0,34.3 145.4,34.0 146.5,33.8 147.2,33.7 156.2,32.5 159.5,31.4 160.3,31.1 163.8,28.9 164.4,28.7 165.4,28.1 166.1,27.5 167.2,25.5 167.9,23.3 168.3,21.7 169.2,21.3 168.6,20.6 169.0,17.3 168.6,13.4 168.7,12.8 169.5,10.2 170.2,8.5 172.9,6.9 173.8,6.5 174.4,6.4 178.2,5.5 185.5,4.5 188.7,4.0 189.3,4.1 189.9,4.0 192.0,3.5 192.6,3.3 193.3,3.1 " />
    <polygon id="France" points="39.2,60.7 " />
    <polygon id="France" points="2.0,69.5 0.8,69.8 0.0,69.5 0.7,69.0 1.6,68.8 2.2,68.9 2.1,69.4 " />
    <polygon id="France" points="52.1,98.4 51.0,98.7 49.6,98.5 49.0,98.5 48.4,98.5 47.8,98.2 47.2,96.9 47.4,96.3 52.1,98.1 " />
    <polygon id="France" points="74.0,105.7 75.3,107.3 75.5,108.2 74.3,107.4 73.7,107.0 73.0,107.0 72.5,107.0 71.7,105.6 72.5,105.3 73.1,105.3 73.7,105.5 " />
    <polygon id="France" points="72.1,113.8 69.8,113.7 69.2,113.2 69.8,112.8 70.5,112.9 71.3,113.2 72.0,113.6 " />
    <polygon id="France" points="97.5,127.4 96.9,127.4 96.1,127.2 91.3,126.2 90.7,125.9 90.2,125.2 91.4,124.9 92.0,124.8 96.8,126.3 97.7,127.1 " />
    <polygon id="France" points="99.2,135.8 98.1,134.8 97.0,133.7 96.1,133.2 95.6,132.9 94.9,132.5 93.9,130.1 94.9,130.2 97.2,131.4 98.2,132.2 99.7,133.8 99.5,135.1 99.2,135.8 " />
    <polygon id="France" points="367.1,214.9 367.1,215.6 367.8,217.3 368.6,217.8 368.5,217.1 369.2,218.2 370.0,225.1 369.9,227.2 369.8,228.8 369.6,229.4 367.1,232.0 366.6,232.6 366.2,233.1 365.8,235.1 365.9,235.7 366.0,236.3 365.9,239.6 365.5,240.6 365.1,241.1 363.9,242.0 362.7,244.1 361.9,245.8 362.1,246.4 361.4,247.9 360.5,248.0 359.2,247.2 358.8,246.3 355.3,245.2 354.4,244.8 353.8,244.6 350.6,243.2 350.4,241.7 350.9,241.1 352.7,240.9 353.7,240.1 352.8,239.6 352.2,239.6 350.7,239.3 348.9,238.8 348.4,238.0 349.5,236.8 350.5,235.7 350.9,234.6 350.4,233.9 349.5,233.7 348.7,234.2 347.5,234.3 346.5,234.3 345.6,233.1 346.1,232.7 346.7,232.8 347.4,232.4 347.3,231.8 349.3,231.0 347.8,229.3 346.8,229.0 346.0,228.7 345.5,227.7 345.0,226.4 346.2,225.6 347.0,225.5 347.8,225.3 346.6,223.5 346.0,223.2 345.4,223.2 345.2,222.3 347.4,219.1 348.7,217.7 353.0,216.2 357.2,214.9 358.0,214.1 358.8,213.6 359.6,213.5 362.2,213.8 362.9,214.6 363.7,214.6 364.4,213.5 364.4,212.1 364.2,211.6 363.6,211.0 364.4,207.0 365.5,206.6 366.4,206.6 367.4,207.1 368.2,211.5 368.1,212.0 367.7,212.6 367.3,213.9 367.1,214.7 " />
    <polygon id="France" points="368.1,216.5 367.6,216.1 368.1,216.5 " />
  </g>
</svg>