<?xml version="1.0" encoding="UTF-8" standalone="yes"?>
<!DOCTYPE svg PUBLIC "-//W3C//DTD SVG 1.0//EN" "http://www.w3.org/TR/2001/REC-SVG-20010904/DTD/svg10.dtd">
<svg height="250" width="370" xmlns="http://www.w3.org/2000/svg" xmlns:svg="http://www.w3.org/2000/svg" xmlns:xlink="http://www.w3.org/1999/xlink">


<g id="background">
<rect id="" width="370" height="250" fill="#222222"/>
</g>
  <g id="262" style="stroke-miterlimit: 3; fill: #F1F1F1; stroke: #000000; stroke-opacity: 1; stroke-width: 0.05; stroke-linejoin: bevel; stroke-linecap: square">
    <polygon id="Djibouti" points="224.7,158.9 225.6,159.4 226.9,159.5 229.9,159.5 236.1,158.9 246.9,159.5 248.1,159.7 260.4,161.0 265.8,161.0 276.8,172.6 278.8,175.3 275.4,180.8 272.6,185.5 269.9,189.4 258.6,206.4 252.6,215.3 240.1,234.2 237.0,238.9 235.6,241.4 229.0,244.4 227.2,244.3 217.2,243.5 216.3,243.4 215.0,242.7 213.3,241.5 211.4,239.5 210.4,237.5 209.9,235.2 209.8,234.3 209.5,232.7 208.9,231.4 208.4,230.9 207.4,230.6 193.5,228.2 191.8,227.9 188.1,228.8 172.9,232.8 152.8,239.1 144.5,240.2 127.3,241.8 125.3,241.7 120.2,241.8 119.4,241.9 114.2,244.3 113.6,244.7 113.1,245.2 112.7,245.7 105.9,249.2 103.7,250.0 100.9,250.0 93.6,248.9 90.4,248.3 85.3,247.3 79.0,245.6 74.9,243.9 72.2,240.6 73.8,237.4 74.1,227.8 74.6,218.0 75.5,206.6 75.3,204.0 73.1,189.1 72.5,186.6 68.0,170.3 68.0,169.5 73.4,151.4 77.7,137.0 86.6,132.3 94.7,126.2 105.6,110.7 110.3,103.7 120.0,87.5 125.9,80.8 138.2,63.0 143.4,58.7 145.6,56.6 148.1,49.4 150.0,44.1 153.8,39.4 158.6,33.8 166.6,25.4 170.6,26.4 173.0,27.1 177.8,28.9 185.1,33.9 189.8,39.3 193.9,43.8 200.9,48.7 207.8,45.6 208.4,45.2 216.5,39.4 217.5,38.5 217.9,37.9 218.3,37.3 218.4,36.4 218.4,35.7 217.2,33.1 216.5,31.8 216.1,30.4 216.0,29.5 216.1,27.6 216.1,26.6 216.4,25.8 218.3,23.9 233.6,12.0 260.7,0.0 264.5,6.4 265.2,7.7 268.5,12.2 269.4,13.3 272.9,17.5 284.3,30.4 288.4,32.2 289.9,32.8 290.0,38.1 290.4,39.6 296.5,60.0 297.9,62.5 299.1,63.3 300.9,65.2 301.6,66.5 301.9,68.2 303.0,79.7 303.1,81.5 302.4,90.5 302.1,92.2 300.8,94.7 297.2,100.3 295.8,101.7 294.4,102.2 285.8,104.9 284.2,105.3 279.2,106.1 275.3,106.1 273.7,106.3 271.7,107.1 270.4,108.2 263.7,114.9 258.4,121.0 250.9,128.4 249.6,128.7 246.9,129.4 245.4,129.6 241.1,129.3 227.1,132.2 218.5,135.2 213.1,137.0 211.7,137.9 210.3,139.1 203.4,149.5 200.6,154.8 199.2,159.0 199.0,160.3 198.4,161.5 196.6,162.8 190.8,164.7 181.5,162.0 180.4,160.6 179.1,159.7 177.7,159.5 176.4,159.5 175.0,160.0 174.0,161.5 177.4,164.3 176.9,168.6 177.6,170.0 185.5,175.1 186.9,175.8 190.3,175.7 197.8,174.3 199.1,173.1 199.2,171.7 198.6,170.4 197.3,169.9 196.0,169.6 195.9,167.1 199.0,165.6 200.5,165.0 205.0,163.8 219.2,160.1 224.7,158.9 " />
  </g>
</svg>