<?xml version="1.0" encoding="UTF-8" standalone="yes"?>
<!DOCTYPE svg PUBLIC "-//W3C//DTD SVG 1.0//EN" "http://www.w3.org/TR/2001/REC-SVG-20010904/DTD/svg10.dtd">
<svg height="250" width="370" xmlns="http://www.w3.org/2000/svg" xmlns:svg="http://www.w3.org/2000/svg" xmlns:xlink="http://www.w3.org/1999/xlink">


<g id="background">
<rect id="" width="370" height="250" fill="#222222"/>
</g>
  <g id="266" style="stroke-miterlimit: 3; fill: #F1F1F1; stroke: #000000; stroke-opacity: 1; stroke-width: 0.05; stroke-linejoin: bevel; stroke-linecap: square">
    <polygon id="Gabon" points="222.2,2.4 225.1,3.4 226.5,3.7 231.2,4.4 235.8,4.1 241.3,3.5 245.8,2.9 246.3,2.6 247.7,2.4 248.5,2.4 251.2,3.0 252.9,4.4 253.3,5.3 253.1,6.9 252.9,10.6 252.5,11.8 251.8,12.5 249.5,14.6 248.6,16.6 248.4,18.5 248.6,19.0 248.9,20.1 249.0,21.2 248.1,23.2 247.1,25.2 246.6,30.2 246.8,31.0 247.5,32.2 248.9,33.3 250.3,35.8 250.7,36.7 251.1,37.9 251.3,40.3 250.3,41.8 249.8,42.1 249.1,42.0 248.4,42.5 248.0,43.6 248.2,44.2 248.7,44.9 249.5,44.9 251.7,44.8 253.3,44.5 255.8,43.0 260.0,42.1 264.2,41.5 272.6,38.2 273.2,36.4 277.0,36.1 280.4,37.1 284.3,38.7 284.9,38.6 285.5,38.4 286.0,38.1 286.7,37.9 287.7,37.9 288.9,38.1 290.8,39.2 291.9,40.1 292.3,40.7 293.0,43.2 293.1,43.8 293.0,46.0 294.1,49.5 298.3,55.4 299.5,56.3 300.1,56.6 300.7,56.9 300.3,60.5 295.3,68.8 292.3,71.9 289.4,72.4 288.3,72.0 287.1,71.7 285.7,71.9 285.1,72.1 284.3,72.9 279.8,79.7 276.8,84.9 276.7,86.2 277.8,89.3 279.1,92.2 279.3,92.8 278.9,95.3 277.3,97.7 276.0,99.3 275.6,99.9 275.4,100.5 275.3,101.1 275.2,101.8 277.0,104.3 277.7,104.6 278.4,103.5 279.0,103.2 280.3,103.3 284.0,103.8 286.5,104.9 287.4,107.1 288.0,108.8 288.3,110.4 288.5,111.1 289.0,111.6 290.7,111.4 293.6,111.2 294.2,111.3 297.7,112.8 299.6,114.6 300.7,115.8 302.1,118.2 301.7,120.5 301.5,121.2 301.1,121.9 300.3,123.1 298.5,130.6 298.4,131.3 298.1,133.7 298.4,135.7 299.5,139.0 300.6,142.4 300.6,144.3 300.4,151.2 299.9,155.9 298.8,156.6 297.5,157.8 297.9,168.0 298.4,168.8 298.5,169.6 297.6,170.3 296.6,170.9 295.6,171.0 294.2,171.4 291.9,172.5 291.3,174.4 291.8,174.9 292.1,175.5 291.5,179.0 290.2,185.6 289.4,188.3 288.6,188.8 287.6,189.6 286.0,192.5 285.7,193.6 284.6,193.8 278.1,193.6 276.4,193.0 275.9,192.7 275.9,190.8 276.4,186.5 273.7,179.7 272.1,177.6 271.6,177.6 270.4,180.0 270.4,181.3 269.0,182.7 264.9,187.0 263.7,187.9 261.9,189.4 261.3,190.0 261.0,191.0 260.3,191.5 257.0,191.1 254.5,190.0 251.3,188.8 249.4,188.3 242.9,187.0 242.2,187.4 241.3,188.6 241.8,186.5 241.9,184.7 241.5,183.5 241.1,182.9 240.0,181.2 239.3,181.5 238.8,181.7 238.2,181.4 237.3,179.6 235.1,173.4 235.3,172.7 235.1,172.1 234.1,170.4 233.0,169.9 230.9,169.2 230.6,168.7 230.1,168.1 227.4,166.9 225.0,166.8 222.1,168.8 222.2,169.3 222.2,170.1 221.7,170.7 221.0,170.9 219.8,169.9 219.4,169.0 218.8,169.5 219.2,174.9 219.9,176.6 220.4,177.2 221.3,179.3 221.1,182.8 220.4,187.0 203.3,190.6 202.6,190.2 201.9,189.4 201.2,188.6 200.4,187.7 199.8,187.3 199.1,187.2 193.3,188.8 191.7,190.0 190.5,190.7 188.5,189.1 187.6,188.1 185.9,187.2 185.4,187.2 184.2,187.3 185.3,192.0 186.4,195.9 186.9,197.8 187.1,198.5 187.1,199.0 186.5,200.6 185.7,202.6 185.3,203.1 184.8,203.7 184.1,204.4 183.0,205.7 183.0,206.6 182.9,207.2 182.9,208.2 183.6,208.7 184.2,207.9 186.3,206.8 186.9,206.7 192.8,213.6 193.4,214.5 192.5,215.4 191.8,215.8 191.2,215.8 190.5,215.5 189.9,216.0 189.2,217.5 189.2,220.9 189.7,221.2 191.7,221.9 192.5,222.2 193.2,222.5 199.4,225.5 200.1,226.4 200.2,227.1 200.0,227.7 198.7,228.6 197.8,229.4 197.3,230.3 194.8,236.2 194.8,237.0 195.3,237.6 195.8,237.8 197.6,238.6 198.2,239.0 197.7,240.3 197.2,241.2 196.6,241.9 195.9,242.4 194.8,242.2 190.8,241.4 187.4,239.6 186.3,237.9 184.7,235.5 183.6,234.7 182.4,234.2 181.1,234.2 173.3,239.3 170.6,241.3 170.1,241.9 167.9,247.6 166.9,250.7 163.2,248.3 161.6,246.3 160.6,244.0 160.6,243.5 160.6,243.0 160.4,242.1 160.1,241.6 159.3,240.7 158.5,239.8 157.9,239.3 154.3,236.1 153.2,235.2 151.2,233.8 149.7,232.8 147.1,228.3 147.0,227.6 146.3,226.3 145.6,225.4 141.2,220.7 138.6,218.1 133.2,213.1 129.1,210.0 128.1,209.4 123.9,206.1 123.0,205.4 120.8,203.4 119.8,202.7 118.9,201.9 116.9,200.2 110.7,193.7 109.2,191.9 110.7,193.1 111.9,193.7 113.1,194.0 114.3,194.0 119.9,197.2 120.1,198.3 120.0,199.0 121.8,199.5 127.2,197.3 127.5,196.4 126.6,195.0 124.2,193.7 121.3,195.4 120.4,196.4 119.5,195.7 117.6,192.9 115.8,190.7 114.0,191.0 113.3,191.4 112.9,192.1 111.9,193.0 111.3,193.0 110.0,191.5 107.8,191.0 106.4,189.7 105.7,189.0 104.8,187.7 104.5,187.2 104.2,185.9 104.3,184.9 104.3,184.1 104.2,182.9 104.0,182.3 103.5,181.7 101.5,179.5 101.0,179.0 100.3,178.5 99.4,177.7 98.2,176.5 96.3,174.5 95.9,173.8 94.6,171.4 94.0,170.2 98.8,170.6 100.0,172.7 100.6,174.2 102.4,176.6 103.5,176.3 103.8,175.4 101.8,171.0 100.5,168.5 99.7,167.9 96.3,166.8 95.8,166.9 95.0,168.2 93.7,168.2 91.7,167.9 90.9,165.6 90.8,164.6 91.2,163.9 91.3,163.1 91.2,162.4 90.5,159.1 90.3,158.5 90.0,157.7 89.2,156.3 88.6,155.3 86.2,152.7 83.9,149.6 83.3,148.8 82.3,147.3 81.7,146.3 81.4,145.8 80.5,143.9 80.4,143.2 81.0,144.5 81.7,146.2 82.2,146.8 82.8,146.9 84.1,147.5 85.7,150.2 90.4,155.1 92.7,159.4 95.6,159.1 96.8,160.0 97.6,160.8 98.0,158.5 99.2,158.3 100.9,158.3 101.7,157.8 100.4,155.8 98.6,154.4 96.8,156.4 95.0,156.9 93.5,157.2 92.8,156.8 91.1,153.8 91.9,152.8 92.7,152.5 94.5,150.1 95.1,148.4 95.2,147.6 94.7,145.5 94.1,145.2 94.1,146.1 94.3,146.7 94.6,147.6 94.3,148.6 93.3,149.2 90.3,150.3 88.5,150.5 87.9,150.2 82.9,146.5 82.2,145.9 81.8,144.7 81.9,143.3 81.1,140.3 77.0,134.2 73.4,128.0 72.5,126.4 69.5,119.5 69.1,118.0 69.0,117.3 69.5,116.7 71.1,118.4 72.1,119.5 72.7,121.1 75.6,122.7 79.3,123.9 81.1,126.2 84.6,121.3 84.6,120.4 84.6,119.3 85.0,118.0 85.9,117.0 87.0,116.1 87.7,115.4 88.6,114.4 92.0,110.1 93.0,108.7 93.4,107.9 93.6,107.3 93.5,105.8 93.3,104.7 93.3,103.8 93.3,103.0 93.4,102.3 93.7,101.5 93.8,100.8 94.1,100.2 94.2,99.6 94.7,98.9 94.8,98.2 94.9,97.2 94.9,96.4 94.6,95.6 94.6,94.7 95.0,94.0 95.2,93.3 94.8,91.5 94.6,90.6 93.9,86.8 93.2,82.4 93.2,81.3 93.5,80.8 95.0,79.3 96.0,80.7 96.4,85.7 99.8,87.1 100.7,87.2 103.6,87.3 109.1,88.6 109.7,88.8 110.6,89.2 111.3,89.1 112.7,88.5 118.0,86.4 115.4,86.5 114.3,86.7 112.6,86.5 112.1,86.5 111.5,86.3 108.3,85.0 104.7,82.8 103.1,81.9 101.1,82.2 99.5,79.4 98.8,77.7 97.9,75.7 97.5,74.9 97.2,74.4 95.5,72.8 94.9,72.6 94.1,72.9 93.5,72.9 93.2,72.4 93.3,70.7 93.6,69.0 101.6,66.8 102.6,66.8 103.4,67.9 104.4,69.9 104.6,70.5 104.6,71.3 104.5,72.9 104.4,73.9 105.1,74.6 106.3,71.9 106.4,70.5 106.1,62.5 105.8,61.1 105.4,60.4 104.9,59.8 103.5,55.6 103.7,54.5 104.0,53.9 105.2,53.0 108.0,51.6 110.6,51.4 111.5,51.7 112.1,52.2 113.3,53.7 114.1,53.7 114.7,53.7 115.8,54.4 116.2,55.1 116.8,55.7 118.9,56.7 119.5,56.4 120.1,55.9 120.8,53.7 122.3,53.7 130.2,53.7 131.3,53.7 132.4,53.7 133.5,53.7 137.7,53.7 140.9,53.7 142.0,53.7 152.1,53.7 157.6,53.7 160.0,53.6 171.0,53.7 175.3,53.7 175.2,35.8 175.1,29.5 175.1,26.0 175.1,24.1 175.0,20.5 175.0,17.0 175.0,14.2 175.0,13.4 174.9,7.1 175.2,4.3 175.7,2.1 176.0,1.5 184.4,1.1 188.9,1.1 189.5,1.6 191.3,2.4 210.0,2.4 211.0,2.3 212.8,1.6 214.7,1.0 220.2,1.6 220.8,1.8 221.4,2.1 222.2,2.4 " />
    <polygon id="Gabon" points="103.3,82.8 102.8,83.1 102.7,82.5 103.3,82.8 " />
    <polygon id="Gabon" points="81.4,124.6 80.8,124.5 80.1,124.0 79.8,123.5 79.0,120.7 78.9,120.2 79.6,118.9 81.1,117.9 82.8,120.1 82.9,120.7 82.6,123.5 81.7,124.4 " />
  </g>
</svg>