<?xml version="1.0" encoding="UTF-8" standalone="yes"?>
<!DOCTYPE svg PUBLIC "-//W3C//DTD SVG 1.0//EN" "http://www.w3.org/TR/2001/REC-SVG-20010904/DTD/svg10.dtd">
<svg height="250" width="370" xmlns="http://www.w3.org/2000/svg" xmlns:svg="http://www.w3.org/2000/svg" xmlns:xlink="http://www.w3.org/1999/xlink">


<g id="background">
<rect id="" width="370" height="250" fill="#222222"/>
</g>
  <g id="268" style="stroke-miterlimit: 3; fill: #F1F1F1; stroke: #000000; stroke-opacity: 1; stroke-width: 0.05; stroke-linejoin: bevel; stroke-linecap: square">
    <polygon id="Georgia" points="85.2,120.0 84.6,117.4 84.2,115.5 84.0,113.8 84.0,112.4 83.8,111.4 82.6,107.9 81.9,105.9 81.5,105.1 80.9,104.1 80.4,103.3 79.9,102.6 79.2,102.0 78.6,101.7 77.6,101.3 75.5,100.6 67.2,98.3 66.4,98.2 65.6,98.4 65.1,98.7 64.4,99.0 63.9,99.0 63.1,98.5 60.6,95.9 59.7,93.3 59.3,91.7 59.0,91.2 56.8,88.7 56.1,88.1 55.4,87.9 54.9,87.9 52.9,88.6 52.1,88.8 51.3,88.8 50.0,87.1 48.2,84.8 47.3,84.0 46.4,83.5 45.6,83.3 44.5,83.0 43.7,82.8 40.1,82.3 36.3,82.2 19.7,78.2 15.0,73.9 14.7,73.3 13.9,72.1 12.1,69.9 5.9,67.7 2.7,66.8 0.0,66.3 0.3,64.5 1.0,62.7 4.1,57.1 4.8,56.4 5.7,56.0 6.8,55.7 8.8,55.2 9.6,55.1 11.0,55.0 12.0,55.0 13.8,55.1 16.1,55.4 17.7,55.8 18.8,56.2 19.4,56.5 20.1,56.7 26.8,58.7 28.4,59.0 29.8,59.2 31.2,59.1 32.0,58.9 33.1,58.3 33.7,57.9 34.9,57.3 36.1,57.1 37.1,57.1 38.2,57.3 39.4,58.5 40.5,59.1 41.2,59.4 44.6,60.4 45.8,60.6 47.5,60.9 48.5,61.3 49.4,61.8 52.8,63.9 55.4,65.4 56.2,65.9 57.1,66.4 58.3,66.7 59.3,66.6 61.6,66.1 62.4,66.0 64.3,65.9 65.6,66.0 66.8,66.3 79.0,70.9 86.2,74.4 87.5,74.9 88.4,75.1 111.9,76.9 116.3,76.3 119.2,74.6 119.8,74.3 121.0,74.1 125.1,74.1 130.2,74.1 131.6,74.0 133.1,74.0 134.0,74.1 135.2,74.4 135.9,74.7 136.6,74.9 137.1,75.3 139.3,77.1 139.9,77.4 144.0,79.1 144.7,79.3 145.6,79.3 146.6,78.9 147.3,78.3 147.7,77.8 148.8,77.2 152.6,77.0 157.0,77.3 157.8,77.6 162.5,80.5 165.9,83.5 165.9,84.1 172.7,88.9 173.3,89.2 175.5,90.3 176.4,90.7 177.1,91.0 186.2,92.7 187.0,92.7 190.0,93.3 194.7,94.5 196.2,94.9 198.0,95.5 198.6,95.8 199.5,96.3 200.4,97.5 201.2,98.1 202.3,98.7 203.8,99.2 204.6,99.4 207.0,99.6 210.6,100.8 211.2,101.1 211.5,101.6 211.4,102.2 210.8,102.9 209.8,103.7 207.4,105.3 206.4,106.0 205.9,106.6 205.9,107.1 208.0,109.0 208.6,109.2 215.6,110.2 230.6,108.0 231.4,107.8 232.0,107.5 232.7,107.3 233.6,106.5 234.0,105.9 240.9,103.3 248.0,101.0 249.6,100.6 250.8,100.5 251.7,100.5 253.2,100.6 255.0,100.8 255.7,101.1 256.7,101.1 257.5,101.3 258.2,101.6 259.4,102.3 261.7,103.9 262.7,105.4 265.1,105.7 267.6,101.4 268.4,100.8 269.4,100.4 270.2,100.3 271.6,100.4 272.7,100.7 273.6,101.3 274.1,101.6 275.8,102.7 276.6,103.2 278.2,104.0 279.0,104.2 280.2,104.0 282.3,103.4 283.0,103.3 284.0,103.3 285.1,103.7 287.1,104.9 287.6,105.3 289.0,106.5 293.1,110.3 294.0,111.4 294.2,112.0 294.6,112.8 295.4,113.3 296.4,113.3 299.5,112.7 302.2,112.2 303.0,112.1 304.7,112.0 306.1,112.0 307.4,112.3 314.3,113.9 315.6,114.5 316.7,115.2 317.4,115.8 317.3,117.2 314.7,122.7 313.7,124.8 311.8,128.1 311.3,128.9 310.9,129.8 310.8,130.4 311.3,131.1 312.2,131.6 330.1,140.8 333.8,141.0 343.6,142.2 344.8,142.6 352.5,145.7 353.2,145.9 354.0,146.5 355.4,147.7 355.0,149.7 354.7,150.3 354.0,151.3 353.3,152.0 350.1,154.9 349.1,155.7 348.5,155.9 347.2,155.9 346.5,155.6 345.2,155.4 343.8,155.4 343.2,155.6 342.5,156.2 341.7,157.6 341.5,159.0 341.5,159.7 341.7,160.6 342.7,163.1 343.7,164.5 349.0,170.8 358.3,175.6 361.3,176.2 363.5,176.6 365.1,177.4 368.7,179.9 370.0,183.1 369.2,185.9 367.7,189.0 365.1,192.0 359.5,194.8 358.8,195.0 357.5,194.5 351.7,191.8 350.6,191.1 349.6,190.4 347.0,188.6 346.2,188.0 345.6,187.4 344.8,186.5 344.2,186.2 343.3,186.1 338.5,186.3 337.9,186.5 336.3,187.5 335.3,187.8 334.2,188.1 333.4,188.2 332.5,188.2 330.6,188.0 328.9,187.7 326.5,187.1 325.0,186.6 323.6,186.2 322.6,185.8 320.5,185.1 319.5,184.6 316.9,183.2 315.2,182.2 314.7,181.5 314.7,180.9 315.1,180.1 315.2,178.3 309.3,176.5 295.0,172.2 294.2,172.0 292.5,172.1 291.7,172.2 291.0,172.4 290.3,172.6 289.7,172.9 285.9,175.2 283.4,176.8 278.5,180.1 276.9,181.2 274.5,182.6 268.8,185.5 268.1,185.7 267.3,185.8 266.0,185.8 260.7,185.8 251.9,187.3 247.2,187.2 244.2,186.9 239.3,185.8 234.2,185.2 230.4,186.3 229.2,187.2 228.5,187.3 227.2,187.5 220.1,188.5 215.0,188.4 214.1,188.4 212.9,188.6 212.2,188.8 211.7,189.2 211.0,189.8 209.8,190.7 209.2,191.0 208.5,191.2 207.3,191.3 205.8,191.3 200.5,190.8 198.4,190.4 197.2,190.1 196.3,190.0 195.5,190.1 190.7,191.3 191.5,190.2 191.4,189.7 190.5,188.4 189.3,187.5 186.7,186.5 185.7,186.4 184.6,186.4 178.2,187.0 172.3,179.9 167.5,176.9 166.2,175.8 159.4,169.6 156.5,165.6 155.8,165.3 155.2,165.2 147.7,164.7 146.1,164.8 143.8,165.2 143.1,165.4 141.3,169.5 140.5,170.2 136.8,173.4 136.2,173.6 135.3,173.6 130.4,172.2 127.4,171.3 126.0,170.7 125.2,170.4 120.2,169.5 119.4,169.5 115.5,169.5 109.0,169.0 108.4,168.9 107.7,169.1 105.6,170.2 104.9,170.8 103.7,172.3 101.2,173.9 100.7,173.8 96.9,171.7 95.0,170.4 86.4,169.0 84.3,168.6 88.6,162.9 89.3,162.1 90.1,162.0 90.8,162.1 92.7,160.5 95.1,157.8 97.6,152.9 97.7,152.2 97.8,151.1 97.7,148.7 97.0,144.5 91.5,135.7 91.2,135.2 91.0,134.6 91.0,133.9 91.2,133.0 91.2,132.3 90.7,130.2 89.9,127.4 87.9,123.1 85.2,120.0 " />
  </g>
</svg>