<?xml version="1.0" encoding="UTF-8" standalone="yes"?>
<!DOCTYPE svg PUBLIC "-//W3C//DTD SVG 1.0//EN" "http://www.w3.org/TR/2001/REC-SVG-20010904/DTD/svg10.dtd">
<svg height="250" width="370" xmlns="http://www.w3.org/2000/svg" xmlns:svg="http://www.w3.org/2000/svg" xmlns:xlink="http://www.w3.org/1999/xlink">


<g id="background">
<rect id="" width="370" height="250" fill="#222222"/>
</g>
  <g id="270" style="stroke-miterlimit: 3; fill: #F1F1F1; stroke: #000000; stroke-opacity: 1; stroke-width: 0.05; stroke-linejoin: bevel; stroke-linecap: square">
    <polygon id="Gambia" points="11.0,124.3 13.1,122.1 14.0,121.3 14.5,120.9 16.5,119.5 17.1,119.4 24.6,121.1 25.9,121.6 27.1,122.0 28.2,122.6 29.3,124.1 29.4,124.8 29.1,126.1 27.7,126.5 25.7,125.4 24.7,126.1 24.4,126.6 24.4,127.2 25.8,127.1 26.3,130.1 27.2,132.8 30.0,139.6 31.7,142.2 32.2,142.9 33.1,143.7 33.7,144.0 49.0,147.9 54.1,145.6 68.7,140.3 69.5,140.2 70.3,140.2 71.6,140.6 72.5,141.4 73.2,142.5 73.4,143.1 73.6,144.7 73.0,147.3 73.1,148.1 73.4,148.6 76.0,148.5 77.5,148.3 78.8,147.8 80.4,146.8 81.6,145.5 81.6,144.8 77.6,146.9 77.0,147.2 76.3,147.4 75.6,147.3 73.2,139.8 73.1,139.1 73.1,137.4 73.3,136.1 74.3,133.7 75.5,132.4 80.7,127.3 81.6,127.3 83.0,127.5 84.7,128.3 86.1,128.6 89.6,129.3 90.3,129.4 94.2,129.7 95.0,129.7 128.3,126.3 145.0,123.9 154.4,117.9 155.5,117.2 156.4,117.2 157.0,117.3 163.0,120.0 173.2,124.4 174.4,124.8 177.9,125.5 180.2,125.8 182.8,125.7 184.1,125.2 185.3,124.7 186.1,123.8 186.6,122.6 187.1,120.6 186.8,119.2 186.2,120.8 185.9,121.3 185.1,122.3 183.7,123.4 181.8,124.1 179.4,124.3 178.6,124.2 174.3,122.6 163.7,118.0 156.7,114.8 155.7,114.4 154.8,114.5 142.4,117.6 134.5,121.1 123.6,123.5 89.4,126.6 87.9,126.4 86.9,125.8 85.9,124.9 84.4,123.9 83.8,123.7 83.0,123.8 82.3,123.9 77.0,126.5 72.8,129.3 72.5,129.8 72.1,131.1 71.8,131.6 68.2,134.9 67.2,135.6 59.9,137.9 52.3,138.9 50.8,138.7 49.4,138.3 41.9,135.8 37.7,134.2 38.6,132.6 39.0,131.4 39.3,130.0 39.2,128.4 33.0,110.7 32.5,109.5 31.3,107.1 79.7,106.8 89.7,106.9 109.2,106.8 143.9,107.0 152.6,107.1 163.1,107.2 163.7,100.9 164.6,98.4 165.3,96.6 166.8,93.1 167.6,92.2 169.6,90.0 171.5,88.4 178.4,83.7 180.7,82.6 182.8,82.0 184.4,82.0 185.8,82.4 187.0,82.9 187.5,83.2 189.0,84.3 190.3,85.6 192.2,88.2 196.4,85.8 202.8,82.0 214.4,78.2 232.7,80.9 234.8,81.4 237.3,82.3 240.1,83.8 243.0,85.9 244.8,87.5 245.5,88.6 246.9,91.5 247.5,93.5 248.2,96.3 248.4,99.4 257.4,104.4 257.9,104.1 259.6,102.3 260.5,101.6 263.6,99.4 265.9,98.3 266.6,98.1 268.0,97.7 269.5,97.5 272.1,97.3 275.6,98.0 277.5,98.6 279.3,99.4 280.3,100.0 282.7,101.7 284.5,103.3 286.0,106.0 286.4,107.3 286.9,109.5 287.5,113.9 290.7,114.9 292.1,117.0 293.4,118.2 296.6,120.2 299.3,121.8 300.9,122.6 304.0,123.8 304.7,123.8 315.9,120.8 316.8,120.0 317.4,119.0 318.7,117.7 320.2,116.6 321.9,115.7 323.8,114.9 334.6,110.9 335.9,110.5 346.9,108.0 348.6,108.0 354.6,109.6 355.9,110.0 357.5,111.0 359.3,112.6 359.7,113.1 360.2,114.2 361.4,117.2 363.7,118.2 364.8,118.8 366.5,120.5 369.1,124.5 369.7,125.7 370.0,128.0 370.0,129.6 369.7,131.7 369.2,132.9 367.3,135.3 366.5,136.2 363.7,138.6 362.7,139.2 361.6,139.9 360.2,140.3 346.2,142.3 339.4,143.3 333.7,144.5 329.9,147.0 329.0,147.9 326.8,149.2 323.0,150.6 321.6,151.0 319.1,151.1 302.4,150.2 298.4,149.2 297.2,148.6 281.6,140.9 278.3,138.2 266.1,137.3 263.0,136.8 261.6,136.5 260.3,136.2 257.9,135.2 255.8,133.8 254.9,132.9 252.9,129.8 251.7,127.6 250.4,127.2 243.4,126.1 232.1,123.0 228.5,121.6 226.3,120.3 224.2,119.0 217.9,115.1 216.9,114.3 213.3,111.1 212.5,110.2 209.3,106.4 206.5,107.0 205.1,107.4 203.9,108.0 201.5,111.7 198.4,114.3 198.2,115.8 198.0,118.8 198.0,120.5 197.9,122.8 197.4,125.6 196.9,126.8 196.3,127.9 194.7,129.7 192.7,131.1 190.6,132.5 188.1,133.5 186.8,133.9 182.1,134.6 178.9,134.5 171.8,133.4 124.6,136.8 123.9,138.8 123.9,149.3 123.9,159.8 117.4,159.8 113.3,159.7 100.7,159.4 24.9,159.1 16.1,159.2 14.8,159.6 14.2,160.8 8.7,172.0 4.6,162.1 0.4,146.0 0.0,144.6 0.0,139.8 0.3,134.2 0.8,133.8 2.4,132.8 4.2,132.0 4.9,131.8 5.9,131.1 9.2,128.3 11.0,124.3 " />
  </g>
</svg>