<?xml version="1.0" encoding="UTF-8" standalone="yes"?>
<!DOCTYPE svg PUBLIC "-//W3C//DTD SVG 1.0//EN" "http://www.w3.org/TR/2001/REC-SVG-20010904/DTD/svg10.dtd">
<svg height="250" width="370" xmlns="http://www.w3.org/2000/svg" xmlns:svg="http://www.w3.org/2000/svg" xmlns:xlink="http://www.w3.org/1999/xlink">


<g id="background">
<rect id="" width="370" height="250" fill="#222222"/>
</g>
  <g id="275" style="stroke-miterlimit: 3; fill: #F1F1F1; stroke: #000000; stroke-opacity: 1; stroke-width: 0.05; stroke-linejoin: bevel; stroke-linecap: square">
    <polygon id="Palestinian Occupied Territories" points="252.6,142.6 253.1,142.9 254.1,142.7 254.6,142.2 254.8,139.6 253.5,138.8 252.0,138.6 251.1,139.6 252.6,142.6 " />
    <polygon id="Palestinian Occupied Territories" points="258.4,5.5 260.8,5.8 263.9,5.7 265.9,5.4 270.5,4.2 272.6,4.5 281.2,7.3 282.8,8.6 284.7,11.0 285.2,11.9 295.7,25.1 309.1,28.6 310.0,29.7 310.5,30.6 311.0,33.2 313.0,60.3 312.9,60.9 312.1,63.0 310.3,64.5 302.3,95.0 303.4,102.6 303.7,103.2 304.2,103.6 305.9,115.9 308.4,135.0 309.8,146.7 309.6,147.5 306.5,152.5 304.2,156.9 298.9,170.1 297.3,177.2 296.0,185.0 295.3,191.2 295.2,197.2 291.6,196.8 288.6,196.8 281.4,197.7 279.7,198.2 277.4,199.1 275.4,200.3 254.0,214.8 250.5,218.5 248.4,219.5 244.9,220.2 231.3,222.7 195.3,224.9 192.8,224.9 190.7,224.5 188.8,223.5 187.2,222.4 185.7,221.0 184.7,219.7 184.2,218.8 183.6,217.1 183.5,214.6 184.9,211.7 188.4,207.3 193.5,200.2 194.5,198.6 194.9,197.5 195.4,196.0 195.9,193.2 195.1,185.6 195.5,181.4 196.0,179.8 196.5,178.9 198.0,177.3 202.5,171.6 205.6,169.1 223.6,157.5 235.1,150.9 236.6,150.5 244.7,149.7 234.0,137.9 225.6,134.1 212.0,136.1 207.9,136.5 201.3,136.2 199.8,135.7 198.8,134.6 198.9,128.8 202.9,108.6 205.4,105.5 206.7,97.4 206.4,92.5 202.6,77.8 201.3,73.9 209.8,58.0 210.3,57.4 214.1,34.4 214.3,32.9 213.9,30.7 214.1,28.6 215.9,22.8 217.7,18.6 219.8,14.9 220.3,14.3 222.7,12.3 239.0,3.6 244.4,0.0 253.8,4.3 255.8,5.0 258.4,5.5 " />
    <polygon id="Palestinian Occupied Territories" points="80.1,241.9 67.6,250.0 62.2,235.3 58.0,229.9 63.9,225.0 69.2,220.4 92.7,198.7 103.0,187.4 107.0,182.6 109.0,179.6 109.5,178.6 122.4,187.9 122.3,190.5 118.8,193.9 113.8,197.0 107.2,202.1 90.4,216.5 85.7,222.9 85.9,225.3 87.5,231.6 87.4,234.4 86.9,235.3 86.4,236.0 80.1,241.9 " />
  </g>
</svg>