<?xml version="1.0" encoding="UTF-8" standalone="yes"?>
<!DOCTYPE svg PUBLIC "-//W3C//DTD SVG 1.0//EN" "http://www.w3.org/TR/2001/REC-SVG-20010904/DTD/svg10.dtd">
<svg height="250" width="370" xmlns="http://www.w3.org/2000/svg" xmlns:svg="http://www.w3.org/2000/svg" xmlns:xlink="http://www.w3.org/1999/xlink">


<g id="background">
<rect id="" width="370" height="250" fill="#222222"/>
</g>
  <g id="276" style="stroke-miterlimit: 3; fill: #F1F1F1; stroke: #000000; stroke-opacity: 1; stroke-width: 0.05; stroke-linejoin: bevel; stroke-linecap: square">
    <polygon id="Germany" points="202.3,21.7 201.6,21.6 202.6,22.0 203.5,22.1 204.4,22.1 205.4,21.9 206.0,27.2 205.1,28.2 199.4,30.9 198.8,31.1 197.8,31.1 196.6,31.1 195.5,32.0 195.1,32.7 195.4,33.2 196.0,33.9 196.6,34.1 197.3,34.1 198.5,34.1 199.1,34.3 199.4,35.3 198.6,36.6 197.2,37.5 199.7,36.2 199.9,35.3 201.9,34.6 203.4,34.1 204.8,33.7 206.0,33.5 208.7,33.4 209.3,34.1 210.8,35.8 211.5,36.1 216.3,36.5 218.4,35.2 218.8,34.2 219.6,32.9 220.5,33.1 221.4,32.9 223.1,31.5 223.2,31.0 223.1,30.3 224.7,29.1 225.5,28.9 227.0,28.9 234.7,28.4 239.3,27.8 245.6,24.7 246.2,24.4 249.2,21.4 250.6,19.7 252.0,18.7 255.6,19.5 256.3,19.6 257.0,19.7 260.9,19.7 263.8,19.7 264.3,19.8 264.8,20.3 263.4,20.7 259.5,20.7 258.5,20.3 258.0,20.1 257.4,20.1 256.8,20.4 255.8,20.6 250.1,21.2 248.8,22.0 246.9,24.1 247.0,25.4 247.5,25.7 248.1,25.9 249.4,26.0 248.8,25.7 248.5,25.0 250.5,23.3 252.8,22.4 253.8,22.1 255.2,22.0 257.1,21.9 259.7,22.0 268.0,21.1 270.9,25.0 274.1,25.9 276.3,26.3 279.4,28.3 281.8,30.8 282.7,31.1 283.3,31.2 282.7,30.2 289.9,28.4 292.6,30.4 292.9,31.1 292.5,32.3 293.9,34.4 295.1,37.0 293.6,37.9 293.1,38.5 298.1,41.2 306.6,43.6 307.3,43.7 307.9,43.7 309.3,48.2 312.6,55.2 312.6,56.3 312.0,61.4 311.7,62.3 310.7,64.4 309.0,65.4 306.7,66.4 305.8,66.6 304.8,66.9 304.2,67.3 304.2,70.5 305.7,71.8 306.3,72.0 310.6,74.0 311.7,74.7 313.8,76.5 314.6,77.2 315.6,77.6 316.3,77.8 317.0,78.0 318.2,78.5 318.8,78.9 319.9,79.7 319.8,82.2 319.4,82.9 318.3,84.0 317.6,84.3 317.0,84.4 316.6,85.1 317.9,88.9 318.5,89.4 320.4,89.8 321.6,90.0 322.2,90.4 323.8,96.0 322.5,100.0 321.6,101.4 320.2,102.5 319.2,102.9 318.7,103.6 318.8,104.3 320.7,106.9 321.8,107.8 322.4,108.0 323.6,108.8 323.8,110.5 323.6,111.1 322.3,112.5 323.0,113.4 326.3,114.3 329.0,114.8 329.9,115.2 330.7,116.2 330.9,118.5 330.9,119.5 331.4,120.0 332.5,120.9 332.7,121.6 332.5,122.6 331.3,126.5 330.8,127.8 330.4,128.6 329.3,130.2 328.2,131.6 326.0,134.0 326.0,134.6 325.2,136.1 324.3,136.2 323.1,136.0 322.4,135.8 320.3,135.2 319.3,135.0 319.7,134.1 319.6,132.8 318.6,130.9 317.7,130.1 315.2,129.1 309.3,128.6 308.5,129.1 307.9,130.0 307.6,130.5 309.6,132.0 311.2,132.4 309.4,134.1 304.4,135.4 299.2,136.3 296.3,137.1 295.9,137.7 290.8,139.0 288.7,139.1 287.6,139.2 285.9,139.7 284.6,140.3 283.7,141.5 282.4,143.0 281.3,143.0 280.6,142.8 279.4,142.2 275.3,143.5 274.4,144.3 274.4,144.9 274.0,145.6 273.4,146.3 269.8,146.4 267.9,148.2 267.0,148.9 265.7,149.2 264.6,149.1 264.0,148.8 262.6,148.2 261.8,147.9 260.1,148.1 259.1,148.5 256.7,149.2 255.1,149.2 251.8,149.8 250.7,150.5 247.9,152.5 245.6,154.9 245.5,155.8 244.2,155.5 241.4,152.6 240.8,152.2 238.1,152.1 239.0,152.5 241.8,157.0 241.4,157.8 241.7,159.0 243.6,160.3 245.0,160.9 248.9,162.6 250.3,162.9 250.9,163.2 252.6,165.1 252.7,165.7 250.2,169.4 249.8,172.2 250.4,172.4 251.5,172.6 252.0,173.2 252.9,174.8 253.7,176.6 254.3,177.6 256.8,180.9 260.4,183.5 260.9,183.7 263.3,184.0 263.5,183.5 265.5,183.7 266.2,183.9 268.2,185.3 272.8,189.2 277.3,191.3 279.9,193.0 280.2,194.4 283.6,195.5 285.4,195.4 285.9,195.5 286.5,196.1 287.4,196.1 287.8,197.3 288.5,197.9 289.0,198.3 290.0,198.4 290.5,198.4 291.0,198.4 291.4,199.1 291.8,199.7 292.5,200.0 293.0,200.7 293.5,201.2 294.0,201.8 293.4,203.0 293.8,206.0 293.8,206.6 293.1,207.9 290.6,210.1 289.2,209.7 288.7,209.4 288.2,208.9 286.6,208.5 284.2,207.9 283.5,208.0 281.7,208.4 281.5,209.0 281.9,210.1 281.4,212.7 280.8,214.1 279.9,214.9 278.0,216.1 277.3,216.6 276.6,216.8 275.5,217.1 272.2,217.3 267.8,218.4 263.2,220.1 259.8,222.5 259.3,223.2 259.7,224.0 260.6,224.8 262.0,225.7 262.5,226.1 262.8,226.7 264.6,228.1 266.2,229.7 267.5,231.4 266.4,232.7 265.6,233.4 264.4,235.3 264.6,235.8 266.8,235.9 267.4,235.8 267.9,235.5 269.1,236.1 269.7,236.6 270.5,238.1 269.0,242.8 267.8,243.7 266.1,243.5 261.1,241.1 260.5,240.2 260.8,239.1 261.7,239.0 259.0,236.9 258.3,236.8 256.5,236.8 254.6,237.2 253.6,238.1 251.8,238.5 249.7,237.4 241.6,237.7 241.8,238.3 241.7,239.0 239.7,239.2 238.7,239.1 237.0,238.9 235.3,238.8 232.5,239.1 224.9,240.0 221.7,241.9 220.8,242.3 219.2,242.5 217.7,242.4 212.5,245.0 206.6,246.1 206.1,246.1 203.9,246.1 203.3,246.1 202.5,246.0 200.1,242.2 193.1,241.0 189.2,241.5 186.4,240.1 185.1,240.1 184.6,240.3 184.9,241.8 185.6,243.0 186.1,244.7 184.7,246.1 181.8,248.7 179.7,249.5 178.3,249.9 176.4,250.0 177.7,248.5 178.3,246.9 172.2,242.9 169.4,241.5 164.9,239.8 163.9,239.7 163.3,240.0 162.6,240.8 162.2,241.6 161.0,241.8 159.7,241.8 158.4,241.8 157.3,241.6 154.1,240.3 147.1,237.5 141.5,236.8 140.1,236.7 139.5,236.7 138.9,236.9 138.3,237.2 137.1,237.7 136.1,237.9 135.3,237.9 134.1,236.4 133.4,235.8 132.6,235.2 131.6,235.6 132.3,236.9 131.1,236.6 130.6,236.5 129.8,236.4 130.2,235.9 130.3,234.6 128.6,233.6 127.9,233.2 126.4,233.0 124.8,232.9 122.0,234.0 119.7,236.2 119.9,237.0 121.9,238.0 122.5,238.0 123.3,238.0 123.9,237.5 125.3,237.3 126.2,237.4 126.8,237.7 125.7,239.5 125.1,239.8 124.8,239.1 123.7,238.5 123.0,238.6 122.0,239.2 120.6,240.4 119.2,240.2 116.0,239.4 114.4,238.9 113.2,238.9 112.6,239.0 110.2,240.2 109.6,240.8 107.7,241.0 104.4,241.1 103.8,241.0 99.2,241.0 96.9,241.4 95.6,241.1 94.4,240.8 95.9,240.4 96.2,239.4 95.1,239.4 93.4,240.0 93.4,239.5 92.7,238.4 91.8,237.8 91.3,237.4 91.0,236.8 90.9,236.2 91.4,233.5 92.4,231.1 93.3,229.8 94.5,227.7 94.6,227.1 94.2,226.5 93.2,225.8 92.8,225.3 92.8,224.0 93.0,223.1 94.0,221.4 96.8,217.8 98.5,216.1 98.4,214.8 98.2,214.2 98.4,213.0 100.3,208.2 102.8,205.4 105.4,203.4 109.6,200.9 110.0,200.3 110.2,199.7 110.5,198.9 111.0,198.1 112.7,196.1 113.9,195.7 111.6,195.3 108.3,194.4 104.6,193.0 100.9,193.1 98.2,193.2 96.0,193.2 95.4,193.1 94.7,192.5 90.1,189.3 88.4,188.9 87.8,188.9 86.8,189.0 86.3,189.4 86.1,189.9 83.9,191.0 79.4,190.7 77.4,190.5 75.1,188.6 72.4,187.5 69.8,187.6 69.7,188.5 70.0,189.0 69.3,189.6 68.8,189.6 66.0,189.3 65.3,188.7 64.4,186.7 61.5,182.9 59.9,181.1 58.7,180.3 57.4,179.8 55.7,179.3 54.0,179.8 54.0,178.9 53.8,177.7 55.9,173.2 57.3,172.4 57.9,172.2 58.6,171.9 59.2,168.7 57.8,168.5 56.2,168.6 55.1,168.3 52.7,167.3 50.6,166.3 49.9,165.7 48.0,164.1 46.9,162.6 46.6,162.0 46.0,160.7 46.2,159.5 46.5,158.7 46.9,157.5 47.6,155.3 51.4,153.3 53.6,152.4 55.2,152.1 54.4,148.3 53.4,146.9 52.6,146.5 50.9,146.5 50.3,143.5 51.1,142.7 47.7,141.4 44.1,139.2 42.7,138.1 42.6,136.7 42.8,135.5 43.8,135.1 44.4,135.2 45.1,134.5 45.0,133.1 43.3,131.1 40.7,130.8 40.2,130.9 39.4,131.2 38.9,131.2 38.2,129.7 38.0,128.9 39.2,128.3 42.5,127.6 45.5,126.1 45.3,124.9 44.8,124.2 44.7,123.5 44.8,122.6 47.0,120.8 49.5,118.7 49.5,115.4 49.0,113.9 47.5,112.4 46.8,112.0 45.4,110.9 43.3,107.6 40.8,106.3 41.7,105.9 41.9,105.2 41.2,104.4 42.5,103.7 46.3,101.8 48.2,101.6 53.6,103.1 57.2,102.9 59.3,102.2 61.5,101.5 64.1,101.0 64.6,101.1 65.5,101.5 66.3,101.2 67.3,100.7 69.0,99.3 68.9,98.6 68.1,98.0 65.8,97.1 66.0,95.7 66.8,94.5 69.4,94.4 70.0,94.3 70.5,93.7 71.3,92.7 73.4,92.1 75.8,90.8 75.5,89.6 75.4,89.0 75.7,88.1 76.4,87.4 76.8,86.7 76.6,85.8 74.2,83.4 73.7,83.8 73.0,84.2 66.9,83.4 65.0,82.6 64.5,80.6 65.6,80.2 66.7,80.1 65.8,78.4 66.7,77.3 67.5,77.2 71.1,77.2 71.7,77.5 75.3,77.9 75.9,77.8 76.3,77.3 76.5,75.0 76.6,74.0 76.6,73.5 76.6,73.0 76.7,72.0 77.4,71.3 78.8,69.6 80.3,68.2 80.7,67.4 81.2,66.0 81.1,60.4 81.2,58.3 82.4,56.1 83.2,55.8 84.8,55.9 85.3,56.0 85.9,56.4 85.8,55.9 85.2,55.7 81.8,55.3 80.4,55.1 78.5,55.1 77.5,55.2 76.8,55.3 76.1,55.2 75.3,54.3 75.0,53.7 75.0,53.1 75.2,51.9 75.5,50.7 77.3,47.3 80.4,45.4 81.8,44.7 84.0,44.1 85.4,43.9 89.0,44.0 89.5,44.0 90.1,44.1 90.8,44.5 93.2,44.2 96.9,43.6 101.6,43.1 102.8,43.0 103.6,43.0 105.0,43.0 106.0,43.1 106.9,43.3 107.5,43.5 107.3,44.0 108.1,45.6 110.6,47.3 111.7,47.9 112.0,48.6 112.0,49.1 111.0,49.6 109.9,49.9 109.3,49.9 108.6,49.9 108.7,50.7 109.1,51.2 109.8,51.8 113.2,53.1 113.8,53.2 114.5,53.2 115.6,52.7 116.6,51.6 116.9,50.0 116.9,49.5 116.4,49.2 115.4,49.3 114.2,49.4 114.2,48.2 114.4,47.2 115.0,46.7 115.7,46.4 116.4,46.3 117.0,46.3 117.6,46.4 122.5,48.2 123.3,49.6 122.6,50.3 122.2,51.0 122.1,51.5 122.2,52.6 122.3,53.8 122.6,54.5 122.9,52.4 122.6,51.6 122.6,50.9 122.9,50.4 124.6,49.5 124.9,48.9 124.5,48.4 123.1,46.2 122.5,45.4 122.2,44.9 122.1,44.2 122.3,43.5 124.2,39.8 125.1,38.7 125.9,37.9 127.6,37.4 128.5,37.3 129.3,37.9 130.0,38.5 130.9,38.9 131.5,39.1 132.2,39.2 134.0,39.4 135.8,39.5 139.4,38.9 142.1,38.3 142.9,38.2 145.6,38.3 147.6,38.5 148.2,38.8 149.0,39.4 150.0,40.4 150.9,41.6 151.9,42.6 156.3,46.5 157.2,47.1 160.4,48.2 161.1,48.4 163.3,48.6 164.5,48.9 165.1,49.0 165.2,48.4 163.9,48.0 162.5,47.9 162.0,47.9 161.2,47.8 160.6,47.7 160.1,47.5 157.2,46.4 156.3,45.7 152.8,42.3 152.1,41.3 151.8,40.6 151.4,39.7 149.6,38.7 147.9,38.0 146.3,37.6 145.3,37.5 140.8,37.2 138.5,37.4 137.7,37.3 137.1,36.9 136.4,36.5 135.5,35.8 135.0,35.2 133.9,33.7 133.5,33.0 134.1,32.6 134.9,32.5 136.4,32.8 137.0,33.0 137.8,33.4 138.8,33.1 139.1,32.5 139.3,31.2 137.8,29.7 134.2,30.0 133.3,29.2 132.7,28.3 133.1,27.3 133.6,25.9 135.0,24.5 133.3,24.5 129.0,25.3 128.1,25.4 127.3,25.2 126.3,24.3 125.9,23.5 126.6,21.8 127.1,21.2 131.3,20.7 133.1,20.6 133.6,20.9 135.1,20.6 138.6,19.4 139.2,18.8 139.4,18.1 137.7,16.6 137.0,16.4 136.2,16.0 133.9,14.0 132.8,12.5 132.5,11.9 130.9,11.1 130.2,10.8 129.0,10.0 127.7,8.2 127.2,7.4 125.0,6.6 125.3,6.1 124.1,6.0 119.1,6.1 116.3,6.3 116.1,7.4 116.0,8.6 116.3,9.3 116.2,10.2 115.7,10.0 115.6,9.0 115.7,7.7 115.7,7.1 116.0,5.2 116.4,4.2 118.6,0.7 119.3,0.1 119.8,0.0 121.0,0.1 121.5,0.3 120.7,1.0 120.2,1.4 119.5,1.6 118.6,2.0 118.0,2.7 117.9,3.4 120.0,4.2 120.3,4.7 121.3,5.0 122.4,5.0 125.8,4.8 128.0,4.6 128.7,5.1 129.7,5.3 130.9,5.1 131.9,4.8 133.2,4.6 136.2,4.8 136.8,4.9 144.2,6.2 145.9,6.5 146.1,7.1 146.5,7.7 149.8,8.0 150.3,7.8 150.9,7.3 152.1,7.2 153.0,7.4 152.8,8.0 157.3,7.4 160.0,7.9 164.0,8.7 167.3,8.6 167.8,8.5 168.8,8.8 169.6,9.3 172.1,12.4 172.2,13.6 171.9,16.1 171.2,17.0 169.9,17.6 167.4,18.5 166.7,18.6 166.0,18.6 166.5,19.2 167.4,19.4 171.1,18.7 174.1,18.2 174.9,18.2 182.7,20.0 190.5,22.4 191.2,22.7 191.8,23.3 192.7,23.9 193.6,24.1 195.4,24.1 196.2,24.0 197.2,23.5 197.9,23.1 199.3,22.3 201.0,21.6 202.3,21.7 " />
    <polygon id="Germany" points="124.9,11.9 122.3,11.9 119.5,11.3 119.7,10.5 120.3,10.1 120.9,9.9 121.4,9.8 123.9,9.7 124.9,9.8 125.5,10.1 125.7,10.8 125.0,11.8 " />
    <polygon id="Germany" points="118.3,14.2 117.6,14.1 116.2,12.8 116.5,11.9 117.6,11.2 119.5,13.8 118.4,14.2 " />
    <polygon id="Germany" points="279.5,13.4 279.8,14.4 280.3,15.0 281.2,15.4 281.9,15.5 282.7,15.5 283.8,15.4 286.3,15.2 287.1,15.1 287.6,15.1 288.8,15.7 289.1,16.5 288.9,17.0 288.0,17.4 286.2,18.3 285.8,19.1 286.0,19.8 287.1,21.0 288.0,21.1 288.7,21.0 289.8,21.5 290.7,22.6 291.1,23.3 290.7,25.1 290.2,25.2 289.6,24.9 290.1,24.4 290.1,23.6 289.4,22.8 283.6,22.9 282.3,23.4 278.8,25.1 280.2,25.4 280.7,25.5 281.0,26.1 280.0,26.8 277.5,26.0 275.9,25.8 275.3,25.6 272.3,24.1 271.2,23.3 271.4,22.1 272.1,21.9 273.7,22.0 274.2,22.1 274.8,22.0 275.6,21.8 274.9,20.7 273.9,20.2 272.5,20.0 274.6,19.0 274.7,18.3 272.6,17.5 272.0,16.4 274.7,16.2 275.5,16.2 277.0,16.3 278.1,15.7 279.0,15.3 279.4,16.0 279.9,16.5 280.7,17.2 281.6,18.2 282.8,18.4 283.4,18.1 283.8,17.5 283.4,16.3 282.0,16.3 280.9,15.6 279.6,15.4 279.3,14.3 278.7,14.5 277.8,15.2 277.2,15.5 276.4,15.8 275.3,16.0 274.5,13.6 275.1,12.9 275.7,12.5 276.6,12.3 279.0,12.1 279.6,12.1 280.9,12.0 281.5,12.2 280.8,12.8 280.0,13.0 " />
    <polygon id="Germany" points="269.6,18.2 269.3,19.0 269.2,18.3 270.3,15.0 271.0,14.6 271.6,14.5 272.2,14.6 272.3,15.2 270.8,16.8 269.6,18.2 " />
    <polygon id="Germany" points="127.9,18.1 126.9,18.2 126.4,18.1 125.8,17.6 125.6,17.1 127.2,16.4 128.8,16.2 129.5,16.2 129.4,16.8 128.8,17.5 128.2,18.0 " />
    <polygon id="Germany" points="213.0,20.9 207.5,20.9 203.7,19.9 203.2,19.1 203.6,18.2 204.0,17.6 205.1,16.8 208.9,17.2 210.4,17.7 211.8,19.2 212.6,20.2 213.0,20.8 " />
    <polygon id="Germany" points="135.3,19.1 133.5,19.1 132.9,19.0 132.8,18.0 134.3,17.1 136.2,17.1 136.9,17.1 137.5,17.3 136.3,18.7 135.8,19.0 " />
    <polygon id="Germany" points="258.6,20.6 257.2,20.6 257.8,20.2 258.5,20.4 " />
    <polygon id="Germany" points="202.3,21.7 203.6,21.7 202.5,21.8 " />
    <polygon id="Germany" points="299.4,31.8 302.7,34.0 305.2,35.6 306.2,36.1 306.3,37.2 306.4,38.2 305.7,38.0 302.0,38.0 300.8,38.1 300.3,38.3 299.6,38.6 297.7,39.0 295.9,39.1 293.8,38.7 294.0,38.2 295.3,37.9 297.1,37.2 297.4,36.7 298.0,35.8 298.8,35.1 299.8,35.6 300.4,35.8 300.9,35.8 301.2,34.4 300.9,33.8 299.8,33.5 299.3,32.7 298.7,32.1 297.9,32.0 297.1,31.9 297.0,32.8 296.2,33.5 294.9,34.0 293.7,32.8 293.2,31.6 293.5,30.8 291.7,29.5 291.6,28.9 292.3,28.4 293.0,28.4 293.5,28.7 293.8,29.3 295.1,30.5 295.9,31.0 296.8,31.3 297.4,31.5 298.3,31.6 299.4,31.8 " />
    <polygon id="Germany" points="220.5,32.0 219.4,32.4 220.0,31.5 220.8,30.9 222.7,30.6 221.2,31.5 220.5,32.0 " />
    <polygon id="Germany" points="129.0,32.6 128.4,32.5 128.0,31.9 128.4,31.3 129.1,32.1 129.0,32.6 " />
    <polygon id="Germany" points="297.5,33.1 " />
    <polygon id="Germany" points="217.7,35.2 216.8,35.2 215.6,35.0 215.1,34.7 215.2,34.1 215.9,33.7 217.3,33.2 217.9,33.2 218.7,33.2 218.4,34.5 218.0,35.0 " />
    <polygon id="Germany" points="120.3,36.3 119.7,35.6 120.2,35.1 120.8,35.1 121.3,35.2 120.3,36.3 " />
    <polygon id="Germany" points="98.9,41.6 96.0,41.8 96.2,41.2 96.9,41.0 100.3,41.1 98.9,41.6 " />
    <polygon id="Germany" points="94.5,41.8 93.3,42.0 91.1,42.1 89.8,42.9 89.5,42.3 90.1,41.7 91.1,41.7 93.0,41.6 94.1,41.6 " />
    <polygon id="Germany" points="112.8,42.8 110.6,43.3 110.8,42.7 111.6,42.4 112.2,42.5 112.8,42.7 " />
    <polygon id="Germany" points="82.3,43.4 79.6,43.6 79.0,43.5 80.1,42.9 81.0,42.8 84.1,42.7 85.0,42.7 85.6,42.9 85.0,43.1 82.9,43.4 82.3,43.4 " />
    <polygon id="Germany" points="72.5,44.6 71.1,44.7 70.5,44.5 71.2,44.3 72.7,44.2 76.5,44.0 77.1,44.0 72.5,44.6 " />
    <polygon id="Germany" points="68.3,46.7 67.3,46.7 66.6,46.8 65.7,47.2 66.4,48.1 64.5,47.8 64.0,47.7 63.5,47.0 66.4,46.2 67.2,46.3 68.2,46.7 " />
    <polygon id="Germany" points="129.4,236.4 128.4,236.6 128.2,236.0 129.1,235.9 129.4,236.4 " />
  </g>
</svg>