<?xml version="1.0" encoding="UTF-8" standalone="yes"?>
<!DOCTYPE svg PUBLIC "-//W3C//DTD SVG 1.0//EN" "http://www.w3.org/TR/2001/REC-SVG-20010904/DTD/svg10.dtd">
<svg height="250" width="370" xmlns="http://www.w3.org/2000/svg" xmlns:svg="http://www.w3.org/2000/svg" xmlns:xlink="http://www.w3.org/1999/xlink">


<g id="background">
<rect id="" width="370" height="250" fill="#222222"/>
</g>
  <g id="288" style="stroke-miterlimit: 3; fill: #F1F1F1; stroke: #000000; stroke-opacity: 1; stroke-width: 0.05; stroke-linejoin: bevel; stroke-linecap: square">
    <polygon id="Ghana" points="250.0,206.6 250.9,209.7 243.2,209.7 240.9,209.5 240.0,209.3 239.3,209.2 237.1,209.2 235.1,210.0 230.5,211.7 228.0,213.2 227.5,213.8 226.7,214.9 222.4,216.9 217.0,218.9 215.0,219.5 213.5,219.8 211.2,220.2 208.5,222.4 206.5,224.6 206.0,225.1 204.4,225.6 203.0,225.7 202.3,225.8 199.9,226.7 198.3,227.4 197.7,227.9 197.0,228.8 194.4,231.2 193.8,231.4 190.2,231.6 187.1,231.8 184.8,231.7 183.9,231.7 181.3,233.0 180.1,234.0 179.4,234.5 178.1,235.1 176.6,235.7 175.9,235.9 174.6,235.9 170.2,236.8 165.5,238.0 164.2,238.6 163.4,238.5 162.5,238.6 157.7,242.7 149.2,248.4 145.2,249.8 144.2,250.0 143.4,249.2 137.5,244.2 136.9,243.7 136.3,243.5 134.7,242.7 133.8,242.5 132.9,242.3 130.6,242.0 127.9,241.5 126.2,241.1 124.7,240.7 119.2,239.1 114.8,238.5 113.9,238.3 109.9,237.5 109.2,237.4 107.2,236.9 105.8,236.5 104.7,236.1 104.7,235.1 107.1,235.2 109.6,236.2 111.5,235.5 118.2,235.5 119.0,235.0 119.2,234.1 118.6,232.7 117.9,231.6 117.1,228.5 117.5,225.8 118.7,222.1 117.8,216.9 116.5,215.5 114.9,214.9 113.3,215.1 112.6,215.4 111.5,215.7 110.2,215.0 108.1,211.9 108.4,206.1 105.9,200.9 105.2,196.2 105.0,194.9 103.1,191.0 102.1,190.6 102.2,190.0 102.1,189.2 100.6,183.2 99.7,179.5 99.0,176.8 99.2,175.8 99.6,175.2 100.6,173.6 100.6,171.3 100.0,168.8 104.1,161.7 104.9,159.8 107.7,158.9 109.7,151.6 110.7,145.0 111.6,138.6 114.3,132.9 114.9,132.4 117.0,128.6 117.4,125.3 121.9,122.0 124.2,118.2 125.7,116.6 128.6,115.2 128.3,113.2 125.8,97.9 125.3,95.2 125.0,93.2 124.8,92.6 123.9,92.7 124.2,91.5 124.4,90.9 124.3,90.2 123.6,87.4 122.2,83.7 121.4,83.2 119.3,82.8 117.7,81.6 118.0,79.4 119.7,76.5 120.6,75.5 121.6,69.2 121.4,66.2 120.9,65.4 120.2,64.4 119.6,63.7 118.8,63.1 118.1,62.7 117.6,62.1 117.6,60.9 117.9,59.8 118.6,58.8 117.1,57.5 116.7,55.8 117.8,53.1 117.3,45.0 116.6,43.3 116.7,39.0 117.5,36.9 116.8,34.8 115.1,31.1 112.9,25.1 111.9,22.1 111.9,19.9 111.5,17.8 112.2,16.8 115.0,10.9 115.1,8.1 115.1,6.4 119.0,6.4 135.8,6.4 147.8,6.5 158.0,6.5 164.1,6.5 164.4,5.7 170.0,5.4 171.8,6.5 182.8,6.5 182.7,5.9 186.8,5.9 190.1,6.2 194.7,6.5 198.7,6.6 199.2,8.1 201.0,9.8 211.0,3.2 214.0,0.9 214.0,0.2 218.3,0.9 219.3,1.1 219.5,1.8 221.2,2.8 221.9,2.9 223.1,2.6 223.8,2.4 224.3,2.4 225.1,2.7 226.1,3.1 226.5,4.0 226.5,5.6 226.4,6.6 224.3,12.0 222.8,14.9 221.9,18.0 222.0,19.8 222.3,20.6 223.0,21.0 225.0,21.7 226.4,22.3 226.9,22.5 229.8,25.0 234.0,29.4 236.1,29.1 236.9,30.2 239.4,35.2 239.0,37.6 238.7,40.8 238.8,41.5 239.4,42.0 240.2,42.3 240.7,43.2 240.7,44.1 239.1,44.0 237.7,54.5 235.3,58.0 234.9,58.7 233.8,62.4 233.7,63.1 233.5,66.1 234.0,67.3 235.1,67.8 235.9,67.9 238.0,67.0 238.6,65.5 239.3,65.1 241.2,64.8 242.2,64.9 243.1,65.1 244.5,65.7 246.4,68.0 246.6,68.8 246.6,69.6 245.6,76.1 245.3,76.8 244.6,78.0 242.8,81.8 242.6,82.6 242.5,83.3 245.0,87.2 245.3,88.3 245.0,90.1 244.3,91.8 240.0,93.4 240.2,94.2 241.0,95.9 243.2,99.6 246.0,101.4 249.6,103.7 250.2,104.4 252.3,107.8 253.3,110.3 253.4,110.9 253.4,111.4 252.5,112.3 251.1,113.0 249.9,113.7 248.9,114.5 248.3,118.9 248.4,119.6 249.3,126.9 248.3,134.4 245.4,138.8 245.1,140.1 245.0,141.1 244.9,143.9 245.8,145.3 246.2,145.9 246.9,146.6 247.5,146.8 248.7,146.6 249.6,146.3 250.2,146.2 250.5,147.4 250.4,150.8 250.0,153.8 248.8,161.0 248.1,161.9 245.5,163.8 247.1,168.9 250.0,171.9 250.4,172.8 250.4,173.3 250.3,174.3 250.1,175.3 250.7,176.8 251.8,177.6 252.3,177.9 252.8,177.9 253.5,177.8 254.0,178.3 253.9,179.1 253.3,179.8 253.2,180.4 253.3,181.0 254.6,183.2 255.6,184.3 260.2,187.8 264.0,187.8 266.4,192.0 267.8,194.3 268.4,194.3 271.8,194.3 271.8,196.0 271.7,196.7 270.9,196.9 270.1,197.4 269.3,197.9 267.8,199.0 266.9,199.7 265.1,202.0 264.3,203.9 264.1,204.8 264.0,205.5 264.0,206.0 264.0,206.5 263.7,207.3 263.3,207.9 262.6,208.5 261.8,209.1 260.8,209.4 255.8,210.0 252.0,210.3 251.6,209.7 252.1,209.4 251.1,208.3 250.4,206.9 250.7,205.3 250.4,204.0 249.9,202.9 247.9,200.7 245.0,198.4 242.8,197.5 242.2,197.3 241.1,197.3 240.4,198.1 239.7,198.8 237.4,198.5 236.8,198.0 236.0,197.0 235.1,196.6 234.1,196.5 233.4,196.9 234.6,197.2 235.2,197.5 236.1,198.2 236.6,198.7 237.2,199.2 238.6,199.6 239.3,199.7 240.0,199.5 240.9,198.3 241.4,197.8 241.9,197.8 244.1,198.9 244.8,199.3 247.4,200.9 248.1,201.5 249.0,202.5 249.2,203.1 250.0,204.7 250.2,205.3 250.0,206.6 " />
  </g>
</svg>