<?xml version="1.0" encoding="UTF-8" standalone="yes"?>
<!DOCTYPE svg PUBLIC "-//W3C//DTD SVG 1.0//EN" "http://www.w3.org/TR/2001/REC-SVG-20010904/DTD/svg10.dtd">
<svg height="250" width="370" xmlns="http://www.w3.org/2000/svg" xmlns:svg="http://www.w3.org/2000/svg" xmlns:xlink="http://www.w3.org/1999/xlink">


<g id="background">
<rect id="" width="370" height="250" fill="#222222"/>
</g>
  <g id="300" style="stroke-miterlimit: 3; fill: #F1F1F1; stroke: #000000; stroke-opacity: 1; stroke-width: 0.05; stroke-linejoin: bevel; stroke-linecap: square">
    <polygon id="Greece" points="275.2,1.5 275.8,1.5 277.6,1.3 279.0,2.1 283.3,4.1 285.2,4.9 286.4,7.3 287.5,11.8 287.6,13.3 287.5,14.0 286.9,14.8 286.4,15.1 279.6,17.6 278.5,17.8 277.9,17.8 276.3,18.5 276.3,23.6 277.9,25.8 277.7,28.6 275.0,30.5 273.7,31.0 272.3,31.4 270.9,33.5 269.3,35.8 268.5,36.3 267.9,36.5 267.1,36.5 266.5,36.5 265.9,35.7 265.7,34.4 266.1,33.9 265.5,33.1 261.4,32.4 257.6,32.3 256.4,32.3 255.6,32.4 254.5,32.5 253.2,32.3 249.5,31.7 246.7,31.0 243.7,30.4 241.4,29.2 240.2,28.9 239.6,28.9 237.1,29.2 235.0,29.1 233.5,28.7 233.4,27.9 234.2,27.4 233.9,26.7 231.3,26.7 230.0,26.8 224.6,30.0 223.5,30.7 221.4,32.3 220.7,32.3 215.4,32.1 214.2,30.6 213.1,28.8 210.9,28.6 208.1,29.0 206.9,29.2 204.7,30.7 204.1,31.3 203.8,32.4 204.0,33.1 198.2,36.2 196.1,37.1 195.1,37.2 194.5,37.1 192.4,36.7 191.4,36.4 189.5,35.8 188.5,35.1 187.0,34.6 183.0,35.8 182.4,36.3 181.6,37.3 181.4,38.1 181.4,38.7 185.2,42.0 186.2,44.7 186.0,45.3 186.1,45.8 186.4,46.5 187.5,47.8 188.0,48.3 189.8,49.1 191.2,49.3 192.7,49.1 198.7,50.3 201.2,51.7 206.1,56.2 206.7,56.9 206.9,57.5 204.1,58.7 203.6,58.7 203.1,58.2 202.8,57.4 198.8,53.2 198.0,52.7 197.1,52.5 196.0,52.6 194.5,52.5 193.7,52.2 192.6,51.7 191.5,51.0 190.7,50.3 189.8,49.9 189.3,49.8 187.2,49.5 186.5,49.6 182.9,50.3 182.1,50.9 181.7,51.5 181.5,52.3 181.7,53.1 182.7,54.3 184.4,55.9 185.1,56.1 188.3,56.7 189.2,57.1 191.7,58.3 192.2,58.9 193.1,61.9 193.1,62.6 192.3,64.6 190.5,65.0 189.0,64.1 186.3,62.1 185.0,60.1 184.0,58.5 182.7,56.9 181.9,56.1 180.7,55.1 180.1,54.7 179.6,54.6 171.5,52.8 170.9,52.9 170.1,53.4 169.3,54.1 168.7,54.8 168.5,55.3 169.8,57.8 173.8,61.4 174.5,61.8 178.0,63.0 178.6,63.2 180.9,64.0 183.5,65.4 182.7,66.0 182.1,66.2 179.7,66.0 178.6,65.9 178.0,65.8 172.3,64.0 170.2,63.2 168.1,58.7 168.2,56.6 168.1,55.7 167.9,55.1 167.3,54.6 166.1,54.0 162.9,53.1 160.5,52.2 152.9,48.7 150.9,45.9 151.6,44.8 152.6,44.8 153.8,44.5 154.6,44.3 155.3,44.0 155.9,43.4 155.8,42.9 154.8,40.7 153.4,39.8 152.8,39.7 151.7,40.0 151.6,40.6 151.5,41.5 150.0,42.5 145.9,44.3 144.0,44.6 141.8,45.8 141.6,46.4 142.5,48.3 142.9,48.8 142.6,52.5 142.3,53.0 140.3,57.2 140.3,58.2 141.0,60.9 142.0,62.5 142.7,63.1 145.3,64.2 145.9,64.5 151.2,70.4 151.5,71.1 151.5,72.0 151.7,72.7 153.4,76.7 153.8,77.6 154.3,78.2 157.3,79.9 160.8,82.5 161.5,83.2 165.9,87.1 166.5,87.8 168.3,90.8 168.9,92.1 169.0,92.6 168.3,93.4 164.0,95.2 162.4,95.6 161.0,95.8 159.8,95.9 158.6,95.6 159.1,94.2 159.7,93.6 160.5,93.5 160.7,94.2 160.1,95.3 162.8,94.3 164.1,93.6 164.5,92.6 163.0,89.8 162.4,89.2 161.0,88.1 156.4,86.3 154.6,86.0 150.4,89.1 150.0,89.9 150.0,90.4 150.2,91.2 150.6,92.2 151.2,93.2 152.1,92.9 153.4,93.4 155.3,94.7 156.4,96.6 156.4,97.5 157.8,97.7 159.2,97.7 158.4,98.4 156.9,99.8 154.3,101.6 150.5,102.9 147.9,103.7 147.0,103.6 145.1,103.4 144.3,103.1 143.8,102.5 142.8,102.3 139.5,103.2 139.4,104.0 140.5,105.0 141.4,105.3 142.4,105.4 144.6,105.1 146.2,105.4 147.8,106.7 148.3,106.9 154.9,108.0 158.9,110.1 159.9,111.7 160.4,112.3 161.4,112.2 162.6,111.9 163.2,111.6 166.7,111.5 167.9,111.8 168.6,112.6 168.7,113.2 167.6,114.6 168.6,115.7 170.9,116.7 173.3,117.1 175.8,117.0 177.9,118.3 177.9,119.0 178.2,119.5 180.2,122.0 180.9,122.5 185.3,123.4 187.2,123.8 189.9,124.4 191.2,124.9 195.2,127.9 195.1,129.3 194.8,129.9 192.8,132.6 193.0,136.1 193.7,139.6 194.6,140.6 195.7,142.2 195.8,143.0 195.1,146.2 194.1,147.4 190.8,146.9 189.9,145.1 189.3,143.6 188.5,142.9 187.6,142.1 187.1,141.8 186.2,141.4 184.5,141.0 176.8,136.2 176.6,135.7 177.1,135.5 177.7,135.0 178.1,134.4 177.7,133.6 177.2,133.5 175.1,133.6 173.1,134.3 172.0,134.9 171.4,135.8 168.5,135.8 165.5,135.8 164.9,136.0 162.9,136.8 162.1,137.5 161.4,137.9 160.5,138.1 158.9,138.2 157.8,138.0 157.2,137.8 156.3,139.2 156.6,140.4 157.3,140.7 158.8,140.8 159.6,140.9 160.3,140.7 161.9,143.8 162.4,148.7 163.6,149.6 166.6,151.1 168.2,151.9 168.7,151.8 169.5,151.5 169.5,150.6 169.0,149.9 168.4,149.3 171.2,149.9 171.7,152.1 172.6,152.9 174.5,153.9 175.3,154.4 175.5,155.2 174.8,155.7 171.8,156.3 170.7,156.3 169.3,156.1 166.3,156.6 164.9,157.4 163.6,159.8 163.9,160.3 163.1,160.6 162.1,160.4 159.1,158.3 158.9,156.9 159.6,157.0 160.4,156.9 161.5,156.0 161.5,155.3 155.8,152.5 154.1,151.8 148.6,149.8 148.0,149.8 147.3,150.1 146.7,150.6 146.6,151.3 146.7,153.5 147.9,156.4 149.7,158.6 153.4,164.1 153.0,164.8 152.8,165.9 153.0,166.8 153.7,167.1 154.2,166.7 154.9,166.8 156.8,170.2 156.9,171.4 157.1,173.3 158.5,175.8 159.8,177.5 160.7,179.2 159.7,180.1 159.0,180.4 158.5,180.4 157.7,180.7 157.5,181.3 157.6,183.4 157.7,184.2 159.4,186.3 160.5,186.8 163.8,190.7 163.9,191.3 161.6,191.7 159.8,191.2 155.6,188.4 154.9,187.3 152.5,183.8 148.9,178.4 148.4,178.2 146.8,178.1 143.7,178.1 143.1,178.2 142.0,178.5 141.2,179.2 139.0,183.0 137.9,185.3 137.8,187.9 138.3,188.9 138.8,189.5 138.8,190.1 138.8,190.8 138.1,193.2 137.7,192.6 134.8,190.0 134.1,187.8 133.4,181.9 131.2,177.7 129.3,175.6 127.2,174.9 125.8,172.8 126.3,171.0 126.2,170.4 124.9,170.1 123.2,170.0 122.3,170.0 121.6,170.2 119.8,170.8 118.9,171.2 118.3,171.5 117.9,172.3 117.7,175.9 117.8,176.5 118.1,177.5 118.7,178.2 118.3,179.6 116.3,181.1 115.0,179.7 114.5,179.0 114.3,178.3 113.7,178.1 112.3,178.3 109.9,177.7 109.4,176.7 109.2,175.7 109.3,175.0 109.6,174.2 110.1,173.7 110.2,173.1 107.5,170.7 106.6,170.1 105.5,168.9 104.9,165.8 104.9,165.2 105.3,164.1 105.8,163.4 106.3,163.0 107.2,162.6 108.6,161.4 109.5,160.1 109.6,159.3 109.0,157.5 108.3,155.8 107.9,155.1 106.3,152.9 105.4,151.9 104.6,151.3 103.7,150.6 99.0,147.6 95.1,143.0 94.5,142.6 92.9,141.9 92.4,141.7 90.8,141.3 89.8,141.2 88.8,141.0 88.3,140.6 88.4,139.5 88.6,138.8 89.0,137.6 89.5,137.2 90.0,137.6 90.9,137.6 92.0,137.2 94.7,135.2 95.9,134.0 97.7,130.9 98.0,130.1 98.0,129.5 98.4,127.4 100.5,127.8 101.6,128.2 103.6,129.2 105.9,129.7 106.6,129.6 107.6,129.3 108.6,129.0 110.3,127.2 110.9,126.1 111.2,125.2 112.4,124.1 115.1,122.8 119.0,123.2 121.3,123.9 121.5,124.5 122.0,125.2 126.7,127.7 128.3,128.4 134.2,129.8 136.9,130.2 139.9,131.0 144.0,132.3 146.1,133.3 146.6,133.5 147.9,134.8 149.3,136.1 151.4,137.2 153.2,137.3 154.5,137.1 155.1,136.9 155.6,136.2 155.8,135.7 154.7,135.0 153.2,134.2 152.6,134.0 152.0,133.9 151.5,134.0 152.3,133.2 154.6,132.2 155.2,132.1 156.4,132.4 157.2,132.8 158.2,132.9 160.1,132.9 160.7,132.8 162.6,132.4 164.1,131.6 164.7,129.7 160.9,127.5 157.5,127.2 155.4,127.3 154.5,127.5 154.6,128.3 153.8,128.0 150.6,126.9 148.7,126.6 148.1,126.2 145.4,123.4 141.7,123.1 139.8,122.6 138.9,121.5 137.2,119.7 135.6,119.0 135.1,118.9 134.2,120.9 134.5,121.9 134.8,122.5 134.3,122.9 127.5,122.9 126.6,122.5 125.1,121.7 122.1,120.7 119.6,120.4 118.6,120.3 110.2,122.3 108.3,122.3 107.4,122.3 106.0,122.7 104.2,123.5 101.2,121.8 97.7,119.4 97.1,119.4 96.7,120.8 94.1,122.8 93.1,123.4 90.8,124.3 90.3,124.3 88.4,122.5 88.4,122.0 89.1,121.4 89.5,120.7 88.9,119.6 88.3,119.6 88.6,119.0 87.6,116.9 84.1,110.9 80.9,108.7 77.6,107.7 76.4,107.8 74.9,106.3 75.5,102.3 76.6,101.5 83.4,101.1 85.6,101.5 85.7,102.0 85.4,102.8 86.2,103.2 87.5,103.9 89.6,101.5 90.5,99.9 89.9,98.9 88.4,97.3 87.9,97.0 86.1,98.5 82.1,96.9 78.2,94.9 76.4,95.9 75.8,98.3 76.8,99.1 78.2,99.9 78.3,100.5 75.2,100.8 74.6,100.4 74.1,99.8 73.8,99.3 74.2,98.7 73.8,97.4 73.5,96.8 72.8,96.1 67.7,92.3 65.8,89.2 62.4,88.8 61.0,88.7 59.4,87.7 58.9,87.2 56.2,83.2 57.3,83.1 56.7,80.3 55.3,76.7 54.4,76.2 50.8,74.5 48.8,74.1 49.6,73.9 51.7,74.5 52.3,74.9 53.6,75.4 54.5,75.6 55.4,75.8 56.3,75.7 59.8,72.9 59.9,72.4 59.2,71.2 58.9,70.1 59.5,69.8 61.9,70.6 63.0,70.2 63.3,69.6 63.4,68.9 61.8,66.9 60.7,65.8 59.8,63.3 63.7,60.9 64.3,60.5 65.1,60.3 65.7,60.6 68.5,60.6 69.5,60.4 70.3,60.3 70.9,59.9 72.2,59.7 72.7,59.5 74.5,54.9 74.4,54.1 74.1,53.4 74.2,52.8 74.9,52.0 75.8,51.7 76.8,48.8 77.0,47.4 78.5,46.3 81.3,46.2 82.2,46.3 82.8,46.0 86.0,42.7 86.4,40.7 86.5,39.1 86.4,38.6 85.8,37.8 85.3,37.2 83.9,34.4 83.9,32.2 88.9,32.1 89.9,32.1 95.8,31.7 96.9,31.6 97.8,31.3 98.9,30.3 99.5,29.9 103.0,30.2 103.6,30.2 104.3,30.9 105.0,31.5 106.1,31.5 112.6,29.5 117.4,25.2 117.3,24.5 117.5,23.5 119.6,22.3 127.9,20.9 129.8,20.8 131.5,21.4 132.9,22.1 136.2,22.6 136.7,22.6 138.0,22.6 141.5,22.6 146.5,21.8 147.0,21.6 147.3,21.1 147.8,18.8 148.0,17.9 148.1,16.3 148.1,15.6 148.7,15.0 149.5,14.5 153.9,14.6 155.7,14.9 160.0,15.4 160.9,15.4 163.1,15.3 163.8,15.1 164.7,14.5 164.7,13.7 166.4,12.6 167.2,12.3 172.4,12.2 176.0,12.6 178.1,13.2 179.3,13.4 183.2,12.2 185.2,11.2 188.5,10.7 191.7,11.1 195.0,9.5 194.9,8.3 195.5,7.5 196.1,7.1 198.2,7.5 199.8,7.4 200.3,7.0 201.4,6.5 202.1,6.4 203.6,7.2 209.4,7.1 212.9,8.8 213.0,9.3 214.3,11.2 220.2,13.6 221.7,14.3 221.9,13.3 222.0,12.5 225.0,12.1 229.9,13.6 230.8,13.9 234.5,15.5 235.3,16.0 237.2,17.8 238.7,18.2 240.7,18.0 246.7,16.5 248.4,15.7 249.1,15.4 252.1,15.5 257.9,14.9 260.3,15.8 261.2,15.8 263.9,15.5 269.7,14.2 271.8,11.1 271.3,7.6 269.6,4.3 268.9,4.3 268.3,4.4 267.1,3.2 267.0,2.3 267.3,1.3 269.6,0.3 270.5,0.1 271.0,0.0 272.7,0.2 273.2,0.4 274.2,1.2 275.2,1.5 " />
    <polygon id="Greece" points="220.4,40.2 220.2,41.0 216.8,42.1 215.8,42.4 214.3,41.0 213.3,40.5 211.8,40.6 211.1,40.0 210.9,39.3 211.4,38.0 211.8,37.3 213.0,35.9 214.1,35.0 215.0,34.5 215.7,34.3 217.7,34.9 219.0,35.4 220.0,36.0 220.1,36.6 220.4,40.2 " />
    <polygon id="Greece" points="250.3,48.6 249.0,48.7 247.2,47.8 246.3,47.2 245.3,46.6 244.6,45.8 246.4,45.1 247.5,44.7 248.2,44.6 249.2,44.6 252.3,45.2 253.5,46.0 253.7,47.6 252.4,48.1 250.4,48.6 " />
    <polygon id="Greece" points="244.5,62.8 242.7,64.7 241.5,66.2 240.8,67.3 240.8,68.4 241.2,68.9 241.8,69.3 242.0,69.8 241.4,70.7 240.8,70.6 240.1,70.4 239.4,70.2 238.2,67.7 238.6,67.0 238.3,66.2 237.2,66.1 236.3,66.7 235.2,68.2 235.9,69.2 236.6,69.8 234.7,70.2 231.0,68.7 230.6,68.0 230.2,64.3 230.2,63.6 233.4,62.8 236.8,62.9 238.4,63.4 241.9,62.8 244.7,61.8 244.7,62.6 " />
    <polygon id="Greece" points="27.0,68.6 26.4,68.8 26.1,67.8 27.7,67.7 27.0,68.6 " />
    <polygon id="Greece" points="45.8,70.4 46.6,70.8 46.7,71.6 46.4,72.2 45.8,72.8 45.3,73.0 44.0,73.2 43.0,73.6 42.7,74.6 43.0,75.6 45.9,81.8 49.1,83.4 49.7,83.4 50.2,83.3 50.8,82.9 52.9,85.4 52.5,85.9 51.3,85.7 44.3,83.0 43.2,81.6 43.0,80.3 43.0,79.7 42.9,79.1 42.1,78.3 41.5,77.7 39.1,76.5 36.8,74.7 35.6,72.2 35.9,71.2 36.7,70.4 37.4,70.4 41.0,70.5 43.3,69.5 45.8,70.4 " />
    <polygon id="Greece" points="228.3,82.2 227.8,81.5 227.5,80.7 227.8,79.8 228.5,78.9 229.2,78.8 230.2,79.3 230.5,79.9 229.7,80.9 228.3,82.2 " />
    <polygon id="Greece" points="278.2,89.2 279.2,89.9 281.7,91.1 283.7,93.5 286.5,97.1 286.9,98.1 283.6,99.9 280.9,100.2 278.7,100.1 276.3,99.8 271.4,98.4 269.5,97.6 267.8,96.4 268.5,95.7 270.7,95.3 274.6,93.4 275.2,92.7 274.1,91.7 273.3,91.6 271.8,91.8 270.8,92.0 270.3,92.9 268.7,95.0 267.7,95.8 267.1,96.0 266.3,95.8 264.2,95.2 260.7,93.9 259.7,93.5 258.7,92.6 259.4,90.0 260.3,89.2 261.3,88.7 261.9,88.5 261.9,89.0 262.8,89.1 263.9,89.2 270.7,87.4 270.8,86.6 270.6,85.8 272.6,85.2 276.3,85.5 278.9,86.7 279.8,87.3 278.9,88.0 278.3,88.7 " />
    <polygon id="Greece" points="187.6,94.1 186.7,93.9 189.8,89.6 190.7,88.6 191.8,89.4 189.8,92.6 189.1,93.1 187.6,94.1 " />
    <polygon id="Greece" points="55.6,92.7 54.9,92.7 54.3,92.5 53.4,91.8 52.9,91.0 52.9,90.5 53.4,90.4 54.4,91.0 55.2,91.7 55.7,92.3 " />
    <polygon id="Greece" points="174.9,93.3 173.0,94.3 170.9,93.8 170.7,93.2 172.6,91.8 173.2,91.5 174.1,91.6 174.6,92.0 175.0,92.7 174.9,93.3 " />
    <polygon id="Greece" points="183.1,96.3 182.1,96.3 180.4,95.9 177.8,91.9 178.6,91.6 184.8,94.5 184.5,95.4 183.7,96.0 183.1,96.3 " />
    <polygon id="Greece" points="173.2,104.3 175.1,105.8 177.9,107.5 184.1,109.6 187.1,110.5 190.7,111.2 192.9,110.8 198.1,111.7 198.1,114.4 199.3,120.9 201.5,126.7 201.8,127.2 203.4,128.2 204.6,129.3 208.0,129.8 209.2,130.0 209.7,130.1 212.5,130.0 213.1,129.7 213.9,132.7 213.8,133.3 213.7,133.9 213.3,134.9 212.9,135.5 211.2,136.6 210.0,136.6 206.5,135.3 204.3,133.4 200.1,129.4 197.9,127.3 196.6,124.6 194.4,121.9 194.7,121.3 194.2,120.9 192.6,120.6 191.8,120.9 190.4,121.1 189.2,121.2 185.6,121.0 184.4,120.9 180.8,120.3 179.7,119.9 178.8,118.7 178.8,118.1 179.5,116.9 179.3,116.1 179.1,115.5 178.1,114.5 174.3,112.3 168.5,108.3 163.8,105.1 162.2,104.5 161.5,104.3 160.8,104.6 160.1,104.8 150.5,105.4 150.5,104.9 151.0,104.0 154.0,102.9 160.0,99.6 161.2,98.9 166.6,97.7 167.4,97.6 167.9,97.8 169.9,98.7 170.1,99.3 170.1,99.8 172.6,103.6 173.2,104.3 " />
    <polygon id="Greece" points="217.2,106.3 217.2,106.9 216.3,107.4 215.1,107.5 214.6,107.2 214.1,106.6 213.2,106.9 213.1,107.6 212.5,107.4 211.8,106.8 209.0,103.3 208.8,102.7 208.8,100.9 209.1,100.4 209.8,99.9 210.7,100.0 213.4,101.7 216.6,105.3 217.0,105.9 " />
    <polygon id="Greece" points="71.7,114.1 68.1,114.7 68.0,113.8 68.6,110.4 70.2,107.0 71.6,105.2 73.7,105.0 74.3,105.2 74.8,105.9 74.6,112.2 71.7,114.1 " />
    <polygon id="Greece" points="250.2,115.9 248.9,115.9 247.6,113.7 249.0,113.1 249.9,113.4 250.6,113.7 251.0,114.2 250.6,115.5 " />
    <polygon id="Greece" points="81.0,115.4 80.9,114.6 81.4,114.0 82.2,113.3 81.0,115.4 " />
    <polygon id="Greece" points="265.6,128.7 265.2,129.7 264.5,129.4 263.6,129.1 261.9,128.0 259.7,126.5 259.7,125.9 260.1,125.3 261.3,124.6 262.4,124.3 264.3,122.6 264.3,121.5 262.7,118.6 261.6,118.2 260.7,118.0 259.6,117.2 259.1,116.7 258.4,115.7 259.0,114.5 259.6,114.0 260.5,113.8 264.7,113.4 269.6,114.7 270.3,115.3 269.6,119.5 269.4,120.0 269.9,121.9 270.4,123.2 270.4,124.0 268.3,126.1 265.9,128.1 265.6,128.7 " />
    <polygon id="Greece" points="75.0,123.9 74.4,124.0 73.7,123.6 72.6,122.3 71.7,120.7 70.7,118.4 71.9,117.0 72.7,117.3 73.9,119.0 75.3,121.6 75.9,123.3 75.0,123.9 " />
    <polygon id="Greece" points="70.5,120.8 73.0,125.0 77.7,130.7 77.7,131.2 77.2,132.6 75.0,132.8 68.6,131.8 67.1,131.3 62.1,129.4 60.9,128.7 60.8,127.9 61.3,126.7 62.8,123.3 64.4,123.2 65.5,123.9 66.5,123.6 67.1,123.2 67.8,122.6 68.2,122.0 68.3,121.1 67.9,120.3 67.7,119.4 67.8,118.2 68.7,118.1 70.5,120.8 " />
    <polygon id="Greece" points="173.2,139.4 172.7,139.4 171.3,138.9 171.3,137.6 172.3,135.5 174.0,135.1 174.6,135.1 175.3,135.2 176.0,135.5 176.3,137.5 175.9,138.0 173.5,139.3 " />
    <polygon id="Greece" points="221.1,135.1 227.3,139.6 228.6,143.4 228.1,144.6 227.2,146.4 225.6,145.3 224.0,143.5 222.5,141.7 220.3,139.7 219.7,139.4 219.1,139.3 218.4,139.6 217.6,137.7 217.4,136.8 217.7,136.3 219.4,135.4 220.6,135.1 " />
    <polygon id="Greece" points="80.8,142.1 84.2,144.9 84.3,145.9 82.5,145.1 81.8,144.8 80.7,144.7 80.1,144.8 78.8,146.3 78.6,147.8 77.7,147.6 74.2,145.0 71.2,141.9 70.8,140.5 71.1,139.5 71.7,138.7 72.9,137.9 73.7,137.5 77.1,140.5 79.6,141.2 80.4,141.7 " />
    <polygon id="Greece" points="303.2,145.4 302.1,145.7 296.9,147.1 294.1,148.1 291.8,146.2 290.3,145.5 289.4,145.7 288.0,145.9 287.1,146.3 286.1,146.7 285.6,146.4 285.2,144.7 286.1,143.8 288.6,142.6 290.9,142.0 291.6,141.8 300.3,142.9 301.7,143.3 303.1,144.9 303.2,145.4 " />
    <polygon id="Greece" points="175.0,146.1 174.1,146.7 173.3,146.3 172.1,144.6 171.8,143.8 173.3,143.4 174.9,143.3 176.1,143.3 176.6,143.4 176.7,144.0 175.4,145.7 " />
    <polygon id="Greece" points="265.4,152.5 264.1,152.8 263.7,152.1 264.0,151.5 266.3,148.9 267.0,148.4 267.5,148.2 275.9,146.6 277.3,146.3 277.5,146.8 276.3,148.2 275.7,148.8 274.3,149.8 272.4,150.9 265.4,152.5 " />
    <polygon id="Greece" points="203.3,152.1 202.7,152.1 202.3,149.8 202.4,149.1 202.7,148.4 203.3,147.5 204.4,146.6 205.2,146.5 205.8,146.5 206.8,146.8 207.4,147.5 206.9,148.8 206.3,149.6 205.8,150.1 203.9,151.7 203.3,152.1 " />
    <polygon id="Greece" points="236.8,151.8 236.0,152.1 234.7,151.9 232.7,151.2 228.4,148.0 227.8,147.2 227.9,146.7 229.0,146.7 230.1,146.7 231.3,147.6 233.5,147.8 235.3,147.9 236.3,148.3 237.2,148.7 237.8,149.7 237.0,151.7 " />
    <polygon id="Greece" points="174.5,152.9 174.0,152.9 172.8,152.7 172.2,152.2 174.0,151.7 175.2,152.1 174.9,152.8 " />
    <polygon id="Greece" points="226.9,157.2 224.4,158.0 224.8,153.2 224.5,152.7 225.4,152.7 225.9,152.9 226.4,153.2 226.8,153.9 227.6,156.4 227.0,157.1 " />
    <polygon id="Greece" points="241.5,156.4 240.4,156.0 239.8,154.1 239.9,153.5 240.6,153.2 241.2,153.0 243.1,153.3 245.2,154.1 245.3,154.9 242.0,156.3 " />
    <polygon id="Greece" points="206.2,160.0 205.8,155.8 206.9,154.5 208.4,153.7 208.1,155.1 208.6,155.5 209.3,155.7 210.0,156.3 209.9,156.9 208.7,158.4 207.6,159.3 207.1,159.7 206.4,160.0 " />
    <polygon id="Greece" points="171.4,160.2 170.2,160.3 170.6,159.8 173.8,158.4 175.1,157.9 176.5,157.8 177.5,157.9 174.6,159.7 172.7,159.8 171.5,160.2 " />
    <polygon id="Greece" points="162.2,162.4 161.4,162.5 160.1,161.3 160.7,160.9 161.4,161.0 162.0,161.2 162.5,161.6 162.4,162.2 " />
    <polygon id="Greece" points="292.3,164.3 292.5,163.6 293.0,163.6 292.3,164.3 " />
    <polygon id="Greece" points="211.9,164.5 211.8,166.4 210.9,167.0 210.4,166.7 209.2,166.2 208.4,166.3 207.8,166.6 207.8,165.4 208.1,164.9 209.2,164.0 209.9,163.8 211.2,163.8 211.7,164.1 " />
    <polygon id="Greece" points="245.2,174.0 244.3,173.9 241.0,168.5 241.1,168.0 246.5,164.3 247.9,163.9 249.0,164.5 249.6,165.3 250.1,166.2 250.2,166.8 249.9,169.0 249.5,170.5 248.7,172.6 246.1,173.7 245.2,174.0 " />
    <polygon id="Greece" points="296.6,167.6 295.8,167.6 295.2,167.5 294.2,167.1 292.4,165.0 292.7,164.3 294.2,164.3 295.4,164.5 296.1,165.6 296.7,167.1 " />
    <polygon id="Greece" points="237.6,170.8 235.5,172.0 234.6,171.8 233.0,171.3 232.4,170.6 232.1,170.1 232.6,169.0 233.4,167.7 234.1,167.0 236.7,166.0 238.3,166.1 238.9,166.4 238.3,169.2 237.6,170.8 " />
    <polygon id="Greece" points="258.7,167.7 258.1,167.8 257.5,167.5 256.8,166.9 258.3,166.5 258.8,167.1 258.7,167.7 " />
    <polygon id="Greece" points="299.8,173.8 298.7,173.7 297.7,173.0 296.4,168.6 299.2,169.0 300.1,169.5 302.4,171.3 302.5,172.9 299.8,173.8 " />
    <polygon id="Greece" points="218.2,174.6 217.6,174.1 217.2,173.6 216.4,171.8 215.6,170.0 216.0,169.5 217.9,170.0 219.3,171.4 220.1,172.6 220.0,173.2 219.0,174.0 218.2,174.6 " />
    <polygon id="Greece" points="231.4,172.8 229.6,171.7 229.5,171.1 229.8,170.5 230.6,169.9 231.5,169.5 231.4,172.8 " />
    <polygon id="Greece" points="253.1,175.5 250.7,175.4 251.6,174.5 252.7,174.7 253.2,175.2 " />
    <polygon id="Greece" points="299.4,182.5 298.7,182.6 297.9,181.7 297.7,179.9 302.8,176.9 306.2,175.3 306.7,175.1 310.9,174.6 312.9,175.2 313.5,175.9 313.1,176.5 312.5,176.7 311.6,176.9 310.7,177.0 309.4,177.3 308.5,177.6 302.0,179.5 300.4,180.0 299.7,180.3 299.4,181.7 299.4,182.5 " />
    <polygon id="Greece" points="258.4,179.0 257.2,179.6 256.3,179.5 255.3,179.1 258.8,176.8 263.3,175.0 263.8,175.6 261.8,177.0 258.4,179.0 " />
    <polygon id="Greece" points="245.2,177.5 244.2,177.5 243.8,177.0 245.7,175.8 245.9,176.5 245.9,177.1 245.2,177.5 " />
    <polygon id="Greece" points="212.7,179.1 212.2,179.2 211.4,178.1 211.4,177.4 212.7,176.5 213.9,177.0 214.0,178.0 213.4,178.9 212.7,179.1 " />
    <polygon id="Greece" points="109.7,180.5 109.6,179.3 109.9,178.4 110.7,178.5 110.5,179.3 109.8,180.4 " />
    <polygon id="Greece" points="216.5,180.2 215.9,180.2 215.2,180.1 214.5,179.0 215.1,178.6 215.7,178.7 216.5,179.1 216.7,179.7 " />
    <polygon id="Greece" points="242.5,183.6 241.5,183.9 241.0,183.6 237.9,180.8 238.0,179.6 238.5,178.9 239.5,178.7 240.4,179.1 243.3,181.2 242.7,183.3 " />
    <polygon id="Greece" points="207.5,183.3 204.5,183.7 204.2,183.0 204.8,180.7 205.3,180.1 211.1,179.4 211.9,179.5 212.4,181.9 212.2,182.4 209.8,183.2 207.5,183.3 " />
    <polygon id="Greece" points="112.8,180.5 112.4,182.0 111.5,181.4 111.8,180.0 112.7,180.3 " />
    <polygon id="Greece" points="231.8,184.3 231.0,184.3 232.3,182.1 233.7,181.3 235.4,181.3 234.3,182.8 233.5,183.3 232.9,183.7 232.2,184.1 " />
    <polygon id="Greece" points="226.8,185.8 225.9,185.7 223.5,184.2 222.9,183.6 223.6,183.2 226.4,184.3 226.9,184.7 227.3,185.5 " />
    <polygon id="Greece" points="331.5,188.1 330.9,188.2 329.4,187.2 328.2,186.4 329.9,184.5 330.4,184.0 331.3,183.7 331.8,184.0 332.1,184.9 332.2,185.5 332.2,187.5 331.6,188.0 " />
    <polygon id="Greece" points="277.0,188.8 276.1,188.9 275.3,188.7 274.4,187.1 274.1,186.3 274.1,185.8 278.3,184.0 279.3,184.3 281.1,185.4 281.6,186.2 279.3,186.7 277.4,188.4 " />
    <polygon id="Greece" points="245.1,195.1 243.7,194.9 242.5,194.7 243.7,194.0 244.1,192.8 243.6,191.6 242.7,190.6 242.0,190.4 243.0,190.0 243.8,190.2 244.8,191.0 245.9,192.1 246.2,192.8 246.1,194.2 245.5,194.7 " />
    <polygon id="Greece" points="315.1,193.7 312.1,192.3 311.4,191.9 311.3,190.5 313.4,189.9 316.6,192.3 316.5,193.0 315.7,193.5 315.1,193.7 " />
    <polygon id="Greece" points="329.0,211.0 328.3,210.9 327.1,210.3 326.7,209.6 326.6,208.9 327.0,207.8 327.3,203.3 326.6,201.1 329.1,198.0 329.6,197.4 332.2,195.6 332.9,195.1 339.1,192.5 340.6,192.0 344.1,191.1 344.5,190.6 345.1,191.2 344.1,194.7 343.4,196.3 341.8,199.5 341.1,200.4 339.0,203.1 337.0,204.6 335.1,205.5 334.2,206.4 333.3,207.5 332.8,208.5 331.8,209.5 331.0,210.2 329.5,210.9 " />
    <polygon id="Greece" points="243.0,192.9 242.8,192.3 243.4,192.4 243.0,192.9 " />
    <polygon id="Greece" points="258.8,194.5 256.7,194.6 255.2,194.3 254.9,193.8 256.2,192.6 257.4,193.1 259.5,194.2 258.8,194.5 " />
    <polygon id="Greece" points="158.3,202.2 156.5,202.0 154.0,200.7 153.4,199.9 153.2,199.0 152.8,195.6 153.9,193.5 154.8,193.2 155.5,194.3 156.1,195.4 156.8,196.0 157.3,196.1 159.6,197.7 160.2,198.1 158.6,201.9 " />
    <polygon id="Greece" points="168.5,213.4 167.3,212.5 166.6,211.3 166.4,210.7 167.5,211.1 168.0,211.4 168.4,211.9 168.5,212.4 168.5,213.4 " />
    <polygon id="Greece" points="306.3,227.1 305.8,228.7 305.0,227.7 303.1,221.8 303.1,221.2 305.0,219.1 306.4,217.2 306.4,216.2 306.4,215.4 306.4,214.4 308.3,213.4 308.9,213.3 309.0,213.9 308.4,217.0 307.1,221.5 307.9,225.9 306.5,226.9 " />
    <polygon id="Greece" points="187.5,224.3 191.5,224.6 192.4,224.5 194.0,224.1 195.1,223.4 195.6,222.7 195.4,222.1 196.8,221.5 197.5,221.5 198.8,221.8 200.0,223.6 199.3,224.7 198.7,225.0 197.6,225.0 196.7,225.2 198.9,226.8 202.2,229.9 202.8,230.2 204.1,230.4 204.6,230.5 205.8,230.4 209.3,230.1 210.0,230.0 213.8,229.4 214.5,229.2 215.3,228.7 221.0,228.4 227.3,228.5 230.3,229.3 230.2,229.8 230.4,230.4 230.9,230.7 235.9,231.1 238.7,231.1 239.5,231.0 241.7,231.0 242.2,231.0 242.9,231.8 244.1,232.5 244.6,232.6 245.3,232.6 246.3,232.4 248.9,231.6 250.9,231.1 252.3,230.8 256.2,231.1 255.9,231.7 255.0,232.3 254.6,233.6 255.2,233.8 255.3,233.3 255.8,233.3 255.8,234.0 255.2,234.8 254.5,235.2 254.2,236.8 254.5,237.4 254.8,238.0 255.9,238.6 256.7,239.0 257.3,239.2 258.0,239.2 259.8,237.6 260.9,236.7 265.6,235.0 268.0,235.3 268.7,235.7 272.5,234.4 275.5,232.9 275.1,238.4 274.5,240.0 273.3,241.7 272.0,242.3 269.8,243.1 268.9,243.4 268.3,243.3 268.1,242.6 264.2,241.9 250.1,242.8 249.6,243.0 248.8,243.3 247.1,243.8 240.7,243.7 235.4,244.8 229.2,245.6 226.0,245.6 222.2,245.4 219.7,245.2 220.1,242.5 219.9,241.9 219.4,240.6 218.6,239.9 217.7,239.6 217.0,239.7 215.6,239.7 213.8,239.6 213.0,239.6 212.3,238.8 211.9,238.2 207.0,236.4 206.5,236.2 199.7,235.9 197.6,235.9 196.2,236.0 195.1,236.2 194.5,236.3 194.0,236.2 190.7,235.1 188.6,234.7 186.2,234.2 181.9,234.7 181.1,235.0 178.1,234.8 175.3,232.7 175.3,232.2 177.1,224.1 177.5,222.6 177.9,221.8 178.4,221.0 178.5,222.7 178.7,224.1 179.9,225.1 180.6,225.2 181.9,225.0 182.5,224.8 182.9,223.4 182.9,222.8 182.2,221.3 182.1,219.9 182.4,219.1 183.2,218.4 184.3,218.9 184.2,219.7 184.4,221.0 184.7,222.8 184.9,223.4 186.9,224.2 187.5,224.3 " />
    <polygon id="Greece" points="297.1,230.2 296.4,230.7 295.5,230.5 295.2,229.7 297.0,228.0 300.5,227.5 301.2,227.5 300.6,228.6 299.4,229.0 297.1,230.2 " />
    <polygon id="Greece" points="197.2,248.3 197.2,250.0 195.6,249.4 195.1,249.1 194.2,248.5 195.3,247.8 196.4,247.9 197.0,248.1 " />
  </g>
</svg>