<?xml version="1.0" encoding="UTF-8" standalone="yes"?>
<!DOCTYPE svg PUBLIC "-//W3C//DTD SVG 1.0//EN" "http://www.w3.org/TR/2001/REC-SVG-20010904/DTD/svg10.dtd">
<svg height="250" width="370" xmlns="http://www.w3.org/2000/svg" xmlns:svg="http://www.w3.org/2000/svg" xmlns:xlink="http://www.w3.org/1999/xlink">


<g id="background">
<rect id="" width="370" height="250" fill="#222222"/>
</g>
  <g id="308" style="stroke-miterlimit: 3; fill: #F1F1F1; stroke: #000000; stroke-opacity: 1; stroke-width: 0.05; stroke-linejoin: bevel; stroke-linecap: square">
    <polygon id="Grenada" points="267.6,35.5 237.9,44.2 236.0,42.8 235.4,40.1 236.0,28.0 236.8,25.4 238.3,23.6 264.7,0.0 268.0,0.1 268.9,1.0 271.2,7.7 271.7,10.2 272.1,16.0 269.0,33.6 267.6,35.5 " />
    <polygon id="Grenada" points="196.4,109.6 193.8,110.1 192.1,108.4 192.2,105.8 193.8,100.8 194.8,98.5 196.9,96.7 199.3,97.8 200.1,100.1 199.9,103.4 199.1,105.8 196.4,109.6 " />
    <polygon id="Grenada" points="118.1,249.5 115.5,250.0 102.5,248.3 100.9,247.7 99.2,246.1 98.0,244.0 128.5,167.5 136.6,155.9 146.4,146.0 151.4,141.4 159.5,137.3 162.1,136.7 164.7,136.9 178.8,139.1 181.4,139.9 182.3,141.4 184.0,143.1 184.8,144.8 187.2,160.7 188.7,189.4 181.8,211.0 173.6,225.8 172.2,227.6 167.1,232.3 162.9,234.6 147.9,240.7 131.9,246.5 118.1,249.5 " />
  </g>
</svg>