<?xml version="1.0" encoding="UTF-8" standalone="yes"?>
<!DOCTYPE svg PUBLIC "-//W3C//DTD SVG 1.0//EN" "http://www.w3.org/TR/2001/REC-SVG-20010904/DTD/svg10.dtd">
<svg height="250" width="370" xmlns="http://www.w3.org/2000/svg" xmlns:svg="http://www.w3.org/2000/svg" xmlns:xlink="http://www.w3.org/1999/xlink">


<g id="background">
<rect id="" width="370" height="250" fill="#222222"/>
</g>
  <g id="31" style="stroke-miterlimit: 3; fill: #F1F1F1; stroke: #000000; stroke-opacity: 1; stroke-width: 0.05; stroke-linejoin: bevel; stroke-linecap: square">
    <polygon id="Azerbaijan" points="48.5,94.3 49.6,94.4 52.5,92.7 53.5,91.6 52.5,90.7 51.3,90.5 48.8,90.5 47.8,91.0 47.1,92.4 47.6,93.7 48.5,94.3 " />
    <polygon id="Azerbaijan" points="118.5,10.7 123.0,14.4 130.6,11.4 131.3,11.5 131.6,12.5 131.6,13.3 131.6,14.2 131.6,15.0 131.7,15.7 132.2,16.2 134.1,17.5 137.7,19.8 142.9,23.2 148.3,27.5 152.4,31.0 153.5,30.5 154.3,30.3 155.3,30.2 155.8,30.3 157.2,31.0 163.6,39.7 164.0,40.3 164.3,41.7 164.2,42.6 164.1,43.5 164.1,44.6 164.4,46.5 164.8,47.1 165.7,47.7 171.4,50.4 184.2,54.3 185.2,54.5 186.5,54.1 188.1,53.2 189.0,52.9 190.5,52.8 194.6,54.5 196.5,55.3 197.0,55.4 197.6,55.4 199.5,55.2 203.7,54.6 206.7,54.0 207.7,53.4 208.1,52.8 208.0,52.0 207.7,51.4 207.0,50.6 206.8,49.9 206.9,49.1 210.2,44.9 217.3,37.9 217.9,37.5 219.3,36.8 220.6,36.5 222.9,36.1 225.3,35.8 227.9,35.3 229.4,34.7 237.5,30.7 238.5,30.1 239.4,29.4 240.5,28.4 240.9,27.8 241.9,26.1 248.1,17.7 251.6,13.1 253.5,13.9 257.5,16.4 260.9,19.6 264.6,23.5 269.7,28.9 271.1,30.9 271.7,31.8 272.3,33.3 273.2,34.4 278.2,39.0 278.9,39.4 279.8,39.7 280.6,40.1 281.2,40.5 281.7,41.0 288.1,50.0 288.4,50.6 288.4,51.8 288.4,52.6 288.4,53.8 289.3,58.4 291.8,64.3 292.7,65.8 293.8,67.2 294.5,68.0 295.7,69.2 305.4,78.3 306.4,79.0 307.1,79.3 308.1,79.5 309.7,79.5 310.7,79.7 311.6,80.0 312.2,80.5 313.8,81.9 314.6,83.0 314.6,83.8 314.0,84.8 313.3,86.2 312.9,87.4 312.7,88.3 312.8,89.4 314.0,90.7 316.6,92.7 317.3,93.2 325.6,96.1 326.7,96.3 332.3,97.2 333.9,97.3 335.7,97.1 337.0,96.9 339.8,96.0 340.6,95.8 343.4,95.5 345.2,95.8 347.4,96.4 360.5,101.9 367.3,107.8 368.2,108.9 368.8,109.7 369.2,111.0 369.5,112.4 370.0,117.2 368.7,116.8 367.9,116.0 365.9,114.4 365.3,114.0 362.6,112.7 359.8,112.1 354.0,110.9 353.4,110.8 342.6,111.4 335.1,113.2 316.9,120.4 313.3,123.0 312.1,123.9 311.4,124.5 307.3,130.5 307.2,131.3 309.2,133.5 308.8,136.8 307.3,141.1 305.3,151.2 305.0,154.9 304.4,155.2 300.4,159.0 299.8,160.0 297.7,167.5 297.9,168.5 298.5,169.4 299.3,170.1 301.6,171.9 302.2,172.3 304.0,173.2 306.0,174.7 306.4,175.2 305.2,177.5 302.3,179.4 301.6,178.9 300.6,178.3 299.8,178.0 298.7,177.9 297.5,178.3 296.9,178.7 296.2,179.5 295.8,180.1 295.2,181.1 294.8,182.1 292.5,196.9 292.5,197.8 292.5,198.6 291.9,199.5 289.8,201.4 288.4,202.1 287.6,202.4 284.9,202.9 283.9,203.0 283.1,202.8 282.6,202.2 282.5,200.5 283.1,200.0 283.9,199.9 285.9,199.6 286.9,199.1 287.5,198.6 288.2,197.8 288.5,197.1 288.8,196.5 289.0,195.7 288.9,194.4 288.4,193.9 282.4,188.9 281.6,188.6 279.8,188.1 279.3,188.1 278.3,188.2 277.4,188.4 276.8,188.8 276.2,189.7 274.6,193.1 274.5,196.7 274.7,197.5 275.8,198.4 276.0,199.1 274.8,203.5 273.2,206.8 272.6,207.7 271.9,208.5 271.3,209.0 270.3,217.4 270.6,229.1 271.1,236.0 271.2,236.6 271.7,237.5 269.0,237.0 268.5,236.9 267.9,236.9 265.2,237.1 264.4,237.4 262.0,238.7 257.0,241.0 254.6,240.8 253.3,239.9 252.6,239.2 250.6,235.8 250.1,235.3 242.2,225.6 241.4,225.3 240.9,225.4 240.0,225.5 238.7,225.9 236.9,226.7 235.6,227.0 235.0,227.0 234.3,226.7 229.4,222.9 228.9,222.3 229.0,221.4 229.5,220.0 229.5,219.1 229.1,218.6 228.4,218.3 225.2,217.1 223.1,216.5 221.1,215.7 219.8,214.9 215.4,212.5 214.6,211.8 214.1,210.8 213.9,210.1 213.8,209.3 213.7,208.1 213.8,207.2 217.7,203.8 218.4,203.5 222.5,202.7 225.2,202.7 227.8,202.5 230.2,202.2 231.2,201.8 232.2,201.3 233.1,200.6 233.6,200.1 234.4,198.9 234.6,198.1 234.6,197.2 232.4,193.2 231.9,192.7 231.2,192.3 230.0,191.9 228.6,191.6 227.2,190.9 221.9,186.8 221.1,184.3 220.9,183.2 221.1,182.4 222.4,180.7 222.9,180.2 223.5,179.7 225.5,178.6 226.3,178.3 227.2,178.1 228.8,178.0 229.7,177.9 231.4,177.5 236.8,175.1 236.5,174.5 235.6,172.8 234.3,171.5 231.7,169.4 229.6,167.9 227.0,165.8 223.5,162.7 218.8,158.3 218.1,157.5 217.6,157.0 216.7,156.3 215.5,155.4 213.9,154.4 212.5,153.5 211.4,153.1 201.0,155.6 200.2,155.8 199.6,156.3 199.1,156.8 198.2,158.4 197.3,159.0 182.7,166.5 177.7,167.6 176.9,167.8 172.8,169.5 169.4,172.3 168.9,172.8 168.2,174.1 167.7,174.6 166.2,175.7 165.5,176.0 160.6,178.0 159.7,178.2 158.1,178.3 157.4,178.6 153.4,180.5 149.8,184.5 149.6,185.3 149.6,187.1 148.9,187.9 144.3,190.1 143.5,190.4 142.9,190.4 141.5,189.6 140.6,189.4 140.0,189.4 138.6,189.5 137.2,189.8 136.2,190.3 131.3,194.4 130.6,195.2 130.4,196.4 130.2,197.1 129.6,198.0 123.9,202.1 118.6,206.2 116.5,208.8 113.6,204.0 113.4,203.3 113.7,201.2 114.2,200.1 114.6,199.5 115.1,198.5 115.4,197.7 115.1,196.3 114.8,195.2 113.8,192.6 113.4,192.1 112.3,191.6 111.0,191.2 109.5,190.5 108.8,189.8 108.3,188.9 108.2,188.1 108.2,187.3 108.6,186.6 109.2,186.3 110.1,186.2 110.6,186.2 111.2,186.2 113.5,187.2 116.3,188.1 116.8,188.1 121.5,186.3 121.8,185.4 119.2,183.8 117.6,182.8 107.4,175.6 106.7,174.8 106.3,174.3 106.0,173.3 105.9,172.5 106.0,171.6 106.9,171.0 107.7,170.8 110.4,170.3 113.4,169.7 114.6,169.4 115.1,168.9 116.9,165.0 116.9,164.2 116.5,163.3 116.1,162.8 115.1,162.1 104.8,159.3 103.9,159.1 102.9,159.2 102.1,159.4 101.3,159.6 100.6,160.0 97.7,161.2 96.8,161.3 95.8,161.3 94.7,161.2 93.3,160.5 85.2,155.0 84.4,154.3 83.6,152.8 82.8,151.3 82.0,150.2 81.5,149.7 80.7,149.4 79.7,149.2 78.1,149.1 75.9,148.5 74.7,148.0 73.2,147.3 72.5,147.0 71.3,146.2 70.5,145.4 69.4,144.5 68.8,143.7 68.0,142.1 67.7,141.1 67.5,140.4 67.1,139.4 66.5,138.6 65.8,138.2 64.3,137.6 62.9,137.3 61.3,137.0 55.5,136.6 54.7,136.4 54.0,135.9 53.9,134.8 54.3,134.2 55.2,133.5 56.8,133.1 59.7,132.8 61.8,132.8 65.1,132.9 69.1,133.2 70.7,133.4 72.3,133.6 73.3,133.5 74.2,133.3 74.7,132.9 75.2,132.3 79.0,127.1 79.4,126.4 80.9,120.4 80.9,119.6 80.3,118.7 78.3,116.7 77.5,116.4 75.5,116.9 74.5,117.1 73.4,117.0 72.5,116.7 58.4,109.6 56.8,108.6 50.3,104.5 49.8,104.0 42.0,94.3 40.5,92.0 40.2,90.9 40.3,90.1 42.3,87.0 43.0,86.3 44.0,85.7 44.7,85.4 49.2,84.0 52.6,83.2 53.9,82.4 54.5,81.5 55.3,79.7 55.7,78.7 55.8,77.9 55.5,76.8 39.0,68.3 38.0,68.4 37.4,68.3 36.9,68.3 21.3,64.6 20.7,64.2 20.1,63.4 19.8,62.7 19.5,61.7 19.7,60.9 20.4,60.6 21.9,60.5 23.1,60.5 23.6,60.6 26.0,60.8 26.5,60.8 27.5,60.6 28.3,60.4 28.9,60.0 29.3,59.4 29.1,58.4 28.6,57.8 27.4,56.9 24.8,55.2 23.9,55.0 23.3,54.9 17.7,53.6 16.1,48.7 18.0,47.5 24.0,43.5 26.9,41.6 31.5,38.8 32.3,38.5 33.1,38.3 33.9,38.0 34.9,37.9 36.3,37.7 36.9,37.8 37.8,38.0 55.0,43.1 62.0,45.3 62.2,47.2 61.5,48.0 61.4,48.8 61.6,49.5 62.1,50.0 64.1,51.2 67.3,52.9 68.4,53.4 70.9,54.3 72.1,54.8 73.8,55.3 75.6,55.9 78.5,56.5 80.5,56.9 82.8,57.1 83.9,57.1 84.9,57.0 86.2,56.8 87.4,56.3 89.2,55.2 90.0,54.9 95.8,54.7 96.3,54.7 96.8,54.8 97.5,55.2 98.5,56.2 99.2,57.0 100.2,57.6 103.3,59.8 104.5,60.6 105.8,61.5 112.7,64.7 113.9,65.2 115.2,65.1 121.9,61.7 124.6,58.7 125.0,58.1 126.8,54.4 127.7,51.5 126.6,47.7 126.2,47.2 121.8,44.2 120.0,43.3 117.3,42.8 114.2,42.2 102.8,36.5 96.2,28.8 95.0,27.1 93.8,24.1 93.6,23.0 93.6,22.2 93.8,20.4 94.5,19.2 95.6,18.1 96.4,17.9 97.4,17.8 98.0,17.9 99.5,18.1 100.4,18.4 101.5,18.6 102.7,18.2 103.9,17.2 107.8,13.8 108.5,13.0 109.4,11.7 109.7,11.1 110.6,9.1 114.1,9.3 117.5,9.7 118.3,10.0 118.5,10.7 " />
    <polygon id="Azerbaijan" points="17.6,66.0 16.3,66.4 15.3,66.2 13.8,65.0 13.3,64.1 13.6,63.0 14.7,62.5 15.8,62.5 16.6,62.8 18.0,64.0 18.5,64.9 18.2,65.6 17.6,66.0 " />
    <polygon id="Azerbaijan" points="30.8,69.9 29.8,70.4 28.3,69.7 27.5,69.0 28.2,68.1 28.7,68.1 30.3,69.0 30.8,69.5 " />
    <polygon id="Azerbaijan" points="20.1,149.8 32.2,160.2 35.8,164.5 36.2,165.0 44.9,168.0 45.9,167.9 47.5,167.4 48.2,167.1 49.6,166.4 51.5,165.3 53.7,164.3 54.8,163.9 56.1,163.6 62.6,162.3 63.6,162.3 64.6,162.5 66.4,163.0 67.6,163.5 68.3,163.8 68.8,164.3 69.5,170.5 69.4,171.3 71.2,177.6 79.3,182.1 80.2,182.7 80.7,183.2 81.3,184.0 81.0,185.0 80.1,185.6 79.6,186.1 78.9,186.9 78.6,188.1 78.8,189.6 87.8,204.8 88.9,206.6 92.5,211.1 85.7,209.1 77.5,208.1 70.2,207.0 54.8,203.8 50.2,202.9 48.9,202.6 46.2,201.6 43.7,200.7 42.9,200.1 42.6,199.3 42.5,196.6 37.7,190.0 37.2,189.4 35.1,187.5 34.2,187.5 33.4,187.8 32.8,188.2 29.6,187.7 24.3,186.5 24.0,184.7 24.0,183.8 23.3,181.7 22.3,180.0 18.8,175.9 14.9,173.1 12.9,172.8 11.9,172.3 11.3,171.8 9.8,169.1 8.5,165.2 8.3,164.5 8.1,163.3 7.3,160.6 6.2,159.5 2.3,158.9 2.5,157.9 1.6,155.5 0.7,154.5 0.0,153.9 0.7,153.7 1.3,153.5 5.3,152.7 6.9,152.7 7.8,152.9 9.4,153.1 10.2,152.9 11.4,152.6 12.6,152.2 14.5,151.0 15.6,150.0 16.5,149.4 17.3,149.2 18.2,149.0 18.7,149.1 19.5,149.4 20.1,149.8 " />
  </g>
</svg>