<?xml version="1.0" encoding="UTF-8" standalone="yes"?>
<!DOCTYPE svg PUBLIC "-//W3C//DTD SVG 1.0//EN" "http://www.w3.org/TR/2001/REC-SVG-20010904/DTD/svg10.dtd">
<svg height="250" width="370" xmlns="http://www.w3.org/2000/svg" xmlns:svg="http://www.w3.org/2000/svg" xmlns:xlink="http://www.w3.org/1999/xlink">


<g id="background">
<rect id="" width="370" height="250" fill="#222222"/>
</g>
  <g id="316" style="stroke-miterlimit: 3; fill: #F1F1F1; stroke: #000000; stroke-opacity: 1; stroke-width: 0.05; stroke-linejoin: bevel; stroke-linecap: square">
    <polygon id="Guam" points="134.9,250.0 130.8,250.0 125.2,247.7 117.7,242.9 111.6,236.9 99.8,220.5 96.5,215.8 90.0,180.0 96.5,152.1 102.6,134.9 130.8,110.7 140.7,104.3 148.9,100.4 155.0,98.4 166.5,93.6 176.3,87.3 186.5,77.3 194.7,65.4 199.2,53.7 206.1,24.7 209.8,16.4 213.1,11.6 219.2,5.6 224.2,2.5 230.3,0.5 234.0,0.0 236.8,1.3 277.3,32.7 279.4,34.7 280.6,37.5 280.6,41.5 276.6,49.4 265.5,66.5 255.2,80.5 251.6,84.8 231.2,104.7 218.9,112.6 210.6,116.6 193.0,127.4 184.6,134.9 180.7,139.3 177.6,144.2 173.8,152.5 170.1,164.7 167.3,186.0 166.8,193.4 166.8,205.4 165.6,216.2 162.8,225.3 160.3,230.9 155.3,238.1 151.4,242.0 146.9,245.7 141.6,248.5 134.9,250.0 " />
  </g>
</svg>