<?xml version="1.0" encoding="UTF-8" standalone="yes"?>
<!DOCTYPE svg PUBLIC "-//W3C//DTD SVG 1.0//EN" "http://www.w3.org/TR/2001/REC-SVG-20010904/DTD/svg10.dtd">
<svg height="250" width="370" xmlns="http://www.w3.org/2000/svg" xmlns:svg="http://www.w3.org/2000/svg" xmlns:xlink="http://www.w3.org/1999/xlink">


<g id="background">
<rect id="" width="370" height="250" fill="#222222"/>
</g>
  <g id="324" style="stroke-miterlimit: 3; fill: #F1F1F1; stroke: #000000; stroke-opacity: 1; stroke-width: 0.05; stroke-linejoin: bevel; stroke-linecap: square">
    <polygon id="Guinea" points="83.5,134.3 83.9,133.5 83.8,132.8 82.8,131.2 81.2,129.4 80.9,130.4 81.5,131.4 81.5,132.2 80.2,133.8 79.3,134.1 78.4,134.1 77.7,133.9 76.9,133.2 76.5,132.5 76.5,131.9 77.3,129.7 77.8,129.2 78.3,128.8 79.5,126.9 79.8,125.6 79.7,124.7 79.2,125.7 78.9,126.4 78.5,126.9 77.7,127.8 77.2,128.3 75.5,129.2 73.8,129.2 73.1,128.9 72.3,128.4 68.9,125.4 68.0,124.7 62.3,120.7 59.5,120.0 58.8,119.8 55.3,117.5 44.5,108.8 40.7,103.9 40.3,103.4 40.2,102.5 40.3,99.8 40.9,99.1 39.3,100.3 38.3,100.6 37.2,100.8 35.4,100.7 34.9,98.4 36.9,91.9 37.3,90.6 40.1,86.6 42.0,84.1 41.5,83.4 39.4,85.1 38.8,85.7 37.4,88.4 36.3,90.7 33.9,92.8 33.3,93.0 32.7,90.5 33.0,87.7 31.2,84.1 30.2,84.1 28.4,84.7 27.9,80.6 28.0,80.0 28.1,79.5 29.8,79.0 31.6,78.5 32.1,78.1 33.9,75.5 33.7,74.9 31.3,77.4 26.3,78.2 25.7,78.2 23.9,79.8 23.3,81.1 22.3,85.8 21.6,87.0 20.6,87.1 19.7,87.0 18.6,86.5 16.5,84.2 16.2,83.5 16.0,82.7 16.0,82.1 16.1,81.6 16.6,80.9 18.9,78.5 21.4,75.8 23.1,73.1 25.7,68.5 26.6,66.0 26.9,65.0 27.1,64.3 27.4,63.1 27.6,62.4 28.4,60.7 29.7,58.8 32.8,54.4 33.5,53.7 34.0,53.3 35.0,53.0 36.3,53.0 37.8,53.0 38.3,53.1 39.6,53.3 40.9,53.3 41.8,53.2 45.7,51.0 47.0,50.3 51.2,47.9 52.3,46.1 52.7,45.6 58.6,46.1 60.1,47.2 61.4,47.4 65.0,47.3 65.6,47.3 75.4,45.3 76.0,45.1 78.6,43.9 78.8,40.9 78.7,30.9 78.6,30.3 78.1,29.9 77.2,29.6 75.5,29.3 74.8,28.9 71.2,25.8 70.7,25.3 68.7,24.1 67.3,24.0 66.7,23.9 66.8,22.4 67.0,21.7 71.7,18.2 74.0,17.6 74.7,17.8 74.6,18.5 74.1,18.9 77.6,19.1 78.9,18.1 79.2,17.5 80.3,16.6 81.5,10.5 81.6,10.0 81.6,9.4 81.4,8.9 80.9,8.1 79.9,7.2 79.3,6.6 78.8,5.8 78.4,5.2 78.1,3.6 78.1,2.7 78.2,1.6 78.4,0.0 82.3,0.0 94.7,0.6 96.8,1.3 101.5,1.2 108.2,1.7 108.7,2.4 109.1,3.7 108.9,4.5 108.4,5.6 107.9,6.5 108.0,7.7 108.2,8.4 109.2,9.3 112.1,9.6 113.0,9.2 113.3,7.3 113.6,6.6 114.1,6.2 114.8,6.0 115.5,6.0 118.0,7.5 120.7,9.7 127.5,10.9 128.0,11.3 129.8,13.9 133.4,13.0 133.9,12.8 134.5,12.8 135.0,12.9 136.3,13.2 138.4,14.0 139.0,14.6 139.5,15.7 140.8,17.1 147.6,15.1 148.8,14.8 149.5,14.5 150.1,14.1 150.8,13.4 155.1,12.6 161.4,12.2 163.8,13.3 167.7,13.6 168.6,13.6 170.6,13.1 171.4,12.6 172.5,11.9 173.1,11.5 178.5,11.1 180.0,11.0 180.9,11.1 182.7,11.5 185.2,12.3 184.7,13.4 182.0,19.4 181.6,19.9 180.6,20.2 180.1,20.7 179.7,21.5 179.7,22.6 179.7,23.1 181.3,24.7 183.4,25.4 184.8,25.9 185.3,26.3 186.7,28.8 187.5,29.6 190.7,31.1 191.5,31.1 193.9,30.3 194.5,29.7 195.2,29.1 197.6,25.6 200.0,21.9 200.3,21.3 203.8,20.6 204.4,20.6 205.5,20.7 206.3,21.1 207.1,21.7 210.7,25.8 213.8,32.1 214.1,33.0 214.2,34.1 214.6,34.7 215.2,35.0 216.6,35.6 218.1,35.8 222.2,31.2 226.9,25.6 227.5,25.5 231.6,23.3 232.7,22.5 232.7,21.2 233.1,20.6 243.2,22.7 251.9,26.7 254.0,28.4 258.8,29.6 261.5,29.6 263.0,27.7 263.1,27.2 263.0,26.4 262.9,25.6 263.3,24.7 263.9,24.1 264.8,23.4 267.0,22.3 275.3,19.3 276.6,19.5 277.7,19.4 278.7,18.9 279.7,16.6 280.1,14.7 277.7,12.4 275.3,10.6 277.0,8.7 279.3,7.9 281.9,8.1 286.4,8.7 289.6,11.0 290.3,10.9 290.9,11.0 294.3,12.9 295.6,14.5 296.1,15.0 296.1,15.5 295.5,16.5 294.7,17.9 294.4,18.5 294.3,19.7 294.4,20.6 295.1,21.8 296.2,22.2 302.8,30.6 303.5,34.3 302.9,37.5 301.2,46.4 303.7,47.3 305.1,47.6 305.7,47.3 306.6,46.6 307.2,46.9 307.4,47.7 307.7,49.1 308.4,51.1 309.1,52.7 309.9,53.8 311.4,54.8 312.6,55.1 314.1,54.6 314.8,54.0 315.4,56.5 316.3,57.3 317.6,57.3 318.1,57.4 318.8,57.6 321.3,58.6 322.2,59.0 322.7,59.6 323.0,61.8 322.8,62.6 322.4,63.4 321.4,63.8 320.9,63.8 319.6,63.8 318.7,63.3 317.7,63.2 317.1,63.6 311.3,70.7 308.3,75.7 308.1,76.4 308.0,76.9 308.0,77.5 308.1,78.1 308.5,78.6 312.5,77.8 315.8,76.3 318.2,74.2 322.5,73.9 323.1,73.9 323.7,74.3 325.9,76.2 326.0,83.4 324.5,87.5 326.3,97.1 326.8,99.1 329.0,102.6 330.0,103.2 330.6,103.2 332.7,102.8 339.8,106.8 340.4,107.4 341.6,110.4 341.9,111.1 341.8,111.6 340.3,114.6 339.1,117.1 338.7,117.6 337.5,118.7 336.9,119.0 335.8,119.5 334.9,119.5 334.1,120.1 332.4,122.8 331.8,124.7 331.9,125.6 333.2,127.4 334.4,128.2 334.5,130.3 334.1,130.9 332.4,139.5 332.5,142.4 332.6,143.4 333.1,145.1 334.1,146.6 336.2,148.7 336.8,149.7 338.0,150.1 338.5,150.1 340.5,150.1 341.2,149.9 344.8,151.5 343.0,156.8 342.8,157.3 342.7,157.9 342.7,158.5 343.1,159.3 343.9,159.8 348.4,162.1 350.9,163.3 351.3,163.8 351.1,164.5 347.8,164.7 343.9,166.8 343.2,167.4 342.9,168.0 342.5,168.9 342.0,170.9 341.1,175.5 341.1,176.0 341.2,177.1 341.6,177.7 342.2,178.1 343.0,178.4 344.0,178.1 344.8,178.0 348.5,178.9 350.3,180.5 353.8,184.9 354.1,185.6 353.9,188.5 353.9,193.4 354.4,194.5 354.8,195.3 355.2,195.9 354.5,196.4 352.9,196.5 351.4,196.4 350.6,196.3 350.2,195.4 350.1,194.6 349.1,192.9 347.6,191.3 341.5,190.6 331.1,190.6 330.1,190.8 328.4,192.7 328.0,193.2 328.4,199.1 328.5,200.9 328.7,202.5 331.2,204.4 334.1,205.5 335.8,206.0 336.6,206.0 338.2,205.2 339.2,206.4 341.3,211.6 341.6,212.6 338.3,212.1 336.7,211.9 336.8,212.9 336.6,214.2 336.5,214.8 335.8,215.6 333.8,219.2 333.6,219.7 333.7,220.3 334.3,221.0 335.5,222.3 334.8,223.4 330.8,230.5 330.6,231.2 330.6,232.1 330.7,232.6 329.5,234.2 328.9,234.1 326.1,232.5 321.2,230.9 319.9,231.5 317.7,233.5 316.9,233.0 314.5,231.4 314.0,231.0 313.6,230.1 313.8,229.4 314.0,227.5 313.0,227.5 309.0,227.4 308.3,228.0 307.1,229.2 306.7,229.8 306.1,233.0 306.3,233.5 306.8,235.4 303.4,240.1 301.0,245.0 300.8,246.2 300.5,246.9 297.6,247.6 294.7,247.6 291.8,248.6 289.4,249.6 288.6,250.0 289.0,248.9 288.9,248.3 284.1,243.1 282.5,241.6 279.3,239.8 278.7,239.5 274.2,239.7 273.1,240.7 272.5,241.4 271.4,242.6 271.2,242.1 272.3,239.4 272.7,238.8 273.7,238.0 274.3,237.4 274.6,236.7 276.0,233.5 276.7,231.2 276.4,230.2 276.2,229.5 276.3,228.2 276.4,227.6 277.1,225.5 277.1,224.8 274.8,220.8 273.5,218.0 273.5,216.0 273.8,215.3 274.4,214.7 274.9,213.1 274.9,212.5 272.4,205.9 271.4,197.6 264.3,191.9 263.3,191.1 262.6,191.0 257.5,190.1 254.9,190.9 253.5,190.7 252.6,190.5 249.4,191.8 240.1,190.0 238.3,191.4 235.7,191.2 233.2,190.2 230.2,190.9 228.6,193.6 228.0,194.9 225.6,197.4 224.0,198.6 223.4,199.0 222.8,199.3 216.1,199.8 216.2,196.9 219.5,188.7 221.6,186.1 223.1,185.2 224.9,181.0 224.4,180.4 221.3,175.8 220.9,174.3 220.7,173.5 220.4,170.1 220.6,168.7 221.5,165.9 221.8,165.1 220.2,164.5 219.7,164.4 216.9,164.3 215.7,164.4 215.1,164.3 214.4,164.2 214.1,163.5 214.8,160.5 216.2,158.5 216.9,158.0 217.3,157.4 217.9,154.4 217.8,153.7 215.9,152.0 213.7,150.1 209.6,145.9 206.4,140.3 203.1,134.6 202.4,133.5 201.1,132.1 199.9,130.9 197.8,129.1 197.1,128.6 194.6,123.8 194.1,123.0 192.4,122.3 181.3,122.3 180.2,122.3 176.2,122.3 161.4,122.4 161.2,123.3 161.1,124.1 161.2,124.7 161.5,125.3 151.8,127.6 150.6,127.9 149.3,127.7 146.8,126.4 146.2,125.4 135.8,127.3 134.1,128.4 129.8,137.8 129.9,138.7 128.5,140.2 127.8,141.7 126.3,146.1 125.6,148.5 120.2,154.2 119.4,154.7 117.8,155.0 117.2,154.7 114.4,154.6 113.5,154.9 112.8,157.1 112.0,160.1 110.9,162.7 109.5,163.9 107.1,165.5 106.4,165.8 105.5,165.8 104.8,165.5 104.2,165.2 102.9,164.0 102.4,163.8 99.7,164.6 99.0,164.9 97.7,165.9 97.1,166.2 96.5,165.6 96.1,165.0 96.1,164.5 98.7,161.4 98.5,158.6 96.7,158.4 92.2,154.9 87.2,146.9 87.0,146.2 87.1,145.6 88.5,142.3 87.7,143.6 87.2,144.4 86.5,145.0 85.7,144.8 80.3,142.1 83.5,134.3 " />
  </g>
</svg>