<?xml version="1.0" encoding="UTF-8" standalone="yes"?>
<!DOCTYPE svg PUBLIC "-//W3C//DTD SVG 1.0//EN" "http://www.w3.org/TR/2001/REC-SVG-20010904/DTD/svg10.dtd">
<svg height="250" width="370" xmlns="http://www.w3.org/2000/svg" xmlns:svg="http://www.w3.org/2000/svg" xmlns:xlink="http://www.w3.org/1999/xlink">


<g id="background">
<rect id="" width="370" height="250" fill="#222222"/>
</g>
  <g id="344" style="stroke-miterlimit: 3; fill: #F1F1F1; stroke: #000000; stroke-opacity: 1; stroke-width: 0.05; stroke-linejoin: bevel; stroke-linecap: square">
    <polygon id="Hongkong" points="258.6,58.9 271.7,87.3 316.8,59.1 320.2,58.2 323.5,58.9 367.8,85.7 369.8,88.1 370.0,92.2 366.2,123.7 364.7,127.2 362.6,129.7 330.5,122.4 306.3,119.3 286.4,133.8 294.4,156.8 315.4,182.1 308.6,198.3 244.7,160.9 132.2,138.8 71.4,137.1 56.9,131.9 52.0,127.0 50.3,124.1 47.3,106.0 48.2,102.9 50.7,100.9 82.6,77.2 137.5,36.5 260.7,9.3 258.6,58.9 " />
    <polygon id="Hongkong" points="320.4,144.7 317.7,146.7 313.9,146.4 310.2,145.1 308.1,142.8 307.3,139.1 307.5,132.2 308.6,128.3 318.3,132.3 320.2,133.5 321.3,136.8 321.3,140.8 320.4,144.7 " />
    <polygon id="Hongkong" points="48.2,240.6 13.2,242.0 7.0,239.1 5.3,236.0 0.0,224.8 1.6,216.8 8.0,208.9 12.9,204.3 39.3,184.8 42.4,183.1 48.9,180.4 144.0,146.4 146.7,146.6 148.3,149.3 148.0,153.8 132.9,168.1 112.3,194.5 110.6,197.6 110.5,214.1 92.7,226.1 56.5,239.8 48.2,240.6 " />
    <polygon id="Hongkong" points="276.0,235.7 272.9,237.3 250.8,226.2 205.0,201.6 197.6,195.1 195.9,192.4 195.2,188.8 197.0,185.7 199.6,183.7 203.2,182.6 211.0,181.5 242.3,178.1 246.7,178.8 250.3,182.6 266.0,192.7 268.8,194.7 274.7,202.3 276.4,205.2 277.5,208.5 277.8,232.8 276.0,235.7 " />
  </g>
</svg>