<?xml version="1.0" encoding="UTF-8" standalone="yes"?>
<!DOCTYPE svg PUBLIC "-//W3C//DTD SVG 1.0//EN" "http://www.w3.org/TR/2001/REC-SVG-20010904/DTD/svg10.dtd">
<svg height="250" width="370" xmlns="http://www.w3.org/2000/svg" xmlns:svg="http://www.w3.org/2000/svg" xmlns:xlink="http://www.w3.org/1999/xlink">


<g id="background">
<rect id="" width="370" height="250" fill="#222222"/>
</g>
  <g id="348" style="stroke-miterlimit: 3; fill: #F1F1F1; stroke: #000000; stroke-opacity: 1; stroke-width: 0.05; stroke-linejoin: bevel; stroke-linecap: square">
    <polygon id="Hungary" points="147.6,194.0 147.0,194.6 145.5,195.0 142.5,194.2 136.9,197.1 136.5,197.7 135.8,198.5 133.5,200.1 127.2,202.8 126.1,203.0 125.2,203.0 121.3,202.7 117.2,202.2 116.7,202.1 116.0,201.6 115.0,201.2 114.0,201.1 113.3,201.0 111.4,200.9 103.3,200.9 96.5,201.1 85.0,198.3 84.5,198.1 84.1,197.3 83.9,196.0 83.4,195.1 82.6,194.4 80.7,193.0 79.9,192.5 73.5,191.8 71.8,191.9 72.2,192.6 71.5,192.8 69.7,192.7 68.0,192.0 65.4,190.6 62.5,188.3 62.3,186.4 61.5,184.7 61.0,184.0 58.6,181.0 57.0,179.6 50.6,177.6 47.0,176.5 45.1,175.7 44.1,175.1 42.6,173.9 41.9,172.7 41.8,170.9 41.6,170.3 39.8,169.1 37.6,167.9 30.0,163.9 28.2,163.4 27.1,163.3 22.9,161.6 16.2,153.3 14.9,151.0 14.4,149.8 13.8,150.0 11.7,148.1 11.0,146.4 11.1,145.8 12.3,145.1 13.0,143.6 12.8,143.1 10.4,141.9 9.9,141.8 8.6,141.6 6.6,141.5 4.4,141.8 3.8,142.2 1.8,142.5 1.3,142.4 0.0,141.8 1.3,141.4 7.7,137.0 9.0,135.4 10.4,134.1 12.8,134.2 16.4,134.3 18.2,134.5 20.2,134.7 21.1,134.6 21.6,134.5 21.5,128.5 19.4,126.7 18.8,126.7 16.9,123.5 18.2,121.4 19.5,120.7 20.7,119.5 18.8,114.6 18.5,112.5 18.7,111.9 19.6,111.8 20.2,111.9 26.2,111.5 29.6,109.7 32.4,106.3 32.8,105.1 30.4,101.4 29.3,100.4 28.6,100.1 28.0,100.0 26.8,100.4 26.1,100.4 20.8,99.4 18.4,98.7 17.3,98.4 18.5,96.6 24.2,93.5 27.3,93.3 28.6,93.3 32.9,94.6 33.5,95.0 33.7,95.8 34.0,96.4 35.2,97.3 35.8,97.4 38.9,97.4 43.6,97.0 46.0,96.8 51.4,96.0 52.4,95.0 52.2,92.8 51.6,91.7 51.4,91.1 51.4,88.5 51.8,86.9 54.3,81.7 56.5,80.2 57.5,79.5 58.1,79.1 58.9,78.9 61.4,78.8 62.2,78.8 62.7,79.8 63.4,80.1 65.5,80.3 66.8,80.3 67.8,80.8 70.9,83.2 72.6,84.7 73.4,85.9 75.0,86.8 87.3,92.7 91.2,94.0 97.4,93.9 98.4,93.7 101.7,93.1 107.7,93.3 109.5,93.4 110.2,93.5 113.7,93.9 119.2,94.5 120.0,94.5 121.4,94.3 123.6,94.0 125.5,93.6 127.4,92.9 132.5,92.9 135.6,93.1 137.7,93.3 138.7,93.3 139.6,93.2 140.7,92.7 142.3,91.8 143.0,91.2 143.3,90.7 143.9,90.4 144.8,90.2 146.0,90.1 149.3,90.1 149.7,89.4 147.7,88.1 146.2,87.3 145.2,87.1 144.4,85.4 144.4,84.4 145.1,82.1 148.1,78.2 148.9,77.6 152.3,77.0 155.7,76.9 157.0,76.5 157.6,76.4 159.8,76.3 165.2,76.8 168.9,76.9 182.7,75.5 183.3,75.4 184.5,73.2 184.7,72.6 184.9,72.0 185.3,70.7 186.1,68.9 187.0,68.5 191.9,67.4 192.7,67.4 193.7,67.5 198.7,68.8 200.3,69.2 200.6,70.3 206.8,73.0 207.7,73.1 208.7,72.8 210.1,72.0 210.7,71.6 212.4,70.8 212.9,70.6 215.3,70.6 217.2,69.4 219.8,67.8 224.9,65.2 227.2,66.2 227.7,66.3 228.4,66.1 229.4,65.5 230.7,64.6 231.7,63.8 233.9,60.8 234.2,59.9 234.6,58.7 234.8,58.1 235.9,56.5 237.1,55.3 239.3,53.8 239.4,52.7 241.5,50.9 247.3,49.6 248.1,49.4 251.0,49.1 256.4,48.7 257.4,48.8 258.3,49.4 259.6,50.1 263.4,51.5 263.9,51.6 271.2,52.2 275.0,52.3 280.5,51.7 283.5,50.3 290.2,48.7 290.8,48.8 294.3,50.2 300.1,53.0 300.5,53.5 300.6,54.2 300.9,55.7 305.5,60.5 306.3,60.9 309.1,61.6 311.6,61.6 312.2,61.0 312.8,60.6 313.7,60.2 317.7,59.5 319.3,59.3 322.8,59.0 324.3,59.1 325.2,59.3 325.9,59.6 326.4,59.6 327.2,59.4 329.4,57.9 330.6,57.9 332.4,57.4 333.0,57.3 333.7,57.4 335.9,58.0 335.9,58.5 335.9,60.5 340.2,65.2 341.8,66.8 346.0,66.9 347.6,66.5 348.2,66.5 348.9,66.8 352.5,70.0 353.8,72.1 354.0,73.2 354.1,73.9 355.1,74.6 356.3,75.0 357.8,75.1 358.3,75.0 359.2,74.6 361.4,73.9 363.8,73.8 364.5,73.8 367.3,75.6 369.2,77.5 369.5,78.0 369.3,79.0 368.1,80.5 370.0,82.7 363.9,88.4 363.4,89.1 356.8,92.4 355.8,92.6 354.6,92.8 353.6,92.9 351.6,92.9 351.0,92.8 348.7,91.6 347.9,91.4 347.0,91.3 346.0,91.3 345.5,91.4 338.8,93.9 336.3,95.0 333.5,97.6 331.7,100.3 331.5,101.8 330.9,102.5 329.8,102.8 327.6,103.2 323.5,105.4 323.0,105.8 322.0,106.7 321.5,107.6 321.6,108.3 321.7,108.9 322.2,109.8 322.4,110.4 322.3,111.5 322.0,113.1 321.7,114.0 321.0,114.4 320.4,114.5 319.1,114.6 317.8,114.9 317.1,115.2 314.3,118.4 312.6,121.7 312.5,122.4 312.8,123.2 312.9,124.3 309.8,128.2 308.6,128.9 307.6,129.2 306.7,129.6 305.4,130.4 302.3,133.0 302.3,133.5 304.3,134.1 304.6,134.7 303.2,136.8 300.1,141.0 296.4,143.5 295.5,144.1 295.0,144.8 293.5,147.6 293.3,148.2 294.1,148.9 295.1,149.2 295.5,149.9 295.1,150.4 293.6,151.8 292.1,151.9 291.4,151.9 290.7,152.1 284.6,155.3 283.5,157.0 282.7,160.2 282.4,164.1 278.6,167.0 278.0,167.3 277.4,167.9 277.1,168.5 276.7,169.5 276.4,171.4 276.4,173.0 271.1,175.8 269.9,176.2 269.3,176.2 268.6,175.9 266.1,175.4 259.5,174.2 258.3,174.0 257.4,174.1 256.8,174.3 255.5,174.8 254.8,175.1 253.6,175.8 251.4,178.8 251.7,179.7 251.4,180.2 250.6,180.7 250.1,181.1 249.2,181.5 246.2,182.2 243.9,180.8 242.8,180.3 241.3,179.8 238.7,179.4 230.7,180.6 227.7,181.3 226.9,181.7 226.5,182.2 226.3,183.0 223.3,181.1 218.5,180.2 210.0,180.0 204.4,180.8 203.9,180.9 198.2,180.4 195.9,179.6 194.2,179.4 193.6,179.4 188.7,179.8 188.1,179.9 185.3,181.4 185.2,181.9 185.8,182.5 185.4,183.2 183.0,185.0 173.2,189.8 166.3,190.0 165.8,189.9 165.0,188.5 164.3,188.0 163.4,187.9 162.8,187.9 161.9,188.3 158.2,191.0 157.3,191.9 149.8,194.1 148.6,194.1 147.6,194.0 " />
  </g>
</svg>