<?xml version="1.0" encoding="UTF-8" standalone="yes"?>
<!DOCTYPE svg PUBLIC "-//W3C//DTD SVG 1.0//EN" "http://www.w3.org/TR/2001/REC-SVG-20010904/DTD/svg10.dtd">
<svg height="250" width="370" xmlns="http://www.w3.org/2000/svg" xmlns:svg="http://www.w3.org/2000/svg" xmlns:xlink="http://www.w3.org/1999/xlink">


<g id="background">
<rect id="" width="370" height="250" fill="#222222"/>
</g>
  <g id="352" style="stroke-miterlimit: 3; fill: #F1F1F1; stroke: #000000; stroke-opacity: 1; stroke-width: 0.05; stroke-linejoin: bevel; stroke-linecap: square">
    <polygon id="Iceland" points="317.3,85.7 315.0,85.9 314.3,86.3 313.7,86.8 314.7,87.3 319.3,88.9 321.9,89.1 325.5,89.0 327.0,88.5 328.0,88.4 328.8,88.3 329.3,88.4 330.2,88.7 331.0,89.1 332.5,90.7 332.8,91.4 332.9,92.0 332.4,93.5 331.3,94.5 328.9,95.6 327.9,95.9 327.2,96.0 326.5,96.2 325.8,96.8 324.6,98.2 324.2,98.7 324.8,99.5 325.3,99.8 326.5,99.7 328.2,99.3 330.6,98.9 331.9,98.7 339.2,97.7 340.4,97.6 341.5,97.5 342.1,98.1 342.7,101.6 339.5,103.5 336.2,105.5 335.4,105.9 334.9,106.5 334.4,107.2 335.6,106.4 342.1,102.6 343.0,102.2 343.7,102.1 346.8,102.9 353.2,104.0 354.3,103.8 355.2,103.6 356.1,103.5 357.6,103.5 363.9,105.7 366.2,107.0 366.3,107.7 365.4,109.8 364.2,111.4 362.2,113.3 364.6,114.0 366.8,114.7 367.7,115.1 366.1,116.3 365.3,116.7 364.6,116.9 363.3,117.1 361.7,117.2 360.3,117.2 357.8,117.2 352.4,117.6 352.9,117.8 353.9,117.8 355.0,117.6 355.9,117.5 357.5,117.4 358.2,117.4 364.9,117.5 365.9,117.6 365.4,118.8 366.9,119.9 369.4,120.3 370.0,121.7 367.1,123.8 366.5,124.2 365.4,124.5 364.6,124.6 364.0,124.7 361.0,124.3 360.5,124.2 359.3,123.6 358.2,122.9 357.5,122.7 353.6,121.9 353.0,123.5 357.6,124.9 361.2,125.9 361.8,126.0 363.0,126.3 363.1,126.9 361.2,127.0 359.5,127.0 355.2,126.7 351.5,126.3 352.4,126.9 353.1,127.1 354.5,127.2 355.5,127.3 356.5,127.3 357.6,127.3 358.4,127.4 359.8,128.0 360.8,128.4 360.9,129.1 359.3,129.9 357.5,130.8 356.3,130.8 352.8,130.9 351.8,131.2 352.6,132.2 353.2,132.4 353.4,132.9 352.6,133.3 351.1,133.7 350.6,133.8 345.4,134.5 344.8,134.5 342.5,133.7 340.9,132.5 339.1,131.3 338.3,131.0 337.4,130.8 336.7,130.8 336.1,130.8 338.0,131.6 340.2,133.4 341.0,135.0 338.9,137.2 337.7,137.3 336.2,137.7 334.6,137.7 334.0,137.7 333.8,138.3 335.5,139.1 336.3,139.2 337.1,139.5 337.8,139.2 337.4,140.6 335.2,144.0 334.2,144.2 333.3,144.2 329.4,143.9 324.0,146.2 323.4,147.5 323.8,148.2 322.2,148.7 321.0,149.1 317.0,147.8 316.3,147.6 312.3,147.6 310.0,146.4 306.9,145.1 307.0,145.7 307.4,146.4 307.4,147.2 306.9,148.3 305.1,149.0 303.0,149.5 298.4,150.0 297.0,150.2 296.0,150.4 292.8,151.4 285.7,153.1 284.8,154.2 280.3,156.3 279.5,156.6 278.4,156.9 277.6,157.0 274.9,158.0 271.7,160.3 271.0,160.6 269.8,161.1 265.6,162.2 259.2,163.4 256.6,162.1 254.5,160.7 253.8,160.3 252.4,162.3 252.4,163.7 251.9,164.5 248.8,164.6 248.1,164.5 246.0,164.5 244.5,164.3 242.4,164.8 228.5,167.2 224.7,166.5 224.2,166.5 223.6,166.5 220.1,168.7 220.4,170.2 221.1,170.7 221.7,170.8 223.6,170.9 223.4,171.5 222.1,172.9 221.4,173.4 220.9,173.6 215.4,174.9 214.2,175.2 213.7,175.3 209.1,175.9 200.2,177.1 195.4,178.0 194.8,178.0 193.2,178.0 182.8,177.2 176.5,176.5 172.5,175.6 165.6,174.2 164.7,174.0 161.3,173.4 159.5,173.1 157.5,172.8 156.6,172.8 150.5,173.1 149.8,173.1 149.2,173.2 148.5,173.2 147.6,173.2 146.5,173.1 145.6,172.9 144.8,172.6 135.4,168.7 134.8,168.0 134.1,167.4 134.0,166.9 134.0,166.1 135.9,165.4 136.9,165.3 137.4,165.4 138.4,165.5 139.0,165.7 139.8,166.2 140.9,166.6 141.4,166.6 140.4,165.7 139.5,165.4 137.3,164.8 135.0,165.4 133.6,165.8 132.6,166.3 132.7,166.9 130.4,166.6 127.8,165.6 128.4,165.5 129.0,165.6 130.2,165.7 131.8,165.6 129.6,162.7 129.0,163.0 127.0,164.0 125.4,164.5 123.8,164.6 122.9,164.2 122.0,163.9 120.4,163.5 118.2,163.1 116.6,163.0 114.8,162.4 113.2,161.9 112.7,161.7 112.2,160.1 113.5,159.8 114.2,159.9 114.7,159.9 116.7,159.7 113.0,159.1 112.4,159.1 111.9,159.1 110.1,159.5 108.6,160.3 108.0,161.3 106.3,162.0 104.2,162.6 97.9,163.5 97.3,163.5 96.7,163.4 95.8,163.1 95.1,162.8 90.1,162.5 87.5,162.9 86.9,162.9 83.6,163.1 80.4,163.1 76.8,162.6 74.3,162.2 71.1,162.7 62.7,164.1 62.1,164.1 61.1,163.4 60.4,158.1 60.9,155.4 61.6,154.9 62.1,154.7 63.0,154.9 63.6,155.1 65.4,156.1 66.2,156.7 66.6,157.2 66.9,157.7 67.7,158.3 69.9,158.4 71.6,158.4 72.2,158.3 72.0,157.8 72.7,157.2 76.6,156.6 77.1,156.6 78.0,156.8 78.7,157.0 83.7,156.0 86.2,155.3 88.0,154.0 87.2,153.4 86.0,152.7 89.5,152.3 91.1,152.4 93.5,152.1 95.3,151.6 91.6,149.8 91.1,149.7 90.5,149.7 89.5,149.7 90.7,148.0 93.2,146.2 96.8,145.3 97.8,145.0 98.9,144.8 99.5,145.2 100.3,145.4 102.3,145.4 104.1,145.2 106.5,144.7 102.7,144.3 97.6,144.1 97.0,144.1 96.0,144.1 94.1,144.6 93.6,144.8 92.3,145.5 91.6,146.2 87.2,147.4 86.0,147.6 84.4,147.6 82.1,147.2 84.4,143.5 84.4,142.7 85.9,140.8 92.5,138.2 94.9,137.3 95.5,137.2 96.6,137.2 97.1,137.9 98.3,137.8 99.1,138.4 102.0,138.6 99.7,138.2 99.3,137.2 98.4,137.1 97.0,137.0 96.4,137.0 95.9,136.9 98.2,136.0 99.9,136.1 101.3,136.1 98.1,135.8 95.2,136.5 86.8,139.1 84.2,140.1 82.2,141.9 79.7,142.4 79.2,142.3 78.3,141.8 73.5,139.0 71.4,135.8 74.2,134.5 75.1,134.0 74.4,132.2 71.5,130.3 67.2,130.6 62.5,130.8 56.1,130.7 53.3,130.9 50.2,130.9 47.0,130.8 46.1,130.7 45.0,130.5 43.2,130.0 42.2,129.9 38.5,130.0 34.0,130.4 30.5,131.7 30.5,132.4 29.4,132.8 23.8,133.2 23.3,133.2 21.5,132.8 20.9,132.5 20.0,131.9 17.5,129.9 16.6,129.0 16.2,127.7 20.1,126.8 22.4,126.6 23.7,126.5 24.3,126.7 25.6,127.0 26.5,127.2 27.7,127.5 28.4,127.6 29.2,127.7 29.9,127.7 30.4,127.6 33.2,126.8 34.2,126.0 34.8,125.8 39.5,125.2 43.7,124.4 44.3,123.9 44.8,123.6 45.3,123.5 52.3,123.7 53.0,123.9 64.5,123.3 65.2,123.0 66.2,122.7 67.4,122.4 73.3,122.1 74.4,122.2 75.9,122.4 77.4,122.6 79.4,123.1 80.3,123.2 86.9,123.2 90.7,123.0 91.9,122.0 94.2,118.8 94.3,118.2 94.1,117.6 93.2,117.2 92.3,117.2 91.6,117.2 90.8,117.5 90.7,118.2 89.2,118.8 88.1,119.3 85.4,120.2 83.9,120.4 82.8,120.5 75.8,119.8 67.1,118.8 66.5,118.6 68.3,116.4 71.8,114.9 73.3,114.4 74.8,114.0 75.9,113.8 77.4,113.7 77.9,113.6 79.8,113.1 83.3,111.9 84.4,111.4 85.8,110.8 87.9,110.2 90.0,110.0 91.3,109.9 92.3,109.9 93.1,109.7 95.1,109.1 91.7,109.5 89.5,109.1 87.2,108.5 85.4,107.3 83.9,107.3 81.3,107.9 79.1,109.3 78.0,109.8 77.5,109.8 75.5,109.3 74.0,108.0 74.3,107.5 75.4,107.4 76.2,107.3 77.5,106.6 78.3,106.5 79.8,105.9 81.5,104.2 81.0,104.2 79.8,104.6 79.3,105.2 78.4,105.8 77.4,106.2 76.5,106.4 74.5,106.7 69.3,107.1 68.6,107.2 66.0,106.3 62.5,106.4 61.1,107.3 60.3,107.3 59.0,107.2 56.6,105.5 54.6,105.1 51.1,106.0 49.8,106.0 48.8,105.9 46.6,105.7 45.0,107.4 44.2,107.8 43.3,107.9 41.8,107.9 39.1,107.6 30.8,108.5 29.7,108.8 27.8,109.9 26.9,110.2 22.2,110.6 21.3,110.6 19.4,110.3 18.8,110.1 18.4,109.4 17.6,108.3 12.0,107.4 9.3,107.3 4.5,107.7 2.9,107.9 1.1,107.7 0.2,107.5 2.6,106.3 4.7,105.6 5.6,105.3 5.9,104.5 5.5,104.0 7.2,102.7 7.8,102.7 12.9,103.7 13.6,104.0 14.1,104.3 16.5,105.1 21.8,106.7 22.3,106.8 23.3,106.7 24.5,106.4 21.1,105.5 17.7,104.1 16.2,103.2 15.5,102.5 16.0,102.3 19.5,102.5 21.2,103.0 24.5,103.7 23.9,103.2 22.5,102.6 21.0,102.1 20.2,101.9 19.7,101.9 18.4,101.7 17.7,101.5 16.9,101.3 16.2,100.9 14.5,99.5 14.0,98.9 13.7,97.8 14.4,97.2 17.4,97.4 20.0,98.1 24.1,99.3 27.2,99.9 28.8,100.1 30.4,100.5 31.3,100.8 32.5,101.5 33.1,102.3 34.0,103.0 37.9,102.2 40.2,101.7 39.4,101.6 38.7,101.7 36.5,101.5 34.5,100.7 33.6,100.1 35.1,99.8 36.2,99.6 36.9,99.6 39.4,99.5 43.2,99.3 43.9,99.3 45.2,98.1 44.5,98.0 43.8,98.2 43.1,98.4 41.4,98.6 38.2,98.8 33.9,98.9 33.3,98.9 32.2,98.8 27.3,98.1 26.8,98.1 25.8,97.7 23.6,96.3 22.4,95.0 22.5,94.5 23.4,93.6 23.9,93.3 24.5,93.2 25.1,93.2 29.1,93.9 30.3,94.1 36.7,95.1 43.1,96.0 44.0,96.1 44.5,96.0 41.5,95.4 39.0,95.0 37.0,94.7 32.8,93.9 32.1,93.7 31.4,93.5 26.7,91.7 24.8,90.7 24.3,90.2 24.3,89.6 24.8,88.7 25.4,88.3 26.0,88.2 27.1,88.3 30.4,88.9 31.0,89.0 33.9,89.6 37.8,90.6 38.5,90.9 39.0,91.0 37.7,89.7 34.6,88.6 33.8,88.6 31.8,87.9 31.1,87.5 29.4,86.8 32.3,85.1 33.5,84.6 35.8,83.9 36.7,83.9 39.9,84.1 42.5,84.7 46.3,85.7 50.6,87.0 52.0,87.7 52.4,89.4 58.0,90.7 59.7,88.8 62.5,89.0 64.5,90.1 65.4,91.1 65.9,91.8 65.5,92.9 65.2,93.4 64.6,93.9 63.6,95.4 63.2,95.9 63.9,96.1 66.2,93.5 67.3,91.9 68.4,91.7 71.0,93.1 71.1,93.6 70.7,94.7 70.1,95.2 69.5,96.0 70.3,96.1 70.9,95.7 71.7,94.7 72.3,93.8 72.2,93.0 71.9,92.0 71.5,91.0 68.4,88.0 65.2,86.9 63.0,86.5 61.2,86.2 60.0,86.2 59.5,86.1 57.5,85.7 54.6,84.7 53.6,84.1 52.9,83.5 52.8,82.9 54.3,82.5 56.5,82.0 57.3,81.8 58.3,81.8 60.3,81.8 63.1,82.4 65.4,82.8 66.8,82.8 69.8,82.0 70.6,81.6 68.7,81.7 67.7,81.6 66.9,81.5 62.7,80.9 61.5,80.7 57.3,79.7 53.7,80.5 52.5,80.5 50.8,80.4 50.0,80.3 49.2,80.2 47.2,79.6 45.8,79.1 45.3,78.6 47.2,78.5 49.7,77.4 49.0,75.9 53.5,75.0 55.5,74.9 56.3,75.0 60.5,75.9 64.7,75.7 71.1,76.0 76.5,79.1 78.4,81.4 82.3,81.6 85.9,81.4 93.0,84.3 94.2,85.2 97.1,88.3 97.3,88.9 96.9,89.9 98.0,88.5 101.6,88.5 105.3,89.6 105.5,91.1 101.4,91.5 100.8,91.6 98.8,91.9 98.8,92.5 99.4,92.5 100.2,92.3 100.8,92.1 102.8,91.9 104.9,91.8 105.5,91.9 108.6,92.8 109.1,93.2 109.4,94.2 109.4,95.4 107.4,99.4 105.3,100.5 104.0,101.0 102.9,101.0 98.9,101.0 97.3,99.8 96.5,99.2 96.4,98.7 95.8,98.4 94.4,98.2 92.9,98.3 96.8,102.1 97.8,102.5 98.5,102.7 99.0,102.7 100.8,102.7 101.8,102.7 102.5,102.6 104.6,102.8 105.1,102.9 108.3,104.1 108.8,104.8 108.8,105.5 108.5,106.3 109.2,108.0 111.8,109.5 112.3,110.8 112.4,112.7 114.6,116.6 115.9,118.7 116.5,118.1 115.8,116.3 115.4,109.4 115.5,108.9 116.3,108.8 116.9,109.0 119.4,109.6 119.1,108.5 119.2,107.0 120.5,104.8 121.1,104.3 123.6,103.1 127.8,101.5 129.3,100.9 129.9,100.9 131.2,101.4 130.9,103.2 130.6,105.0 130.6,105.7 135.4,107.7 136.3,107.7 136.9,107.6 141.3,103.0 143.2,100.3 143.4,99.2 143.1,98.3 141.8,95.4 139.6,93.1 138.8,92.1 138.3,90.2 138.1,89.1 138.0,87.8 146.2,86.2 149.0,86.4 152.4,89.7 154.2,92.0 154.7,92.6 156.4,93.5 157.3,93.9 159.3,94.4 159.9,94.5 160.5,94.4 162.2,95.2 163.5,97.6 163.7,98.2 164.0,98.7 165.3,99.2 170.3,99.7 171.4,99.5 172.4,97.6 172.6,96.3 171.7,94.5 170.6,93.2 170.0,92.8 169.4,92.5 169.8,91.2 170.4,88.8 171.1,88.4 172.7,87.9 177.0,87.5 178.0,87.5 180.6,87.7 183.0,88.0 182.7,86.4 182.8,85.8 183.4,85.2 186.0,84.4 186.7,84.2 190.5,83.8 192.7,84.1 196.3,85.0 197.3,85.5 198.1,86.0 200.6,87.6 201.3,88.4 201.8,89.7 201.4,90.4 201.1,91.1 201.2,91.6 204.4,92.1 206.5,92.3 207.2,92.3 208.0,92.5 209.7,93.6 212.3,96.5 213.1,99.3 216.1,102.0 216.9,102.5 217.5,102.2 217.1,96.4 215.8,94.1 214.3,93.1 213.7,93.4 213.1,93.5 211.8,92.9 209.5,90.3 208.6,88.7 208.0,85.6 209.2,84.7 210.7,84.5 211.9,84.8 213.7,85.0 216.4,85.2 218.7,85.3 220.3,85.4 220.9,85.4 222.1,85.7 227.5,87.9 228.1,88.2 232.3,91.0 238.7,91.1 240.5,88.7 241.3,87.2 243.8,85.0 244.9,84.2 245.5,84.0 248.3,83.5 249.2,83.4 251.2,83.6 251.9,83.7 253.0,84.0 253.8,84.3 255.7,86.4 261.5,86.7 266.3,87.5 264.2,86.3 263.1,85.2 267.5,84.2 268.6,84.0 269.2,83.9 271.2,82.9 271.9,82.3 272.2,81.5 271.9,80.8 269.2,77.4 266.9,74.6 267.2,74.1 268.5,73.5 270.5,73.3 271.8,73.2 274.3,73.4 278.1,73.4 280.3,72.6 285.2,72.6 287.7,73.4 289.8,74.2 291.1,76.6 291.8,76.6 295.9,77.2 296.8,78.8 296.7,79.4 295.6,80.2 295.0,80.6 295.3,81.7 296.3,82.8 301.0,83.3 306.9,85.8 307.7,85.3 308.3,84.7 308.6,83.9 308.7,83.4 312.6,81.7 314.8,81.5 315.4,81.4 315.9,81.3 319.3,79.4 319.7,78.8 320.7,78.3 321.6,77.9 322.8,77.6 323.4,77.5 324.6,77.5 325.2,77.5 329.4,78.2 329.4,78.9 326.3,79.6 320.9,80.9 319.7,81.3 320.1,81.9 320.7,82.1 321.4,82.7 321.9,83.6 321.5,84.2 321.0,84.6 318.9,85.3 317.3,85.7 " />
  </g>
</svg>