<?xml version="1.0" encoding="UTF-8" standalone="yes"?>
<!DOCTYPE svg PUBLIC "-//W3C//DTD SVG 1.0//EN" "http://www.w3.org/TR/2001/REC-SVG-20010904/DTD/svg10.dtd">
<svg height="250" width="370" xmlns="http://www.w3.org/2000/svg" xmlns:svg="http://www.w3.org/2000/svg" xmlns:xlink="http://www.w3.org/1999/xlink">


<g id="background">
<rect id="" width="370" height="250" fill="#222222"/>
</g>
  <g id="356" style="stroke-miterlimit: 3; fill: #F1F1F1; stroke: #000000; stroke-opacity: 1; stroke-width: 0.05; stroke-linejoin: bevel; stroke-linecap: square">
    <polygon id="India" points="144.4,0.5 144.0,1.3 143.9,1.9 144.2,2.5 144.5,3.0 145.2,4.6 145.3,5.1 145.7,5.6 146.1,6.8 146.3,7.4 146.9,7.9 147.7,8.1 148.8,8.2 149.3,8.3 149.9,8.6 152.0,9.8 152.4,10.4 152.5,10.9 152.2,11.4 151.5,11.8 150.8,12.0 150.3,12.3 150.1,12.8 150.3,13.5 150.7,14.5 150.8,15.1 150.8,15.7 150.7,16.3 150.7,17.0 150.9,17.6 151.5,18.0 152.0,18.5 152.3,19.0 153.3,19.6 154.0,19.8 154.5,20.1 155.7,20.9 155.5,21.9 155.9,22.5 157.0,23.9 156.9,24.6 156.4,25.2 155.1,26.2 154.6,26.0 154.0,26.2 153.5,26.6 153.1,27.2 152.2,27.4 150.7,26.6 150.4,25.7 150.4,25.1 149.8,25.0 149.3,25.5 148.7,25.6 148.1,25.4 147.4,25.6 147.4,26.1 147.8,26.7 148.0,28.2 148.5,28.8 148.9,29.3 149.4,30.0 150.0,30.4 150.3,31.0 149.7,32.3 149.9,32.9 151.0,33.8 150.5,34.3 149.9,34.7 150.4,36.4 150.9,36.7 152.5,35.7 153.1,35.4 153.8,35.7 154.3,36.3 154.5,37.0 155.0,37.9 155.8,38.3 157.2,39.5 157.7,39.7 158.9,39.3 159.9,39.5 160.4,40.1 162.7,40.9 163.3,41.4 163.1,42.6 163.7,42.9 164.6,43.3 165.6,43.7 166.2,43.7 167.6,44.4 168.0,45.0 168.8,45.3 169.4,45.5 170.0,45.9 169.3,46.3 168.7,46.6 167.6,47.7 167.0,48.1 166.5,48.2 165.8,49.1 165.3,49.6 164.8,49.7 164.4,50.6 164.7,51.3 164.1,52.0 163.6,52.4 163.2,52.9 163.5,53.8 163.6,54.8 162.8,55.4 161.7,57.0 161.6,58.0 162.4,58.3 163.2,58.7 163.8,59.2 164.5,59.8 165.2,60.1 165.5,59.6 166.2,59.6 167.2,60.2 169.0,61.3 170.1,61.7 170.6,61.8 171.2,62.0 172.4,63.8 173.0,63.8 173.9,64.4 175.1,65.1 176.1,65.6 176.6,66.0 177.4,66.5 178.1,66.1 178.9,66.0 179.8,66.4 180.9,67.2 182.0,67.9 182.6,68.1 183.4,68.0 184.1,67.8 184.7,67.8 184.8,68.4 185.0,68.9 185.1,69.5 186.9,69.9 187.5,70.0 188.3,70.0 189.3,70.5 189.9,71.0 190.4,70.7 190.8,69.8 191.8,69.8 192.5,69.9 193.7,70.4 194.4,70.7 194.7,70.1 195.3,70.0 196.0,70.1 197.1,69.5 198.5,70.6 199.3,70.7 200.2,70.8 200.9,70.9 201.4,71.3 201.8,71.9 201.8,72.7 201.5,73.3 202.4,73.9 203.3,74.0 204.3,74.5 206.2,75.7 207.3,76.2 208.5,75.8 209.3,75.4 210.0,75.1 210.7,75.5 210.9,76.3 210.9,76.8 212.0,77.7 212.8,77.3 213.5,76.9 214.0,77.1 214.9,77.3 216.2,77.3 217.4,77.9 219.0,78.7 219.6,79.0 220.4,78.8 221.0,78.6 221.5,78.0 222.7,78.4 223.4,79.2 224.3,79.4 225.1,79.2 225.8,78.9 226.6,79.0 227.5,79.2 228.8,78.6 229.7,78.5 230.2,79.1 230.7,79.4 231.4,78.9 231.6,78.3 231.7,77.7 232.1,76.9 232.3,76.4 232.2,75.0 231.7,74.1 231.0,73.6 230.6,73.0 230.7,72.3 230.9,71.5 231.0,69.7 231.4,68.9 231.9,68.0 232.3,67.2 232.3,66.6 231.8,66.3 231.8,65.8 233.5,65.4 234.0,65.4 235.1,64.9 236.0,64.3 237.1,64.6 237.8,65.1 238.2,66.2 238.3,66.7 238.1,67.6 237.9,68.2 237.3,69.1 237.4,70.0 237.8,70.6 238.4,71.0 238.3,71.6 237.8,71.7 237.3,72.3 237.8,72.9 238.2,73.4 238.4,74.2 239.6,74.6 240.1,75.0 240.6,75.5 241.2,75.5 241.8,75.4 242.5,75.2 243.4,75.7 244.0,75.6 244.5,75.8 244.7,76.3 246.0,76.5 246.8,76.5 248.7,76.2 249.3,76.1 249.6,75.6 251.1,74.8 251.6,74.8 252.5,75.5 253.6,75.8 254.2,75.9 255.9,75.8 256.4,75.8 257.1,75.8 257.8,75.6 258.6,75.6 259.2,75.8 259.8,75.8 260.2,75.3 260.9,75.0 261.4,75.6 262.9,75.7 263.9,75.1 265.2,75.2 265.9,75.2 266.4,74.6 266.3,74.1 266.0,73.6 265.5,73.0 265.5,72.5 266.4,71.5 266.2,70.9 265.5,69.8 264.1,70.1 263.4,70.2 262.6,69.7 262.1,69.1 261.9,68.5 262.2,68.0 262.4,67.5 263.9,67.3 264.4,67.6 265.2,67.6 265.8,67.4 266.4,66.9 267.1,66.9 267.6,66.8 267.7,66.3 268.1,67.0 269.3,66.8 270.1,66.4 270.9,66.0 271.5,65.6 271.7,64.9 271.4,64.2 272.0,63.8 272.6,63.4 273.5,63.2 274.5,62.5 275.2,62.5 276.0,62.5 276.2,61.9 276.5,61.0 277.0,60.1 277.5,59.7 278.5,59.3 279.2,59.6 279.7,59.6 280.5,59.4 281.6,59.2 282.5,59.4 282.7,58.9 282.9,58.2 283.6,57.5 284.1,57.2 284.5,56.5 284.8,55.9 285.5,55.3 286.5,54.7 287.5,54.7 287.9,54.2 288.4,53.7 289.7,54.3 290.3,55.0 291.3,55.3 292.6,55.5 294.5,56.2 295.3,56.2 296.1,55.4 296.9,54.3 298.3,53.6 299.6,53.2 300.3,52.8 300.8,52.5 301.5,53.1 301.8,53.8 302.2,54.3 302.7,54.5 303.2,54.1 303.3,54.9 302.7,55.1 302.1,55.3 301.5,56.0 301.5,57.0 302.1,57.2 302.6,56.8 303.2,56.3 304.3,56.1 304.4,56.8 304.8,57.5 305.4,58.1 305.5,58.7 304.0,60.1 303.1,60.7 303.3,61.8 304.0,61.7 305.3,61.2 305.9,61.2 306.6,61.5 307.3,62.1 308.7,62.4 309.3,62.2 309.8,61.9 310.9,62.5 311.5,63.2 311.8,63.8 311.6,64.4 312.2,65.3 309.9,67.1 309.3,67.4 308.3,68.2 307.9,68.8 308.0,69.9 308.6,70.8 309.1,71.3 310.3,72.7 309.4,73.1 308.9,72.8 308.1,72.5 307.6,71.7 307.3,71.1 306.6,70.8 305.6,70.8 304.5,71.3 304.0,71.3 302.2,71.5 301.5,71.7 301.0,71.9 300.5,72.3 300.1,72.8 299.7,73.4 299.1,73.8 298.5,73.9 297.3,74.8 296.9,75.4 296.3,75.5 295.8,75.8 295.4,76.4 294.9,76.7 293.8,77.0 292.8,77.2 292.1,78.4 292.1,79.8 292.2,80.5 292.5,81.4 293.0,81.9 292.7,82.6 292.2,83.1 291.7,84.2 291.5,85.0 290.5,86.3 289.7,87.0 289.2,87.0 288.6,87.4 287.9,88.8 287.8,89.3 288.2,89.8 288.7,89.9 289.2,90.9 288.6,92.5 288.2,93.4 287.2,94.7 285.9,96.8 285.5,97.5 285.1,98.5 284.9,99.3 284.7,99.9 284.1,101.3 283.6,101.0 283.0,100.7 282.2,100.4 281.6,100.5 281.0,100.4 280.1,99.9 279.5,99.9 278.7,100.3 278.2,100.2 277.8,99.7 277.3,99.2 276.9,100.1 277.4,101.3 277.7,102.6 277.8,103.4 277.6,105.0 277.3,105.6 277.5,106.5 277.1,108.1 276.7,108.6 276.2,108.6 275.7,108.2 275.3,109.1 275.1,109.8 275.0,110.4 274.9,111.2 275.1,112.8 275.3,113.3 275.7,114.1 275.8,114.6 275.8,115.2 275.5,115.7 275.0,115.6 274.2,116.4 274.0,117.0 273.4,117.4 272.9,117.0 272.4,116.5 271.7,116.0 271.5,116.6 271.3,117.1 270.7,117.5 270.5,116.8 270.6,116.2 270.4,114.6 270.0,112.6 269.9,111.2 268.7,109.3 268.5,107.2 268.6,106.6 268.6,105.8 268.2,104.7 268.0,103.7 267.9,102.7 267.2,102.6 266.4,102.7 265.7,103.1 265.2,102.6 264.9,103.1 265.1,103.6 265.1,104.3 264.8,104.8 264.1,105.1 263.7,105.7 263.4,106.2 263.6,107.0 263.8,107.9 263.5,108.4 262.0,109.2 261.5,108.7 261.0,107.3 260.8,106.8 260.2,106.4 260.0,106.9 260.1,107.5 260.2,108.1 259.7,107.8 259.5,107.1 259.3,106.1 259.2,105.5 258.9,104.8 258.5,104.3 258.1,103.3 258.1,102.5 258.6,102.1 258.9,101.5 258.8,100.9 259.0,100.3 260.0,99.1 260.9,99.2 261.5,99.3 263.3,98.7 264.3,98.7 264.8,97.7 264.7,97.1 265.3,97.3 266.4,96.7 266.5,95.8 266.9,95.3 267.6,93.6 267.7,93.0 267.5,92.3 268.4,92.3 268.9,92.7 269.5,92.5 269.6,91.9 269.1,91.6 268.9,91.1 268.3,90.6 267.1,90.1 266.4,89.8 265.8,89.7 264.8,89.7 263.2,89.9 261.0,90.1 259.4,89.7 258.9,89.5 258.2,89.6 257.6,89.6 257.0,89.7 256.5,89.9 255.6,90.0 253.2,89.9 252.6,89.8 252.1,89.9 251.4,90.0 249.5,89.5 248.4,89.1 247.7,88.8 247.2,88.7 246.7,88.8 246.4,88.2 246.5,87.6 246.7,86.8 246.8,86.3 246.8,85.8 246.4,84.2 246.5,83.7 246.5,82.6 246.1,81.9 245.8,81.3 245.3,81.2 244.9,80.7 244.2,81.2 244.5,81.8 244.1,82.5 242.3,82.5 241.5,82.1 240.5,81.3 240.1,80.0 240.0,79.3 238.9,78.8 238.5,79.4 239.1,79.7 239.7,80.2 238.1,80.5 237.0,80.1 236.7,79.2 235.9,78.5 234.4,77.8 234.3,77.2 233.5,78.4 234.5,78.5 235.1,79.1 234.1,79.8 233.7,80.3 233.1,80.9 232.2,81.3 231.5,83.4 231.6,84.1 232.2,84.5 232.8,84.2 234.5,85.5 234.5,86.1 235.5,86.9 236.3,87.1 236.8,87.1 237.6,86.9 237.9,87.6 238.0,88.1 238.7,88.6 239.3,88.6 238.9,89.8 238.4,89.8 236.8,89.6 236.3,89.6 234.9,89.6 234.6,90.1 234.7,90.6 234.1,91.8 233.6,92.5 233.0,92.3 232.6,91.8 231.9,92.0 232.1,92.6 231.0,94.0 231.6,95.5 232.6,95.9 233.1,96.1 233.8,96.4 234.7,97.1 235.2,97.3 236.3,97.5 236.9,97.6 237.2,98.1 236.7,98.7 236.7,99.2 237.2,99.7 237.0,100.7 236.2,101.1 235.7,102.0 235.5,103.0 237.2,104.6 237.1,105.7 236.8,106.3 237.6,106.8 239.1,106.8 238.6,107.6 238.1,108.7 238.7,109.8 239.2,113.9 239.3,114.6 239.5,115.1 239.9,115.7 240.1,116.2 239.7,116.8 239.9,117.3 239.9,117.9 239.4,118.2 240.1,120.3 239.5,120.9 238.6,120.6 238.1,120.6 237.5,121.3 236.9,121.2 236.6,120.2 236.7,118.8 236.8,118.0 237.3,117.4 236.6,118.0 236.1,117.9 236.4,117.3 236.2,116.6 236.5,116.0 236.0,116.5 236.1,117.0 235.9,117.9 235.6,118.5 235.5,119.0 236.1,119.4 235.9,120.8 235.3,121.5 234.9,121.0 235.2,120.4 235.3,118.9 235.1,118.1 234.7,119.3 234.7,120.1 234.6,120.7 233.3,120.9 233.3,120.1 233.2,119.4 233.2,120.1 233.3,121.1 232.4,120.8 232.2,120.3 232.4,119.8 232.4,119.1 232.0,118.6 231.9,117.8 232.2,117.3 232.5,116.7 232.4,116.2 231.3,115.6 230.7,115.4 230.3,114.8 230.2,114.3 230.1,113.7 230.1,115.0 230.5,115.5 231.3,115.8 231.8,115.8 232.2,116.4 231.7,117.0 231.0,117.8 230.6,118.6 229.5,119.6 228.9,120.0 227.9,120.5 226.5,120.7 225.8,120.8 224.8,121.2 223.8,121.3 223.0,121.6 222.3,122.1 221.6,122.8 220.9,123.6 220.6,124.2 220.5,124.8 220.9,126.3 221.5,127.4 221.6,128.0 221.0,128.2 221.4,128.7 222.2,128.9 220.8,129.8 220.2,130.1 219.6,130.8 219.5,131.3 220.2,131.0 219.9,131.9 218.9,132.7 218.0,133.0 217.5,133.3 217.0,134.9 216.0,134.5 215.0,134.1 215.8,134.7 216.3,135.0 215.7,135.5 214.6,135.9 213.4,136.3 212.9,136.4 212.1,136.5 211.0,136.9 210.1,137.2 208.8,137.7 208.2,137.4 208.8,137.2 209.3,137.1 209.4,136.5 209.2,135.8 208.5,135.6 207.6,136.3 206.6,137.0 206.3,137.5 206.0,138.0 205.7,138.7 206.6,138.3 207.2,137.9 207.8,137.7 207.7,138.3 207.1,138.3 206.9,138.8 206.1,139.3 205.4,139.9 203.5,141.5 203.1,142.0 202.6,142.5 202.1,143.5 201.6,144.1 200.2,145.8 198.9,147.2 198.4,147.8 197.0,149.2 196.6,149.8 195.7,150.2 194.9,150.5 193.9,151.0 192.3,151.9 191.7,152.8 190.5,154.2 189.2,155.7 188.6,156.1 187.3,156.6 186.2,157.3 185.5,157.5 183.8,158.3 183.3,158.7 182.6,159.1 181.7,160.0 181.1,160.6 180.6,161.6 180.8,162.1 181.6,162.4 181.5,163.4 181.1,164.5 180.2,165.1 179.2,165.6 178.4,166.0 176.5,166.7 175.5,166.6 174.8,166.6 174.1,166.5 173.5,166.4 172.8,166.3 172.1,166.7 171.2,169.0 171.1,169.8 170.2,170.5 169.8,171.0 169.0,170.9 169.0,170.1 169.0,169.5 168.9,170.2 168.3,171.7 168.2,171.1 167.8,170.6 167.0,170.4 166.0,170.6 164.5,171.4 164.0,171.7 163.4,172.3 163.1,172.9 162.9,173.6 162.3,174.8 161.9,175.4 161.6,177.2 161.5,177.8 161.9,179.6 162.0,180.3 162.3,181.0 162.7,181.7 162.6,183.8 162.3,184.6 162.2,185.2 162.3,186.0 162.4,186.6 162.7,187.3 163.0,188.1 163.2,188.6 163.1,189.2 163.1,189.7 163.4,190.8 163.8,191.6 163.3,190.6 162.4,189.4 161.9,189.6 161.5,190.2 161.8,190.9 163.0,191.4 163.8,192.0 164.1,192.6 163.9,194.1 163.5,195.2 163.4,196.0 163.4,196.8 163.3,197.5 163.1,198.5 162.5,200.2 162.0,201.0 161.4,201.9 160.9,202.5 160.5,203.1 160.0,203.9 159.9,204.4 159.6,205.2 159.4,205.8 159.2,206.3 159.1,207.2 158.9,208.1 159.2,209.3 159.6,210.0 159.8,211.7 159.8,212.2 159.8,213.0 159.7,213.5 159.8,214.3 159.8,215.0 159.8,216.7 159.9,218.2 159.9,219.2 159.4,219.4 158.8,219.1 158.3,219.0 158.9,219.3 157.3,219.1 156.7,219.0 155.9,218.9 155.3,219.2 154.7,219.8 154.5,220.4 154.5,220.9 154.6,221.6 154.1,222.1 153.6,222.8 152.7,223.9 152.2,224.6 151.9,225.2 151.6,226.2 151.9,226.8 152.5,227.5 153.1,227.7 154.2,227.9 155.3,228.1 156.2,228.9 155.7,228.7 155.0,228.3 154.3,228.2 152.4,228.0 151.3,228.2 150.8,228.4 149.5,228.9 147.7,229.4 147.2,229.6 145.7,230.7 145.4,231.2 144.9,233.7 144.9,234.9 144.3,235.9 143.7,236.1 141.9,237.4 140.7,237.8 140.1,237.9 139.7,238.5 139.0,238.4 137.6,237.9 137.0,237.5 136.4,237.0 135.8,236.5 135.0,235.9 133.6,234.3 132.1,232.3 131.3,231.5 131.3,230.9 131.9,230.7 131.2,230.5 130.2,229.2 129.8,228.2 129.3,227.1 129.1,226.4 128.9,225.7 128.8,224.5 128.6,223.2 128.5,222.6 128.4,222.0 128.8,222.6 128.8,223.2 129.2,223.7 129.7,224.8 129.4,225.7 130.4,226.1 130.0,225.2 129.9,224.5 129.8,223.3 129.5,222.5 128.4,220.8 128.4,221.6 127.9,221.0 127.8,220.1 127.0,218.2 126.5,217.0 125.7,215.1 125.4,214.4 125.1,213.2 123.9,209.8 123.6,209.2 123.1,209.0 122.7,208.3 122.5,207.6 122.2,206.9 120.9,205.5 120.0,204.3 119.4,204.3 119.2,203.7 118.7,202.5 117.8,200.8 117.0,199.0 116.6,198.1 116.2,197.0 115.7,195.1 115.3,193.3 114.8,191.2 114.8,190.3 114.3,188.4 113.9,187.5 113.3,186.5 113.1,185.8 112.9,184.8 112.4,183.8 112.2,183.0 112.2,182.2 111.6,182.5 111.4,181.7 111.3,181.1 110.9,180.5 109.8,180.1 109.8,179.4 108.6,177.7 108.5,176.8 108.1,175.6 107.3,175.0 108.2,174.8 107.6,174.4 106.9,174.0 106.2,172.2 105.9,171.5 105.6,170.7 105.0,170.1 104.5,169.6 104.1,169.1 103.8,167.5 103.2,165.8 103.2,165.1 103.0,164.3 102.6,162.1 102.4,160.9 102.6,160.3 102.5,159.6 102.0,157.7 101.9,157.0 101.4,155.6 101.1,154.9 101.2,154.2 100.7,153.2 100.3,152.3 100.0,150.6 100.0,149.5 99.5,148.9 99.3,148.4 99.4,147.7 99.0,146.4 99.0,145.7 99.6,145.0 100.1,145.8 100.2,145.3 99.8,144.8 99.5,144.2 100.0,143.9 100.7,143.5 100.0,142.8 99.3,143.5 98.7,144.2 98.5,143.6 98.7,143.0 98.7,142.0 98.2,141.5 98.3,140.8 98.9,140.7 100.2,141.2 99.2,140.7 98.6,140.6 97.7,138.4 97.7,137.4 97.6,136.8 97.3,135.9 97.6,135.0 97.9,133.9 98.0,132.9 98.1,132.2 98.5,131.7 98.8,131.0 99.2,130.4 99.7,128.2 99.6,127.7 98.9,127.5 98.9,126.9 98.9,125.8 98.6,125.1 98.1,125.1 97.0,125.4 97.5,124.7 97.2,123.8 96.5,122.9 97.3,122.5 98.1,122.2 97.5,122.1 96.8,122.5 96.9,121.9 98.6,120.6 99.1,120.6 101.2,119.7 100.6,119.8 100.0,120.1 98.4,120.3 97.0,120.1 96.4,120.3 96.3,119.7 96.4,119.1 97.0,118.1 97.5,118.0 97.9,117.5 97.0,117.7 96.4,118.2 95.9,117.7 96.1,116.7 96.4,115.8 97.0,115.6 97.6,115.9 98.1,115.9 98.5,115.4 99.1,115.4 99.6,115.4 98.7,115.0 97.4,115.1 96.7,114.9 96.0,115.2 95.0,115.3 93.7,114.8 92.9,114.9 93.8,115.4 94.4,115.9 94.2,116.7 93.9,117.3 93.1,117.7 91.9,117.8 92.4,118.1 93.0,118.8 92.4,118.9 91.8,118.8 91.7,119.4 92.2,119.3 93.0,119.2 93.4,119.7 94.1,120.8 93.7,121.9 93.2,122.5 92.5,123.4 92.4,123.9 92.0,124.7 89.8,125.7 87.8,126.3 87.1,126.9 86.1,127.4 84.8,127.8 84.0,128.2 82.6,128.7 81.4,128.7 80.4,128.4 79.2,127.9 78.7,127.7 77.0,126.7 75.9,125.8 74.7,124.8 73.3,123.3 72.7,122.5 71.1,120.9 70.6,120.6 69.3,119.4 68.4,118.6 67.5,117.9 66.5,116.9 65.6,115.9 65.2,115.2 65.0,114.6 65.2,114.0 66.1,113.2 66.8,113.9 66.9,114.6 67.6,115.0 69.5,114.5 71.6,113.9 73.0,113.4 73.7,113.0 74.2,112.7 75.0,112.6 75.5,112.7 76.0,112.0 77.0,110.3 77.4,109.7 78.0,109.0 78.5,109.0 78.8,108.4 78.6,107.9 77.8,107.9 77.7,108.5 77.6,109.2 77.1,109.3 76.1,109.1 72.9,109.9 72.0,110.4 71.7,110.9 69.0,110.4 67.8,110.2 66.8,109.8 66.0,109.3 65.2,108.9 64.6,108.7 63.3,107.9 62.6,107.5 61.5,106.4 60.6,105.0 60.3,104.3 60.3,103.5 62.1,102.2 63.1,101.6 62.1,101.7 60.7,102.4 60.1,102.8 59.9,103.4 59.0,103.7 58.4,103.6 58.5,103.0 58.5,102.0 58.6,101.4 59.2,100.6 60.0,100.3 62.3,100.3 62.8,100.3 63.3,99.6 63.3,97.4 63.9,97.1 64.8,97.2 65.2,97.7 66.1,97.5 67.7,97.6 68.8,97.5 70.2,97.5 71.1,97.9 71.8,98.5 74.2,98.5 74.8,98.3 75.2,97.4 75.7,97.3 76.4,97.1 77.0,96.8 77.8,96.5 79.0,96.2 79.2,97.2 79.6,97.8 80.8,98.0 81.8,97.7 82.2,96.9 82.8,96.8 83.7,96.5 83.2,96.0 82.7,95.2 82.7,94.6 83.5,94.1 82.8,92.6 82.4,91.9 82.1,91.0 81.9,90.3 81.6,89.7 81.1,89.3 80.1,87.9 80.0,86.6 80.0,86.1 80.1,85.5 79.5,85.1 78.9,85.4 77.5,85.5 76.9,85.3 75.3,83.5 75.0,82.8 75.0,81.9 75.4,81.2 75.6,80.7 75.8,79.4 75.8,78.2 75.4,77.7 74.8,77.4 73.7,77.5 72.8,77.5 72.2,77.3 71.5,76.7 71.0,76.5 70.5,76.3 69.9,76.1 69.7,75.6 69.9,74.0 70.5,72.4 71.5,71.5 72.1,71.3 73.0,70.4 74.4,68.8 74.7,68.1 75.1,67.1 75.9,66.2 77.3,65.1 78.3,64.9 79.0,65.1 79.8,65.7 79.9,66.3 80.5,67.5 81.2,67.8 81.7,67.8 82.3,67.7 82.8,67.4 83.4,67.2 84.2,66.8 84.8,66.6 85.9,66.4 86.7,66.4 87.4,66.4 88.2,66.3 88.9,66.2 90.7,65.6 90.8,64.2 91.5,63.4 92.3,62.8 93.4,61.7 93.8,60.4 94.1,59.5 94.9,58.4 96.4,57.8 97.1,57.4 97.9,57.0 98.8,56.6 99.8,56.2 100.2,55.3 100.7,54.7 102.6,51.7 103.1,50.1 103.7,48.4 105.2,47.7 106.1,47.5 107.2,47.2 108.4,46.7 108.7,46.1 108.5,45.4 108.1,44.9 108.9,43.5 109.4,42.7 109.9,42.2 110.5,41.8 111.1,41.2 111.6,40.5 112.2,40.1 113.8,39.2 114.7,38.8 115.1,38.3 114.4,38.1 113.8,38.5 113.5,37.6 113.7,36.1 114.2,35.6 114.0,34.1 113.6,33.5 113.2,32.9 114.1,31.7 114.8,31.2 115.4,31.0 116.3,30.5 117.1,29.9 117.6,30.2 119.3,29.8 119.9,29.7 120.9,28.6 120.7,28.1 120.4,27.5 119.7,27.0 118.2,26.4 117.7,26.4 116.8,26.5 115.4,26.4 114.9,26.1 114.6,25.5 114.8,24.4 114.6,23.7 113.6,24.0 112.2,23.8 112.0,23.1 111.9,22.0 111.4,21.6 110.7,21.5 109.3,20.4 109.0,19.8 109.4,19.3 110.0,18.9 110.5,17.6 110.4,17.0 109.7,16.5 109.1,16.3 108.8,15.7 108.9,15.1 109.3,14.6 110.0,14.5 110.6,14.3 111.2,14.0 111.5,13.3 109.7,12.9 109.2,12.9 108.6,12.9 108.1,12.4 108.6,11.8 109.1,11.6 108.8,10.6 108.3,10.4 107.7,10.3 107.2,9.7 107.9,8.6 108.4,7.7 109.5,7.1 110.1,7.1 110.7,6.7 111.5,6.4 112.0,6.3 112.8,6.4 113.4,6.6 114.5,6.9 118.2,7.6 118.8,7.7 119.7,7.6 120.6,8.1 123.2,8.7 124.5,8.7 125.0,8.4 125.7,7.8 126.5,7.6 127.1,7.7 127.7,8.0 128.2,7.8 128.8,7.1 130.0,6.5 130.7,6.4 132.0,6.6 132.6,6.6 133.2,7.2 133.7,7.4 134.3,7.2 134.6,6.3 134.6,5.7 135.2,4.6 135.6,4.0 137.1,2.6 137.9,2.2 138.5,1.9 139.9,1.2 141.8,0.3 142.4,0.3 143.0,0.6 143.6,0.1 144.1,0.0 144.4,0.5 " />
    <polygon id="India" points="231.4,118.7 231.5,117.9 231.7,118.4 " />
    <polygon id="India" points="236.3,118.9 235.7,119.1 235.9,118.5 236.5,118.2 236.3,118.7 " />
    <polygon id="India" points="231.8,120.7 231.2,120.6 231.1,119.8 231.4,119.0 232.0,118.8 232.1,119.3 232.1,119.8 231.8,120.7 " />
    <polygon id="India" points="97.8,120.8 97.3,120.9 97.9,120.3 97.8,120.8 " />
    <polygon id="India" points="238.4,121.5 237.9,121.4 237.9,120.8 238.4,121.1 " />
    <polygon id="India" points="215.7,134.5 " />
    <polygon id="India" points="181.7,162.0 " />
    <polygon id="India" points="169.3,171.8 168.7,171.3 169.5,171.3 169.3,171.8 " />
    <polygon id="India" points="274.5,190.1 274.0,189.9 274.5,190.1 " />
    <polygon id="India" points="274.7,193.6 274.5,195.0 274.0,195.4 273.0,196.4 272.5,196.5 272.4,195.3 272.6,194.2 272.7,192.8 273.2,191.9 273.6,190.9 274.1,190.7 274.8,192.2 274.7,193.6 " />
    <polygon id="India" points="285.2,192.0 " />
    <polygon id="India" points="273.0,192.2 " />
    <polygon id="India" points="271.4,197.4 271.2,196.9 271.4,196.0 271.8,196.6 271.4,197.4 " />
    <polygon id="India" points="273.5,196.4 274.0,198.1 274.0,199.8 273.6,200.7 272.8,200.6 273.0,201.1 273.0,201.7 272.5,201.6 271.8,201.6 271.6,200.7 271.9,198.4 271.8,197.4 272.5,196.5 273.0,196.6 " />
    <polygon id="India" points="273.3,201.0 " />
    <polygon id="India" points="272.6,201.6 273.2,201.8 272.9,202.9 272.4,203.5 272.1,202.9 272.1,202.1 272.2,201.6 " />
    <polygon id="India" points="272.2,201.8 " />
    <polygon id="India" points="281.6,202.1 " />
    <polygon id="India" points="271.6,202.7 271.9,203.5 272.3,205.0 272.0,207.7 271.7,208.6 271.2,208.4 270.8,207.8 270.0,205.6 270.2,205.1 270.8,204.8 271.0,203.9 271.0,203.3 271.2,202.5 " />
    <polygon id="India" points="274.9,203.6 274.6,202.9 275.0,203.5 " />
    <polygon id="India" points="275.3,203.2 " />
    <polygon id="India" points="274.6,205.3 273.6,204.5 274.1,204.0 274.4,204.5 274.6,205.1 " />
    <polygon id="India" points="97.8,207.0 " />
    <polygon id="India" points="267.8,208.5 267.3,207.9 267.8,208.0 267.8,208.5 " />
    <polygon id="India" points="270.9,209.9 270.8,208.8 271.4,209.0 271.5,209.7 270.9,209.9 " />
    <polygon id="India" points="100.3,208.9 " />
    <polygon id="India" points="98.3,211.4 98.4,210.9 98.3,211.4 " />
    <polygon id="India" points="92.5,211.3 " />
    <polygon id="India" points="98.1,212.1 " />
    <polygon id="India" points="94.2,213.6 " />
    <polygon id="India" points="269.7,217.2 268.6,217.0 268.4,215.7 268.5,215.0 269.2,214.2 269.7,213.9 270.3,215.0 270.4,215.5 270.1,216.7 269.7,217.2 " />
    <polygon id="India" points="93.1,214.6 " />
    <polygon id="India" points="106.2,214.6 " />
    <polygon id="India" points="97.1,216.9 " />
    <polygon id="India" points="105.8,221.3 " />
    <polygon id="India" points="272.1,229.3 271.6,229.2 271.6,228.6 272.2,228.3 272.5,228.9 " />
    <polygon id="India" points="279.4,235.4 279.3,234.4 279.6,235.0 " />
    <polygon id="India" points="275.6,237.3 275.0,237.2 274.6,236.6 274.7,236.1 275.0,236.8 275.6,237.2 " />
    <polygon id="India" points="100.5,237.0 100.9,236.4 100.6,236.9 " />
    <polygon id="India" points="278.3,239.2 278.0,237.9 278.2,237.3 278.6,238.1 278.8,238.7 " />
    <polygon id="India" points="278.1,240.2 277.2,240.2 276.8,239.6 276.9,239.1 277.4,238.9 278.0,239.6 278.1,240.1 " />
    <polygon id="India" points="279.1,239.7 278.6,239.4 279.1,239.4 " />
    <polygon id="India" points="279.7,245.6 279.3,245.1 279.5,244.6 280.0,244.4 280.4,244.9 279.7,245.6 " />
    <polygon id="India" points="279.9,244.3 " />
    <polygon id="India" points="282.0,247.5 282.2,248.2 281.9,249.4 281.3,250.0 280.9,249.2 280.8,248.7 280.3,247.9 279.8,247.6 279.7,247.0 279.9,246.2 281.0,245.8 281.5,246.0 281.8,246.6 282.0,247.5 " />
  </g>
</svg>