<?xml version="1.0" encoding="UTF-8" standalone="yes"?>
<!DOCTYPE svg PUBLIC "-//W3C//DTD SVG 1.0//EN" "http://www.w3.org/TR/2001/REC-SVG-20010904/DTD/svg10.dtd">
<svg height="250" width="370" xmlns="http://www.w3.org/2000/svg" xmlns:svg="http://www.w3.org/2000/svg" xmlns:xlink="http://www.w3.org/1999/xlink">


<g id="background">
<rect id="" width="370" height="250" fill="#222222"/>
</g>
  <g id="360" style="stroke-miterlimit: 3; fill: #F1F1F1; stroke: #000000; stroke-opacity: 1; stroke-width: 0.05; stroke-linejoin: bevel; stroke-linecap: square">
    <polygon id="Indonesia" points="2.7,58.6 2.2,58.5 1.7,57.8 2.6,57.6 3.0,58.3 " />
    <polygon id="Indonesia" points="0.9,59.5 0.0,59.0 0.5,58.9 1.0,59.4 " />
    <polygon id="Indonesia" points="1.2,60.1 1.0,59.6 1.2,60.1 " />
    <polygon id="Indonesia" points="5.9,60.2 6.6,60.6 7.1,61.1 7.7,61.8 8.5,62.4 10.8,63.1 11.3,63.1 12.5,63.2 13.2,63.1 13.8,62.9 14.5,62.6 15.9,62.7 16.4,62.7 17.0,63.0 17.3,63.5 18.0,63.6 19.1,63.2 19.6,63.0 20.2,62.9 20.7,63.5 21.1,64.0 22.3,65.0 23.3,65.7 23.6,66.3 23.8,66.8 23.9,67.3 24.2,68.5 25.0,68.6 25.6,69.0 26.3,69.4 26.4,70.1 26.2,71.4 27.2,72.2 27.8,72.5 28.4,72.8 29.1,73.5 29.7,74.2 30.4,75.0 31.2,75.4 31.8,75.6 32.7,75.9 33.7,76.5 36.4,78.8 37.1,79.2 38.3,79.8 39.4,80.9 39.9,81.3 40.1,82.3 40.0,82.8 39.8,83.4 40.2,84.2 40.3,83.6 40.8,83.4 40.8,83.9 40.9,84.4 41.1,83.8 41.5,83.3 42.1,83.7 42.4,84.3 43.0,85.5 43.2,86.0 43.4,86.6 43.9,87.1 44.6,87.7 45.2,88.0 45.7,88.1 46.8,88.8 47.2,89.3 47.3,89.9 47.6,90.4 47.3,88.8 46.8,88.1 46.6,87.6 46.7,87.0 47.3,86.6 48.6,86.7 48.7,87.2 49.8,88.0 50.3,88.4 50.8,89.0 50.8,89.5 51.1,90.6 51.4,91.2 52.5,91.8 53.1,91.8 53.7,91.6 54.3,91.8 55.2,92.6 56.1,93.3 56.7,93.7 57.2,94.0 57.8,95.4 57.8,96.0 57.8,96.6 58.0,97.1 59.6,98.6 60.2,99.0 60.8,99.2 62.0,99.1 63.2,99.2 63.7,99.5 64.6,100.5 65.0,101.1 64.9,101.6 63.9,102.1 62.5,102.8 61.0,103.6 60.5,103.5 59.7,103.1 60.5,103.7 61.0,103.9 61.5,103.4 62.6,103.1 63.3,103.0 65.5,101.9 65.9,101.3 67.0,100.8 67.5,100.9 68.1,101.2 70.2,102.7 70.4,103.3 70.5,103.8 70.7,104.7 70.7,105.2 69.7,105.3 69.1,105.3 69.0,105.9 67.8,106.7 67.0,107.0 66.5,107.2 67.0,107.2 67.7,107.0 68.2,106.8 67.9,107.7 67.0,108.0 67.8,108.1 68.9,108.4 68.5,109.1 67.6,109.7 67.2,110.7 67.7,111.1 68.7,112.1 69.5,112.7 70.2,113.1 71.1,113.4 71.7,113.0 73.2,113.3 74.1,113.7 75.1,113.3 75.6,114.2 75.5,114.7 75.6,115.2 76.0,115.8 76.0,116.4 76.0,117.2 76.0,117.7 76.3,118.3 76.6,118.9 76.7,119.4 76.2,120.1 76.3,120.6 76.6,120.1 77.3,120.4 78.4,121.2 78.9,121.3 79.3,121.8 79.4,122.4 78.2,124.3 78.2,124.9 78.1,125.7 77.6,126.0 77.0,126.4 76.7,126.9 77.2,126.5 77.9,126.1 78.5,125.2 78.6,124.4 79.2,123.6 80.3,123.8 81.2,124.2 81.7,124.1 82.3,123.9 82.9,124.2 84.6,124.4 85.2,124.3 85.4,124.9 85.2,125.5 85.3,126.0 85.9,126.6 86.4,126.7 86.7,127.4 86.7,128.0 87.0,128.5 87.5,128.9 88.1,128.8 88.6,129.1 89.0,131.0 88.6,131.5 88.0,132.0 87.6,132.5 87.0,134.4 86.9,134.9 87.8,135.6 88.1,136.1 87.6,137.0 87.3,137.6 87.1,138.4 86.9,138.9 86.9,139.5 87.3,140.4 87.6,140.9 87.6,141.7 87.6,142.7 87.3,143.5 87.4,144.2 87.4,145.3 87.3,146.5 86.9,149.6 87.1,150.1 86.8,151.5 86.3,152.5 85.4,151.9 83.1,149.4 82.7,148.9 81.8,150.0 81.9,150.8 82.1,151.4 81.5,151.7 80.8,151.3 80.2,151.0 79.5,150.7 78.6,150.2 78.1,149.6 77.3,149.3 76.8,149.3 76.7,150.0 77.1,150.6 77.8,151.7 78.1,152.7 77.4,152.8 76.8,152.8 76.7,152.1 75.9,151.4 75.1,150.7 74.8,150.1 74.2,149.5 73.1,148.8 72.4,148.0 72.3,147.4 71.6,146.3 70.1,145.0 69.3,144.8 68.7,144.6 67.8,144.2 67.1,143.6 66.6,143.1 65.3,142.1 64.7,141.6 63.3,140.6 62.1,139.6 61.4,139.1 60.7,138.6 59.9,138.0 59.0,137.4 58.5,136.7 58.4,135.7 58.2,134.7 57.1,133.9 56.2,133.3 55.2,132.6 53.5,131.4 52.1,129.7 51.5,128.3 50.8,127.1 50.3,126.6 49.7,126.4 49.1,126.0 48.4,125.2 47.5,123.9 46.9,122.7 47.1,122.0 47.2,121.2 47.1,120.7 46.1,119.0 45.7,118.5 45.0,117.1 44.8,116.5 44.7,115.8 43.7,115.1 43.2,114.0 43.2,113.5 42.9,112.1 42.5,111.6 41.9,110.9 41.2,110.3 40.9,109.7 40.6,109.2 39.5,108.3 38.7,107.6 38.2,106.4 38.3,105.9 38.1,105.4 37.4,104.7 36.9,104.2 34.9,103.2 34.4,103.3 33.5,103.2 33.4,102.5 33.1,102.0 33.1,101.0 32.9,100.4 32.4,98.8 31.8,97.5 31.1,95.6 30.8,94.5 30.4,93.7 29.9,92.9 30.7,92.0 30.3,91.0 29.8,90.8 28.5,89.8 27.7,89.2 26.0,88.3 25.2,87.7 24.4,87.3 23.7,86.8 23.1,87.1 22.2,86.9 21.3,85.8 21.2,85.1 21.3,84.2 21.2,83.2 21.0,82.7 20.9,82.1 20.3,81.9 19.6,81.6 19.1,81.2 18.6,80.5 18.4,80.0 18.3,79.5 17.7,79.0 16.6,77.7 16.3,77.1 15.1,75.5 14.4,75.0 13.8,74.9 13.1,74.9 12.6,75.0 11.9,74.8 11.3,74.2 10.8,73.6 10.4,72.9 9.5,72.0 8.7,71.5 8.1,71.2 7.5,70.6 6.6,69.5 5.3,68.3 4.7,67.8 3.3,66.1 2.2,63.9 1.8,62.6 2.0,61.7 1.7,61.0 1.8,60.3 2.7,60.0 3.2,59.6 4.7,59.8 5.9,60.2 " />
    <polygon id="Indonesia" points="104.2,67.5 104.5,66.7 104.5,67.3 " />
    <polygon id="Indonesia" points="245.2,67.0 " />
    <polygon id="Indonesia" points="255.4,73.0 254.8,72.3 255.6,71.2 255.1,70.8 254.9,70.3 255.1,68.9 255.8,68.7 256.7,70.7 256.3,71.2 255.8,72.5 " />
    <polygon id="Indonesia" points="169.2,70.7 170.0,70.2 171.4,70.0 172.3,70.4 173.1,70.4 174.0,70.2 175.6,70.3 176.2,70.1 177.2,70.2 178.3,70.2 178.8,70.0 180.1,70.8 180.5,71.4 181.1,71.5 181.7,71.5 180.9,71.9 180.1,71.7 180.7,72.3 181.3,72.7 181.9,73.3 181.4,73.4 181.9,73.9 182.5,73.9 183.2,74.6 183.6,75.1 183.0,75.8 181.0,76.0 179.8,75.8 178.3,75.7 177.5,75.8 178.5,76.0 178.5,76.5 178.8,77.0 179.5,77.4 180.1,77.4 180.4,78.0 179.8,78.7 179.2,78.8 179.7,79.5 180.6,79.7 181.8,80.2 182.4,81.2 182.3,82.0 182.3,82.6 183.0,82.7 183.3,83.5 183.5,84.0 184.0,84.5 184.5,85.1 185.4,86.0 185.7,86.5 185.6,87.0 184.5,88.1 183.7,88.2 183.9,88.7 183.8,89.7 184.3,90.4 185.4,91.2 185.9,91.7 187.1,92.5 188.3,93.2 188.6,93.8 189.2,94.1 189.7,94.2 190.7,95.0 191.2,95.5 191.7,96.3 192.2,96.5 192.9,96.6 193.1,97.2 192.5,97.8 191.5,98.6 190.9,98.5 190.4,98.3 189.0,98.4 187.7,98.3 186.4,98.1 185.8,97.9 185.2,97.3 184.9,96.6 184.2,96.0 184.4,96.8 184.8,97.6 185.2,98.2 185.1,98.7 184.6,98.6 183.6,98.5 182.9,99.1 182.7,99.7 181.9,101.6 181.4,102.0 181.1,102.7 180.8,103.7 180.7,104.2 180.9,104.8 181.2,105.4 180.8,105.9 180.6,106.4 180.4,107.0 180.6,107.8 180.6,108.6 180.4,109.3 181.0,109.0 181.7,108.5 181.5,110.2 181.8,111.0 180.5,112.0 179.6,112.0 179.0,111.7 178.3,112.8 177.9,113.4 177.5,114.0 177.1,114.7 176.3,115.2 175.5,115.4 174.8,114.0 175.0,113.4 174.6,114.0 174.8,114.5 175.2,115.1 175.0,115.9 174.4,116.3 173.8,116.5 173.2,116.9 173.2,117.5 173.3,118.1 172.1,118.6 171.3,119.0 170.7,119.4 171.3,119.6 171.9,119.3 172.4,119.4 172.6,120.4 172.5,121.5 171.8,121.9 172.1,122.9 172.8,122.6 173.7,122.7 173.7,123.3 173.4,124.1 173.3,124.7 173.2,125.2 172.7,125.7 172.4,125.2 171.3,125.3 171.2,126.1 171.8,126.5 171.9,127.8 171.7,128.4 171.2,129.0 170.7,129.3 170.6,128.7 170.1,127.8 169.7,128.6 170.3,129.7 170.6,130.4 169.7,131.3 168.9,132.7 168.9,133.3 168.8,133.8 168.1,134.2 167.6,134.3 167.0,134.8 165.2,135.6 163.9,136.1 163.1,136.4 162.2,136.8 161.0,137.3 160.3,137.6 159.2,138.2 158.5,138.7 157.9,138.8 157.7,137.9 157.6,136.5 157.6,135.0 157.5,134.3 157.0,133.5 156.5,133.3 155.8,132.9 155.2,132.7 154.5,132.3 153.6,132.1 153.0,132.1 151.7,132.8 151.0,133.0 150.2,133.1 149.7,132.8 149.8,132.1 149.9,131.3 149.7,130.7 148.8,130.6 148.3,131.0 147.7,131.3 147.2,131.1 146.7,130.7 145.8,129.8 145.2,129.2 144.5,129.6 144.3,130.1 144.3,130.9 143.4,131.4 142.8,131.8 142.3,132.2 141.1,132.8 140.5,132.4 139.6,131.9 139.1,131.7 138.5,131.8 138.0,132.0 137.3,132.6 136.4,133.5 135.9,133.8 135.1,133.6 135.3,132.9 135.4,132.3 135.3,131.7 135.2,130.8 135.2,130.3 135.3,129.8 135.2,129.2 134.8,128.6 134.5,127.7 134.7,127.2 134.1,128.3 134.2,128.8 133.4,129.3 132.8,129.1 132.3,128.7 131.3,128.6 130.5,128.9 130.0,129.2 129.2,129.7 128.3,130.0 126.7,129.5 126.9,129.0 127.6,128.7 128.3,128.4 127.0,128.7 126.5,129.4 126.0,129.9 125.8,129.4 125.6,128.6 125.0,128.2 124.5,128.3 123.5,128.8 122.9,129.3 122.2,128.4 122.6,127.8 122.4,126.9 122.2,125.3 121.7,123.6 121.4,123.0 121.4,122.4 121.6,121.9 121.5,121.3 121.3,120.7 120.6,120.3 120.1,120.1 119.8,119.5 120.4,119.1 120.8,118.4 121.1,116.9 121.2,116.3 121.1,115.8 119.9,114.6 119.6,113.9 118.4,112.8 117.8,112.9 117.3,112.4 116.3,111.9 115.8,112.4 114.9,112.1 114.5,110.8 116.3,111.1 115.9,110.0 115.4,109.8 114.9,109.8 113.9,109.6 113.3,108.3 112.9,107.2 113.5,106.7 114.1,106.7 114.1,106.2 114.0,104.8 113.9,104.2 113.5,103.4 113.1,102.9 112.4,102.7 111.9,102.6 112.0,102.0 112.0,100.2 111.7,99.0 111.3,98.5 111.8,98.1 112.4,97.5 112.4,97.0 112.2,95.6 113.1,95.4 113.8,95.0 114.7,93.9 113.9,94.4 113.6,95.0 113.0,95.3 112.4,95.3 112.6,94.8 113.0,94.2 113.1,93.6 113.0,93.1 113.3,92.5 113.8,92.2 114.4,91.9 114.8,91.3 115.2,90.7 115.3,89.9 116.1,89.4 117.1,89.1 117.8,88.4 117.0,89.7 117.1,90.3 117.9,91.4 117.9,92.0 118.4,92.6 119.2,93.3 120.0,93.8 120.4,94.5 121.2,95.3 121.7,95.5 123.3,97.0 124.3,97.8 124.8,98.1 125.4,98.2 126.2,98.0 127.1,97.8 127.7,97.0 128.6,96.9 130.2,96.5 130.7,96.5 131.8,96.9 133.2,97.0 133.7,96.8 134.3,96.8 135.1,97.1 135.6,96.8 136.2,96.0 137.0,96.0 137.6,95.9 138.4,94.0 138.3,93.4 139.2,93.0 140.5,92.5 142.1,92.5 143.8,92.3 144.5,92.4 145.2,92.7 145.7,93.6 147.5,94.1 148.4,94.7 149.4,94.8 150.0,95.2 151.0,94.6 151.7,94.0 152.1,93.5 152.7,93.4 153.4,93.3 154.6,93.5 155.9,93.0 156.4,93.1 157.1,93.5 158.2,91.9 158.5,90.8 159.1,90.1 159.6,89.8 159.8,88.9 159.2,88.5 159.0,87.8 159.1,87.3 159.8,86.7 160.3,86.7 160.8,86.1 161.5,85.6 162.3,85.1 162.4,84.3 161.9,84.1 161.8,82.1 162.0,81.6 162.8,80.9 163.3,81.0 163.9,81.0 164.7,80.7 165.1,79.5 165.1,78.5 165.3,77.9 165.8,77.6 165.7,76.6 165.4,76.0 165.4,75.3 165.8,74.1 166.1,72.3 166.3,71.6 166.9,71.0 167.6,70.3 168.7,70.1 169.2,70.6 " />
    <polygon id="Indonesia" points="106.0,75.7 105.4,75.5 105.5,75.0 106.1,74.5 105.0,74.1 104.5,73.2 104.4,72.7 104.9,72.3 105.8,71.5 106.5,71.5 106.7,72.0 107.4,72.8 107.8,73.9 107.6,74.5 107.1,75.4 106.0,75.7 " />
    <polygon id="Indonesia" points="184.0,72.7 183.5,72.4 182.6,71.7 183.7,71.5 184.2,71.5 184.4,72.4 " />
    <polygon id="Indonesia" points="182.4,73.1 181.8,72.8 181.7,72.2 182.2,71.8 182.9,72.3 182.8,72.9 " />
    <polygon id="Indonesia" points="255.0,74.5 254.2,73.1 254.1,72.6 255.1,73.6 255.0,74.5 " />
    <polygon id="Indonesia" points="183.7,74.5 183.0,74.3 183.6,74.2 " />
    <polygon id="Indonesia" points="256.1,75.0 255.4,74.7 255.2,74.2 255.8,74.3 256.1,74.9 " />
    <polygon id="Indonesia" points="183.5,75.0 " />
    <polygon id="Indonesia" points="248.4,78.0 247.6,77.6 247.2,76.7 246.6,75.9 246.5,75.3 247.1,75.1 248.6,77.0 248.6,77.5 248.4,78.0 " />
    <polygon id="Indonesia" points="180.0,76.4 181.0,77.0 180.4,77.1 179.8,77.0 179.2,77.0 178.6,76.6 180.0,76.4 " />
    <polygon id="Indonesia" points="184.0,77.3 183.5,76.9 183.1,76.4 183.7,76.3 184.1,77.0 " />
    <polygon id="Indonesia" points="181.8,77.1 180.7,76.8 181.4,76.6 181.9,76.9 " />
    <polygon id="Indonesia" points="182.2,78.7 181.4,78.4 181.2,77.9 181.8,77.5 182.3,77.6 182.2,78.7 " />
    <polygon id="Indonesia" points="90.7,79.1 90.4,78.4 90.7,79.1 " />
    <polygon id="Indonesia" points="181.1,78.7 180.3,78.7 180.5,78.2 181.0,78.3 " />
    <polygon id="Indonesia" points="90.7,79.7 90.6,80.2 90.1,79.9 90.1,79.2 90.6,79.4 " />
    <polygon id="Indonesia" points="86.2,82.3 85.9,80.9 87.1,81.0 86.9,81.7 86.3,82.3 " />
    <polygon id="Indonesia" points="102.6,81.2 " />
    <polygon id="Indonesia" points="111.2,82.2 110.9,81.7 111.3,81.1 111.7,81.8 " />
    <polygon id="Indonesia" points="11.5,86.2 10.7,86.2 10.4,85.6 8.5,84.3 7.0,83.8 5.6,82.8 5.6,82.3 6.3,81.5 7.0,81.6 7.8,82.6 8.4,82.9 8.9,83.0 9.7,83.9 10.3,84.4 11.2,84.8 11.7,85.5 11.9,86.0 " />
    <polygon id="Indonesia" points="90.4,83.1 90.0,82.5 90.4,83.1 " />
    <polygon id="Indonesia" points="244.5,84.0 244.1,83.3 244.3,82.7 244.8,82.7 244.5,83.2 244.7,83.8 " />
    <polygon id="Indonesia" points="269.4,88.6 268.7,88.6 268.0,88.7 267.4,88.3 267.2,87.0 267.7,85.6 268.2,85.1 268.9,84.4 269.9,83.9 270.9,85.1 270.9,85.7 270.6,86.8 270.4,87.3 269.9,88.0 269.5,88.5 " />
    <polygon id="Indonesia" points="113.1,85.1 112.4,84.8 113.4,84.7 " />
    <polygon id="Indonesia" points="266.7,86.7 266.3,86.2 266.9,86.0 266.8,86.6 " />
    <polygon id="Indonesia" points="244.7,86.5 244.2,86.2 244.8,85.9 244.8,86.4 " />
    <polygon id="Indonesia" points="189.5,86.5 190.1,86.9 189.5,86.6 189.8,87.2 189.4,86.7 " />
    <polygon id="Indonesia" points="263.7,87.3 263.4,86.8 263.8,87.3 " />
    <polygon id="Indonesia" points="18.7,88.7 17.9,87.8 17.2,87.4 18.3,87.2 18.6,87.7 18.8,88.5 " />
    <polygon id="Indonesia" points="264.5,90.6 265.2,90.9 265.7,92.8 265.3,94.3 264.8,95.2 264.0,95.9 262.7,96.8 262.4,97.4 262.6,98.0 263.4,98.6 264.1,98.6 264.6,98.3 264.8,97.6 265.2,96.5 265.7,96.1 266.2,96.1 266.7,96.0 267.0,95.4 266.4,94.7 266.9,94.0 268.4,93.0 268.9,92.7 269.8,92.5 270.4,92.4 271.0,92.4 271.0,96.2 269.0,97.5 268.5,97.7 267.8,97.9 267.1,98.6 267.3,99.2 267.8,99.7 268.3,99.9 269.4,100.3 270.0,100.6 270.7,100.6 270.9,101.8 270.9,102.3 271.6,102.5 272.4,103.0 272.7,103.5 272.1,103.1 271.5,102.9 270.5,102.6 269.9,102.6 269.4,102.2 268.3,101.9 267.7,102.0 267.1,101.8 266.6,101.4 266.0,101.3 265.3,101.3 264.8,101.4 264.4,102.6 264.8,103.9 264.4,104.4 264.4,105.1 265.2,107.3 265.7,108.3 265.9,108.8 266.5,109.7 267.0,110.6 267.8,111.5 268.7,112.2 267.7,112.2 267.2,111.9 266.5,111.1 265.9,110.9 265.3,110.1 265.0,109.3 264.6,108.8 264.3,108.2 263.8,107.9 263.1,107.5 262.7,106.9 262.7,106.4 263.0,104.6 262.9,103.5 262.6,102.4 261.9,101.8 261.6,100.7 261.7,99.4 262.1,98.9 262.3,98.3 261.4,98.0 261.4,97.4 261.3,96.6 260.7,96.7 260.5,95.5 260.8,94.9 261.1,94.4 261.5,93.7 261.6,93.0 261.9,91.1 262.5,90.1 262.9,89.6 264.6,87.7 265.8,87.4 265.7,88.0 265.0,89.1 264.3,89.6 264.1,90.3 " />
    <polygon id="Indonesia" points="13.1,87.8 " />
    <polygon id="Indonesia" points="13.1,88.5 " />
    <polygon id="Indonesia" points="53.0,91.3 52.2,91.2 51.4,89.7 51.4,89.1 51.6,88.6 53.2,88.1 53.7,88.1 54.4,89.0 54.1,89.8 54.1,90.4 53.5,91.2 " />
    <polygon id="Indonesia" points="17.0,88.9 16.6,88.4 17.1,88.2 17.0,88.9 " />
    <polygon id="Indonesia" points="28.9,92.0 28.1,92.0 27.6,91.8 28.5,91.6 " />
    <polygon id="Indonesia" points="242.4,93.6 242.0,94.2 241.8,94.9 241.6,95.4 241.2,96.2 240.5,97.2 239.9,97.5 239.1,98.0 238.6,98.6 237.8,99.8 237.6,100.3 236.8,101.4 235.8,101.9 235.2,102.1 233.8,102.2 232.8,102.4 231.9,102.5 230.4,102.8 228.5,102.7 228.0,102.7 227.4,102.6 226.6,102.0 226.2,101.4 225.7,101.0 224.8,101.2 223.3,101.2 221.8,101.1 221.2,101.1 220.6,101.1 220.1,101.1 218.6,101.2 217.6,101.2 217.0,101.5 216.3,101.7 215.5,101.7 215.0,101.1 213.4,100.8 212.6,101.3 211.8,101.4 211.2,101.2 210.3,101.4 209.7,101.8 207.9,101.5 206.6,100.8 205.4,100.8 204.9,100.9 204.1,101.2 203.6,101.7 203.0,102.3 202.2,103.4 201.8,104.2 201.6,105.2 201.0,106.7 201.0,107.3 201.2,108.0 201.6,110.0 201.8,110.6 202.3,111.3 203.1,112.3 203.7,112.6 204.3,112.4 205.0,112.9 205.6,113.8 205.6,114.6 205.8,115.2 206.2,116.1 207.0,116.1 207.7,115.9 209.3,116.5 209.9,116.4 210.4,115.8 210.5,115.2 212.8,112.3 213.8,111.6 214.3,111.6 214.3,112.1 214.9,112.7 216.5,112.8 217.9,112.6 218.3,112.0 218.5,111.4 220.8,111.1 221.8,111.3 222.5,111.4 223.3,111.4 224.5,111.2 224.1,110.7 223.5,110.7 223.0,110.4 223.7,110.0 224.4,109.9 225.0,110.0 225.5,109.9 226.9,109.6 227.6,109.9 228.5,110.3 228.8,111.2 228.8,111.8 228.3,112.6 228.2,113.2 227.7,113.6 227.2,113.4 226.5,112.7 225.7,112.1 223.9,112.4 223.5,112.9 223.3,113.4 222.6,114.1 222.2,114.9 221.6,115.4 220.7,116.4 220.3,116.9 219.1,117.7 218.4,118.0 217.2,118.2 216.6,118.5 215.8,118.7 215.3,119.2 215.1,120.0 214.5,120.5 213.9,120.7 213.4,120.6 212.7,119.7 211.8,119.4 211.4,119.9 211.8,121.1 212.5,120.9 213.5,122.3 214.0,122.6 214.8,122.6 215.8,123.6 216.9,125.5 217.2,126.7 218.2,127.4 219.6,128.4 219.5,129.0 219.3,129.5 220.1,130.2 220.9,130.5 220.6,131.0 220.0,131.0 219.5,131.5 219.1,132.3 219.5,132.8 219.3,133.5 218.7,133.7 218.9,134.2 219.8,135.0 221.0,135.7 221.9,136.3 222.0,136.9 222.5,138.3 223.8,138.4 223.4,137.9 224.0,137.9 224.3,138.6 224.4,139.1 224.4,139.8 224.4,140.4 223.2,141.2 222.6,141.2 222.2,140.5 221.5,140.6 220.9,140.7 220.0,140.9 219.5,141.0 218.8,141.2 218.0,141.5 217.6,142.1 217.4,142.6 217.5,143.1 218.0,143.7 216.9,144.2 216.1,144.1 214.8,144.0 213.6,143.3 212.9,142.6 213.0,141.8 213.1,141.3 213.6,139.3 214.0,138.7 214.1,138.1 213.8,137.6 213.0,137.3 212.4,137.2 211.9,137.0 211.6,136.5 211.1,135.8 210.1,135.3 208.6,134.0 208.1,133.5 208.0,132.8 208.2,132.3 208.9,131.4 209.6,130.9 209.7,128.6 209.7,127.3 209.3,126.6 207.6,126.1 206.6,126.3 205.6,126.9 204.0,128.1 202.7,128.9 203.2,130.3 203.8,130.8 204.3,131.3 204.2,132.2 204.2,133.3 204.4,133.9 204.6,134.9 204.3,135.7 203.9,136.6 203.8,138.1 204.1,138.6 204.0,139.5 203.9,140.3 204.1,140.8 204.4,142.1 204.4,142.7 204.2,143.6 203.6,144.0 203.5,144.8 203.4,145.8 203.2,146.3 203.7,147.4 204.1,148.1 204.5,149.3 204.8,150.2 204.1,149.9 203.7,149.4 202.8,149.7 202.2,150.0 201.6,150.1 201.0,149.9 200.5,149.8 199.9,150.3 199.3,151.0 198.5,151.0 198.2,150.4 197.4,150.1 196.7,149.8 196.0,148.8 195.8,148.1 196.0,146.8 196.3,146.3 196.8,145.7 197.2,144.7 197.1,144.1 196.9,143.3 197.3,142.6 197.7,141.9 198.0,140.0 198.0,138.8 197.9,137.6 197.8,137.1 197.3,136.3 196.6,134.9 196.8,134.2 197.1,133.5 195.8,132.7 195.1,132.9 194.5,133.2 193.4,133.3 192.7,133.6 191.7,132.3 191.6,129.8 192.1,128.4 191.6,128.0 191.1,127.5 191.2,126.7 191.5,126.2 192.0,126.5 193.0,125.9 194.1,124.9 194.1,124.3 194.0,123.5 194.1,122.9 194.7,121.3 195.4,120.8 196.0,119.9 195.4,118.7 195.5,118.2 195.4,117.2 195.3,116.4 195.5,115.3 195.7,114.7 196.4,114.2 196.7,113.6 196.8,112.9 197.1,112.3 197.7,111.7 198.4,111.1 198.8,110.3 199.3,111.1 199.4,111.6 199.7,112.1 199.9,111.5 199.8,110.8 199.4,110.3 199.1,109.2 199.0,108.6 199.1,107.7 199.2,107.1 199.5,106.6 199.4,106.1 198.9,106.1 198.3,105.8 198.0,105.3 198.6,105.0 199.1,105.5 199.6,105.9 199.9,105.4 200.1,104.7 199.9,104.1 199.3,103.5 200.2,101.5 200.7,101.1 201.2,100.9 201.3,100.4 201.2,99.8 201.5,99.1 202.2,98.9 202.8,98.6 202.9,98.0 203.1,97.3 203.6,97.1 203.8,97.7 204.3,98.5 205.5,98.9 205.9,98.3 206.2,97.5 207.0,97.0 207.7,95.5 207.6,94.9 208.7,94.3 209.2,94.3 209.8,94.4 210.4,94.7 211.0,95.2 212.2,95.1 212.6,95.6 213.1,96.3 213.7,96.6 215.2,96.4 216.4,96.3 216.9,96.8 217.5,96.6 218.0,96.6 218.9,97.0 219.4,97.0 220.1,97.0 220.8,97.0 222.4,97.5 223.4,98.3 223.9,98.5 224.5,98.2 224.8,97.7 225.5,97.5 226.8,97.4 228.2,97.6 229.0,97.9 229.6,98.1 230.9,98.2 231.8,98.4 232.5,98.4 233.1,98.0 234.5,97.4 235.5,96.9 235.9,96.1 236.5,95.5 237.2,95.5 237.8,95.6 238.2,95.0 237.6,94.8 237.7,94.1 238.2,93.7 238.7,93.9 239.8,93.3 239.9,92.8 239.9,92.3 241.0,91.5 242.3,91.6 242.5,92.2 243.0,92.7 243.2,93.2 242.5,93.5 " />
    <polygon id="Indonesia" points="60.2,93.5 60.2,94.2 60.3,94.8 59.7,94.6 59.1,93.9 58.4,93.6 57.8,93.5 57.2,93.4 56.6,92.9 56.3,92.4 56.8,92.1 57.3,92.3 57.8,92.4 58.5,92.6 59.7,92.8 60.2,93.4 " />
    <polygon id="Indonesia" points="243.0,93.9 243.5,92.9 243.4,93.8 " />
    <polygon id="Indonesia" points="20.3,93.7 21.5,95.5 22.0,95.7 23.3,96.6 23.6,97.2 23.3,97.8 23.2,98.8 23.2,99.5 23.1,100.1 22.6,100.6 21.8,100.5 21.3,99.3 21.0,98.7 19.2,96.9 18.8,96.2 18.5,95.7 18.1,95.0 17.4,94.4 17.2,93.7 17.8,93.8 18.6,93.3 19.2,93.0 19.9,93.3 " />
    <polygon id="Indonesia" points="59.4,97.7 58.5,97.0 58.2,96.4 57.9,94.8 57.9,93.9 58.5,93.7 59.9,95.0 59.9,96.0 59.8,96.6 60.0,97.1 59.5,97.6 " />
    <polygon id="Indonesia" points="77.7,96.8 77.3,97.8 77.2,98.4 76.6,98.4 76.3,97.7 75.7,97.2 74.9,97.0 74.3,97.0 74.2,96.4 75.0,95.6 75.6,95.5 76.6,95.6 77.5,96.2 77.7,96.7 " />
    <polygon id="Indonesia" points="72.6,97.2 72.1,97.0 71.5,96.4 72.4,95.7 73.0,95.5 73.5,95.9 73.5,96.6 73.0,97.2 " />
    <polygon id="Indonesia" points="64.6,96.7 65.1,97.2 65.5,97.8 65.5,98.3 65.0,98.4 63.8,97.6 62.8,97.0 62.1,96.8 61.5,96.6 61.9,96.0 62.5,95.7 63.2,95.9 63.9,96.3 64.6,96.7 " />
    <polygon id="Indonesia" points="61.3,97.1 62.0,96.9 62.5,97.1 63.4,97.5 64.4,98.2 64.7,98.8 64.6,99.3 63.8,99.0 63.3,98.7 61.8,98.7 61.2,98.8 60.7,98.9 60.1,98.6 59.6,98.1 59.9,97.6 60.2,97.1 60.0,96.4 60.6,96.0 61.2,96.7 " />
    <polygon id="Indonesia" points="67.8,97.1 67.1,97.0 66.8,96.5 67.2,96.0 67.5,96.6 67.9,97.1 " />
    <polygon id="Indonesia" points="204.1,96.9 " />
    <polygon id="Indonesia" points="206.5,96.8 " />
    <polygon id="Indonesia" points="100.9,97.3 100.7,96.8 101.2,96.9 " />
    <polygon id="Indonesia" points="79.1,97.4 78.7,96.9 79.1,97.4 " />
    <polygon id="Indonesia" points="71.8,97.6 71.3,97.4 71.8,97.0 71.8,97.6 " />
    <polygon id="Indonesia" points="74.3,98.5 73.7,98.7 73.5,98.2 73.0,97.6 74.4,98.1 " />
    <polygon id="Indonesia" points="68.1,98.1 67.6,97.9 68.1,97.9 " />
    <polygon id="Indonesia" points="67.8,99.9 67.1,99.1 67.0,98.5 67.3,97.9 68.0,98.6 68.4,99.1 68.1,99.6 " />
    <polygon id="Indonesia" points="71.0,99.0 70.4,98.6 70.1,98.1 70.6,98.1 71.0,98.6 " />
    <polygon id="Indonesia" points="71.8,98.9 71.0,98.3 71.7,98.5 " />
    <polygon id="Indonesia" points="68.5,98.6 67.8,98.3 68.4,98.4 " />
    <polygon id="Indonesia" points="259.9,99.1 259.6,98.5 260.3,98.4 260.3,98.9 " />
    <polygon id="Indonesia" points="70.0,98.7 " />
    <polygon id="Indonesia" points="65.0,99.3 65.0,98.7 65.1,99.2 " />
    <polygon id="Indonesia" points="77.1,99.0 76.5,99.1 77.3,98.8 " />
    <polygon id="Indonesia" points="74.7,99.4 74.0,99.3 74.0,98.8 74.5,98.7 74.7,99.4 " />
    <polygon id="Indonesia" points="260.6,100.1 260.4,99.1 260.9,99.3 260.8,99.9 " />
    <polygon id="Indonesia" points="65.8,101.0 65.4,100.2 65.6,99.7 66.1,99.4 66.6,100.0 66.7,100.6 65.8,101.0 " />
    <polygon id="Indonesia" points="68.2,100.1 68.3,99.5 68.3,100.1 " />
    <polygon id="Indonesia" points="74.6,100.1 74.2,99.5 74.6,100.1 " />
    <polygon id="Indonesia" points="64.9,100.5 64.6,99.9 64.9,100.4 " />
    <polygon id="Indonesia" points="260.4,102.9 260.0,102.4 260.6,102.1 260.7,102.6 " />
    <polygon id="Indonesia" points="75.6,102.7 75.1,102.1 75.7,102.5 " />
    <polygon id="Indonesia" points="63.2,102.9 63.7,102.5 63.2,102.9 " />
    <polygon id="Indonesia" points="78.0,104.9 77.1,104.3 76.7,103.8 76.3,103.3 78.0,104.7 " />
    <polygon id="Indonesia" points="30.8,104.2 30.2,104.4 29.2,104.5 28.4,104.3 28.5,103.7 29.0,103.7 30.2,103.7 30.8,104.2 " />
    <polygon id="Indonesia" points="76.2,104.9 75.6,104.4 75.6,103.7 76.2,104.4 " />
    <polygon id="Indonesia" points="261.0,105.2 260.5,105.0 260.5,104.4 261.0,105.2 " />
    <polygon id="Indonesia" points="277.9,106.8 277.3,106.4 276.4,105.4 275.8,104.9 276.3,105.0 277.8,106.2 278.0,106.7 " />
    <polygon id="Indonesia" points="78.3,106.2 78.9,106.6 79.5,106.6 79.8,107.3 79.2,107.6 78.3,106.9 77.8,106.8 77.1,107.1 76.6,107.3 75.9,106.9 76.2,106.3 76.5,105.7 76.5,105.1 77.2,105.1 77.7,105.5 78.3,106.2 " />
    <polygon id="Indonesia" points="28.5,108.1 28.1,107.5 27.0,106.0 26.4,105.2 27.1,105.0 27.6,105.6 27.8,106.2 28.1,106.8 28.5,107.3 28.5,108.1 " />
    <polygon id="Indonesia" points="288.5,105.2 289.8,105.6 290.6,105.7 291.6,106.2 292.1,107.3 291.8,107.9 290.9,107.8 290.4,107.8 289.8,108.0 289.2,108.0 288.7,107.3 287.8,106.8 287.2,105.9 286.4,105.8 287.3,107.1 288.1,107.4 288.6,107.5 289.1,108.0 288.3,108.6 287.6,108.7 287.0,107.8 286.2,107.7 285.6,107.1 284.9,107.3 284.4,107.2 283.4,106.9 284.5,106.9 284.7,106.3 284.2,106.2 283.7,106.3 284.4,105.8 285.0,105.8 286.7,105.5 287.3,105.5 287.8,105.2 288.3,105.2 " />
    <polygon id="Indonesia" points="79.4,105.6 " />
    <polygon id="Indonesia" points="23.1,105.9 " />
    <polygon id="Indonesia" points="214.0,106.7 213.7,106.2 214.3,106.2 214.0,106.7 " />
    <polygon id="Indonesia" points="68.7,106.7 " />
    <polygon id="Indonesia" points="220.0,107.4 219.3,107.1 219.8,107.0 " />
    <polygon id="Indonesia" points="218.9,107.3 218.3,107.1 219.0,107.2 " />
    <polygon id="Indonesia" points="69.3,108.2 68.7,108.2 68.0,108.0 68.2,107.5 68.6,107.0 69.3,107.0 70.1,107.3 70.4,107.8 69.3,108.2 " />
    <polygon id="Indonesia" points="28.1,109.4 27.1,109.7 27.0,108.0 27.5,107.1 28.0,107.6 28.2,108.5 28.1,109.4 " />
    <polygon id="Indonesia" points="258.8,109.3 258.3,109.3 258.2,107.5 258.9,107.2 259.4,107.4 259.6,108.1 259.5,108.8 258.9,109.3 " />
    <polygon id="Indonesia" points="217.8,108.4 217.6,107.8 217.8,107.2 218.2,107.9 217.8,108.4 " />
    <polygon id="Indonesia" points="75.9,107.7 " />
    <polygon id="Indonesia" points="262.0,107.7 262.6,108.5 262.7,109.2 262.3,109.7 262.2,110.2 262.5,110.7 263.1,110.7 263.6,110.6 264.1,110.8 264.5,111.4 264.1,112.0 263.4,112.2 262.8,112.0 262.2,111.3 261.6,111.5 261.1,111.7 260.8,111.1 260.6,110.1 259.8,109.3 259.7,108.7 259.9,107.9 260.6,108.0 261.2,107.9 261.9,107.6 " />
    <polygon id="Indonesia" points="217.2,108.4 216.5,108.4 216.0,108.1 216.5,107.6 217.5,107.8 217.5,108.3 " />
    <polygon id="Indonesia" points="286.9,107.7 " />
    <polygon id="Indonesia" points="76.3,110.1 75.1,109.8 74.3,108.9 74.6,108.4 76.1,107.8 76.6,108.1 77.0,108.7 76.4,110.1 " />
    <polygon id="Indonesia" points="306.5,109.4 307.6,110.0 308.2,110.6 308.7,110.9 309.2,111.0 310.2,111.1 311.6,111.2 313.5,111.0 314.5,111.8 313.9,112.8 314.4,114.0 314.9,114.6 315.9,115.9 315.5,116.5 315.4,117.0 315.4,117.6 314.9,118.1 314.4,118.5 314.6,120.2 314.7,121.6 314.9,123.7 315.2,124.3 316.2,125.2 316.4,125.8 316.7,126.4 317.3,128.1 317.9,127.9 317.8,127.4 317.5,126.2 317.4,125.7 317.9,125.0 318.7,125.2 318.9,125.8 318.9,126.6 318.9,127.2 319.0,128.0 319.2,129.0 319.8,129.1 320.3,128.5 320.5,129.3 320.2,130.1 320.7,131.2 321.6,131.9 322.6,132.2 324.3,132.4 325.4,132.2 326.0,131.9 326.3,131.3 326.6,130.8 327.3,130.5 327.9,130.1 328.4,129.4 328.9,129.2 329.2,128.6 329.3,127.5 329.9,126.8 330.6,126.5 331.1,126.3 331.6,126.0 332.0,125.5 332.5,124.1 332.4,123.6 333.0,122.9 333.6,122.9 334.1,123.1 334.7,123.2 335.7,123.2 336.5,122.8 337.7,122.2 338.3,122.1 339.2,122.0 339.5,120.9 338.8,120.4 338.7,119.7 339.3,119.3 339.9,119.1 340.5,118.9 341.7,118.3 342.5,117.7 343.0,117.5 343.6,117.3 344.6,116.9 345.2,117.1 346.3,118.0 348.8,118.9 350.0,119.3 350.7,119.4 351.2,119.6 351.8,119.9 352.4,120.6 352.9,120.9 353.7,121.0 354.2,121.2 356.7,122.3 357.3,122.6 358.6,123.3 359.9,124.0 360.6,124.2 361.4,124.2 362.2,124.1 362.7,123.8 363.2,123.8 363.5,124.4 364.5,124.9 365.7,124.7 366.4,124.7 367.0,124.8 367.6,125.1 367.9,125.6 367.5,126.1 368.1,126.2 369.7,126.0 370.0,144.5 370.0,153.3 370.0,156.0 369.4,156.8 369.5,157.4 369.1,158.1 368.8,158.8 368.9,159.7 369.2,160.2 369.8,160.6 370.0,178.5 369.5,178.2 369.0,178.1 368.3,177.3 367.4,176.5 366.9,176.0 366.3,175.1 366.0,174.5 364.6,173.4 363.7,172.6 362.9,172.0 362.3,171.6 361.9,171.1 361.8,170.6 362.3,170.2 363.0,168.9 362.4,168.8 362.2,169.4 362.0,170.0 361.5,170.3 360.8,170.3 359.9,170.3 358.8,170.4 358.2,170.8 357.2,171.1 356.6,171.1 356.0,170.7 355.6,170.1 354.5,170.6 353.6,171.2 353.4,171.8 352.7,171.0 352.5,170.4 353.1,169.8 353.1,168.8 353.7,168.5 353.9,167.9 354.3,166.5 354.6,166.0 354.0,165.5 353.3,165.1 353.0,164.5 352.5,163.9 352.0,163.6 351.3,163.3 353.1,163.0 353.8,163.3 354.6,163.3 355.2,163.3 355.6,162.7 355.1,163.0 354.6,163.1 352.6,162.6 351.9,162.3 350.5,161.1 350.4,160.6 351.0,160.4 351.6,160.6 352.3,160.2 353.0,160.1 353.6,160.3 354.2,160.9 354.8,161.2 355.4,161.2 354.8,161.0 354.2,160.6 353.6,160.1 353.1,160.0 352.2,159.6 351.4,159.2 351.2,158.7 350.3,157.3 349.8,156.8 349.3,156.3 349.1,155.7 348.9,155.2 348.8,154.2 348.4,153.5 348.2,152.2 347.5,152.0 347.3,151.5 347.9,151.1 348.6,150.8 347.6,150.8 347.1,151.1 346.5,151.2 346.3,150.7 346.2,150.1 346.3,149.5 346.4,148.8 345.4,148.7 344.0,147.8 343.1,147.1 342.6,146.9 342.0,146.6 341.1,146.2 340.2,145.5 339.6,145.3 337.8,144.9 336.4,144.7 334.8,143.9 334.0,143.5 332.6,142.8 331.8,142.8 331.1,142.5 330.0,142.0 329.5,141.4 328.9,141.2 328.1,141.2 327.6,141.3 326.9,141.2 325.9,140.9 325.1,140.8 324.4,140.8 323.8,140.9 323.3,141.0 322.4,140.5 321.4,139.9 320.1,139.3 319.6,138.9 318.9,138.3 319.1,137.1 320.5,136.9 321.0,137.1 319.8,136.6 319.1,136.6 318.5,137.1 317.8,137.5 317.4,136.8 316.6,136.4 316.4,137.2 315.4,137.0 314.9,136.4 315.2,135.9 314.8,135.3 313.9,135.6 313.0,135.2 312.3,134.0 312.0,134.5 311.3,134.3 310.8,133.3 311.1,132.7 311.2,132.0 311.1,131.5 311.3,130.8 311.9,130.3 312.4,129.9 312.5,129.3 311.5,129.6 311.0,130.2 310.7,131.5 310.8,132.1 310.2,132.7 310.3,133.5 309.9,134.1 308.9,135.0 308.9,135.6 309.2,136.2 308.1,137.3 307.6,137.8 306.4,137.8 305.8,137.8 304.9,138.1 304.4,137.3 304.1,136.7 303.8,135.6 303.6,135.0 303.8,134.3 304.7,134.0 304.7,133.0 304.2,132.9 304.0,132.3 304.1,131.7 303.5,131.5 303.4,132.0 302.8,131.8 302.4,131.2 302.0,130.2 301.3,129.6 300.1,128.8 299.5,128.7 298.3,128.9 297.2,127.5 298.6,126.8 299.1,126.6 300.1,126.7 301.6,126.8 302.2,126.9 302.7,127.3 303.3,127.7 303.9,127.4 304.7,126.5 305.1,126.0 305.7,125.2 306.2,124.9 306.9,124.6 307.5,124.5 308.1,124.8 308.7,125.4 309.7,125.7 310.5,125.5 311.0,125.8 311.0,126.3 311.1,126.9 311.3,125.6 311.9,126.0 312.1,125.2 312.4,124.6 312.9,124.3 313.3,123.1 312.3,123.6 312.3,123.0 312.9,122.8 313.1,122.0 312.6,122.1 311.7,122.6 310.8,123.1 310.0,123.1 309.1,123.1 308.0,122.8 307.2,122.9 306.3,123.2 305.4,123.5 304.9,123.5 304.3,123.2 303.7,123.3 303.1,123.7 302.6,123.3 302.4,122.8 301.8,122.8 301.3,122.9 300.8,123.2 300.3,123.4 299.7,123.1 298.8,122.4 297.9,121.9 297.3,120.9 297.0,120.3 297.0,119.6 297.2,118.8 296.6,118.3 296.0,118.0 295.3,117.8 294.3,117.1 291.8,116.2 292.2,116.7 291.2,117.4 290.7,116.9 289.9,116.8 289.2,116.4 289.6,115.8 290.0,115.1 290.8,115.0 291.5,113.9 291.8,112.5 291.6,111.7 292.9,111.2 293.6,111.0 294.2,111.2 295.7,110.9 296.5,110.7 296.9,110.1 298.4,108.9 299.0,108.5 299.7,108.2 301.0,107.9 302.1,107.9 303.3,108.0 304.1,108.5 306.5,109.4 " />
    <polygon id="Indonesia" points="74.2,108.4 " />
    <polygon id="Indonesia" points="216.4,108.9 215.8,109.0 214.9,109.0 214.5,109.5 214.5,108.8 215.8,108.4 216.4,108.7 " />
    <polygon id="Indonesia" points="286.3,109.4 285.3,109.3 285.3,108.7 286.4,108.4 287.0,108.7 286.8,109.2 " />
    <polygon id="Indonesia" points="28.2,110.2 " />
    <polygon id="Indonesia" points="259.6,111.6 258.8,111.5 258.8,110.2 259.3,110.1 259.7,110.6 259.9,111.4 " />
    <polygon id="Indonesia" points="325.6,110.5 326.1,110.5 327.0,110.6 327.8,111.1 328.3,110.8 328.8,110.9 330.2,112.1 330.6,112.7 331.2,113.6 331.8,113.5 332.6,113.9 332.5,114.4 331.9,114.7 331.0,114.9 330.5,114.9 329.9,114.5 329.4,114.6 328.9,114.7 328.4,114.2 328.0,112.7 327.8,111.9 326.7,112.1 326.0,111.5 325.5,111.3 325.0,111.1 324.7,110.5 325.4,110.4 " />
    <polygon id="Indonesia" points="288.8,111.5 288.2,112.0 286.8,112.4 286.2,112.4 285.3,112.4 284.8,112.6 285.1,112.0 286.2,111.7 287.3,111.7 287.9,111.6 288.6,111.3 " />
    <polygon id="Indonesia" points="179.3,112.1 " />
    <polygon id="Indonesia" points="289.0,112.6 289.5,112.5 290.1,112.9 290.1,113.8 289.8,115.1 289.5,115.7 288.5,115.9 287.6,115.1 287.4,114.6 287.2,113.9 286.9,113.2 288.1,112.4 288.7,112.3 " />
    <polygon id="Indonesia" points="31.5,112.7 32.0,114.0 32.5,114.9 33.0,116.1 33.9,117.8 34.4,118.2 34.5,118.8 34.0,118.1 34.0,118.7 34.2,119.2 33.0,119.6 32.4,119.4 31.2,118.6 30.7,118.0 30.5,117.3 30.0,116.5 29.2,115.4 28.9,114.9 29.0,114.3 29.3,113.8 29.3,113.2 29.7,112.7 30.2,112.8 30.8,112.6 31.3,112.5 " />
    <polygon id="Indonesia" points="321.1,114.2 320.1,113.5 320.2,113.0 320.7,112.6 321.6,113.3 321.6,113.8 321.1,114.2 " />
    <polygon id="Indonesia" points="117.6,113.0 118.3,113.0 118.6,113.8 117.9,114.8 116.6,115.5 116.0,115.3 116.1,114.7 116.2,114.1 116.2,113.5 116.5,113.0 117.2,112.9 " />
    <polygon id="Indonesia" points="74.0,113.4 " />
    <polygon id="Indonesia" points="280.9,114.8 280.1,115.1 279.4,114.8 280.3,114.3 281.1,114.5 " />
    <polygon id="Indonesia" points="226.7,115.5 227.0,116.3 227.7,115.6 228.0,115.0 228.8,115.0 229.5,115.4 229.4,116.6 228.8,117.2 228.1,117.3 227.8,116.5 227.2,117.0 227.1,117.7 226.6,118.2 226.1,117.8 226.6,117.3 226.4,116.1 225.9,115.9 225.5,116.6 225.1,117.3 224.5,117.8 223.6,116.8 223.6,116.2 223.8,115.4 224.3,114.7 226.6,114.3 227.1,114.8 226.7,115.5 " />
    <polygon id="Indonesia" points="114.4,115.0 114.6,114.5 114.4,115.0 " />
    <polygon id="Indonesia" points="262.3,115.2 261.3,115.3 261.4,114.6 261.9,114.6 262.6,114.8 " />
    <polygon id="Indonesia" points="113.7,115.7 " />
    <polygon id="Indonesia" points="264.4,116.6 266.3,117.6 266.7,118.3 266.2,118.8 265.4,118.8 264.3,118.7 263.1,118.7 262.5,119.0 261.8,119.1 260.9,118.7 260.4,118.2 260.5,117.5 260.6,117.0 261.8,116.2 262.4,115.8 263.1,115.9 264.4,116.6 " />
    <polygon id="Indonesia" points="260.0,116.7 259.8,116.1 260.3,116.1 260.0,116.7 " />
    <polygon id="Indonesia" points="322.8,117.0 323.5,117.1 324.1,117.1 323.2,117.4 322.6,117.4 " />
    <polygon id="Indonesia" points="89.1,119.3 89.5,120.0 89.8,120.6 89.7,121.1 89.9,122.3 90.3,123.6 90.5,124.1 90.9,124.6 91.5,125.1 93.4,125.4 94.7,125.9 94.1,126.4 93.8,126.9 93.6,127.4 93.3,128.1 93.2,128.7 93.8,129.0 94.4,129.2 94.4,129.8 92.7,130.1 92.1,129.3 90.9,128.6 90.1,128.3 89.6,128.2 88.6,127.9 87.8,127.2 87.6,126.4 87.8,125.7 87.9,125.2 87.3,124.7 86.9,123.4 86.8,122.6 86.3,122.2 84.2,122.0 83.7,122.1 83.1,122.2 81.5,121.8 81.4,121.3 81.8,120.6 82.5,120.3 83.4,119.7 83.6,119.2 83.1,118.8 83.5,118.0 84.1,117.7 85.0,117.4 85.6,118.3 85.6,118.8 86.1,119.4 86.7,119.5 86.4,118.3 86.1,117.5 87.4,117.1 88.6,117.7 88.6,118.3 89.1,119.3 " />
    <polygon id="Indonesia" points="111.3,118.5 110.9,117.9 111.7,117.4 112.2,117.8 112.0,118.3 111.4,118.5 " />
    <polygon id="Indonesia" points="332.1,118.7 333.4,118.9 334.3,119.0 335.4,119.1 336.2,119.1 336.9,119.5 335.3,120.0 334.1,120.4 333.4,120.3 331.5,120.2 330.3,119.9 329.6,119.7 328.7,119.2 327.5,118.8 326.8,118.8 325.6,118.6 325.1,118.1 325.7,117.9 328.2,118.3 328.9,118.3 329.7,118.3 330.5,118.4 331.2,118.4 332.1,118.7 " />
    <polygon id="Indonesia" points="241.3,118.9 242.1,118.7 243.6,119.0 243.8,119.5 243.9,120.2 242.6,120.2 241.7,120.3 241.2,120.7 240.7,120.5 240.2,120.4 239.6,120.4 239.0,120.7 237.8,121.2 236.5,121.3 235.8,120.2 235.8,119.7 236.2,118.7 237.5,118.2 238.1,118.2 240.9,118.8 " />
    <polygon id="Indonesia" points="227.6,119.5 227.7,118.8 227.7,119.4 " />
    <polygon id="Indonesia" points="283.0,121.7 282.4,121.7 280.8,121.2 279.3,120.5 279.8,119.9 281.1,119.4 281.8,119.1 284.1,118.6 284.6,119.3 285.0,119.9 285.0,120.9 283.3,121.6 " />
    <polygon id="Indonesia" points="110.1,118.9 110.8,118.8 110.1,118.9 " />
    <polygon id="Indonesia" points="315.1,120.7 314.9,120.1 315.4,119.2 315.4,120.1 315.1,120.6 " />
    <polygon id="Indonesia" points="225.8,120.4 225.7,119.8 225.9,119.2 226.4,119.7 225.9,120.4 " />
    <polygon id="Indonesia" points="244.8,119.6 246.5,119.8 247.1,119.7 248.7,119.5 249.2,119.5 250.5,119.6 251.5,119.7 252.0,119.7 251.4,120.2 249.1,120.4 247.9,120.5 245.0,120.7 244.1,120.2 244.0,119.7 244.5,119.3 " />
    <polygon id="Indonesia" points="34.4,119.8 " />
    <polygon id="Indonesia" points="228.3,120.2 " />
    <polygon id="Indonesia" points="231.3,120.2 " />
    <polygon id="Indonesia" points="231.8,121.3 231.3,120.4 231.9,120.6 231.8,121.3 " />
    <polygon id="Indonesia" points="230.7,120.5 " />
    <polygon id="Indonesia" points="230.9,120.8 " />
    <polygon id="Indonesia" points="230.5,120.9 " />
    <polygon id="Indonesia" points="229.5,120.6 " />
    <polygon id="Indonesia" points="229.0,120.7 " />
    <polygon id="Indonesia" points="236.2,121.3 235.6,121.1 236.1,120.9 " />
    <polygon id="Indonesia" points="249.7,125.1 249.1,124.6 249.0,124.1 248.9,123.5 248.5,122.9 248.2,121.9 248.4,121.2 248.9,121.0 249.3,121.5 249.1,122.2 249.1,122.7 249.4,123.3 250.0,124.5 249.7,125.1 " />
    <polygon id="Indonesia" points="231.3,121.6 " />
    <polygon id="Indonesia" points="316.6,122.4 316.3,121.9 316.5,121.4 317.0,121.3 316.7,122.3 " />
    <polygon id="Indonesia" points="232.3,121.8 232.0,121.3 232.3,121.8 " />
    <polygon id="Indonesia" points="39.0,124.2 38.4,123.9 37.0,123.2 36.4,122.4 36.5,121.6 37.0,121.3 37.6,121.7 37.8,122.3 38.3,123.1 38.8,123.6 39.0,124.2 " />
    <polygon id="Indonesia" points="228.8,122.2 " />
    <polygon id="Indonesia" points="226.5,122.7 " />
    <polygon id="Indonesia" points="318.2,124.8 318.2,123.6 318.3,124.1 318.3,124.7 " />
    <polygon id="Indonesia" points="38.1,124.2 " />
    <polygon id="Indonesia" points="310.4,125.4 309.8,125.1 309.7,124.6 310.5,125.0 " />
    <polygon id="Indonesia" points="40.4,127.9 40.1,127.2 39.8,125.6 40.1,125.1 41.4,126.2 41.8,126.7 41.9,127.2 41.3,127.5 40.4,127.9 " />
    <polygon id="Indonesia" points="103.2,125.5 104.5,125.8 105.1,126.0 106.6,127.2 106.8,127.8 106.6,128.5 106.2,129.1 106.1,130.2 105.3,130.5 105.1,131.0 104.4,131.2 104.3,130.7 103.7,129.8 103.0,129.8 103.2,130.4 101.7,131.0 101.1,129.3 101.4,128.5 101.4,127.4 101.6,126.9 101.7,125.9 102.5,125.7 103.2,125.5 " />
    <polygon id="Indonesia" points="294.2,126.4 294.7,126.1 294.2,126.4 " />
    <polygon id="Indonesia" points="43.9,130.3 43.4,130.3 43.5,131.1 44.0,131.6 43.1,131.2 42.9,130.3 42.1,129.6 41.7,129.0 41.6,127.7 42.1,127.5 43.0,128.3 43.9,129.3 44.0,130.1 " />
    <polygon id="Indonesia" points="280.0,128.6 281.4,129.1 281.9,129.2 282.8,129.2 283.4,129.1 284.1,129.0 284.7,129.2 286.2,130.3 286.5,131.2 286.5,131.8 286.8,132.4 287.4,132.5 288.1,132.9 288.5,133.9 288.3,134.5 288.1,135.9 286.5,135.6 286.0,135.1 285.0,134.5 284.0,134.0 283.4,133.9 282.6,133.6 281.6,133.1 281.1,132.6 280.9,132.1 280.0,131.9 278.7,131.8 277.6,131.6 277.7,132.2 277.9,132.8 277.3,132.9 275.9,132.6 275.3,132.5 274.7,132.3 274.0,132.0 273.4,132.0 273.2,131.4 272.6,130.9 271.6,131.4 271.0,132.0 270.3,132.7 269.4,132.9 268.8,132.8 268.3,132.1 267.8,131.4 267.1,130.9 267.0,130.2 266.4,129.9 266.0,130.4 265.8,131.2 265.8,131.7 265.4,132.3 264.9,133.0 264.7,133.7 264.5,133.1 264.8,132.5 264.8,132.0 264.5,131.5 264.2,130.7 265.2,129.9 266.0,129.1 266.7,128.1 267.5,128.1 268.6,128.1 269.9,128.1 272.1,128.1 272.7,128.1 273.9,128.4 274.5,128.9 275.1,128.8 276.1,128.1 276.4,127.6 277.7,127.5 278.5,127.7 279.6,128.2 " />
    <polygon id="Indonesia" points="97.1,128.5 96.9,127.8 97.3,128.3 " />
    <polygon id="Indonesia" points="99.9,128.7 99.4,128.3 100.3,127.8 100.4,128.3 99.9,128.7 " />
    <polygon id="Indonesia" points="95.6,129.4 95.0,129.4 94.3,129.0 94.9,128.4 95.6,128.6 95.6,129.4 " />
    <polygon id="Indonesia" points="264.4,129.5 263.9,129.4 264.7,128.9 265.2,128.6 265.0,129.3 264.4,129.5 " />
    <polygon id="Indonesia" points="257.3,130.4 258.0,130.8 258.3,131.3 257.7,131.4 257.8,131.9 258.3,132.2 259.4,132.2 259.3,134.0 259.1,134.5 258.6,134.5 257.5,134.9 256.3,135.5 255.1,135.9 253.4,135.4 252.4,134.9 251.2,134.2 249.8,132.8 249.4,132.1 249.4,130.7 249.9,130.1 250.4,130.4 251.0,130.6 251.6,130.1 252.6,129.8 254.2,129.7 255.2,129.7 255.9,129.8 257.3,130.4 " />
    <polygon id="Indonesia" points="44.4,130.7 " />
    <polygon id="Indonesia" points="263.5,131.3 262.9,131.3 263.0,130.6 263.7,130.6 263.7,131.1 " />
    <polygon id="Indonesia" points="169.8,137.5 169.3,137.6 169.3,137.0 169.5,135.9 169.1,135.3 168.9,134.7 169.4,132.8 169.8,131.9 170.9,131.0 170.9,132.1 171.0,133.5 171.2,134.2 171.4,135.4 171.3,136.5 170.1,137.4 " />
    <polygon id="Indonesia" points="262.4,132.2 261.5,131.9 261.5,131.3 262.4,131.7 " />
    <polygon id="Indonesia" points="171.9,134.4 171.4,133.6 171.7,132.8 172.1,132.3 172.3,132.8 172.1,133.9 " />
    <polygon id="Indonesia" points="220.7,133.2 220.4,132.6 220.9,132.9 " />
    <polygon id="Indonesia" points="303.2,133.4 302.6,132.8 303.2,133.0 " />
    <polygon id="Indonesia" points="310.6,132.8 " />
    <polygon id="Indonesia" points="270.7,133.5 271.2,134.0 270.5,134.3 269.9,133.5 270.4,133.4 " />
    <polygon id="Indonesia" points="268.1,134.2 267.6,134.7 266.5,135.4 267.0,134.6 266.0,134.9 265.4,135.4 264.8,135.4 264.7,134.8 265.4,134.1 266.1,133.9 266.9,133.8 267.6,133.3 268.1,133.4 268.1,134.2 " />
    <polygon id="Indonesia" points="219.9,133.7 219.4,133.9 219.6,133.4 " />
    <polygon id="Indonesia" points="268.6,134.4 268.7,133.6 269.4,133.4 269.9,133.9 268.6,134.4 " />
    <polygon id="Indonesia" points="226.2,134.3 225.6,133.9 226.1,133.6 226.2,134.3 " />
    <polygon id="Indonesia" points="271.6,134.9 271.7,134.3 271.6,134.9 " />
    <polygon id="Indonesia" points="259.2,136.5 258.6,136.3 258.8,135.7 259.2,136.5 " />
    <polygon id="Indonesia" points="314.9,136.7 314.3,136.8 314.9,136.7 " />
    <polygon id="Indonesia" points="293.0,137.9 292.5,137.2 293.1,137.6 " />
    <polygon id="Indonesia" points="225.9,137.3 226.6,137.2 227.1,137.5 227.2,138.1 226.5,139.1 225.8,139.2 225.3,138.7 224.9,138.2 224.8,137.7 225.2,137.1 225.8,137.3 " />
    <polygon id="Indonesia" points="291.5,137.6 291.2,137.1 291.5,137.6 " />
    <polygon id="Indonesia" points="48.5,137.5 " />
    <polygon id="Indonesia" points="292.3,138.2 291.7,138.0 292.3,138.2 " />
    <polygon id="Indonesia" points="310.2,139.3 309.1,139.0 308.2,138.6 308.1,138.1 308.9,138.6 309.7,139.0 310.2,139.2 " />
    <polygon id="Indonesia" points="226.9,142.9 226.9,143.6 226.3,143.0 225.5,143.4 225.3,144.0 225.1,144.9 225.0,145.6 225.0,146.2 225.6,146.4 226.9,147.5 226.5,148.2 225.6,148.7 225.1,148.4 224.4,148.8 224.0,149.3 224.3,149.9 223.8,150.7 222.4,150.8 222.0,150.1 221.8,149.6 222.4,148.2 223.0,147.4 223.4,146.3 223.7,145.1 224.0,143.9 223.9,143.1 223.9,142.5 224.0,141.9 224.3,141.3 225.1,140.6 225.6,140.3 225.8,141.0 226.3,141.3 226.7,141.9 226.9,142.9 " />
    <polygon id="Indonesia" points="294.9,141.6 294.4,140.7 294.9,141.1 " />
    <polygon id="Indonesia" points="280.5,141.5 " />
    <polygon id="Indonesia" points="280.9,141.8 280.3,141.7 281.0,141.3 " />
    <polygon id="Indonesia" points="223.0,142.5 223.1,143.3 223.3,144.3 223.4,144.9 222.8,145.4 222.3,145.9 222.0,146.6 222.4,147.5 222.3,148.1 222.0,148.7 220.8,148.5 219.7,148.5 219.3,147.9 219.7,146.5 220.2,146.0 220.3,145.2 220.0,144.5 219.7,144.0 220.1,143.4 220.7,143.2 221.2,143.1 221.9,142.7 222.7,142.2 " />
    <polygon id="Indonesia" points="295.5,143.4 295.3,142.9 295.5,143.4 " />
    <polygon id="Indonesia" points="167.1,143.9 167.3,143.4 167.1,143.9 " />
    <polygon id="Indonesia" points="217.3,149.1 216.0,148.2 215.6,147.6 215.6,147.1 216.0,146.1 216.9,145.9 217.3,146.6 217.6,147.2 217.5,148.7 " />
    <polygon id="Indonesia" points="230.2,148.3 229.7,148.2 229.4,147.7 230.0,147.4 230.3,148.3 " />
    <polygon id="Indonesia" points="59.3,149.2 58.3,149.0 57.0,148.0 57.6,147.5 58.4,147.8 59.3,148.3 59.4,149.2 " />
    <polygon id="Indonesia" points="304.4,153.4 304.6,152.4 305.0,150.9 305.5,150.3 305.7,149.8 306.4,147.9 307.0,147.7 306.6,149.6 306.4,150.2 305.9,150.6 305.3,151.3 305.2,151.9 304.4,153.4 " />
    <polygon id="Indonesia" points="318.3,148.8 319.2,149.6 319.1,150.1 319.4,151.2 319.6,152.1 319.5,153.1 319.0,152.9 317.9,153.0 317.4,153.2 316.8,153.5 316.3,153.6 316.1,152.6 316.7,151.8 315.9,151.5 315.4,151.3 315.5,150.8 316.1,151.0 316.9,150.4 317.5,149.3 318.2,148.8 " />
    <polygon id="Indonesia" points="231.7,150.1 230.8,149.3 231.6,149.6 231.7,150.1 " />
    <polygon id="Indonesia" points="300.3,149.9 " />
    <polygon id="Indonesia" points="303.9,150.8 303.5,150.2 303.7,149.7 303.9,150.2 304.0,150.8 " />
    <polygon id="Indonesia" points="303.5,152.9 302.9,152.6 302.9,152.0 302.8,151.0 302.6,150.4 303.1,150.1 303.5,150.6 304.0,151.7 304.0,152.2 303.8,152.8 " />
    <polygon id="Indonesia" points="142.2,152.2 141.7,152.2 141.4,151.6 142.2,151.2 142.6,151.9 " />
    <polygon id="Indonesia" points="79.1,152.0 78.5,151.4 79.1,151.5 " />
    <polygon id="Indonesia" points="204.9,157.2 204.7,156.5 204.8,156.0 204.6,154.6 204.6,153.6 204.6,152.8 204.6,152.1 204.8,151.5 205.2,152.3 205.4,153.0 205.5,153.5 205.3,155.4 205.1,156.8 " />
    <polygon id="Indonesia" points="233.7,153.6 232.9,153.0 233.0,152.4 233.5,152.7 233.8,153.2 " />
    <polygon id="Indonesia" points="89.7,153.5 90.3,153.1 91.1,153.1 92.2,153.6 92.7,153.5 94.0,153.5 94.3,154.0 94.9,154.1 95.7,154.1 96.3,154.0 96.6,153.1 97.3,152.8 97.8,153.2 98.6,153.0 99.1,153.0 99.7,153.6 100.9,154.7 101.6,155.3 102.3,155.4 103.5,155.2 105.0,156.0 105.7,156.1 106.2,155.5 106.9,155.4 107.8,156.5 108.3,157.0 108.8,157.3 109.0,157.9 109.0,158.5 109.3,159.3 110.2,159.9 110.8,159.9 111.6,159.8 112.5,160.1 114.8,160.4 115.8,160.3 116.7,160.0 117.7,160.2 118.8,160.5 119.5,160.7 120.1,160.8 120.6,160.8 121.4,160.7 122.2,160.6 123.3,161.1 123.8,161.2 124.3,161.0 125.1,160.3 125.6,159.3 125.8,158.8 125.9,158.3 126.1,157.5 126.5,157.0 127.4,156.7 128.0,156.6 128.8,156.9 129.3,157.7 129.5,158.3 129.8,158.9 131.5,159.1 132.1,159.0 132.5,158.4 133.3,158.6 133.9,159.1 134.4,159.6 136.0,159.8 136.6,159.7 137.0,160.2 137.5,160.7 138.1,160.7 138.9,160.5 139.5,160.4 140.2,160.4 141.2,160.7 141.6,161.7 142.1,162.7 141.6,162.9 142.1,163.4 142.7,163.1 143.2,163.3 143.2,164.6 142.8,165.5 143.3,166.0 144.5,166.6 145.5,167.0 146.1,167.4 147.1,167.8 147.6,167.6 148.7,167.0 149.3,167.1 150.2,167.2 150.9,167.3 152.2,166.9 152.7,166.5 153.2,166.4 153.8,167.0 155.3,167.4 155.8,167.5 156.4,167.8 156.5,168.4 156.0,171.1 155.9,171.6 155.7,172.3 155.6,172.9 155.8,173.6 156.5,174.5 157.4,174.8 157.8,175.4 157.2,175.7 156.1,175.4 155.9,174.9 155.1,174.4 154.5,174.6 153.6,174.6 152.5,174.3 151.7,173.9 150.7,173.7 150.1,173.4 149.2,172.9 148.3,172.5 147.3,171.9 146.6,171.7 146.0,171.7 145.4,171.8 144.6,172.0 144.2,172.5 141.9,172.9 140.9,172.6 139.6,172.2 139.0,172.1 138.0,172.0 136.3,171.7 135.5,171.6 135.0,171.5 134.4,171.8 133.9,172.3 132.2,172.0 129.5,171.4 129.0,171.5 128.0,171.2 127.3,171.1 126.4,171.0 124.4,170.3 123.6,170.0 122.3,169.3 121.5,168.9 120.9,168.5 119.9,168.2 118.2,167.8 117.2,167.6 116.6,167.6 115.8,167.2 114.9,167.0 113.8,166.9 113.1,167.0 112.5,167.2 111.7,167.0 111.0,166.7 110.0,166.9 109.2,166.9 108.7,167.1 108.5,167.7 107.9,167.9 106.0,167.7 105.1,167.5 103.9,167.2 103.1,166.9 102.0,166.5 101.4,166.0 100.9,165.8 100.3,165.5 99.7,165.4 99.0,165.3 98.1,165.2 97.1,165.0 94.1,164.8 93.2,164.8 91.8,164.4 91.5,163.9 91.5,163.3 92.2,162.5 92.7,162.1 92.8,161.5 92.0,161.1 91.5,161.4 91.0,161.4 89.8,160.7 89.2,160.3 88.7,160.1 87.9,160.0 85.9,160.1 85.3,160.2 84.8,160.4 84.2,160.3 83.4,159.9 82.8,159.9 82.3,159.9 82.9,159.2 83.6,159.3 84.0,159.9 85.3,158.5 85.4,157.9 85.4,157.3 85.9,157.5 86.6,157.3 87.0,156.7 87.1,155.9 87.0,155.4 87.4,154.0 88.4,152.7 89.0,152.4 89.3,153.0 " />
    <polygon id="Indonesia" points="319.5,153.6 319.8,154.1 319.6,155.3 319.3,155.8 318.5,156.3 318.0,156.2 317.1,155.5 316.3,155.2 316.0,154.6 315.9,153.8 316.6,153.6 317.2,153.4 317.7,153.2 318.5,153.0 319.5,153.6 " />
    <polygon id="Indonesia" points="314.9,153.7 315.4,153.6 315.6,154.1 316.3,155.3 316.9,155.6 316.3,156.0 315.6,155.4 314.7,154.6 314.6,153.7 " />
    <polygon id="Indonesia" points="316.4,159.8 315.3,160.7 314.2,160.0 314.1,159.5 314.4,157.5 314.6,156.9 314.6,156.1 314.5,155.3 314.4,154.8 315.2,155.1 315.9,155.7 316.1,156.3 316.8,156.7 317.3,156.9 317.8,158.1 317.5,158.6 316.9,159.1 316.4,159.8 " />
    <polygon id="Indonesia" points="318.4,156.5 318.1,157.6 317.5,157.1 316.7,156.5 316.7,155.9 317.2,155.6 318.1,156.3 " />
    <polygon id="Indonesia" points="320.3,157.1 320.0,156.5 320.4,155.7 320.4,157.1 " />
    <polygon id="Indonesia" points="319.1,157.9 318.7,157.3 319.2,157.0 319.6,157.6 319.1,157.9 " />
    <polygon id="Indonesia" points="81.9,158.9 81.3,158.4 81.7,157.9 82.4,157.6 82.5,158.2 82.0,158.8 " />
    <polygon id="Indonesia" points="319.0,159.6 319.1,158.3 319.6,158.3 319.4,158.9 319.0,159.5 " />
    <polygon id="Indonesia" points="294.3,158.8 294.3,159.5 293.8,159.7 294.1,158.9 " />
    <polygon id="Indonesia" points="351.4,159.5 352.0,159.8 351.7,160.4 350.8,159.5 351.4,159.5 " />
    <polygon id="Indonesia" points="163.2,160.1 164.0,160.1 164.5,160.2 165.1,160.5 165.3,161.0 164.6,160.8 163.9,160.7 164.0,161.2 163.2,161.4 162.5,160.8 162.8,160.1 " />
    <polygon id="Indonesia" points="152.7,160.4 153.6,160.8 153.3,161.4 152.7,161.5 151.9,161.7 151.4,162.4 150.8,162.3 150.2,162.3 149.3,162.7 148.3,163.2 146.2,163.2 145.6,162.9 144.6,163.0 143.6,162.8 142.9,162.7 142.4,162.6 142.2,161.8 142.8,161.5 143.4,160.7 144.1,160.5 144.7,160.5 145.5,160.5 147.2,160.5 149.2,160.5 150.9,160.5 151.7,160.4 152.4,160.3 " />
    <polygon id="Indonesia" points="207.0,162.0 206.5,162.6 206.0,162.1 206.1,161.5 207.0,162.0 " />
    <polygon id="Indonesia" points="156.0,162.8 155.4,162.7 155.1,162.2 155.7,161.9 156.1,162.7 " />
    <polygon id="Indonesia" points="270.5,163.2 269.8,162.7 270.1,162.0 271.0,162.2 270.8,162.8 " />
    <polygon id="Indonesia" points="297.0,162.2 297.3,162.8 297.4,163.4 296.8,163.1 296.2,162.7 295.7,162.8 296.9,162.2 " />
    <polygon id="Indonesia" points="295.4,163.1 294.9,163.2 294.8,164.5 295.0,165.3 294.6,166.4 294.1,167.1 293.4,167.6 292.7,168.1 292.3,168.7 292.3,169.3 290.6,169.5 290.2,168.4 291.0,166.9 291.0,166.3 291.4,165.4 292.0,164.9 292.6,164.4 293.2,163.7 293.8,162.6 294.7,162.3 295.2,162.5 295.5,163.1 " />
    <polygon id="Indonesia" points="208.5,163.7 209.0,163.6 209.6,163.8 209.1,164.1 207.6,163.8 208.5,163.7 " />
    <polygon id="Indonesia" points="291.7,164.4 291.5,163.8 291.7,164.4 " />
    <polygon id="Indonesia" points="209.9,164.6 209.7,164.0 210.4,164.2 " />
    <polygon id="Indonesia" points="215.3,164.8 215.2,164.3 215.7,164.1 215.4,164.8 " />
    <polygon id="Indonesia" points="353.6,165.9 354.2,166.3 353.7,167.6 353.2,168.5 352.9,169.7 352.2,170.5 351.5,170.7 350.8,171.3 349.5,172.4 348.9,172.7 348.3,172.9 347.8,172.7 347.3,172.6 344.8,172.4 344.2,172.5 343.5,172.7 343.0,173.0 342.9,172.4 343.5,170.9 344.7,168.4 345.1,167.8 345.9,166.5 346.4,166.0 347.1,165.5 347.6,165.2 348.7,164.7 349.5,164.6 350.2,164.5 350.9,164.3 351.4,164.3 352.0,164.4 352.7,165.0 353.2,165.7 " />
    <polygon id="Indonesia" points="290.1,165.5 289.5,165.3 289.5,164.8 290.8,164.6 290.1,165.5 " />
    <polygon id="Indonesia" points="288.4,165.4 289.3,165.5 288.3,165.8 " />
    <polygon id="Indonesia" points="260.4,166.7 260.3,165.6 261.2,165.6 261.0,166.3 260.4,166.7 " />
    <polygon id="Indonesia" points="255.1,166.8 255.6,167.4 255.0,167.4 254.2,167.7 253.5,168.3 252.7,168.9 251.5,168.8 250.3,168.5 249.8,168.5 249.3,168.6 248.7,168.7 248.0,169.3 247.5,169.6 247.8,168.3 248.6,167.3 249.1,166.7 250.1,167.0 250.8,167.2 252.0,167.0 252.6,166.5 253.2,166.2 254.2,165.9 255.1,166.8 " />
    <polygon id="Indonesia" points="289.4,167.2 289.6,166.7 290.3,166.5 289.8,167.2 " />
    <polygon id="Indonesia" points="279.6,169.9 279.0,169.8 278.3,169.0 278.1,168.2 278.8,167.8 280.0,168.0 280.4,168.7 279.7,169.8 " />
    <polygon id="Indonesia" points="259.1,170.3 258.5,169.9 259.1,169.6 259.2,170.2 " />
    <polygon id="Indonesia" points="164.8,170.9 165.4,171.2 166.5,172.3 166.4,172.8 165.8,173.4 164.9,173.9 164.0,174.2 163.4,174.4 163.0,175.0 162.5,175.3 162.8,175.9 162.1,176.3 161.6,176.2 162.2,175.7 162.2,175.1 161.4,174.2 160.5,173.4 159.9,173.0 159.1,172.7 158.5,172.6 158.0,172.6 157.4,172.3 156.9,171.8 156.5,171.1 156.4,170.4 156.9,170.2 158.5,170.6 159.5,170.9 160.7,170.9 161.6,170.3 162.1,169.9 163.7,170.4 164.5,170.7 " />
    <polygon id="Indonesia" points="225.0,170.6 225.4,171.8 224.3,172.5 223.6,172.9 223.7,173.5 224.0,174.0 223.4,174.4 222.6,174.5 221.7,174.8 220.9,175.3 220.3,175.5 219.2,175.5 218.6,175.4 216.4,176.1 215.6,176.5 214.1,176.2 213.6,176.0 212.3,175.9 212.1,176.4 211.6,176.9 211.1,176.7 210.6,176.6 210.0,176.8 209.4,177.1 208.4,176.9 207.9,176.4 207.2,176.4 206.3,176.2 205.7,175.8 204.5,175.8 203.8,175.9 203.1,176.1 201.7,175.8 200.5,176.3 199.7,175.9 199.4,175.2 199.4,174.6 199.4,174.0 200.3,173.2 201.1,172.8 201.7,172.6 202.6,171.9 203.1,171.6 205.2,171.5 206.3,171.7 207.1,172.1 207.9,172.2 208.4,172.2 209.2,172.5 209.9,172.9 210.4,173.0 211.3,173.2 211.7,173.7 212.3,174.2 213.2,174.3 213.8,173.8 214.2,173.3 215.3,173.4 216.1,173.4 217.4,173.0 218.0,173.7 219.0,174.5 219.9,174.4 220.5,174.3 221.0,173.6 222.0,172.6 222.5,172.5 223.3,172.3 224.2,171.8 224.8,171.1 224.2,170.9 223.7,171.2 223.1,171.3 223.6,170.3 224.1,170.0 224.9,170.5 " />
    <polygon id="Indonesia" points="187.4,172.4 188.0,172.1 188.5,171.6 189.7,171.6 190.2,171.8 190.5,172.4 190.4,173.0 190.2,173.8 190.7,173.2 190.7,172.6 190.9,172.1 191.4,171.8 192.0,171.8 192.6,171.8 193.4,173.2 193.3,173.8 193.3,174.5 194.0,174.6 194.4,175.2 193.8,175.5 192.9,175.6 192.3,175.1 191.5,175.2 191.0,175.2 191.7,175.7 192.4,175.9 191.6,176.3 191.0,175.9 190.4,175.9 189.6,176.2 188.7,176.5 188.2,176.2 188.0,175.7 188.5,174.8 188.2,174.2 186.8,176.0 186.3,176.4 185.8,176.2 185.2,176.3 184.5,176.7 184.0,177.0 183.3,177.0 182.7,176.8 182.2,177.0 181.4,177.5 180.4,177.8 179.8,177.9 179.2,177.7 178.6,177.7 178.1,178.2 177.3,178.4 175.3,177.8 174.8,177.3 174.9,176.5 175.1,174.8 175.3,174.2 176.0,173.6 177.0,173.3 177.5,173.0 178.1,172.4 179.1,172.6 180.3,173.2 181.4,172.7 181.5,173.3 182.1,174.0 183.0,174.7 183.7,175.1 184.6,175.4 185.1,175.1 185.6,174.7 186.2,174.6 186.7,174.8 187.2,174.6 186.8,173.9 185.6,173.2 185.1,173.2 183.6,172.4 182.6,171.4 182.7,170.8 183.4,170.4 184.3,170.1 185.6,170.3 186.2,170.6 186.3,171.1 186.5,171.6 187.0,172.2 " />
    <polygon id="Indonesia" points="287.9,172.3 288.2,171.5 288.9,171.1 289.6,170.2 290.8,170.4 289.9,171.1 289.2,171.3 288.7,171.7 288.1,172.2 " />
    <polygon id="Indonesia" points="264.1,170.2 264.8,170.5 265.8,170.6 266.3,170.6 265.7,171.5 264.0,171.1 263.4,170.4 264.1,170.2 " />
    <polygon id="Indonesia" points="237.8,170.5 238.6,170.8 240.1,170.9 240.6,170.8 241.9,170.7 242.3,171.2 242.4,172.0 241.7,172.4 239.8,172.7 238.0,172.9 236.6,173.2 236.1,173.1 236.4,171.3 236.9,170.6 237.6,170.5 " />
    <polygon id="Indonesia" points="193.6,171.6 193.1,171.0 193.5,170.5 194.0,170.7 194.0,171.3 " />
    <polygon id="Indonesia" points="245.9,172.0 245.3,171.7 246.2,170.6 246.1,171.8 " />
    <polygon id="Indonesia" points="181.2,172.6 180.7,171.4 181.3,170.6 182.2,170.6 182.1,171.2 181.7,171.9 181.4,172.5 " />
    <polygon id="Indonesia" points="262.7,171.4 262.2,171.1 262.7,170.7 263.3,170.7 262.9,171.3 " />
    <polygon id="Indonesia" points="352.8,172.8 352.2,172.7 350.5,172.5 351.5,170.9 352.3,170.7 353.0,172.2 353.0,172.7 " />
    <polygon id="Indonesia" points="273.5,171.6 272.8,171.6 272.2,171.3 273.0,170.9 273.6,171.1 " />
    <polygon id="Indonesia" points="235.5,172.1 234.7,173.4 234.1,173.9 233.6,173.9 233.6,173.3 233.0,172.9 232.5,173.1 232.9,172.3 233.5,171.9 234.1,172.4 234.7,171.7 235.2,171.0 235.6,171.9 " />
    <polygon id="Indonesia" points="231.3,172.1 230.5,172.9 229.5,174.0 228.8,174.0 228.2,174.0 227.6,173.9 227.1,173.9 228.0,172.8 228.7,172.5 228.9,172.0 228.3,172.0 229.4,171.4 229.4,172.1 229.9,172.5 230.3,171.8 231.4,171.0 232.6,171.3 232.0,171.8 231.3,172.1 " />
    <polygon id="Indonesia" points="267.1,171.1 267.2,171.6 266.4,171.7 266.2,171.2 266.7,171.2 " />
    <polygon id="Indonesia" points="173.3,175.7 173.4,176.3 172.7,176.8 172.8,176.3 172.2,176.3 170.9,176.9 170.4,176.8 169.5,176.3 168.9,176.6 167.7,176.1 167.6,175.5 168.3,175.7 169.4,175.3 169.6,174.4 169.4,173.6 169.7,172.7 171.0,171.4 171.6,171.2 172.6,171.2 174.1,171.7 174.6,172.2 174.3,173.8 173.6,175.1 173.3,175.7 " />
    <polygon id="Indonesia" points="227.4,172.7 225.9,172.8 225.3,172.8 225.5,172.1 226.4,171.4 226.9,171.3 227.8,171.5 227.8,172.4 " />
    <polygon id="Indonesia" points="196.7,173.0 197.3,173.3 197.7,173.9 197.2,174.1 196.7,174.3 196.5,174.8 196.7,175.4 196.0,175.4 196.3,174.8 196.3,173.0 " />
    <polygon id="Indonesia" points="224.9,174.0 224.4,174.3 224.3,173.8 225.1,173.1 226.4,172.9 225.8,173.4 224.9,174.0 " />
    <polygon id="Indonesia" points="147.8,173.4 147.2,173.5 147.0,173.0 147.9,173.1 " />
    <polygon id="Indonesia" points="198.5,175.9 197.9,175.7 198.2,174.8 198.1,174.3 198.8,175.0 198.8,175.5 " />
    <polygon id="Indonesia" points="165.6,175.9 164.9,175.7 164.8,174.9 165.4,174.8 165.8,175.4 " />
    <polygon id="Indonesia" points="242.6,178.0 241.0,179.2 242.3,181.0 241.5,181.5 241.1,182.0 241.1,182.6 240.6,183.1 239.4,184.2 238.5,185.1 237.8,185.6 237.5,186.1 236.8,186.8 236.1,186.9 235.6,186.9 234.2,187.0 233.4,187.7 232.8,187.9 232.3,188.2 231.7,188.5 230.1,188.5 229.4,188.2 229.1,187.5 230.0,186.8 230.6,186.7 231.1,186.4 230.8,185.8 230.3,185.8 229.8,185.1 230.3,184.7 230.6,183.3 230.5,182.8 231.5,181.6 233.0,180.4 233.6,180.2 236.0,181.2 236.8,179.0 237.5,178.9 238.0,178.8 238.5,178.4 239.2,177.9 239.8,177.5 240.7,177.2 242.6,178.0 " />
    <polygon id="Indonesia" points="201.3,180.6 201.6,181.1 202.2,181.3 202.9,181.5 203.0,182.1 203.1,182.7 203.7,182.9 204.6,182.5 205.8,183.4 206.0,184.1 206.4,184.6 206.9,184.9 207.5,185.4 207.8,185.9 206.9,187.1 206.1,187.4 205.0,187.6 204.2,187.7 202.8,187.5 201.8,186.9 201.3,186.2 200.9,185.5 200.4,185.3 199.3,184.8 198.7,184.4 198.4,183.9 196.9,183.5 194.8,183.5 194.0,183.3 193.4,183.1 192.4,182.0 192.8,181.3 193.4,180.9 194.2,180.7 195.2,180.4 196.0,180.5 197.7,180.3 198.2,180.3 198.8,180.6 199.4,180.6 200.3,180.1 201.1,180.3 " />
    <polygon id="Indonesia" points="228.4,188.3 227.8,188.3 227.6,187.7 228.3,186.9 229.2,186.9 228.5,188.2 " />
    <polygon id="Indonesia" points="216.0,190.4 215.1,190.4 214.9,189.9 215.8,189.2 216.4,188.9 217.0,189.0 217.1,189.6 216.1,190.4 " />
    <polygon id="Indonesia" points="226.9,192.1 226.4,192.1 225.2,192.4 224.0,193.0 223.6,192.0 224.6,191.5 225.7,191.0 226.6,190.2 227.2,189.7 228.2,189.1 228.4,190.3 228.3,191.0 227.7,191.1 227.0,191.8 " />
  </g>
</svg>