<?xml version="1.0" encoding="UTF-8" standalone="yes"?>
<!DOCTYPE svg PUBLIC "-//W3C//DTD SVG 1.0//EN" "http://www.w3.org/TR/2001/REC-SVG-20010904/DTD/svg10.dtd">
<svg height="250" width="370" xmlns="http://www.w3.org/2000/svg" xmlns:svg="http://www.w3.org/2000/svg" xmlns:xlink="http://www.w3.org/1999/xlink">


<g id="background">
<rect id="" width="370" height="250" fill="#222222"/>
</g>
  <g id="364" style="stroke-miterlimit: 3; fill: #F1F1F1; stroke: #000000; stroke-opacity: 1; stroke-width: 0.05; stroke-linejoin: bevel; stroke-linecap: square">
    <polygon id="Iran" points="37.5,6.2 38.5,6.9 39.4,8.0 39.8,9.0 39.8,9.5 41.3,10.0 42.0,10.1 42.6,9.9 43.2,10.4 44.6,12.2 44.6,12.8 45.5,13.5 46.2,13.8 47.7,14.1 51.7,14.9 53.6,15.2 55.7,15.4 57.5,16.0 58.5,15.6 59.1,15.2 60.3,14.8 62.1,15.1 63.2,15.3 64.2,14.7 65.5,13.7 67.0,12.6 67.2,12.0 68.7,10.6 69.3,10.4 69.8,10.4 70.4,10.6 71.9,10.0 72.1,9.3 73.1,8.1 74.1,7.6 74.7,7.5 76.2,6.9 76.8,6.6 77.2,6.0 78.1,5.3 79.1,4.8 80.6,4.5 84.4,2.6 84.9,2.0 88.0,1.0 88.7,1.4 89.4,1.9 89.9,2.4 91.1,3.5 92.0,4.3 92.7,4.9 93.2,5.2 93.9,5.8 94.5,6.6 93.2,7.3 92.5,7.5 91.8,7.5 91.1,7.9 90.6,8.5 90.5,9.1 90.7,9.6 92.1,10.8 92.8,11.0 93.3,11.2 94.0,12.3 93.9,12.8 93.4,13.4 92.9,13.7 92.2,13.8 91.6,13.8 90.9,13.8 89.8,14.0 88.7,14.9 88.6,15.5 88.8,16.1 90.2,16.9 90.9,17.3 91.6,17.5 92.4,17.8 92.5,18.6 93.9,20.0 94.6,20.0 95.4,19.7 95.9,19.7 98.0,22.2 98.6,23.2 99.1,23.6 99.8,23.7 101.0,23.1 101.6,22.7 102.5,22.6 103.5,22.7 103.2,24.3 103.2,25.0 103.9,29.5 104.4,31.8 105.2,33.9 105.5,34.5 106.2,35.4 107.2,36.3 107.9,36.9 110.1,38.0 110.7,38.2 112.6,38.9 113.7,39.1 116.0,39.2 120.4,39.5 121.3,39.6 125.4,40.6 125.9,40.7 126.3,41.7 126.5,42.5 127.4,44.1 127.8,44.7 128.4,45.2 130.6,46.7 132.4,47.6 133.2,47.9 137.5,50.1 138.8,50.8 139.4,51.2 140.7,51.8 142.5,52.1 143.1,52.2 144.3,52.4 145.8,52.6 147.1,52.9 147.8,53.1 149.8,53.5 154.3,54.3 156.0,54.4 156.7,54.4 157.5,54.2 158.2,54.1 158.8,53.9 159.4,53.7 159.9,53.5 160.7,53.3 161.4,53.1 163.8,52.6 164.7,52.5 166.7,52.2 170.0,51.7 172.7,51.0 173.6,50.7 174.2,50.6 177.2,49.8 181.1,49.3 182.5,49.1 185.6,49.0 188.0,48.9 189.1,48.8 190.3,48.4 190.4,48.9 187.4,49.4 185.8,49.5 184.8,49.4 184.0,49.4 184.2,49.9 184.8,50.3 185.3,50.4 188.3,50.8 189.5,50.7 190.5,50.4 191.0,50.1 191.0,49.4 191.0,48.1 190.7,46.9 189.5,43.5 188.8,41.3 193.9,41.7 196.5,41.1 197.2,40.9 198.6,40.2 199.1,40.0 199.8,39.7 200.3,39.6 201.1,39.8 201.7,39.8 203.3,38.8 203.8,38.4 204.1,37.7 204.1,36.8 203.7,36.3 204.2,35.2 204.6,34.6 205.2,34.2 206.1,33.9 206.7,33.6 208.0,32.6 208.6,31.9 209.6,31.2 210.5,30.9 211.3,30.6 213.7,29.7 214.5,29.1 215.4,28.7 216.9,28.6 218.8,28.4 219.7,28.3 220.4,28.2 221.1,28.2 221.7,28.5 222.3,28.7 224.0,29.0 225.0,29.0 225.6,28.9 226.3,28.8 227.2,28.7 228.2,29.1 229.9,28.9 230.4,28.2 230.3,27.7 229.9,27.1 230.7,26.6 231.5,26.0 232.4,25.8 233.6,25.7 234.3,25.9 236.2,25.7 237.3,25.4 237.9,25.9 238.6,26.3 239.2,26.4 240.5,26.7 242.3,27.0 243.6,26.3 244.0,25.8 244.6,25.5 245.5,25.6 247.7,28.7 247.7,29.2 247.4,30.3 247.9,30.7 249.1,31.3 250.4,31.5 251.9,31.5 253.2,31.5 261.4,33.7 262.2,35.0 262.2,35.5 265.4,36.4 266.4,36.4 266.9,36.3 269.4,36.0 270.0,36.2 270.5,36.2 271.9,36.0 274.2,35.9 275.1,36.1 276.3,36.5 277.7,37.5 278.9,38.2 279.5,38.5 280.0,38.4 280.6,38.1 281.2,38.1 281.7,38.7 281.8,39.2 281.7,40.1 282.0,41.4 283.6,43.3 284.7,43.7 287.6,44.8 289.3,45.2 292.6,46.5 293.5,47.0 293.8,47.6 294.2,48.3 294.8,49.1 298.0,53.1 298.6,53.3 301.0,53.3 303.3,53.3 306.0,53.2 308.3,53.2 310.7,53.2 312.0,53.2 312.6,54.5 312.2,57.0 312.6,59.4 313.2,61.1 313.2,61.9 313.1,62.4 312.9,63.1 313.0,65.3 313.3,65.9 313.9,67.3 313.4,69.4 313.4,69.9 313.7,70.5 314.3,71.6 314.2,72.4 312.6,75.3 311.3,76.4 311.1,77.2 311.0,78.1 311.7,78.9 311.7,79.8 311.4,81.0 310.7,83.3 310.3,84.9 309.1,87.1 307.0,88.6 305.7,88.8 305.1,89.0 305.3,90.1 305.8,90.3 307.5,92.2 307.4,92.8 306.7,92.8 305.5,92.8 304.9,92.8 304.1,92.9 301.7,94.9 301.2,95.7 301.0,96.7 301.1,97.4 301.3,98.1 301.4,98.9 301.8,101.2 301.8,101.7 301.5,102.2 301.0,102.7 301.2,103.5 301.3,104.2 302.1,104.9 303.8,105.6 304.5,105.8 305.7,105.7 307.0,105.8 307.5,105.8 308.1,106.0 308.5,106.5 307.6,106.7 307.1,106.8 306.1,108.6 305.3,109.4 304.7,110.0 303.2,111.7 302.5,112.5 302.3,113.8 302.4,114.5 302.6,115.0 303.6,118.4 304.8,121.7 306.6,126.8 306.9,127.8 307.0,128.3 307.0,129.0 306.7,130.7 306.3,131.9 306.4,133.0 306.4,136.1 306.2,138.1 306.8,140.8 311.2,141.4 312.6,141.6 317.1,142.2 321.6,142.8 322.0,143.3 322.5,143.9 322.5,144.9 322.8,145.6 323.2,146.3 323.9,148.6 323.8,149.1 322.3,152.8 315.8,159.8 314.1,161.4 313.1,162.5 312.5,163.1 310.1,165.5 307.9,167.9 307.3,168.5 310.1,171.6 314.2,175.9 314.8,176.5 315.4,178.1 315.6,178.8 316.7,180.6 318.1,182.1 318.7,183.5 319.3,184.8 320.3,186.6 323.4,189.6 324.8,190.8 325.4,191.2 330.0,192.5 331.7,192.8 333.1,193.1 334.7,194.1 335.5,195.3 336.5,196.3 337.1,196.2 338.1,196.0 339.7,195.7 339.8,196.7 339.7,197.4 339.5,199.0 339.3,200.2 339.4,200.7 340.1,203.1 340.3,203.9 340.4,204.7 340.7,209.2 340.1,210.7 339.7,212.6 340.1,213.2 342.1,213.6 343.4,213.4 344.1,213.2 346.8,212.7 348.2,213.4 349.0,214.6 349.2,215.2 348.2,215.2 347.7,215.9 347.7,216.4 347.8,218.2 347.1,219.8 346.7,223.3 344.6,223.5 343.7,223.3 343.0,223.3 340.5,223.2 339.6,223.2 339.1,223.8 338.4,224.0 336.6,224.4 335.7,224.5 335.1,224.5 334.0,224.6 331.9,225.5 331.1,227.0 331.3,227.6 331.3,228.1 330.5,228.2 329.5,228.0 329.0,227.8 328.2,228.9 327.5,229.0 324.3,230.1 323.8,230.7 323.6,231.2 323.3,232.4 322.9,235.0 322.7,236.5 322.6,237.4 321.8,237.7 321.1,237.7 320.7,241.2 320.6,242.7 320.5,244.6 320.5,245.4 320.4,246.2 319.8,247.9 319.3,247.9 318.3,248.4 317.9,249.3 317.0,250.0 316.3,249.9 313.3,249.3 312.9,248.6 309.3,247.7 305.7,247.1 304.6,246.9 303.6,246.8 303.0,246.7 302.7,245.7 302.7,245.1 302.7,244.6 302.2,243.9 301.3,243.7 300.7,243.8 300.2,243.9 299.4,244.5 299.1,245.1 299.3,245.6 300.0,245.7 300.4,246.7 297.7,245.7 297.4,245.2 295.8,245.1 294.0,244.9 291.7,244.9 289.7,244.3 288.9,244.3 287.9,244.3 286.7,244.5 286.1,244.6 285.3,244.4 284.4,243.6 283.8,243.2 283.1,243.2 282.6,243.2 281.7,243.4 279.6,244.0 277.9,244.5 276.3,244.6 275.8,244.5 274.7,243.3 274.3,242.8 273.8,242.4 272.3,241.8 271.5,241.7 270.8,241.8 266.9,241.3 265.2,241.0 264.4,241.0 263.8,241.5 261.3,242.1 260.7,242.1 259.8,241.8 259.2,241.5 258.6,240.8 258.4,240.3 258.1,239.7 257.3,239.4 256.2,239.7 255.6,240.0 254.7,239.9 254.8,239.4 254.4,238.8 253.8,238.6 252.8,238.6 252.1,238.9 250.3,238.7 246.9,238.2 246.6,237.7 246.5,237.1 246.4,236.6 246.0,235.6 245.5,234.7 244.9,234.4 244.3,233.1 244.4,232.4 242.9,227.4 242.7,226.7 243.0,225.9 243.0,225.1 243.0,224.3 242.9,223.6 242.6,222.4 242.4,221.9 242.1,220.7 241.9,220.0 241.5,219.4 239.2,217.2 238.7,216.7 239.0,216.0 238.2,215.2 236.2,214.8 235.4,214.6 234.9,214.6 233.5,214.5 230.6,213.9 229.9,213.9 226.7,214.6 224.1,216.2 223.7,216.8 221.9,217.2 221.0,217.2 219.2,217.3 218.6,217.5 217.8,218.2 217.3,218.7 217.4,219.7 217.5,220.3 217.5,220.8 215.6,221.3 215.0,221.4 213.8,221.4 212.2,220.9 211.6,221.0 210.2,222.1 204.9,225.5 203.9,225.9 202.2,225.7 198.5,224.3 196.6,223.1 196.1,222.4 195.4,222.1 194.5,222.2 194.0,222.4 193.0,222.4 191.9,222.1 189.3,222.2 187.7,222.4 186.1,222.2 185.1,221.8 184.4,221.5 181.8,219.8 181.4,219.0 181.4,218.3 181.0,217.8 180.2,217.3 178.7,217.0 177.5,216.6 176.3,216.2 175.3,215.8 173.4,215.1 170.9,213.7 170.3,213.1 169.3,212.4 168.1,211.8 167.6,211.7 166.9,211.4 166.2,210.8 166.8,210.3 167.1,209.4 165.6,207.7 164.9,206.9 163.9,206.4 162.6,206.2 160.6,205.7 159.7,205.4 159.1,204.9 158.7,204.4 157.4,203.4 156.8,203.2 156.1,203.0 153.4,202.8 152.9,202.8 151.7,203.1 149.7,203.0 146.7,201.3 145.0,199.5 143.9,197.6 143.5,195.6 141.8,193.3 141.0,191.8 140.7,190.8 140.7,190.1 140.7,188.7 140.4,187.8 139.9,187.1 138.7,186.4 138.0,186.2 137.4,186.2 136.9,185.7 136.1,184.6 136.0,183.8 136.5,183.4 137.1,183.7 137.6,184.3 138.1,183.3 138.2,182.6 137.5,181.5 136.6,181.0 134.7,181.0 134.2,181.2 133.3,180.9 133.1,180.2 133.6,179.0 133.8,176.6 133.6,175.9 133.3,175.4 130.3,172.7 129.8,172.4 129.3,172.3 127.2,169.6 126.6,168.8 126.0,168.3 125.2,167.7 124.7,167.1 124.8,166.4 124.8,165.8 124.7,165.1 124.3,164.2 123.8,163.3 123.2,162.8 122.5,162.6 121.2,162.7 120.3,163.1 119.7,163.4 117.7,164.7 115.3,166.1 114.8,166.1 113.9,165.4 113.9,164.8 113.8,164.0 113.2,163.5 112.6,163.4 111.4,163.4 110.8,163.5 109.5,163.1 105.5,161.3 104.1,159.8 106.4,159.4 107.3,159.6 108.6,160.1 109.2,159.9 109.9,159.1 109.2,158.2 108.7,158.0 107.1,157.5 106.1,157.5 105.2,157.6 104.6,157.8 103.2,160.1 103.0,160.9 103.3,161.5 103.8,161.8 104.3,162.8 104.5,163.5 104.3,164.8 104.1,165.5 103.3,165.9 101.5,165.8 100.5,165.8 99.6,166.2 99.4,166.9 98.8,167.1 97.7,166.9 96.7,166.7 96.1,166.3 95.4,164.5 95.3,163.5 95.5,162.9 93.3,160.7 91.1,159.0 90.3,158.6 89.7,158.4 89.0,157.9 89.0,156.3 89.0,155.1 89.0,150.2 89.1,149.4 87.1,149.3 85.8,149.3 83.2,149.3 83.2,147.4 83.2,146.0 83.3,145.3 83.3,144.1 83.3,142.3 83.6,141.5 84.1,140.3 85.0,138.2 85.6,136.9 86.1,135.7 84.8,134.2 84.0,133.4 82.2,131.4 81.7,130.6 80.4,128.9 78.6,126.6 78.7,126.1 78.8,125.5 77.7,124.3 76.2,123.9 75.7,124.2 74.8,124.4 74.1,124.5 72.6,123.7 70.7,122.3 69.8,121.7 69.0,120.9 67.1,119.5 66.6,119.2 65.5,118.7 63.9,117.7 62.9,117.0 62.1,116.5 61.3,116.2 60.8,116.1 59.6,115.9 59.0,115.8 57.9,116.0 57.1,116.1 56.4,115.9 56.1,115.3 56.3,113.9 56.9,113.0 57.6,112.3 57.5,110.9 56.6,110.1 55.3,108.9 55.3,108.3 55.2,107.8 54.5,107.0 53.6,107.1 52.3,106.9 52.6,106.3 53.3,106.0 52.7,104.5 51.5,104.6 50.9,105.0 50.2,105.3 50.2,104.4 49.5,104.1 48.5,102.9 48.4,102.4 46.8,100.2 46.1,99.3 45.5,99.3 44.9,99.2 44.3,98.8 45.3,97.0 46.6,96.1 47.3,93.4 47.1,92.7 46.5,92.3 45.9,92.6 45.3,91.9 44.8,90.7 47.0,88.3 48.4,88.5 49.3,88.7 49.8,88.5 49.5,87.1 49.1,86.4 48.6,86.1 49.0,84.6 49.7,84.2 50.2,84.1 51.0,82.7 51.7,83.0 52.6,82.0 52.4,81.3 52.3,80.8 53.3,79.6 54.3,80.0 54.9,80.3 57.0,79.6 57.7,77.8 57.3,77.3 56.7,76.6 55.5,74.8 54.4,73.2 54.2,72.7 54.1,71.3 54.8,69.7 55.6,69.4 56.2,69.5 56.9,69.5 58.3,69.2 59.0,68.9 60.1,68.1 60.3,67.4 59.8,67.1 59.2,67.2 57.9,67.6 57.2,67.5 56.8,67.0 56.3,66.6 52.8,67.0 52.2,67.4 50.4,67.5 49.9,66.9 49.6,66.2 49.0,65.6 48.2,64.8 46.3,64.1 45.5,64.0 44.6,64.3 43.4,63.2 43.3,62.0 42.9,60.2 42.2,57.8 41.6,57.0 40.9,57.0 40.2,57.3 39.7,57.3 39.2,57.2 38.9,56.6 38.4,55.7 37.6,55.0 38.0,53.9 38.5,53.3 38.6,52.7 37.9,51.8 36.6,51.0 35.8,51.0 35.3,50.9 34.8,50.5 35.3,49.6 35.8,49.2 35.9,48.6 35.9,46.9 35.2,46.4 34.3,46.3 33.8,45.8 33.4,45.3 33.8,44.7 34.3,42.7 34.3,42.1 31.4,40.0 30.9,39.9 30.4,36.8 30.6,35.5 31.0,35.0 30.3,34.3 25.4,32.4 24.2,32.0 24.5,30.9 25.9,28.6 27.2,26.7 28.4,25.0 28.7,24.4 27.9,23.6 26.1,23.8 25.6,22.7 25.8,22.2 25.9,21.6 25.8,19.8 25.7,19.3 24.9,18.0 25.5,16.6 25.6,16.1 25.2,15.6 24.6,15.5 24.0,15.1 23.4,13.8 23.1,13.2 23.8,12.3 24.1,11.1 21.7,7.6 21.0,6.9 21.5,6.3 23.8,6.2 24.4,6.3 25.4,6.7 26.2,6.5 27.1,6.2 27.7,5.8 28.5,2.4 28.4,1.4 30.7,0.0 32.8,1.3 34.2,2.5 35.1,2.7 35.7,3.7 36.2,5.2 36.6,5.9 37.4,6.2 " />
    <polygon id="Iran" points="128.0,179.7 127.5,179.0 128.1,178.7 128.1,179.6 " />
    <polygon id="Iran" points="232.4,216.6 231.9,216.5 231.8,215.9 232.3,215.5 233.0,215.8 232.7,216.6 " />
    <polygon id="Iran" points="228.6,218.5 227.1,219.5 226.7,220.1 225.5,221.2 224.2,221.9 222.9,222.2 221.4,222.2 219.3,222.6 216.9,223.7 213.0,225.0 212.5,225.1 212.1,223.2 212.8,223.3 213.6,223.4 216.2,222.4 217.6,221.8 218.3,221.5 218.8,221.2 219.5,221.0 220.2,221.0 220.8,220.0 220.5,219.3 220.1,218.8 220.2,218.1 221.7,218.6 223.7,218.5 224.4,218.0 226.1,217.5 227.1,217.3 228.2,217.3 229.1,217.7 228.6,218.5 " />
    <polygon id="Iran" points="219.9,220.0 219.9,220.7 218.8,220.8 218.3,220.9 218.1,220.1 218.3,219.5 219.1,218.5 219.6,219.1 219.9,220.0 " />
    <polygon id="Iran" points="230.3,220.3 229.8,220.1 230.1,219.5 231.1,219.1 231.3,219.7 230.7,220.1 " />
    <polygon id="Iran" points="178.8,220.7 178.2,220.9 177.4,220.8 176.9,220.6 176.2,220.3 176.2,219.7 176.7,219.8 178.6,220.3 " />
    <polygon id="Iran" points="191.0,226.0 190.1,226.0 189.5,225.9 188.9,225.6 188.9,225.0 189.5,224.7 190.7,224.9 191.3,225.6 " />
  </g>
</svg>