<?xml version="1.0" encoding="UTF-8" standalone="yes"?>
<!DOCTYPE svg PUBLIC "-//W3C//DTD SVG 1.0//EN" "http://www.w3.org/TR/2001/REC-SVG-20010904/DTD/svg10.dtd">
<svg height="250" width="370" xmlns="http://www.w3.org/2000/svg" xmlns:svg="http://www.w3.org/2000/svg" xmlns:xlink="http://www.w3.org/1999/xlink">


<g id="background">
<rect id="" width="370" height="250" fill="#222222"/>
</g>
  <g id="368" style="stroke-miterlimit: 3; fill: #F1F1F1; stroke: #000000; stroke-opacity: 1; stroke-width: 0.05; stroke-linejoin: bevel; stroke-linecap: square">
    <polygon id="Iraq" points="249.4,74.2 248.7,75.9 248.0,76.6 247.5,76.7 246.6,76.8 246.1,77.2 245.0,79.4 245.0,80.0 245.5,80.4 246.1,80.8 246.7,81.9 247.3,83.9 247.1,84.9 246.4,84.8 244.9,84.4 242.3,84.1 238.7,87.6 238.5,88.2 239.2,90.2 240.0,91.6 240.7,91.4 241.5,91.1 242.5,91.7 242.9,92.4 242.9,93.0 242.5,97.0 242.1,97.5 239.5,99.3 237.4,102.3 238.0,103.1 239.1,103.5 239.6,103.5 240.1,103.2 240.6,103.4 241.9,105.0 244.5,108.4 244.7,109.0 244.8,109.6 246.1,111.4 246.8,111.9 248.0,112.6 247.7,113.6 248.4,114.0 249.1,113.6 250.0,112.9 252.4,112.7 253.9,114.8 252.4,115.9 251.7,116.5 253.3,117.2 254.0,117.3 255.6,117.1 256.3,117.9 256.7,118.4 256.9,119.0 256.9,119.6 256.9,120.4 259.2,122.6 260.5,123.4 260.9,124.1 261.4,125.8 261.1,126.4 259.8,127.6 258.8,129.2 258.4,131.5 258.4,132.3 258.9,132.8 259.9,133.1 260.8,133.1 261.5,132.9 262.8,132.7 263.5,132.7 264.6,132.8 266.6,133.2 267.6,133.4 268.2,133.6 269.0,133.9 270.2,134.6 272.2,136.0 275.1,137.7 276.3,138.3 277.0,138.6 277.9,139.1 280.7,141.3 281.2,141.7 281.8,142.2 282.6,143.0 283.5,143.7 284.1,144.2 287.1,146.2 287.6,146.6 289.3,147.7 289.9,147.9 291.4,147.9 292.8,147.6 293.5,147.0 296.2,147.4 298.5,149.8 298.6,150.6 298.0,151.1 298.1,151.7 301.4,155.8 303.6,158.7 304.4,160.1 307.6,163.6 309.1,165.1 311.0,167.2 311.4,167.8 310.5,169.9 309.5,172.2 307.9,175.9 307.0,178.1 306.4,179.5 306.4,182.6 306.4,184.7 306.4,185.9 306.3,188.4 306.3,191.7 310.8,191.8 313.2,191.8 316.6,191.9 316.6,193.4 316.5,202.1 316.5,204.2 316.5,207.1 317.3,207.8 318.0,208.0 318.7,208.2 319.7,208.6 320.3,209.0 324.2,211.9 327.7,215.5 328.0,216.3 327.7,216.9 327.8,218.7 328.9,221.4 329.6,222.3 331.9,222.9 332.4,223.6 331.8,224.0 331.3,224.1 328.8,224.0 327.0,223.6 325.8,223.2 324.7,222.7 323.9,222.2 323.1,221.8 322.5,221.5 321.2,220.9 320.5,220.7 319.8,220.6 318.3,220.4 317.7,220.5 314.3,220.8 313.7,221.3 307.4,219.3 298.6,219.3 297.4,219.3 296.0,219.4 291.8,220.7 290.6,221.4 289.7,222.1 288.9,223.4 288.4,224.5 286.9,228.0 284.9,232.4 283.9,234.3 283.4,235.0 281.2,237.6 280.3,238.8 278.7,241.1 276.9,243.9 276.2,244.9 275.2,246.1 274.5,246.5 273.4,247.2 272.9,247.5 272.3,248.1 271.9,248.7 268.2,250.0 259.1,249.3 217.0,245.9 189.7,225.8 167.3,209.3 163.1,206.3 137.8,188.4 118.5,180.6 87.6,163.3 77.4,161.6 59.8,158.6 51.1,157.1 54.2,154.6 53.0,151.1 46.5,152.6 44.7,147.4 47.8,146.7 39.0,120.4 44.0,118.0 56.8,111.9 62.6,109.2 69.1,106.1 75.2,103.2 80.2,100.9 81.2,100.4 95.1,93.8 105.4,89.1 106.2,87.4 108.2,83.4 111.9,78.3 111.9,74.1 111.7,69.6 111.6,68.2 111.6,66.1 111.6,65.6 111.7,64.9 111.9,64.0 112.4,62.6 112.6,62.0 112.9,61.3 113.1,60.6 113.3,59.8 113.4,58.3 113.4,57.6 113.6,56.7 114.9,55.1 116.8,52.8 116.6,46.5 116.0,45.3 113.4,40.8 112.9,39.9 114.0,30.9 116.3,27.4 117.3,25.8 130.3,23.6 146.3,9.9 146.7,9.3 146.0,8.3 146.6,8.0 151.2,7.1 152.5,7.1 152.9,6.5 157.0,1.0 158.3,0.4 158.9,0.0 159.8,0.1 160.0,0.7 162.1,1.5 163.0,1.7 163.8,1.9 164.6,1.7 165.3,1.4 170.0,0.3 179.9,4.0 184.0,4.6 189.8,4.9 192.5,4.9 193.5,4.0 193.9,3.4 195.5,2.1 196.8,1.9 197.5,2.1 198.2,2.0 198.8,2.1 202.2,3.2 203.1,4.1 203.3,4.7 203.4,5.7 203.4,6.4 202.4,6.9 201.2,8.3 201.4,9.0 203.0,12.0 204.9,12.4 205.6,11.4 205.9,10.4 208.5,9.7 209.5,9.1 210.1,8.8 211.8,7.7 212.3,7.2 212.8,6.7 214.5,5.9 217.8,6.3 218.4,6.5 219.0,7.1 218.3,8.0 218.9,9.0 219.9,9.9 220.7,10.0 221.4,10.0 222.3,10.5 222.7,13.9 222.6,14.5 222.4,15.1 221.7,15.6 220.8,16.7 220.7,17.3 221.1,17.8 221.6,18.0 222.6,18.1 223.6,18.1 226.2,19.5 227.3,21.0 227.4,22.1 227.1,22.7 226.6,23.1 225.9,24.8 226.9,26.3 227.9,27.7 227.9,28.3 228.2,28.8 229.0,29.2 229.7,29.3 230.4,29.2 231.0,29.1 231.5,28.9 232.1,28.6 232.8,28.8 233.8,30.1 235.0,34.4 235.7,37.6 236.0,39.7 237.6,41.9 239.5,41.1 240.6,41.0 243.9,42.6 244.4,42.6 245.3,43.4 245.9,43.9 246.8,45.0 247.4,45.8 247.5,46.5 248.1,47.1 251.3,47.1 251.9,46.9 252.5,46.3 257.8,45.6 258.5,45.6 259.3,46.0 259.8,46.7 260.4,47.3 260.9,47.5 261.6,47.5 263.2,47.2 263.9,46.7 264.4,46.6 264.9,46.6 265.6,46.8 265.9,47.4 265.5,48.3 263.5,49.8 262.3,50.2 260.1,50.7 258.9,50.8 257.7,50.7 256.8,50.8 256.1,51.2 254.8,54.1 255.0,56.6 255.2,57.2 257.0,59.6 259.9,62.7 259.4,63.4 260.1,64.6 260.7,64.7 261.2,65.3 260.6,68.2 260.0,68.7 256.8,69.8 256.2,69.8 255.2,69.4 254.2,68.9 253.4,68.7 251.8,70.6 251.8,71.7 252.1,72.2 252.2,72.9 251.5,74.5 250.8,74.7 249.4,74.2 " />
  </g>
</svg>