<?xml version="1.0" encoding="UTF-8" standalone="yes"?>
<!DOCTYPE svg PUBLIC "-//W3C//DTD SVG 1.0//EN" "http://www.w3.org/TR/2001/REC-SVG-20010904/DTD/svg10.dtd">
<svg height="250" width="370" xmlns="http://www.w3.org/2000/svg" xmlns:svg="http://www.w3.org/2000/svg" xmlns:xlink="http://www.w3.org/1999/xlink">


<g id="background">
<rect id="" width="370" height="250" fill="#222222"/>
</g>
  <g id="372" style="stroke-miterlimit: 3; fill: #F1F1F1; stroke: #000000; stroke-opacity: 1; stroke-width: 0.05; stroke-linejoin: bevel; stroke-linecap: square">
    <polygon id="Ireland" points="239.0,27.1 236.6,31.6 235.7,33.2 234.1,35.0 229.6,39.2 217.8,42.6 212.7,41.2 212.1,41.0 211.2,41.1 206.0,43.1 206.7,45.1 210.4,47.4 215.4,47.9 217.0,49.9 211.8,52.5 204.4,53.9 198.3,55.5 190.3,58.2 191.1,59.6 197.1,64.0 197.7,64.4 198.4,64.7 199.3,65.0 205.0,68.7 207.6,69.0 209.0,69.3 209.5,71.6 209.5,73.0 210.0,73.8 210.7,74.2 212.6,75.0 217.3,75.0 220.1,74.8 224.9,76.9 225.1,77.8 225.4,78.4 226.0,78.6 229.2,79.6 243.8,80.5 244.9,80.6 246.5,80.0 255.5,73.4 255.8,71.7 253.6,69.3 254.6,66.3 261.1,61.6 262.5,61.2 263.2,61.2 266.4,62.2 269.4,63.6 270.0,64.0 272.6,65.8 274.3,69.1 281.6,76.0 286.7,83.6 288.1,84.8 288.9,85.3 289.7,85.0 292.3,84.5 299.9,84.0 305.1,81.4 305.2,80.8 305.8,80.4 306.8,80.4 310.0,80.8 310.6,80.9 311.3,81.2 311.2,81.8 313.0,83.0 317.5,85.4 318.2,85.8 319.1,85.9 319.8,85.7 321.6,87.5 321.6,88.2 320.6,88.8 319.5,89.3 318.9,89.5 318.0,89.4 313.8,88.5 310.0,87.4 308.5,87.1 307.3,86.9 306.4,86.8 305.7,86.9 304.1,90.6 304.1,93.0 304.6,94.1 305.3,94.8 306.0,95.3 306.9,95.8 307.6,96.0 309.9,96.3 312.1,98.3 313.1,101.5 312.6,103.3 312.4,105.0 312.4,105.5 313.0,108.0 313.3,108.6 314.7,110.9 318.8,113.7 320.4,114.0 321.9,114.2 323.2,115.4 323.4,116.4 323.4,116.9 323.4,117.8 318.8,126.7 318.2,126.9 314.0,128.8 314.3,129.5 316.9,131.7 321.3,135.2 326.1,144.0 327.5,154.7 323.9,159.8 321.5,161.4 320.8,161.9 319.6,163.8 319.1,164.7 318.9,165.3 318.7,166.1 318.9,167.9 316.2,170.6 314.7,172.4 314.2,173.9 314.2,174.7 314.3,175.5 314.9,176.2 315.5,177.9 315.6,178.9 315.6,179.5 314.9,180.6 313.7,181.9 312.8,182.8 305.3,189.8 299.1,190.9 298.1,191.0 296.6,192.1 302.2,196.6 304.0,197.2 307.1,198.8 307.9,199.5 307.6,200.4 305.6,203.3 305.0,203.5 303.7,203.5 303.0,203.4 298.7,202.5 288.7,202.6 278.2,201.0 276.3,202.9 275.6,203.8 273.0,204.4 271.0,204.2 270.3,201.9 266.1,197.2 265.1,196.8 264.9,197.5 265.5,198.0 266.4,199.9 266.6,200.7 266.4,204.1 264.9,205.8 262.5,206.3 258.4,206.6 254.6,205.2 241.3,206.2 237.1,206.8 228.0,208.4 225.4,210.7 226.5,210.8 228.7,211.0 230.0,211.2 227.6,215.1 219.5,218.7 218.7,218.7 213.2,218.5 212.4,218.3 211.9,218.1 210.7,216.2 210.7,217.2 210.7,218.1 210.5,218.6 208.3,221.7 200.1,225.3 195.7,226.8 190.7,228.0 186.4,227.7 186.1,227.2 186.8,225.5 188.1,225.1 189.7,224.4 187.9,222.1 183.0,221.8 178.0,221.6 176.9,221.6 174.9,222.1 174.0,222.4 174.6,222.6 175.9,222.7 177.6,222.6 178.5,222.7 179.2,222.8 180.0,223.2 181.9,226.2 182.4,227.2 182.4,230.0 181.6,231.0 179.7,232.4 179.1,232.6 174.7,233.4 167.9,236.0 166.8,237.1 165.8,238.0 157.1,241.9 154.4,241.7 145.1,242.3 138.7,242.7 130.6,243.5 127.3,245.4 123.3,247.5 122.8,247.8 115.3,248.4 114.4,248.5 113.7,248.4 108.8,244.6 97.1,245.9 93.0,248.4 92.1,249.0 88.9,249.6 87.0,249.9 86.4,250.0 85.8,250.0 85.8,248.3 86.8,247.2 88.5,246.4 92.2,244.9 93.1,244.7 94.5,244.1 95.1,243.9 96.2,243.4 100.0,240.8 100.1,239.6 94.4,241.5 87.8,243.5 86.5,243.8 85.0,244.0 84.3,243.9 88.2,241.2 90.3,240.2 98.8,237.5 102.7,236.5 104.3,236.3 105.0,236.2 107.8,235.3 108.4,235.1 109.0,234.6 109.6,233.0 109.0,232.3 103.7,230.7 102.8,232.6 97.9,234.6 95.7,235.1 88.3,236.5 86.5,236.8 78.6,238.3 78.3,238.9 77.6,239.3 72.5,240.5 71.8,240.6 65.7,240.6 65.9,239.4 70.3,237.4 74.9,235.2 75.4,233.3 74.7,233.2 74.4,232.6 75.6,232.0 80.2,230.2 88.4,227.4 100.1,223.4 100.9,223.0 96.9,223.1 94.0,223.6 92.6,223.9 78.0,227.5 70.9,229.3 67.7,230.5 62.5,228.4 63.2,226.7 63.1,226.2 61.4,224.6 60.7,224.4 59.5,224.6 58.6,224.9 52.6,228.6 51.7,224.8 50.5,222.5 57.4,215.5 58.3,215.2 66.3,213.1 67.7,212.8 68.4,212.7 70.5,212.3 75.0,211.6 86.8,207.0 89.6,205.3 86.1,205.1 84.1,205.1 82.3,205.2 81.4,205.2 77.8,205.6 72.6,206.1 70.7,206.4 68.2,206.9 62.4,208.0 56.7,207.9 53.2,207.6 50.9,207.7 49.9,208.2 46.4,208.9 45.6,208.8 44.6,208.3 44.1,206.6 44.0,205.5 44.5,203.5 51.3,200.2 57.3,197.8 58.2,197.5 61.2,196.9 63.4,196.5 64.1,196.6 64.2,197.4 77.2,200.1 79.2,200.2 81.5,200.2 90.2,199.3 90.1,198.7 88.8,198.0 88.0,197.9 84.6,196.6 84.3,190.6 89.2,186.6 94.5,182.2 94.8,180.1 96.0,179.2 97.7,178.6 98.5,178.5 114.3,177.9 115.0,178.6 116.6,178.5 123.6,177.6 138.7,174.7 149.2,172.5 147.3,170.9 141.1,168.8 135.9,168.4 135.6,169.1 133.5,171.0 131.9,172.4 129.5,174.4 128.4,175.2 127.8,175.4 127.1,175.6 126.3,175.6 122.3,175.8 107.2,175.6 102.5,174.2 93.6,176.5 92.9,177.0 93.1,177.8 87.2,179.1 81.4,179.8 80.5,179.8 78.8,179.7 78.2,179.5 79.5,178.5 83.8,177.4 85.5,177.2 86.1,177.0 91.0,174.2 101.8,167.4 106.8,163.9 111.9,158.5 112.6,155.9 108.4,155.9 107.7,155.7 107.6,155.0 119.9,142.4 120.8,141.7 121.6,141.7 123.0,142.1 125.2,143.1 126.7,144.0 127.9,144.4 133.3,143.8 137.6,142.0 135.5,141.2 134.9,141.0 138.9,140.9 141.2,142.4 141.8,142.1 141.4,134.5 140.2,134.3 135.6,134.0 134.8,134.0 134.2,134.3 131.3,134.8 127.0,135.5 124.9,135.6 123.1,135.6 118.6,135.7 109.8,136.4 107.4,137.0 106.1,137.1 99.1,136.5 98.4,136.2 98.0,135.7 98.0,135.1 98.9,132.2 100.3,130.9 101.0,130.9 102.3,129.9 102.4,127.1 101.9,126.9 96.5,126.7 95.5,127.0 93.2,128.3 92.8,129.5 90.7,131.4 88.2,132.5 80.4,131.2 81.3,128.9 84.1,127.8 85.7,127.6 86.3,127.4 86.9,127.1 87.5,126.7 87.8,126.0 87.0,125.0 86.5,124.7 81.7,125.2 79.2,126.2 78.9,126.8 76.8,127.6 73.3,127.2 63.0,125.3 61.3,116.9 62.3,116.3 71.9,113.1 74.1,112.8 82.0,112.4 86.9,113.3 87.6,113.5 92.9,113.4 93.5,113.2 89.2,113.0 88.2,113.0 86.9,112.8 85.6,112.4 82.9,111.4 80.2,110.4 79.7,110.1 79.0,107.3 80.1,103.0 80.7,102.8 83.6,102.3 94.2,101.4 97.4,101.5 98.0,101.7 98.9,101.7 100.4,101.4 101.6,100.7 100.7,100.4 98.5,99.6 98.7,98.2 99.5,97.8 100.3,97.7 101.0,97.5 102.0,96.6 101.7,94.6 93.4,94.3 91.6,94.3 89.1,94.4 88.4,94.6 87.8,95.1 87.3,95.4 85.7,95.9 84.2,96.2 80.7,96.7 79.9,96.8 78.2,96.3 79.7,90.9 80.7,90.6 82.8,90.8 85.8,91.4 86.4,92.2 86.5,93.2 87.0,93.5 87.8,93.1 87.6,91.4 85.0,89.0 83.5,87.8 78.2,83.8 78.1,80.7 78.8,79.8 77.4,76.3 73.8,73.8 73.1,73.9 68.9,78.3 69.6,79.7 70.1,81.6 69.2,82.2 67.4,82.1 66.7,81.9 66.1,81.4 66.0,80.6 67.0,73.1 69.0,71.4 70.1,70.6 73.6,68.6 74.3,68.6 81.4,71.1 80.9,72.1 80.2,72.9 79.0,73.6 77.8,73.8 77.3,73.8 76.8,73.6 76.2,73.0 75.6,72.7 75.2,73.4 75.8,74.1 76.5,74.3 79.2,74.5 80.6,74.5 81.2,74.3 82.4,73.4 83.6,70.6 83.9,67.9 83.8,67.4 84.4,66.9 86.7,66.5 89.9,66.8 90.6,67.0 100.4,67.8 106.1,67.8 116.3,67.6 120.8,68.8 124.2,70.2 125.1,72.6 128.1,76.4 129.3,77.6 129.1,76.8 129.4,74.9 133.9,69.9 134.7,69.6 136.0,69.5 141.7,69.7 142.9,69.9 153.7,71.0 161.8,71.4 170.9,70.3 168.8,67.2 168.2,67.0 167.6,66.8 164.1,66.1 162.8,66.2 161.4,66.5 160.1,66.7 158.9,66.2 158.8,65.5 159.9,64.7 173.6,59.3 176.1,58.3 177.0,58.0 179.1,57.8 183.2,57.6 184.2,54.7 188.5,51.3 190.4,50.1 189.3,47.4 176.4,48.0 165.7,48.7 164.1,49.0 161.4,48.4 158.0,47.8 156.6,46.9 153.7,46.5 151.1,45.9 150.4,43.8 154.0,41.6 154.5,41.4 158.7,39.4 161.6,38.8 167.3,37.9 170.1,37.3 177.8,34.8 178.8,34.4 181.2,32.4 179.9,30.4 179.3,30.2 177.6,30.3 176.9,30.5 177.0,31.0 177.0,31.7 176.0,31.6 173.4,30.7 172.2,29.6 172.0,28.1 175.8,28.4 176.8,27.8 175.6,27.2 174.1,26.3 172.2,24.5 181.1,17.2 189.7,15.1 199.8,12.6 202.4,10.4 204.7,11.7 207.6,12.9 209.3,11.5 210.2,10.1 214.4,8.7 214.2,10.2 213.0,11.3 213.3,12.9 215.8,12.5 219.5,14.1 220.1,14.9 220.5,16.0 220.2,17.1 220.0,17.9 220.5,18.2 222.3,15.1 221.8,13.5 220.4,10.6 219.6,10.1 219.0,10.4 218.9,10.9 219.0,11.8 219.6,13.1 217.9,12.8 216.9,12.1 214.7,11.4 214.5,10.7 216.2,9.5 218.0,8.5 220.4,7.5 222.2,6.9 223.0,6.7 224.3,7.1 231.2,16.0 231.3,17.0 231.1,18.1 230.6,18.7 229.0,18.9 228.2,19.4 226.8,20.3 225.6,20.7 224.3,21.7 221.4,27.0 222.6,27.1 223.8,26.6 226.1,25.3 228.2,23.8 229.0,23.4 231.6,22.4 232.6,22.1 234.4,21.7 235.5,21.5 236.4,20.8 235.9,16.0 232.1,12.7 231.4,12.3 230.2,11.8 229.8,11.2 230.0,10.4 232.2,6.7 239.9,5.7 242.3,3.0 239.4,0.2 240.7,0.0 249.5,1.8 252.6,2.9 253.2,3.2 261.5,6.9 267.6,8.3 268.7,8.8 268.9,10.2 267.7,10.7 260.5,13.1 255.6,14.6 254.7,14.9 253.1,15.8 252.2,16.4 248.7,19.7 244.0,21.3 239.0,27.1 " />
    <polygon id="Ireland" points="168.3,26.4 167.8,26.5 166.1,26.3 165.5,26.1 165.4,24.9 166.3,23.6 167.0,23.2 167.8,23.3 169.9,24.3 170.5,25.7 168.3,26.4 " />
    <polygon id="Ireland" points="173.5,27.7 172.7,27.6 172.4,27.0 173.0,26.9 173.6,27.4 " />
    <polygon id="Ireland" points="76.4,86.5 77.9,87.8 79.0,90.8 78.9,92.5 77.9,94.9 77.3,95.4 76.6,95.6 75.5,95.4 70.6,93.5 70.3,92.8 70.2,92.3 64.5,90.3 63.1,90.2 57.4,89.7 57.3,89.1 61.7,87.2 64.1,87.1 66.2,87.6 69.8,86.3 75.8,86.3 76.4,86.5 " />
    <polygon id="Ireland" points="96.0,137.1 93.9,137.1 93.0,136.8 91.6,134.5 95.1,133.3 95.7,133.4 96.9,135.2 96.5,136.8 " />
  </g>
</svg>