<?xml version="1.0" encoding="UTF-8" standalone="yes"?>
<!DOCTYPE svg PUBLIC "-//W3C//DTD SVG 1.0//EN" "http://www.w3.org/TR/2001/REC-SVG-20010904/DTD/svg10.dtd">
<svg height="250" width="370" xmlns="http://www.w3.org/2000/svg" xmlns:svg="http://www.w3.org/2000/svg" xmlns:xlink="http://www.w3.org/1999/xlink">


<g id="background">
<rect id="" width="370" height="250" fill="#222222"/>
</g>
  <g id="376" style="stroke-miterlimit: 3; fill: #F1F1F1; stroke: #000000; stroke-opacity: 1; stroke-width: 0.05; stroke-linejoin: bevel; stroke-linecap: square">
    <polygon id="Israel" points="228.6,1.6 229.3,1.6 230.4,1.0 231.5,1.2 232.1,1.3 232.5,2.1 231.6,3.8 230.5,9.6 230.3,11.8 229.8,14.5 229.4,17.9 229.3,21.8 229.2,22.4 228.8,23.8 228.5,24.4 228.3,25.0 229.6,26.6 229.8,27.8 229.6,30.1 230.8,30.6 231.3,31.3 231.5,32.3 231.4,33.6 230.5,35.9 230.1,37.5 230.3,38.7 229.2,38.5 228.1,39.0 225.2,41.3 223.5,57.2 223.9,57.9 219.2,56.7 215.5,52.0 214.6,50.8 214.1,50.4 211.1,49.4 210.5,49.3 208.7,49.7 208.0,49.8 206.9,49.9 206.1,49.8 205.2,49.6 204.4,49.3 201.1,47.8 199.3,49.1 193.5,52.2 192.7,52.8 191.8,54.4 191.1,55.8 190.5,57.9 190.4,58.6 190.6,59.4 190.5,59.9 189.2,68.0 186.0,73.8 186.5,75.2 187.8,80.4 187.9,82.1 187.5,84.9 186.6,86.0 185.2,93.1 185.1,95.1 186.0,95.7 188.3,95.8 189.8,95.7 194.5,95.0 197.5,96.3 201.3,100.5 198.4,100.7 197.9,100.9 193.8,103.2 187.5,107.3 186.4,108.2 184.8,110.1 184.3,110.7 184.0,111.6 183.8,113.1 184.1,115.7 183.9,116.7 183.8,117.3 183.2,118.2 181.5,120.7 180.3,122.2 179.8,123.3 179.8,124.1 180.0,124.7 180.5,125.5 181.1,126.0 181.6,126.4 182.3,126.7 183.0,126.9 183.9,126.9 196.6,126.1 201.3,125.2 202.6,125.0 203.3,124.6 204.5,123.3 212.1,118.2 212.8,117.8 213.6,117.5 214.2,117.3 216.7,117.0 217.7,117.0 219.0,117.1 219.0,120.3 218.9,121.7 218.7,122.8 218.5,123.5 217.3,126.8 214.6,135.1 216.0,136.8 217.4,138.7 217.8,139.5 217.9,140.1 217.9,142.0 217.5,143.4 214.0,152.9 213.6,153.5 211.7,154.7 210.8,155.4 209.7,157.5 207.2,163.8 206.7,165.9 204.3,171.0 201.9,175.0 201.0,176.8 197.9,186.7 197.7,188.6 198.1,195.0 198.4,206.1 198.3,207.7 197.8,208.9 196.9,209.9 195.7,211.0 194.8,212.0 194.3,212.7 194.1,213.2 192.2,219.1 192.2,221.3 192.2,222.8 192.2,223.7 192.4,224.2 192.4,225.4 187.9,239.8 185.7,244.0 186.1,246.1 185.1,245.9 183.3,247.6 181.0,250.0 179.3,247.0 178.3,242.6 178.8,241.6 179.0,241.0 179.1,240.0 178.9,238.8 177.3,233.2 171.1,216.7 169.1,210.2 161.9,192.0 157.3,189.2 157.2,187.4 158.2,184.0 153.7,170.4 147.8,159.3 140.3,139.3 139.0,135.7 143.4,132.8 145.6,130.8 146.0,130.2 146.0,129.2 145.4,127.0 145.4,126.2 147.0,123.9 152.9,118.9 155.2,117.1 157.0,116.0 158.2,114.8 158.3,113.9 153.7,110.6 155.1,108.6 157.9,104.8 160.0,102.0 165.6,92.2 167.9,87.9 168.4,86.9 169.6,83.9 169.7,83.0 172.8,75.6 174.0,72.2 174.4,71.2 176.4,64.7 178.7,57.0 179.1,55.9 180.5,50.2 183.4,36.8 183.8,33.8 183.8,32.7 183.9,30.5 184.1,29.5 184.8,28.9 186.1,28.5 187.7,29.5 188.2,30.0 189.5,29.6 191.1,28.2 191.8,27.4 192.1,26.9 192.4,25.6 192.5,25.0 192.2,21.4 192.1,20.4 192.6,18.7 193.2,16.7 194.1,13.3 194.2,12.7 194.2,12.0 204.9,11.3 208.7,12.0 210.5,13.7 212.3,13.8 215.3,13.4 220.7,11.6 220.8,11.1 220.8,10.3 221.9,9.7 223.3,5.4 223.2,4.4 226.1,0.0 228.6,1.6 " />
    <polygon id="Israel" points="204.6,98.0 204.0,97.9 203.5,96.9 204.3,96.6 204.7,97.8 " />
  </g>
</svg>