<?xml version="1.0" encoding="UTF-8" standalone="yes"?>
<!DOCTYPE svg PUBLIC "-//W3C//DTD SVG 1.0//EN" "http://www.w3.org/TR/2001/REC-SVG-20010904/DTD/svg10.dtd">
<svg height="250" width="370" xmlns="http://www.w3.org/2000/svg" xmlns:svg="http://www.w3.org/2000/svg" xmlns:xlink="http://www.w3.org/1999/xlink">


<g id="background">
<rect id="" width="370" height="250" fill="#222222"/>
</g>
  <g id="380" style="stroke-miterlimit: 3; fill: #F1F1F1; stroke: #000000; stroke-opacity: 1; stroke-width: 0.05; stroke-linejoin: bevel; stroke-linecap: square">
    <polygon id="Italy" points="172.1,248.9 171.6,248.9 170.7,248.3 170.0,247.5 169.9,247.0 170.5,246.5 171.7,246.7 172.9,247.5 173.1,248.1 172.7,248.7 172.1,248.9 " />
    <polygon id="Italy" points="180.2,220.9 178.8,220.7 178.3,220.2 179.3,220.1 179.8,220.2 180.5,220.5 " />
    <polygon id="Italy" points="173.5,219.8 172.9,219.8 172.5,219.1 173.2,218.9 173.5,219.8 " />
    <polygon id="Italy" points="256.2,215.4 255.8,216.5 253.8,218.6 252.5,219.9 249.2,223.8 248.8,225.6 248.4,227.0 247.8,228.8 247.3,229.5 246.4,230.2 245.8,230.8 245.6,231.5 245.8,234.0 248.0,238.2 248.4,238.8 249.1,239.6 249.6,239.9 250.6,240.0 251.1,241.6 251.1,242.4 249.8,243.0 248.7,243.7 247.9,244.2 247.2,244.6 246.2,246.4 245.8,247.4 246.1,248.4 246.8,250.1 245.9,250.9 244.7,250.2 244.2,249.8 241.2,249.2 240.4,249.1 239.1,249.4 238.3,249.7 236.9,249.3 232.9,247.9 230.7,246.7 230.2,245.6 229.7,244.9 229.1,244.0 228.6,243.4 227.8,242.7 226.4,241.7 225.5,241.1 223.3,240.3 222.3,240.0 219.6,240.0 218.6,240.2 218.0,240.3 217.1,240.3 213.4,238.8 211.8,238.1 211.3,237.5 209.4,236.1 208.7,235.8 207.8,235.7 205.6,234.8 203.6,234.0 202.4,233.3 201.8,232.5 200.9,231.7 199.7,230.9 197.8,230.8 195.5,229.8 194.6,229.1 193.9,228.9 191.0,228.7 189.9,228.9 189.4,229.0 188.2,229.3 187.7,229.3 184.1,226.8 183.0,225.9 181.9,223.7 182.6,223.2 183.2,221.9 182.9,220.7 183.9,218.4 185.1,217.2 189.3,215.3 191.4,217.0 192.7,217.9 193.5,218.1 194.0,218.1 194.6,217.9 196.2,217.3 197.0,216.9 197.5,216.3 197.2,215.8 197.9,214.4 203.3,213.4 204.2,214.2 204.5,214.7 204.5,215.3 204.6,215.9 212.7,219.2 213.7,219.4 214.6,219.3 215.4,219.2 216.9,218.7 217.5,218.5 218.2,218.0 220.0,217.8 222.8,218.1 225.4,218.4 227.1,218.4 228.4,218.2 232.1,217.6 234.8,216.9 235.4,216.6 238.4,215.0 240.6,214.6 242.7,214.8 245.4,215.8 246.0,215.7 247.2,215.2 250.8,213.7 255.7,211.7 256.5,211.5 259.1,212.2 258.2,212.7 257.6,212.8 257.0,213.6 256.2,215.4 " />
    <polygon id="Italy" points="243.3,210.0 242.5,209.6 242.1,209.0 242.6,208.4 243.5,209.2 243.6,209.8 " />
    <polygon id="Italy" points="242.5,208.0 241.5,207.5 241.1,206.9 241.4,206.4 242.6,206.2 242.7,207.8 " />
    <polygon id="Italy" points="240.4,206.0 239.6,205.7 238.7,205.3 238.9,204.8 240.3,204.8 240.4,206.0 " />
    <polygon id="Italy" points="199.9,202.1 199.3,202.1 199.6,201.6 200.1,201.5 200.0,202.1 " />
    <polygon id="Italy" points="248.7,200.2 248.2,200.0 248.6,199.3 249.3,199.4 249.1,200.0 " />
    <polygon id="Italy" points="83.0,192.5 82.1,192.3 81.3,191.3 81.4,190.8 83.3,190.2 83.4,191.3 83.3,192.0 83.0,192.5 " />
    <polygon id="Italy" points="224.7,157.4 225.4,157.5 224.9,157.9 224.4,158.0 224.4,157.4 " />
    <polygon id="Italy" points="218.5,154.0 217.0,154.2 216.4,154.0 216.1,153.2 216.4,152.7 218.3,153.0 218.8,153.6 " />
    <polygon id="Italy" points="194.8,149.6 194.4,149.1 195.0,148.6 195.1,149.3 " />
    <polygon id="Italy" points="84.2,145.4 83.4,145.5 82.9,145.4 81.8,146.1 81.9,147.2 81.2,147.0 81.6,145.8 82.9,144.5 83.6,144.1 84.3,144.6 84.2,145.3 " />
    <polygon id="Italy" points="112.3,143.4 113.4,144.0 115.1,147.1 112.3,148.6 113.5,148.9 114.6,148.8 115.7,150.4 117.8,154.5 118.0,155.0 117.7,155.7 117.9,156.5 119.0,157.7 119.6,158.1 119.3,159.6 119.1,160.2 118.4,161.4 117.9,161.7 117.4,162.0 116.7,162.4 115.7,163.4 115.2,164.0 114.9,164.7 114.9,166.0 115.6,167.3 116.5,168.2 117.0,169.8 116.6,172.4 116.1,175.4 116.0,176.1 116.0,176.6 116.2,177.3 115.6,181.6 115.3,183.1 115.1,184.4 114.3,186.8 113.6,189.2 113.5,190.0 113.6,191.1 112.5,191.9 110.6,191.8 109.8,191.4 109.3,190.9 108.7,190.5 108.2,190.1 107.0,189.6 100.4,188.4 100.3,191.7 100.4,192.3 100.5,192.9 101.0,193.7 100.1,195.0 97.7,197.0 96.6,197.6 93.2,196.6 91.5,197.4 90.8,196.7 89.6,194.5 89.2,193.5 88.2,193.3 87.5,193.7 86.8,194.5 86.8,195.0 86.4,195.7 85.8,195.7 84.7,194.1 84.3,193.0 84.6,192.1 86.2,192.2 86.9,192.7 87.0,191.9 86.4,190.9 85.5,189.9 84.8,189.3 86.2,188.3 86.4,187.7 86.1,186.6 85.5,186.6 84.9,185.9 85.4,184.0 85.9,182.9 86.8,179.7 86.6,178.4 86.6,176.6 87.2,176.7 87.8,177.5 88.6,176.7 89.0,176.1 89.2,175.2 89.4,174.5 89.4,174.0 88.6,173.2 87.3,172.9 86.6,173.1 85.6,173.3 85.6,172.1 85.8,170.8 87.1,167.4 87.1,165.4 87.0,163.1 84.8,159.0 83.4,156.8 80.9,156.1 80.2,156.5 79.9,157.3 79.5,156.6 79.5,155.9 80.3,155.6 80.2,154.2 79.6,153.5 79.6,153.0 80.6,148.9 81.5,148.3 81.6,149.0 82.7,150.1 83.3,150.5 84.6,150.8 87.0,151.1 87.5,151.2 88.1,151.1 89.0,150.9 89.9,150.7 90.4,150.5 91.0,149.8 91.6,149.3 92.6,149.0 93.8,148.9 94.4,149.0 94.9,148.7 96.2,147.8 96.9,146.9 100.2,144.0 100.9,143.8 103.8,142.3 103.8,141.2 105.5,140.8 112.3,143.4 " />
    <polygon id="Italy" points="131.5,115.3 131.0,115.3 130.8,114.8 131.4,114.6 131.8,115.2 " />
    <polygon id="Italy" points="145.8,115.2 144.7,114.4 144.9,113.6 145.7,114.0 146.1,114.8 " />
    <polygon id="Italy" points="126.0,109.2 125.8,108.2 126.3,108.7 126.0,109.2 " />
    <polygon id="Italy" points="134.5,102.7 134.2,105.7 132.4,104.8 131.1,104.8 129.5,105.1 128.9,105.3 127.7,105.5 127.2,105.4 126.7,105.0 126.3,104.4 126.5,103.9 127.4,103.5 128.3,103.5 128.9,103.6 129.4,103.9 132.3,103.7 132.9,103.2 133.3,102.5 133.9,102.1 134.4,102.5 " />
    <polygon id="Italy" points="120.2,98.2 119.5,98.9 119.0,98.2 119.2,97.6 119.8,97.1 120.3,97.7 " />
    <polygon id="Italy" points="181.9,41.1 180.8,41.1 180.0,41.9 179.6,42.5 180.4,41.2 181.1,40.8 181.9,41.1 " />
    <polygon id="Italy" points="182.4,125.3 " />
    <polygon id="Italy" points="182.8,77.6 183.4,77.3 184.0,76.5 184.0,75.5 183.1,75.4 182.6,75.6 181.7,76.1 181.4,76.8 181.7,77.3 182.8,77.6 " />
    <polygon id="Italy" points="174.8,3.2 175.0,4.1 175.6,5.0 176.1,5.4 177.3,5.9 179.0,7.1 180.8,9.8 181.6,10.4 182.3,10.7 183.4,10.9 185.0,11.4 185.9,11.4 188.3,11.4 189.2,11.8 189.8,11.7 190.6,11.8 191.5,12.1 201.9,13.8 206.0,13.7 208.9,13.9 210.3,14.1 212.9,14.6 212.7,15.4 212.4,16.2 211.4,16.4 207.9,18.0 206.3,18.9 204.9,20.1 205.6,22.0 206.5,22.0 207.3,21.6 208.9,22.0 211.4,22.7 211.3,23.6 209.9,24.7 209.3,25.0 208.8,25.2 208.2,25.7 207.2,26.9 207.7,27.4 208.6,27.9 209.1,27.9 209.7,27.4 210.7,27.4 210.9,28.3 210.5,29.3 209.9,29.8 209.5,30.7 210.0,31.7 212.4,32.4 214.5,33.0 215.7,34.0 217.6,35.8 216.4,37.0 215.5,37.1 214.9,37.1 212.9,36.9 214.5,36.7 213.3,34.5 211.4,33.1 210.8,32.7 209.6,32.4 208.9,32.3 208.4,32.6 208.2,33.3 208.4,33.8 207.7,34.2 206.1,34.9 205.1,35.0 205.8,34.5 205.6,33.8 204.5,33.5 200.9,32.5 200.3,32.5 198.8,32.7 197.4,34.0 197.5,34.5 198.0,35.5 197.2,36.0 195.7,36.1 193.8,36.3 192.4,36.9 190.9,37.5 188.7,38.4 187.0,39.1 185.8,39.6 181.9,40.8 181.9,40.2 182.5,39.6 183.4,39.2 184.0,39.5 185.6,38.3 183.8,37.5 183.3,37.6 181.2,38.4 178.8,39.7 175.6,43.6 175.6,44.8 177.4,46.4 180.4,49.8 182.4,50.9 183.4,51.5 184.0,51.4 184.6,51.9 183.5,54.3 183.1,54.9 182.7,55.4 182.0,54.7 182.3,54.0 182.0,53.5 181.1,54.2 181.3,56.1 180.3,55.8 179.1,54.9 178.6,54.9 178.1,56.3 177.7,57.5 177.6,58.3 178.5,63.7 178.7,64.3 180.1,68.2 180.6,69.2 181.7,70.4 182.5,71.1 184.2,72.4 184.8,72.9 188.1,75.3 189.0,75.6 189.8,75.8 191.2,75.9 193.4,76.9 196.9,78.9 198.7,80.2 199.8,81.0 200.3,81.4 202.6,82.7 204.2,83.5 205.9,84.1 206.9,84.4 208.8,84.5 210.0,85.4 210.6,85.7 210.5,86.3 210.6,87.0 212.7,90.6 216.0,97.1 216.3,98.8 216.5,99.6 216.8,100.4 217.2,101.1 217.8,102.7 218.2,103.7 219.3,105.8 220.0,106.9 221.0,108.1 222.8,110.0 224.4,111.4 231.7,116.7 233.1,117.6 234.1,118.0 234.7,118.2 235.5,118.4 236.7,118.8 236.7,119.5 236.9,120.4 237.3,120.9 237.9,121.1 239.4,121.9 240.9,122.4 242.1,122.6 243.5,122.8 244.1,123.2 244.9,124.0 245.9,124.4 247.0,124.7 247.7,124.8 252.5,125.2 253.1,125.2 254.5,125.2 255.5,125.1 257.9,124.8 259.5,124.9 261.8,124.9 264.1,124.7 265.4,124.5 267.8,124.2 268.8,124.3 269.5,124.5 270.9,125.0 272.0,126.7 272.2,127.7 271.5,128.7 270.8,129.1 268.2,130.7 267.2,131.2 266.2,131.5 265.5,131.8 264.9,132.7 264.9,133.2 265.0,134.0 265.6,135.1 267.1,136.3 268.3,136.8 269.3,137.1 272.1,138.1 279.3,140.8 283.2,142.3 286.4,143.2 292.6,144.9 295.7,146.1 297.5,147.1 298.2,147.5 299.1,148.2 302.7,150.9 303.3,151.2 309.7,153.3 313.9,154.6 315.6,155.4 316.0,156.1 316.2,156.9 316.3,157.5 317.3,158.2 318.4,159.0 321.9,161.0 325.5,163.9 325.9,164.5 326.4,165.3 327.6,167.5 327.7,168.2 326.9,169.7 326.1,170.1 325.4,170.9 324.9,172.3 324.8,172.9 324.7,175.2 324.3,175.7 323.7,175.8 323.2,175.4 322.7,175.1 321.7,174.8 320.8,174.8 320.1,174.7 319.6,174.4 317.4,173.2 316.5,172.5 315.2,170.9 315.8,170.7 315.7,168.5 313.1,164.7 312.0,164.0 310.2,163.8 309.7,163.7 307.7,163.5 306.7,163.5 304.6,163.6 303.6,163.7 300.8,162.9 296.3,161.1 297.3,159.9 297.9,159.5 298.4,159.6 299.0,159.4 299.0,158.9 293.6,158.3 292.6,158.5 291.9,158.7 290.2,159.5 289.6,159.9 288.4,161.1 286.6,163.2 285.5,164.8 285.3,165.6 284.1,167.1 282.9,168.0 282.3,168.4 281.8,169.7 282.1,170.8 281.0,173.2 280.3,173.9 279.5,175.0 279.2,175.7 279.2,176.4 280.1,178.8 280.8,179.3 281.8,179.7 282.5,179.8 285.2,180.0 287.2,181.1 290.6,182.9 292.3,183.6 294.8,185.1 294.8,185.9 294.2,187.1 294.0,188.4 294.2,192.3 294.8,193.3 295.4,193.9 295.5,194.8 295.5,195.6 294.5,196.7 293.9,197.2 290.9,196.2 290.1,196.2 287.6,196.7 285.0,197.7 282.4,199.0 281.7,199.5 281.2,200.0 280.7,200.9 280.3,201.6 280.6,203.1 280.9,204.2 281.1,205.4 281.3,206.2 281.3,207.8 281.2,208.3 280.3,209.3 279.2,210.1 278.2,210.6 277.4,210.9 276.2,211.2 275.5,211.5 271.5,215.3 271.2,215.9 271.0,216.8 270.8,217.5 270.8,218.0 270.3,219.2 269.6,220.0 269.0,220.5 267.4,220.6 266.2,220.5 265.7,220.4 264.3,220.4 262.6,220.6 261.7,220.6 260.8,220.3 259.7,219.8 258.9,218.9 258.7,218.3 259.0,217.2 258.8,214.5 258.6,213.9 258.6,213.3 259.2,212.9 260.5,212.5 261.1,212.5 261.8,212.3 262.6,212.0 263.2,211.3 265.0,207.9 265.6,206.3 265.7,205.7 265.0,204.9 264.0,204.1 263.4,203.8 263.7,203.2 267.1,201.4 268.1,201.3 268.6,201.4 269.1,201.4 269.9,201.6 270.6,201.5 271.6,200.9 272.2,200.3 272.4,199.7 272.7,198.8 272.8,197.9 272.8,196.9 272.2,196.4 271.4,196.0 269.9,194.3 269.0,191.6 268.9,190.4 268.8,189.4 268.8,188.6 268.4,186.8 267.2,184.3 265.9,182.5 265.2,182.0 264.0,180.1 262.9,178.5 262.7,177.8 262.4,175.8 262.3,174.4 262.2,173.8 261.6,172.7 261.0,171.8 260.6,171.3 259.5,170.1 258.9,169.8 258.2,169.1 257.7,169.0 257.1,169.0 256.0,169.0 254.5,170.1 253.7,170.9 252.3,170.9 251.7,170.6 251.1,170.1 250.0,169.2 247.1,167.1 246.4,166.7 243.9,166.1 242.2,165.2 241.8,164.3 242.7,162.6 243.3,162.3 243.4,161.4 242.7,160.1 241.3,157.6 239.7,155.9 238.2,154.7 237.5,154.6 236.1,155.5 234.7,155.3 233.4,156.2 231.7,156.0 230.5,156.0 229.3,156.4 227.5,157.1 227.5,156.6 227.8,156.0 228.4,155.8 229.1,155.4 230.9,154.2 230.9,153.5 230.3,152.8 227.2,151.1 226.5,150.8 225.9,150.7 225.0,151.0 223.6,151.5 221.4,151.1 220.8,150.2 220.4,149.3 220.1,148.8 219.5,147.9 217.2,145.0 215.7,143.2 214.9,142.3 214.3,141.8 213.4,141.3 212.8,140.9 211.2,140.7 210.6,140.7 209.3,141.2 202.7,139.8 202.1,139.8 200.8,140.1 199.8,140.4 199.2,140.7 198.7,140.9 196.5,140.8 195.9,139.9 195.3,139.2 194.6,138.4 193.6,137.7 192.2,137.1 187.8,135.9 187.2,135.9 185.6,134.7 184.2,133.3 183.1,132.3 182.4,131.8 180.3,130.3 177.0,128.1 176.8,127.4 176.1,126.2 175.4,125.4 174.9,124.9 172.3,123.3 169.8,122.1 169.2,122.0 168.5,122.2 167.9,122.3 167.1,121.6 165.7,119.8 165.5,119.2 165.2,118.6 164.7,117.6 163.0,115.9 160.6,114.7 159.7,114.4 158.6,114.0 157.1,113.4 156.6,113.2 154.2,112.9 153.4,112.9 152.8,113.0 152.7,113.7 152.2,114.2 150.4,113.6 149.8,112.7 150.4,112.3 151.0,112.4 151.5,112.4 152.2,111.5 152.4,110.9 152.2,110.3 151.6,109.7 149.8,107.8 147.2,105.7 146.2,105.1 145.2,104.8 144.5,104.6 142.2,103.2 142.4,102.6 142.6,101.7 142.3,101.1 141.7,100.8 140.4,100.3 138.0,100.0 136.6,97.9 136.8,96.0 136.9,95.5 136.8,94.7 136.6,93.6 136.4,93.0 134.0,89.5 133.1,88.4 132.5,88.0 131.9,87.8 131.0,86.2 130.8,84.8 130.5,82.5 130.5,81.9 130.4,81.0 130.3,80.0 129.9,78.8 129.6,78.1 129.2,77.5 128.2,76.4 126.7,75.1 126.1,74.6 125.5,74.3 124.6,74.0 123.5,73.8 117.1,72.3 115.8,71.7 108.9,68.2 108.1,67.7 105.6,66.8 95.6,64.9 94.3,64.8 93.6,64.9 91.4,65.8 88.0,67.3 86.8,68.2 86.7,68.7 86.0,70.5 85.4,70.9 84.0,71.3 83.5,71.3 82.7,71.6 81.7,72.6 79.8,75.2 79.8,75.8 77.7,77.6 74.8,78.7 74.0,78.9 70.6,79.5 69.8,79.9 68.3,80.3 66.8,80.1 66.3,80.1 64.8,80.3 64.4,79.3 64.0,78.7 63.9,78.0 66.4,75.9 67.8,74.9 69.0,73.3 68.1,72.1 67.8,71.6 67.9,71.0 66.8,70.8 64.6,71.3 63.3,71.8 62.2,72.0 60.6,71.9 52.9,69.2 51.5,68.3 49.2,66.1 48.6,62.7 48.6,62.1 50.9,59.2 51.6,58.5 52.8,57.2 52.9,55.2 52.3,54.8 51.5,54.4 50.9,54.2 50.1,54.4 49.5,54.5 48.7,54.3 46.7,53.4 46.1,53.1 44.0,50.2 43.0,48.5 44.3,47.7 44.9,47.5 46.4,47.1 47.7,47.4 50.7,46.8 53.6,45.8 55.1,45.0 55.9,42.1 55.6,40.8 54.2,39.7 52.2,38.8 51.4,36.8 47.7,33.9 47.3,32.4 47.5,31.3 49.0,30.7 49.6,30.8 50.2,30.7 50.8,30.6 51.5,30.3 52.0,29.9 53.0,28.8 53.6,29.4 54.3,29.9 54.9,30.1 56.5,30.1 57.6,29.6 59.1,29.1 60.2,29.1 61.2,29.2 62.4,28.9 63.1,28.6 64.9,27.6 67.6,27.7 69.1,28.6 69.9,28.8 70.9,29.0 72.4,29.1 72.8,28.4 73.1,27.9 73.7,27.4 74.8,27.3 75.4,27.3 76.0,27.1 79.6,23.6 79.8,23.0 79.5,21.9 83.2,17.2 84.6,16.4 86.3,16.1 86.8,16.2 87.2,18.2 87.0,19.2 86.4,20.1 86.7,21.3 90.7,24.3 92.6,24.8 93.1,24.7 93.9,24.3 95.6,24.8 96.2,25.2 96.4,25.8 95.7,26.3 95.5,27.5 97.5,28.3 98.2,29.6 98.4,30.1 98.8,30.9 99.9,31.3 100.8,31.1 102.0,29.7 101.6,29.0 100.7,28.8 99.9,27.8 100.4,26.7 100.8,25.8 102.0,24.3 103.1,23.4 103.8,23.1 104.3,22.9 105.7,21.7 106.6,20.2 107.0,19.5 107.1,18.9 106.7,17.1 106.1,16.9 106.5,15.5 107.1,15.1 108.6,15.0 110.9,15.9 110.7,17.0 110.9,17.9 112.4,19.5 113.0,19.9 113.9,20.1 114.9,20.2 116.6,20.1 118.4,19.0 119.4,18.6 120.4,18.4 121.6,18.0 122.6,18.1 123.5,18.5 123.5,19.2 123.8,20.2 125.3,21.7 125.8,21.9 127.0,21.8 128.0,21.1 127.6,17.9 126.1,17.1 125.5,16.8 125.0,16.5 125.0,15.3 125.1,14.3 126.8,12.6 128.2,12.1 129.5,11.9 130.0,12.4 129.8,13.1 131.1,13.9 132.0,14.1 134.7,14.3 135.2,14.0 135.5,13.1 135.5,12.5 134.6,8.9 135.2,6.3 135.8,6.7 137.3,6.9 138.3,6.7 139.3,6.4 139.9,6.3 140.4,6.3 142.0,7.1 142.8,8.0 143.9,8.4 145.1,8.7 148.2,8.7 149.5,7.5 150.1,6.1 150.1,5.5 150.7,4.9 151.8,4.2 152.3,4.0 159.4,2.9 162.6,3.0 164.7,3.3 165.5,3.8 166.2,3.8 173.6,1.8 175.1,1.2 176.1,1.0 177.1,1.2 177.1,1.8 176.7,2.3 175.4,2.7 174.9,2.9 " />
  </g>
</svg>