<?xml version="1.0" encoding="UTF-8" standalone="yes"?>
<!DOCTYPE svg PUBLIC "-//W3C//DTD SVG 1.0//EN" "http://www.w3.org/TR/2001/REC-SVG-20010904/DTD/svg10.dtd">
<svg height="250" width="370" xmlns="http://www.w3.org/2000/svg" xmlns:svg="http://www.w3.org/2000/svg" xmlns:xlink="http://www.w3.org/1999/xlink">


<g id="background">
<rect id="" width="370" height="250" fill="#222222"/>
</g>
  <g id="384" style="stroke-miterlimit: 3; fill: #F1F1F1; stroke: #000000; stroke-opacity: 1; stroke-width: 0.05; stroke-linejoin: bevel; stroke-linecap: square">
    <polygon id="Ivory Coast" points="215.4,217.8 215.2,218.9 213.4,219.1 211.2,219.3 209.2,219.3 208.0,219.2 206.7,218.4 207.0,217.4 207.2,216.3 206.0,216.0 204.3,216.5 202.8,217.2 200.7,216.3 199.4,215.9 198.1,216.0 196.9,216.1 194.6,215.3 193.7,216.5 194.6,216.9 195.1,216.7 195.0,217.6 193.3,218.6 191.6,217.8 191.0,217.9 191.0,218.5 192.8,219.7 193.5,219.8 195.8,219.7 196.4,219.5 197.7,218.1 198.1,216.6 200.6,216.7 201.8,217.7 203.2,217.9 204.1,217.1 205.0,217.0 206.0,217.4 207.0,219.3 206.0,219.6 194.0,220.4 192.2,220.5 191.4,220.5 190.3,220.5 188.2,220.8 175.0,222.8 173.5,223.2 172.3,223.5 171.7,223.7 169.6,224.5 165.9,225.9 165.4,226.1 164.9,226.7 159.6,229.1 158.2,229.5 157.4,229.7 155.6,230.2 152.1,231.3 146.2,233.4 145.5,233.7 144.5,234.6 143.8,235.2 140.2,236.4 139.1,236.7 138.4,236.8 137.1,236.7 135.7,236.9 133.9,237.3 132.7,237.7 132.1,238.0 131.9,238.8 127.5,242.1 126.3,242.7 123.8,243.2 121.2,243.3 117.1,245.8 114.1,247.9 113.5,248.6 112.6,249.4 112.0,249.8 110.6,250.0 109.4,249.9 108.3,249.7 107.3,248.9 106.8,248.3 106.9,245.8 107.2,242.5 107.3,239.9 107.0,234.4 106.9,233.1 105.9,231.8 105.8,228.0 106.9,222.4 108.8,220.7 109.5,220.4 114.3,212.1 114.5,211.5 114.1,210.0 113.5,209.7 113.3,210.3 112.2,209.0 111.8,207.5 112.6,205.4 113.5,203.2 114.3,202.1 113.2,199.7 113.0,199.1 112.0,196.4 111.8,195.3 111.9,193.5 112.1,192.6 112.3,191.5 112.0,191.0 111.1,190.7 109.4,191.4 106.8,189.8 103.2,187.7 102.3,188.5 102.0,189.0 101.4,188.8 99.3,187.4 98.3,186.3 98.3,184.9 98.0,182.5 96.7,177.3 94.6,175.6 93.7,175.0 89.7,173.5 87.1,173.8 84.9,174.4 84.1,174.5 83.1,174.5 75.1,171.1 71.1,168.2 68.6,166.1 66.0,165.4 66.1,164.7 66.7,164.7 67.3,164.5 67.6,164.0 67.3,163.4 68.3,163.4 68.8,163.1 68.9,162.4 68.8,161.7 69.6,162.0 69.9,161.4 70.5,161.4 70.8,160.9 71.6,160.6 72.0,159.9 72.5,159.7 73.4,159.1 74.9,157.3 75.3,156.7 75.7,156.0 76.4,154.6 76.9,153.5 77.6,151.8 78.4,145.2 78.6,139.2 77.1,138.2 76.0,137.1 74.4,133.8 74.0,131.4 73.7,129.7 73.7,128.7 73.7,127.8 73.5,126.7 72.8,125.5 71.3,124.2 73.3,122.5 74.0,121.9 78.6,123.3 80.9,124.7 81.4,124.8 82.4,123.8 82.4,123.0 82.4,122.2 82.6,121.6 86.0,115.5 86.6,114.6 85.6,113.5 85.1,112.9 85.1,112.2 86.6,109.2 87.5,108.1 87.7,106.5 87.6,105.7 89.0,105.8 91.8,106.3 91.6,105.4 89.7,101.0 88.9,100.0 87.5,100.6 86.9,100.6 85.4,100.2 82.9,99.3 80.8,97.6 80.6,96.3 80.5,94.7 80.2,89.7 82.0,87.6 82.6,87.4 91.7,87.4 96.8,87.9 98.0,89.1 99.0,90.6 99.2,91.5 99.4,92.1 100.0,92.4 101.5,92.5 102.9,92.4 103.5,92.2 103.2,91.4 102.8,90.7 102.5,90.0 102.4,85.6 102.6,83.1 102.3,82.6 99.6,79.1 97.9,77.5 94.6,76.6 93.9,76.7 93.4,77.0 92.3,76.7 91.7,76.2 91.4,75.2 91.4,74.5 92.2,70.5 92.5,69.2 92.9,68.0 93.5,67.3 97.1,65.2 100.0,65.0 100.2,64.4 97.7,63.0 93.8,61.0 93.2,60.6 92.9,60.1 92.8,59.4 93.0,58.5 94.4,54.3 91.5,52.6 90.9,52.7 89.2,52.7 87.7,52.3 87.2,51.5 85.5,49.7 84.6,48.4 84.1,47.0 84.0,46.1 84.0,43.6 85.2,36.5 85.7,35.8 85.7,34.2 84.6,33.2 83.6,31.9 83.4,30.9 83.9,29.5 85.4,26.9 86.1,26.5 86.8,26.4 87.5,26.2 88.3,25.7 89.0,25.3 89.7,24.4 90.7,22.3 91.3,22.5 92.0,22.6 94.1,22.0 96.3,21.0 96.8,20.7 98.0,19.2 99.0,17.7 99.4,17.1 99.3,15.8 100.2,14.0 101.2,13.1 103.6,11.4 104.2,11.3 111.2,13.2 114.8,15.0 115.2,15.9 118.3,18.8 121.6,19.5 123.6,20.0 125.8,20.8 126.4,21.2 126.9,22.1 127.5,22.9 128.2,23.2 129.3,23.0 129.9,22.8 130.8,22.0 131.0,20.9 131.0,20.4 130.4,19.8 129.6,19.3 129.6,18.6 130.3,15.9 131.0,15.0 139.8,15.0 142.3,14.9 143.2,11.9 142.5,11.1 141.9,11.0 141.4,10.4 141.2,9.5 141.5,5.4 141.8,4.3 142.4,3.0 143.0,2.7 143.7,2.9 144.4,3.7 144.6,4.4 145.1,5.0 147.1,6.2 151.1,7.3 151.9,7.0 152.8,6.0 153.0,5.4 152.3,5.0 151.7,4.6 151.5,3.9 151.6,2.1 152.1,1.6 158.4,0.0 159.1,0.4 160.6,3.6 160.5,4.3 159.6,6.5 160.8,10.6 160.9,11.8 160.9,13.0 160.9,14.5 160.2,19.5 162.3,20.5 163.6,21.0 164.4,21.3 167.7,21.3 168.6,20.6 169.1,20.0 169.5,19.3 170.4,17.6 172.4,14.5 175.7,12.4 176.5,12.1 177.9,12.2 178.7,12.2 179.3,12.1 179.9,11.8 180.5,11.6 181.0,11.2 184.7,10.8 186.7,11.7 188.6,15.1 191.0,17.0 191.8,17.3 192.6,17.4 193.8,17.1 195.1,16.8 196.6,16.3 197.5,16.3 201.8,16.8 202.3,17.1 207.5,26.3 209.0,30.8 213.7,34.1 215.4,35.4 215.7,37.2 215.0,37.3 214.4,37.5 215.9,39.1 218.6,40.6 220.5,40.7 222.4,39.7 226.1,40.9 229.5,42.2 233.1,43.7 233.7,44.1 235.1,42.4 235.3,41.6 235.8,39.0 241.2,35.5 244.9,36.3 248.7,34.1 249.9,33.4 250.5,32.9 255.6,31.4 257.7,31.0 260.3,30.5 269.9,31.9 277.2,32.6 280.5,35.2 285.7,39.4 286.4,40.3 287.8,43.3 288.3,45.1 291.2,49.1 293.1,51.3 293.9,52.1 294.6,52.5 295.3,52.4 295.9,51.6 297.6,49.0 298.1,49.9 298.3,52.9 297.8,58.9 296.6,59.9 294.7,63.1 294.4,65.4 295.8,66.6 297.9,66.9 298.5,67.2 300.3,71.2 301.1,74.0 301.1,74.7 301.0,75.4 300.3,76.3 301.6,76.4 301.8,77.1 302.1,79.1 302.6,81.8 305.1,97.2 305.4,99.3 302.5,100.6 301.0,102.2 298.6,106.1 294.1,109.1 293.7,112.7 291.6,116.5 291.0,117.1 288.3,122.8 287.3,129.2 286.4,135.9 284.4,143.3 281.6,144.1 280.7,146.0 276.5,153.2 277.2,155.8 277.2,158.0 276.1,159.6 275.7,160.3 275.6,161.1 276.2,164.0 277.2,167.8 278.7,173.8 278.8,174.6 278.8,175.2 279.5,175.5 281.6,179.6 281.9,180.9 282.6,185.6 285.1,190.8 284.8,196.7 286.9,199.8 287.8,200.3 289.2,200.2 290.0,199.9 291.6,199.7 293.2,200.3 294.5,201.7 295.4,206.9 294.7,210.6 293.8,213.4 294.6,216.3 295.3,217.6 295.9,218.6 295.7,220.0 295.0,220.4 288.1,220.4 287.9,219.8 289.4,219.2 290.2,218.9 290.9,218.8 291.5,218.8 291.4,218.2 291.1,217.5 290.5,217.0 288.1,217.8 285.1,219.3 280.0,218.8 277.6,216.3 277.6,215.2 278.6,213.6 279.8,212.3 280.4,211.6 280.3,210.5 279.7,210.0 276.5,210.4 275.3,211.1 275.3,211.7 275.1,213.5 275.0,215.5 274.5,218.8 274.1,219.6 273.0,219.8 271.9,219.8 271.4,219.8 269.7,219.5 268.6,219.3 267.9,219.0 267.2,218.8 265.3,218.6 263.8,218.4 259.1,217.5 255.7,216.9 254.5,216.9 254.0,216.9 248.1,215.4 247.1,215.0 246.0,214.4 248.6,213.7 250.5,213.8 252.3,214.0 254.8,214.3 256.4,214.3 257.3,213.6 255.8,210.5 255.1,209.9 253.7,209.7 253.5,210.3 254.1,210.9 254.9,211.4 256.5,213.3 254.2,213.7 252.1,212.8 249.7,211.8 243.8,212.8 233.6,212.5 228.0,212.8 227.4,213.2 227.4,213.7 226.2,214.3 222.8,215.0 222.2,215.1 217.2,215.6 215.0,216.1 214.4,217.0 214.7,217.6 215.4,217.8 " />
    <polygon id="Ivory Coast" points="215.4,217.8 217.4,216.6 218.3,216.4 224.3,215.7 226.2,215.6 227.8,215.7 228.5,215.9 230.3,215.7 234.8,214.9 237.3,214.4 240.5,213.5 241.3,213.5 242.3,213.5 242.8,213.5 244.3,213.6 245.0,213.7 246.0,215.3 238.9,216.3 238.2,216.4 236.9,216.5 235.8,216.5 232.5,216.6 221.5,217.4 220.4,217.7 219.9,217.9 218.3,218.4 216.7,218.7 215.8,218.8 215.4,217.8 " />
    <polygon id="Ivory Coast" points="281.3,220.1 281.3,221.0 279.5,220.6 278.7,219.8 281.3,220.1 " />
  </g>
</svg>