<?xml version="1.0" encoding="UTF-8" standalone="yes"?>
<!DOCTYPE svg PUBLIC "-//W3C//DTD SVG 1.0//EN" "http://www.w3.org/TR/2001/REC-SVG-20010904/DTD/svg10.dtd">
<svg height="250" width="370" xmlns="http://www.w3.org/2000/svg" xmlns:svg="http://www.w3.org/2000/svg" xmlns:xlink="http://www.w3.org/1999/xlink">


<g id="background">
<rect id="" width="370" height="250" fill="#222222"/>
</g>
  <g id="392" style="stroke-miterlimit: 3; fill: #F1F1F1; stroke: #000000; stroke-opacity: 1; stroke-width: 0.05; stroke-linejoin: bevel; stroke-linecap: square">
    <polygon id="Japan" points="228.0,1.0 228.5,1.4 229.2,1.6 230.3,2.5 231.0,3.2 232.0,4.0 232.8,4.7 233.5,5.1 234.4,6.5 234.8,7.0 236.2,8.3 236.9,9.0 239.0,10.6 239.5,11.0 240.7,11.7 243.5,13.4 244.7,14.1 247.0,14.9 247.7,16.1 248.2,16.4 249.8,16.3 250.7,16.0 251.4,15.9 252.9,16.2 254.9,17.8 255.7,18.2 256.9,18.3 258.3,18.5 259.2,18.5 259.8,18.6 260.4,18.4 261.4,17.8 261.9,17.3 262.5,16.7 263.0,16.3 263.7,15.9 264.8,15.3 265.4,14.7 266.5,13.6 267.2,14.3 267.0,14.8 266.7,15.3 265.7,16.8 265.2,17.2 264.7,17.8 264.3,18.3 263.6,20.1 264.0,21.0 264.5,21.6 265.1,22.1 265.5,23.0 266.1,24.3 266.3,24.9 265.8,25.3 266.4,26.0 267.0,26.2 267.5,26.3 268.3,26.3 270.4,24.8 271.8,24.8 272.4,24.9 271.4,25.4 270.8,25.7 270.1,25.7 269.6,26.1 269.3,26.7 268.9,27.3 268.2,27.2 267.1,27.2 266.2,27.3 264.6,27.7 264.2,28.3 262.9,29.4 261.7,29.6 261.0,29.3 260.7,28.8 260.1,28.9 259.6,29.4 258.8,30.0 256.8,30.1 255.7,29.9 255.2,29.3 254.4,29.4 253.1,29.7 251.3,30.2 249.7,31.0 248.6,32.0 246.9,33.2 246.2,33.8 245.6,34.4 244.7,35.4 243.8,36.6 243.3,37.4 243.0,38.3 243.1,38.8 242.9,40.5 242.1,41.9 241.6,41.7 240.9,41.0 238.7,39.9 237.7,39.6 236.8,39.4 235.8,39.0 235.2,38.8 233.2,38.0 231.1,37.0 230.4,36.6 228.7,35.7 228.2,35.6 227.6,35.3 227.0,34.9 226.5,34.5 225.6,34.1 225.0,33.9 224.4,33.8 223.9,33.8 223.1,33.8 222.2,33.9 220.9,34.3 220.3,34.6 217.5,36.1 217.0,36.4 216.4,36.8 215.7,37.5 215.0,37.5 214.6,36.5 214.3,35.9 212.9,34.6 212.3,34.3 210.0,34.2 209.3,34.4 208.7,34.9 208.1,35.5 207.4,36.5 207.2,37.3 207.2,37.8 207.7,38.4 208.4,38.5 208.9,38.8 209.4,39.1 210.1,39.7 210.7,39.8 211.8,39.7 212.4,39.6 213.0,39.9 213.4,40.5 215.2,42.1 215.8,42.4 216.5,42.4 217.3,42.8 218.0,43.3 216.2,44.4 215.5,44.5 212.5,43.3 211.9,43.1 211.4,43.2 211.1,43.8 210.1,44.6 209.4,44.7 209.0,45.3 209.0,46.0 209.1,46.5 207.2,47.1 206.6,47.8 204.8,47.9 204.3,47.6 203.7,46.4 203.7,45.8 204.0,44.9 204.8,43.9 205.3,43.4 205.6,42.3 205.5,41.3 204.6,40.1 204.0,39.7 203.3,39.6 201.6,38.4 201.2,37.6 201.4,36.9 201.8,36.4 202.0,35.8 202.1,35.3 202.0,34.6 201.9,34.0 202.2,33.5 202.7,33.1 203.5,33.1 204.2,33.1 205.5,32.3 206.5,31.6 207.5,31.5 208.3,30.6 209.3,29.8 209.9,29.5 209.5,28.3 208.9,27.5 208.2,27.2 207.7,26.6 208.1,25.6 209.4,24.9 209.9,25.1 211.5,26.0 213.0,26.9 215.9,27.2 217.3,27.6 217.9,27.6 218.4,27.4 219.1,27.1 219.8,26.5 220.5,25.8 220.7,25.3 220.8,24.7 220.2,22.6 219.6,21.1 220.1,20.1 220.7,19.7 221.4,19.6 222.2,19.3 222.7,18.9 223.3,18.2 223.5,17.5 223.5,16.7 223.4,14.9 223.4,14.4 223.6,13.8 224.2,12.9 224.5,12.3 225.0,10.7 225.1,10.1 225.0,9.5 225.0,8.9 224.7,7.7 224.2,6.3 223.8,5.8 222.9,4.4 222.6,3.9 222.4,3.3 223.8,1.0 225.3,0.8 225.9,0.5 227.1,0.0 228.0,1.0 " />
    <polygon id="Japan" points="216.1,2.6 215.6,1.3 215.3,0.3 216.2,0.4 216.4,2.0 216.1,2.6 " />
    <polygon id="Japan" points="218.7,4.6 217.6,4.2 217.2,3.3 217.7,2.9 218.9,3.1 219.4,3.6 219.3,4.3 218.7,4.6 " />
    <polygon id="Japan" points="250.6,15.8 249.7,15.8 249.0,15.6 250.4,15.7 " />
    <polygon id="Japan" points="266.2,22.9 266.0,22.4 265.4,22.2 266.2,22.3 266.8,22.5 266.2,22.9 " />
    <polygon id="Japan" points="198.8,38.4 198.2,39.7 197.5,40.5 196.9,39.3 197.2,38.7 198.3,38.4 " />
    <polygon id="Japan" points="218.9,48.8 219.4,48.8 220.1,48.7 220.6,48.4 220.6,50.4 220.3,50.9 220.4,53.7 220.4,54.2 220.6,55.8 220.7,56.5 221.1,57.6 222.4,58.3 223.1,58.9 223.8,59.4 225.3,61.4 225.8,62.7 225.6,63.3 225.6,63.8 226.2,64.4 226.8,64.6 227.3,67.1 227.2,68.7 227.8,69.2 228.2,69.8 228.1,70.8 227.9,71.5 227.4,71.5 226.8,71.8 226.3,72.5 226.2,73.2 226.1,74.6 225.9,75.6 225.6,76.1 224.5,76.1 223.2,76.4 223.2,77.3 222.7,77.7 221.9,78.9 221.7,80.1 221.9,80.8 222.1,82.1 222.1,83.6 222.0,84.6 221.1,84.6 220.8,83.9 219.9,83.4 219.3,83.4 218.7,83.5 216.8,83.8 216.2,84.4 215.1,86.4 215.0,86.9 214.8,87.7 214.7,88.3 214.7,88.8 214.8,89.4 215.2,90.7 215.8,91.2 216.1,93.1 216.1,94.5 216.1,95.5 215.7,97.8 215.4,100.1 214.9,100.7 214.2,100.9 213.6,101.0 213.3,101.7 212.8,102.4 211.4,105.4 211.0,106.7 210.6,108.6 210.6,109.2 210.8,110.4 211.2,111.2 213.1,113.8 213.8,114.7 213.6,115.3 211.8,115.5 211.3,115.7 210.6,116.2 209.5,117.1 209.0,117.8 208.8,118.4 208.6,118.9 208.6,119.5 208.8,120.7 208.6,121.3 207.8,121.9 206.7,122.3 205.3,122.4 203.9,123.3 203.5,123.8 203.5,124.4 202.8,124.7 202.3,124.7 201.2,124.0 201.9,123.8 202.1,122.7 201.8,121.6 202.1,120.2 203.0,119.0 203.5,118.4 204.4,117.7 205.1,117.2 204.8,116.2 203.8,115.7 203.2,115.7 201.3,116.0 201.2,116.5 201.4,117.4 200.7,117.8 200.1,117.9 199.6,118.9 199.8,119.9 200.4,120.4 200.9,120.5 200.1,121.8 199.5,122.0 199.5,121.4 199.3,120.8 198.8,120.2 197.4,119.9 196.9,119.9 196.2,119.9 195.5,120.0 194.9,120.3 194.4,120.5 193.8,121.1 193.5,122.1 193.2,122.8 193.2,123.6 193.8,124.1 193.8,124.8 192.9,126.1 191.9,127.4 191.1,127.9 190.4,128.2 189.9,128.1 189.2,127.3 189.2,126.8 189.4,126.3 189.4,125.5 189.4,124.9 189.4,124.1 189.5,123.5 190.1,123.3 190.9,123.3 190.3,122.5 189.3,122.1 188.7,122.0 187.2,122.3 184.3,125.1 183.0,127.0 182.7,127.5 182.8,128.1 180.8,127.7 180.1,127.5 179.5,127.6 178.8,127.7 178.2,127.8 176.1,127.5 175.5,127.4 174.8,127.4 173.4,127.6 172.7,127.7 172.1,127.8 171.4,128.0 170.7,128.3 170.1,128.5 169.0,128.6 169.3,127.8 170.3,127.6 172.6,126.9 172.4,126.3 171.8,125.8 171.1,125.8 170.4,126.2 169.7,126.3 169.1,126.3 168.4,125.7 168.4,125.2 168.4,124.6 167.8,125.1 167.6,126.0 168.0,126.6 168.3,127.1 167.7,127.1 167.1,126.7 166.5,124.8 166.5,124.3 166.9,123.7 167.4,123.1 167.4,122.6 166.8,122.5 165.6,123.2 165.0,123.4 164.5,123.8 164.5,124.4 164.4,124.9 164.1,125.5 163.5,126.0 163.1,126.6 162.9,127.1 163.1,128.1 163.7,128.3 164.2,128.3 165.0,128.8 165.8,129.3 166.5,129.4 167.0,129.7 167.6,130.1 167.4,132.0 166.8,132.4 166.1,132.3 165.8,131.8 164.7,131.7 163.7,132.2 162.5,132.6 161.3,133.0 160.4,133.3 159.9,134.9 160.1,135.4 159.5,136.0 158.9,136.2 158.2,136.6 157.7,137.2 157.4,137.9 157.1,138.5 156.6,139.2 156.2,140.2 155.5,140.8 154.1,141.6 152.0,141.2 151.3,141.0 150.4,140.6 149.8,140.2 149.0,139.3 149.5,139.0 148.8,138.2 147.3,137.5 145.8,136.7 146.0,135.6 146.6,134.6 147.3,133.6 146.6,132.7 146.6,131.5 147.7,131.1 148.5,130.6 149.4,129.9 150.2,129.0 150.4,128.5 150.4,127.9 150.0,127.1 149.0,126.8 147.7,127.2 147.0,127.7 145.8,128.0 144.7,127.8 144.0,127.4 142.2,126.3 141.6,126.1 141.1,126.1 139.1,126.3 138.1,126.7 137.3,127.0 136.8,126.9 136.2,126.8 135.5,127.9 134.9,128.3 134.2,128.4 133.6,128.1 132.5,128.3 133.0,128.3 133.5,128.3 133.5,128.8 132.6,129.9 132.1,129.9 131.2,129.8 130.5,129.5 130.0,129.1 129.5,129.1 127.1,130.3 125.5,131.2 125.0,131.2 124.7,130.3 124.0,131.1 123.8,131.9 122.4,132.3 122.3,131.7 120.3,131.5 119.4,131.6 118.9,132.0 117.9,132.8 117.2,132.9 116.4,133.0 115.6,131.8 114.6,130.9 114.0,131.0 113.5,131.3 112.4,132.4 112.5,133.0 112.5,133.5 112.2,135.3 111.2,135.9 111.5,136.9 110.4,137.8 110.3,136.5 107.8,135.3 107.2,134.7 105.1,134.9 102.6,135.5 101.9,135.8 101.0,136.2 100.0,136.0 99.7,135.5 99.0,135.0 98.3,134.8 97.9,135.3 97.0,136.2 96.6,133.8 97.1,133.2 96.9,132.6 96.5,131.8 97.2,130.5 99.9,130.3 100.4,130.5 101.0,130.8 101.7,130.6 102.7,130.3 104.5,128.1 105.1,127.5 106.0,127.4 106.7,127.3 107.6,127.1 110.3,125.0 110.9,124.3 112.3,123.4 113.1,123.1 114.0,122.3 114.4,121.7 116.2,120.5 116.7,120.3 117.2,120.1 117.7,119.4 117.3,118.8 119.5,117.7 120.2,117.6 120.7,117.6 122.1,117.0 122.7,116.6 124.4,117.2 124.6,117.7 125.2,118.1 125.7,118.2 126.4,118.2 127.0,117.7 127.6,117.5 128.3,117.4 128.8,117.4 129.7,117.7 130.3,117.7 131.1,117.7 134.3,117.4 136.2,117.1 136.8,116.7 137.5,116.4 139.3,115.9 142.4,115.8 142.9,115.9 143.8,116.0 145.4,115.4 146.0,114.9 147.0,114.6 147.7,114.5 148.3,114.9 148.6,115.4 147.5,116.7 147.3,117.2 149.0,117.9 149.6,118.0 149.1,117.3 150.3,116.6 150.6,117.1 151.0,117.7 152.4,117.8 153.4,117.8 154.7,117.3 156.4,115.8 156.4,115.2 156.9,114.7 157.4,115.3 157.6,115.8 158.0,114.7 157.8,114.1 157.2,113.4 156.4,112.2 157.6,110.3 158.3,109.4 158.9,108.8 159.7,108.5 161.0,107.5 161.6,107.0 162.9,105.6 163.7,104.8 164.4,104.0 165.0,103.2 165.3,102.6 165.7,101.9 165.9,101.3 165.8,100.3 165.4,98.8 164.8,98.4 164.8,97.8 165.5,96.1 166.1,95.6 166.7,95.4 167.5,95.3 168.9,94.9 169.5,94.7 170.1,94.3 171.5,93.8 172.0,93.8 172.6,93.8 172.8,94.7 171.5,95.7 170.3,96.5 169.4,97.5 168.9,97.8 168.1,97.6 167.1,98.4 167.0,98.9 168.3,99.4 169.1,99.2 169.2,100.0 168.7,101.3 168.6,101.9 169.4,102.5 170.7,102.9 172.1,102.9 172.7,102.7 173.2,102.3 173.5,101.6 173.6,101.0 174.1,100.6 175.0,100.4 175.8,100.3 177.6,99.7 178.4,99.5 179.2,99.3 179.8,99.0 180.6,98.6 182.8,98.0 183.5,97.7 187.2,95.2 188.9,93.3 189.3,92.7 189.5,92.0 189.7,91.3 190.0,90.8 190.4,90.2 191.0,89.8 191.8,89.4 192.4,89.1 193.1,88.9 193.7,88.7 194.9,88.2 195.7,87.7 196.2,87.3 197.1,86.3 197.4,85.6 197.4,84.8 197.4,84.2 197.6,83.6 197.9,83.0 198.8,81.3 199.3,80.5 200.4,79.6 201.0,79.0 201.4,78.2 202.3,76.0 202.8,74.5 203.6,72.9 204.0,72.2 204.3,71.5 204.5,70.9 204.6,70.2 204.7,69.5 204.7,68.3 204.6,67.7 204.5,67.2 204.2,66.6 203.6,66.1 203.1,65.9 202.4,65.9 201.9,66.3 201.0,66.3 200.5,65.7 200.3,64.9 200.9,64.9 201.6,65.1 202.2,65.0 202.8,64.5 203.2,63.9 203.5,63.3 204.0,62.3 204.2,61.3 204.2,60.8 203.2,59.5 203.3,59.0 203.1,58.3 202.3,57.8 203.9,56.0 204.5,55.7 205.1,56.0 205.7,55.8 206.5,55.5 207.1,55.1 207.5,54.0 207.9,52.4 207.6,51.7 207.8,50.4 208.6,50.1 209.1,50.6 209.7,50.6 210.3,50.2 210.9,50.3 211.4,50.6 211.5,51.2 211.3,51.8 211.6,53.5 211.8,54.1 212.2,54.7 212.8,54.9 213.5,54.8 214.2,54.1 214.0,53.5 214.3,52.9 214.8,53.0 215.5,53.6 216.7,54.3 217.2,54.5 217.8,54.2 218.1,53.6 218.4,53.1 218.9,51.1 218.7,50.5 218.0,49.9 217.4,49.9 217.1,50.4 216.4,50.7 215.7,50.6 214.3,51.0 213.7,51.2 213.2,51.4 212.9,50.9 213.8,48.1 214.6,46.7 216.7,47.3 217.2,47.6 217.8,48.2 218.3,48.6 218.9,48.8 " />
    <polygon id="Japan" points="185.5,87.6 186.5,87.4 187.1,87.3 187.0,88.0 186.4,89.1 184.8,90.2 183.6,90.5 183.1,90.5 183.6,90.0 184.3,88.8 184.1,88.2 183.6,88.3 183.1,87.5 184.0,86.2 185.6,84.7 186.2,84.4 186.3,85.3 186.1,85.9 185.7,86.6 185.4,87.3 " />
    <polygon id="Japan" points="169.3,98.2 168.0,98.9 167.5,98.4 168.3,98.2 169.0,98.1 " />
    <polygon id="Japan" points="124.9,107.9 125.8,108.3 125.9,109.3 125.4,109.8 124.6,109.9 123.7,109.3 123.7,108.5 124.3,108.0 124.9,107.9 " />
    <polygon id="Japan" points="121.5,111.3 121.0,111.1 121.2,110.6 121.8,110.3 122.4,110.2 122.1,111.0 121.5,111.3 " />
    <polygon id="Japan" points="122.7,111.3 122.4,110.8 122.9,110.5 122.7,111.3 " />
    <polygon id="Japan" points="122.3,111.8 121.8,111.8 122.3,111.7 " />
    <polygon id="Japan" points="197.5,127.3 196.9,127.3 196.4,127.0 196.3,126.4 196.9,126.0 197.4,126.4 197.5,127.1 " />
    <polygon id="Japan" points="78.4,131.8 77.4,131.2 77.9,128.7 78.3,127.8 79.6,127.2 80.1,127.3 80.3,127.8 80.1,128.8 79.1,131.1 78.8,131.7 " />
    <polygon id="Japan" points="142.6,132.9 141.9,132.9 141.2,132.4 141.0,131.9 142.7,130.1 143.6,129.2 144.8,128.3 145.4,128.4 144.9,129.2 144.4,129.8 143.9,130.5 144.1,131.5 144.5,132.1 142.6,132.9 " />
    <polygon id="Japan" points="137.4,130.1 135.5,129.7 136.5,128.9 137.2,128.8 137.5,129.8 " />
    <polygon id="Japan" points="195.4,131.4 195.2,130.7 195.4,131.4 " />
    <polygon id="Japan" points="135.9,131.2 136.3,131.7 137.2,132.3 138.3,132.8 138.9,132.9 139.8,132.7 140.7,133.5 140.5,134.1 140.2,134.9 140.4,135.4 140.9,135.4 141.4,136.0 142.1,137.3 141.5,137.6 140.8,137.9 140.2,138.2 137.9,139.5 137.3,140.4 136.7,140.9 136.2,141.7 135.8,142.6 135.6,143.1 135.6,143.7 135.5,144.2 134.6,143.7 133.8,142.8 132.4,141.5 131.8,141.2 130.3,140.9 129.2,140.9 128.7,141.1 126.1,142.4 124.9,142.7 124.4,143.2 124.4,143.7 124.5,144.4 123.2,146.0 122.2,146.7 121.7,147.1 121.4,148.7 121.6,149.7 121.1,150.0 120.4,149.7 119.8,149.7 119.2,150.1 117.3,149.9 117.5,149.0 118.0,148.5 117.5,148.1 117.0,148.2 115.9,148.3 115.2,146.7 115.5,145.0 116.0,144.1 115.5,143.7 114.6,143.6 114.1,143.3 114.3,142.0 114.1,141.5 113.3,141.7 111.8,142.4 111.3,142.9 110.0,143.1 111.0,142.4 113.0,141.4 114.6,140.7 116.4,139.5 117.0,139.2 117.6,138.7 117.9,138.1 118.0,137.5 118.0,136.9 118.9,135.4 120.2,134.0 120.8,133.8 121.9,134.9 122.2,135.5 122.7,136.1 123.2,136.3 123.8,136.2 124.4,135.9 125.1,135.4 125.7,135.4 126.4,135.5 127.1,135.6 127.6,135.7 128.4,134.9 128.9,134.5 129.1,134.0 129.1,133.3 129.4,132.7 130.1,132.3 132.0,131.0 133.3,131.1 134.2,131.3 134.8,130.7 135.9,131.2 " />
    <polygon id="Japan" points="77.2,134.3 76.6,134.1 76.6,133.3 76.8,131.7 77.7,131.6 78.5,131.9 78.3,132.5 77.9,133.7 77.2,134.3 " />
    <polygon id="Japan" points="121.1,133.0 121.1,132.2 121.7,131.8 122.1,132.3 122.0,132.8 121.1,133.0 " />
    <polygon id="Japan" points="115.0,133.9 114.3,132.7 114.5,132.2 115.3,131.9 115.6,132.5 115.4,133.7 " />
    <polygon id="Japan" points="116.1,133.9 116.4,134.4 115.3,134.3 115.7,133.8 115.7,133.2 116.2,133.2 116.1,133.9 " />
    <polygon id="Japan" points="198.3,134.8 197.8,134.6 198.0,134.0 198.5,133.9 198.8,134.6 " />
    <polygon id="Japan" points="113.6,136.5 114.6,135.9 114.8,136.4 113.6,137.0 112.3,137.0 111.9,136.4 112.2,135.9 113.1,135.9 113.5,136.4 " />
    <polygon id="Japan" points="100.5,140.0 101.1,140.3 102.1,140.4 102.8,140.3 103.3,140.1 103.7,139.5 104.2,139.1 104.8,139.0 105.5,139.2 106.1,139.7 106.5,140.2 106.5,141.5 106.3,142.0 104.9,142.9 104.3,142.9 104.0,143.8 104.6,144.1 106.9,144.2 107.4,144.3 108.3,144.0 108.2,144.6 107.6,145.5 108.6,147.1 109.5,148.1 109.6,149.0 108.5,149.5 108.2,150.2 108.0,150.7 107.0,151.1 106.2,152.1 106.0,152.6 106.2,153.4 105.6,154.1 105.2,154.8 104.7,155.9 104.3,157.2 103.5,159.1 103.2,160.0 103.2,160.7 103.7,161.1 103.2,163.3 102.6,164.8 102.2,165.7 101.8,166.2 100.9,166.1 100.8,165.6 99.7,165.1 98.9,165.2 98.4,165.6 97.9,166.3 98.5,166.5 99.1,166.7 99.5,167.4 97.7,168.8 97.1,169.2 96.5,169.4 95.0,170.0 94.5,170.5 94.1,169.8 94.7,169.2 95.1,168.7 95.5,167.6 95.6,166.9 95.3,165.9 94.1,164.2 93.6,164.1 93.4,163.5 94.1,163.2 94.6,163.4 94.6,164.0 95.3,163.8 95.7,163.0 95.7,162.5 94.2,162.0 93.5,162.4 92.8,163.6 92.5,164.3 92.3,164.9 92.3,165.6 92.7,166.6 93.4,167.2 94.0,167.4 93.9,168.0 93.1,168.7 92.4,168.7 92.2,168.1 91.6,167.8 90.2,167.7 89.2,167.6 88.6,166.6 88.9,165.9 89.7,165.3 89.9,164.7 90.1,164.1 90.2,163.3 89.3,162.2 88.7,161.8 88.3,161.3 88.5,160.0 88.1,158.7 88.2,157.8 89.1,157.3 89.6,157.6 90.2,156.9 91.6,155.0 92.2,154.2 92.8,153.7 93.2,152.9 93.3,151.8 93.1,151.3 91.6,151.5 92.8,150.6 93.3,149.6 93.0,149.1 92.2,148.5 91.6,148.1 91.3,147.5 91.2,146.6 91.1,146.0 90.5,145.4 88.7,145.0 87.8,145.8 88.1,146.4 88.7,147.4 88.4,148.1 87.6,148.4 88.1,149.0 88.7,148.8 89.4,148.6 90.1,148.7 90.5,149.4 90.5,150.2 90.2,150.9 88.7,151.7 88.2,151.8 87.8,151.2 88.4,150.6 88.3,149.6 87.2,149.5 85.8,150.1 85.3,150.6 85.0,151.2 84.1,151.9 83.3,152.2 83.9,151.3 84.4,150.7 83.5,149.3 83.0,149.4 82.5,148.9 81.9,147.8 82.4,146.2 82.9,146.2 83.4,146.5 84.0,147.1 84.2,148.1 83.9,148.6 84.4,149.1 85.6,148.8 85.5,147.1 84.8,146.5 83.2,145.6 81.9,144.8 81.2,144.6 81.2,142.8 84.1,143.6 84.4,143.0 84.6,142.3 84.1,142.1 83.9,141.5 84.5,140.8 85.2,140.7 85.7,141.0 85.6,141.5 86.2,141.8 86.9,141.2 87.9,140.0 88.6,139.3 89.4,140.2 90.4,140.1 90.9,139.8 91.7,138.3 91.5,137.6 92.0,137.0 94.3,136.0 95.7,136.2 97.7,136.6 97.4,137.3 98.3,138.8 99.0,139.7 100.2,139.9 " />
    <polygon id="Japan" points="199.4,137.2 199.1,136.6 199.5,137.2 " />
    <polygon id="Japan" points="83.3,138.4 82.2,138.3 82.4,137.3 83.5,137.1 83.7,138.0 " />
    <polygon id="Japan" points="113.0,138.1 112.3,138.0 112.8,137.9 " />
    <polygon id="Japan" points="84.2,143.0 84.0,142.4 84.5,142.5 " />
    <polygon id="Japan" points="79.0,145.1 79.7,143.1 80.7,142.5 81.0,143.0 80.7,143.6 80.3,144.3 79.8,144.8 79.2,145.0 " />
    <polygon id="Japan" points="202.0,146.6 201.5,146.4 200.9,145.8 201.1,145.3 201.6,145.6 202.2,145.7 202.0,146.6 " />
    <polygon id="Japan" points="75.6,147.3 76.1,147.1 75.2,149.1 74.5,147.8 75.6,145.8 75.7,145.3 75.9,146.0 75.7,146.5 75.5,147.1 " />
    <polygon id="Japan" points="73.2,151.2 71.4,151.8 70.5,151.7 69.8,151.6 69.9,151.1 70.2,150.4 70.2,149.9 71.9,149.5 72.6,149.9 73.1,150.7 73.2,151.2 " />
    <polygon id="Japan" points="86.5,156.5 85.6,155.9 85.8,154.6 86.0,154.0 86.5,152.9 87.4,152.4 87.9,152.4 88.5,153.1 88.7,154.3 88.6,154.9 87.3,156.0 86.5,156.5 " />
    <polygon id="Japan" points="90.5,154.4 89.0,154.1 88.6,153.6 89.4,153.0 90.1,152.7 91.4,152.8 90.9,153.8 90.5,154.4 " />
    <polygon id="Japan" points="88.0,157.5 87.5,156.5 88.1,156.3 88.4,156.9 88.1,157.5 " />
    <polygon id="Japan" points="204.2,159.6 " />
    <polygon id="Japan" points="82.9,163.1 82.4,163.0 83.6,161.2 83.1,162.9 " />
    <polygon id="Japan" points="96.8,178.1 96.3,177.6 96.4,176.9 96.8,176.4 97.3,175.6 97.3,174.9 97.3,174.4 98.0,173.0 98.5,172.5 98.9,173.5 98.8,174.1 98.6,174.9 97.6,177.7 96.8,178.1 " />
    <polygon id="Japan" points="207.8,176.9 " />
    <polygon id="Japan" points="92.7,179.5 91.9,179.5 91.4,179.4 90.8,178.2 90.7,177.7 91.7,177.0 92.3,177.0 93.1,177.3 93.7,177.6 94.0,178.5 93.3,179.4 92.7,179.5 " />
    <polygon id="Japan" points="85.7,182.8 85.3,182.3 85.8,182.7 " />
    <polygon id="Japan" points="85.0,183.8 85.3,184.4 84.7,184.3 84.7,183.8 " />
    <polygon id="Japan" points="83.0,186.9 82.8,186.4 83.0,186.9 " />
    <polygon id="Japan" points="82.8,200.6 82.2,201.1 81.3,201.5 80.4,202.4 79.9,203.4 78.9,204.5 76.3,203.1 77.4,202.1 78.2,201.7 81.2,200.4 81.7,200.2 82.3,200.2 82.8,200.6 " />
    <polygon id="Japan" points="86.1,202.5 85.2,202.5 86.2,201.7 86.2,202.4 " />
    <polygon id="Japan" points="78.4,205.0 77.0,204.7 76.7,204.0 78.4,204.6 " />
    <polygon id="Japan" points="73.8,209.7 73.2,209.1 73.0,208.0 73.1,207.5 73.6,207.0 74.8,208.5 74.5,209.1 73.9,209.6 " />
    <polygon id="Japan" points="228.5,209.2 " />
    <polygon id="Japan" points="229.7,210.6 " />
    <polygon id="Japan" points="69.8,213.4 69.3,213.6 68.8,213.2 68.8,212.7 70.8,212.4 70.1,213.2 " />
    <polygon id="Japan" points="214.2,215.0 " />
    <polygon id="Japan" points="229.7,215.9 229.7,215.4 229.7,215.9 " />
    <polygon id="Japan" points="230.2,217.2 229.5,216.9 230.1,216.5 230.3,217.1 " />
    <polygon id="Japan" points="65.6,221.9 64.4,222.7 62.0,224.1 61.2,224.1 60.0,226.6 60.4,227.2 60.1,227.9 59.4,228.4 58.9,228.5 58.4,227.0 59.4,226.2 59.5,225.3 59.3,224.5 59.9,224.2 62.1,223.0 62.0,222.4 61.3,222.2 61.3,221.5 62.0,221.2 62.6,221.4 62.5,221.9 63.4,221.8 63.8,221.3 65.5,219.5 66.2,219.4 66.5,220.0 66.5,220.5 65.8,221.7 " />
    <polygon id="Japan" points="229.5,222.1 228.7,221.0 229.2,221.3 229.5,222.1 " />
    <polygon id="Japan" points="48.1,224.9 48.6,225.3 48.4,225.9 47.3,225.3 47.9,224.9 " />
    <polygon id="Japan" points="100.8,231.6 100.6,231.0 101.2,231.1 " />
    <polygon id="Japan" points="219.1,236.3 " />
    <polygon id="Japan" points="31.5,243.8 32.0,243.8 32.5,244.1 31.4,244.5 30.8,244.5 30.3,244.4 30.4,242.6 31.1,243.4 " />
    <polygon id="Japan" points="219.3,244.1 219.8,243.6 219.3,244.1 " />
    <polygon id="Japan" points="18.6,247.6 18.5,248.2 18.4,248.8 17.6,249.1 17.0,248.9 16.5,248.0 17.2,247.8 17.8,247.8 18.4,247.1 18.9,246.4 19.4,246.1 19.1,246.6 18.8,247.1 " />
    <polygon id="Japan" points="101.1,247.6 " />
    <polygon id="Japan" points="3.7,247.8 3.2,247.8 3.9,247.5 " />
    <polygon id="Japan" points="14.0,250.0 12.2,249.7 12.8,248.1 14.4,248.5 14.7,249.2 14.1,249.9 " />
    <polygon id="Japan" points="368.2,249.5 " />
  </g>
</svg>