<?xml version="1.0" encoding="UTF-8" standalone="yes"?>
<!DOCTYPE svg PUBLIC "-//W3C//DTD SVG 1.0//EN" "http://www.w3.org/TR/2001/REC-SVG-20010904/DTD/svg10.dtd">
<svg height="250" width="370" xmlns="http://www.w3.org/2000/svg" xmlns:svg="http://www.w3.org/2000/svg" xmlns:xlink="http://www.w3.org/1999/xlink">


<g id="background">
<rect id="" width="370" height="250" fill="#222222"/>
</g>
  <g id="398" style="stroke-miterlimit: 3; fill: #F1F1F1; stroke: #000000; stroke-opacity: 1; stroke-width: 0.05; stroke-linejoin: bevel; stroke-linecap: square">
    <polygon id="Kazakhstan" points="206.5,59.4 208.0,58.9 209.0,59.2 210.9,59.3 212.5,59.8 213.4,60.7 214.3,60.6 215.4,61.1 216.0,61.3 217.7,60.2 218.5,59.9 219.1,60.0 219.7,59.9 221.1,59.6 221.1,60.2 222.8,61.5 222.9,62.3 222.6,63.4 223.0,64.4 223.9,64.9 225.0,64.9 225.5,65.6 225.0,65.9 224.4,66.1 224.5,66.9 224.9,67.9 224.9,68.6 224.1,68.7 223.5,68.5 222.9,68.5 222.9,69.0 223.6,69.1 223.6,69.7 224.6,70.6 225.3,70.4 226.0,69.6 227.3,69.8 227.4,70.3 228.8,70.6 229.4,70.4 229.5,69.6 231.0,69.2 231.6,69.3 232.3,69.6 233.1,70.4 233.6,70.4 233.9,69.8 233.3,69.6 232.8,69.3 232.4,68.3 233.5,68.2 235.1,69.2 234.9,69.9 236.6,70.3 235.9,71.3 235.6,72.0 236.2,72.4 236.8,72.1 238.2,71.9 238.3,71.4 237.4,71.0 236.8,71.1 237.0,70.6 237.5,70.3 238.6,70.4 239.8,70.5 240.8,70.4 241.0,71.0 241.7,71.7 243.7,72.0 244.5,72.0 245.5,72.0 245.9,71.4 246.6,70.9 247.1,70.8 248.0,71.0 247.7,71.8 247.5,72.7 247.0,72.8 245.7,72.6 245.1,72.7 244.3,73.5 244.0,74.3 243.4,74.4 243.3,75.4 244.5,75.8 244.4,76.4 245.0,76.7 246.3,75.9 247.2,75.0 248.1,75.0 249.3,74.7 250.8,74.9 252.3,75.2 252.7,75.9 253.5,76.4 254.5,75.3 254.3,74.4 255.6,74.4 256.2,73.8 257.2,73.1 258.7,73.0 259.5,73.3 260.9,72.6 262.5,71.8 263.3,71.6 262.6,71.0 263.7,70.5 264.3,70.7 265.4,70.6 267.2,70.0 270.1,69.2 270.4,68.3 271.4,68.5 272.6,68.6 274.1,68.3 274.3,67.7 275.6,67.5 276.0,68.4 276.0,68.9 275.5,69.5 274.8,70.2 274.3,70.3 273.7,70.3 273.1,70.0 272.6,70.0 272.0,70.0 272.2,70.5 272.7,71.1 272.9,71.6 275.3,72.9 276.5,73.4 277.6,73.9 279.7,75.0 280.9,75.5 282.0,76.0 284.1,77.3 285.1,77.9 285.6,78.3 286.2,78.9 286.7,79.5 289.0,82.0 290.0,82.9 290.6,83.5 292.0,85.1 293.1,86.3 294.7,88.1 297.6,91.7 298.4,92.7 299.9,94.2 300.3,94.8 301.6,96.6 302.1,97.3 304.1,99.9 304.4,100.4 305.0,100.8 305.3,100.1 307.0,99.4 307.6,99.5 308.2,99.3 308.7,99.0 308.9,98.4 308.5,97.8 308.4,97.1 308.9,96.8 309.7,96.8 310.2,96.8 310.4,96.1 311.2,96.0 311.9,96.2 313.0,96.7 313.9,97.1 314.4,97.1 315.0,96.9 315.0,97.5 314.5,98.3 314.2,98.9 315.1,99.3 315.8,99.1 316.5,99.0 317.3,99.0 317.6,99.9 317.7,100.4 317.5,100.9 318.4,101.1 318.9,101.1 319.6,101.1 320.2,101.0 320.9,100.8 321.8,100.7 322.7,100.8 323.2,101.1 323.9,101.4 324.5,101.3 325.1,101.0 325.8,100.9 326.5,100.9 327.1,101.3 328.6,100.7 329.1,100.2 329.5,99.6 330.2,99.6 330.9,99.7 331.6,99.8 332.2,99.6 332.8,98.8 333.9,98.7 335.7,98.7 338.8,99.8 340.4,100.5 340.4,101.2 341.0,101.7 341.6,102.0 342.2,102.4 342.7,103.1 342.5,103.7 343.1,105.3 344.0,105.9 345.4,105.8 347.0,106.2 348.0,106.5 349.6,107.0 350.3,107.6 349.7,107.8 349.5,108.4 350.1,108.8 351.5,110.2 351.7,110.8 352.0,111.4 352.6,111.5 353.4,111.2 353.9,111.5 354.5,111.5 355.7,111.4 356.5,111.6 357.0,111.8 358.4,112.0 360.3,112.5 360.9,112.4 361.3,111.8 361.8,111.3 362.5,111.1 363.4,110.7 364.4,109.6 365.8,109.7 366.0,110.5 365.5,110.8 365.0,110.8 364.4,111.3 364.7,111.8 365.2,111.9 366.5,112.1 366.4,112.7 367.2,113.7 368.2,114.4 368.9,114.6 369.4,114.6 370.0,114.7 370.6,115.0 370.8,115.7 369.7,115.8 368.9,115.7 366.8,115.8 365.8,116.7 365.4,117.2 365.6,117.8 366.1,118.5 365.9,119.3 365.2,119.9 364.7,120.3 364.2,120.8 363.1,121.4 362.5,121.4 361.9,121.4 361.0,122.0 360.5,122.1 359.7,122.0 359.1,122.0 358.0,122.0 357.5,122.1 357.0,122.2 356.4,122.7 355.4,124.4 355.2,124.9 355.0,125.8 354.6,126.3 354.7,126.9 355.0,128.0 355.4,129.4 355.3,129.9 355.2,130.5 355.9,131.3 356.1,132.6 355.8,133.1 354.9,133.7 354.5,134.4 353.2,134.5 352.4,134.5 351.7,134.6 351.3,135.1 350.6,135.4 350.0,135.7 349.5,136.1 348.0,136.5 347.4,136.5 347.7,136.0 347.6,135.4 347.1,135.1 346.5,135.0 343.6,134.9 342.7,134.9 342.2,135.0 341.5,135.2 340.1,135.2 339.4,135.1 338.7,134.8 337.9,134.6 337.2,134.6 336.6,134.4 335.8,134.0 334.8,133.5 334.3,133.4 333.8,133.3 333.1,133.0 332.3,133.0 332.0,133.5 331.9,134.2 331.8,135.2 331.4,135.9 330.7,136.7 330.2,137.7 329.9,138.2 329.4,139.7 329.0,140.8 328.5,141.4 328.0,142.0 327.7,142.6 327.6,143.1 327.4,144.2 327.2,144.9 326.9,145.5 326.3,146.1 325.5,147.7 325.5,148.3 326.2,148.7 327.0,148.8 327.6,148.8 328.2,149.0 328.5,149.6 328.5,150.3 328.3,150.9 328.0,151.4 327.5,152.0 326.9,151.9 325.8,151.2 325.2,150.9 324.7,151.0 324.1,151.2 323.2,151.5 322.6,151.7 322.1,151.7 321.0,151.4 320.9,150.7 320.5,150.1 320.0,149.9 319.4,150.0 318.8,150.3 318.0,150.5 317.2,150.6 315.7,151.0 314.8,151.2 313.5,151.6 312.7,151.7 311.4,151.7 309.2,152.1 308.3,152.5 306.8,152.8 306.3,152.8 305.7,152.7 305.1,152.9 303.3,153.9 304.4,154.9 304.9,154.9 305.8,154.8 306.4,154.7 307.0,154.7 308.4,155.2 309.0,155.4 307.9,156.4 307.6,158.1 307.9,158.9 308.1,159.8 308.0,160.3 307.7,160.8 308.4,161.8 309.0,162.9 309.2,163.6 309.7,164.5 310.0,165.2 310.6,166.2 311.1,167.0 311.5,168.8 311.8,169.7 311.5,170.2 310.9,170.1 310.3,169.9 308.0,170.9 308.4,171.6 309.0,171.8 309.5,171.9 307.8,172.8 307.3,172.8 306.8,172.9 306.0,174.3 306.6,177.0 307.1,178.0 306.6,178.5 306.0,178.3 305.5,177.6 304.1,176.4 301.9,176.0 300.9,176.1 300.3,176.1 299.6,176.1 299.1,175.6 298.7,174.9 298.1,174.7 297.5,174.3 297.2,173.8 297.3,173.3 296.6,173.1 295.9,173.3 292.4,172.8 291.2,172.3 290.5,172.2 288.0,172.4 287.4,172.5 286.3,172.4 285.8,172.1 283.9,172.0 283.2,172.0 282.1,171.9 281.0,171.9 279.7,172.0 279.2,172.0 278.6,171.5 277.1,171.3 275.9,171.4 274.9,171.9 273.8,172.1 272.1,172.1 271.2,171.9 270.4,171.8 269.3,171.7 267.4,171.7 266.8,171.7 266.3,171.9 266.0,172.5 265.3,173.0 264.8,172.9 264.2,172.7 262.0,172.5 261.4,172.5 260.8,172.4 259.8,172.0 258.2,171.4 257.7,171.3 257.1,171.3 256.2,170.8 255.6,170.3 253.6,169.4 252.8,169.2 252.2,169.3 250.6,169.5 249.5,169.9 248.2,170.3 247.5,170.4 246.9,170.6 246.4,170.8 245.9,171.8 245.8,172.7 245.5,173.5 245.0,174.5 245.0,175.1 245.3,175.7 245.8,176.2 244.2,176.4 244.1,175.8 242.5,175.2 241.2,175.3 240.6,175.4 240.0,175.2 239.5,175.0 239.2,174.5 237.6,174.1 236.1,173.8 235.2,173.4 234.7,173.3 233.5,173.3 231.9,172.9 231.1,172.8 230.4,172.8 229.7,172.8 228.9,173.1 228.3,173.4 227.5,173.1 226.8,173.0 225.4,173.4 224.5,174.0 224.4,174.5 223.5,174.9 222.5,176.3 222.3,177.0 221.8,177.4 222.3,177.9 221.8,178.4 221.1,178.4 219.9,179.3 219.6,180.0 218.8,179.9 218.4,179.4 217.5,179.6 216.9,179.9 216.1,180.7 215.5,181.4 214.4,182.3 213.3,182.9 212.5,182.9 211.9,183.0 210.6,183.2 209.2,184.1 208.1,184.9 207.1,185.1 205.5,185.8 205.5,186.9 205.4,187.4 203.7,188.3 202.9,188.5 202.5,189.0 202.3,189.5 201.8,189.8 201.1,190.1 200.9,190.6 201.1,191.7 201.7,192.3 201.5,192.9 200.1,193.0 198.6,192.5 198.1,192.2 196.2,191.0 196.7,190.4 197.1,189.5 197.1,189.0 196.6,188.7 195.7,188.1 193.6,187.6 192.5,187.7 191.5,187.8 190.7,187.9 189.9,188.0 188.1,188.0 187.3,188.0 185.6,188.0 184.7,187.9 184.2,187.7 183.4,185.2 182.7,182.8 182.6,181.8 182.5,181.2 182.4,180.2 177.9,180.2 177.9,177.9 177.9,177.2 178.0,176.4 178.5,174.8 178.5,174.2 178.6,173.0 178.8,171.2 176.0,172.3 175.4,171.3 174.4,169.8 173.3,168.3 171.0,167.3 168.8,165.3 168.0,164.5 167.2,164.8 164.8,165.8 163.7,166.2 159.7,166.1 157.4,165.9 155.3,165.7 154.3,165.6 152.4,165.4 148.9,165.9 147.0,166.1 145.8,166.3 144.9,166.4 141.8,166.8 141.0,166.3 139.7,165.2 137.9,163.7 135.2,161.4 133.8,160.4 120.1,153.1 110.3,147.9 107.6,148.5 105.2,149.0 103.2,149.4 101.5,149.8 99.7,150.2 96.7,150.9 94.1,151.4 93.5,151.6 92.9,151.7 90.6,152.2 89.4,152.5 87.1,153.1 87.0,155.5 87.0,157.5 87.0,162.6 87.0,163.3 87.0,165.5 87.0,168.1 87.1,170.5 87.0,171.1 87.0,173.4 87.1,175.9 87.1,178.3 87.0,179.1 87.0,181.2 87.1,184.1 87.1,186.1 86.5,186.3 85.9,186.4 85.4,186.7 83.9,186.9 82.9,187.0 82.2,186.8 81.8,186.2 81.3,185.7 80.6,185.3 80.1,184.7 79.8,184.2 79.3,183.7 78.5,182.7 77.9,182.2 77.6,181.7 77.7,181.1 75.8,179.7 74.1,178.9 71.8,177.8 71.2,177.5 70.5,177.2 69.4,177.1 68.9,177.1 68.3,177.2 67.8,177.3 66.9,177.5 65.9,177.6 65.3,177.7 64.8,177.7 64.1,177.8 63.5,177.9 63.0,178.1 60.0,179.0 59.4,179.3 58.1,180.1 55.3,182.3 54.7,182.5 55.1,181.6 55.3,181.0 55.1,180.5 54.5,179.5 54.7,178.8 55.4,178.2 55.9,177.6 56.6,176.5 57.3,175.0 57.6,174.4 57.5,173.9 56.4,173.2 55.9,173.0 55.0,172.8 54.3,172.7 52.7,172.4 51.7,172.3 50.8,172.5 50.2,172.7 49.3,172.1 49.0,171.5 47.9,169.7 45.6,169.7 44.7,169.8 44.2,169.8 44.3,169.2 44.6,168.6 44.7,168.0 44.7,167.5 44.2,166.2 43.7,165.7 43.2,165.6 42.0,164.1 41.7,163.4 40.9,162.1 40.5,161.5 40.4,160.7 39.5,160.0 38.9,159.8 38.0,159.6 37.4,159.6 36.8,159.5 36.2,159.4 35.3,159.2 34.8,158.8 34.8,157.6 34.9,156.9 35.4,156.3 36.2,156.3 37.5,156.5 39.0,156.6 39.8,156.5 40.6,156.5 41.1,156.8 41.7,157.3 42.2,157.5 42.9,157.8 45.1,157.5 45.7,157.5 46.7,157.5 45.8,156.7 45.3,156.7 44.7,156.8 44.0,155.8 43.2,155.3 42.4,155.0 41.8,154.7 41.3,153.5 41.9,153.2 43.4,152.6 44.0,152.2 44.0,151.6 44.6,150.8 45.4,149.7 46.0,150.0 46.9,150.1 48.1,149.6 48.9,149.4 50.2,149.8 51.5,149.7 55.2,149.4 55.8,149.5 56.5,149.7 57.8,150.0 58.5,150.1 60.8,150.4 61.9,150.0 61.3,149.7 58.9,148.9 57.7,148.5 57.5,147.8 57.6,147.3 58.7,146.1 59.3,145.8 60.6,144.1 60.8,143.3 61.3,141.6 61.3,141.0 61.0,140.5 60.5,139.9 59.9,139.7 60.1,139.0 60.7,139.0 61.7,138.2 61.6,137.6 60.8,137.0 60.7,136.4 59.3,135.6 58.7,135.4 57.7,135.5 56.6,135.5 56.0,135.4 55.0,135.0 54.6,135.5 53.0,136.8 52.4,136.7 51.7,136.7 49.6,136.0 48.9,135.9 48.0,135.5 47.5,134.6 46.5,134.5 45.0,134.2 44.4,134.1 43.8,134.0 41.9,134.4 40.4,134.9 39.8,135.5 39.1,135.5 38.6,135.6 37.4,136.1 36.7,135.9 36.0,136.3 35.4,136.8 34.8,137.2 34.0,137.4 33.3,137.9 32.1,138.6 31.1,139.0 30.6,138.9 29.3,138.8 28.8,139.2 27.8,139.4 26.6,138.9 27.2,139.6 27.0,140.4 26.2,140.1 25.6,140.6 22.9,139.6 22.3,139.7 21.7,139.4 21.1,138.9 20.2,139.0 19.7,138.9 19.1,138.0 19.2,137.4 19.9,137.1 20.6,137.0 21.2,137.3 23.1,137.7 23.9,137.0 21.1,134.1 20.3,132.5 19.8,131.7 18.8,131.1 18.0,130.4 17.5,129.8 17.0,129.2 16.6,128.7 16.0,128.2 15.5,128.0 14.8,127.9 13.9,127.9 12.7,127.9 12.2,128.0 11.5,128.0 11.0,127.8 10.3,127.5 9.6,127.4 9.3,127.9 9.2,128.6 7.9,128.2 7.3,127.9 6.6,126.4 6.6,125.0 6.7,123.8 5.4,123.1 3.9,122.8 2.5,122.5 1.0,122.1 1.5,121.2 2.0,120.3 3.5,117.4 4.2,117.2 4.8,117.0 5.5,116.4 6.0,115.9 6.1,115.3 5.9,114.8 5.0,114.3 4.5,114.0 3.8,113.8 4.3,111.5 4.9,109.0 5.6,108.7 6.3,108.5 6.9,108.4 7.9,107.8 8.6,107.2 8.6,106.6 8.1,106.2 8.4,105.2 8.9,105.0 9.5,104.6 9.9,104.1 10.6,103.7 11.2,103.6 12.4,104.4 14.0,105.5 14.7,106.1 15.6,106.9 15.8,107.5 16.1,108.1 16.8,109.0 18.0,109.3 18.6,109.5 19.1,109.2 20.2,108.8 20.8,108.7 21.3,108.5 22.1,108.2 22.9,107.5 22.6,107.0 21.9,106.3 21.4,105.4 21.2,104.8 21.0,104.0 20.9,103.3 20.9,102.4 21.9,102.4 23.6,101.7 24.5,101.1 25.0,100.7 25.6,100.6 26.4,100.5 27.3,100.2 27.7,99.6 27.0,99.1 27.4,98.0 28.0,97.6 28.6,97.8 30.9,97.8 31.5,97.3 32.1,96.9 32.8,96.6 33.4,96.5 34.2,96.4 35.0,96.3 36.0,95.9 35.9,95.4 36.9,94.9 37.7,94.5 37.7,94.0 38.1,93.0 39.1,93.1 39.7,93.5 40.1,93.0 39.8,92.5 39.6,92.0 40.3,91.9 40.9,92.3 43.3,92.6 44.3,92.6 45.2,92.9 45.3,93.5 44.5,93.7 44.4,94.4 45.6,94.5 46.5,94.3 47.6,94.4 48.2,94.6 49.0,94.3 48.9,93.8 49.0,93.2 49.6,92.7 50.2,92.5 50.8,92.7 51.6,92.8 52.2,92.5 53.7,91.7 55.1,93.4 55.2,93.9 55.9,94.5 56.8,94.6 57.7,94.2 58.4,94.4 59.8,94.5 60.3,94.3 61.2,94.2 61.8,94.3 62.5,94.3 63.2,94.2 63.8,94.3 65.7,95.2 65.4,96.0 66.0,96.7 66.7,96.8 67.8,97.0 68.4,96.9 70.1,97.8 70.4,98.7 71.7,99.6 72.3,99.7 73.4,100.0 73.3,100.6 72.5,102.1 73.0,102.7 73.5,103.0 74.4,102.9 75.1,102.5 75.2,101.9 74.9,101.3 75.0,100.6 75.1,100.0 74.2,99.5 73.9,98.7 74.8,98.4 75.3,98.5 76.4,98.9 77.9,99.7 78.7,100.2 80.7,101.6 81.3,101.9 82.0,101.7 82.6,101.8 83.9,102.9 84.9,102.6 85.5,102.3 86.3,102.1 87.1,101.7 88.1,101.1 88.3,100.5 88.5,99.7 89.2,99.6 90.0,99.8 91.1,99.0 91.0,98.5 91.6,98.0 92.1,98.3 92.6,98.8 93.6,99.0 93.4,98.4 94.1,97.9 94.6,98.2 96.6,98.1 97.2,98.0 98.0,98.2 98.5,98.6 99.2,99.4 100.0,99.9 100.7,99.9 101.3,99.4 101.9,99.4 102.4,99.6 102.9,99.4 103.0,98.9 102.9,98.3 103.2,97.7 103.7,97.8 106.5,98.3 107.1,97.9 108.0,97.4 108.6,97.6 110.3,98.1 110.8,98.6 110.7,99.1 110.6,100.0 111.2,100.5 113.3,101.5 113.9,101.6 115.1,101.7 116.0,101.7 117.5,102.1 118.4,102.1 119.5,102.4 118.8,102.7 119.0,103.4 119.7,103.2 120.3,102.9 120.8,103.0 121.5,102.9 122.3,102.0 122.7,101.4 122.8,100.8 123.1,100.2 123.7,100.0 124.2,100.0 124.8,100.1 124.8,100.7 125.4,101.2 126.1,101.5 129.6,101.8 130.2,101.8 131.7,101.5 132.7,101.3 133.7,101.1 134.9,100.8 135.4,100.8 136.0,100.7 136.5,99.9 136.9,98.5 137.2,96.9 138.0,96.5 138.6,96.3 137.9,96.2 136.8,94.9 135.5,94.6 134.2,94.5 133.7,94.6 132.6,94.4 132.1,94.2 131.7,93.7 131.8,93.1 131.0,93.1 128.2,93.1 126.8,92.7 127.4,92.1 127.8,91.6 125.3,90.9 124.6,90.9 124.1,90.9 123.3,90.1 125.3,89.7 126.9,88.7 127.5,88.4 128.1,88.2 128.7,88.3 129.4,88.4 130.1,88.1 130.6,87.6 131.4,87.4 132.9,86.6 132.2,86.0 132.1,85.2 130.8,84.9 130.9,84.3 130.2,83.9 129.6,83.6 129.7,83.0 131.3,82.2 132.4,81.7 133.1,81.3 133.8,80.5 134.4,80.4 135.0,80.7 135.6,80.7 136.2,80.5 136.7,80.4 138.6,80.8 140.1,80.8 140.9,81.1 142.3,80.9 142.6,80.3 142.5,79.6 141.8,79.4 140.1,79.2 139.4,79.0 137.8,78.6 137.2,78.7 136.7,78.6 136.1,78.3 135.5,78.1 134.8,78.1 134.3,78.0 133.7,77.4 134.5,76.0 135.1,76.1 135.7,76.5 136.3,76.6 137.6,76.0 137.2,75.3 136.6,75.2 136.1,75.2 135.3,75.6 134.4,75.5 133.4,75.1 132.6,75.0 131.9,75.0 132.4,74.8 134.3,73.4 133.5,72.7 132.7,72.6 132.5,72.1 133.2,71.9 134.3,71.3 135.3,70.9 136.2,71.0 136.8,71.4 137.7,71.6 139.5,71.5 140.0,71.8 141.6,72.1 141.6,71.6 142.3,71.3 144.6,71.4 145.0,71.9 146.1,72.6 146.6,72.0 146.5,71.3 147.2,70.9 148.0,70.8 149.5,70.8 151.5,70.7 151.7,70.2 152.2,69.9 153.4,69.9 154.1,70.0 155.4,69.7 156.6,69.3 157.2,69.2 157.8,69.4 158.5,69.7 159.2,69.7 159.5,69.1 160.3,68.7 161.7,68.6 162.3,68.4 162.8,68.5 164.4,68.3 166.1,68.5 167.0,68.2 167.5,68.0 168.2,67.9 168.7,68.1 169.4,68.7 170.5,68.7 170.7,68.2 170.4,67.4 170.6,66.8 171.7,66.4 172.8,65.9 173.3,65.8 174.5,66.0 175.1,66.1 175.7,66.0 176.2,65.4 177.3,65.1 177.5,65.8 178.5,65.8 179.6,65.6 180.6,65.4 181.3,65.2 181.9,65.1 182.9,65.0 183.9,65.0 184.5,64.9 185.1,64.6 186.2,64.6 187.0,64.5 188.9,64.3 189.5,63.8 190.0,63.8 191.8,63.8 192.9,63.7 193.5,63.5 194.0,63.1 194.8,62.7 195.9,62.9 197.5,62.8 198.7,62.0 198.0,61.6 197.6,60.9 198.2,60.7 200.1,60.8 201.3,60.7 202.3,59.2 203.5,59.3 204.0,59.7 204.6,59.9 204.8,59.3 204.3,59.2 204.1,58.7 205.4,58.7 206.3,58.9 206.5,59.4 " />
    <polygon id="Kazakhstan" points="60.1,142.0 59.6,141.7 60.2,140.7 60.8,141.2 60.5,141.8 " />
    <polygon id="Kazakhstan" points="35.4,153.5 35.1,152.9 35.3,152.4 35.8,152.3 35.7,153.3 " />
    <polygon id="Kazakhstan" points="33.8,154.6 34.3,154.4 33.8,154.8 33.3,154.6 32.6,153.7 33.0,152.7 33.7,152.4 33.2,152.8 32.9,153.4 33.2,154.2 33.8,154.6 " />
  </g>
</svg>