<?xml version="1.0" encoding="UTF-8" standalone="yes"?>
<!DOCTYPE svg PUBLIC "-//W3C//DTD SVG 1.0//EN" "http://www.w3.org/TR/2001/REC-SVG-20010904/DTD/svg10.dtd">
<svg height="250" width="370" xmlns="http://www.w3.org/2000/svg" xmlns:svg="http://www.w3.org/2000/svg" xmlns:xlink="http://www.w3.org/1999/xlink">


<g id="background">
<rect id="" width="370" height="250" fill="#222222"/>
</g>
  <g id="4" style="stroke-miterlimit: 3; fill: #F1F1F1; stroke: #000000; stroke-opacity: 1; stroke-width: 0.05; stroke-linejoin: bevel; stroke-linecap: square">
    <polygon id="Afghanistan" points="370.0,40.9 367.9,41.4 367.3,41.4 366.4,40.1 366.1,39.3 365.6,39.3 363.7,40.2 362.1,40.6 360.3,40.8 356.7,42.5 356.5,43.1 360.1,45.8 361.0,46.3 360.9,47.7 360.3,48.0 359.7,47.3 359.0,46.8 358.5,46.8 357.3,47.0 351.8,49.5 349.8,50.8 348.1,51.6 347.5,51.8 345.5,51.2 344.8,50.7 342.7,49.8 342.1,49.7 338.0,49.4 337.3,49.5 334.8,50.1 333.3,49.8 330.8,49.9 322.2,50.4 319.4,50.6 318.9,51.0 318.1,51.2 317.5,51.3 315.9,51.3 315.1,51.2 314.3,51.1 311.7,51.3 310.0,51.5 309.4,51.6 308.9,52.1 308.0,52.7 307.3,53.1 305.6,53.1 303.6,53.3 301.2,53.9 299.8,54.4 299.6,55.0 298.9,56.1 294.5,58.8 288.6,62.0 287.7,61.5 286.3,60.8 285.7,60.8 284.6,62.7 284.4,63.8 281.4,65.7 275.9,69.3 274.4,71.1 274.3,71.7 275.2,72.1 278.0,73.9 279.3,74.7 280.6,75.9 283.5,80.1 283.0,81.4 284.1,83.3 285.0,84.9 286.1,87.2 285.7,88.0 284.6,88.9 283.6,90.0 283.6,90.7 285.2,92.5 284.2,95.3 283.4,96.0 282.4,98.8 282.3,99.3 281.7,99.8 279.8,100.6 277.0,102.7 273.8,105.5 271.9,106.7 271.8,107.3 272.1,108.1 271.9,109.5 271.4,109.8 269.3,109.8 269.0,110.4 268.9,110.9 269.4,112.0 271.3,113.9 271.8,114.2 273.3,114.7 272.9,119.8 271.7,122.4 266.7,124.9 264.2,125.3 258.1,125.5 256.4,125.5 252.5,125.0 248.9,124.2 246.9,123.6 245.3,123.2 244.0,122.7 243.5,122.8 242.6,122.9 242.0,123.0 241.4,123.2 240.3,125.4 241.7,127.9 243.2,130.2 246.3,131.1 247.0,130.9 248.8,133.3 248.9,134.0 248.6,135.0 248.2,135.7 248.1,136.2 248.9,137.4 249.7,137.7 251.1,138.9 251.8,139.7 252.2,140.9 249.8,143.2 247.7,144.5 244.5,146.2 241.5,147.2 240.7,147.4 234.2,147.6 233.0,147.5 232.5,147.6 231.2,148.8 230.8,149.5 230.8,150.1 231.0,151.1 231.1,151.9 231.3,152.8 230.1,153.9 228.7,155.0 228.3,155.5 228.7,156.3 229.4,157.0 229.8,157.7 229.8,158.4 229.0,159.5 228.5,160.1 227.8,160.8 227.3,161.1 226.5,161.3 226.0,161.5 225.3,162.2 224.8,163.1 224.5,164.0 224.5,164.6 224.8,165.5 225.3,166.3 225.5,166.9 225.6,167.8 225.4,169.8 225.3,170.3 225.0,171.2 225.2,172.0 225.5,173.9 226.5,176.9 226.0,177.1 225.4,177.5 223.9,178.7 223.4,179.7 222.2,181.3 221.4,182.2 220.7,182.9 218.9,184.2 214.0,185.6 213.4,185.5 211.2,183.1 210.9,182.4 209.1,181.0 207.4,180.0 206.5,179.8 205.8,179.9 204.9,180.2 203.8,180.7 203.9,181.2 205.5,181.4 206.4,181.3 207.0,181.4 206.9,182.0 206.3,182.4 199.7,181.3 199.2,181.1 198.1,180.1 197.3,179.8 196.7,179.7 196.2,180.4 195.9,181.0 195.5,181.6 193.6,183.4 191.9,184.8 191.3,184.8 190.6,184.6 189.7,184.6 188.9,184.9 188.2,185.7 187.9,186.2 186.0,187.3 185.0,187.6 184.3,187.6 183.7,187.6 182.2,187.3 181.5,187.4 182.5,190.0 183.6,190.7 184.4,190.7 184.9,190.5 185.7,190.4 186.3,190.5 186.9,190.7 187.3,191.3 187.2,192.0 186.7,192.5 182.5,194.1 176.7,195.6 174.0,195.6 173.4,195.4 172.8,195.5 168.6,194.9 167.7,194.7 168.0,194.1 168.1,193.6 168.0,193.0 167.0,192.8 166.1,192.8 163.7,193.6 163.1,193.9 159.8,195.6 158.9,197.8 158.9,198.5 158.6,199.0 156.1,201.3 155.4,201.7 153.3,202.1 152.8,202.1 152.0,202.3 151.5,202.5 148.3,212.0 148.9,213.4 149.6,213.8 150.1,215.3 149.4,220.6 149.2,221.2 148.6,222.0 148.1,222.9 147.3,224.7 147.4,225.4 148.0,225.8 148.7,226.2 150.4,227.6 148.9,229.5 147.7,230.6 144.4,231.4 142.8,231.7 137.6,233.1 134.3,233.9 130.8,234.8 122.0,237.1 116.3,238.5 112.2,237.8 109.5,237.6 108.7,237.5 107.6,237.4 106.7,237.3 104.5,237.5 103.9,237.5 102.5,237.6 99.5,238.2 96.8,239.0 95.2,239.6 94.4,240.2 93.8,240.8 91.3,241.8 90.4,241.4 82.1,240.0 79.2,239.5 78.3,239.5 70.0,240.3 69.3,240.3 52.7,241.8 50.8,242.0 50.2,241.9 48.9,241.5 47.7,241.1 47.1,240.9 44.8,240.3 41.1,239.2 38.7,238.5 33.0,236.9 14.3,231.7 12.4,231.2 9.4,230.2 10.4,229.1 13.8,225.6 17.4,222.0 18.3,221.0 19.9,219.4 22.3,217.0 32.2,206.5 34.5,200.9 34.6,200.1 33.6,196.5 33.0,195.5 32.4,194.5 32.5,192.9 31.7,192.0 31.1,191.2 24.3,190.3 17.6,189.5 15.4,189.2 9.0,188.4 7.9,184.1 8.2,181.2 8.2,176.8 7.8,175.5 8.0,174.9 8.5,173.1 9.0,170.5 9.1,169.8 9.0,168.8 8.4,167.1 5.7,159.4 4.0,154.4 2.4,149.4 2.2,148.6 2.0,148.0 2.0,147.5 2.0,146.1 2.2,145.5 3.3,144.4 5.6,141.8 6.5,140.9 7.7,139.7 8.9,137.6 9.1,137.1 9.6,136.8 10.9,136.8 11.2,136.2 10.4,135.6 9.8,135.4 9.0,135.4 7.5,135.3 5.4,135.3 4.9,135.3 4.2,135.2 2.4,134.4 1.7,134.0 1.1,133.7 0.5,133.0 0.2,132.0 0.0,130.9 0.4,130.4 1.1,129.6 1.3,128.8 0.6,125.0 0.4,123.8 0.2,122.7 0.0,121.7 0.0,120.9 0.2,120.2 1.1,119.0 4.1,116.0 5.9,115.9 6.7,115.8 8.4,115.8 9.6,115.8 9.7,114.9 7.7,112.3 7.1,111.9 6.5,111.6 5.6,110.6 6.1,110.0 7.1,109.8 8.3,109.7 8.9,109.5 12.0,107.5 14.0,103.8 14.7,101.5 15.7,97.9 16.1,96.2 16.2,95.2 15.8,94.2 15.2,93.8 15.2,92.4 15.4,91.2 17.4,89.4 19.8,85.2 20.1,84.3 19.8,82.8 20.3,82.3 22.1,82.0 23.8,84.1 24.3,84.3 25.7,85.3 26.3,86.0 27.5,86.8 33.1,87.8 33.7,87.6 37.4,86.6 38.1,86.6 39.2,86.9 39.7,87.2 40.3,87.6 41.7,88.8 42.6,89.8 45.3,91.7 45.4,93.1 46.2,94.6 47.0,94.2 47.7,93.3 48.3,92.6 48.9,92.0 49.8,91.2 50.3,91.0 51.5,91.3 52.0,91.8 52.6,92.4 54.4,92.6 56.9,91.8 59.9,90.1 60.7,89.5 61.4,88.9 62.1,88.5 63.6,87.7 64.5,87.4 65.4,87.3 66.0,87.4 66.5,87.2 66.9,86.5 67.3,84.7 66.6,84.2 66.5,82.6 66.8,82.0 67.5,81.7 68.8,81.1 68.1,78.8 66.8,77.3 67.1,76.3 69.2,76.2 70.2,76.4 71.1,76.5 71.7,76.5 72.2,76.5 72.9,76.4 77.4,75.3 78.0,75.0 78.9,74.0 79.5,73.6 80.3,73.5 80.9,73.5 82.0,73.5 83.6,73.3 84.5,73.1 86.9,71.9 87.7,71.7 89.0,71.7 92.2,69.5 93.9,68.6 98.8,66.8 100.5,66.3 101.1,66.5 101.9,66.1 102.7,65.5 103.3,64.9 104.7,63.2 105.2,62.5 105.5,61.8 105.8,61.2 106.0,60.4 106.0,59.2 105.6,58.3 105.4,57.4 105.6,56.4 105.9,55.4 106.2,54.9 106.6,54.3 107.6,53.0 108.1,52.1 108.9,50.9 109.7,49.8 110.2,49.0 110.3,48.4 110.2,47.8 110.0,46.9 109.9,46.3 109.7,45.6 109.8,44.6 110.0,44.0 110.9,43.5 111.4,43.2 116.5,41.0 117.3,40.8 117.8,40.7 124.7,40.7 125.3,40.7 126.7,40.8 127.4,40.7 128.7,40.7 129.7,40.5 132.0,38.1 132.1,37.1 132.1,36.5 132.0,35.9 132.0,35.3 132.5,34.3 132.9,33.8 133.4,33.3 135.2,33.2 141.3,35.3 143.8,36.2 145.9,37.5 148.3,38.6 148.9,38.7 149.4,38.6 150.0,38.4 151.6,38.2 152.4,38.8 153.1,38.6 153.6,38.3 154.2,37.8 154.9,37.6 155.8,37.6 157.0,37.7 159.6,37.9 162.6,37.7 163.1,37.6 164.9,37.3 166.0,37.2 166.9,37.2 169.0,38.1 171.9,40.7 172.4,41.4 172.7,42.1 173.2,42.3 173.8,42.2 174.4,42.0 176.5,41.6 177.1,41.4 178.5,40.6 180.3,40.1 183.4,40.7 185.4,41.2 186.2,41.4 186.7,41.9 186.6,44.0 186.9,44.6 192.5,48.7 193.9,48.8 196.9,46.7 197.4,46.5 199.7,46.3 201.0,44.2 203.1,44.0 208.5,41.9 208.9,40.8 209.4,40.1 213.2,38.8 215.2,38.3 217.1,38.7 218.1,39.1 218.9,40.5 221.2,42.7 222.0,43.2 223.4,44.0 224.5,44.6 225.5,44.4 226.2,44.1 226.8,43.7 228.1,43.0 228.6,42.5 228.9,42.0 228.5,39.9 228.1,38.7 227.9,38.2 227.7,37.1 227.8,36.3 227.9,35.5 231.4,32.1 233.0,32.2 235.4,32.3 238.5,32.1 239.8,31.6 240.4,31.4 241.2,31.2 242.0,31.5 242.4,32.2 244.2,33.0 244.8,33.1 245.4,33.1 245.9,33.3 246.9,33.5 247.8,33.3 250.3,31.2 251.1,29.1 251.0,28.3 250.7,27.3 250.1,26.2 249.5,25.7 248.9,25.6 248.3,25.1 247.9,23.5 248.2,22.9 249.2,23.2 249.9,23.0 251.0,22.0 251.4,21.4 252.4,21.0 256.3,17.3 257.6,15.0 259.2,13.4 260.4,12.3 262.1,10.8 263.8,10.0 268.3,9.2 269.0,9.3 273.2,11.5 274.0,12.4 274.7,13.0 275.7,13.5 276.3,13.6 277.1,13.6 278.7,14.9 278.9,16.3 278.7,17.2 278.3,17.9 277.6,19.2 276.3,21.8 276.0,23.0 277.8,24.1 279.5,23.7 280.7,23.3 282.3,22.7 283.2,22.7 284.3,23.5 284.7,24.6 284.6,25.6 284.6,26.1 284.2,26.6 283.4,28.4 282.5,31.3 282.2,32.4 282.0,36.3 282.1,37.5 282.1,39.1 282.1,39.8 281.9,40.3 281.5,41.0 281.0,41.6 280.7,42.6 280.5,45.1 281.2,48.5 283.6,53.0 284.1,53.8 285.1,54.7 286.9,55.4 289.0,55.4 289.5,55.3 290.5,55.1 291.1,54.9 293.4,53.4 296.4,51.4 300.8,48.5 302.3,47.9 303.0,47.6 304.0,47.3 305.7,47.0 306.2,47.0 308.4,47.0 312.0,46.5 313.3,44.7 313.7,44.2 314.0,43.6 314.6,42.4 315.1,41.6 315.7,41.1 316.2,41.0 316.9,41.0 317.9,40.7 320.9,39.2 323.6,37.7 324.9,36.7 327.9,35.4 328.7,35.2 332.0,34.8 332.5,34.8 333.6,34.9 334.5,35.1 335.5,35.5 336.4,35.8 337.8,35.9 338.3,35.8 339.1,35.8 340.0,35.8 340.7,35.9 340.7,38.0 339.5,39.1 338.8,39.1 337.7,39.2 337.1,39.6 336.8,40.2 337.0,40.8 339.8,41.3 341.7,41.2 342.2,40.9 342.7,40.4 343.4,40.1 347.5,39.0 350.2,38.4 352.4,37.2 352.7,36.6 353.2,36.5 354.8,36.6 356.5,36.7 357.6,36.9 360.4,37.2 362.9,37.1 363.5,37.1 364.1,36.8 367.6,38.5 368.2,39.0 370.0,40.9 " />
  </g>
</svg>