<?xml version="1.0" encoding="UTF-8" standalone="yes"?>
<!DOCTYPE svg PUBLIC "-//W3C//DTD SVG 1.0//EN" "http://www.w3.org/TR/2001/REC-SVG-20010904/DTD/svg10.dtd">
<svg height="250" width="370" xmlns="http://www.w3.org/2000/svg" xmlns:svg="http://www.w3.org/2000/svg" xmlns:xlink="http://www.w3.org/1999/xlink">


<g id="background">
<rect id="" width="370" height="250" fill="#222222"/>
</g>
  <g id="40" style="stroke-miterlimit: 3; fill: #F1F1F1; stroke: #000000; stroke-opacity: 1; stroke-width: 0.05; stroke-linejoin: bevel; stroke-linecap: square">
    <polygon id="Austria" points="208.4,74.3 209.6,74.5 210.9,74.8 216.0,77.0 216.9,77.4 218.9,79.1 219.1,79.6 225.4,82.9 230.0,83.6 235.4,83.1 238.1,81.8 241.0,81.3 246.0,81.3 248.1,82.3 250.5,83.6 251.3,82.6 251.5,80.6 251.2,79.8 251.5,78.6 251.9,77.9 255.9,73.9 256.8,73.6 257.7,73.7 259.4,73.9 263.0,73.3 264.3,66.3 263.9,64.6 264.1,64.1 264.8,63.0 265.5,62.6 266.2,62.4 268.2,62.6 272.6,63.3 279.6,63.9 282.1,64.0 282.7,64.1 284.0,64.6 286.9,65.7 289.7,67.1 291.5,67.6 292.3,67.7 293.3,68.2 298.1,69.9 301.2,70.2 306.2,70.1 311.7,72.8 314.5,74.1 316.4,74.9 317.4,75.2 318.5,75.4 329.6,76.3 331.4,76.2 332.2,76.1 333.0,75.8 333.7,75.1 334.3,73.9 335.4,72.7 339.5,72.4 344.7,73.5 345.3,73.6 345.8,73.9 348.0,75.6 351.4,76.9 353.6,77.1 354.1,77.1 355.3,76.8 355.9,76.6 357.1,76.8 357.7,77.4 359.3,81.8 359.2,84.0 358.7,86.0 357.5,87.2 355.5,89.0 354.9,90.0 354.2,93.6 354.3,94.1 358.1,98.0 359.5,98.3 359.6,99.3 359.7,100.0 360.7,102.7 361.8,103.6 363.1,104.5 363.9,104.9 365.3,105.2 365.9,107.5 367.6,109.9 370.0,111.2 369.1,111.8 367.2,113.2 364.9,117.8 364.6,119.2 364.6,121.5 365.3,123.0 365.4,125.0 364.5,125.9 359.8,126.6 357.6,126.8 353.4,127.1 350.7,127.1 350.2,127.0 349.2,126.3 348.8,125.7 348.6,125.0 344.3,123.4 343.1,123.5 340.7,123.6 335.3,126.4 334.2,127.7 335.2,128.3 337.4,128.9 342.1,129.8 342.7,129.8 343.7,129.5 344.3,129.5 344.9,129.8 345.6,130.4 348.1,133.9 347.6,135.0 345.2,138.1 342.2,139.7 336.9,140.0 336.3,139.9 335.7,140.0 335.3,140.5 335.6,142.4 337.3,146.5 336.6,147.6 335.0,148.4 333.8,149.9 335.4,153.1 336.1,153.2 338.0,154.7 338.2,159.8 337.6,160.2 336.8,160.3 335.0,160.0 333.5,159.9 330.3,159.8 328.1,159.7 326.9,160.9 325.8,162.3 320.2,166.1 318.9,166.6 313.9,168.3 313.1,168.3 312.9,172.0 307.1,173.7 306.2,173.7 305.4,173.7 304.1,173.9 294.2,175.5 284.7,177.1 271.7,176.9 270.1,176.9 268.6,177.3 267.2,177.1 258.7,178.9 257.0,180.9 256.5,182.5 256.0,183.9 242.9,189.0 239.7,188.4 224.2,187.4 222.9,186.5 222.3,185.6 220.6,185.1 213.5,183.7 209.0,183.5 205.7,183.6 202.9,183.2 197.7,182.2 195.1,181.8 188.8,181.5 180.5,181.5 159.7,178.2 157.7,177.5 156.8,177.2 156.1,177.3 155.4,177.7 154.9,177.6 153.1,176.8 148.2,176.8 146.4,176.7 143.1,175.7 140.9,175.3 139.4,174.7 138.9,174.4 137.9,173.5 134.2,168.0 130.8,165.7 128.8,164.8 127.3,163.8 126.2,161.9 125.8,160.2 125.8,159.6 127.0,159.1 128.5,158.9 129.2,158.6 130.4,157.2 130.8,156.4 128.7,155.7 126.4,156.2 123.2,157.4 108.2,161.3 107.7,161.4 106.8,161.4 106.3,161.2 105.7,160.6 101.6,159.7 100.9,159.6 94.5,159.6 80.1,161.7 79.4,161.9 76.8,163.7 75.9,164.4 75.9,165.4 75.8,166.0 74.6,168.8 72.0,171.2 65.6,171.4 63.0,170.6 61.0,169.9 59.7,168.9 59.7,168.3 56.0,166.5 54.9,166.4 54.2,166.5 51.7,167.2 50.1,167.6 46.7,167.3 45.8,166.8 46.3,163.5 43.5,161.0 42.0,160.2 41.3,160.1 39.9,160.4 39.4,160.9 38.3,162.4 37.8,163.5 33.8,166.1 30.9,167.2 29.9,167.4 29.4,167.5 28.6,167.6 27.9,167.5 25.5,166.8 19.5,164.5 16.8,163.2 16.5,162.3 16.6,161.7 17.3,160.6 17.4,160.1 16.6,159.2 9.0,157.8 4.8,157.5 3.2,157.2 3.7,156.9 4.5,156.1 5.0,155.3 4.9,153.9 4.3,153.0 1.6,148.5 0.0,147.0 3.2,143.1 3.9,142.5 4.5,142.5 5.2,142.3 6.4,141.8 6.8,141.1 5.8,138.2 3.8,137.5 2.9,137.6 1.6,136.5 1.2,135.8 1.6,134.1 2.1,134.2 3.6,134.6 5.7,134.6 7.7,134.6 9.5,134.3 9.8,133.8 10.2,133.1 11.1,131.9 11.6,131.6 13.3,131.4 20.4,134.1 24.7,136.3 33.8,141.8 33.8,142.3 32.9,144.6 31.0,147.0 33.4,146.9 33.9,146.9 35.9,146.3 38.6,145.3 39.1,145.0 43.4,141.1 45.6,139.2 45.4,137.2 44.8,136.5 43.8,134.6 43.3,132.3 44.1,132.0 45.5,131.6 46.1,131.8 50.2,134.1 56.1,133.4 66.7,135.2 69.7,140.7 70.3,141.0 71.5,141.1 72.5,141.1 75.7,141.1 76.5,141.0 85.5,139.5 93.3,135.4 95.6,135.6 98.0,135.3 98.9,135.1 104.2,131.9 115.7,130.5 119.9,130.0 122.5,130.2 124.9,130.5 126.4,130.7 129.0,130.8 129.6,130.3 129.6,129.3 129.3,128.4 141.6,127.9 144.2,129.5 147.0,129.2 148.5,127.9 151.8,127.1 154.6,127.1 155.2,127.1 159.5,129.9 159.7,130.4 159.0,130.4 158.4,130.6 157.7,131.7 158.5,133.3 165.7,137.1 166.2,137.2 168.3,137.5 168.8,137.5 170.5,136.3 172.9,129.2 171.9,127.1 170.9,126.0 169.7,125.3 169.0,125.1 168.2,125.5 167.6,125.7 164.3,125.6 163.8,125.3 163.8,124.7 165.1,122.2 166.5,121.1 168.5,118.9 166.4,116.3 164.1,113.9 161.5,112.1 161.2,111.2 160.2,110.3 158.6,109.4 158.0,108.9 156.8,108.0 156.1,106.7 156.2,106.1 156.8,105.4 161.6,102.1 168.9,99.2 175.5,97.6 180.5,97.3 181.5,97.1 182.2,96.9 183.2,96.5 184.3,95.9 187.2,94.1 188.4,93.0 189.2,91.3 189.4,90.7 190.2,86.9 189.7,85.4 189.1,84.8 189.9,84.2 192.5,83.5 193.6,83.4 197.3,84.3 199.6,84.9 200.4,85.8 201.1,86.1 203.2,86.8 206.9,83.6 207.9,81.9 208.1,80.8 207.5,76.0 208.4,74.3 " />
  </g>
</svg>