<?xml version="1.0" encoding="UTF-8" standalone="yes"?>
<!DOCTYPE svg PUBLIC "-//W3C//DTD SVG 1.0//EN" "http://www.w3.org/TR/2001/REC-SVG-20010904/DTD/svg10.dtd">
<svg height="250" width="370" xmlns="http://www.w3.org/2000/svg" xmlns:svg="http://www.w3.org/2000/svg" xmlns:xlink="http://www.w3.org/1999/xlink">


<g id="background">
<rect id="" width="370" height="250" fill="#222222"/>
</g>
  <g id="400" style="stroke-miterlimit: 3; fill: #F1F1F1; stroke: #000000; stroke-opacity: 1; stroke-width: 0.05; stroke-linejoin: bevel; stroke-linecap: square">
    <polygon id="Jordan" points="56.1,239.7 56.0,238.8 56.1,237.6 56.4,234.5 56.8,233.1 57.8,232.0 58.6,230.3 58.7,229.5 57.2,228.7 57.0,227.3 58.8,223.0 62.9,210.0 62.9,209.0 62.8,208.4 62.7,207.7 62.7,206.3 62.7,204.4 64.5,199.0 64.8,198.2 65.9,197.0 67.0,196.0 67.8,195.1 68.1,194.5 68.4,192.5 68.0,182.5 67.7,176.8 67.9,175.1 70.7,166.1 71.5,164.5 73.6,160.9 75.8,156.3 76.3,154.4 78.5,148.7 79.6,146.8 80.4,146.2 81.7,145.4 82.4,144.5 85.5,136.0 86.0,134.7 86.0,133.0 85.8,132.5 85.5,131.7 84.2,130.0 82.9,128.5 85.4,120.9 86.5,118.0 86.7,117.3 86.8,116.4 87.0,115.1 86.9,112.2 87.0,110.3 87.2,108.3 87.6,105.9 88.1,103.6 89.8,99.4 90.5,98.0 91.5,96.4 91.1,92.5 90.4,86.4 89.8,82.5 89.2,79.8 91.7,70.1 92.3,69.6 92.6,69.0 91.9,60.2 91.8,59.3 91.4,58.7 91.0,58.0 92.5,43.7 94.8,41.9 95.9,41.3 97.1,41.3 99.0,40.0 100.1,39.5 103.9,37.5 105.8,37.8 113.8,39.1 118.3,42.6 119.6,45.6 122.8,49.8 125.6,50.7 128.0,51.3 129.9,50.4 136.8,54.8 138.8,56.4 142.0,59.4 147.1,59.8 148.9,60.6 156.5,61.4 161.3,62.1 168.1,63.5 169.8,61.8 186.9,52.4 207.2,41.2 215.1,37.0 235.0,26.3 256.5,14.9 269.3,8.1 279.1,3.0 284.9,0.0 302.3,52.3 296.3,53.7 299.7,64.1 312.6,61.0 315.1,68.1 308.9,73.0 301.4,78.8 297.4,81.9 266.6,89.4 236.6,96.9 235.3,97.2 220.1,101.0 205.9,104.6 189.8,108.7 178.1,111.7 195.4,128.9 207.0,140.5 211.2,144.8 237.5,171.5 217.6,181.5 207.8,201.5 202.2,202.5 179.8,206.5 162.5,209.7 147.9,231.3 134.3,241.2 122.2,250.0 90.7,245.0 69.6,241.8 56.1,239.7 " />
  </g>
</svg>