<?xml version="1.0" encoding="UTF-8" standalone="yes"?>
<!DOCTYPE svg PUBLIC "-//W3C//DTD SVG 1.0//EN" "http://www.w3.org/TR/2001/REC-SVG-20010904/DTD/svg10.dtd">
<svg height="250" width="370" xmlns="http://www.w3.org/2000/svg" xmlns:svg="http://www.w3.org/2000/svg" xmlns:xlink="http://www.w3.org/1999/xlink">


<g id="background">
<rect id="" width="370" height="250" fill="#222222"/>
</g>
  <g id="404" style="stroke-miterlimit: 3; fill: #F1F1F1; stroke: #000000; stroke-opacity: 1; stroke-width: 0.05; stroke-linejoin: bevel; stroke-linecap: square">
    <polygon id="Kenya" points="132.7,0.0 133.0,2.7 135.5,4.7 140.0,4.7 141.6,4.9 146.0,4.9 151.7,4.7 152.2,5.1 153.5,5.1 158.2,5.1 162.3,6.6 163.8,7.8 164.7,9.0 168.8,11.5 188.1,24.0 189.0,24.9 189.6,26.1 191.4,27.2 196.8,27.3 200.2,27.5 202.0,26.8 204.8,27.5 207.7,28.4 209.9,29.0 212.7,29.8 213.8,29.7 216.3,29.4 217.3,29.3 218.5,29.9 220.3,30.8 221.7,31.0 223.0,30.9 223.6,30.2 224.1,30.2 223.9,31.0 226.4,31.3 227.1,31.2 228.4,31.4 228.4,32.2 229.1,32.7 230.1,32.7 231.0,30.2 236.1,25.4 238.3,20.3 241.9,18.7 246.8,16.1 252.4,14.1 252.7,13.4 260.0,10.6 263.0,9.0 264.9,10.4 265.5,10.9 269.1,13.8 270.0,14.9 270.4,15.7 271.3,16.8 272.1,17.6 272.6,18.0 273.1,18.2 274.0,18.3 276.2,18.3 281.4,18.1 281.9,17.8 283.1,17.4 285.3,17.0 288.3,16.7 289.7,17.1 290.2,17.8 291.2,18.1 292.7,17.7 293.2,17.3 290.3,21.5 277.9,39.1 276.5,40.5 268.7,47.9 268.5,51.3 268.5,62.2 268.5,89.0 268.5,124.4 268.8,147.7 273.0,153.1 279.1,161.1 283.8,167.2 283.8,169.4 283.1,170.0 281.7,171.5 281.1,172.4 280.6,173.0 280.5,173.5 280.0,174.2 277.3,177.0 276.4,177.4 274.2,177.4 271.7,177.7 268.6,179.1 265.9,178.7 266.4,181.5 267.3,183.9 267.9,184.3 268.4,185.0 267.8,186.2 266.9,186.8 266.4,186.7 266.8,186.1 266.0,184.3 264.9,184.5 263.1,186.1 263.0,186.9 263.6,187.7 264.1,188.3 263.9,188.8 259.1,193.0 258.5,193.2 257.8,193.1 257.3,192.9 256.4,192.4 255.0,192.6 253.3,193.1 252.2,193.5 251.0,194.2 250.3,194.6 249.4,195.1 248.3,196.0 247.0,198.2 246.6,199.0 246.3,202.2 246.4,203.0 246.4,203.5 246.7,204.6 246.2,207.3 245.1,210.0 245.2,210.6 245.5,211.2 245.4,212.0 245.2,212.5 244.6,213.1 243.6,213.6 242.6,214.2 241.2,215.2 240.2,217.6 238.5,221.8 238.4,222.4 238.5,223.2 238.4,223.8 237.5,226.6 237.3,227.1 236.7,228.6 236.1,229.9 234.4,232.4 233.8,233.3 233.1,234.5 229.2,243.2 226.0,248.9 223.8,249.2 223.4,248.3 221.9,248.4 220.5,250.0 219.4,249.2 216.0,246.8 207.5,240.7 204.9,238.8 201.2,236.2 199.3,234.8 184.1,223.9 182.3,222.6 181.8,221.7 181.6,220.6 181.4,220.0 181.1,219.4 179.7,218.9 178.5,218.8 177.9,218.8 177.4,217.2 177.3,216.7 177.6,216.0 179.8,213.6 180.6,213.5 180.4,212.3 180.0,210.1 179.4,206.5 177.4,205.0 175.3,203.7 174.5,203.3 172.7,202.6 168.7,200.4 167.2,199.5 166.5,199.1 152.7,191.5 143.1,186.2 138.4,183.6 135.2,181.8 131.1,179.5 125.7,176.4 114.6,170.3 99.8,162.0 94.0,158.7 91.5,157.4 82.5,152.3 81.0,151.3 79.1,151.3 78.4,151.3 78.4,150.0 78.3,136.5 79.2,131.9 79.9,128.0 79.6,127.1 79.2,125.7 78.8,124.4 78.4,123.1 78.1,122.1 78.0,121.6 80.0,118.8 81.9,116.2 83.4,113.9 84.8,108.1 86.1,107.4 87.2,107.2 87.8,106.9 91.5,102.3 92.4,100.9 93.3,98.8 93.6,98.1 93.5,97.6 93.5,97.1 93.6,96.4 94.0,95.4 94.3,94.8 96.0,95.0 96.4,93.6 98.9,91.9 99.5,91.7 100.4,91.7 101.1,91.6 102.1,91.5 102.6,91.1 102.8,90.4 102.8,89.7 102.7,89.1 102.1,88.5 101.8,86.9 103.2,86.2 103.7,85.3 104.0,83.9 104.3,83.3 104.6,82.7 105.1,82.3 105.8,82.2 106.4,81.4 107.4,79.5 107.7,73.4 107.3,68.3 105.8,64.5 105.2,63.1 104.4,60.9 104.2,60.4 104.1,59.7 105.0,56.5 103.3,54.6 101.9,52.4 101.7,51.4 101.6,49.5 100.9,47.8 99.7,46.9 99.0,47.3 98.5,47.4 96.5,45.5 96.2,43.5 95.9,41.6 95.7,40.9 95.3,40.4 94.3,39.8 92.7,37.0 91.4,33.4 91.3,30.8 92.0,30.3 92.6,29.9 92.8,29.2 93.0,27.1 93.0,26.3 93.0,25.7 90.8,24.0 90.2,23.8 86.5,22.7 85.5,21.1 84.0,18.3 82.9,14.1 82.2,12.1 81.7,11.5 81.0,11.0 80.4,10.8 83.1,8.1 90.6,0.7 91.5,0.3 93.5,0.3 99.7,0.3 101.3,0.3 102.6,0.3 106.1,0.3 111.4,0.2 121.1,0.2 122.1,0.2 123.0,0.1 123.8,0.1 124.7,0.1 125.6,0.1 126.1,0.1 131.6,0.1 132.7,0.0 " />
    <polygon id="Kenya" points="272.5,181.5 271.5,181.9 270.5,181.8 269.3,182.2 268.8,183.0 268.8,183.6 267.5,183.0 268.1,181.1 268.6,180.5 270.5,179.4 271.3,179.2 272.3,179.6 273.0,180.2 273.4,180.7 272.5,181.5 " />
  </g>
</svg>