<?xml version="1.0" encoding="UTF-8" standalone="yes"?>
<!DOCTYPE svg PUBLIC "-//W3C//DTD SVG 1.0//EN" "http://www.w3.org/TR/2001/REC-SVG-20010904/DTD/svg10.dtd">
<svg height="250" width="370" xmlns="http://www.w3.org/2000/svg" xmlns:svg="http://www.w3.org/2000/svg" xmlns:xlink="http://www.w3.org/1999/xlink">


<g id="background">
<rect id="" width="370" height="250" fill="#222222"/>
</g>
  <g id="408" style="stroke-miterlimit: 3; fill: #F1F1F1; stroke: #000000; stroke-opacity: 1; stroke-width: 0.05; stroke-linejoin: bevel; stroke-linecap: square">
    <polygon id="North Korea" points="331.9,28.2 332.6,29.1 332.9,29.8 332.5,31.3 332.4,31.8 332.6,32.5 334.6,33.5 333.7,34.2 330.3,35.4 329.7,35.2 330.0,34.3 329.8,33.5 329.3,33.0 328.7,32.8 325.4,32.1 324.3,32.0 321.7,32.6 311.7,39.4 306.1,44.0 301.3,48.1 299.6,52.7 295.2,58.4 294.3,58.7 293.2,58.4 291.9,58.6 290.7,59.9 287.9,63.7 287.4,64.5 287.3,65.0 286.2,68.3 286.0,69.2 286.3,71.5 286.7,72.4 287.4,73.4 288.0,73.9 288.9,74.3 290.4,75.0 292.6,76.3 292.1,78.7 291.2,80.0 288.9,85.5 288.6,87.4 288.5,88.8 288.7,93.5 288.8,94.3 288.8,94.8 289.7,96.0 290.4,96.8 289.2,100.5 288.3,102.0 287.3,101.9 286.2,101.9 283.6,102.1 283.0,102.2 281.7,102.4 265.8,108.6 265.1,109.0 264.8,109.5 263.2,113.2 263.0,113.8 263.1,114.4 262.6,115.6 260.4,118.3 259.8,118.8 259.0,119.2 258.5,119.3 257.3,119.2 254.2,119.8 252.4,121.0 251.6,121.8 251.0,122.4 250.5,123.0 249.8,123.5 249.0,123.9 246.3,124.9 245.5,125.2 238.1,128.1 236.3,132.8 223.8,138.4 216.9,139.8 214.9,139.9 213.5,139.6 210.8,139.3 208.3,139.2 205.1,142.2 203.0,144.8 202.7,145.7 201.9,146.4 195.5,148.1 190.6,149.5 190.1,149.7 189.3,150.1 187.7,151.1 185.8,152.9 185.2,153.8 184.9,154.4 184.8,155.2 185.0,157.6 186.2,166.0 186.3,166.7 186.5,167.8 187.5,172.4 187.8,173.1 187.6,173.6 186.7,173.9 185.9,173.4 185.9,171.8 186.5,171.3 186.6,170.6 186.4,169.7 185.2,167.9 184.6,167.6 183.6,167.7 182.8,168.1 182.0,168.8 180.7,169.4 179.0,170.3 179.0,176.3 179.0,176.8 179.2,177.5 179.8,178.4 180.4,178.9 182.2,179.9 182.7,180.2 186.5,181.2 191.6,181.9 198.1,183.6 199.3,185.5 201.4,188.3 202.6,189.5 208.6,194.3 210.0,194.7 211.1,194.9 212.6,195.5 214.0,196.2 214.7,197.0 217.7,200.2 218.9,200.3 220.5,200.1 222.0,200.5 224.0,201.7 225.1,202.6 225.4,203.2 225.3,205.3 223.3,206.5 222.6,207.0 222.6,208.2 222.9,209.7 222.9,210.2 222.7,211.7 222.4,212.7 222.0,213.5 221.4,214.5 220.5,215.3 219.7,216.1 218.8,216.7 217.7,217.5 216.5,218.2 215.3,218.9 214.8,219.1 212.0,220.0 210.8,220.2 208.7,220.3 207.7,220.3 206.9,220.2 202.9,219.9 193.1,219.6 192.4,219.7 186.6,220.2 182.5,220.0 178.6,219.5 173.2,219.7 170.7,220.0 167.7,220.6 166.4,221.1 164.6,222.4 163.4,223.1 161.7,223.9 161.0,224.4 160.1,225.5 159.9,226.0 159.3,227.4 158.4,228.6 153.2,233.9 152.4,234.6 151.1,235.6 150.5,236.1 149.5,236.6 148.7,236.8 146.8,242.4 143.8,244.5 142.1,245.3 141.4,245.2 137.0,243.0 134.6,241.5 134.0,241.0 133.3,239.9 132.6,239.9 131.1,240.2 124.6,241.8 124.0,241.9 121.3,242.9 121.3,243.6 122.0,244.9 122.1,245.7 122.1,246.2 121.9,246.9 121.2,247.1 119.6,246.8 117.7,244.2 116.6,241.0 113.4,239.0 112.7,239.0 112.0,239.4 112.0,240.1 113.1,240.6 113.9,242.4 113.8,242.9 111.1,242.4 110.4,242.2 106.3,237.4 105.5,235.4 103.0,234.5 99.2,233.8 96.1,233.4 95.3,233.3 94.6,233.7 95.4,234.9 96.1,235.4 96.8,235.8 97.8,236.1 101.7,238.8 97.8,243.1 94.5,245.0 93.8,244.6 92.1,244.7 85.7,248.2 83.8,250.0 83.3,248.0 85.5,244.5 88.1,243.2 88.9,242.9 90.6,242.2 91.8,240.4 90.9,239.5 89.1,238.7 87.7,239.0 85.9,239.5 84.3,241.0 82.2,239.9 79.6,237.9 78.7,238.1 78.2,239.5 77.5,240.3 76.8,240.7 76.0,241.0 75.3,241.0 73.9,240.8 72.2,240.4 71.4,240.3 69.1,239.6 68.5,239.4 66.8,238.1 66.9,237.5 67.1,237.0 73.1,232.7 76.4,232.4 77.1,232.4 77.6,232.7 78.0,233.6 78.9,234.0 79.5,233.9 80.6,231.8 80.3,231.2 79.7,230.9 79.0,230.8 74.0,230.3 72.7,230.5 71.6,230.9 70.8,231.2 70.3,231.4 69.1,231.7 68.4,231.7 61.7,229.7 61.1,229.9 57.8,230.1 56.8,230.1 52.8,229.4 52.0,228.9 52.0,228.3 52.8,228.0 54.7,228.1 55.4,228.1 56.1,227.7 59.4,225.8 61.3,223.9 61.6,222.8 61.5,222.0 61.4,219.0 65.8,212.9 67.2,207.3 70.2,207.3 75.1,204.4 81.8,204.0 82.6,204.1 83.9,203.2 85.3,202.3 88.7,201.8 93.5,202.9 94.7,204.2 95.3,204.7 96.8,205.3 98.0,205.5 97.5,204.0 92.0,201.0 90.2,200.8 88.0,200.8 85.0,201.5 81.2,202.0 80.4,201.8 79.2,201.0 74.5,197.8 74.2,197.1 74.6,194.2 74.8,193.6 77.1,191.4 78.8,187.8 79.9,185.3 81.0,182.4 81.3,180.5 83.6,178.2 84.6,177.7 85.9,176.6 87.0,174.7 87.5,173.3 86.5,171.0 84.7,169.4 83.6,167.6 83.6,167.0 83.8,166.5 86.4,163.4 88.8,161.0 87.9,160.8 85.2,161.9 82.3,163.1 81.5,163.4 73.5,161.7 69.5,159.4 65.2,156.7 60.5,154.0 56.1,151.5 55.5,151.5 55.3,152.0 55.8,154.3 56.2,155.8 56.3,156.3 55.9,158.0 55.2,158.5 51.1,159.8 50.5,159.9 49.7,159.0 50.4,157.4 51.3,156.4 51.4,155.8 47.2,150.3 46.0,149.8 44.2,149.3 41.8,148.9 41.1,149.0 39.9,148.8 37.9,147.2 36.0,145.1 36.2,144.5 38.9,140.3 39.3,139.1 38.4,136.5 40.1,134.8 46.9,129.6 50.0,127.7 50.5,127.5 52.7,127.2 53.6,126.9 54.1,126.6 58.9,122.3 61.9,119.1 62.6,118.6 63.2,118.7 66.0,119.4 69.3,119.6 69.7,119.0 69.1,118.0 69.7,115.7 74.3,113.5 81.1,110.6 82.5,110.5 85.0,110.9 87.1,110.3 89.2,108.0 93.6,106.2 96.0,105.5 98.2,103.7 98.2,102.7 99.8,101.2 100.4,100.7 110.9,99.7 111.6,99.8 114.9,99.0 120.4,92.5 127.6,86.9 128.0,86.0 128.2,85.4 129.1,84.0 131.7,81.3 133.8,79.1 135.1,78.0 135.9,77.3 137.0,76.9 137.6,77.0 138.5,75.8 141.9,67.4 141.2,66.5 141.0,65.5 144.8,63.1 148.0,61.7 151.8,60.9 154.0,59.8 155.0,58.7 155.5,58.1 156.6,57.1 157.3,56.8 158.4,56.9 163.7,60.9 164.3,61.7 164.1,63.9 166.1,65.0 167.7,66.3 168.9,69.2 174.1,71.9 190.5,74.5 193.9,74.7 200.5,74.9 202.2,74.2 204.6,73.1 205.3,73.1 208.8,74.6 210.3,75.8 213.2,76.7 214.4,76.5 215.3,76.3 216.9,75.2 217.8,74.6 218.7,73.4 221.5,69.2 222.4,67.3 222.3,66.5 220.9,64.2 219.8,63.4 218.9,63.0 217.8,62.4 215.8,60.9 215.3,60.3 213.0,56.8 212.7,56.1 211.5,52.6 211.1,51.4 210.6,48.4 210.6,47.8 210.8,47.3 220.8,45.5 221.5,45.4 224.0,45.4 225.2,45.5 228.0,45.9 228.7,46.1 229.4,46.9 230.0,47.3 230.8,47.4 231.9,47.4 235.0,47.2 239.9,46.4 241.0,45.9 247.8,45.8 250.2,46.2 251.0,46.2 251.6,46.1 252.2,45.5 252.9,44.5 252.9,44.0 253.1,43.4 255.8,42.8 260.5,40.7 262.2,39.4 264.9,37.1 264.9,34.8 266.6,29.6 271.1,26.3 271.8,26.3 275.8,26.9 279.2,29.1 287.7,26.8 288.4,26.4 288.9,25.6 289.2,25.1 289.5,23.1 289.4,22.4 289.0,21.2 290.3,14.2 290.4,13.7 290.6,13.1 292.9,7.2 294.8,3.1 296.1,0.9 297.3,0.2 298.3,0.0 299.0,0.2 299.7,0.9 303.5,2.4 310.6,4.7 311.4,4.8 313.4,5.3 314.1,5.8 314.0,6.6 313.7,8.3 313.3,9.2 313.0,10.3 313.3,13.6 317.1,17.0 319.6,18.3 326.0,20.6 326.4,22.1 328.5,26.5 329.3,27.2 329.9,27.5 331.4,27.8 " />
    <polygon id="North Korea" points="60.5,164.5 59.9,164.5 60.7,162.0 62.2,159.8 62.8,159.2 63.3,159.1 64.4,159.1 64.1,161.6 63.3,162.7 62.0,163.7 61.0,164.3 60.5,164.5 " />
  </g>
</svg>