<?xml version="1.0" encoding="UTF-8" standalone="yes"?>
<!DOCTYPE svg PUBLIC "-//W3C//DTD SVG 1.0//EN" "http://www.w3.org/TR/2001/REC-SVG-20010904/DTD/svg10.dtd">
<svg height="250" width="370" xmlns="http://www.w3.org/2000/svg" xmlns:svg="http://www.w3.org/2000/svg" xmlns:xlink="http://www.w3.org/1999/xlink">


<g id="background">
<rect id="" width="370" height="250" fill="#222222"/>
</g>
  <g id="410" style="stroke-miterlimit: 3; fill: #F1F1F1; stroke: #000000; stroke-opacity: 1; stroke-width: 0.05; stroke-linejoin: bevel; stroke-linecap: square">
    <polygon id="South Korea" points="220.4,13.6 224.7,22.1 225.1,23.0 235.4,35.2 236.3,35.6 241.9,40.9 242.4,41.4 244.2,43.2 244.8,44.0 244.8,44.5 244.7,45.4 245.0,46.0 248.2,50.6 250.7,53.4 253.9,57.7 257.7,62.9 258.2,64.0 258.6,67.9 259.3,68.5 261.7,71.6 261.8,72.3 261.1,73.2 261.0,73.8 261.1,77.4 261.4,79.4 261.6,80.3 262.8,83.2 263.5,84.5 263.8,85.1 263.7,88.1 263.6,88.9 263.4,89.5 262.7,89.9 262.1,90.4 261.4,91.6 261.2,92.1 261.2,93.9 261.4,94.6 262.0,95.6 262.7,97.5 262.1,102.1 262.0,102.6 261.2,103.8 260.6,104.3 259.9,105.1 259.7,105.7 259.5,106.3 259.7,119.1 260.1,120.0 261.2,120.7 262.6,121.1 263.2,121.0 264.1,120.4 266.2,118.4 267.3,117.2 267.9,117.2 268.3,117.8 268.9,119.2 269.0,119.9 269.0,120.4 268.8,121.3 264.3,135.3 263.3,137.1 263.7,139.0 263.8,140.1 263.5,141.4 263.4,142.0 262.2,144.9 257.9,150.9 254.9,152.9 253.1,157.1 252.9,158.0 250.0,160.0 248.2,161.6 241.0,162.8 240.7,160.6 238.7,162.4 233.2,162.9 229.8,162.5 228.6,162.1 224.5,159.9 224.1,158.8 222.3,158.9 213.7,164.8 213.0,166.3 213.9,166.4 214.6,165.9 214.8,165.4 217.4,164.4 217.9,164.3 219.0,166.4 217.6,172.0 217.2,172.8 216.7,173.9 216.0,174.4 214.8,174.5 211.4,172.7 211.9,171.4 212.1,169.9 211.6,169.3 211.1,169.1 206.4,169.8 205.9,169.9 205.6,170.8 205.5,171.4 205.3,171.9 204.1,171.8 203.0,171.6 199.3,170.4 198.5,169.9 198.2,169.4 196.9,167.4 191.8,168.8 191.1,169.2 189.7,169.5 188.2,169.2 185.2,168.6 180.3,171.1 179.5,171.3 178.8,171.2 178.0,170.3 177.8,169.6 177.2,169.4 176.1,170.5 176.5,172.0 177.8,173.7 179.3,175.3 180.1,175.4 180.7,175.3 181.5,174.8 182.4,174.2 182.9,174.0 185.5,173.9 185.5,174.7 185.3,176.2 184.3,179.3 179.4,184.4 176.5,183.4 175.5,182.8 175.5,180.9 175.6,180.3 175.8,179.8 176.1,177.5 174.0,173.3 172.7,173.6 169.2,175.1 168.3,175.9 166.7,178.2 167.8,180.5 168.7,181.0 169.7,181.6 172.3,183.2 173.6,185.3 173.4,186.1 167.9,191.1 164.5,192.3 161.2,189.2 157.7,189.2 156.4,189.0 155.9,188.5 155.6,187.5 156.0,186.8 159.2,183.6 159.7,183.9 159.7,184.5 159.3,185.3 158.8,186.3 159.5,186.6 161.1,186.6 165.1,182.8 166.2,180.9 165.5,178.8 162.5,179.3 159.9,180.2 155.1,182.4 154.2,182.8 151.6,184.2 150.4,185.1 149.5,188.0 149.3,188.5 148.4,189.6 147.1,190.3 145.2,192.1 144.8,192.7 144.9,193.8 141.5,192.4 140.8,191.5 140.7,190.1 141.0,188.4 140.9,187.1 140.9,186.6 140.5,185.9 140.0,185.7 139.2,186.4 138.7,187.1 135.4,192.8 131.6,198.9 129.5,198.9 128.1,198.2 126.0,196.9 125.2,191.0 125.3,190.5 122.0,187.7 118.6,186.8 117.2,185.6 116.5,183.6 116.2,181.9 116.2,181.3 117.3,178.6 117.9,178.2 118.5,178.4 119.1,179.0 119.7,180.0 120.1,180.6 123.2,185.3 124.7,186.2 123.8,184.3 124.7,182.9 125.7,183.4 127.9,184.4 128.6,184.5 131.8,184.4 132.4,184.3 127.1,179.9 125.9,179.4 126.7,178.2 131.9,176.9 132.9,176.8 134.3,175.6 131.1,172.4 128.8,172.6 128.5,175.2 128.4,175.8 127.8,176.7 126.9,177.1 121.5,176.7 120.9,176.2 121.4,175.5 123.0,171.6 123.9,168.4 121.3,169.2 120.9,169.9 119.8,170.6 119.3,170.3 118.6,169.9 117.9,168.5 115.4,161.7 115.5,161.1 116.1,160.6 119.8,159.8 120.2,160.7 120.2,161.2 119.7,161.9 120.5,163.6 123.1,165.8 123.8,165.7 125.0,163.6 125.1,162.6 124.4,162.1 123.8,161.9 122.9,161.3 121.8,160.0 120.5,158.5 120.7,156.3 121.4,152.4 121.8,151.3 123.4,148.0 124.3,147.0 124.5,146.2 125.0,145.5 126.2,143.7 126.8,143.2 128.0,142.6 132.4,141.6 135.2,142.3 135.0,140.4 134.7,139.7 133.9,139.4 129.1,139.6 128.6,139.8 127.9,140.2 127.3,140.2 126.4,139.9 125.9,139.3 125.5,138.7 125.8,137.5 133.0,132.9 136.0,131.5 137.9,131.0 138.5,131.0 140.8,127.1 140.2,125.6 137.7,126.2 132.5,125.9 132.2,124.5 132.9,122.5 133.5,122.1 136.4,121.5 139.0,121.0 143.2,119.1 143.9,118.8 144.1,118.2 143.5,118.2 138.0,120.5 136.5,120.7 135.6,120.8 134.9,120.5 129.0,114.5 128.6,110.7 126.8,102.6 126.1,98.6 125.3,94.3 125.8,93.7 127.0,93.5 127.5,93.7 128.1,93.8 128.2,93.2 127.7,90.4 126.8,87.5 125.8,86.6 120.3,86.7 119.7,86.9 118.1,88.7 118.2,89.6 118.8,90.3 119.3,90.8 118.5,93.2 117.4,94.0 117.7,91.9 117.7,91.3 116.6,88.0 115.7,88.0 115.2,89.0 114.5,89.4 112.8,89.9 111.9,89.8 109.8,88.3 109.9,86.2 111.5,83.5 112.8,83.0 112.4,80.4 117.1,76.6 117.6,76.4 118.2,77.4 118.7,80.1 118.4,80.8 117.6,82.0 116.9,83.3 117.0,84.2 118.9,83.8 122.4,81.6 123.0,79.5 123.0,78.8 123.0,77.8 121.9,78.0 120.2,77.1 119.4,75.4 120.1,75.0 122.0,74.5 123.4,74.5 124.1,74.6 124.6,75.2 125.9,77.8 125.9,78.3 125.5,79.1 125.2,79.6 125.3,81.0 125.5,82.0 126.2,82.0 126.7,81.0 127.6,77.5 126.5,75.0 126.9,72.5 127.8,72.4 130.1,73.6 132.5,76.0 135.3,76.1 139.0,76.1 139.7,76.3 141.8,78.7 142.2,79.6 142.3,80.4 142.2,81.2 142.0,82.1 142.1,85.5 142.5,86.1 145.6,83.2 149.6,78.9 150.0,78.0 146.3,78.6 145.7,78.5 144.0,77.2 138.7,72.7 139.5,69.3 141.6,68.6 143.2,68.4 143.8,68.3 144.0,66.8 139.4,66.7 137.9,67.9 137.2,68.7 136.5,69.1 135.9,69.2 134.4,67.6 134.3,63.3 136.1,62.7 138.6,63.5 139.2,64.1 143.3,62.8 142.9,60.8 142.4,60.6 141.4,61.1 140.8,61.2 139.4,60.7 137.2,59.7 138.1,57.0 137.3,57.1 134.9,56.3 134.3,56.0 132.7,53.1 132.7,52.4 134.5,52.5 134.4,49.9 134.3,49.2 133.9,48.7 132.9,47.6 130.3,46.2 129.4,45.4 129.1,44.8 128.4,41.8 128.5,39.7 129.1,39.6 133.5,39.8 135.3,43.3 135.6,36.4 137.4,30.9 138.2,30.7 139.2,30.2 139.8,29.7 141.1,28.7 141.9,28.0 147.0,22.8 147.9,21.7 148.4,20.3 148.7,19.8 149.2,19.1 150.2,18.2 151.9,17.4 152.6,17.1 154.4,15.8 155.8,15.1 159.0,14.4 161.5,14.1 166.8,13.9 170.7,14.4 174.7,14.6 180.4,14.1 181.0,14.0 190.7,14.3 194.6,14.6 195.4,14.7 196.4,14.7 198.5,14.7 199.6,14.4 202.1,13.7 202.9,13.3 203.6,12.9 205.2,11.9 206.3,11.2 207.2,10.6 207.9,9.8 208.8,9.0 209.4,8.0 209.8,7.2 210.1,6.3 210.3,5.1 210.4,4.3 210.1,3.1 209.8,2.2 210.7,1.2 212.7,0.0 213.8,2.1 220.4,13.6 " />
    <polygon id="South Korea" points="43.9,32.6 41.9,32.7 41.2,32.5 40.2,31.2 40.3,30.2 43.6,29.6 44.6,29.5 45.3,29.6 46.1,30.4 46.2,31.1 44.2,32.5 " />
    <polygon id="South Korea" points="127.0,47.4 124.6,47.5 123.2,47.5 122.2,47.2 121.7,46.9 121.2,46.4 120.7,41.6 120.8,38.7 122.2,37.2 123.3,37.0 123.9,37.1 124.4,37.7 126.7,38.9 127.4,39.3 127.7,40.0 128.8,45.9 127.6,47.3 127.0,47.4 " />
    <polygon id="South Korea" points="328.8,53.9 328.2,54.1 325.6,53.2 325.3,52.6 325.0,51.4 325.1,50.9 326.5,50.4 329.9,49.7 330.5,50.9 330.4,52.6 328.8,53.9 " />
    <polygon id="South Korea" points="111.7,82.8 111.2,82.4 111.9,82.3 111.7,82.8 " />
    <polygon id="South Korea" points="123.7,102.4 121.5,102.2 120.8,101.9 119.5,100.8 118.9,95.0 119.0,94.5 119.7,93.7 120.5,93.5 121.3,93.6 123.9,101.9 123.7,102.4 " />
    <polygon id="South Korea" points="108.8,164.6 108.2,164.6 106.7,164.2 106.6,162.9 106.9,162.4 109.4,160.8 110.3,160.2 110.8,160.0 111.4,160.2 110.8,160.6 110.6,163.1 109.3,164.3 " />
    <polygon id="South Korea" points="230.7,172.4 230.1,176.5 227.5,179.4 225.5,180.1 224.1,180.5 223.3,180.7 223.6,177.8 223.7,175.5 223.6,174.5 221.3,174.9 220.8,175.2 220.1,175.7 218.9,174.5 218.5,173.8 218.5,172.8 218.7,172.3 219.3,171.8 225.4,168.9 226.5,168.6 228.7,167.8 229.4,169.4 230.7,172.1 " />
    <polygon id="South Korea" points="193.9,175.9 194.5,176.0 195.5,175.2 196.0,175.0 197.4,175.1 198.5,175.3 199.1,175.6 198.8,180.3 198.0,180.8 195.3,180.7 190.8,180.1 189.5,179.6 189.2,178.8 187.8,174.0 188.0,173.4 188.4,172.3 189.9,170.6 190.4,170.0 191.3,169.8 192.1,170.0 192.6,170.2 193.0,170.8 191.8,172.5 191.8,173.8 192.1,174.4 193.9,175.9 " />
    <polygon id="South Korea" points="106.9,173.5 105.9,173.5 103.6,173.3 104.1,171.8 106.6,170.2 107.2,170.2 108.3,170.9 108.1,171.8 107.7,172.9 106.9,173.5 " />
    <polygon id="South Korea" points="199.9,174.6 196.6,174.4 195.8,174.3 195.0,173.9 194.8,173.3 196.3,171.0 197.1,170.7 197.6,171.0 199.0,172.3 199.6,172.7 199.9,174.6 " />
    <polygon id="South Korea" points="103.6,176.3 104.2,176.6 104.1,177.2 104.4,177.8 103.8,177.9 103.2,177.9 102.4,178.1 101.7,177.9 101.1,178.5 101.2,179.3 99.9,179.8 98.9,179.3 99.0,178.2 99.1,177.6 99.7,177.2 100.3,177.2 101.4,177.2 101.9,177.1 102.7,176.4 103.3,176.3 " />
    <polygon id="South Korea" points="103.6,182.0 102.7,183.0 100.6,182.0 100.1,181.4 100.0,180.9 101.9,180.0 103.1,179.8 103.7,180.2 104.2,180.7 104.1,181.4 103.6,182.0 " />
    <polygon id="South Korea" points="186.9,186.3 186.1,186.3 184.8,185.6 184.0,185.0 183.7,184.3 183.7,183.5 185.3,182.2 186.5,182.3 187.3,183.3 187.3,184.1 187.1,186.0 " />
    <polygon id="South Korea" points="112.5,196.6 111.9,196.6 110.9,196.5 109.1,195.3 108.6,194.5 108.5,193.8 108.6,193.2 114.9,186.5 115.6,186.4 116.5,186.7 117.7,187.2 119.4,187.9 121.3,189.8 121.6,190.5 121.6,191.0 120.9,192.4 119.9,194.1 116.0,195.7 113.1,196.5 112.5,196.6 " />
    <polygon id="South Korea" points="186.3,190.8 184.8,190.3 182.9,189.0 182.9,188.3 184.1,188.0 185.1,187.9 185.7,188.2 186.1,188.9 186.7,190.2 186.5,190.7 " />
    <polygon id="South Korea" points="159.8,193.5 157.3,193.7 156.7,193.7 156.1,193.4 155.3,192.8 155.1,191.6 155.7,191.1 159.1,190.4 159.7,190.4 161.0,190.9 161.2,191.9 160.7,192.9 160.0,193.4 " />
    <polygon id="South Korea" points="139.2,199.8 138.0,199.9 136.2,199.7 133.9,198.2 133.8,196.7 134.1,195.7 134.5,195.2 135.6,194.9 136.2,195.0 136.8,195.4 137.6,196.0 139.4,199.1 139.5,199.8 " />
    <polygon id="South Korea" points="132.6,247.7 131.5,248.0 130.9,248.1 127.3,248.5 126.1,248.6 124.4,248.2 123.5,248.0 119.6,248.3 118.4,248.7 117.8,249.1 117.3,249.8 116.5,250.0 116.0,249.8 114.4,248.8 113.5,248.2 112.5,247.4 111.8,246.7 111.2,245.9 111.2,244.3 112.1,242.9 116.4,239.3 118.3,238.0 121.1,237.0 133.1,234.3 136.0,233.9 140.4,233.4 141.3,233.4 142.0,233.6 142.6,234.1 144.9,234.6 147.2,237.9 147.0,239.2 146.2,240.7 145.7,241.3 142.9,244.4 139.1,245.7 137.3,246.3 132.6,247.7 " />
  </g>
</svg>