<?xml version="1.0" encoding="UTF-8" standalone="yes"?>
<!DOCTYPE svg PUBLIC "-//W3C//DTD SVG 1.0//EN" "http://www.w3.org/TR/2001/REC-SVG-20010904/DTD/svg10.dtd">
<svg height="250" width="370" xmlns="http://www.w3.org/2000/svg" xmlns:svg="http://www.w3.org/2000/svg" xmlns:xlink="http://www.w3.org/1999/xlink">


<g id="background">
<rect id="" width="370" height="250" fill="#222222"/>
</g>
  <g id="414" style="stroke-miterlimit: 3; fill: #F1F1F1; stroke: #000000; stroke-opacity: 1; stroke-width: 0.05; stroke-linejoin: bevel; stroke-linecap: square">
    <polygon id="Kuwait" points="257.9,10.6 259.2,11.0 259.9,10.8 261.1,16.6 266.2,35.6 267.0,38.2 267.9,40.7 270.0,45.4 273.0,50.5 273.5,51.2 277.5,56.6 278.2,57.2 279.1,57.4 280.1,57.1 283.3,59.9 292.9,75.8 295.6,81.1 296.2,83.9 296.2,85.0 296.1,86.0 295.3,86.4 293.5,87.0 292.6,87.1 291.4,86.9 286.0,84.8 284.4,84.0 283.9,83.3 283.5,82.5 283.0,80.8 281.8,79.6 271.6,73.9 269.7,73.3 268.5,73.1 266.1,73.2 264.0,73.6 263.1,73.9 260.7,75.2 221.9,109.5 221.7,114.6 239.3,122.0 240.3,122.3 241.6,122.3 245.4,122.0 246.2,122.0 247.2,121.8 249.2,121.2 250.7,120.4 256.9,116.9 262.9,113.2 267.0,113.1 270.0,115.9 273.7,119.6 281.9,134.2 284.8,141.0 288.8,158.7 292.3,169.9 293.0,171.5 297.0,179.0 299.0,181.7 314.1,201.8 327.4,217.1 330.5,221.6 330.6,226.7 329.9,229.9 329.6,230.8 336.4,249.0 318.0,249.1 218.7,250.0 207.2,237.8 204.8,234.5 200.3,223.9 200.2,223.0 200.6,218.6 200.6,214.2 200.5,213.2 200.0,211.4 198.6,208.3 194.7,199.6 189.3,187.9 182.2,177.9 181.8,175.6 106.7,166.8 75.0,163.2 40.6,159.6 34.3,158.7 34.9,156.9 36.4,155.0 37.1,154.3 39.6,152.2 42.4,150.2 48.3,146.5 50.7,145.3 51.9,144.5 57.2,138.2 61.2,132.3 71.0,117.8 79.4,105.3 84.5,98.4 94.0,86.4 96.0,84.9 97.6,82.9 98.9,80.7 104.3,70.9 115.0,47.0 122.2,29.5 122.9,27.9 125.7,22.3 128.1,17.7 130.2,15.1 132.1,13.3 134.8,11.2 139.5,8.6 141.2,7.9 164.1,0.4 171.4,0.3 177.9,0.2 223.0,0.0 225.6,0.1 257.9,10.6 " />
    <polygon id="Kuwait" points="274.2,18.8 272.3,19.5 271.3,19.3 270.5,18.9 270.4,17.9 271.0,16.0 272.0,14.7 275.1,11.9 277.5,10.6 279.4,10.0 283.8,9.4 286.2,9.6 287.1,9.9 287.5,10.7 286.8,11.3 276.6,17.5 274.2,18.8 " />
    <polygon id="Kuwait" points="305.4,79.2 301.8,79.3 299.5,79.0 297.9,78.2 297.3,77.6 296.2,76.4 295.3,74.9 282.0,50.3 292.7,25.0 288.0,18.7 287.5,18.1 287.2,17.2 287.9,16.6 288.9,16.3 293.7,15.0 294.8,14.8 297.0,15.2 297.9,15.6 299.5,16.6 301.3,19.1 302.7,21.0 314.3,35.3 323.3,46.2 325.3,48.9 326.0,50.6 327.2,54.9 327.3,57.0 326.7,60.0 325.5,62.2 324.0,64.3 322.4,66.2 320.1,68.7 314.1,74.5 312.1,76.1 309.9,77.6 308.4,78.4 306.6,79.0 305.4,79.2 " />
    <polygon id="Kuwait" points="327.7,102.6 332.5,108.3 332.9,109.1 333.0,110.1 332.5,110.9 331.9,111.4 330.8,111.6 329.7,110.4 324.1,105.7 323.2,105.3 322.1,105.1 319.7,104.9 316.3,104.6 315.3,104.9 314.5,105.3 313.4,105.2 312.6,104.9 312.2,104.1 312.4,103.1 313.4,100.6 313.9,99.9 314.8,99.6 318.2,99.3 319.3,99.4 326.4,101.4 327.7,102.6 " />
  </g>
</svg>