<?xml version="1.0" encoding="UTF-8" standalone="yes"?>
<!DOCTYPE svg PUBLIC "-//W3C//DTD SVG 1.0//EN" "http://www.w3.org/TR/2001/REC-SVG-20010904/DTD/svg10.dtd">
<svg height="250" width="370" xmlns="http://www.w3.org/2000/svg" xmlns:svg="http://www.w3.org/2000/svg" xmlns:xlink="http://www.w3.org/1999/xlink">


<g id="background">
<rect id="" width="370" height="250" fill="#222222"/>
</g>
  <g id="417" style="stroke-miterlimit: 3; fill: #F1F1F1; stroke: #000000; stroke-opacity: 1; stroke-width: 0.05; stroke-linejoin: bevel; stroke-linecap: square">
    <polygon id="Kyrgyzstan" points="369.3,92.3 369.8,93.0 370.9,95.8 370.9,96.5 370.3,97.2 369.5,97.6 369.0,97.8 368.4,97.9 367.5,97.9 366.2,98.0 363.6,97.7 362.3,97.6 360.7,97.7 358.9,98.0 358.0,98.2 357.5,98.3 356.4,99.0 355.8,99.7 355.6,100.3 355.4,101.2 354.8,102.1 354.1,102.6 353.5,102.8 352.9,102.8 352.2,102.8 351.5,102.7 350.2,102.7 345.6,104.5 339.4,105.8 332.9,108.2 330.0,109.5 326.6,110.9 320.2,113.4 319.6,113.5 318.8,113.8 317.8,114.2 316.9,114.5 312.2,116.8 307.9,119.1 307.0,119.7 306.6,120.4 307.0,121.5 307.3,122.3 307.2,122.9 306.4,123.4 305.7,123.7 305.1,124.0 304.6,124.4 303.3,125.7 302.9,126.5 302.4,127.4 301.4,128.5 300.8,129.0 299.4,129.9 298.8,130.2 297.1,131.0 296.6,131.0 295.9,130.7 295.3,130.5 294.4,130.4 290.1,130.0 289.6,130.0 288.8,130.2 287.1,131.0 283.9,132.3 279.1,132.8 277.9,132.8 277.2,132.7 276.7,132.4 275.5,131.9 273.8,131.5 272.5,131.4 271.7,131.5 270.4,132.1 269.8,132.2 265.8,131.9 264.6,131.5 263.7,130.9 262.9,130.7 261.9,130.7 261.1,130.8 258.3,131.5 257.5,131.7 256.7,131.9 254.1,133.8 253.6,134.4 249.2,140.9 249.1,142.0 249.2,142.8 249.0,145.0 248.7,145.6 248.0,145.9 247.3,146.4 246.7,146.8 245.9,147.8 245.3,148.7 245.0,149.3 244.8,150.2 244.3,150.9 243.7,151.4 242.7,152.2 242.2,152.5 239.0,154.2 238.4,154.0 237.9,153.0 234.9,152.4 230.7,152.5 229.7,152.6 228.9,152.9 227.0,153.5 226.3,154.2 225.7,155.2 225.0,155.7 224.2,155.8 217.7,155.9 217.0,155.5 216.6,154.7 216.2,153.4 215.0,148.2 215.0,147.5 215.0,146.9 214.8,146.1 214.3,145.1 213.9,144.6 213.2,144.2 211.6,144.8 210.2,145.5 205.5,148.1 204.8,148.5 203.1,149.7 201.8,150.7 196.3,150.9 194.6,150.6 193.5,150.3 192.6,149.9 191.7,149.4 191.0,149.0 190.5,148.7 189.7,148.4 189.2,148.5 188.6,149.0 188.2,150.4 188.0,152.2 188.8,152.9 189.7,153.7 190.3,154.3 190.0,154.9 189.0,155.0 188.1,154.9 187.5,154.7 185.8,154.3 185.3,154.4 184.8,154.5 180.7,156.9 180.0,157.4 178.8,158.4 177.6,159.6 175.1,161.2 174.4,161.7 173.2,162.3 172.5,162.6 171.9,162.7 171.1,162.8 170.4,162.8 169.3,162.3 168.5,162.0 167.8,162.0 167.0,162.1 166.4,162.2 161.4,163.5 160.7,163.8 160.1,164.4 155.3,171.7 155.1,172.2 155.0,173.3 155.0,173.9 156.0,174.6 157.0,174.8 157.8,176.2 158.8,179.2 155.9,183.0 155.2,183.5 154.7,183.6 153.1,183.7 148.8,184.2 144.6,183.6 143.3,183.7 139.2,184.6 139.0,185.6 138.3,186.2 133.0,187.4 131.9,187.6 122.3,187.3 120.4,187.0 119.3,186.8 116.3,186.1 115.5,186.0 114.7,186.1 113.5,187.1 109.5,187.7 108.4,187.6 107.7,187.4 105.1,188.0 104.2,188.7 103.8,189.5 103.7,190.1 103.5,190.8 102.2,192.8 101.6,193.0 97.9,190.2 96.7,188.0 96.3,187.2 95.3,186.8 92.6,187.6 92.0,187.9 91.0,188.5 89.9,189.2 88.8,189.7 88.3,189.9 86.1,190.2 85.5,190.0 84.6,189.1 84.3,188.5 84.3,187.9 84.9,187.1 85.6,186.5 85.7,185.9 85.7,185.4 85.4,184.4 84.9,183.8 84.4,183.8 83.4,184.0 82.6,184.2 81.7,184.3 80.0,184.4 79.5,184.3 78.6,184.2 77.9,184.0 77.1,183.2 77.0,182.5 77.3,182.0 77.8,181.4 78.3,180.8 78.1,180.1 77.0,179.2 76.2,178.8 75.6,178.6 73.3,179.1 70.7,180.3 66.3,181.6 63.3,182.2 62.4,182.8 61.9,183.4 61.6,184.2 61.2,185.2 60.7,185.7 60.1,185.9 59.4,186.0 54.6,185.7 50.4,185.2 49.5,183.0 48.7,182.4 48.5,181.2 48.1,180.6 47.6,180.1 47.0,179.8 43.2,179.1 42.7,179.0 42.0,179.1 38.1,179.9 36.3,180.9 34.1,180.1 32.3,179.8 25.0,180.8 21.2,181.4 20.5,181.3 19.5,180.6 18.6,180.1 17.8,179.9 16.4,179.7 15.2,179.8 13.1,179.9 12.4,180.0 11.8,180.5 10.9,181.1 10.3,181.3 9.6,181.4 4.1,182.1 3.4,181.9 2.9,181.3 2.8,180.8 3.0,179.5 3.2,178.3 3.2,177.3 3.1,176.6 2.8,175.9 1.6,175.0 1.1,174.3 1.0,173.7 1.3,172.7 1.6,171.3 2.2,169.7 3.7,166.2 4.2,166.1 6.0,167.5 6.4,168.1 6.6,168.9 7.3,169.1 9.4,168.6 10.1,168.3 10.4,167.8 9.8,167.4 8.9,164.9 9.1,164.1 9.6,163.2 10.7,161.6 11.5,162.1 12.1,162.3 13.0,162.1 14.0,161.9 15.9,161.4 20.1,160.2 26.2,158.6 26.7,158.6 27.9,158.9 35.6,161.4 36.3,161.8 36.8,162.5 37.4,163.0 38.1,163.2 40.5,163.5 43.2,164.0 44.4,164.4 44.9,164.9 44.7,165.6 44.1,166.1 43.5,166.3 42.7,166.8 41.9,168.0 42.0,168.6 42.6,169.0 46.4,167.3 47.1,166.9 47.8,166.3 48.1,165.7 48.4,164.7 48.2,164.0 48.2,162.8 48.9,162.2 55.9,160.2 57.0,160.2 58.1,160.1 58.9,159.8 59.4,159.5 59.6,158.7 59.6,158.1 59.4,157.1 61.9,156.6 62.9,156.6 64.4,156.6 68.0,156.3 69.7,155.5 72.8,155.8 75.3,156.7 75.7,157.2 75.9,157.8 76.7,158.4 77.3,158.7 83.3,161.0 83.9,160.9 85.8,160.1 86.4,159.7 87.0,159.2 90.0,157.5 94.7,157.0 93.7,154.7 96.9,151.5 99.1,150.5 100.2,150.3 100.9,150.3 101.9,150.3 102.7,150.4 102.5,151.0 104.8,152.2 106.5,152.7 107.2,152.9 107.8,152.3 108.2,151.4 108.4,150.7 108.2,149.9 107.3,149.2 106.7,148.9 106.0,148.4 105.6,146.0 106.2,145.3 106.8,145.2 112.7,148.2 113.3,148.5 114.1,148.7 115.0,148.6 115.7,148.2 117.1,146.3 120.1,143.4 121.8,142.8 122.7,142.7 124.9,142.0 130.0,140.0 130.5,139.8 131.7,139.1 132.5,138.5 132.4,138.0 131.9,137.5 128.4,136.8 123.4,136.8 117.6,136.8 116.8,136.7 115.4,136.4 114.4,136.2 113.8,135.5 113.7,135.0 112.7,133.9 110.2,131.9 106.5,131.0 104.0,131.3 99.8,132.1 100.3,131.2 100.5,130.6 99.6,126.2 99.1,125.7 98.3,125.5 97.3,125.6 96.8,125.9 90.6,126.1 90.1,126.0 89.5,125.7 89.5,124.2 89.7,123.4 89.7,122.2 89.5,121.3 88.9,120.5 83.1,113.8 81.6,113.7 80.5,115.4 80.5,115.9 81.2,116.6 81.8,117.2 81.8,118.0 81.7,118.8 80.5,121.1 80.0,121.7 79.1,122.2 78.5,122.3 77.9,122.2 76.6,121.7 75.2,120.8 74.5,120.5 74.3,121.1 74.4,123.7 74.5,124.7 74.5,125.8 74.5,127.4 74.3,128.2 73.7,128.4 73.0,128.2 68.4,125.9 67.4,125.8 66.8,126.0 65.0,127.0 59.3,125.5 53.5,124.0 52.7,121.6 52.8,121.0 52.8,120.4 52.4,119.6 51.9,118.9 50.3,116.8 49.6,116.4 49.1,116.3 48.4,116.5 47.7,116.8 47.2,117.1 46.6,117.4 46.1,117.6 44.3,118.2 43.7,118.4 42.8,118.6 42.3,118.6 40.9,117.2 40.3,116.5 39.8,116.2 38.8,115.7 37.8,115.4 37.0,115.2 36.1,115.1 35.1,115.1 33.6,115.1 33.0,115.0 32.5,114.7 32.2,114.0 32.3,113.0 32.8,112.4 33.3,112.2 34.3,111.8 34.9,111.7 35.8,111.4 36.5,111.1 41.9,108.5 42.5,108.0 43.0,107.3 43.5,106.1 44.1,105.4 49.2,102.0 50.0,101.8 51.3,101.8 52.5,101.7 54.1,101.5 54.6,101.2 54.9,100.4 54.8,99.9 54.7,99.3 54.8,98.3 55.1,97.8 55.8,97.4 56.5,97.3 57.1,97.3 57.6,97.5 58.2,97.5 58.9,97.5 67.2,94.1 68.4,93.1 68.9,92.5 69.0,92.0 68.4,91.9 67.8,91.7 67.2,91.4 65.5,90.5 64.2,89.7 63.5,89.3 62.4,88.9 61.7,88.6 61.0,88.7 59.2,89.9 58.5,90.3 57.4,90.1 56.8,90.0 55.5,88.7 55.8,88.0 57.1,87.0 58.5,85.8 58.5,85.3 58.2,84.5 60.8,79.6 61.4,79.2 65.4,77.8 65.3,76.0 68.9,73.4 74.0,71.9 76.1,72.2 76.8,72.4 79.0,73.2 79.7,73.2 81.1,72.7 81.8,72.3 83.4,71.5 84.0,71.3 84.8,71.2 87.3,71.1 89.8,71.1 91.8,71.4 92.9,71.7 99.0,72.9 102.4,72.9 103.2,72.9 105.1,73.6 108.6,74.8 114.1,75.9 118.1,76.7 118.6,76.8 119.3,77.1 120.4,78.1 120.6,78.8 121.0,79.4 121.5,79.7 122.2,80.0 122.9,80.3 123.7,80.5 125.2,80.7 125.7,80.8 127.5,80.4 131.8,80.0 137.5,81.6 138.1,81.9 138.1,83.0 138.0,83.6 138.2,84.3 143.8,85.3 144.4,85.1 144.7,84.4 144.3,83.9 142.7,81.9 141.9,81.0 141.6,80.3 141.4,79.7 141.3,79.0 141.3,78.0 142.2,75.2 142.5,74.7 143.3,73.8 144.3,72.2 144.6,71.6 144.6,71.0 144.9,67.6 146.4,64.0 148.6,63.0 150.7,62.5 153.3,61.8 157.0,61.4 157.7,61.0 158.3,60.3 162.3,59.0 167.8,58.5 168.3,58.2 170.2,58.0 171.9,58.4 173.4,58.8 179.3,60.9 180.7,62.1 182.7,63.8 185.0,65.3 185.6,65.5 186.2,65.6 186.7,65.6 187.8,65.5 189.0,65.7 189.6,65.8 190.3,66.0 196.1,68.1 200.0,69.7 202.0,70.2 204.5,70.2 212.5,70.8 213.4,71.0 214.0,71.1 214.6,71.4 216.1,71.8 218.9,70.3 219.5,69.4 219.8,68.9 220.2,68.0 220.4,67.5 222.2,67.1 223.9,67.1 224.4,67.1 231.2,67.3 235.4,67.4 238.0,67.8 240.0,68.3 241.6,68.7 248.1,68.7 251.7,68.1 252.3,68.0 254.6,67.1 255.5,66.3 260.1,65.4 265.3,66.3 265.9,66.5 267.9,68.1 269.9,68.1 274.6,68.0 278.9,67.9 283.0,68.2 283.6,68.2 284.9,68.2 285.4,68.2 292.3,68.7 292.9,68.9 294.0,69.6 297.6,70.1 298.3,70.0 299.5,69.7 300.5,69.6 309.4,69.1 311.6,69.2 312.4,69.4 316.9,71.1 328.9,73.4 329.8,73.2 331.6,72.5 332.6,72.3 333.7,72.1 334.5,72.2 335.0,72.7 334.8,73.3 334.6,73.9 334.6,74.5 334.7,75.1 335.2,76.1 335.8,76.7 336.7,77.5 337.7,78.1 338.2,78.2 339.1,78.3 339.7,78.4 340.3,78.8 341.0,79.8 341.5,81.0 341.9,82.1 342.5,82.8 343.7,83.2 345.1,83.5 346.1,83.6 347.1,83.6 348.5,83.5 350.2,83.2 350.9,83.1 351.7,82.9 358.8,84.0 359.9,84.3 365.3,88.7 366.7,90.5 367.2,91.2 367.9,91.8 368.7,92.1 369.3,92.3 " />
  </g>
</svg>