<?xml version="1.0" encoding="UTF-8" standalone="yes"?>
<!DOCTYPE svg PUBLIC "-//W3C//DTD SVG 1.0//EN" "http://www.w3.org/TR/2001/REC-SVG-20010904/DTD/svg10.dtd">
<svg height="250" width="370" xmlns="http://www.w3.org/2000/svg" xmlns:svg="http://www.w3.org/2000/svg" xmlns:xlink="http://www.w3.org/1999/xlink">


<g id="background">
<rect id="" width="370" height="250" fill="#222222"/>
</g>
  <g id="418" style="stroke-miterlimit: 3; fill: #F1F1F1; stroke: #000000; stroke-opacity: 1; stroke-width: 0.05; stroke-linejoin: bevel; stroke-linecap: square">
    <polygon id="Laos" points="292.4,227.2 290.2,229.2 286.6,230.5 283.8,232.4 283.3,233.4 281.4,235.1 280.0,236.0 272.2,239.0 270.9,238.1 269.6,236.5 269.2,235.9 267.8,235.2 265.6,234.3 264.8,233.0 263.1,230.5 262.5,230.5 261.2,231.3 259.9,233.0 259.9,233.7 259.4,234.3 258.9,234.6 256.9,234.9 256.2,234.5 255.7,233.8 254.8,233.4 254.5,234.2 254.5,234.7 254.3,235.8 253.8,236.6 252.5,237.3 251.8,237.0 251.3,236.8 250.3,236.7 247.4,237.0 247.1,237.7 247.2,238.3 248.2,240.8 248.5,241.3 250.8,243.9 252.1,245.4 252.4,246.0 252.3,246.6 250.5,249.4 248.9,249.9 245.7,250.0 244.7,249.8 244.0,249.3 241.7,247.4 241.2,246.7 241.1,246.1 241.0,245.5 239.5,244.6 234.4,243.0 232.6,243.9 230.9,244.5 229.2,244.8 226.4,242.7 224.2,239.6 224.3,237.7 224.8,237.9 226.8,237.1 228.9,236.1 231.1,234.7 232.5,233.2 233.1,232.4 233.7,231.6 233.8,231.0 233.8,230.2 233.5,229.0 233.1,224.4 233.3,223.8 234.0,222.8 234.6,222.1 235.0,221.3 235.3,218.7 233.4,216.7 232.0,215.8 231.8,215.1 232.0,213.6 233.6,207.2 234.6,206.9 235.2,206.5 235.6,206.0 235.8,205.0 236.4,201.9 236.6,201.4 236.8,200.2 236.7,199.5 236.6,198.9 235.9,197.9 234.4,196.9 233.0,196.4 232.4,196.4 231.8,196.6 231.2,196.6 230.7,196.2 229.8,195.2 229.5,194.6 228.2,191.9 229.0,190.3 229.5,189.7 230.7,189.5 230.0,189.0 227.1,188.4 226.2,188.3 225.3,188.2 224.7,188.1 223.6,187.9 220.6,186.9 219.8,186.2 219.4,185.5 219.0,184.7 218.9,184.1 218.9,183.1 218.5,182.2 217.9,181.5 217.0,180.8 215.6,179.6 210.9,174.5 210.6,173.3 210.9,171.0 211.1,170.4 211.3,169.6 211.4,169.0 211.4,168.3 211.1,167.6 210.7,163.0 210.6,161.9 210.5,161.3 210.6,160.2 210.7,159.5 211.5,157.7 212.2,156.5 212.4,155.9 212.6,154.8 212.7,153.3 212.7,152.0 212.6,149.9 212.5,149.3 212.2,148.7 209.9,145.7 209.4,145.1 208.8,144.7 207.8,144.2 202.6,141.6 201.1,139.9 200.7,139.3 198.7,136.3 197.5,135.9 196.8,135.4 196.5,134.5 195.9,133.1 195.4,131.7 195.0,131.1 192.0,128.2 191.7,127.2 191.1,125.4 190.4,124.4 188.5,121.9 188.0,121.6 187.3,121.6 184.4,122.2 182.0,121.4 178.1,120.0 177.5,119.7 174.6,118.9 172.0,118.6 171.4,118.5 170.6,118.7 168.7,119.0 168.0,119.4 167.0,120.4 166.7,120.9 167.1,121.6 167.3,123.2 163.9,126.4 163.1,127.0 161.8,127.6 161.9,130.2 161.6,130.7 161.2,131.3 160.5,131.8 160.0,131.8 159.4,131.4 158.7,131.1 158.1,131.1 155.7,132.0 155.2,132.3 152.0,134.6 150.6,136.5 148.4,134.7 148.5,133.6 148.4,133.0 146.7,132.1 146.2,132.0 144.4,132.1 143.1,131.8 139.5,129.9 138.2,128.7 136.9,127.2 135.9,125.7 135.3,125.3 133.8,125.1 133.3,125.0 132.7,125.2 132.2,125.5 130.6,127.5 128.1,130.1 127.5,130.4 126.9,130.2 126.3,129.9 124.6,129.3 124.1,129.6 123.6,130.2 123.1,132.0 121.6,134.0 120.3,134.4 118.4,135.2 117.8,136.7 118.3,137.0 116.3,138.7 115.7,138.7 111.9,141.2 110.5,142.2 108.1,144.9 106.3,146.9 103.8,145.9 102.6,144.7 101.2,144.0 100.4,143.9 99.8,143.9 99.2,143.9 98.9,143.0 99.3,142.3 100.0,141.6 101.1,139.4 101.2,138.9 100.9,138.2 101.2,136.9 102.1,134.4 102.7,134.0 103.6,133.6 104.2,133.1 104.7,132.6 105.7,130.6 106.5,128.7 106.6,126.1 106.2,121.2 104.4,120.4 103.3,119.1 103.1,118.4 104.4,116.2 105.8,115.5 106.6,115.0 108.5,112.7 109.3,111.4 108.4,109.6 108.8,105.9 108.8,105.3 110.2,102.9 110.8,102.2 111.3,101.9 111.8,100.9 110.4,99.4 107.4,91.8 107.4,90.9 107.6,88.9 108.4,88.3 109.0,88.3 109.8,87.0 109.7,85.8 109.2,85.1 108.3,84.8 107.7,84.8 104.0,84.9 103.3,84.4 102.5,84.0 100.4,84.0 98.9,84.0 98.1,84.6 97.6,85.2 97.2,85.7 96.1,86.9 95.0,87.9 94.5,87.4 92.7,86.5 91.3,86.0 90.5,86.1 89.4,87.7 87.4,86.9 86.6,86.4 85.3,83.8 84.2,80.5 84.2,79.8 85.3,78.3 86.5,77.0 87.1,76.5 88.3,72.6 88.9,70.5 89.0,70.0 89.3,68.3 87.7,68.7 85.8,67.5 84.6,66.1 83.7,64.0 83.5,63.3 82.8,62.3 82.0,61.6 81.3,61.4 80.7,61.5 80.1,61.6 79.0,62.5 77.2,64.3 75.4,63.9 75.0,62.8 75.5,62.2 76.0,61.3 76.5,58.6 76.7,57.0 77.3,54.8 78.4,52.8 79.7,51.2 80.8,50.4 82.9,49.0 83.5,48.8 85.2,49.1 85.8,49.2 86.8,49.4 87.5,49.5 88.4,49.3 89.1,49.0 90.0,48.6 90.9,47.9 91.2,47.3 90.3,47.0 89.4,47.2 88.9,47.5 88.0,47.6 87.4,47.3 87.5,45.2 88.2,43.0 89.3,42.8 89.8,42.7 90.5,42.3 91.9,40.0 92.7,38.6 92.8,37.3 93.3,35.2 93.7,34.6 94.7,34.9 95.3,35.1 95.9,35.1 96.5,35.0 97.3,34.6 101.4,32.2 104.4,30.2 105.2,29.4 106.2,28.3 105.8,27.1 106.9,27.5 109.2,32.8 108.7,34.0 108.3,36.3 108.8,37.6 109.7,38.5 111.3,38.3 112.6,37.4 116.2,36.6 118.1,36.5 119.2,36.9 121.1,38.0 122.0,38.7 122.9,39.7 124.3,39.6 126.1,37.5 126.3,36.8 125.2,35.5 124.2,35.3 123.1,34.7 123.1,33.6 123.7,30.5 123.9,29.3 124.3,24.8 123.4,22.6 123.8,19.4 121.1,16.5 119.9,15.6 118.2,8.5 119.7,6.4 121.3,3.5 120.9,2.9 121.0,1.8 121.7,0.8 123.0,0.1 123.7,0.0 124.2,0.0 124.8,0.3 128.3,1.9 131.3,1.4 133.7,1.8 134.8,3.0 135.9,4.8 135.9,5.4 136.1,6.0 137.6,7.5 138.4,8.3 139.1,8.3 139.6,8.5 142.9,11.1 143.7,12.7 145.2,15.4 145.8,16.0 146.8,16.3 147.5,16.4 148.2,16.6 149.5,18.8 149.9,20.7 149.9,21.6 149.7,22.2 150.2,24.4 152.3,24.4 155.8,22.8 158.8,21.9 159.3,22.6 159.5,23.1 159.5,26.1 159.5,27.0 158.8,27.7 158.2,28.3 156.7,30.1 156.2,31.1 157.0,30.9 157.0,32.6 156.4,36.3 157.4,36.9 157.3,38.9 157.9,38.9 160.9,42.2 162.4,45.1 163.1,46.6 164.8,48.2 165.3,48.3 166.2,48.7 169.6,49.4 170.3,49.5 172.2,49.8 177.4,51.3 178.3,51.9 179.4,53.0 179.7,53.5 181.3,53.4 182.3,51.4 182.5,50.0 184.8,48.1 191.7,44.6 194.6,45.4 195.7,45.8 197.7,46.7 198.5,47.2 198.9,47.8 198.9,48.3 200.9,50.2 203.5,52.1 205.9,53.2 206.8,53.5 207.4,53.5 207.7,54.4 207.3,54.9 206.5,55.7 204.0,57.8 202.2,58.2 200.2,59.4 200.1,60.0 201.2,60.6 204.0,61.0 204.6,61.0 205.2,60.8 206.5,60.7 207.1,60.8 209.6,62.8 209.8,63.8 213.2,66.3 213.8,66.4 216.2,67.5 217.7,70.1 217.6,72.6 217.0,73.3 215.2,73.7 213.5,74.7 212.1,75.9 211.7,76.6 212.4,77.0 213.0,76.9 213.6,77.2 213.4,78.9 211.4,80.0 210.0,80.2 208.8,81.4 208.4,82.0 208.1,83.0 208.0,83.8 205.6,84.4 204.2,84.4 202.1,83.3 201.3,82.6 196.1,81.5 195.5,81.5 193.6,82.0 193.3,82.6 191.8,82.8 191.3,82.6 190.7,82.2 190.1,81.8 189.6,82.5 190.1,84.0 190.4,84.6 191.0,85.4 191.7,85.6 192.1,86.6 192.1,87.1 192.0,88.1 190.5,89.9 189.8,89.9 188.3,90.5 185.5,92.7 185.4,93.5 188.9,95.4 190.3,95.1 191.0,95.2 194.0,96.4 195.5,97.7 195.4,98.8 196.7,98.8 197.2,98.9 204.3,102.8 205.0,103.8 205.4,104.6 206.1,105.2 208.6,106.8 210.6,108.0 216.2,109.5 219.0,110.2 221.2,110.9 222.4,111.6 223.6,112.3 223.8,112.9 223.8,113.4 222.7,113.6 221.5,115.9 221.2,117.4 221.1,118.1 221.4,118.7 223.5,121.5 225.7,123.8 226.6,124.0 227.2,123.6 227.6,124.3 227.5,125.5 228.5,126.3 229.6,126.9 230.0,126.3 232.8,126.3 235.1,129.8 236.4,131.6 238.0,136.6 240.0,140.7 241.3,141.3 242.2,141.6 243.2,142.4 244.1,143.3 245.3,145.0 247.9,148.0 248.4,148.5 249.8,149.8 251.7,151.5 253.5,152.8 254.2,153.2 254.9,153.2 257.2,155.5 259.5,158.5 259.9,160.1 260.1,160.6 262.3,161.4 263.6,160.5 263.5,162.2 263.5,163.5 263.6,169.4 263.7,170.0 264.1,170.8 267.2,176.1 267.8,176.7 269.2,177.3 270.0,177.0 271.0,175.8 271.5,174.8 271.7,174.2 272.4,173.8 273.0,173.9 273.4,174.5 276.0,179.7 276.1,180.8 276.7,180.6 277.3,180.6 279.2,180.8 280.7,181.9 280.8,182.8 280.8,183.4 281.1,184.1 282.0,184.9 286.2,187.9 287.0,187.7 287.6,187.6 289.7,187.1 290.3,188.7 290.0,189.4 288.3,191.8 284.1,193.7 283.5,193.5 283.0,193.4 282.4,193.6 281.6,195.2 281.6,195.8 281.8,196.5 284.1,199.8 287.0,202.5 288.7,204.0 291.5,205.0 293.8,207.5 296.4,210.3 296.7,210.8 296.4,211.9 296.0,212.7 295.1,215.0 294.4,216.8 293.6,217.3 290.2,217.7 290.3,219.3 292.1,221.0 292.5,223.2 292.5,226.7 " />
  </g>
</svg>