<?xml version="1.0" encoding="UTF-8" standalone="yes"?>
<!DOCTYPE svg PUBLIC "-//W3C//DTD SVG 1.0//EN" "http://www.w3.org/TR/2001/REC-SVG-20010904/DTD/svg10.dtd">
<svg height="250" width="370" xmlns="http://www.w3.org/2000/svg" xmlns:svg="http://www.w3.org/2000/svg" xmlns:xlink="http://www.w3.org/1999/xlink">


<g id="background">
<rect id="" width="370" height="250" fill="#222222"/>
</g>
  <g id="422" style="stroke-miterlimit: 3; fill: #F1F1F1; stroke: #000000; stroke-opacity: 1; stroke-width: 0.05; stroke-linejoin: bevel; stroke-linecap: square">
    <polygon id="Lebanon" points="147.4,221.0 141.4,217.2 134.6,227.6 134.7,230.0 132.3,239.4 131.9,240.0 128.9,241.6 128.9,243.7 128.7,244.9 116.6,248.9 115.8,249.1 108.9,250.0 105.0,250.0 104.2,249.8 99.9,245.9 90.9,244.2 66.4,244.7 65.0,245.0 71.4,239.1 78.8,230.9 81.1,226.8 81.6,224.3 82.1,220.4 83.8,211.6 90.6,192.7 92.2,188.2 94.1,186.8 96.4,185.5 98.6,183.8 101.1,181.6 105.1,176.9 109.4,167.1 111.4,159.7 114.8,151.2 118.7,142.8 122.2,137.7 123.3,136.2 124.3,134.5 124.9,132.5 125.3,130.4 125.4,128.6 125.4,125.4 125.3,123.6 123.0,118.5 123.2,117.4 124.9,116.6 125.6,116.6 126.7,116.6 131.7,116.7 135.5,117.6 138.9,116.8 139.9,115.8 140.9,114.5 149.1,100.1 151.2,86.5 151.0,84.3 150.1,81.1 149.8,80.2 149.2,79.7 148.3,79.3 147.6,78.8 147.7,77.8 148.2,70.8 148.4,69.9 149.0,69.3 151.0,67.8 151.3,58.2 151.5,57.3 154.7,52.8 178.3,34.1 191.1,27.7 204.1,19.2 204.3,18.7 205.4,15.2 205.5,14.2 205.5,12.4 205.1,6.8 204.4,4.5 202.5,0.0 210.8,2.3 212.5,2.4 220.6,2.1 224.3,1.5 224.8,1.3 225.8,0.5 253.9,0.9 266.1,1.3 278.9,1.8 279.3,3.5 278.4,8.1 277.9,8.6 269.5,14.7 264.2,17.3 262.2,23.1 274.6,23.0 278.4,24.6 289.7,34.0 293.0,47.8 300.2,65.9 305.1,69.8 288.3,85.2 269.5,96.8 262.0,102.5 259.4,104.9 257.6,107.1 251.4,115.1 251.2,116.2 251.6,116.7 258.1,121.2 259.4,121.4 261.6,120.9 262.9,120.8 263.7,121.0 264.6,121.4 267.6,124.0 268.4,125.0 268.2,126.9 267.7,127.5 266.4,128.6 265.1,129.3 263.8,129.4 262.5,129.4 244.7,124.7 218.1,129.2 209.5,138.4 202.7,146.0 201.8,147.0 196.4,156.5 196.5,157.9 197.8,159.0 198.7,159.3 199.5,159.3 201.7,158.6 202.6,158.6 210.8,162.1 215.5,165.8 216.4,167.1 216.1,168.4 212.2,172.5 196.4,186.2 189.9,191.1 189.0,191.7 187.3,192.6 183.4,194.0 180.4,195.3 179.5,195.9 178.7,197.2 178.2,198.4 177.8,201.3 177.3,202.4 174.3,204.5 173.1,205.0 170.4,206.0 148.9,215.5 148.2,216.0 147.6,216.3 146.9,217.0 147.4,221.0 " />
  </g>
</svg>