<?xml version="1.0" encoding="UTF-8" standalone="yes"?>
<!DOCTYPE svg PUBLIC "-//W3C//DTD SVG 1.0//EN" "http://www.w3.org/TR/2001/REC-SVG-20010904/DTD/svg10.dtd">
<svg height="250" width="370" xmlns="http://www.w3.org/2000/svg" xmlns:svg="http://www.w3.org/2000/svg" xmlns:xlink="http://www.w3.org/1999/xlink">


<g id="background">
<rect id="" width="370" height="250" fill="#222222"/>
</g>
  <g id="426" style="stroke-miterlimit: 3; fill: #F1F1F1; stroke: #000000; stroke-opacity: 1; stroke-width: 0.05; stroke-linejoin: bevel; stroke-linecap: square">
    <polygon id="Lesotho" points="105.5,220.5 93.5,210.5 87.8,210.1 83.2,210.0 81.2,199.0 73.3,177.5 64.9,171.4 62.2,166.0 60.7,162.7 56.9,154.6 49.7,140.1 46.3,135.5 45.4,134.6 44.8,134.3 42.8,133.6 42.2,133.3 41.3,132.4 39.1,129.1 39.0,126.8 39.4,126.3 39.9,126.0 55.9,120.0 57.3,119.6 63.5,118.3 67.9,117.3 72.8,115.7 73.8,114.9 75.2,111.7 80.8,105.7 91.9,87.8 96.8,85.0 102.6,76.5 113.2,64.5 114.9,62.7 113.8,61.1 113.7,60.6 114.1,56.8 114.2,56.3 133.5,41.9 144.8,40.0 159.8,35.2 165.8,28.9 172.0,20.5 178.8,15.6 179.3,15.3 180.2,15.3 180.8,15.6 181.9,17.1 191.4,17.0 193.3,16.9 199.8,15.4 200.4,15.1 201.2,14.1 201.7,12.1 201.9,11.5 202.3,11.0 205.5,7.2 206.1,6.8 213.0,5.3 216.4,4.9 219.5,5.0 225.7,4.9 226.6,4.7 227.3,4.6 229.3,3.8 231.2,2.1 234.6,0.3 235.2,0.0 236.0,0.0 236.6,0.3 239.5,2.6 241.0,3.8 253.0,16.5 254.7,22.6 261.8,23.1 262.4,23.4 265.7,26.4 266.9,27.9 269.9,32.7 271.6,36.3 271.9,36.9 277.7,40.8 302.0,55.8 311.5,60.2 313.0,60.5 315.8,61.4 317.1,61.9 317.9,62.8 329.7,85.2 332.6,92.9 332.7,93.4 332.7,94.2 329.6,101.7 329.1,102.9 328.1,103.8 327.6,104.1 326.8,104.3 325.0,104.4 323.6,104.8 322.1,105.3 319.6,106.4 315.5,108.7 314.9,109.0 313.6,111.1 313.2,112.4 313.1,113.1 313.4,121.6 313.8,124.5 313.6,125.9 313.2,126.4 312.0,127.1 310.5,127.5 307.7,127.5 306.1,127.8 304.0,128.6 299.1,131.0 298.2,131.9 295.5,137.5 295.3,138.1 293.9,141.7 293.9,143.2 294.3,145.4 293.2,147.6 292.9,148.2 292.6,149.6 292.6,150.3 292.7,151.0 292.9,151.7 295.0,153.2 295.7,153.3 296.3,153.6 296.8,154.0 298.4,160.8 298.2,161.5 297.8,162.0 297.3,162.4 290.1,166.2 283.2,169.4 280.6,170.6 266.7,178.5 264.1,179.7 252.8,184.0 238.8,188.1 232.9,187.6 231.4,187.3 220.4,187.3 207.3,188.9 206.5,189.0 205.9,189.3 203.2,191.1 200.0,196.6 199.7,197.1 195.1,201.5 188.7,211.1 177.0,231.7 175.7,237.9 175.4,238.5 167.4,250.0 160.4,249.8 154.5,249.2 150.6,248.6 149.0,248.3 127.0,243.9 126.3,243.7 125.8,243.3 111.6,230.5 110.8,229.6 106.9,223.8 106.2,222.7 105.5,220.5 " />
  </g>
</svg>