<?xml version="1.0" encoding="UTF-8" standalone="yes"?>
<!DOCTYPE svg PUBLIC "-//W3C//DTD SVG 1.0//EN" "http://www.w3.org/TR/2001/REC-SVG-20010904/DTD/svg10.dtd">
<svg height="250" width="370" xmlns="http://www.w3.org/2000/svg" xmlns:svg="http://www.w3.org/2000/svg" xmlns:xlink="http://www.w3.org/1999/xlink">


<g id="background">
<rect id="" width="370" height="250" fill="#222222"/>
</g>
  <g id="428" style="stroke-miterlimit: 3; fill: #F1F1F1; stroke: #000000; stroke-opacity: 1; stroke-width: 0.05; stroke-linejoin: bevel; stroke-linecap: square">
    <polygon id="Latvia" points="5.1,148.3 4.5,144.5 3.0,139.2 3.6,137.7 4.1,136.2 4.5,135.3 4.9,132.6 4.9,130.9 4.3,129.3 4.2,128.7 4.2,128.1 4.9,127.5 9.0,126.0 13.0,124.3 14.9,123.5 19.7,120.3 21.5,118.4 22.4,117.0 22.7,116.0 22.8,115.1 22.7,114.5 22.5,113.2 22.6,107.6 22.8,105.4 23.0,104.8 24.0,103.9 24.6,103.6 25.3,103.2 26.2,102.6 31.9,97.0 34.2,94.7 35.5,93.3 35.9,92.5 37.5,91.1 38.5,90.4 40.0,89.9 44.8,89.3 45.5,89.2 47.5,89.3 48.2,89.4 49.0,89.5 51.6,89.3 52.6,89.2 53.1,89.0 53.9,88.7 55.0,88.2 57.5,87.3 66.8,84.7 76.6,82.0 77.2,81.8 82.2,81.1 83.2,81.0 83.8,81.4 83.1,82.0 82.2,84.0 82.2,84.7 82.6,86.7 82.8,87.3 84.9,89.6 85.6,89.9 86.7,90.5 90.7,92.3 98.6,96.4 100.1,97.5 101.0,97.9 104.1,99.3 105.9,99.9 107.7,100.4 108.7,100.6 110.2,100.9 111.9,103.6 115.6,110.8 116.1,113.7 116.3,114.3 119.0,115.8 120.1,116.4 120.8,116.7 133.2,120.7 136.3,121.2 137.0,121.3 142.4,121.2 143.4,121.1 146.7,120.4 147.9,120.1 152.0,119.0 153.5,118.4 162.2,114.6 165.7,113.0 172.9,108.7 174.0,107.8 174.7,107.0 175.0,106.5 175.3,105.7 175.2,101.9 175.1,101.1 172.7,90.0 171.2,84.0 170.0,82.6 169.4,81.6 169.0,79.2 168.9,77.6 169.3,76.3 170.3,75.2 173.3,75.3 174.8,75.2 175.7,75.0 176.4,74.5 176.7,73.7 177.4,73.1 181.9,71.1 182.5,71.0 191.1,70.4 206.0,66.6 207.1,66.1 208.3,65.5 209.9,65.0 211.5,64.8 212.3,64.7 213.5,64.8 214.3,65.1 215.0,65.6 215.6,66.7 215.7,67.2 215.9,68.0 216.6,68.8 217.8,69.0 219.7,68.5 220.5,67.9 220.5,67.3 220.3,66.7 218.7,65.5 218.8,64.7 219.8,64.4 220.6,64.4 226.7,66.8 227.4,67.2 228.1,68.4 228.7,68.9 236.7,72.8 246.0,75.5 247.8,75.7 250.1,76.0 253.4,76.1 257.9,77.6 266.5,84.2 270.1,87.5 270.7,88.0 271.3,88.4 272.0,88.8 282.1,92.8 282.7,92.9 283.5,93.0 286.8,92.8 287.3,92.6 287.7,91.8 288.4,91.3 291.6,90.3 300.5,87.5 301.1,87.3 301.8,87.3 305.5,87.8 306.8,88.1 307.9,88.4 308.6,88.8 309.6,89.6 310.6,90.7 311.1,90.9 322.8,92.5 325.9,92.3 328.6,92.5 329.9,92.5 331.0,92.5 334.9,92.2 334.6,94.4 333.8,96.7 333.8,97.2 334.4,97.6 335.6,98.1 336.5,98.4 337.9,98.7 342.0,100.2 349.0,103.1 350.2,103.6 350.8,104.2 351.1,104.7 351.0,106.2 350.3,110.0 350.2,110.7 346.4,116.6 342.7,123.9 344.2,126.2 345.8,126.0 347.4,125.8 348.1,125.7 349.6,125.9 350.8,126.2 354.6,128.3 354.9,128.9 354.5,129.7 353.7,130.4 355.0,133.7 358.4,137.4 363.7,144.1 365.4,146.5 367.2,149.8 369.8,155.7 370.0,156.7 368.0,161.0 367.3,162.1 366.4,162.8 365.8,162.3 364.6,162.0 363.9,161.9 354.3,164.7 353.7,165.3 352.9,166.6 347.5,170.4 343.3,172.7 340.3,174.1 339.7,174.9 339.1,177.4 339.3,178.1 339.1,178.8 338.6,179.7 337.6,181.0 335.5,181.2 334.0,181.2 322.8,180.2 317.8,179.3 314.9,178.3 306.5,178.9 302.3,181.7 301.3,183.1 301.1,183.7 300.7,184.2 300.0,184.9 299.4,185.2 295.1,186.4 294.0,186.4 293.3,186.3 291.3,185.6 290.1,185.4 289.2,185.6 288.3,186.0 287.7,186.6 286.2,187.0 285.4,186.9 283.1,186.7 282.1,186.5 281.5,186.4 275.2,185.0 274.3,184.8 273.3,184.4 272.0,183.7 270.1,182.5 269.5,181.9 268.3,179.9 267.4,178.6 266.8,178.0 265.8,177.2 259.1,173.6 256.8,172.7 255.9,172.5 253.2,171.6 252.6,171.4 250.6,170.5 241.6,165.9 241.1,165.5 240.8,164.9 234.9,162.7 227.1,162.0 221.9,161.8 218.6,161.2 214.5,161.1 213.4,161.1 212.6,161.0 212.0,160.8 210.6,160.4 209.3,159.7 205.2,155.4 204.3,153.7 203.7,152.5 203.0,151.0 202.3,149.7 201.2,148.1 200.4,147.6 199.7,147.5 199.1,147.6 187.6,151.8 185.0,153.7 183.9,154.5 182.9,155.7 178.7,156.7 177.2,156.7 176.2,156.6 175.6,156.4 174.9,156.1 173.6,155.4 172.9,155.1 171.9,154.7 171.2,154.6 170.6,154.8 167.8,155.7 163.2,157.0 162.6,157.2 161.8,157.1 161.2,157.0 158.1,156.1 154.7,154.3 153.9,154.0 151.7,153.5 147.9,153.0 141.1,152.1 140.4,152.1 134.4,151.9 133.8,152.0 133.2,152.4 132.3,153.1 131.3,153.4 130.1,153.4 126.5,153.0 125.9,152.9 122.1,151.9 120.3,151.2 119.7,151.1 118.5,151.1 112.7,151.9 112.1,152.0 112.4,152.6 110.9,154.0 110.0,154.5 109.0,154.8 108.3,154.9 106.9,154.5 106.1,154.2 105.3,153.7 104.3,152.7 103.8,151.8 103.4,150.9 102.7,150.2 101.1,149.2 100.4,148.9 99.7,148.9 99.2,149.0 97.6,149.6 96.3,150.2 95.6,150.8 94.6,151.2 87.7,152.3 86.7,152.2 85.8,151.8 85.3,151.3 84.5,150.9 83.6,150.6 82.4,150.4 80.7,150.1 78.9,149.9 77.8,149.8 77.0,149.8 68.2,149.9 60.4,148.9 59.6,148.9 55.9,149.1 55.0,149.3 54.5,149.4 47.7,151.7 39.0,154.0 30.4,155.4 24.4,157.8 23.4,158.1 22.4,158.3 21.5,158.2 20.8,158.2 20.0,158.2 19.2,158.5 14.8,161.4 14.0,161.9 13.5,163.3 13.5,164.2 13.2,165.0 13.0,165.6 12.3,166.1 11.6,166.2 9.1,166.0 7.9,166.0 7.1,166.0 6.1,166.2 4.6,166.4 4.0,164.9 3.6,164.0 2.9,162.5 1.9,161.4 1.0,160.8 0.3,158.7 0.2,157.9 0.0,151.9 1.4,144.6 2.4,144.5 3.1,144.6 3.9,147.1 5.1,148.3 " />
  </g>
</svg>