<?xml version="1.0" encoding="UTF-8" standalone="yes"?>
<!DOCTYPE svg PUBLIC "-//W3C//DTD SVG 1.0//EN" "http://www.w3.org/TR/2001/REC-SVG-20010904/DTD/svg10.dtd">
<svg height="250" width="370" xmlns="http://www.w3.org/2000/svg" xmlns:svg="http://www.w3.org/2000/svg" xmlns:xlink="http://www.w3.org/1999/xlink">


<g id="background">
<rect id="" width="370" height="250" fill="#222222"/>
</g>
  <g id="430" style="stroke-miterlimit: 3; fill: #F1F1F1; stroke: #000000; stroke-opacity: 1; stroke-width: 0.05; stroke-linejoin: bevel; stroke-linecap: square">
    <polygon id="Liberia" points="103.1,126.5 102.8,125.7 101.8,124.2 100.6,123.0 99.5,122.0 97.7,120.9 93.3,118.4 87.0,115.5 70.8,109.2 70.2,108.9 68.7,106.8 68.4,106.2 69.3,104.5 69.6,103.7 69.8,103.0 69.6,102.3 68.8,101.0 63.7,96.2 62.0,95.1 63.4,95.3 65.8,94.5 68.7,89.6 70.5,86.0 71.0,83.7 71.2,81.7 73.1,77.9 75.5,76.6 77.2,76.1 79.2,75.6 79.9,75.4 82.9,71.4 83.1,70.8 83.3,70.1 85.4,67.7 95.4,60.2 96.0,60.0 96.7,60.4 98.7,59.5 99.5,59.1 100.5,58.2 101.7,56.7 106.7,50.5 108.0,48.6 109.2,47.3 110.2,46.2 112.4,45.1 115.0,44.4 115.4,39.2 115.3,28.9 119.8,24.0 120.4,23.4 121.1,22.9 121.6,22.6 122.9,22.1 124.3,22.1 125.1,22.2 125.7,22.4 129.8,22.1 131.0,21.5 131.9,20.8 133.4,19.4 133.8,18.5 135.6,3.7 135.5,1.5 138.4,2.1 138.9,1.8 141.3,0.0 153.5,2.3 157.7,0.6 158.9,0.8 160.7,1.1 163.7,0.4 170.8,1.2 171.7,1.4 173.1,2.5 182.4,9.9 183.7,20.8 186.9,28.9 187.1,29.5 187.0,30.2 186.5,32.1 186.2,32.7 185.6,33.2 185.3,33.7 185.2,36.7 186.8,40.5 189.9,45.7 190.0,46.4 188.9,49.4 188.8,50.1 188.7,51.9 189.0,52.8 189.4,54.1 188.4,57.1 186.7,61.4 186.4,61.9 185.5,63.0 184.5,63.7 183.9,64.3 183.6,64.9 182.2,68.3 182.3,69.0 183.4,67.9 184.6,66.6 186.1,65.2 191.6,65.0 192.8,65.4 197.0,67.8 199.0,69.8 205.5,76.5 205.7,77.1 205.0,78.8 205.8,78.3 209.2,77.0 213.1,75.6 216.7,75.4 220.6,74.7 221.0,73.9 221.4,72.2 223.8,66.4 224.4,65.8 228.9,60.0 228.8,57.4 228.1,57.0 228.0,56.4 228.8,52.3 229.0,51.7 230.9,49.9 231.8,49.0 237.0,49.2 238.3,49.2 238.2,51.2 237.9,52.6 238.0,53.4 239.1,54.3 242.2,56.4 243.2,57.0 245.1,58.6 246.5,60.9 246.9,62.6 246.9,63.4 246.8,64.1 246.8,65.5 247.2,68.1 247.9,71.8 250.4,76.9 252.0,78.5 254.1,79.9 254.0,89.3 252.9,99.1 251.8,102.1 251.0,103.6 249.9,105.8 249.3,106.8 248.7,107.8 246.3,110.7 245.3,111.5 244.8,111.1 244.2,111.8 244.1,112.5 243.0,112.7 242.4,113.3 242.4,113.9 241.7,113.9 241.1,113.8 241.0,114.4 241.1,115.0 240.5,115.1 239.9,114.4 239.4,114.5 239.5,115.6 239.4,116.7 238.6,117.1 237.6,116.9 237.1,117.2 237.6,117.7 237.3,118.3 237.1,118.9 236.5,119.1 235.4,118.9 235.2,119.6 235.0,120.2 238.4,121.0 239.0,121.3 242.9,124.5 248.9,129.0 261.2,134.2 262.8,134.1 264.1,134.0 267.4,133.1 271.4,132.6 277.5,135.0 278.8,136.0 281.6,138.1 284.0,146.4 284.7,149.5 284.5,150.1 284.2,151.7 284.5,152.2 285.7,153.6 288.9,155.8 289.9,156.3 290.6,156.3 290.7,155.6 292.1,154.4 297.6,157.7 301.5,160.1 303.7,159.2 304.2,159.1 304.9,158.9 305.6,159.4 306.0,160.3 305.7,162.0 305.4,163.3 305.2,166.0 305.5,167.8 307.0,171.9 307.4,172.8 309.0,176.5 307.9,178.2 306.4,181.5 305.2,184.4 305.8,186.7 307.0,188.8 307.8,188.5 308.5,188.1 309.3,190.5 309.3,191.2 309.1,191.8 301.7,204.6 301.0,205.1 297.7,207.5 296.1,216.3 295.9,221.3 296.1,222.0 297.5,223.4 297.8,224.0 297.9,226.0 298.3,234.0 298.1,238.4 297.8,243.2 297.5,247.0 297.7,247.7 298.3,248.3 299.9,249.4 299.1,249.6 295.3,250.0 289.0,249.3 288.3,249.1 284.8,247.3 282.4,245.2 280.7,243.4 278.2,242.1 275.1,240.7 274.5,240.5 273.9,240.3 266.3,238.1 260.8,236.9 260.0,236.9 257.2,236.5 256.3,236.1 251.1,232.0 239.1,225.6 233.4,222.8 231.1,221.9 228.9,221.6 227.9,220.7 220.3,215.8 218.9,215.1 210.0,211.0 209.2,210.7 207.9,210.3 202.9,207.3 197.1,203.3 190.3,198.0 187.0,195.3 186.2,194.4 185.4,193.5 183.9,191.8 182.7,190.5 178.7,185.5 176.0,182.0 167.5,176.2 165.0,174.5 164.4,174.0 149.0,159.6 148.5,158.8 145.8,155.0 137.5,147.8 136.6,147.0 135.8,146.6 135.2,146.3 132.6,145.7 131.1,145.2 129.6,144.2 129.4,143.5 129.5,141.5 128.9,140.6 125.0,138.5 124.3,138.4 123.6,138.5 124.4,140.4 115.5,138.1 113.2,137.6 112.1,137.3 110.0,136.6 105.7,134.4 103.1,132.5 102.8,131.7 103.9,128.1 103.1,126.5 " />
  </g>
</svg>