<?xml version="1.0" encoding="UTF-8" standalone="yes"?>
<!DOCTYPE svg PUBLIC "-//W3C//DTD SVG 1.0//EN" "http://www.w3.org/TR/2001/REC-SVG-20010904/DTD/svg10.dtd">
<svg height="250" width="370" xmlns="http://www.w3.org/2000/svg" xmlns:svg="http://www.w3.org/2000/svg" xmlns:xlink="http://www.w3.org/1999/xlink">


<g id="background">
<rect id="" width="370" height="250" fill="#222222"/>
</g>
  <g id="434" style="stroke-miterlimit: 3; fill: #F1F1F1; stroke: #000000; stroke-opacity: 1; stroke-width: 0.05; stroke-linejoin: bevel; stroke-linecap: square">
    <polygon id="Libya" points="52.8,98.8 53.0,98.2 51.9,95.7 50.8,93.1 50.6,92.6 50.0,91.1 49.9,90.6 50.0,89.6 50.3,88.1 50.8,85.1 50.9,84.0 51.2,82.6 51.3,81.5 51.4,80.8 51.4,80.2 51.3,78.2 51.3,77.4 51.1,76.1 50.9,75.1 50.8,74.3 50.6,73.6 49.5,69.4 48.7,67.7 47.9,66.1 47.5,65.4 47.1,64.6 46.0,62.8 45.5,62.1 43.7,59.6 43.0,58.9 42.5,58.2 41.8,57.6 41.2,57.1 42.4,56.0 44.8,54.9 47.1,53.9 48.9,53.2 50.6,52.7 51.4,52.7 51.9,52.4 53.4,50.5 55.3,48.2 57.6,45.7 58.8,43.1 59.0,42.4 58.6,39.3 57.8,37.2 56.8,34.9 56.0,33.0 56.2,31.8 59.0,28.0 59.6,27.5 60.3,27.3 61.0,27.4 61.5,27.5 62.0,27.5 62.7,27.3 63.4,26.8 64.9,25.0 66.5,23.1 68.5,22.0 69.4,20.7 69.8,20.0 72.5,18.8 74.7,17.9 75.3,17.6 78.0,16.6 79.6,16.0 80.9,15.3 81.4,14.9 82.0,14.6 82.6,13.9 82.7,13.3 82.3,12.6 81.8,12.0 81.1,11.5 80.6,10.9 80.6,10.4 80.7,6.6 80.9,5.2 81.0,3.5 81.2,2.8 81.5,2.1 81.6,1.4 83.0,1.9 83.6,2.2 85.6,2.6 86.4,2.7 88.0,2.9 88.6,3.2 90.2,4.1 90.8,4.4 91.7,5.0 93.5,5.9 95.3,6.9 96.0,7.1 96.6,7.3 99.8,7.7 100.5,7.8 103.9,7.9 104.4,7.8 105.2,7.8 105.9,7.7 106.8,7.5 108.6,7.0 110.3,6.5 111.0,6.2 111.6,5.7 112.4,5.6 113.0,5.6 114.7,5.9 115.4,6.1 117.1,6.9 118.1,7.4 119.1,7.8 119.7,8.0 120.3,8.0 121.8,7.9 122.4,7.8 122.9,7.8 124.9,8.2 125.6,8.4 126.1,8.7 126.7,8.9 127.6,9.1 128.3,9.2 129.6,9.3 130.5,9.5 132.5,10.8 134.4,12.1 134.9,12.7 135.7,13.0 136.8,13.2 138.2,13.4 138.8,13.6 140.1,14.2 141.3,14.3 144.0,14.4 147.5,14.9 148.2,15.1 148.7,15.4 150.1,16.5 151.9,19.4 151.7,21.7 151.6,22.5 151.7,23.0 152.0,24.1 152.4,25.0 154.0,28.6 156.4,31.6 157.6,32.7 158.8,33.5 161.0,34.5 161.5,34.8 162.9,35.3 164.9,35.9 165.6,36.0 166.8,36.3 167.6,36.4 168.2,36.5 172.6,36.7 173.8,36.7 174.4,36.6 175.4,36.5 176.3,36.5 177.3,36.7 180.3,37.3 181.6,37.7 182.1,37.9 182.6,38.1 183.8,38.4 186.7,39.0 188.4,39.2 189.0,39.4 189.6,39.8 190.2,40.2 190.9,40.4 192.2,40.6 192.8,40.8 196.5,42.1 197.9,43.0 198.5,43.4 201.1,44.1 203.1,44.6 203.9,45.0 204.5,45.6 205.5,46.7 206.6,47.5 210.9,50.5 213.1,51.7 214.4,52.3 216.6,53.5 217.4,53.9 218.3,54.1 221.3,54.2 222.3,54.1 224.1,53.7 224.6,53.6 229.6,51.4 231.9,49.8 234.2,47.4 237.0,44.3 237.6,43.5 238.6,41.7 238.9,41.1 239.1,40.6 239.3,39.7 239.4,39.1 239.4,38.0 239.3,37.3 238.5,35.3 238.0,34.5 237.4,34.2 236.9,33.4 236.3,31.9 236.0,31.3 235.8,30.4 235.2,27.8 235.1,27.2 235.2,25.6 235.5,23.2 236.8,21.0 237.6,19.7 238.1,19.0 242.7,14.9 246.7,12.3 249.5,11.2 252.5,9.9 253.2,9.5 253.9,9.1 256.0,8.3 257.1,8.2 258.1,8.3 259.1,8.3 260.1,8.3 260.8,8.3 261.7,8.2 262.7,7.8 263.4,7.6 264.0,7.2 264.6,6.6 266.2,5.3 267.9,5.1 268.5,5.4 269.1,5.6 270.4,5.9 271.0,5.9 272.2,5.9 272.8,5.8 274.4,5.8 276.8,6.2 279.0,6.3 279.7,6.4 280.9,7.1 282.5,8.1 283.2,8.1 283.8,8.1 287.9,9.1 288.4,9.4 289.0,9.7 289.7,10.0 290.3,10.1 291.2,10.1 293.5,10.8 293.5,11.5 292.9,16.2 293.8,16.7 294.5,16.9 295.2,17.3 296.0,18.5 296.6,18.6 299.7,19.0 300.4,19.1 301.8,19.1 303.0,19.1 304.4,19.2 306.1,19.6 308.7,20.3 309.5,20.6 309.1,21.2 310.9,22.2 311.5,22.4 319.7,22.7 320.9,22.4 321.5,22.0 323.0,21.9 324.0,22.3 325.1,22.6 326.4,22.8 327.5,23.0 328.2,23.3 328.7,23.8 328.5,24.4 328.4,25.1 329.3,26.2 330.2,27.3 330.7,28.2 330.8,28.9 329.9,29.5 329.4,29.9 329.1,30.4 328.9,31.1 328.2,31.9 327.3,32.6 326.1,33.3 325.6,33.8 325.6,37.7 326.3,40.1 327.5,42.8 327.9,43.6 328.3,44.3 328.3,44.8 327.6,47.4 326.8,49.4 326.5,50.0 325.8,51.2 325.2,51.8 324.7,52.3 323.8,53.4 323.0,54.7 322.7,55.5 322.7,56.2 323.0,56.8 323.8,58.4 324.5,59.9 324.7,60.5 324.9,61.1 325.0,61.7 324.8,62.3 325.9,66.6 325.8,67.7 325.9,68.3 326.1,68.8 326.4,69.4 328.0,72.7 328.0,78.1 328.0,90.5 328.1,93.3 328.0,95.6 328.1,97.4 328.0,99.9 328.0,101.7 328.0,102.7 328.0,106.0 328.0,112.4 328.0,113.9 328.0,114.9 328.0,119.0 328.0,121.8 328.0,123.3 328.0,132.7 328.0,142.3 328.0,150.5 328.0,154.3 328.0,162.4 328.0,168.3 328.0,176.4 328.0,200.0 328.0,204.4 328.0,205.3 328.0,223.4 328.0,241.9 323.7,241.8 321.3,241.8 320.3,241.9 318.1,241.9 312.5,241.8 310.5,241.8 309.9,241.8 309.7,243.6 309.7,250.6 299.8,245.7 291.8,241.5 279.0,234.9 269.2,229.8 261.9,226.2 254.1,222.2 244.0,217.2 234.3,212.4 223.7,207.2 218.3,204.6 214.1,202.5 206.7,199.0 200.7,196.1 194.3,193.1 193.7,192.8 181.4,187.0 169.8,181.6 163.5,178.7 151.3,184.2 147.6,185.8 145.1,187.0 144.4,187.3 142.7,188.2 141.8,188.6 135.9,191.6 134.5,192.3 133.4,192.9 131.2,194.0 125.2,189.1 119.8,184.7 118.9,184.1 117.2,183.4 116.2,183.1 114.9,182.8 110.6,181.8 106.5,180.9 101.1,179.8 98.9,179.3 97.6,179.0 96.5,178.8 95.4,178.6 90.5,177.6 88.8,175.1 85.9,169.8 85.3,168.7 82.2,163.2 80.6,162.7 80.0,162.5 78.4,162.1 77.0,161.7 74.0,160.8 72.2,160.3 71.5,160.1 69.0,159.2 67.6,158.6 66.8,158.3 65.9,158.6 64.3,159.3 62.5,160.0 61.4,160.0 59.3,158.3 58.3,157.6 58.1,156.6 57.9,155.9 57.7,155.0 56.9,154.5 56.2,154.1 54.7,153.4 54.7,152.8 54.6,151.6 54.6,150.3 54.6,148.8 54.4,145.3 54.4,144.5 53.8,143.7 51.1,140.2 49.9,138.6 44.2,131.2 43.4,130.2 42.7,129.3 42.6,128.8 43.5,127.2 44.6,125.6 47.7,124.3 49.4,123.6 51.4,122.7 51.9,121.0 52.2,119.8 52.1,117.9 52.5,116.4 51.9,116.1 51.0,115.5 50.6,113.7 50.4,112.8 50.1,112.1 49.1,109.3 48.9,108.1 49.6,105.8 50.4,104.0 51.3,102.8 51.7,102.0 52.8,98.8 " />
  </g>
</svg>