<?xml version="1.0" encoding="UTF-8" standalone="yes"?>
<!DOCTYPE svg PUBLIC "-//W3C//DTD SVG 1.0//EN" "http://www.w3.org/TR/2001/REC-SVG-20010904/DTD/svg10.dtd">
<svg height="250" width="370" xmlns="http://www.w3.org/2000/svg" xmlns:svg="http://www.w3.org/2000/svg" xmlns:xlink="http://www.w3.org/1999/xlink">


<g id="background">
<rect id="" width="370" height="250" fill="#222222"/>
</g>
  <g id="438" style="stroke-miterlimit: 3; fill: #F1F1F1; stroke: #000000; stroke-opacity: 1; stroke-width: 0.05; stroke-linejoin: bevel; stroke-linecap: square">
    <polygon id="Liechtenstein" points="159.9,0.0 197.7,35.3 262.6,142.8 275.4,165.8 278.0,196.9 276.7,206.8 267.7,216.7 248.2,235.2 240.5,240.4 234.8,242.7 172.7,235.6 165.0,235.6 128.6,241.6 104.3,245.8 92.0,250.0 133.0,209.6 135.6,200.7 135.9,190.1 134.3,176.1 127.6,154.9 119.6,139.3 109.4,125.5 103.3,109.2 103.0,94.8 104.9,85.5 111.3,68.3 123.8,49.7 159.9,0.0 " />
  </g>
</svg>