<?xml version="1.0" encoding="UTF-8" standalone="yes"?>
<!DOCTYPE svg PUBLIC "-//W3C//DTD SVG 1.0//EN" "http://www.w3.org/TR/2001/REC-SVG-20010904/DTD/svg10.dtd">
<svg height="250" width="370" xmlns="http://www.w3.org/2000/svg" xmlns:svg="http://www.w3.org/2000/svg" xmlns:xlink="http://www.w3.org/1999/xlink">


<g id="background">
<rect id="" width="370" height="250" fill="#222222"/>
</g>
  <g id="440" style="stroke-miterlimit: 3; fill: #F1F1F1; stroke: #000000; stroke-opacity: 1; stroke-width: 0.05; stroke-linejoin: bevel; stroke-linecap: square">
    <polygon id="Lithuania" points="255.4,54.4 260.0,59.2 260.5,59.8 261.5,60.4 262.1,60.6 263.9,61.1 264.6,61.3 265.5,61.4 267.0,61.5 272.0,61.7 276.1,62.4 282.5,62.6 292.1,63.5 299.3,65.8 299.8,66.9 300.4,67.4 311.5,73.1 314.1,74.3 314.8,74.5 318.2,75.6 319.3,75.9 322.1,76.9 330.4,81.4 331.1,81.8 331.7,82.4 332.4,83.1 333.4,84.4 334.6,86.6 335.0,87.2 335.7,87.9 338.1,89.4 339.7,90.3 341.0,90.7 342.0,91.0 349.8,92.8 350.6,92.9 351.8,93.1 354.6,93.4 355.6,93.5 357.0,93.5 357.5,94.3 357.7,95.5 358.0,97.9 357.8,98.7 351.5,107.9 347.2,114.0 347.1,114.5 348.2,115.0 350.2,115.6 351.7,116.0 353.3,116.3 354.1,116.2 357.4,115.3 358.1,115.1 359.1,115.2 366.7,116.2 367.7,116.5 368.8,117.0 369.5,117.5 370.0,118.0 369.6,118.7 368.7,119.3 367.2,120.2 358.8,124.0 351.2,126.7 350.0,126.4 348.7,126.2 336.3,126.7 335.8,127.0 334.7,127.8 334.1,129.0 334.2,130.3 334.1,130.8 334.0,131.5 332.2,134.1 331.6,134.6 328.5,137.4 323.2,138.4 314.8,138.8 314.0,138.8 312.8,138.9 310.7,139.6 305.5,143.8 302.0,149.0 301.8,149.5 301.2,155.9 301.2,157.0 301.5,157.7 302.6,159.5 303.1,160.1 303.5,160.9 303.6,161.6 303.5,162.5 303.0,163.1 301.5,164.2 300.7,164.6 297.4,165.5 296.9,165.8 296.3,166.4 290.5,175.9 290.1,176.8 289.9,178.0 290.1,178.7 291.2,179.2 292.1,179.3 293.9,179.3 295.8,179.2 296.9,179.0 298.0,178.8 298.9,178.5 299.6,178.0 300.2,177.9 306.1,183.2 305.4,187.9 305.2,188.4 304.0,189.2 298.3,190.3 297.6,190.4 290.2,189.9 289.4,189.8 287.2,187.4 289.5,186.5 291.7,184.1 291.0,183.1 287.1,179.9 285.5,179.6 284.8,179.7 283.9,180.1 283.0,180.8 282.1,181.7 281.0,182.5 280.1,182.8 278.9,182.9 277.2,183.0 268.5,185.0 268.1,185.7 266.7,187.2 265.6,188.1 261.8,189.9 260.6,190.3 260.0,190.5 258.1,190.8 257.4,190.8 256.1,190.3 255.5,189.8 254.6,189.2 253.9,189.0 252.6,189.0 246.8,189.7 246.0,189.8 245.4,190.0 242.8,192.1 242.9,193.2 243.5,194.0 244.3,194.9 244.8,195.5 245.3,196.3 245.4,197.8 245.3,198.7 244.7,199.8 244.2,200.4 238.7,200.9 237.9,200.9 237.3,200.6 236.8,199.5 236.3,199.0 235.6,198.8 231.0,199.4 225.4,201.8 224.3,202.3 222.2,203.7 221.6,204.0 218.1,205.6 217.2,205.9 216.5,206.0 210.0,205.3 209.4,205.0 208.8,204.2 208.8,203.7 208.4,203.1 207.9,202.5 206.6,201.6 205.7,201.3 204.9,201.1 203.5,201.0 202.3,201.1 201.5,201.2 201.0,201.5 200.3,201.9 199.4,202.6 198.8,202.8 198.1,202.9 197.2,202.9 193.5,202.9 191.6,202.8 186.1,202.7 178.9,203.0 174.2,203.7 167.2,203.4 166.6,203.2 165.3,202.8 163.7,202.5 162.0,202.3 161.2,202.3 161.5,201.4 162.1,197.0 162.1,196.0 160.6,191.6 160.0,190.2 158.4,188.1 152.3,184.3 151.6,183.9 150.5,183.4 142.4,180.9 136.8,179.8 129.7,175.0 129.1,174.5 121.3,173.3 120.5,173.2 119.7,173.3 118.6,173.6 117.8,173.9 116.0,176.0 115.4,175.2 113.2,172.5 112.6,172.0 111.5,171.3 111.1,170.7 110.3,169.2 110.1,167.9 110.2,166.0 110.4,165.2 111.8,155.4 113.5,153.8 117.5,150.5 118.1,150.2 118.9,150.2 119.6,150.0 120.8,148.6 121.2,147.9 121.3,147.1 121.0,146.2 120.3,143.8 120.0,143.1 119.6,142.5 112.7,138.4 111.9,138.3 110.7,138.5 109.5,138.6 108.1,138.6 107.4,138.4 106.8,137.9 104.6,133.3 98.8,132.0 84.2,131.8 82.8,131.8 79.0,132.1 78.2,132.2 75.8,132.5 75.1,132.7 74.4,133.5 73.4,134.1 72.7,134.2 71.4,134.3 70.5,134.3 69.7,134.1 49.7,127.6 49.1,127.4 48.6,126.8 44.8,124.7 43.9,124.4 39.1,123.6 30.8,120.1 28.1,118.2 27.6,117.9 26.8,117.8 24.2,119.0 22.5,119.7 21.3,120.1 20.5,120.3 20.5,119.6 20.4,118.6 21.8,118.2 21.8,117.6 21.0,115.7 19.6,114.9 19.7,113.0 18.6,112.9 15.9,114.5 15.2,114.5 15.4,113.7 18.8,109.7 19.2,108.5 19.2,106.8 16.0,99.8 12.7,93.4 10.9,91.3 9.7,90.5 8.6,90.0 7.3,86.8 6.4,80.4 6.3,79.1 6.3,78.3 6.6,77.6 7.2,76.5 7.5,75.7 7.8,74.4 7.8,73.6 7.4,69.9 7.2,69.1 6.9,68.2 9.2,67.7 10.5,67.6 11.4,67.5 12.8,67.5 16.0,67.8 16.8,67.6 17.3,67.4 18.0,66.3 18.3,65.3 18.4,64.2 18.7,62.8 19.9,61.8 25.4,58.2 25.9,57.9 27.3,57.9 27.8,57.9 29.3,58.0 30.2,57.9 31.8,57.4 39.3,54.4 49.9,52.7 60.6,49.8 69.0,47.0 69.6,46.8 70.8,46.6 75.3,46.4 76.3,46.3 86.0,47.6 96.9,47.4 97.9,47.4 99.2,47.6 101.4,47.9 103.5,48.2 105.1,48.5 105.8,48.7 106.6,49.1 107.7,49.9 108.8,50.5 110.1,50.6 118.6,49.2 119.3,49.0 119.8,48.7 120.7,48.0 122.4,47.2 124.3,46.6 125.0,46.4 125.8,46.3 126.7,46.7 128.7,47.9 129.5,48.9 130.0,50.0 130.3,50.6 131.5,52.0 132.9,52.9 133.8,53.3 135.6,53.8 136.1,53.8 137.7,53.3 138.8,52.7 140.9,51.3 140.3,50.9 140.3,50.2 141.0,50.1 148.2,49.1 149.7,49.1 150.4,49.3 152.1,49.8 152.7,50.1 157.3,51.3 158.1,51.4 162.6,52.0 164.0,52.0 164.7,51.8 165.3,51.5 166.0,51.1 167.1,50.2 167.8,50.1 175.2,50.3 176.2,50.4 184.5,51.5 189.3,52.1 191.9,52.7 193.0,53.0 196.6,55.1 197.2,55.3 201.0,56.4 201.8,56.6 202.8,56.6 203.5,56.5 209.2,54.8 212.6,53.6 213.4,53.5 214.2,53.6 215.4,54.0 216.3,54.4 217.9,55.3 218.8,55.7 219.5,55.9 220.8,56.1 222.3,56.1 227.6,54.9 229.1,53.4 230.4,52.3 233.6,50.0 247.8,44.8 248.6,44.7 249.1,44.7 250.1,45.0 251.8,47.4 252.7,49.0 253.6,50.8 254.3,52.3 255.0,53.8 255.4,54.4 " />
    <polygon id="Lithuania" points="6.4,115.4 2.6,118.6 0.0,117.9 2.5,115.2 3.8,113.8 6.1,110.8 6.4,110.1 6.7,109.4 7.7,107.6 8.8,104.5 9.2,103.6 9.4,102.6 9.5,101.4 9.6,98.6 9.7,94.1 9.6,93.3 9.4,91.7 9.2,90.8 9.7,91.0 10.5,91.7 11.3,92.7 11.6,93.3 12.1,96.4 11.7,99.8 10.1,109.5 6.7,115.0 " />
  </g>
</svg>