<?xml version="1.0" encoding="UTF-8" standalone="yes"?>
<!DOCTYPE svg PUBLIC "-//W3C//DTD SVG 1.0//EN" "http://www.w3.org/TR/2001/REC-SVG-20010904/DTD/svg10.dtd">
<svg height="250" width="370" xmlns="http://www.w3.org/2000/svg" xmlns:svg="http://www.w3.org/2000/svg" xmlns:xlink="http://www.w3.org/1999/xlink">


<g id="background">
<rect id="" width="370" height="250" fill="#222222"/>
</g>
  <g id="442" style="stroke-miterlimit: 3; fill: #F1F1F1; stroke: #000000; stroke-opacity: 1; stroke-width: 0.05; stroke-linejoin: bevel; stroke-linecap: square">
    <polygon id="Luxembourg" points="150.4,0.3 151.2,5.5 152.1,7.3 153.0,7.9 182.3,17.1 187.2,18.5 185.8,20.5 185.1,22.4 181.8,31.1 179.9,42.0 180.1,43.1 185.9,57.3 189.3,64.2 200.4,78.4 201.2,79.1 221.2,97.0 226.7,101.5 228.4,102.8 249.1,111.4 250.8,113.7 276.2,124.1 287.8,127.2 305.6,126.4 319.4,126.4 320.1,127.3 320.2,128.3 313.8,162.0 306.6,165.6 302.6,166.4 300.2,167.3 284.8,175.9 262.9,223.6 265.0,236.1 264.8,246.2 253.3,242.9 244.6,240.3 225.7,230.4 223.1,229.7 219.7,229.6 197.8,230.8 194.6,231.1 183.8,235.9 183.4,236.8 183.2,239.0 182.3,242.0 181.7,242.7 173.6,248.0 172.3,248.4 135.1,250.0 133.9,249.9 92.2,232.0 86.5,227.6 77.3,220.0 76.7,219.2 76.0,217.1 85.0,215.6 86.2,215.3 94.8,208.0 107.5,184.5 107.1,176.9 99.3,160.9 97.0,157.6 70.0,136.7 61.4,133.6 56.6,133.2 55.6,132.7 55.2,131.8 51.0,118.3 55.5,93.6 63.4,78.5 64.7,77.0 65.7,76.5 70.4,74.8 85.1,66.5 101.6,35.8 101.6,34.6 102.9,28.4 103.8,26.6 104.6,25.9 131.1,4.6 133.4,3.7 146.2,0.3 148.9,0.0 150.4,0.3 " />
  </g>
</svg>