<?xml version="1.0" encoding="UTF-8" standalone="yes"?>
<!DOCTYPE svg PUBLIC "-//W3C//DTD SVG 1.0//EN" "http://www.w3.org/TR/2001/REC-SVG-20010904/DTD/svg10.dtd">
<svg height="250" width="370" xmlns="http://www.w3.org/2000/svg" xmlns:svg="http://www.w3.org/2000/svg" xmlns:xlink="http://www.w3.org/1999/xlink">


<g id="background">
<rect id="" width="370" height="250" fill="#222222"/>
</g>
  <g id="450" style="stroke-miterlimit: 3; fill: #F1F1F1; stroke: #000000; stroke-opacity: 1; stroke-width: 0.05; stroke-linejoin: bevel; stroke-linecap: square">
    <polygon id="Madagascar" points="231.1,2.7 231.4,4.4 230.8,4.0 229.4,3.6 229.0,4.2 228.9,5.1 229.5,6.1 230.6,6.5 231.1,6.5 231.3,5.8 232.5,6.2 234.1,7.3 234.6,8.0 235.4,9.9 235.5,10.5 235.1,11.4 235.1,12.0 234.9,12.6 235.4,12.9 236.6,13.9 239.2,16.0 241.0,18.4 241.9,20.0 242.0,20.7 241.8,21.5 241.7,22.6 241.9,23.4 242.6,25.7 243.4,27.6 243.6,28.2 243.6,28.7 244.2,29.2 244.8,30.8 245.5,33.3 245.7,34.4 245.7,34.9 245.6,35.7 245.6,37.4 246.1,38.6 246.1,39.6 245.9,41.3 245.9,41.9 246.5,42.4 246.9,43.0 246.9,43.9 246.7,44.5 246.5,45.3 246.4,45.9 246.6,48.1 247.3,50.7 247.9,52.8 248.4,54.2 249.1,55.9 250.3,57.8 250.9,58.6 251.8,59.7 252.0,60.5 252.1,61.6 251.8,63.4 250.9,66.6 248.9,71.0 248.4,72.0 247.3,73.7 246.1,73.9 245.5,73.0 244.8,72.9 243.6,71.9 243.4,70.8 242.2,68.5 241.2,66.3 241.1,64.6 240.5,63.9 239.7,63.9 238.4,64.0 237.8,64.2 237.0,64.9 236.4,65.8 236.2,66.4 236.7,68.5 237.0,69.3 238.1,72.5 237.8,73.3 237.2,74.5 237.1,75.0 237.4,76.1 237.6,76.6 238.3,77.1 239.6,77.6 240.2,78.3 240.2,78.8 240.0,79.5 239.7,80.5 239.8,81.5 240.1,82.1 240.4,82.6 240.2,84.5 239.3,86.1 238.8,86.6 238.2,87.1 237.7,87.7 238.1,88.7 238.5,89.2 239.1,89.5 236.3,90.6 235.7,90.8 234.4,93.5 232.5,98.1 232.3,98.6 232.3,99.3 232.9,100.1 233.3,101.5 233.6,102.8 233.9,105.1 234.0,105.7 233.8,106.8 233.4,107.9 233.0,109.4 232.8,110.0 232.5,110.9 232.2,112.3 231.6,114.9 231.4,116.7 231.4,117.4 230.2,120.8 228.8,123.8 227.7,127.1 227.2,128.2 227.0,128.7 226.4,129.9 226.0,130.5 225.2,132.8 224.9,133.9 224.7,135.4 224.4,136.2 223.8,137.7 223.2,139.0 222.6,140.1 222.3,140.8 222.1,141.8 221.8,142.9 221.6,144.4 221.2,146.4 220.5,148.3 220.2,149.3 219.5,150.7 219.0,151.7 218.3,153.1 217.9,153.8 217.6,154.7 217.4,155.2 217.0,156.6 216.2,159.4 215.8,160.4 214.9,164.3 214.6,165.7 213.1,171.3 211.9,174.7 210.3,179.6 208.9,182.8 208.5,183.5 207.2,186.3 206.6,187.7 206.3,188.3 204.8,192.2 204.6,192.7 204.3,193.7 203.8,196.5 203.5,198.6 203.4,199.4 203.3,200.1 202.8,202.0 202.7,202.5 201.9,205.1 201.0,208.8 199.5,212.9 199.3,214.0 199.2,214.7 198.7,217.1 198.5,217.9 198.3,218.6 197.1,221.2 195.8,223.2 195.4,224.2 194.2,226.5 193.8,228.5 193.7,229.3 193.5,230.1 193.1,231.1 191.6,234.5 190.7,235.8 190.4,236.3 190.3,236.8 190.4,237.4 190.4,237.9 189.7,238.7 186.2,240.5 183.0,242.3 181.5,242.7 180.3,242.6 179.6,242.4 178.9,242.2 177.2,242.2 175.8,242.4 175.0,242.6 174.4,242.8 173.2,243.2 169.0,244.9 168.2,245.2 165.9,246.6 164.9,247.2 164.1,247.8 163.6,248.3 161.8,249.3 161.0,249.6 160.2,249.8 155.2,250.0 153.7,249.4 153.1,248.8 149.7,246.6 147.8,245.4 147.1,245.0 146.0,244.8 143.8,244.6 142.6,244.5 141.1,244.2 139.5,243.9 138.4,242.3 139.1,242.5 139.7,243.2 140.3,243.4 140.4,242.8 139.2,242.0 136.4,240.5 135.7,240.2 135.2,240.4 133.6,239.3 133.3,238.8 133.4,238.2 133.2,237.4 132.9,236.7 132.4,236.1 131.6,234.8 131.4,234.1 131.7,233.5 131.6,232.6 131.3,231.9 130.0,230.2 129.3,229.6 128.7,229.4 128.1,228.9 127.3,227.9 127.0,227.0 126.8,224.4 126.8,221.7 126.8,218.5 126.6,217.8 126.1,216.5 126.3,214.6 126.5,214.1 127.6,213.6 128.1,213.4 128.6,211.2 128.3,210.7 127.3,209.8 126.5,209.2 125.9,208.3 125.8,207.7 125.6,205.7 125.6,204.9 125.6,204.4 125.3,203.8 124.2,203.0 123.7,202.7 121.9,200.7 121.4,200.0 121.1,198.9 120.5,196.3 119.9,193.4 119.0,189.4 119.4,188.2 119.3,187.2 119.0,185.5 119.8,182.6 120.4,182.1 120.7,181.4 120.8,180.2 122.4,178.2 123.0,178.1 123.3,176.9 123.2,174.6 123.4,173.2 123.8,172.0 124.6,171.4 125.3,171.1 126.0,171.0 126.8,170.9 127.5,170.9 128.0,171.1 128.7,170.9 129.4,170.2 130.1,168.8 130.4,167.4 130.7,166.1 130.8,164.9 131.1,163.7 131.4,163.2 132.1,162.0 132.8,161.2 133.4,161.2 134.4,159.5 134.8,158.6 136.2,155.7 137.9,153.0 139.2,150.5 139.6,150.0 140.1,149.5 140.8,149.0 141.8,147.2 141.8,146.5 141.7,145.4 141.1,144.8 140.5,144.7 140.1,144.2 139.8,143.6 141.0,139.5 141.7,139.2 141.8,138.5 141.6,137.3 141.0,136.2 139.4,133.9 138.2,132.4 137.8,131.8 137.2,130.8 137.2,128.8 137.8,126.6 137.7,126.0 137.4,125.1 137.2,124.5 136.6,123.2 136.0,121.8 135.1,120.4 134.5,119.6 134.0,119.0 133.6,118.5 133.8,117.2 133.8,115.4 133.8,114.6 133.7,114.0 133.6,113.4 133.4,112.9 133.2,112.0 133.1,110.6 133.0,110.0 133.1,109.4 133.2,108.7 133.5,108.1 133.5,107.6 133.6,106.8 132.9,105.3 132.4,104.8 131.9,104.2 131.6,103.6 131.6,103.1 131.7,102.0 131.8,101.4 132.0,100.9 132.3,100.3 133.7,98.4 135.5,95.9 136.3,94.4 136.9,93.3 138.0,91.2 139.3,88.9 139.8,88.5 140.9,87.2 141.5,83.6 141.5,83.1 141.0,82.2 140.5,81.5 140.3,81.0 140.3,80.5 141.0,78.2 141.4,77.7 141.9,77.5 143.5,77.7 144.2,77.7 147.7,78.0 149.0,78.1 151.3,76.9 151.9,76.5 152.5,76.0 153.0,75.2 153.7,74.4 155.3,73.4 156.0,73.0 156.7,75.3 156.6,76.0 157.3,76.3 158.6,75.5 158.8,74.9 158.2,74.4 158.1,73.9 161.8,73.4 162.2,74.1 161.9,74.7 162.4,75.3 163.1,72.6 164.4,70.5 166.1,70.9 167.2,70.4 168.0,70.1 168.9,70.3 168.8,71.3 170.8,71.9 171.0,70.8 170.7,70.3 170.2,70.8 169.7,70.9 170.1,70.2 170.9,69.5 171.5,69.2 172.4,68.9 173.3,68.9 173.9,69.1 174.1,69.9 174.0,70.7 174.2,71.5 174.3,72.1 174.8,73.1 175.2,73.6 175.7,73.9 178.4,73.7 177.8,72.2 177.2,71.6 176.7,71.3 175.9,70.2 175.2,69.1 175.3,68.5 175.7,67.8 176.0,67.3 178.1,65.2 180.2,64.1 182.6,62.7 184.9,60.9 185.8,60.2 187.0,59.6 187.5,59.8 189.4,62.1 189.0,62.7 188.2,63.3 187.3,65.2 187.2,65.9 188.7,65.0 189.7,64.8 190.3,64.1 191.3,64.4 192.1,64.2 192.3,63.5 191.6,63.3 190.0,61.6 189.5,60.7 189.1,60.1 189.0,59.4 189.4,58.7 189.9,58.2 192.0,55.9 193.6,54.4 193.5,53.7 193.3,53.1 193.8,52.5 194.2,51.9 195.1,51.0 196.3,49.8 197.1,50.7 197.2,52.8 197.0,53.4 196.6,53.9 196.0,54.6 195.5,55.4 195.5,57.6 196.0,58.0 196.8,57.5 198.3,55.1 199.2,53.4 199.4,52.8 199.7,52.1 200.6,50.5 202.8,48.7 205.7,49.0 206.2,49.8 206.2,50.6 206.1,51.2 206.1,51.7 206.7,51.0 206.6,49.4 205.2,48.2 204.6,48.1 203.1,48.5 201.8,48.7 201.2,47.9 200.8,45.8 200.8,45.1 201.0,44.2 202.2,42.4 203.1,41.9 204.0,42.3 205.0,42.3 205.1,41.8 205.3,41.1 205.2,40.1 204.5,39.5 205.3,39.4 206.0,39.9 206.6,40.3 206.3,41.2 206.1,41.9 205.8,42.9 205.8,43.5 206.3,43.6 207.2,40.5 207.2,39.6 207.0,38.9 206.4,38.7 205.3,37.9 206.0,37.6 206.7,37.0 205.7,36.3 204.9,36.0 204.5,35.4 204.2,34.5 204.0,33.8 204.3,31.3 204.4,30.6 204.9,30.1 205.5,30.2 206.6,30.0 207.2,29.4 206.7,28.9 207.4,28.8 209.1,30.3 209.3,31.5 209.5,32.4 209.6,33.1 210.7,34.1 211.5,34.1 212.2,33.7 212.8,30.4 212.4,29.7 214.1,28.9 215.5,28.8 215.5,27.5 216.1,27.1 218.1,27.4 218.8,27.4 219.5,27.1 220.8,26.1 221.1,24.6 221.2,23.3 221.2,22.8 221.4,21.5 221.8,20.7 222.1,20.1 222.7,18.9 223.6,17.3 223.9,16.1 222.8,13.3 222.4,11.5 221.4,10.3 220.6,9.5 219.9,9.2 220.1,8.4 221.9,8.6 222.3,9.2 222.7,9.8 223.5,10.0 223.9,8.6 224.0,7.6 225.8,6.1 226.4,6.1 227.4,5.6 228.1,4.0 228.1,3.3 227.0,2.9 227.5,2.0 228.7,0.6 229.3,0.0 230.1,0.3 230.5,1.1 231.0,2.1 231.1,2.7 " />
    <polygon id="Madagascar" points="235.7,12.5 " />
    <polygon id="Madagascar" points="212.6,27.0 210.4,26.8 209.9,26.0 209.8,25.2 209.9,24.3 211.2,23.0 211.7,22.9 212.2,23.0 212.9,26.5 " />
    <polygon id="Madagascar" points="192.0,64.0 " />
    <polygon id="Madagascar" points="239.9,94.3 239.6,93.5 240.4,91.0 242.2,88.2 243.1,87.6 242.1,90.4 241.8,90.9 241.3,91.9 239.9,94.3 " />
  </g>
</svg>