<?xml version="1.0" encoding="UTF-8" standalone="yes"?>
<!DOCTYPE svg PUBLIC "-//W3C//DTD SVG 1.0//EN" "http://www.w3.org/TR/2001/REC-SVG-20010904/DTD/svg10.dtd">
<svg height="250" width="370" xmlns="http://www.w3.org/2000/svg" xmlns:svg="http://www.w3.org/2000/svg" xmlns:xlink="http://www.w3.org/1999/xlink">


<g id="background">
<rect id="" width="370" height="250" fill="#222222"/>
</g>
  <g id="454" style="stroke-miterlimit: 3; fill: #F1F1F1; stroke: #000000; stroke-opacity: 1; stroke-width: 0.05; stroke-linejoin: bevel; stroke-linecap: square">
    <polygon id="Malawi" points="147.7,3.9 149.5,4.4 150.1,4.2 151.5,3.8 153.1,3.6 153.7,3.8 156.0,5.3 156.7,6.4 157.0,7.4 158.9,8.0 159.7,8.0 160.4,7.8 161.0,7.1 162.0,6.8 167.7,6.7 171.4,9.2 172.3,10.0 172.9,10.7 173.6,10.3 174.0,9.7 174.2,8.2 174.3,7.6 174.2,6.9 173.9,6.4 173.9,5.6 174.2,4.9 175.5,3.7 176.0,3.6 176.8,3.5 177.9,4.3 179.9,6.4 181.2,7.4 182.2,8.2 186.0,11.6 186.3,12.1 187.6,14.1 189.3,16.4 191.1,18.6 191.8,19.4 192.4,20.5 192.7,21.5 194.0,31.3 193.9,32.0 193.8,33.0 194.1,36.8 194.2,37.4 194.4,38.3 195.6,39.7 196.5,40.9 196.8,41.9 196.9,43.7 196.9,44.7 196.5,48.9 196.3,49.9 195.8,50.8 194.9,51.7 194.7,52.9 195.3,55.8 195.6,56.4 196.2,56.8 198.3,58.7 201.3,63.1 203.2,63.8 204.2,64.7 206.3,67.8 206.6,68.8 206.7,70.8 204.2,70.9 198.2,70.9 195.7,70.9 195.7,71.8 195.9,72.5 196.0,73.9 196.0,74.7 195.8,75.4 195.5,76.5 195.2,77.3 193.4,80.4 192.1,82.1 190.9,83.8 190.5,84.3 188.8,87.2 188.0,88.6 187.6,89.6 187.5,90.3 187.4,90.9 187.4,91.7 187.5,92.2 188.7,94.9 189.2,97.8 189.9,100.8 190.0,101.3 190.5,102.9 190.8,103.6 191.5,104.8 191.9,105.5 192.4,107.6 192.6,109.0 192.7,109.8 192.8,111.7 192.9,114.1 192.9,114.7 193.0,115.5 193.2,117.2 193.5,118.3 193.7,126.1 193.7,127.1 193.7,127.7 194.1,128.6 194.4,129.1 196.7,132.8 202.3,132.8 203.4,133.1 204.5,133.6 210.8,138.9 213.3,142.5 214.4,144.0 223.6,154.0 224.0,155.2 224.8,157.1 225.3,157.7 234.2,168.4 235.9,170.0 236.0,170.6 236.0,171.6 236.1,173.9 236.1,177.5 237.5,177.5 237.3,178.1 235.7,181.9 233.5,187.0 233.7,187.5 234.8,191.7 235.3,193.2 235.7,194.7 235.6,195.8 235.5,196.6 234.5,208.8 234.1,213.7 233.5,215.0 232.7,215.7 230.6,217.0 225.2,218.7 223.7,217.9 222.2,217.4 221.6,217.4 221.0,217.4 217.3,220.5 216.6,223.2 216.0,226.3 215.9,228.2 215.4,228.9 214.0,229.8 212.3,231.0 212.8,232.7 213.2,233.4 213.9,233.9 214.6,234.1 216.0,235.2 216.7,236.1 217.5,239.5 217.1,241.4 216.9,244.6 217.3,246.1 217.7,247.6 217.6,248.8 217.5,249.3 217.1,250.0 216.5,250.0 211.9,249.8 210.7,249.8 209.5,246.9 209.5,246.3 209.8,245.8 210.7,245.2 211.3,244.9 211.8,244.6 212.4,243.8 212.5,240.5 212.2,239.9 211.5,239.7 210.4,239.9 209.4,240.0 208.6,239.7 207.8,239.1 202.7,233.6 200.3,231.0 198.7,229.8 196.8,228.0 194.7,225.7 194.2,224.2 193.9,223.6 193.4,223.2 192.7,223.0 191.8,222.9 190.8,222.9 190.2,222.6 189.6,221.8 188.8,220.0 188.6,217.9 189.2,216.6 189.4,215.8 189.2,215.2 186.3,212.2 185.6,211.6 184.9,211.2 184.3,210.9 183.8,210.2 183.6,208.2 184.0,206.9 184.6,206.3 185.2,205.7 186.0,205.2 186.7,205.0 187.7,204.2 189.0,202.7 189.3,202.0 189.7,200.9 189.8,198.9 189.7,198.2 189.3,197.6 189.5,196.5 192.4,192.4 193.1,192.0 193.8,191.6 194.5,190.3 194.7,189.4 194.6,188.7 194.2,188.2 193.7,185.0 193.8,183.3 194.5,180.1 193.7,173.7 193.0,168.8 192.7,168.1 192.4,167.4 191.7,166.9 191.0,166.3 190.4,165.7 189.9,165.0 189.3,163.9 188.8,162.9 188.1,161.8 187.4,161.5 179.7,163.3 172.1,164.8 168.4,165.7 165.8,166.2 163.7,166.4 160.5,162.9 157.4,159.4 154.6,155.9 153.1,153.8 151.6,150.2 150.5,149.4 150.0,149.0 149.5,148.2 149.0,147.0 146.0,148.3 143.0,146.9 140.1,143.2 138.0,139.7 136.4,137.4 135.4,137.5 134.0,137.1 133.3,136.9 133.0,136.3 133.3,135.3 135.4,135.0 137.1,134.3 137.6,134.1 140.0,130.7 140.6,129.5 142.6,124.2 142.9,121.5 142.9,119.9 143.1,118.0 143.4,116.9 143.7,116.2 144.0,115.6 144.3,114.9 144.5,114.1 144.4,113.5 144.2,113.0 142.8,112.4 142.3,112.0 142.0,109.4 142.2,108.8 144.8,104.1 145.4,103.6 147.8,103.3 148.5,103.4 151.0,103.5 154.8,102.1 158.7,98.9 158.7,97.9 159.6,97.0 160.4,96.8 160.9,96.2 161.0,95.5 159.2,94.7 158.5,94.8 157.4,95.4 156.7,95.6 156.0,95.6 155.4,95.3 154.8,94.6 152.1,89.3 152.1,88.5 152.2,86.9 152.5,86.2 153.2,85.1 153.4,84.6 154.0,81.3 154.0,76.4 153.8,72.3 153.4,71.3 152.5,70.8 151.8,70.8 151.5,69.1 151.2,66.0 151.3,65.4 151.8,65.4 152.8,64.2 154.3,62.1 155.9,59.3 156.3,58.6 156.5,57.9 155.7,56.0 155.0,55.4 154.4,54.7 151.4,49.1 151.5,48.4 152.0,47.8 154.4,46.4 156.1,45.9 156.8,46.0 157.8,46.2 158.4,46.0 159.8,45.2 160.7,44.3 160.8,43.6 161.1,42.9 162.8,41.0 163.9,40.2 165.0,39.6 165.7,38.9 166.0,38.3 164.2,36.3 161.6,32.8 161.0,31.3 160.9,30.6 160.9,29.7 161.1,28.9 161.4,28.3 161.4,27.5 160.5,26.8 158.2,25.5 154.1,22.6 153.7,22.0 154.0,20.0 154.9,18.0 153.7,14.1 153.1,13.7 151.0,11.5 150.6,10.9 150.5,10.2 150.9,9.6 150.9,9.1 150.7,8.4 150.0,7.4 147.7,7.2 146.9,8.1 145.7,8.3 144.1,8.3 143.5,8.1 141.7,3.5 141.5,2.7 141.4,1.4 141.6,0.7 142.3,0.3 143.3,0.0 143.9,0.7 144.2,1.3 147.4,3.8 " />
    <polygon id="Malawi" points="195.6,85.8 195.0,85.0 195.5,84.7 195.9,85.4 " />
    <polygon id="Malawi" points="199.1,87.7 198.6,87.6 198.6,86.0 199.7,85.8 199.6,87.2 199.1,87.7 " />
  </g>
</svg>