<?xml version="1.0" encoding="UTF-8" standalone="yes"?>
<!DOCTYPE svg PUBLIC "-//W3C//DTD SVG 1.0//EN" "http://www.w3.org/TR/2001/REC-SVG-20010904/DTD/svg10.dtd">
<svg height="250" width="370" xmlns="http://www.w3.org/2000/svg" xmlns:svg="http://www.w3.org/2000/svg" xmlns:xlink="http://www.w3.org/1999/xlink">


<g id="background">
<rect id="" width="370" height="250" fill="#222222"/>
</g>
  <g id="458" style="stroke-miterlimit: 3; fill: #F1F1F1; stroke: #000000; stroke-opacity: 1; stroke-width: 0.05; stroke-linejoin: bevel; stroke-linecap: square">
    <polygon id="Malaysia" points="324.7,67.0 324.4,67.7 324.8,66.0 327.0,64.5 327.4,65.4 327.5,66.0 326.3,66.6 325.5,66.7 324.8,66.9 " />
    <polygon id="Malaysia" points="332.5,65.2 332.4,66.5 331.9,67.7 330.7,67.9 330.1,67.9 329.4,68.2 328.8,68.9 328.3,69.1 328.1,68.0 328.3,66.0 328.9,65.6 329.8,64.9 331.2,64.5 332.1,64.7 332.5,65.2 " />
    <polygon id="Malaysia" points="323.1,79.1 323.8,79.1 324.4,78.9 326.8,76.0 328.0,74.4 328.0,73.6 327.7,72.8 327.8,72.3 328.4,71.5 329.8,71.1 330.3,71.3 331.8,72.1 331.9,73.3 331.7,73.8 331.9,75.5 332.3,77.4 332.6,78.0 335.7,79.8 337.6,79.9 339.3,80.3 339.9,80.7 340.8,82.0 341.0,82.7 340.9,84.0 340.8,84.9 340.1,85.3 339.2,85.4 338.7,85.8 338.4,86.3 339.1,87.6 339.6,88.1 339.8,90.1 339.2,91.0 338.2,91.4 336.6,92.0 337.5,91.9 341.9,91.6 343.7,91.0 344.9,89.9 345.5,89.2 346.0,88.8 346.7,89.3 347.3,90.5 348.3,92.5 347.7,93.4 346.7,93.7 345.6,93.6 344.7,93.5 344.4,94.6 345.1,95.9 348.3,95.9 348.9,94.1 350.8,93.3 352.8,93.6 354.1,94.1 354.7,94.5 355.3,94.8 356.8,95.8 358.2,96.8 359.0,97.7 360.8,98.9 363.6,100.8 365.9,101.2 366.7,101.1 367.2,100.7 368.2,100.5 368.8,100.8 369.3,101.2 369.8,101.8 370.0,102.3 369.9,104.6 369.6,105.2 369.0,106.0 368.5,106.5 367.2,107.1 366.1,107.5 365.4,107.8 364.7,107.9 363.7,108.2 361.4,109.0 360.6,109.3 360.1,109.5 359.3,109.8 356.3,109.6 354.4,108.9 353.7,108.3 352.7,108.2 349.9,109.5 348.6,111.0 348.4,111.6 350.3,113.8 351.2,114.8 353.8,116.5 355.1,116.5 355.1,117.0 355.6,118.3 356.2,117.8 357.1,117.8 358.1,119.2 357.9,119.8 356.4,121.1 355.9,121.0 355.3,121.0 353.6,121.1 349.4,121.9 348.3,122.2 347.4,122.7 346.2,123.3 344.2,123.1 343.6,122.5 341.7,121.4 340.2,120.6 339.0,121.0 339.4,122.3 339.3,122.9 338.4,123.9 338.3,124.5 337.1,124.4 336.5,124.3 335.6,124.1 335.1,123.6 334.9,123.1 331.9,121.0 331.4,120.9 330.8,121.3 327.9,121.3 325.9,121.1 325.1,121.1 324.2,121.5 321.2,121.5 320.4,121.4 318.3,121.5 317.1,122.1 316.6,122.1 314.2,121.0 311.2,120.9 309.7,122.3 309.1,122.4 308.4,121.5 307.8,121.2 306.2,120.7 305.6,121.1 303.9,123.1 302.4,124.3 301.9,125.6 301.9,126.2 301.0,130.4 300.5,132.6 300.3,133.2 300.2,134.0 300.2,135.0 300.3,135.5 300.8,136.4 301.2,137.9 301.2,138.5 300.7,138.5 300.0,139.2 299.6,140.3 299.4,140.9 299.1,142.6 299.1,143.1 298.8,145.6 296.6,146.7 295.5,146.8 295.1,146.2 294.1,146.3 292.4,147.9 291.7,149.3 291.0,153.8 291.5,154.1 292.6,154.0 293.2,154.4 293.9,155.3 293.5,156.1 293.0,156.3 291.1,157.4 289.5,158.6 288.5,159.8 287.7,160.2 287.1,160.1 286.0,160.4 285.5,161.2 285.3,162.3 285.7,164.2 286.4,164.6 286.9,164.5 287.0,165.2 286.8,167.0 285.3,167.9 284.0,169.7 283.3,172.1 281.7,175.7 281.2,176.1 280.6,176.0 279.9,175.6 279.1,175.0 278.6,174.7 277.9,174.6 276.1,175.4 275.0,175.8 272.2,175.4 271.2,175.6 270.7,175.7 270.0,175.8 269.3,175.8 268.5,176.5 268.0,177.2 266.7,178.4 264.2,180.0 263.6,179.7 262.8,178.9 260.3,178.8 258.8,177.7 258.2,177.3 254.1,176.1 252.9,174.1 251.7,173.4 249.6,173.1 245.7,173.6 242.4,173.5 241.8,173.5 238.7,174.8 236.8,175.7 236.4,176.2 236.9,176.6 236.9,177.2 235.5,181.3 234.3,181.7 233.7,181.7 232.6,181.6 232.0,181.7 230.9,182.8 230.5,183.5 230.0,184.1 229.3,184.3 227.9,184.1 227.2,183.8 226.7,183.5 226.0,183.7 224.7,184.2 222.0,184.1 219.9,183.4 218.9,183.0 218.0,182.9 214.5,183.8 214.0,183.8 212.9,183.9 212.3,183.9 210.7,185.1 210.5,185.7 208.4,186.5 206.5,186.9 205.7,187.0 205.1,186.8 203.9,186.1 201.5,184.2 199.0,180.9 198.4,180.7 197.8,180.7 197.1,180.4 196.6,180.1 195.2,178.8 194.8,178.2 193.9,176.6 191.9,175.4 190.3,174.1 189.8,173.6 189.0,172.7 188.9,170.9 188.0,169.4 187.4,169.1 187.0,168.5 186.7,167.2 188.3,164.8 188.6,164.0 188.7,165.3 188.6,166.3 188.8,167.0 189.5,168.0 190.2,168.5 190.7,168.7 193.3,170.6 193.8,171.2 194.9,171.4 200.0,170.9 200.8,169.9 201.2,169.3 201.7,169.3 204.2,172.1 205.1,172.8 205.9,173.0 207.2,173.3 208.5,173.7 209.0,174.0 209.2,174.5 208.7,175.2 208.0,175.7 208.9,175.8 209.6,175.2 209.7,174.4 209.7,173.8 210.2,173.5 211.0,173.6 213.0,174.5 213.5,174.8 214.4,175.7 215.0,176.4 217.0,177.4 220.1,177.9 220.7,177.9 221.2,177.7 219.7,176.6 219.0,176.4 218.3,176.5 217.7,176.7 217.1,176.7 215.2,175.6 214.5,174.3 214.1,173.8 214.1,173.1 214.5,172.0 215.3,171.4 217.2,166.5 217.7,165.0 217.9,164.1 218.5,163.3 219.2,163.1 220.1,163.4 220.6,163.1 221.0,162.6 219.2,162.5 217.7,162.7 217.5,160.4 217.9,158.5 218.0,157.9 218.6,157.3 219.9,158.0 221.0,159.0 222.5,158.4 222.1,157.6 221.6,156.3 221.9,154.5 222.3,152.7 223.9,151.3 226.2,149.7 226.7,149.4 228.0,149.2 229.0,149.0 229.6,148.9 230.9,148.8 231.9,148.8 234.6,148.3 237.0,147.7 237.9,147.4 242.6,146.3 245.1,145.7 245.6,145.6 249.2,144.6 250.5,144.2 251.1,144.0 251.7,143.7 252.3,143.2 252.8,142.7 253.2,142.0 256.9,137.4 257.4,136.8 259.1,134.4 259.6,133.5 261.5,131.3 262.0,130.9 264.4,129.0 265.6,127.8 266.4,126.9 269.2,123.1 269.5,122.5 269.9,121.6 270.4,119.7 270.5,119.2 270.4,118.6 270.3,118.1 269.9,117.2 270.0,116.7 270.5,116.4 271.8,116.5 272.4,116.6 273.5,116.8 274.0,116.9 275.0,117.7 275.6,118.3 276.4,119.5 276.8,121.3 278.1,122.9 279.5,123.9 282.0,126.6 282.1,127.2 282.7,127.3 283.2,127.1 283.8,126.8 285.5,125.3 286.9,121.0 286.8,119.5 286.3,119.3 286.2,118.8 286.0,116.7 285.5,114.6 285.2,114.1 285.4,113.6 286.6,112.6 287.1,112.4 287.9,112.4 288.4,112.3 289.0,112.0 289.8,110.8 290.0,112.2 289.8,113.5 289.8,114.0 289.9,115.3 291.1,119.9 291.3,120.5 295.5,121.7 296.0,121.8 296.2,121.2 295.5,120.3 294.9,119.7 294.6,119.1 294.4,117.5 294.6,116.9 294.8,116.2 294.4,114.8 293.6,112.5 293.0,111.7 292.2,110.7 293.3,109.8 294.8,110.2 295.4,110.7 296.2,110.7 296.8,110.3 297.9,109.1 298.5,108.4 299.4,108.1 299.9,107.6 300.1,106.5 300.2,105.5 299.6,105.1 299.0,104.9 298.5,104.7 296.2,103.1 296.4,101.7 299.4,99.1 300.8,99.0 303.6,99.1 304.4,99.0 305.1,98.6 305.6,98.0 306.1,97.0 306.5,96.0 306.6,95.4 306.7,94.8 308.1,93.8 308.9,93.3 309.3,92.8 309.3,91.9 310.0,90.4 310.3,87.6 314.5,83.2 315.0,82.7 316.1,81.9 317.5,80.9 317.8,80.3 317.8,79.8 318.8,78.6 320.0,77.3 320.4,76.8 320.5,76.2 320.4,75.7 320.7,74.1 321.8,71.8 322.3,71.0 322.8,70.8 323.9,71.7 324.3,73.0 324.5,74.9 324.4,75.6 324.1,76.1 323.5,76.8 323.1,77.5 322.9,78.3 323.0,78.9 " />
    <polygon id="Malaysia" points="336.4,76.0 336.8,76.7 336.8,77.2 335.9,77.9 335.3,78.2 333.8,77.9 333.6,77.3 334.6,77.3 335.2,77.1 335.5,76.5 334.9,76.4 334.9,75.9 335.9,75.6 336.4,76.0 " />
    <polygon id="Malaysia" points="19.1,81.6 20.3,81.0 20.9,80.5 22.3,81.8 22.9,83.9 22.7,84.4 22.8,85.1 24.6,85.5 25.8,84.9 27.6,85.2 27.9,86.3 27.5,87.8 27.6,89.1 27.8,90.0 27.6,91.3 27.0,91.6 26.4,91.8 25.5,93.7 26.7,95.1 28.1,96.8 28.7,96.8 29.3,96.5 29.9,96.2 30.4,95.5 31.5,93.6 34.1,92.6 35.1,92.3 36.1,91.7 36.6,91.6 37.1,91.8 38.0,92.6 38.0,93.2 38.5,94.3 39.6,94.0 40.2,94.3 40.6,94.8 41.1,94.9 43.3,92.8 43.4,91.9 43.3,91.4 43.4,90.7 44.0,89.9 44.7,89.3 46.2,87.1 46.3,85.6 46.8,85.9 47.6,86.4 48.1,86.2 50.4,86.4 50.9,86.8 51.7,87.7 52.2,88.5 52.6,89.6 53.6,91.8 54.0,92.3 54.6,92.8 55.4,93.2 56.1,93.7 56.5,94.3 56.8,94.8 60.2,97.7 61.0,98.1 61.7,98.5 62.4,98.6 62.9,98.9 64.0,99.9 64.6,100.5 65.1,101.1 65.5,101.6 66.7,103.5 67.2,104.3 67.6,105.0 67.8,105.5 68.3,106.7 68.6,107.2 70.0,109.8 71.0,111.5 71.6,113.3 71.9,115.9 71.9,118.4 72.1,119.9 72.3,120.6 72.5,121.2 72.6,121.7 72.5,122.3 72.1,123.3 71.7,124.6 71.2,124.8 70.8,125.5 70.7,126.1 70.9,126.6 71.1,128.5 70.4,130.3 69.6,132.3 69.7,132.8 70.3,134.4 71.3,135.7 72.0,136.5 72.3,137.0 71.9,137.6 71.7,138.2 71.3,139.1 71.4,140.3 71.4,140.9 71.7,141.7 71.8,142.4 71.9,143.0 71.8,143.7 71.7,144.3 71.5,145.5 71.4,147.1 71.5,147.8 71.8,148.6 72.1,149.2 72.8,150.2 73.3,150.8 73.9,151.5 74.5,152.1 75.0,152.6 75.6,152.9 77.0,153.3 77.7,153.6 78.7,154.4 79.0,155.5 78.8,156.3 79.2,157.0 80.2,158.1 81.7,160.8 82.5,162.8 83.2,164.3 84.3,166.0 85.7,169.1 86.3,170.6 86.9,172.3 87.7,176.0 87.5,177.2 86.2,177.8 85.7,177.9 85.0,177.7 84.3,177.4 83.0,175.4 83.6,174.7 81.8,172.4 81.3,172.1 81.5,173.0 82.1,173.6 82.4,174.2 82.3,175.5 82.1,176.1 81.5,176.3 80.4,176.1 79.9,175.7 79.2,175.3 78.6,175.3 76.3,175.8 74.2,177.7 73.0,179.1 72.1,178.4 71.6,177.2 71.2,176.0 71.0,175.1 70.6,174.4 69.9,173.9 69.3,173.6 68.7,173.3 67.9,173.1 67.4,172.8 63.5,170.5 60.5,168.6 59.9,168.2 59.2,168.2 58.1,168.3 57.5,168.0 54.9,164.5 54.1,164.0 53.3,163.5 52.6,163.2 50.0,162.2 48.2,161.5 47.6,161.2 46.4,160.3 44.7,158.7 44.2,158.0 43.2,157.6 41.6,156.5 40.4,154.6 39.7,154.2 39.2,154.2 36.0,153.0 35.4,152.7 34.8,152.2 34.2,151.5 34.0,151.0 33.4,150.3 32.7,149.9 31.6,149.8 31.1,149.7 30.9,148.5 31.6,147.4 32.3,146.9 32.6,145.9 32.5,145.4 32.1,144.7 31.6,144.1 31.4,142.7 31.3,141.7 30.2,140.3 29.4,139.9 27.7,137.8 27.3,137.1 27.0,136.5 26.7,135.7 26.4,135.0 23.4,132.3 22.9,132.0 22.3,132.0 22.0,131.5 22.4,130.9 21.6,130.7 21.0,130.6 20.4,130.2 20.0,129.7 20.0,128.2 20.7,127.9 21.3,128.0 23.2,127.4 19.9,124.8 19.4,124.6 18.8,124.7 18.1,123.5 17.7,122.0 17.6,121.3 17.8,120.2 17.9,116.6 17.9,113.7 18.2,112.7 16.4,111.0 15.4,110.5 14.3,109.2 13.9,108.2 13.6,107.3 14.4,106.6 14.8,105.7 14.9,103.5 14.0,99.2 13.8,98.6 13.4,97.4 13.7,96.4 13.8,93.4 13.7,92.3 13.6,91.6 13.5,90.7 13.3,90.1 13.1,89.5 12.2,87.5 11.5,86.1 10.8,85.4 10.2,85.0 9.8,84.0 9.2,82.3 9.4,81.8 9.9,81.2 10.4,79.3 10.2,78.6 10.3,77.1 11.7,76.7 12.3,76.7 13.0,78.0 13.0,78.6 13.8,79.8 15.0,80.3 18.9,81.5 " />
    <polygon id="Malaysia" points="4.4,82.2 5.1,82.6 5.3,83.7 4.4,84.6 3.7,84.8 3.7,86.4 3.4,87.0 2.9,86.8 2.5,86.2 3.1,85.2 1.9,85.3 0.3,83.2 0.0,82.3 1.2,82.0 1.7,82.2 2.8,82.3 4.0,81.3 4.1,81.8 " />
    <polygon id="Malaysia" points="300.9,86.3 " />
    <polygon id="Malaysia" points="309.4,89.9 308.7,89.6 309.3,89.3 309.5,89.8 " />
    <polygon id="Malaysia" points="349.2,93.5 349.2,93.0 349.7,92.7 350.4,92.9 350.1,93.4 349.2,93.5 " />
    <polygon id="Malaysia" points="302.1,95.5 301.3,95.2 301.8,95.0 " />
    <polygon id="Malaysia" points="12.2,104.0 10.6,103.7 10.2,100.8 10.2,100.2 11.4,100.1 12.3,100.2 12.8,100.8 12.9,101.7 12.8,102.5 12.2,104.0 " />
    <polygon id="Malaysia" points="293.8,104.0 292.5,104.1 292.6,103.6 292.9,102.6 293.5,101.9 294.0,101.6 294.4,103.1 294.0,103.8 " />
    <polygon id="Malaysia" points="356.7,116.4 355.9,116.4 352.6,115.2 353.4,115.0 355.0,114.7 356.8,115.4 356.7,116.4 " />
    <polygon id="Malaysia" points="355.6,117.2 355.5,117.7 355.5,117.2 " />
    <polygon id="Malaysia" points="358.8,118.3 360.0,118.6 360.1,119.1 359.0,119.4 358.1,118.6 358.6,118.3 " />
    <polygon id="Malaysia" points="340.8,124.5 340.1,124.5 339.4,123.8 339.4,123.2 340.0,122.8 340.8,122.8 341.4,122.9 344.1,124.4 342.9,124.5 340.8,124.5 " />
    <polygon id="Malaysia" points="85.4,152.1 84.8,151.6 84.5,150.9 85.2,148.6 85.9,149.5 86.2,150.6 86.3,151.6 85.4,152.1 " />
    <polygon id="Malaysia" points="221.0,158.6 219.8,157.0 219.9,156.0 219.8,154.2 219.6,152.6 219.6,151.6 219.7,151.0 220.3,150.7 221.2,152.0 221.3,152.6 221.3,153.1 221.2,153.8 221.2,155.3 221.2,156.0 221.6,157.7 221.9,158.3 221.0,158.6 " />
    <polygon id="Malaysia" points="84.4,159.4 85.0,159.7 84.4,160.0 83.9,159.4 " />
  </g>
</svg>