<?xml version="1.0" encoding="UTF-8" standalone="yes"?>
<!DOCTYPE svg PUBLIC "-//W3C//DTD SVG 1.0//EN" "http://www.w3.org/TR/2001/REC-SVG-20010904/DTD/svg10.dtd">
<svg height="250" width="370" xmlns="http://www.w3.org/2000/svg" xmlns:svg="http://www.w3.org/2000/svg" xmlns:xlink="http://www.w3.org/1999/xlink">


<g id="background">
<rect id="" width="370" height="250" fill="#222222"/>
</g>
  <g id="462" style="stroke-miterlimit: 3; fill: #F1F1F1; stroke: #000000; stroke-opacity: 1; stroke-width: 0.05; stroke-linejoin: bevel; stroke-linecap: square">
    <polygon id="Maldives" points="175.3,0.5 " />
    <polygon id="Maldives" points="177.6,2.7 177.2,2.1 177.6,2.7 " />
    <polygon id="Maldives" points="184.4,4.8 184.2,4.0 184.4,4.6 " />
    <polygon id="Maldives" points="184.6,6.8 184.8,6.1 184.7,5.5 184.9,6.1 184.7,6.8 " />
    <polygon id="Maldives" points="183.8,8.5 184.4,8.5 183.8,8.9 " />
    <polygon id="Maldives" points="182.4,11.9 183.1,10.2 183.1,10.9 182.6,11.6 " />
    <polygon id="Maldives" points="181.3,12.8 181.2,12.3 181.3,12.8 " />
    <polygon id="Maldives" points="180.2,14.0 " />
    <polygon id="Maldives" points="179.6,21.4 179.5,20.9 179.6,21.4 " />
    <polygon id="Maldives" points="184.6,25.0 " />
    <polygon id="Maldives" points="186.0,27.8 " />
    <polygon id="Maldives" points="186.7,29.3 " />
    <polygon id="Maldives" points="175.9,36.5 " />
    <polygon id="Maldives" points="190.8,36.6 190.2,36.3 190.8,36.4 " />
    <polygon id="Maldives" points="191.9,38.3 " />
    <polygon id="Maldives" points="177.0,40.0 176.8,39.4 177.0,40.0 " />
    <polygon id="Maldives" points="192.0,40.7 192.3,40.1 192.3,40.6 " />
    <polygon id="Maldives" points="177.7,42.9 " />
    <polygon id="Maldives" points="190.4,44.5 190.4,43.6 190.4,44.5 " />
    <polygon id="Maldives" points="198.4,54.9 198.2,54.2 198.4,54.9 " />
    <polygon id="Maldives" points="188.3,55.7 " />
    <polygon id="Maldives" points="197.0,58.5 196.3,58.6 197.0,58.1 " />
    <polygon id="Maldives" points="177.1,71.2 177.1,70.6 177.1,71.2 " />
    <polygon id="Maldives" points="176.7,90.8 177.2,90.8 176.7,90.8 " />
    <polygon id="Maldives" points="194.7,93.3 " />
    <polygon id="Maldives" points="194.2,94.1 " />
    <polygon id="Maldives" points="194.5,96.4 " />
    <polygon id="Maldives" points="168.7,99.5 " />
    <polygon id="Maldives" points="193.2,101.6 " />
    <polygon id="Maldives" points="168.3,108.6 " />
    <polygon id="Maldives" points="175.5,114.0 " />
    <polygon id="Maldives" points="171.7,115.1 " />
    <polygon id="Maldives" points="202.2,117.2 " />
    <polygon id="Maldives" points="196.9,119.7 " />
    <polygon id="Maldives" points="177.5,128.2 " />
    <polygon id="Maldives" points="196.6,133.2 196.7,132.6 196.6,133.2 " />
    <polygon id="Maldives" points="178.6,133.2 " />
    <polygon id="Maldives" points="189.5,138.8 " />
    <polygon id="Maldives" points="178.8,140.0 " />
    <polygon id="Maldives" points="174.0,141.7 173.8,141.2 174.0,141.7 " />
    <polygon id="Maldives" points="188.3,147.8 " />
    <polygon id="Maldives" points="189.8,151.3 189.3,149.7 189.9,150.5 189.8,151.1 " />
    <polygon id="Maldives" points="175.8,153.5 " />
    <polygon id="Maldives" points="182.0,157.5 " />
    <polygon id="Maldives" points="196.9,160.2 196.1,160.7 196.3,160.1 196.8,160.0 " />
    <polygon id="Maldives" points="188.4,164.1 " />
    <polygon id="Maldives" points="195.8,164.7 " />
    <polygon id="Maldives" points="195.7,166.9 195.7,165.6 195.8,166.2 195.7,166.8 " />
    <polygon id="Maldives" points="186.1,167.2 " />
    <polygon id="Maldives" points="194.3,169.2 194.5,168.6 194.3,169.2 " />
    <polygon id="Maldives" points="187.2,169.0 " />
    <polygon id="Maldives" points="190.8,170.2 " />
    <polygon id="Maldives" points="190.1,170.6 " />
    <polygon id="Maldives" points="194.0,211.8 " />
    <polygon id="Maldives" points="176.2,212.1 " />
    <polygon id="Maldives" points="194.5,215.7 " />
    <polygon id="Maldives" points="190.1,218.8 " />
    <polygon id="Maldives" points="179.5,219.5 " />
    <polygon id="Maldives" points="184.9,220.4 " />
    <polygon id="Maldives" points="181.5,221.0 181.1,220.5 181.5,221.0 " />
    <polygon id="Maldives" points="192.4,237.4 191.8,237.1 192.4,237.4 " />
    <polygon id="Maldives" points="186.0,247.3 185.6,246.6 186.0,247.3 " />
    <polygon id="Maldives" points="181.8,248.2 180.9,247.3 180.9,246.6 181.2,247.2 181.5,247.7 181.8,248.2 " />
    <polygon id="Maldives" points="185.4,248.6 185.5,247.7 185.5,248.2 " />
    <polygon id="Maldives" points="182.2,249.3 " />
    <polygon id="Maldives" points="184.5,249.7 " />
    <polygon id="Maldives" points="183.7,250.0 183.0,249.8 183.7,249.8 " />
  </g>
</svg>