<?xml version="1.0" encoding="UTF-8" standalone="yes"?>
<!DOCTYPE svg PUBLIC "-//W3C//DTD SVG 1.0//EN" "http://www.w3.org/TR/2001/REC-SVG-20010904/DTD/svg10.dtd">
<svg height="250" width="370" xmlns="http://www.w3.org/2000/svg" xmlns:svg="http://www.w3.org/2000/svg" xmlns:xlink="http://www.w3.org/1999/xlink">


<g id="background">
<rect id="" width="370" height="250" fill="#222222"/>
</g>
  <g id="466" style="stroke-miterlimit: 3; fill: #F1F1F1; stroke: #000000; stroke-opacity: 1; stroke-width: 0.05; stroke-linejoin: bevel; stroke-linecap: square">
    <polygon id="Mali" points="109.4,227.2 108.7,227.6 108.2,227.5 107.6,227.2 107.1,226.2 106.8,225.4 106.7,224.9 106.1,224.7 105.4,224.8 104.4,224.4 105.1,221.1 105.3,220.0 105.0,218.6 102.7,215.5 102.2,215.4 101.9,214.6 102.0,213.9 102.3,213.4 102.5,212.9 102.0,212.1 100.8,211.4 100.2,211.4 99.1,210.6 97.3,210.3 96.3,210.2 95.6,210.5 94.9,211.1 95.8,211.9 96.6,212.6 96.5,213.5 96.3,214.1 95.8,214.5 94.9,214.4 91.8,215.6 91.0,215.9 90.5,216.4 90.3,217.0 90.3,217.5 89.8,218.2 88.9,218.3 87.0,217.8 86.2,217.2 83.2,215.7 79.3,214.9 79.2,215.4 77.2,216.7 75.3,218.8 73.8,220.5 73.2,220.4 72.7,220.2 72.3,219.5 71.1,216.8 69.9,215.4 69.1,214.9 68.5,214.9 67.2,215.2 66.2,216.7 65.5,217.9 64.9,218.5 64.0,218.8 62.6,218.3 61.7,217.0 61.0,216.7 60.4,216.5 59.6,215.9 59.6,215.3 60.2,214.7 61.5,212.3 61.7,211.2 61.1,209.7 60.9,209.1 60.8,207.7 61.3,204.7 61.6,203.2 61.7,202.4 60.3,200.5 59.3,200.0 59.0,199.5 58.6,198.6 58.8,197.7 58.7,197.1 57.7,195.9 57.3,195.3 55.9,195.0 55.4,195.0 55.2,195.6 54.6,196.6 53.1,195.6 53.2,194.9 51.8,193.1 51.3,192.5 50.5,191.6 50.2,190.7 50.0,190.2 50.4,189.6 51.0,189.3 51.6,188.8 51.9,188.3 52.1,187.4 52.1,186.7 51.5,186.2 51.0,185.7 50.9,184.9 51.0,184.1 51.4,182.7 51.4,182.2 50.8,180.6 48.6,178.8 47.6,178.4 47.3,176.6 47.5,176.0 48.1,174.9 47.0,172.4 48.2,172.1 49.4,172.6 50.1,172.9 51.5,172.1 53.4,170.9 54.2,169.5 54.5,168.1 54.4,167.4 53.9,167.5 53.7,166.6 53.9,165.0 54.6,162.8 55.2,160.9 55.5,160.3 56.0,159.7 56.0,159.1 57.1,159.4 57.8,159.1 58.9,158.2 59.5,157.5 60.3,157.4 60.9,157.6 61.8,158.5 62.3,159.4 62.9,160.3 63.7,161.0 64.6,161.6 68.1,164.2 68.3,164.8 69.4,166.2 70.5,164.8 71.9,163.0 72.5,162.4 72.7,161.9 72.7,160.9 73.3,161.0 73.8,161.0 74.6,161.0 75.3,161.0 76.9,160.9 79.4,160.8 79.9,160.9 81.2,161.4 82.8,162.0 83.3,162.0 84.2,162.1 87.8,162.0 88.5,161.8 89.2,161.4 89.9,161.0 90.5,161.0 94.7,160.8 94.6,160.2 94.1,158.2 95.9,156.4 96.3,157.0 96.0,158.8 96.0,159.8 97.8,159.9 98.5,159.9 100.1,159.9 101.0,159.9 101.7,159.9 108.6,159.8 109.8,159.8 117.4,159.8 118.4,159.8 124.1,159.8 126.8,159.8 129.2,159.7 134.9,159.7 141.0,159.7 144.9,159.8 146.7,159.8 152.8,159.8 159.1,159.8 160.6,159.9 160.8,158.7 161.8,153.2 162.4,150.3 162.6,149.2 163.3,145.9 158.8,142.9 158.3,138.8 157.2,128.7 156.3,120.6 155.7,115.2 155.4,112.0 154.8,106.8 154.5,104.5 154.0,99.9 153.7,97.3 153.4,94.7 152.8,89.0 152.5,86.4 152.0,81.6 151.1,74.7 150.8,71.6 150.3,67.3 149.8,63.6 149.5,60.4 149.1,57.3 148.6,52.4 148.3,49.8 147.0,39.2 146.7,36.1 146.6,35.2 146.4,33.8 145.9,29.4 144.6,18.9 144.1,14.1 143.5,9.1 143.3,7.4 143.1,6.2 142.4,0.0 143.7,0.0 145.9,0.0 147.0,0.0 149.8,0.0 156.0,0.0 169.5,0.0 171.1,0.0 172.2,0.0 176.9,2.9 183.6,7.2 189.2,10.8 194.8,14.3 198.6,16.8 205.5,21.3 211.8,25.5 217.9,29.4 223.6,33.3 229.3,37.1 233.8,40.2 240.0,44.4 245.9,48.5 251.2,52.2 252.9,53.3 255.5,55.0 257.5,56.2 259.8,57.6 265.9,61.4 272.7,65.6 273.0,66.3 273.1,66.9 273.1,68.4 273.0,69.0 272.8,69.7 272.5,70.6 272.5,71.2 272.8,71.8 275.8,72.7 277.9,73.3 278.6,73.6 279.5,74.0 280.4,74.5 280.9,75.0 281.1,76.2 281.1,76.7 281.1,77.3 281.9,77.9 283.0,78.8 285.0,79.8 288.0,80.5 288.8,80.2 289.5,79.5 290.2,79.4 291.2,79.9 292.0,80.7 292.6,81.4 293.0,82.0 293.4,82.8 295.2,83.7 296.6,84.1 298.3,84.1 301.8,84.7 303.5,85.3 304.0,85.5 307.3,87.1 307.4,88.5 307.2,90.5 307.1,91.0 307.1,91.7 307.6,93.3 308.1,94.0 308.1,94.6 306.7,96.6 306.0,97.6 305.4,98.3 305.7,98.9 306.6,99.6 309.1,101.3 315.8,100.1 318.8,99.5 319.5,99.4 321.7,99.0 324.4,98.5 324.4,99.7 324.4,103.2 324.4,106.7 324.5,117.8 324.5,123.7 324.5,126.6 324.5,129.7 324.6,134.7 324.0,136.0 323.7,137.6 323.7,138.7 323.7,144.8 323.1,145.0 322.2,145.6 321.6,146.3 320.0,150.2 319.5,152.4 318.7,155.7 318.4,156.3 317.8,156.9 317.2,157.1 316.5,157.1 315.9,157.2 313.0,159.6 312.5,161.0 312.4,161.5 312.3,162.2 308.7,161.6 304.0,161.0 303.8,162.5 301.1,162.5 297.2,162.4 295.3,162.4 286.2,162.9 284.7,162.9 275.1,163.4 271.3,166.9 269.7,168.3 268.8,168.6 266.1,168.8 265.3,168.9 264.7,169.2 264.0,169.0 263.4,168.8 261.6,168.2 260.6,168.6 259.7,168.9 258.6,168.7 257.7,168.4 257.1,168.3 256.9,169.1 257.0,169.7 253.0,168.3 248.9,166.9 246.5,168.2 245.6,166.9 240.8,166.9 236.1,170.9 234.9,172.0 230.8,172.8 230.1,173.3 224.8,176.7 223.1,177.0 220.9,176.9 219.7,177.1 219.6,178.2 219.5,178.7 219.5,179.3 219.4,179.9 219.2,181.9 217.6,182.5 215.2,181.4 214.6,181.1 212.9,180.6 211.7,180.3 209.3,181.5 208.5,182.4 205.6,184.2 205.2,185.0 204.2,188.0 204.1,189.8 204.5,190.6 203.5,191.2 200.9,190.4 199.0,190.0 198.2,190.2 197.9,192.6 198.2,193.5 198.5,195.8 198.6,196.5 198.6,197.1 196.3,197.2 195.5,197.3 195.2,197.9 195.4,198.7 194.0,198.9 193.4,198.9 192.6,198.5 189.3,195.9 187.3,194.5 186.5,193.5 183.2,197.1 182.5,197.2 181.7,197.8 180.5,199.1 180.1,199.7 181.1,201.5 181.5,202.0 182.0,202.3 182.3,202.9 182.4,204.8 182.3,205.7 182.0,206.3 181.4,206.6 180.9,206.7 177.8,206.5 177.7,207.5 178.0,208.0 178.6,208.2 179.6,209.7 179.1,210.2 178.7,210.8 178.4,211.4 178.7,213.7 177.6,214.1 176.1,215.3 175.2,216.7 175.1,217.6 174.0,217.7 169.9,218.6 167.6,219.1 166.9,219.3 166.4,219.5 164.3,221.4 164.1,222.3 164.4,224.0 165.0,225.5 165.5,226.4 165.4,227.8 164.7,231.3 163.9,233.2 163.3,233.6 162.7,233.9 161.1,234.1 160.7,234.9 160.8,235.5 161.4,237.2 161.9,237.8 161.9,238.4 161.4,239.5 161.2,240.2 161.0,240.7 160.9,241.7 160.8,243.5 160.1,245.0 159.5,244.7 157.8,244.8 157.2,245.1 156.7,245.3 155.7,245.2 154.1,246.1 153.1,247.6 152.7,248.3 152.3,248.9 150.5,249.2 149.6,248.8 148.9,248.5 149.0,246.2 149.0,245.6 149.0,245.1 148.5,242.8 148.9,241.9 148.3,240.2 145.3,240.7 145.0,241.7 145.4,242.2 145.3,242.9 143.1,242.7 142.2,242.2 141.9,241.6 141.3,241.2 140.8,241.8 140.7,242.3 140.5,244.1 140.8,244.7 141.4,245.0 141.2,246.2 140.0,246.5 136.3,246.4 135.6,248.0 135.9,248.5 136.1,249.3 135.7,249.8 135.1,250.0 134.5,249.7 134.2,249.2 133.2,248.6 132.1,248.4 130.7,248.1 129.4,247.0 129.2,246.5 127.6,245.7 124.6,244.8 123.5,245.5 122.9,246.0 122.5,246.8 122.6,247.4 122.0,248.2 121.5,248.9 120.3,249.4 119.5,249.7 119.0,249.7 119.4,248.5 118.9,247.0 116.0,245.2 115.4,245.4 114.8,245.3 113.9,244.0 113.7,243.1 113.0,239.6 113.6,238.1 113.5,235.4 112.7,234.7 110.7,234.7 109.8,235.5 108.6,236.0 107.2,236.3 106.9,235.7 108.2,233.4 110.3,230.8 110.9,230.7 111.7,230.8 112.2,230.7 112.5,230.1 112.4,229.3 111.8,228.9 110.9,228.6 110.2,228.5 109.4,227.2 " />
  </g>
</svg>