<?xml version="1.0" encoding="UTF-8" standalone="yes"?>
<!DOCTYPE svg PUBLIC "-//W3C//DTD SVG 1.0//EN" "http://www.w3.org/TR/2001/REC-SVG-20010904/DTD/svg10.dtd">
<svg height="250" width="370" xmlns="http://www.w3.org/2000/svg" xmlns:svg="http://www.w3.org/2000/svg" xmlns:xlink="http://www.w3.org/1999/xlink">


<g id="background">
<rect id="" width="370" height="250" fill="#222222"/>
</g>
  <g id="478" style="stroke-miterlimit: 3; fill: #F1F1F1; stroke: #000000; stroke-opacity: 1; stroke-width: 0.05; stroke-linejoin: bevel; stroke-linecap: square">
    <polygon id="Mauritania" points="270.2,23.1 277.3,27.4 286.2,32.7 286.9,33.1 290.5,35.3 297.5,39.6 304.9,44.2 305.6,44.6 307.0,45.5 305.9,45.6 303.9,45.6 288.0,45.6 280.7,45.6 277.4,45.6 276.1,45.6 273.4,45.6 271.9,45.6 272.8,52.9 272.9,54.3 273.2,56.4 273.9,62.3 274.6,67.9 276.1,80.3 276.7,85.6 276.9,87.2 277.0,88.2 277.4,92.0 278.9,104.5 279.2,107.5 279.9,113.3 280.3,117.0 280.7,120.8 281.2,125.2 281.8,130.2 282.3,133.9 283.2,142.1 283.9,147.7 284.2,150.8 285.0,157.6 285.3,160.7 285.7,163.7 286.3,169.2 286.6,171.9 287.3,178.1 287.7,181.8 288.4,188.2 289.4,197.8 290.8,209.7 291.3,214.5 296.6,218.1 295.8,221.9 295.6,223.3 294.9,226.7 293.6,233.2 293.4,234.3 291.6,234.6 284.2,234.5 277.2,234.5 274.9,234.5 270.3,234.5 263.1,234.4 256.3,234.5 253.5,234.5 250.3,234.5 243.5,234.6 242.7,234.6 233.5,234.6 231.9,234.6 223.7,234.6 222.9,234.6 221.9,234.6 220.0,234.6 219.2,234.6 217.0,234.6 217.1,233.3 217.4,231.2 216.9,230.5 214.9,232.7 215.4,235.0 215.5,235.7 210.5,236.0 209.8,236.0 209.0,236.4 208.3,236.8 207.7,237.1 203.1,237.2 202.6,237.2 202.0,237.2 201.4,237.1 199.5,236.4 198.1,235.8 197.5,235.8 194.4,235.8 192.6,235.9 191.7,236.0 190.8,236.0 190.2,235.9 189.5,235.8 189.5,237.0 189.2,237.7 188.6,238.3 186.9,240.4 186.0,242.3 184.5,240.7 184.2,240.1 180.4,237.1 179.9,236.7 179.2,236.2 178.2,235.5 177.2,234.1 176.6,233.1 175.7,232.1 174.8,231.7 174.0,231.7 173.2,232.7 172.0,233.6 171.2,234.1 169.7,233.7 169.7,234.5 169.2,234.9 168.9,235.8 168.1,238.1 167.3,240.6 167.0,242.6 167.1,243.5 167.6,243.5 168.1,244.3 167.7,246.0 167.1,247.3 166.6,247.7 164.6,249.0 162.8,250.0 162.2,249.8 160.5,249.1 159.1,249.2 158.3,248.8 156.1,247.5 155.1,246.5 155.0,246.0 154.6,244.5 151.5,242.6 151.0,242.4 150.3,242.8 148.4,241.6 147.1,240.4 146.3,239.5 146.9,239.3 147.3,238.7 146.9,238.1 145.9,237.5 145.4,237.2 145.3,236.7 145.0,234.7 144.3,234.6 143.1,235.0 142.3,234.7 142.0,234.1 140.4,232.0 139.2,231.0 137.6,226.0 136.3,223.6 133.7,222.0 132.7,221.9 131.4,222.3 130.7,222.7 130.0,222.2 130.2,221.3 128.0,221.9 124.9,220.1 124.5,218.8 123.6,217.5 119.9,213.9 117.5,212.1 115.9,211.7 115.2,212.0 114.3,212.2 111.6,212.2 109.1,211.8 107.2,212.0 106.1,212.0 105.4,211.8 105.1,211.3 104.6,210.9 104.1,211.6 102.5,212.5 99.7,213.5 97.2,213.5 95.5,213.1 94.1,213.6 92.8,214.4 91.0,215.1 90.4,215.1 89.4,214.9 87.9,214.7 86.7,214.5 86.2,214.4 84.7,214.9 83.4,215.1 82.5,214.3 82.1,213.7 81.5,213.7 78.8,214.3 78.3,214.8 78.0,215.5 77.5,217.0 77.3,218.2 77.1,219.1 76.8,220.1 76.2,220.5 74.3,222.8 73.9,223.4 73.9,222.7 73.7,218.6 74.0,218.0 74.3,217.2 74.5,216.6 74.9,215.4 75.1,214.6 75.1,213.7 75.1,212.6 75.6,211.1 76.2,209.5 77.6,206.0 78.4,204.7 78.9,204.0 79.2,203.5 80.4,200.8 80.7,200.0 81.7,197.7 82.5,195.0 83.0,193.0 83.6,190.3 83.7,186.3 83.8,183.2 83.7,181.6 83.6,181.1 83.4,180.2 83.1,177.6 83.3,176.8 83.3,176.2 83.1,175.6 83.0,175.1 82.8,174.5 82.3,173.3 81.5,171.1 81.4,169.8 81.0,167.5 80.8,166.7 80.7,166.2 80.0,164.9 79.8,164.1 79.3,163.1 78.8,162.4 77.5,160.9 75.2,159.9 74.5,158.3 75.2,157.6 76.8,157.1 77.4,156.5 78.2,155.6 78.7,154.4 77.4,154.4 76.0,155.3 75.8,155.9 75.6,156.8 75.1,156.8 75.1,156.1 75.9,154.3 76.7,153.5 77.7,152.4 79.8,149.2 79.6,147.3 80.1,145.0 80.5,140.6 79.8,139.4 78.1,137.5 77.7,136.4 76.9,134.6 76.1,133.1 75.4,131.7 74.6,130.6 73.9,130.4 73.8,131.0 73.8,132.6 73.9,133.6 72.9,133.3 71.5,131.9 66.7,122.9 66.4,122.2 65.8,122.1 64.7,123.9 64.5,124.8 64.6,125.7 64.0,128.2 63.6,129.5 63.0,127.3 63.1,126.7 63.5,125.7 63.7,125.1 64.6,122.6 65.3,119.2 65.4,118.5 72.4,118.4 81.5,118.4 84.0,118.4 86.5,118.4 89.5,118.4 99.8,118.4 104.2,118.5 110.5,118.4 114.9,118.4 118.2,118.4 126.0,118.3 136.6,118.4 144.1,118.4 144.0,116.7 143.5,109.3 143.1,104.6 143.1,103.6 142.9,101.2 142.8,98.8 142.5,95.4 142.5,94.9 142.2,93.9 141.1,90.2 141.4,89.2 142.0,87.5 143.1,86.1 144.1,84.9 149.2,81.7 151.3,80.4 152.1,79.9 152.6,79.6 156.7,79.0 159.4,77.8 162.0,76.8 164.0,76.3 164.0,69.5 164.0,65.5 164.0,58.8 164.0,57.5 164.0,50.2 164.0,49.6 164.0,48.2 164.0,41.6 164.0,40.9 164.0,39.6 164.0,33.0 164.0,32.3 164.0,31.0 164.0,25.7 169.9,25.7 178.6,25.7 189.2,25.7 193.8,25.7 201.1,25.7 203.8,25.7 204.4,25.7 205.8,25.7 209.7,25.7 211.1,25.7 212.4,25.7 215.7,25.7 230.3,25.7 230.3,24.4 230.3,23.0 230.3,17.7 230.3,9.1 230.3,6.4 230.3,0.0 239.5,5.2 241.0,6.0 249.3,10.9 258.3,16.1 259.4,16.7 263.7,19.3 268.0,21.8 270.2,23.1 " />
    <polygon id="Mauritania" points="75.9,152.9 75.4,152.6 75.2,151.1 76.1,149.0 77.3,147.8 77.5,149.0 77.2,150.3 76.8,151.4 76.6,152.0 76.3,152.5 " />
  </g>
</svg>