<?xml version="1.0" encoding="UTF-8" standalone="yes"?>
<!DOCTYPE svg PUBLIC "-//W3C//DTD SVG 1.0//EN" "http://www.w3.org/TR/2001/REC-SVG-20010904/DTD/svg10.dtd">
<svg height="250" width="370" xmlns="http://www.w3.org/2000/svg" xmlns:svg="http://www.w3.org/2000/svg" xmlns:xlink="http://www.w3.org/1999/xlink">


<g id="background">
<rect id="" width="370" height="250" fill="#222222"/>
</g>
  <g id="48" style="stroke-miterlimit: 3; fill: #F1F1F1; stroke: #000000; stroke-opacity: 1; stroke-width: 0.05; stroke-linejoin: bevel; stroke-linecap: square">
    <polygon id="Bahrain" points="190.9,14.4 189.9,15.4 177.9,14.9 175.7,14.3 173.5,11.6 173.4,9.5 173.8,7.4 175.6,4.1 176.7,2.7 181.7,0.0 186.4,2.4 189.8,4.6 191.0,5.8 191.7,7.6 191.4,12.3 190.9,14.4 " />
    <polygon id="Bahrain" points="148.6,19.0 153.9,21.6 164.5,17.6 166.7,17.2 168.6,17.6 169.5,19.1 175.1,27.8 175.8,29.5 174.0,32.7 172.6,33.9 170.4,34.3 156.6,33.1 156.3,34.0 161.4,41.3 169.8,48.1 174.2,51.5 176.8,56.2 177.9,59.9 178.2,64.2 177.4,69.1 178.6,81.1 179.1,107.4 178.7,112.3 174.9,148.6 173.1,154.5 171.3,157.7 169.0,160.5 162.9,167.1 156.6,166.3 126.5,119.9 124.8,116.7 124.0,112.8 124.3,108.3 125.6,104.5 129.2,97.9 132.3,91.0 133.9,87.4 134.5,82.8 132.5,75.3 131.1,71.9 126.7,61.8 121.6,31.6 121.0,28.2 121.2,25.8 123.0,22.5 125.4,19.8 126.7,18.6 128.7,18.0 137.4,17.1 140.0,16.9 142.3,17.2 148.6,19.0 " />
    <polygon id="Bahrain" points="231.4,189.0 229.2,189.4 228.2,187.8 229.7,186.3 231.5,187.0 231.4,189.0 " />
    <polygon id="Bahrain" points="228.7,241.9 232.2,250.0 225.2,246.5 222.7,243.9 221.9,240.0 221.6,215.8 221.6,211.3 223.2,207.8 224.4,206.3 229.5,201.4 232.8,199.6 239.5,196.1 240.8,195.5 240.7,200.5 238.8,209.8 233.1,211.6 231.2,211.7 229.3,221.0 228.3,239.9 228.7,241.9 " />
    <polygon id="Bahrain" points="246.6,212.8 244.7,213.5 243.4,212.1 243.5,210.3 244.7,208.9 247.0,211.2 246.6,212.8 " />
    <polygon id="Bahrain" points="246.3,225.5 239.4,225.6 236.2,221.4 235.8,219.5 237.4,218.5 247.6,221.2 249.4,222.1 249.8,224.0 248.5,225.2 246.3,225.5 " />
  </g>
</svg>