<?xml version="1.0" encoding="UTF-8" standalone="yes"?>
<!DOCTYPE svg PUBLIC "-//W3C//DTD SVG 1.0//EN" "http://www.w3.org/TR/2001/REC-SVG-20010904/DTD/svg10.dtd">
<svg height="250" width="370" xmlns="http://www.w3.org/2000/svg" xmlns:svg="http://www.w3.org/2000/svg" xmlns:xlink="http://www.w3.org/1999/xlink">


<g id="background">
<rect id="" width="370" height="250" fill="#222222"/>
</g>
  <g id="480" style="stroke-miterlimit: 3; fill: #F1F1F1; stroke: #000000; stroke-opacity: 1; stroke-width: 0.05; stroke-linejoin: bevel; stroke-linecap: square">
    <polygon id="Mauritius" points="101.4,2.0 100.8,1.6 100.3,0.9 100.0,0.4 101.3,1.6 " />
    <polygon id="Mauritius" points="270.5,230.8 268.1,231.5 267.3,231.0 267.2,230.3 269.7,229.3 270.4,229.2 271.2,229.4 271.3,230.0 270.6,230.7 " />
    <polygon id="Mauritius" points="126.1,249.8 125.0,250.0 123.6,249.9 121.5,249.6 119.6,248.5 119.6,247.9 121.3,243.2 122.0,242.0 125.2,237.7 126.5,237.0 127.4,236.9 128.5,237.2 131.6,242.7 131.5,243.9 129.8,248.0 128.7,249.0 126.1,249.8 " />
  </g>
</svg>