<?xml version="1.0" encoding="UTF-8" standalone="yes"?>
<!DOCTYPE svg PUBLIC "-//W3C//DTD SVG 1.0//EN" "http://www.w3.org/TR/2001/REC-SVG-20010904/DTD/svg10.dtd">
<svg height="250" width="370" xmlns="http://www.w3.org/2000/svg" xmlns:svg="http://www.w3.org/2000/svg" xmlns:xlink="http://www.w3.org/1999/xlink">


<g id="background">
<rect id="" width="370" height="250" fill="#222222"/>
</g>
  <g id="496" style="stroke-miterlimit: 3; fill: #F1F1F1; stroke: #000000; stroke-opacity: 1; stroke-width: 0.05; stroke-linejoin: bevel; stroke-linecap: square">
    <polygon id="Mongolia" points="37.5,128.3 37.7,127.5 37.8,126.9 36.7,125.0 36.3,124.3 35.6,123.8 35.0,123.8 34.0,123.2 32.5,121.4 32.0,120.9 31.5,120.1 31.1,117.9 30.4,117.3 29.8,116.6 29.0,115.7 27.5,115.3 26.9,114.9 26.7,114.3 26.8,113.8 25.8,113.4 25.3,114.0 23.5,114.2 22.0,113.2 21.3,112.6 21.2,112.0 20.7,111.7 18.8,111.7 17.8,112.1 17.0,112.4 15.3,112.3 14.7,111.8 13.8,111.0 12.7,110.9 10.4,110.2 9.9,109.8 9.5,109.0 9.7,108.4 8.8,107.6 6.5,106.7 5.6,106.4 5.0,106.4 3.3,105.9 2.8,105.7 2.4,105.2 3.2,104.8 3.7,104.3 3.5,103.7 2.8,103.4 2.3,103.4 1.0,103.1 0.1,102.2 0.2,101.6 1.0,101.3 1.5,101.0 1.3,99.4 0.9,98.7 1.5,98.8 2.5,98.7 4.5,97.6 4.6,97.1 4.3,96.5 4.8,95.7 6.8,95.1 7.5,95.1 9.3,95.2 11.2,95.5 12.5,95.6 13.1,95.6 12.8,95.0 12.9,94.5 13.5,94.4 14.1,95.2 16.0,95.0 16.5,94.8 17.0,94.4 16.6,93.8 17.2,93.3 17.9,93.6 18.4,94.0 18.9,93.9 19.4,93.3 20.7,92.9 21.4,92.8 22.5,92.5 22.7,92.0 22.0,91.7 21.6,90.9 21.7,90.3 22.3,89.9 23.0,89.8 23.6,89.8 24.3,89.8 25.5,89.5 26.0,89.2 26.1,88.6 26.6,88.2 27.8,87.9 28.6,87.8 29.2,87.5 29.7,87.2 31.6,86.6 32.2,86.6 32.7,86.7 33.5,86.7 34.1,86.5 36.0,85.3 36.8,84.6 37.6,84.2 38.4,84.2 39.1,84.2 41.3,83.7 42.5,83.4 44.3,82.6 44.7,82.0 45.4,81.6 46.2,81.3 46.7,81.1 47.4,81.0 48.2,81.0 48.9,81.1 49.8,81.2 50.6,81.2 51.3,81.1 51.9,80.8 52.4,80.1 53.9,79.9 56.1,81.3 56.8,81.3 57.5,81.0 57.8,80.4 59.5,80.0 60.0,80.1 60.3,80.6 60.0,81.2 60.5,82.1 61.3,82.3 61.9,82.3 64.2,82.2 64.8,82.1 65.3,82.0 66.9,82.4 68.6,82.5 70.6,82.5 71.6,82.5 74.3,82.6 74.9,82.6 75.8,84.4 75.8,85.2 75.9,85.7 76.1,86.4 76.4,86.9 77.4,87.2 78.4,88.2 78.9,88.8 79.5,88.9 80.1,88.8 80.7,88.6 81.3,88.5 82.9,88.5 83.4,88.9 83.9,89.5 84.5,89.7 85.1,89.7 85.6,89.7 86.3,89.7 87.3,89.7 87.9,89.7 88.9,90.3 89.5,90.4 91.7,89.7 92.3,89.2 92.9,88.9 93.5,89.0 93.9,89.5 94.6,89.8 95.2,89.3 96.0,89.2 97.2,89.5 97.9,89.7 98.6,90.2 99.1,90.4 99.8,90.3 100.3,90.1 101.0,90.0 101.5,90.7 102.3,90.5 102.8,90.2 104.0,90.2 106.2,90.4 107.9,91.5 108.6,92.0 109.5,92.3 110.2,92.2 111.8,91.6 112.7,91.2 113.2,90.7 114.5,89.8 115.2,89.6 116.5,89.7 118.6,88.8 119.1,88.5 120.0,87.4 121.1,85.8 121.5,83.8 121.5,83.2 120.9,82.7 120.3,82.7 119.8,82.7 118.5,82.0 117.4,80.4 117.8,79.6 117.2,78.8 116.6,78.6 115.8,77.8 116.3,77.1 116.7,76.3 117.2,75.2 117.2,74.7 117.7,73.4 118.3,72.4 119.0,72.2 119.8,72.3 120.4,72.4 120.8,71.8 120.6,71.1 121.3,69.7 122.0,69.3 123.6,68.9 124.7,68.8 125.4,68.5 125.9,68.2 126.6,67.5 127.0,66.9 127.8,65.8 127.8,65.2 128.2,64.6 129.4,65.4 130.9,65.9 132.6,66.5 133.2,66.9 135.8,67.3 136.5,67.4 137.2,67.4 137.7,67.5 138.6,68.1 139.1,68.5 139.8,68.9 140.4,69.1 141.1,69.2 143.7,69.3 144.6,69.3 145.7,69.3 146.4,69.2 147.1,69.2 148.7,69.7 149.8,70.1 151.0,70.5 152.7,71.1 153.7,71.4 154.6,71.5 155.1,71.6 155.7,71.8 156.2,72.3 156.8,72.5 157.4,72.3 158.1,72.2 158.9,72.1 160.8,72.4 162.2,72.9 163.7,73.1 164.3,73.2 164.9,73.3 166.3,73.9 166.1,74.4 165.6,74.8 165.7,76.3 165.9,76.8 166.3,77.4 166.7,77.9 166.8,78.9 166.4,79.4 166.8,80.1 167.5,80.5 167.9,81.0 167.2,81.6 167.4,82.4 168.1,82.9 169.0,83.0 169.9,83.3 170.6,84.0 170.9,84.5 171.5,84.5 172.4,84.7 173.1,84.9 173.9,85.4 174.6,85.6 175.3,85.7 176.3,85.7 177.1,85.6 177.8,85.6 178.3,86.3 178.8,86.9 181.4,87.2 182.2,87.5 182.8,87.6 183.5,87.6 184.1,87.1 184.6,86.9 185.2,86.9 185.8,87.2 187.1,87.5 187.7,87.5 189.6,87.1 190.0,86.5 191.3,85.8 191.8,85.6 192.5,85.5 193.3,85.5 193.8,85.5 194.4,85.3 194.9,85.1 197.9,84.5 198.5,84.6 199.1,84.7 199.8,84.6 200.3,84.4 201.1,84.0 201.8,83.7 202.4,83.6 204.3,84.0 206.6,84.2 207.5,84.2 209.6,84.5 210.1,84.6 210.6,85.2 212.5,85.7 213.0,85.7 213.6,85.6 214.8,85.4 215.4,85.3 216.1,85.2 216.7,85.2 217.4,85.3 218.2,85.5 218.7,85.6 219.3,85.8 221.3,86.9 221.9,87.7 222.2,88.2 223.2,88.9 224.1,89.1 226.5,89.4 227.6,89.4 229.7,89.4 230.5,89.8 231.7,89.8 232.5,89.8 232.5,91.6 232.2,92.8 233.2,93.7 234.1,94.1 234.7,94.4 236.2,95.0 236.9,95.6 238.7,96.6 239.3,96.9 240.2,96.9 240.9,96.8 243.7,96.6 244.5,96.8 245.1,96.8 245.9,96.7 246.5,96.5 247.9,96.7 249.9,97.6 250.5,98.0 251.3,98.1 253.5,98.2 256.8,98.5 257.7,98.7 258.5,98.7 259.1,98.6 259.8,98.2 261.3,98.4 263.0,98.9 263.8,99.1 264.8,99.0 266.4,98.6 267.0,98.4 267.6,98.1 268.7,97.4 269.2,97.2 271.0,96.8 272.5,96.6 273.0,96.7 273.6,96.6 274.7,96.1 275.3,96.0 276.4,96.1 277.2,96.1 277.9,96.1 280.2,95.7 283.5,94.7 284.4,94.5 284.9,94.5 285.5,94.6 286.3,94.7 286.9,95.0 287.6,94.9 288.3,94.7 291.3,93.8 291.4,93.1 292.3,91.6 293.0,91.1 294.4,90.5 295.4,90.0 296.7,89.2 298.4,88.5 299.1,88.2 299.7,88.2 300.2,88.2 301.0,87.8 301.6,87.3 303.8,86.3 304.5,86.1 305.4,85.9 305.9,86.0 306.6,86.3 307.4,86.4 308.1,86.4 308.9,86.2 309.5,86.2 310.4,86.3 311.6,86.6 313.3,87.3 313.8,87.6 314.3,88.3 315.6,89.2 316.2,89.6 317.7,90.3 319.1,90.4 319.6,90.3 320.3,90.3 321.0,90.5 321.6,90.6 322.3,90.4 323.5,89.9 325.3,89.2 326.0,89.1 326.5,89.0 327.2,88.9 328.1,89.0 328.8,89.3 329.6,89.6 330.5,89.8 331.7,89.9 332.8,90.9 332.2,92.2 331.3,93.5 330.5,94.7 329.7,95.8 328.8,97.2 328.0,98.4 326.2,101.0 325.5,102.2 325.7,102.8 324.4,104.3 322.6,106.2 322.7,107.6 322.8,108.3 322.8,109.0 320.4,110.2 319.8,110.4 320.1,113.1 323.8,115.7 324.3,115.8 325.2,115.0 325.9,114.4 327.7,113.6 329.0,113.8 330.6,114.0 331.6,113.8 333.1,113.6 333.9,113.5 334.8,113.5 337.5,114.3 340.0,116.0 340.5,116.2 343.3,114.0 343.8,113.5 345.5,112.1 346.3,112.0 348.4,112.0 350.4,111.8 352.3,112.1 354.0,112.3 354.7,112.9 355.4,113.5 356.6,114.8 357.2,115.0 358.9,115.5 359.9,115.8 360.7,116.0 361.0,117.6 362.0,117.8 363.2,118.4 363.9,119.4 365.0,120.0 366.4,120.9 367.6,121.7 368.2,122.4 368.3,123.0 368.4,123.6 369.2,124.6 369.9,124.8 370.0,126.9 369.6,127.4 367.9,128.1 367.4,128.3 366.8,128.0 365.4,127.9 364.6,127.8 364.0,128.0 363.4,128.1 362.7,128.1 360.3,127.5 359.7,127.3 358.9,126.7 357.9,126.3 357.4,126.4 356.8,126.9 353.1,127.2 352.6,127.0 351.4,126.7 349.1,127.4 347.0,128.1 346.3,128.5 346.0,129.0 344.5,129.3 343.5,128.9 343.2,128.3 341.1,128.5 341.4,129.1 340.8,129.9 340.7,130.5 337.2,131.0 335.1,130.8 334.4,130.7 333.7,131.1 332.5,131.4 331.5,131.8 331.3,132.3 330.0,133.3 329.5,133.6 328.9,134.2 328.2,135.2 327.8,135.7 327.5,136.3 327.8,136.9 327.9,137.6 327.2,138.4 326.5,138.7 325.9,138.9 325.1,138.8 324.0,139.4 322.5,140.4 321.3,141.4 318.7,141.9 317.8,142.1 316.6,142.1 315.3,142.0 312.9,142.3 311.5,142.0 310.4,141.6 308.0,142.2 308.0,142.7 307.1,144.3 305.9,145.0 304.5,145.9 303.4,146.7 302.7,147.4 302.0,147.5 301.5,147.6 300.8,147.6 299.7,148.3 298.8,148.9 297.6,149.6 296.6,149.5 293.0,149.1 292.0,149.1 288.6,148.5 285.7,147.5 285.2,146.8 284.5,146.3 283.7,145.8 282.9,145.9 281.4,145.9 279.9,145.8 279.3,145.5 278.5,145.6 277.3,146.1 276.3,146.7 274.5,149.3 273.8,150.4 273.8,151.1 273.6,151.7 273.0,152.5 272.3,153.1 272.1,153.8 272.1,154.3 273.3,155.4 273.7,156.2 275.0,157.6 276.5,158.2 277.4,158.9 278.3,160.1 278.5,160.8 278.3,161.5 277.6,161.9 276.3,162.0 274.6,163.4 273.0,164.0 271.0,164.7 269.9,165.0 268.1,165.6 267.1,166.0 265.8,167.4 264.3,168.6 263.7,169.1 263.5,169.6 263.1,170.2 262.3,170.9 261.7,171.2 261.2,171.5 260.9,172.0 259.9,172.6 257.3,173.4 255.8,173.8 255.1,173.8 252.8,174.6 252.2,174.8 250.5,175.7 248.8,176.0 247.9,176.0 245.4,176.0 244.3,175.9 242.5,176.6 240.6,176.3 238.8,176.1 236.4,176.2 235.6,175.9 231.7,176.5 227.8,176.5 227.2,176.0 226.7,175.8 224.4,176.5 224.3,177.0 221.5,177.6 219.6,177.7 218.8,177.8 215.5,178.9 211.2,180.3 208.1,181.3 205.0,182.4 203.8,183.1 202.3,183.7 200.9,184.1 198.4,186.0 197.5,185.2 196.6,185.2 194.6,185.3 192.8,185.1 192.8,183.9 192.8,182.6 187.7,183.4 185.0,183.5 180.1,182.5 179.3,182.2 176.9,181.3 173.9,180.1 172.0,179.3 170.1,179.3 169.2,179.4 164.7,178.5 163.7,177.5 161.6,175.3 159.1,175.1 157.0,174.7 154.8,174.2 152.0,173.7 150.5,173.4 148.8,173.3 144.4,173.2 143.7,173.8 142.3,173.8 141.2,173.7 140.6,173.7 135.2,174.6 132.7,174.5 132.0,174.4 130.6,174.4 126.6,174.1 123.4,173.9 121.9,173.8 120.3,173.8 118.6,173.5 115.8,173.1 115.0,173.0 113.2,172.7 112.4,172.6 111.4,172.5 110.7,172.4 108.2,172.0 106.3,172.4 104.5,172.5 103.5,172.5 101.3,172.6 99.4,172.8 98.9,170.8 96.2,168.7 94.1,167.2 93.4,166.5 93.3,165.9 93.2,165.0 92.9,164.5 92.2,163.5 91.9,163.0 91.5,162.4 91.0,161.4 90.7,160.7 90.5,159.8 89.5,158.3 88.8,158.3 88.2,158.2 87.4,158.1 87.3,156.4 87.5,155.7 88.1,155.1 86.6,154.9 85.6,155.0 83.7,155.2 80.1,154.2 79.6,153.6 78.8,153.0 77.9,152.7 76.9,152.3 75.7,151.8 74.6,150.9 73.0,150.0 71.4,149.2 70.8,149.0 70.2,148.8 69.0,148.3 68.0,147.7 66.9,147.3 66.4,147.1 64.5,146.8 63.9,146.9 63.3,146.8 62.3,146.5 61.3,146.6 60.2,146.6 59.5,146.5 58.9,146.2 57.9,146.1 57.1,146.3 56.4,146.4 54.5,146.6 52.3,146.4 49.8,145.8 49.2,145.7 47.3,145.8 43.8,145.8 43.0,145.3 42.5,144.9 41.9,145.2 40.7,145.2 39.9,145.0 39.4,144.6 38.8,144.2 37.8,144.1 37.3,144.1 36.1,143.8 35.1,142.4 34.7,141.7 34.0,141.3 33.6,140.0 34.0,138.2 35.6,136.5 36.6,135.7 37.2,135.3 37.6,133.9 37.2,133.4 36.8,132.9 36.4,131.8 36.8,131.2 37.9,129.2 38.1,128.6 37.5,128.3 " />
  </g>
</svg>