<?xml version="1.0" encoding="UTF-8" standalone="yes"?>
<!DOCTYPE svg PUBLIC "-//W3C//DTD SVG 1.0//EN" "http://www.w3.org/TR/2001/REC-SVG-20010904/DTD/svg10.dtd">
<svg height="250" width="370" xmlns="http://www.w3.org/2000/svg" xmlns:svg="http://www.w3.org/2000/svg" xmlns:xlink="http://www.w3.org/1999/xlink">


<g id="background">
<rect id="" width="370" height="250" fill="#222222"/>
</g>
  <g id="499" style="stroke-miterlimit: 3; fill: #F1F1F1; stroke: #000000; stroke-opacity: 1; stroke-width: 0.05; stroke-linejoin: bevel; stroke-linecap: square">
    <polygon id="Montenegro" points="44.3,145.0 45.5,144.5 56.2,138.4 58.2,137.2 60.5,135.5 61.2,134.8 61.7,133.7 62.2,132.0 62.0,130.8 59.9,124.0 59.3,123.1 58.4,122.6 57.7,122.3 56.0,122.1 54.7,121.8 53.6,121.2 49.5,115.7 44.6,107.5 44.2,105.8 47.7,87.8 48.0,86.6 48.5,85.5 50.4,82.9 52.1,81.4 54.4,79.7 56.0,78.9 58.5,78.1 62.5,77.2 70.1,76.4 71.5,76.0 72.4,75.4 73.0,74.5 73.9,70.9 74.1,69.7 73.9,68.0 73.3,64.6 72.9,63.5 72.1,62.2 71.9,61.1 72.2,59.9 79.8,44.5 81.1,43.3 100.5,30.5 105.5,29.5 107.7,29.2 110.7,29.0 111.5,29.0 112.3,29.1 117.8,33.2 118.3,34.7 117.3,36.2 117.0,37.5 117.4,38.4 126.5,46.4 131.2,47.6 132.1,47.4 133.7,46.5 134.6,45.1 135.6,43.0 137.6,37.3 137.8,36.2 128.1,18.6 127.4,17.7 125.7,16.3 123.9,15.5 122.4,15.2 120.7,15.1 118.2,15.2 117.7,14.9 117.6,14.3 116.7,8.7 116.5,7.4 116.7,6.8 125.0,0.0 125.8,0.0 155.1,5.0 156.8,5.8 157.6,6.3 161.4,14.1 165.0,15.6 189.1,26.7 199.0,34.3 199.9,35.0 204.4,39.7 205.9,41.9 206.1,42.9 206.6,43.9 209.9,46.9 218.1,54.2 218.9,54.8 220.2,55.4 222.3,55.9 225.5,56.4 238.8,59.8 258.8,65.9 266.1,68.2 275.8,76.0 279.2,80.6 292.1,85.6 292.9,85.5 294.5,85.7 296.6,86.2 308.5,90.0 312.5,91.3 314.1,92.2 320.8,97.4 321.6,98.1 325.7,103.5 326.6,105.5 304.5,116.4 287.0,115.5 285.8,115.1 283.5,114.6 281.7,114.6 280.3,114.7 276.3,115.7 272.7,117.7 269.2,120.5 267.6,122.2 267.1,123.1 266.9,124.3 267.2,124.8 271.6,127.7 272.7,128.2 274.2,128.5 277.6,128.6 280.8,129.2 284.3,130.6 285.4,131.2 286.2,132.0 286.2,133.2 286.0,133.8 281.0,145.7 279.9,145.4 279.0,145.3 278.3,145.4 277.7,145.6 261.0,151.9 258.7,152.8 244.5,158.8 241.5,157.6 240.3,157.0 237.4,155.1 236.1,154.0 233.4,148.4 233.4,147.8 233.9,142.9 235.4,142.0 236.3,142.1 236.9,141.9 237.4,141.0 237.3,140.4 234.7,134.2 230.5,131.2 229.9,130.9 228.5,131.2 227.9,131.4 220.3,135.9 218.6,137.4 216.8,139.5 214.2,142.6 213.3,144.0 213.2,144.7 213.5,145.7 213.8,147.3 213.2,148.4 200.2,162.2 166.1,199.7 165.4,200.7 168.0,202.8 172.7,205.6 178.2,209.0 180.6,210.6 182.4,212.0 182.5,213.0 180.3,215.6 179.4,216.4 178.9,217.4 178.7,218.1 174.9,234.4 174.3,240.7 177.9,250.0 167.9,243.3 164.9,242.0 159.9,240.7 158.6,240.9 156.9,240.8 150.7,238.3 149.0,237.5 146.7,235.8 146.1,234.9 144.4,231.8 144.0,230.8 144.6,228.8 145.5,226.0 145.3,224.1 144.4,221.5 135.6,211.5 132.3,208.0 131.6,207.8 130.8,207.8 124.8,204.8 118.9,200.1 107.6,187.9 107.0,187.1 105.9,186.5 105.1,186.4 102.0,185.9 101.4,185.8 96.4,186.2 73.2,172.5 71.6,173.6 69.5,174.4 68.9,174.6 68.0,174.4 67.3,174.3 62.1,171.2 57.6,166.9 57.5,166.4 57.8,165.8 58.6,165.0 59.9,164.5 63.4,165.0 67.4,165.7 68.8,166.1 70.1,167.0 70.7,167.3 79.8,170.2 80.5,170.3 81.5,167.5 81.5,166.9 81.0,165.9 77.5,160.8 76.5,160.1 52.8,161.2 52.1,161.3 51.6,161.6 50.5,161.8 47.8,159.7 45.9,157.9 45.0,156.6 44.3,154.6 44.0,152.8 44.0,151.6 44.3,145.0 " />
  </g>
</svg>