<?xml version="1.0" encoding="UTF-8" standalone="yes"?>
<!DOCTYPE svg PUBLIC "-//W3C//DTD SVG 1.0//EN" "http://www.w3.org/TR/2001/REC-SVG-20010904/DTD/svg10.dtd">
<svg height="250" width="370" xmlns="http://www.w3.org/2000/svg" xmlns:svg="http://www.w3.org/2000/svg" xmlns:xlink="http://www.w3.org/1999/xlink">


<g id="background">
<rect id="" width="370" height="250" fill="#222222"/>
</g>
  <g id="50" style="stroke-miterlimit: 3; fill: #F1F1F1; stroke: #000000; stroke-opacity: 1; stroke-width: 0.05; stroke-linejoin: bevel; stroke-linecap: square">
    <polygon id="Bangladesh" points="180.1,188.3 176.4,191.4 174.0,193.9 173.4,194.8 173.1,195.3 172.8,196.3 172.6,196.8 173.9,195.0 175.0,193.7 176.7,192.1 177.5,191.7 178.2,191.9 178.9,191.7 179.5,191.2 180.1,189.0 180.1,188.3 " />
    <polygon id="Bangladesh" points="103.5,3.4 109.5,7.1 110.9,6.8 114.0,9.0 114.6,10.2 115.0,12.7 116.4,14.4 121.5,16.6 128.4,16.8 129.6,15.5 129.3,14.9 126.6,12.6 126.0,12.2 124.7,11.8 124.0,11.5 123.7,10.9 123.7,10.1 124.4,8.8 125.0,7.9 125.7,8.2 130.4,10.4 131.4,14.2 132.7,19.2 133.1,20.0 138.3,24.0 141.1,25.8 142.1,26.1 149.0,26.6 150.8,26.1 153.1,23.9 152.8,22.6 152.2,21.6 151.6,21.0 151.4,20.4 153.1,17.2 154.3,16.9 155.1,18.8 156.3,19.9 157.1,20.1 158.0,19.9 158.7,20.1 160.6,23.0 162.8,26.8 163.6,30.8 162.8,32.1 162.3,33.1 161.9,33.8 161.9,34.6 163.5,39.9 164.1,41.5 164.2,42.1 164.2,43.6 164.1,44.8 163.7,47.4 162.8,50.6 162.6,51.2 162.2,53.4 162.2,53.9 162.9,56.2 163.4,57.0 164.2,57.1 165.0,56.9 165.7,56.3 166.5,56.1 168.6,56.7 171.7,58.2 177.2,60.2 186.3,62.7 187.5,62.9 188.6,63.0 189.4,62.7 189.9,62.3 192.2,61.8 192.7,61.9 195.1,62.2 205.4,62.9 206.0,62.9 206.9,62.8 210.9,62.4 212.4,61.9 214.0,61.4 215.3,61.1 216.9,60.9 219.7,60.9 223.1,60.4 223.8,60.5 225.6,61.5 232.4,63.2 232.9,63.3 242.0,63.1 242.6,62.5 244.2,62.1 252.0,61.4 255.7,61.2 256.6,61.3 258.8,61.7 259.7,62.0 263.0,63.3 268.9,65.9 272.1,67.9 272.3,68.6 272.3,69.8 272.5,70.4 273.3,70.9 274.0,71.0 275.3,72.2 275.6,72.9 275.8,74.2 275.0,74.9 273.5,75.6 271.9,76.0 271.1,75.5 269.4,74.2 267.3,73.3 266.5,73.1 265.7,73.3 265.2,74.0 265.3,75.1 265.5,75.9 265.9,76.4 266.0,77.2 265.9,77.9 265.7,78.8 265.4,80.1 263.1,87.2 262.7,88.0 260.8,89.3 260.4,89.8 260.4,90.6 260.4,91.1 260.7,93.1 260.6,94.1 260.0,95.0 254.4,98.1 253.9,98.1 252.6,96.8 251.6,97.4 251.4,98.0 251.8,99.1 252.0,100.0 250.9,104.1 250.6,105.0 250.0,105.3 244.3,105.1 237.6,107.5 236.5,107.8 235.6,108.0 234.5,107.9 232.9,107.8 230.6,107.1 229.9,106.9 229.3,107.0 228.7,107.1 223.9,112.9 222.5,115.6 222.5,116.6 223.0,117.6 223.2,118.2 223.0,118.8 221.9,121.7 221.2,122.2 220.3,122.2 219.8,122.2 219.1,122.8 219.0,123.5 219.2,126.9 219.4,127.7 221.1,132.1 221.5,132.7 223.2,134.9 224.4,138.2 225.1,141.4 225.7,144.0 225.8,145.1 226.0,146.0 226.4,148.4 226.6,149.2 227.2,150.2 227.8,150.8 228.5,151.3 229.0,151.3 229.6,150.7 229.6,150.2 229.0,148.6 228.6,146.4 228.4,145.3 228.5,144.6 229.1,142.9 230.1,142.8 231.4,143.6 232.5,144.6 233.3,147.2 235.6,153.9 236.2,154.6 238.3,156.3 243.2,154.3 245.4,152.5 246.9,150.7 247.2,149.9 246.5,147.3 246.1,145.8 245.6,144.4 245.1,143.7 245.0,143.2 245.0,142.7 245.1,142.0 245.7,140.8 246.1,140.0 246.4,139.5 248.3,136.7 249.8,135.7 250.9,135.4 251.5,135.3 253.3,133.0 253.4,132.3 253.3,130.2 253.1,129.3 252.9,128.6 252.4,126.8 252.2,125.8 252.3,124.8 252.5,123.4 253.3,123.0 253.9,124.3 255.9,126.6 257.6,126.5 259.5,124.8 262.2,122.8 263.4,124.1 266.2,123.5 266.8,124.1 267.1,124.8 267.5,129.8 268.5,134.7 270.0,138.5 270.5,139.6 271.2,141.6 271.2,142.2 270.3,143.5 269.7,144.1 269.8,146.5 270.7,156.5 274.8,164.4 275.2,164.9 276.1,165.2 276.7,165.8 277.4,171.2 277.4,171.7 277.2,172.3 277.1,173.0 278.9,181.3 279.4,182.8 280.1,189.0 280.1,190.7 279.6,193.7 280.3,197.2 280.5,198.0 280.9,199.8 281.1,200.9 281.2,201.5 281.1,202.2 280.6,202.9 280.2,205.2 280.2,210.6 280.3,211.4 280.3,212.0 281.0,219.0 281.6,221.3 282.0,223.1 282.3,224.1 282.6,225.0 282.9,225.6 283.2,226.3 281.3,228.0 280.6,228.3 280.1,228.2 279.6,227.5 277.6,222.9 271.2,219.0 270.2,218.8 265.9,221.3 264.3,223.7 263.5,226.1 263.6,229.6 263.6,232.8 264.4,233.6 264.8,234.1 265.9,236.6 265.7,237.5 265.7,239.6 265.7,240.3 265.9,241.7 266.0,242.3 266.2,242.8 267.2,244.5 268.0,246.1 268.8,248.5 269.0,249.4 268.7,250.0 267.7,249.2 264.3,243.0 263.6,241.7 260.0,236.0 258.0,233.7 257.6,233.1 257.0,232.2 256.8,231.6 256.8,230.7 256.9,229.2 257.1,228.1 257.0,227.1 256.8,226.5 256.0,224.9 254.9,223.3 253.9,221.9 252.9,219.8 253.7,219.1 255.0,217.8 256.4,211.9 256.5,210.9 256.0,209.1 255.5,210.0 255.5,210.8 254.4,211.4 253.8,211.1 253.2,210.0 252.6,207.8 252.9,206.8 252.7,205.3 250.6,206.0 251.2,202.3 250.7,199.7 248.8,192.1 248.2,191.5 247.7,191.3 247.3,190.7 247.0,190.0 246.8,188.3 245.9,186.7 245.2,185.7 244.7,182.9 244.6,181.5 244.5,180.8 244.2,180.1 243.9,179.3 242.5,176.4 242.1,175.8 240.8,173.7 240.3,173.0 236.5,167.9 235.5,166.7 231.7,163.0 226.6,166.2 223.1,168.5 223.5,169.1 223.5,169.8 223.3,170.3 222.3,171.6 217.7,172.0 217.2,172.0 214.2,171.4 212.7,171.9 212.2,172.2 211.7,172.4 211.1,172.3 210.2,171.9 205.4,167.4 203.9,165.4 203.2,164.4 201.8,161.6 201.7,160.0 200.7,157.3 200.0,156.2 198.8,154.4 197.3,152.7 196.7,152.3 196.5,151.6 197.1,146.0 197.3,145.2 196.7,140.6 196.1,140.2 195.2,138.5 195.3,134.8 195.7,133.9 196.5,133.5 197.2,133.4 197.9,133.5 199.2,133.9 199.7,133.6 200.2,133.0 200.4,132.3 200.4,130.9 199.3,130.7 199.6,131.8 199.5,132.3 198.3,132.1 197.5,132.3 195.6,133.3 194.9,131.4 194.9,130.9 195.7,129.5 195.2,128.7 193.8,129.2 190.1,129.6 190.6,130.2 191.2,130.6 191.9,130.8 194.3,130.9 194.6,132.0 194.4,135.1 194.3,135.6 193.3,137.8 190.6,137.3 186.9,136.5 185.9,136.3 184.2,135.9 183.2,135.6 183.1,136.5 188.0,140.2 190.0,141.1 190.8,141.3 191.5,141.4 192.3,141.5 193.5,141.6 194.2,141.8 195.7,143.7 196.0,144.6 196.1,146.0 195.5,148.7 195.3,149.4 194.5,150.2 193.9,150.8 193.3,151.0 190.9,151.0 189.4,151.0 188.9,151.3 189.0,152.0 190.4,155.6 190.1,159.1 188.0,163.8 189.3,164.7 191.0,167.0 194.7,173.8 194.9,174.4 195.4,176.1 195.6,176.8 195.0,178.1 196.2,180.7 196.2,181.5 196.2,182.2 196.0,183.3 195.9,184.0 195.6,184.8 193.9,187.6 192.4,188.5 191.0,189.2 190.8,190.4 188.9,193.2 188.3,193.5 186.7,192.6 186.5,192.1 187.2,190.0 187.2,187.7 187.2,186.6 187.0,185.4 186.5,187.2 186.6,187.8 186.8,189.5 185.7,193.0 185.2,193.7 184.6,194.3 184.1,195.0 183.5,196.4 183.1,197.2 183.0,197.9 182.4,200.5 182.0,201.8 181.8,202.3 181.6,202.9 179.0,204.7 178.4,204.9 177.2,205.0 176.6,204.9 174.9,204.4 171.0,202.4 171.2,199.1 171.4,198.5 172.5,196.9 171.9,197.3 170.3,196.8 169.7,195.4 171.7,191.2 172.5,190.5 173.1,190.2 173.4,189.7 172.8,189.7 171.9,190.3 169.1,194.8 169.0,195.5 169.3,196.5 169.3,197.2 169.1,197.7 168.4,197.7 167.8,197.5 167.3,196.8 166.4,194.9 166.2,194.3 166.2,193.6 166.4,192.2 166.4,191.1 166.4,190.3 165.6,188.0 165.2,187.2 164.8,186.4 164.6,185.4 164.7,184.4 166.2,181.4 166.4,180.9 167.1,180.0 167.7,179.3 168.7,178.4 169.4,177.4 170.0,176.0 169.2,176.6 167.6,178.1 166.2,179.9 164.1,183.1 163.5,184.3 163.3,185.1 163.3,185.7 163.7,187.2 164.0,187.9 164.1,188.4 164.3,189.2 164.4,190.3 164.5,192.1 164.4,192.9 164.1,193.4 163.5,196.9 163.5,197.7 163.7,198.4 164.3,199.4 165.1,200.5 165.2,201.0 164.8,201.5 162.4,203.4 161.4,203.8 160.8,203.9 157.2,205.6 152.2,209.1 151.4,208.8 150.8,208.2 150.5,207.5 149.7,204.9 149.6,204.4 149.8,203.8 150.2,203.2 151.1,202.3 151.6,201.6 151.8,201.0 152.9,193.0 153.2,185.6 153.9,182.7 152.1,185.3 150.9,187.6 150.7,188.2 150.8,188.7 151.2,189.3 152.0,190.4 152.2,191.1 152.2,191.7 150.9,196.4 150.4,197.1 149.8,196.9 150.2,193.8 149.8,192.3 149.2,190.5 148.2,188.1 148.2,187.3 148.3,186.6 148.6,185.8 148.5,184.9 147.8,184.1 147.2,186.8 147.2,187.5 148.5,190.9 148.9,191.8 149.3,192.7 149.6,193.7 148.3,195.1 149.6,198.5 149.5,200.2 147.3,206.0 147.1,206.6 145.5,208.5 144.8,208.8 144.2,208.8 143.7,208.4 143.2,207.7 143.0,206.3 142.9,204.7 143.0,203.7 143.2,203.1 143.7,202.4 143.9,201.8 143.9,200.7 143.5,199.5 142.8,198.0 140.1,206.6 140.0,210.4 138.6,211.5 137.8,211.7 137.3,211.7 136.8,211.7 136.2,211.3 136.3,210.4 136.7,209.7 136.8,208.2 135.6,205.5 134.4,205.5 133.7,205.6 132.1,204.8 130.9,200.9 131.3,198.0 131.4,195.9 130.2,194.2 130.0,193.5 130.1,192.5 130.3,191.6 131.2,190.8 131.7,190.2 130.8,188.4 129.8,187.5 128.5,185.8 127.9,184.7 127.3,182.7 127.1,179.8 124.8,159.7 121.8,155.7 121.7,155.2 121.8,154.2 122.0,150.5 122.3,150.0 123.1,149.5 124.0,148.8 126.9,145.9 127.0,145.2 120.9,143.7 120.3,143.7 119.8,144.1 119.3,144.5 116.3,143.7 115.7,143.4 115.4,142.5 115.3,141.0 116.5,139.2 118.5,134.9 118.8,134.1 118.9,133.4 118.7,132.9 118.1,132.8 118.0,133.5 117.4,134.1 110.1,128.5 109.3,126.9 109.6,121.5 110.5,118.1 110.7,117.5 111.8,117.0 114.3,116.2 116.2,115.2 117.4,110.1 115.9,109.1 115.1,108.4 114.8,107.8 115.2,106.5 114.9,105.7 115.2,104.4 115.6,103.8 116.1,103.8 116.8,103.6 117.1,102.7 116.6,101.4 116.2,100.6 115.8,99.7 115.1,98.8 113.8,98.1 113.5,98.6 112.8,99.2 107.4,98.3 106.7,98.2 104.8,97.2 100.7,94.2 97.2,92.5 95.5,91.9 94.8,91.7 90.9,90.2 90.0,89.6 87.0,82.9 87.0,82.4 91.0,76.9 92.0,76.0 92.4,75.3 92.1,74.0 91.5,73.3 90.9,72.7 93.4,71.4 94.0,71.1 94.6,71.2 96.2,72.6 96.5,73.3 96.9,74.0 98.1,74.6 99.3,74.8 102.0,71.9 103.7,68.2 104.7,66.3 104.7,63.2 104.6,62.7 104.4,62.0 104.2,61.5 104.7,61.0 105.5,60.8 111.5,60.8 112.6,60.8 115.1,60.9 122.9,61.8 124.7,62.2 125.3,62.1 127.8,57.4 128.0,56.8 127.4,56.1 126.8,56.1 125.3,56.3 124.8,56.2 122.6,55.4 122.1,55.0 121.0,53.8 120.0,52.2 120.4,51.5 120.8,50.9 120.8,50.0 120.7,49.4 120.4,48.7 119.1,47.6 117.7,47.3 115.7,48.3 112.8,48.5 108.8,47.8 104.6,44.4 104.1,43.6 104.1,43.1 104.3,42.4 104.3,41.7 104.1,41.0 97.0,35.2 96.5,34.8 95.8,34.7 94.9,34.9 93.8,35.5 92.7,36.0 91.9,36.2 91.1,35.7 89.9,33.8 89.2,30.4 91.9,22.7 92.9,20.5 97.3,18.5 99.3,17.8 100.2,17.3 100.4,16.7 100.3,16.2 100.1,15.7 100.2,14.9 100.7,14.2 102.0,13.0 105.3,11.7 106.8,11.7 107.3,11.7 107.4,10.9 107.0,9.6 106.2,7.8 105.7,7.2 104.1,6.8 101.2,6.0 100.5,7.4 100.0,7.5 99.5,6.7 99.4,6.2 101.1,2.2 102.2,0.3 102.7,0.1 103.0,1.3 102.9,2.0 103.0,2.6 103.4,3.3 " />
    <polygon id="Bangladesh" points="194.3,130.1 193.9,129.6 194.6,129.2 194.3,130.1 " />
    <polygon id="Bangladesh" points="199.1,133.6 198.2,133.3 197.6,132.8 198.3,132.6 199.1,132.8 199.3,133.4 " />
    <polygon id="Bangladesh" points="192.9,139.5 193.7,140.0 194.8,140.7 195.0,141.2 193.9,141.0 192.3,139.9 191.6,141.0 188.8,139.3 187.9,138.0 189.2,137.8 190.0,138.1 191.9,138.8 192.5,139.1 " />
    <polygon id="Bangladesh" points="192.5,152.1 192.6,151.4 193.2,151.4 192.6,152.0 " />
    <polygon id="Bangladesh" points="190.2,153.7 189.7,153.0 189.7,152.4 189.6,151.5 191.5,151.4 191.8,152.0 190.8,152.8 190.3,153.6 " />
    <polygon id="Bangladesh" points="198.1,155.9 196.8,156.2 197.8,156.9 198.2,157.5 191.9,156.2 191.4,155.9 191.6,155.0 193.0,153.2 194.0,152.4 194.7,152.5 197.9,155.7 " />
    <polygon id="Bangladesh" points="193.2,166.0 192.0,167.4 191.0,165.1 190.6,164.5 190.0,164.3 189.4,164.0 189.7,159.9 193.3,159.0 194.9,159.1 197.2,159.6 198.0,159.8 199.0,160.3 199.4,160.8 198.9,162.0 197.8,162.7 196.6,163.0 194.0,163.2 193.0,163.3 193.1,164.6 193.2,166.0 " />
    <polygon id="Bangladesh" points="202.4,193.7 198.5,197.0 197.1,196.8 195.6,195.3 196.3,190.7 196.5,189.9 196.7,189.1 197.6,187.1 198.1,186.5 198.5,185.8 198.7,185.0 199.0,182.0 199.0,179.8 198.7,177.6 198.2,175.2 197.5,173.4 197.0,172.8 196.0,172.6 195.4,172.3 193.6,170.8 193.4,169.9 193.4,169.3 193.5,168.4 193.6,167.7 194.4,164.6 194.7,163.9 195.5,163.5 197.2,163.3 197.9,163.3 198.5,163.3 199.4,165.1 199.5,165.6 199.8,166.9 199.9,167.5 199.9,168.0 200.1,168.7 203.7,173.0 205.2,174.4 206.5,175.3 207.0,176.0 207.2,177.1 207.3,178.0 206.7,182.9 206.1,186.0 205.9,186.7 205.1,189.8 204.8,190.7 202.8,193.3 " />
    <polygon id="Bangladesh" points="226.8,169.7 225.9,170.6 225.3,169.8 226.1,169.6 226.8,169.5 " />
    <polygon id="Bangladesh" points="234.9,181.7 234.2,181.8 233.5,181.7 232.6,181.1 231.4,179.3 230.6,178.1 229.7,176.4 229.5,175.3 229.5,174.8 229.6,174.3 230.6,170.3 231.4,170.2 231.9,170.8 234.6,174.7 234.9,175.3 236.0,177.6 236.3,178.6 236.5,179.4 236.5,179.9 236.4,180.6 235.9,181.1 234.9,181.7 " />
    <polygon id="Bangladesh" points="213.8,192.9 214.6,189.2 214.7,188.7 215.1,184.4 215.1,182.4 215.1,181.8 215.1,180.0 215.5,174.9 215.7,174.3 216.3,174.2 216.7,174.8 218.5,179.1 219.8,182.9 220.0,184.1 220.0,185.2 220.0,186.0 219.8,187.2 219.7,187.9 219.4,188.5 218.4,189.6 215.9,191.6 214.4,192.6 213.8,192.9 " />
    <polygon id="Bangladesh" points="198.1,178.0 197.5,178.5 197.4,177.5 197.6,176.7 198.3,176.9 198.2,177.9 " />
    <polygon id="Bangladesh" points="212.7,178.4 212.2,178.3 211.9,177.8 211.9,177.2 212.5,176.4 212.8,178.3 " />
    <polygon id="Bangladesh" points="221.3,179.0 220.4,179.9 219.6,178.2 219.4,177.4 220.5,177.2 221.4,178.5 " />
    <polygon id="Bangladesh" points="213.9,179.3 213.4,179.3 213.6,177.7 214.1,177.2 214.6,177.8 214.7,178.6 213.9,179.3 " />
    <polygon id="Bangladesh" points="198.0,181.4 197.2,183.4 197.0,181.7 196.9,181.0 196.1,178.7 195.5,178.5 195.5,177.8 196.1,177.3 197.6,179.7 198.0,180.7 198.0,181.2 " />
    <polygon id="Bangladesh" points="212.7,180.9 212.0,180.5 211.7,179.6 211.9,179.0 212.5,179.4 212.9,180.1 212.8,180.8 " />
    <polygon id="Bangladesh" points="210.3,187.1 209.7,186.9 209.7,186.4 210.9,181.6 211.6,181.4 211.9,181.9 212.1,182.5 212.1,183.1 211.9,184.3 211.4,185.4 210.4,187.0 " />
    <polygon id="Bangladesh" points="211.8,188.7 211.2,187.0 211.2,186.3 211.9,185.5 212.3,186.9 211.8,188.6 " />
    <polygon id="Bangladesh" points="209.8,191.7 209.1,191.5 208.8,190.9 209.5,187.8 210.2,187.6 210.6,190.3 210.4,191.0 209.9,191.6 " />
    <polygon id="Bangladesh" points="191.9,189.6 192.4,188.9 191.9,189.6 " />
    <polygon id="Bangladesh" points="192.2,196.8 191.2,196.5 190.3,194.9 190.6,193.3 193.8,190.6 194.7,190.1 195.9,189.4 193.9,194.9 193.6,195.6 193.1,196.3 192.2,196.8 " />
    <polygon id="Bangladesh" points="185.9,196.0 184.5,197.9 184.4,197.3 184.9,196.3 185.8,194.4 186.4,194.5 186.4,195.0 185.9,196.0 " />
    <polygon id="Bangladesh" points="187.4,200.7 186.9,200.5 186.7,199.6 187.1,195.6 187.7,194.9 188.2,194.7 189.5,195.7 189.9,196.2 190.4,197.2 190.6,197.8 190.5,198.3 190.1,198.9 188.4,200.5 187.4,200.7 " />
    <polygon id="Bangladesh" points="184.0,203.2 183.4,203.1 183.2,202.5 183.2,202.0 183.5,200.5 183.7,199.9 185.1,197.4 185.6,196.8 186.3,196.6 184.6,202.3 184.3,203.0 " />
    <polygon id="Bangladesh" points="192.2,202.6 191.5,202.5 191.9,199.7 192.4,198.8 194.8,197.3 195.6,198.8 194.9,200.1 192.2,202.6 " />
    <polygon id="Bangladesh" points="199.7,198.4 199.1,199.0 198.6,198.4 199.3,197.6 199.8,198.1 " />
    <polygon id="Bangladesh" points="197.3,200.5 196.8,200.2 196.9,199.4 197.6,198.6 198.2,198.4 198.3,199.0 197.8,199.6 197.6,200.1 " />
    <polygon id="Bangladesh" points="247.7,208.3 247.3,206.5 247.7,201.2 248.2,200.5 248.7,199.8 249.3,199.8 249.7,200.8 249.9,201.6 250.1,202.4 250.0,203.1 248.4,207.2 247.9,208.1 " />
    <polygon id="Bangladesh" points="201.9,201.1 201.4,200.8 201.3,199.9 202.2,200.2 202.3,200.8 " />
    <polygon id="Bangladesh" points="133.0,208.6 132.4,208.5 130.7,206.3 129.3,200.8 129.6,200.2 130.1,200.3 130.4,200.9 130.9,202.6 131.1,204.1 131.4,205.5 133.0,206.1 133.7,206.9 133.9,207.7 133.7,208.4 133.0,208.6 " />
    <polygon id="Bangladesh" points="188.3,204.1 187.8,204.1 189.2,202.8 189.0,203.7 188.3,204.1 " />
    <polygon id="Bangladesh" points="190.8,204.8 190.3,204.8 189.8,204.1 190.8,204.3 190.8,204.8 " />
    <polygon id="Bangladesh" points="250.5,218.7 249.6,218.6 249.0,218.1 248.7,217.1 248.2,209.6 248.3,208.9 248.8,207.9 249.0,207.3 249.8,206.9 252.1,207.7 252.6,209.9 253.9,211.6 254.0,212.1 254.1,212.9 254.0,213.9 253.4,216.9 253.0,217.4 250.5,218.7 " />
  </g>
</svg>