<?xml version="1.0" encoding="UTF-8" standalone="yes"?>
<!DOCTYPE svg PUBLIC "-//W3C//DTD SVG 1.0//EN" "http://www.w3.org/TR/2001/REC-SVG-20010904/DTD/svg10.dtd">
<svg height="250" width="370" xmlns="http://www.w3.org/2000/svg" xmlns:svg="http://www.w3.org/2000/svg" xmlns:xlink="http://www.w3.org/1999/xlink">


<g id="background">
<rect id="" width="370" height="250" fill="#222222"/>
</g>
  <g id="504" style="stroke-miterlimit: 3; fill: #F1F1F1; stroke: #000000; stroke-opacity: 1; stroke-width: 0.05; stroke-linejoin: bevel; stroke-linecap: square">
    <polygon id="Morocco" points="125.8,96.4 126.4,95.7 128.8,93.8 129.4,93.4 132.2,91.0 135.0,88.7 138.6,85.0 139.1,84.4 139.1,83.8 140.5,81.8 141.4,80.8 142.4,80.7 143.3,80.7 143.9,80.6 145.1,80.1 146.9,78.7 147.7,77.9 148.3,77.3 148.8,76.9 150.0,76.5 152.3,76.0 154.0,75.7 154.7,75.5 159.2,73.7 161.9,72.5 162.8,72.2 166.6,71.0 169.7,70.0 173.0,68.8 176.2,66.6 181.1,64.3 181.9,63.9 185.4,62.6 186.6,62.2 189.0,60.7 190.0,59.9 192.8,57.6 193.9,56.6 194.3,55.9 196.6,52.2 198.5,49.2 198.9,48.5 200.2,46.7 203.5,41.7 206.8,36.3 207.4,35.2 208.2,33.9 208.7,32.8 209.8,30.7 210.9,27.6 211.9,25.0 213.1,22.3 215.1,17.8 216.7,14.2 218.4,10.3 219.3,7.7 220.2,4.8 220.8,3.9 222.9,3.7 226.0,3.4 230.5,2.9 232.0,2.4 233.0,1.6 233.7,0.8 234.7,0.2 236.2,0.0 236.7,0.7 237.1,1.4 237.8,2.2 238.1,2.7 238.3,3.9 238.6,5.5 238.8,6.5 240.8,10.2 242.0,11.1 249.6,16.7 251.0,18.1 254.9,20.2 256.5,21.0 257.0,21.3 257.8,21.5 260.6,22.0 263.1,22.4 266.0,23.2 267.9,23.4 269.1,23.2 269.6,22.8 270.7,22.3 272.3,22.1 275.0,21.8 275.5,21.6 276.1,21.3 277.0,20.8 278.2,20.4 281.1,20.0 281.7,20.3 281.7,20.8 282.8,21.6 283.4,21.8 284.1,21.8 284.9,21.7 286.3,20.5 289.2,19.6 291.3,20.8 296.7,21.9 297.4,22.0 298.9,22.0 299.9,21.9 304.1,20.4 306.7,19.3 307.3,18.9 308.4,17.4 309.6,15.2 310.3,16.9 310.8,17.9 310.1,18.4 310.0,18.9 310.3,19.5 310.8,19.9 311.4,19.8 312.1,20.0 312.1,21.2 311.8,22.0 312.1,22.9 312.7,23.5 313.9,24.0 315.2,24.1 315.8,24.2 315.4,23.4 314.5,22.8 313.5,21.8 312.7,21.0 312.6,20.5 314.8,22.1 315.9,23.0 316.7,23.5 318.9,24.5 320.2,24.8 322.8,25.0 323.8,24.9 324.7,24.6 329.0,24.1 331.6,24.9 332.9,25.2 333.2,26.5 333.5,27.0 337.2,29.5 343.8,33.9 345.4,34.7 346.0,34.9 346.5,35.1 347.1,35.5 345.6,37.8 345.0,38.4 343.9,39.3 343.9,39.9 347.2,42.8 348.0,43.1 348.6,43.2 347.5,44.8 345.7,46.7 347.0,47.5 347.9,50.0 349.8,55.1 348.9,59.1 348.3,61.2 348.2,61.7 347.6,66.9 348.0,67.6 348.5,67.8 349.5,68.1 350.3,68.7 351.3,70.4 351.5,71.4 351.6,72.6 350.8,74.7 350.1,75.9 349.6,76.6 349.4,77.6 349.5,80.5 350.2,81.6 352.1,84.0 353.1,85.0 354.1,85.7 354.7,86.1 355.2,86.6 355.3,87.3 355.2,88.1 355.1,88.7 354.8,89.3 353.3,90.2 358.1,96.8 361.6,98.5 369.4,103.3 368.5,104.4 367.8,105.1 366.2,106.0 365.4,106.3 364.7,106.2 364.1,106.3 363.5,106.7 363.0,107.3 362.2,108.8 361.9,111.4 361.9,112.4 360.9,113.3 360.9,113.9 361.4,114.0 362.4,113.6 363.3,113.4 364.3,114.3 364.4,115.0 364.0,115.6 363.3,116.0 362.5,116.1 361.9,116.1 361.2,116.0 360.7,115.7 360.0,115.6 355.4,115.4 354.8,115.4 349.7,115.3 342.4,115.1 341.5,115.0 340.0,114.9 336.5,114.6 335.3,114.4 334.4,114.3 331.4,114.0 330.3,113.9 329.4,113.9 326.8,114.2 325.4,114.3 313.6,116.0 312.5,116.5 311.9,116.9 311.2,117.6 310.9,118.2 310.7,119.7 310.8,120.2 310.8,120.8 310.7,121.6 310.4,122.7 310.0,123.2 309.2,123.7 306.2,124.8 304.3,125.4 302.0,126.0 300.4,126.4 297.5,127.0 296.4,127.5 294.6,128.4 293.7,128.6 292.6,128.4 291.9,128.3 290.1,127.9 289.4,127.5 288.4,127.3 287.5,127.3 285.4,127.6 284.7,127.8 284.1,128.1 283.9,129.3 283.6,133.9 283.7,134.6 284.0,135.1 284.8,138.7 284.1,143.4 284.1,144.0 284.7,144.5 285.3,144.5 288.0,144.4 290.9,146.1 291.2,147.9 291.1,148.5 290.9,149.2 290.2,149.9 289.6,150.2 288.1,150.7 287.4,150.9 286.6,150.8 284.9,150.8 283.7,150.9 282.5,151.0 281.1,151.1 279.2,151.5 278.3,151.7 277.7,152.1 274.9,154.8 274.3,155.4 273.7,156.0 272.6,156.6 271.8,157.0 271.0,157.2 268.8,158.2 268.0,158.7 267.4,159.3 266.8,159.6 265.8,160.0 264.7,160.1 259.5,161.1 251.3,163.8 250.6,164.2 249.6,165.0 248.7,166.4 248.3,167.3 247.7,168.4 247.1,169.7 246.3,171.1 244.5,173.3 244.0,173.8 243.4,174.4 241.8,176.0 240.2,177.6 239.1,178.5 238.2,179.2 236.7,180.0 232.7,182.0 231.6,182.4 230.9,182.4 229.6,182.5 227.5,182.6 226.4,182.8 224.6,183.0 221.4,183.6 220.2,184.0 218.8,184.4 218.2,184.4 217.3,184.4 216.5,184.0 215.8,183.9 214.9,183.8 214.3,183.8 213.5,184.0 212.7,184.8 212.1,185.3 211.3,185.4 206.2,185.2 203.7,187.0 203.3,189.2 202.9,190.2 202.4,190.9 201.5,191.8 200.9,192.3 200.3,192.4 199.0,192.4 197.3,192.1 196.4,191.8 195.7,191.5 194.7,191.3 192.8,191.0 185.0,190.2 184.3,190.3 182.1,191.4 179.1,193.2 178.5,193.7 177.8,194.8 177.2,195.6 174.9,197.5 174.0,197.8 173.2,197.9 172.3,197.8 171.7,197.7 171.0,197.6 170.1,197.6 169.2,197.7 168.6,197.8 168.1,198.2 167.1,199.2 163.8,201.8 158.1,205.8 153.6,207.7 152.6,208.2 151.7,208.7 146.9,212.0 146.2,212.7 145.8,213.2 145.3,214.0 142.7,215.9 141.9,216.2 140.9,216.5 140.3,216.8 138.7,217.6 137.5,218.3 137.5,241.9 137.5,249.9 118.4,249.9 117.3,249.9 107.2,249.9 102.2,249.9 99.2,249.9 97.2,249.9 96.5,250.0 95.1,250.0 93.5,250.0 88.1,249.9 11.1,249.9 4.3,249.9 1.2,249.9 1.3,249.2 1.9,248.8 2.8,248.5 4.2,247.7 4.9,247.3 5.6,246.6 6.2,245.3 6.7,244.0 7.0,243.2 7.3,242.4 9.3,241.2 11.0,240.9 13.4,240.5 15.2,240.3 18.0,240.1 25.0,238.9 34.6,237.3 38.3,235.3 44.7,233.0 47.4,232.0 50.3,231.0 51.3,230.7 53.0,229.7 53.6,229.2 57.7,223.9 59.0,223.0 61.9,220.4 63.6,218.9 64.0,218.2 64.3,217.6 65.1,217.0 69.1,215.0 75.3,212.0 77.6,211.2 78.4,210.8 80.5,209.4 81.4,208.7 82.1,208.1 83.8,206.6 84.1,206.0 85.2,204.4 86.6,202.7 87.7,201.7 88.4,201.3 89.2,200.9 89.8,200.4 90.3,199.8 93.0,196.6 94.7,193.8 94.9,193.1 94.9,192.5 95.2,191.8 100.9,186.0 102.5,184.3 103.4,183.3 104.1,182.1 105.1,180.4 107.2,176.5 108.0,174.4 109.0,168.0 109.1,167.2 106.2,162.9 103.4,160.7 102.4,160.3 101.6,157.2 102.1,156.4 102.5,155.7 102.8,154.6 102.7,152.5 102.4,150.6 101.9,145.5 101.9,145.0 102.4,142.6 102.7,141.4 103.0,140.5 103.1,139.3 103.1,138.6 102.9,138.0 102.6,137.4 102.9,135.4 104.0,133.7 105.2,132.0 106.6,130.0 106.7,128.7 106.8,127.7 108.0,126.1 108.5,125.5 113.7,120.4 116.1,118.3 116.7,117.5 118.9,113.4 119.4,111.8 119.5,109.1 119.2,103.2 118.9,102.5 119.0,102.0 120.9,100.3 122.3,99.3 123.3,98.6 124.7,97.4 125.8,96.4 " />
  </g>
</svg>