<?xml version="1.0" encoding="UTF-8" standalone="yes"?>
<!DOCTYPE svg PUBLIC "-//W3C//DTD SVG 1.0//EN" "http://www.w3.org/TR/2001/REC-SVG-20010904/DTD/svg10.dtd">
<svg height="250" width="370" xmlns="http://www.w3.org/2000/svg" xmlns:svg="http://www.w3.org/2000/svg" xmlns:xlink="http://www.w3.org/1999/xlink">


<g id="background">
<rect id="" width="370" height="250" fill="#222222"/>
</g>
  <g id="508" style="stroke-miterlimit: 3; fill: #F1F1F1; stroke: #000000; stroke-opacity: 1; stroke-width: 0.05; stroke-linejoin: bevel; stroke-linecap: square">
    <polygon id="Mozambique" points="172.8,23.8 172.5,24.5 173.1,24.7 173.3,24.0 " />
    <polygon id="Mozambique" points="171.0,23.5 " />
    <polygon id="Mozambique" points="260.9,8.6 261.5,8.2 261.9,9.1 260.9,10.8 260.4,11.4 259.7,12.4 259.2,12.9 260.5,14.1 260.2,16.0 259.8,16.8 259.8,18.0 260.1,19.3 260.5,20.4 261.0,22.7 261.1,28.1 261.1,29.9 260.5,30.9 261.0,31.3 261.8,31.8 262.5,34.1 263.1,34.8 261.2,36.9 260.6,36.8 259.7,37.5 259.6,38.2 260.3,38.8 260.9,38.9 261.0,38.3 262.2,38.0 262.0,41.7 261.5,43.3 262.3,44.1 261.6,45.8 261.3,46.4 262.1,47.2 261.5,48.3 261.6,49.1 262.4,52.2 262.8,52.7 263.2,54.1 263.1,54.9 262.8,55.7 262.2,56.1 261.5,56.3 261.8,57.0 262.4,57.6 263.2,56.8 263.9,56.6 264.7,58.0 264.4,59.1 263.8,59.4 263.1,60.0 263.0,61.2 263.5,61.3 263.8,60.5 265.0,60.0 265.5,60.0 266.0,60.7 266.2,64.5 266.2,65.0 266.0,65.7 264.5,67.3 264.7,68.0 265.0,68.8 264.1,70.3 262.6,70.8 262.0,71.0 261.4,71.0 261.1,71.8 262.1,72.2 262.4,71.7 263.0,71.5 263.5,72.1 263.7,72.9 263.5,73.5 262.3,76.4 261.8,77.0 260.6,77.9 260.1,78.2 259.5,78.9 259.1,79.6 258.5,80.4 257.0,81.8 255.2,83.4 255.4,84.1 254.8,85.5 253.7,87.0 253.0,87.9 252.4,88.0 251.8,88.0 250.4,88.6 250.3,90.0 250.5,90.6 248.7,92.5 245.8,94.3 244.7,94.8 242.8,95.8 241.0,97.0 240.0,97.6 240.0,98.6 239.6,99.3 236.5,100.2 235.5,100.4 233.2,100.7 232.0,101.1 228.8,102.3 227.8,102.6 226.6,103.1 226.1,103.4 224.3,104.4 223.4,104.6 222.9,104.7 222.2,104.9 221.4,105.1 220.8,105.3 219.4,106.1 216.8,107.6 213.9,109.2 211.0,111.0 208.9,112.9 208.4,113.5 208.1,114.0 207.6,114.7 206.3,114.2 206.1,113.5 205.6,113.0 205.1,113.0 205.9,114.4 206.8,115.3 207.1,115.8 206.7,116.5 205.9,117.5 204.2,119.3 201.6,121.8 199.9,123.3 198.7,125.1 198.4,126.0 197.2,127.0 196.1,128.4 194.7,128.6 194.1,127.8 194.3,127.2 193.7,127.3 193.2,128.1 192.0,129.0 190.4,129.7 189.4,130.4 188.4,131.1 187.3,131.9 186.7,133.0 185.8,134.2 183.9,136.4 182.6,137.7 181.5,138.7 178.7,141.0 175.5,143.2 174.8,143.2 174.4,142.6 174.2,142.1 171.4,139.5 171.4,140.1 172.1,141.3 172.7,141.6 173.4,142.2 173.6,142.7 173.4,143.8 173.4,144.4 173.3,144.9 173.2,145.9 173.2,146.4 173.4,148.1 172.4,151.1 171.8,151.3 173.0,153.8 175.1,155.4 176.3,155.9 176.8,156.4 177.2,157.2 178.2,159.3 178.7,159.5 178.8,160.2 178.3,161.9 177.8,162.1 178.2,165.6 179.1,167.2 179.8,168.5 180.2,169.1 180.8,169.7 181.1,170.4 181.2,171.1 181.2,173.0 181.6,174.1 182.1,175.8 182.2,177.0 182.0,179.3 181.8,180.5 181.6,181.3 181.6,181.9 182.7,183.0 183.3,182.2 183.0,181.2 183.0,180.5 183.0,179.9 183.2,179.2 183.4,178.5 183.8,177.7 184.3,177.3 185.3,179.4 185.3,181.8 185.2,182.8 184.9,183.5 184.5,184.5 184.4,185.4 184.7,188.6 185.0,189.8 185.2,190.4 185.9,190.2 185.6,191.3 185.2,192.0 184.4,193.7 184.3,194.4 184.5,195.0 184.4,195.5 184.2,196.3 183.9,196.9 183.4,198.6 183.3,199.2 183.2,200.5 183.2,201.1 182.3,201.7 182.2,204.9 182.2,205.9 183.7,204.5 184.3,203.8 184.4,203.2 184.9,203.2 185.3,204.3 184.9,205.1 184.7,205.9 184.4,207.0 184.4,207.6 184.0,209.0 183.2,210.1 181.7,211.9 181.1,212.5 180.0,213.7 179.9,214.3 179.2,215.1 178.5,215.6 177.8,216.0 177.2,216.3 176.6,216.7 174.2,217.7 172.4,218.4 171.7,218.6 171.1,218.8 169.1,219.4 168.5,219.6 167.5,220.0 166.8,220.3 165.5,220.8 163.4,221.4 161.7,221.9 157.7,223.2 152.1,225.7 150.2,226.6 148.5,227.4 147.3,228.2 145.0,229.6 143.7,230.9 143.0,232.1 142.5,233.5 142.0,234.2 141.9,234.7 141.6,235.3 141.1,235.8 140.5,236.3 140.5,237.4 142.3,239.6 143.5,241.1 144.0,241.3 144.6,241.1 144.5,240.5 144.4,240.0 144.9,238.8 145.6,238.2 145.6,239.2 145.6,239.9 145.4,241.1 145.4,242.3 145.0,247.8 144.7,249.3 143.0,249.9 141.8,249.9 137.3,250.0 136.6,250.0 133.9,249.9 133.3,249.7 133.3,249.0 133.2,244.6 132.6,243.4 132.2,240.9 132.8,239.4 132.4,237.4 131.2,236.7 130.8,236.2 130.0,234.0 131.0,231.9 131.4,231.0 131.3,229.8 131.1,228.0 131.4,226.9 131.5,223.3 131.5,222.2 131.4,220.5 131.3,218.6 131.2,217.1 131.5,213.4 130.7,211.1 130.4,210.5 129.5,209.0 129.4,205.8 128.9,205.0 127.7,204.2 127.0,202.5 126.5,201.5 126.5,200.9 125.9,199.9 125.4,199.3 124.4,198.4 124.2,197.5 124.3,195.8 124.5,194.7 124.6,194.0 123.9,191.9 120.6,182.4 121.4,181.6 122.0,181.3 126.5,176.7 130.1,173.0 137.4,165.5 138.3,165.5 137.5,163.9 136.8,162.8 137.0,162.2 138.6,160.5 139.2,159.3 139.0,158.5 138.9,157.9 138.7,155.7 138.9,154.5 139.7,153.8 141.4,153.9 143.5,150.9 144.6,149.6 144.7,149.0 144.9,147.9 145.1,147.2 146.2,145.7 146.8,144.5 147.4,142.0 146.3,140.6 144.2,139.5 144.3,137.8 144.0,137.3 143.4,137.4 143.2,135.8 144.1,134.7 144.8,131.8 144.1,130.6 143.3,130.4 142.5,130.5 141.9,129.4 142.0,127.6 143.3,126.9 143.9,126.7 144.5,126.9 145.1,126.8 145.7,125.4 145.1,124.2 144.8,123.6 144.8,122.9 145.6,122.6 146.4,122.2 147.6,120.2 146.8,119.4 146.2,118.8 146.4,117.9 146.3,116.7 146.0,116.1 145.8,115.5 145.7,114.5 145.8,113.1 146.0,112.1 146.7,111.0 147.1,109.3 147.1,108.8 146.3,108.2 145.9,107.5 147.2,105.0 146.5,104.4 146.3,103.6 146.3,103.1 146.2,102.5 146.0,101.8 145.5,100.9 144.5,98.4 145.2,97.7 145.7,96.9 146.0,96.2 146.2,95.2 145.5,95.0 143.5,95.3 142.4,94.9 142.1,93.8 140.1,92.7 137.5,91.6 136.7,91.4 135.7,91.2 135.1,91.1 134.6,91.0 133.6,91.1 132.7,91.2 132.0,91.2 131.0,91.0 130.1,90.8 129.8,90.1 127.9,88.3 127.0,87.6 126.1,87.4 124.9,87.3 123.8,87.2 122.5,86.8 121.3,85.8 120.8,84.8 120.2,84.6 118.4,84.3 117.1,84.6 113.3,84.4 107.2,84.5 107.1,78.9 106.8,78.1 106.7,76.4 106.3,74.3 105.4,73.5 104.9,73.0 104.6,72.4 104.2,71.2 104.1,70.5 104.0,68.8 106.0,68.6 108.4,67.3 109.9,66.8 113.1,65.7 114.7,65.3 116.7,64.8 117.4,64.7 120.5,64.0 123.1,63.4 123.6,63.2 124.2,62.8 126.6,61.5 127.2,61.4 127.9,61.3 128.8,61.0 129.4,60.8 130.5,60.3 132.7,59.6 134.6,59.1 136.5,58.7 146.3,55.3 149.9,54.0 150.4,54.4 151.1,55.9 151.7,57.0 153.1,58.7 154.6,60.4 156.2,62.1 157.1,62.0 158.4,61.7 160.1,61.3 163.7,60.6 167.2,59.7 168.0,60.4 168.6,61.4 169.1,62.0 169.7,62.5 170.0,63.2 170.3,65.5 170.7,68.5 170.4,69.9 170.4,70.9 170.5,72.2 170.8,72.9 170.4,74.0 169.9,74.2 168.4,76.2 168.3,76.8 168.5,77.4 168.5,78.4 168.2,79.1 167.5,80.0 166.7,80.4 166.0,80.9 165.6,81.9 165.6,82.6 165.9,83.1 166.5,83.5 168.1,85.0 168.3,85.7 168.0,86.3 168.0,87.3 168.4,88.3 169.0,88.8 169.7,88.8 170.2,89.0 170.8,90.1 171.8,91.3 172.7,92.1 173.5,92.7 174.5,93.8 176.9,96.4 177.6,96.9 178.3,96.9 178.8,96.8 179.2,98.5 178.9,99.1 178.4,99.4 177.9,99.7 178.3,101.5 179.0,101.6 181.2,101.7 181.7,101.2 181.7,100.5 181.5,99.8 181.3,99.1 181.4,97.6 181.6,96.7 181.3,95.1 180.5,94.2 179.9,94.0 179.4,93.5 179.1,92.8 180.0,92.1 180.6,91.7 180.9,90.4 181.2,89.0 181.4,87.9 183.2,86.3 183.7,86.2 184.4,86.3 185.3,86.8 187.8,86.0 188.8,85.4 189.4,84.6 189.7,82.1 190.2,76.4 190.2,75.5 190.0,74.8 189.8,74.0 189.3,72.1 190.3,69.4 191.0,67.6 190.5,67.3 190.4,65.6 190.4,64.5 190.4,63.8 189.5,63.0 185.3,57.9 184.7,56.8 184.5,56.2 180.2,51.5 179.6,50.7 178.5,49.0 175.5,46.5 175.0,46.3 174.4,46.2 171.8,46.1 170.7,44.4 170.4,43.8 170.4,43.1 170.2,39.3 170.0,38.0 170.0,37.3 169.9,36.2 169.9,35.3 169.8,34.2 169.5,33.4 169.1,32.5 168.6,31.2 168.2,29.6 168.0,28.2 167.5,27.1 167.4,26.3 167.5,25.7 168.0,24.6 168.8,23.2 169.6,22.2 170.2,21.4 171.0,20.0 171.4,19.0 171.4,18.2 171.4,17.7 171.3,17.0 172.5,16.9 175.4,16.8 176.4,16.8 177.2,16.8 180.7,16.9 183.7,17.1 185.7,17.3 186.8,17.1 188.2,15.4 189.5,14.5 191.3,14.6 194.8,16.9 195.0,17.9 195.1,18.8 196.4,18.9 197.5,18.7 198.0,18.5 200.1,18.9 200.7,19.4 202.6,19.0 203.3,18.5 204.0,17.9 204.6,17.0 207.5,17.1 209.2,18.2 210.4,18.6 211.6,18.8 213.6,19.1 214.6,19.2 216.6,17.8 218.1,17.3 219.6,16.6 220.1,16.0 219.9,15.5 220.0,14.9 220.7,13.2 221.3,12.7 221.9,12.4 223.2,12.1 224.3,12.0 225.4,12.4 227.8,13.3 228.5,13.8 229.1,14.1 230.3,14.4 230.9,13.7 231.5,13.3 232.4,12.6 233.0,12.2 236.5,10.7 237.0,10.6 240.0,10.2 240.7,10.4 241.2,10.7 242.0,10.7 242.6,10.3 244.0,9.3 245.7,8.1 248.2,7.2 249.7,6.9 250.3,6.5 251.0,5.9 251.7,5.5 252.4,5.2 253.6,4.7 255.7,3.1 258.4,1.5 259.1,1.1 259.8,0.5 261.1,0.1 262.0,1.9 262.2,2.8 261.0,4.9 261.7,5.0 262.4,5.3 262.6,5.9 262.1,6.2 261.5,6.5 261.0,7.0 260.9,8.3 " />
    <polygon id="Mozambique" points="251.8,90.6 251.0,90.7 250.4,89.9 250.4,89.3 250.7,88.8 251.3,88.6 251.8,88.5 251.8,90.6 " />
    <polygon id="Mozambique" points="184.5,171.1 183.9,172.6 183.5,171.7 183.7,170.6 184.2,168.8 184.6,169.5 184.6,170.6 " />
    <polygon id="Mozambique" points="145.8,237.8 145.1,237.8 145.1,236.9 146.1,236.5 146.0,237.2 145.8,237.8 " />
  </g>
</svg>