<?xml version="1.0" encoding="UTF-8" standalone="yes"?>
<!DOCTYPE svg PUBLIC "-//W3C//DTD SVG 1.0//EN" "http://www.w3.org/TR/2001/REC-SVG-20010904/DTD/svg10.dtd">
<svg height="250" width="370" xmlns="http://www.w3.org/2000/svg" xmlns:svg="http://www.w3.org/2000/svg" xmlns:xlink="http://www.w3.org/1999/xlink">


<g id="background">
<rect id="" width="370" height="250" fill="#222222"/>
</g>
  <g id="51" style="stroke-miterlimit: 3; fill: #F1F1F1; stroke: #000000; stroke-opacity: 1; stroke-width: 0.05; stroke-linejoin: bevel; stroke-linecap: square">
    <polygon id="Armenia" points="201.3,30.5 201.2,31.1 202.4,32.3 204.7,33.4 206.4,32.6 206.4,32.0 205.5,31.2 203.0,29.8 202.2,29.8 201.3,30.5 " />
    <polygon id="Armenia" points="182.4,26.9 184.0,27.1 186.0,26.6 186.9,25.9 187.4,24.9 186.6,23.5 184.5,21.6 183.2,21.2 181.5,21.2 179.8,21.9 179.4,23.7 180.1,25.1 182.4,26.9 " />
    <polygon id="Armenia" points="197.1,10.0 201.0,12.6 202.9,14.0 203.6,14.8 204.1,15.8 204.1,16.4 203.8,16.9 202.4,17.9 201.9,18.2 201.2,18.3 199.7,18.5 198.9,18.5 195.3,18.3 194.4,18.2 192.6,18.1 190.3,18.3 189.7,18.4 188.9,19.3 188.9,19.9 189.3,21.6 189.8,22.5 190.7,23.8 191.7,24.5 215.7,30.1 216.5,30.2 217.4,30.2 218.9,30.1 243.9,42.9 244.7,44.3 244.8,44.8 244.6,46.1 244.0,47.7 243.1,49.9 242.9,50.5 241.9,51.8 240.4,52.8 239.8,53.0 234.7,54.4 227.8,56.5 226.5,56.9 225.1,57.8 224.3,58.5 221.2,63.2 220.7,64.3 220.8,64.9 221.0,66.0 221.2,66.5 223.5,70.1 235.6,85.2 236.4,85.9 246.3,92.2 248.9,93.8 270.5,104.6 271.8,105.0 273.6,105.2 275.1,105.0 278.3,104.2 278.9,104.3 282.6,107.7 283.2,108.6 283.4,109.1 283.5,109.6 283.4,110.3 281.1,119.6 280.8,120.1 274.6,128.6 274.0,129.5 273.1,130.3 271.8,130.6 270.3,130.6 267.7,130.4 265.3,130.0 259.1,129.5 254.0,129.4 250.8,129.4 246.3,129.8 243.8,130.6 242.9,131.2 241.8,132.5 241.7,133.8 243.0,134.9 243.6,135.1 244.3,135.3 253.2,136.0 255.7,136.3 257.8,136.8 260.2,137.8 261.2,138.4 262.2,139.6 262.8,141.1 263.0,142.2 263.6,143.8 264.5,145.7 265.8,147.4 267.4,148.9 268.6,150.0 270.6,151.2 271.6,151.8 273.9,152.9 275.7,153.6 279.1,154.6 281.5,154.7 283.1,154.9 283.8,155.1 285.1,156.2 286.3,157.9 287.6,160.2 288.6,162.1 290.1,163.6 302.5,172.0 304.0,173.0 304.7,173.1 306.3,173.3 307.9,173.3 308.7,173.3 309.3,173.1 313.8,171.3 314.9,170.7 316.1,170.3 317.4,170.0 318.8,169.9 320.3,170.2 336.1,174.6 337.2,175.2 338.3,176.4 338.9,177.8 339.0,178.4 338.8,179.0 336.1,184.9 335.3,185.7 334.2,186.2 333.5,186.3 328.8,187.2 324.7,187.9 324.0,187.9 323.4,188.2 322.5,188.8 321.9,190.6 322.0,191.7 322.5,193.3 323.1,194.2 324.3,195.3 339.9,206.4 342.4,208.0 346.4,210.5 346.4,211.4 338.7,214.5 337.9,214.5 333.7,213.1 330.7,211.9 330.0,211.7 329.2,211.6 328.4,211.6 327.1,211.8 326.5,212.0 325.8,212.8 325.5,213.3 325.5,214.6 325.7,215.7 326.0,216.7 327.5,218.3 329.8,219.3 331.8,219.9 332.9,220.4 333.8,221.1 335.7,225.5 336.1,227.1 336.5,229.3 336.1,230.6 335.3,232.0 334.6,233.0 334.0,234.7 333.5,237.3 333.5,237.9 333.6,238.5 333.8,239.0 338.2,246.5 335.7,246.2 329.2,245.0 321.5,243.3 319.3,242.9 318.6,243.0 313.2,244.4 311.0,245.5 310.0,246.1 308.7,247.1 307.6,247.7 303.1,249.7 301.3,250.0 295.8,243.0 294.1,240.3 280.2,216.9 279.8,215.2 279.8,214.6 280.3,212.8 281.4,211.5 282.2,210.8 283.6,209.8 284.2,208.9 284.1,208.3 283.2,207.0 282.4,206.3 280.9,205.3 268.5,198.4 265.5,189.3 265.8,188.8 265.9,188.1 265.9,187.5 265.2,178.3 264.0,177.2 262.9,176.6 261.1,175.9 258.3,175.1 256.8,174.8 255.9,174.7 255.2,174.8 245.2,176.8 243.3,177.4 241.5,178.0 238.2,179.5 235.2,181.2 233.1,182.3 232.0,182.7 229.5,183.5 228.0,183.6 215.1,179.3 214.0,178.2 208.5,171.6 189.9,155.6 188.9,155.0 187.7,154.5 186.9,154.4 185.5,154.6 184.2,155.0 182.8,155.9 181.4,157.2 178.2,159.3 176.5,159.9 174.6,160.4 173.3,160.7 170.8,160.4 169.5,160.1 167.0,160.0 160.9,161.3 159.9,161.6 158.9,161.9 155.5,159.5 145.6,152.4 144.1,151.6 140.1,149.3 136.6,144.3 136.1,143.4 135.8,142.7 135.4,141.0 129.2,135.8 120.2,131.7 115.8,129.9 114.9,129.6 108.6,127.3 108.1,127.3 84.9,130.7 83.7,131.2 82.9,131.4 76.7,130.9 72.9,130.6 70.7,130.1 46.4,121.8 44.7,121.0 43.9,119.8 43.8,119.2 44.8,117.8 45.4,117.3 46.1,117.0 47.2,116.5 49.8,116.5 51.1,116.1 51.3,115.4 45.1,104.1 39.6,94.5 37.1,86.1 38.1,81.0 44.3,77.9 50.7,69.0 53.3,64.2 54.3,56.7 54.0,55.7 53.4,53.6 46.3,37.9 39.5,31.4 38.8,31.0 37.9,30.7 37.3,30.6 35.8,30.7 34.7,30.6 34.2,30.4 28.0,28.5 27.2,28.1 26.6,27.7 24.0,21.0 24.0,20.3 24.7,18.7 33.4,16.5 35.0,16.4 36.7,16.5 38.8,17.0 42.7,17.7 52.6,18.7 54.4,18.8 55.2,18.8 57.4,18.4 58.7,18.1 59.9,17.6 62.1,15.9 63.0,15.2 64.4,14.2 65.6,13.7 67.8,13.4 69.5,13.4 78.9,13.5 92.1,11.7 94.3,11.4 95.6,11.1 97.3,10.3 98.0,9.4 104.9,7.5 114.3,8.6 123.4,10.7 128.9,11.1 136.8,11.4 137.6,11.4 153.8,8.6 163.5,8.6 166.0,8.6 167.5,8.4 168.7,8.0 179.2,2.7 183.7,0.0 186.2,7.5 194.8,9.5 195.7,9.6 196.4,9.8 197.1,10.0 " />
    <polygon id="Armenia" points="239.7,67.6 235.2,70.3 233.6,70.2 232.2,69.2 231.5,67.2 232.4,65.0 234.1,64.3 237.9,64.3 239.7,64.5 241.2,65.5 241.3,66.0 239.7,67.6 " />
  </g>
</svg>