<?xml version="1.0" encoding="UTF-8" standalone="yes"?>
<!DOCTYPE svg PUBLIC "-//W3C//DTD SVG 1.0//EN" "http://www.w3.org/TR/2001/REC-SVG-20010904/DTD/svg10.dtd">
<svg height="250" width="370" xmlns="http://www.w3.org/2000/svg" xmlns:svg="http://www.w3.org/2000/svg" xmlns:xlink="http://www.w3.org/1999/xlink">


<g id="background">
<rect id="" width="370" height="250" fill="#222222"/>
</g>
  <g id="512" style="stroke-miterlimit: 3; fill: #F1F1F1; stroke: #000000; stroke-opacity: 1; stroke-width: 0.05; stroke-linejoin: bevel; stroke-linecap: square">
    <polygon id="Oman" points="197.1,0.0 198.1,0.4 198.8,1.0 200.1,1.4 200.5,0.8 200.9,1.6 199.7,1.6 198.0,2.5 198.1,3.2 199.0,3.8 199.5,3.4 200.1,3.7 199.7,4.7 199.7,5.5 200.0,6.1 197.4,5.4 197.4,4.9 195.9,5.5 196.2,6.9 197.2,7.4 198.2,7.3 198.9,7.3 199.7,7.5 199.0,7.8 198.8,8.4 198.6,11.1 198.0,12.5 197.8,13.1 197.0,14.4 196.1,16.0 195.5,16.5 194.8,17.0 194.5,18.5 194.6,19.2 193.8,19.4 192.4,18.7 191.8,18.5 191.3,16.6 191.3,14.1 191.9,12.2 192.5,9.4 191.8,7.7 189.7,8.1 190.0,7.4 190.5,6.5 192.0,4.0 192.7,3.2 193.7,4.2 195.5,4.7 196.2,4.7 196.7,4.4 197.9,4.5 197.9,3.8 197.3,3.6 196.8,3.6 196.2,4.2 195.7,4.2 195.9,2.9 196.6,3.1 195.9,1.8 196.8,1.6 197.1,0.0 " />
    <polygon id="Oman" points="188.7,37.1 189.0,38.9 188.3,38.5 187.7,38.3 187.2,38.5 187.2,39.0 189.1,41.8 189.7,42.2 190.4,42.3 191.3,42.2 192.3,41.1 192.5,40.0 193.5,39.8 194.2,39.5 194.8,39.2 195.3,38.6 196.0,38.3 196.4,37.5 196.3,36.7 196.6,36.1 197.3,36.0 198.3,38.9 200.4,43.5 201.2,45.0 201.7,45.9 203.2,48.3 203.6,48.9 204.3,49.5 205.1,50.1 206.0,50.9 208.2,53.2 208.7,54.0 208.9,54.6 209.1,55.2 209.8,56.1 211.0,57.5 213.1,59.3 214.9,60.8 216.3,61.8 217.6,62.7 227.1,65.7 234.8,67.9 235.6,68.2 236.5,68.4 237.2,68.5 238.8,68.3 239.6,68.2 241.0,68.3 241.6,68.4 242.9,68.8 243.5,69.0 244.3,69.3 245.2,69.8 245.7,70.4 246.4,70.7 247.6,71.0 249.2,71.0 249.7,71.0 250.3,70.9 251.3,70.7 251.9,70.0 253.8,70.3 254.6,70.5 259.4,74.7 261.3,77.5 262.7,78.5 264.6,81.4 264.8,82.1 265.0,82.9 265.5,83.8 266.9,85.6 267.5,86.3 268.1,86.6 269.0,87.0 269.5,87.4 270.5,88.2 271.9,91.2 272.3,92.1 274.9,95.0 276.1,96.1 277.2,96.8 278.4,97.7 279.4,97.9 281.4,97.9 285.1,98.6 286.0,99.8 286.4,101.4 286.0,104.5 286.0,105.0 285.6,106.5 285.3,107.0 284.6,108.0 283.2,109.8 281.5,114.1 279.7,115.6 278.6,117.4 277.9,118.0 277.4,118.6 277.2,119.2 276.9,120.6 276.5,121.8 273.7,126.7 272.5,127.3 271.7,127.6 270.0,128.5 269.4,128.8 268.8,129.1 266.9,130.5 262.6,134.6 260.9,136.6 260.5,137.1 259.7,138.4 257.3,142.1 257.4,143.7 257.7,144.2 257.2,144.8 255.9,145.8 254.5,146.8 254.2,147.4 253.9,148.1 253.6,149.6 252.5,152.9 250.8,154.6 250.3,154.7 249.7,154.7 246.3,154.4 246.8,154.0 246.0,154.1 244.5,153.7 244.1,153.0 244.5,152.1 244.9,151.4 245.9,149.2 245.8,148.5 245.1,148.1 244.6,148.1 242.1,149.0 241.5,149.2 241.0,149.8 240.8,151.0 240.2,151.9 237.8,153.9 235.3,157.2 234.7,158.2 234.4,159.0 234.5,159.5 235.0,160.3 234.9,161.2 234.2,164.4 233.3,167.3 232.2,168.9 231.1,170.3 231.0,171.2 231.1,171.9 232.5,177.4 233.0,178.4 233.2,179.5 233.1,180.5 232.7,181.2 232.4,181.8 232.7,183.1 233.9,186.3 234.9,188.6 234.9,189.3 234.1,190.2 231.9,191.0 231.3,191.1 230.6,191.1 228.7,190.9 227.1,190.7 226.0,190.8 222.1,191.3 220.9,191.5 217.6,192.2 216.9,192.3 214.4,193.1 211.5,194.3 210.9,194.6 208.6,196.0 208.1,196.4 206.5,198.0 205.9,198.6 204.6,199.8 204.2,200.4 204.1,201.1 204.0,203.9 203.3,206.6 202.9,208.1 202.5,208.6 202.1,209.4 201.9,209.9 201.9,210.6 202.1,211.7 201.1,212.5 200.4,212.7 199.8,212.9 199.3,213.4 198.1,214.8 196.7,216.1 196.9,216.8 196.3,216.8 195.7,216.7 194.5,216.5 193.7,216.4 192.8,216.3 188.4,216.8 187.2,217.1 183.9,217.6 182.6,217.6 178.6,218.0 175.6,218.6 174.1,219.1 173.2,219.6 172.8,220.2 172.4,221.2 171.8,222.6 171.4,223.3 170.6,223.8 169.9,224.2 168.9,225.0 168.0,226.5 167.8,227.9 167.9,228.6 168.9,229.2 169.6,229.9 169.8,230.5 169.8,231.2 168.5,234.0 167.5,235.9 164.5,239.2 163.8,239.8 163.0,240.4 161.0,241.2 159.4,241.7 157.1,242.2 155.3,242.0 154.3,241.6 154.1,241.0 153.8,240.5 153.1,240.2 151.9,240.0 151.4,240.0 149.3,239.9 147.1,239.9 146.3,239.9 138.8,240.4 136.7,241.3 134.5,243.2 131.9,243.7 129.8,244.4 128.4,245.5 128.0,246.3 126.0,247.4 125.3,247.4 124.8,247.3 122.3,247.3 119.7,247.8 115.5,249.0 114.0,249.5 113.6,250.0 105.9,233.5 105.1,231.9 85.0,189.5 162.0,163.8 172.9,131.3 179.1,112.5 167.1,94.5 167.6,92.1 167.6,91.4 167.6,90.6 167.5,89.5 167.5,88.9 167.5,86.8 167.5,86.3 168.1,84.1 168.9,82.8 169.6,81.7 170.2,80.7 170.8,79.8 171.3,78.4 172.9,73.8 174.5,70.3 176.4,67.4 176.5,66.8 176.4,64.4 176.1,63.7 175.1,61.9 178.2,60.5 179.3,60.3 182.6,60.6 184.5,60.3 187.7,59.5 188.3,59.2 186.6,55.3 186.0,55.1 185.4,55.1 184.7,55.4 184.2,55.6 182.2,55.3 182.0,54.5 182.9,53.1 183.1,50.5 182.5,48.9 182.1,46.9 182.1,46.4 182.9,45.9 183.7,44.5 183.1,43.1 182.9,42.4 182.7,39.6 182.7,38.9 183.1,38.2 183.7,37.5 184.3,37.0 185.0,36.4 185.9,36.0 186.5,35.9 187.1,35.9 187.9,36.1 188.5,36.7 " />
    <polygon id="Oman" points="260.7,152.5 260.2,153.2 259.7,154.3 259.4,155.4 259.2,156.2 259.1,156.8 257.6,158.4 256.3,159.3 255.7,159.5 255.3,157.8 255.3,156.8 255.4,155.1 255.6,154.5 257.0,152.9 257.6,152.8 258.2,152.8 258.7,152.5 259.1,151.9 260.3,149.1 261.7,146.3 262.5,146.2 263.5,150.6 262.5,151.5 261.4,152.0 260.8,152.4 " />
    <polygon id="Oman" points="188.3,228.4 186.8,228.1 186.6,227.6 187.7,227.0 188.8,226.7 190.1,227.6 189.3,228.0 188.3,228.4 " />
    <polygon id="Oman" points="184.5,228.2 183.4,228.2 184.1,227.6 184.8,228.0 " />
  </g>
</svg>