<?xml version="1.0" encoding="UTF-8" standalone="yes"?>
<!DOCTYPE svg PUBLIC "-//W3C//DTD SVG 1.0//EN" "http://www.w3.org/TR/2001/REC-SVG-20010904/DTD/svg10.dtd">
<svg height="250" width="370" xmlns="http://www.w3.org/2000/svg" xmlns:svg="http://www.w3.org/2000/svg" xmlns:xlink="http://www.w3.org/1999/xlink">


<g id="background">
<rect id="" width="370" height="250" fill="#222222"/>
</g>
  <g id="516" style="stroke-miterlimit: 3; fill: #F1F1F1; stroke: #000000; stroke-opacity: 1; stroke-width: 0.05; stroke-linejoin: bevel; stroke-linecap: square">
    <polygon id="Namibia" points="284.8,14.8 288.8,14.0 296.0,12.6 300.2,11.8 304.7,10.9 307.5,10.8 308.8,11.0 310.2,11.6 311.0,11.9 311.5,12.1 312.5,11.6 313.1,11.3 314.5,11.4 316.7,11.7 318.7,12.2 319.9,12.6 320.2,13.2 321.1,13.7 321.9,14.0 325.7,17.2 326.0,17.7 324.3,17.3 323.6,17.4 323.1,17.9 322.6,18.2 322.0,18.3 320.5,18.2 320.0,18.1 319.2,17.9 317.2,18.4 313.8,20.6 311.8,22.8 311.2,23.0 310.6,23.0 310.0,23.0 309.6,22.5 309.1,21.8 308.8,21.2 307.8,20.7 307.2,20.7 305.3,22.1 299.8,25.3 299.0,25.7 297.9,26.7 297.3,27.3 296.5,27.8 296.1,28.4 295.4,29.2 293.9,30.7 292.4,31.6 291.7,31.9 291.0,31.7 290.6,30.9 290.3,29.5 290.4,28.6 289.7,27.4 288.4,26.1 287.9,25.8 287.2,25.5 286.4,24.4 285.8,23.4 285.7,22.7 285.5,22.2 284.9,21.7 280.5,21.9 271.3,23.6 268.5,24.1 263.5,25.0 254.3,26.8 246.9,28.1 242.2,28.3 237.1,28.4 237.1,31.7 237.1,36.3 237.1,46.2 237.1,63.4 237.1,67.2 237.1,80.6 237.1,84.1 237.1,84.6 237.1,91.0 237.1,96.7 237.1,103.9 237.1,104.4 237.1,105.0 235.5,105.0 230.0,105.1 222.9,105.1 216.4,105.1 216.4,106.9 216.4,110.6 216.4,115.5 216.4,120.1 216.4,124.7 216.4,125.3 216.4,128.4 216.4,132.3 216.4,135.3 216.4,139.4 216.4,141.6 216.4,143.9 216.4,145.7 216.4,152.6 216.5,155.2 216.5,158.6 216.5,161.8 216.5,162.6 216.5,163.2 216.5,164.7 216.5,169.3 216.4,172.1 216.4,176.2 216.4,180.3 216.4,185.6 216.4,196.8 216.4,209.8 216.4,215.8 216.4,216.8 216.4,219.3 216.4,221.3 216.4,227.3 216.4,231.3 216.4,237.3 216.4,238.5 212.7,240.2 211.9,240.3 211.4,240.2 210.9,240.0 207.5,240.9 206.3,242.3 205.9,243.1 205.9,243.8 205.3,244.5 204.3,244.9 203.1,245.3 202.4,245.1 201.8,245.1 201.2,245.3 200.6,246.5 200.8,247.3 201.1,247.9 200.9,248.7 199.6,249.4 198.8,249.8 198.2,250.0 195.8,249.4 195.3,248.8 194.9,248.1 189.9,247.4 181.8,248.4 178.8,248.9 175.9,248.1 175.2,247.5 174.5,246.9 173.0,246.2 169.6,245.5 168.8,245.7 168.2,246.0 167.6,246.1 166.8,245.8 166.5,245.1 166.4,244.5 164.3,244.4 163.6,244.6 162.8,244.9 161.5,241.1 161.8,239.0 162.2,238.3 162.3,237.7 162.3,237.1 161.3,235.0 160.7,234.5 159.9,234.9 158.7,235.1 158.1,234.6 157.8,234.0 157.9,233.5 158.1,232.6 157.6,232.1 157.0,231.9 156.4,231.2 155.9,230.7 155.3,230.6 152.3,231.3 151.7,231.8 150.3,234.9 149.8,237.2 149.3,239.2 148.3,240.3 147.8,240.3 147.6,239.7 147.1,239.6 146.2,240.3 143.4,242.0 142.7,242.7 141.4,242.3 140.5,241.7 136.7,238.3 135.6,237.0 134.2,235.5 133.6,234.9 132.6,234.4 131.1,233.4 128.2,230.8 127.7,230.2 126.7,229.1 126.4,228.5 126.6,227.9 126.4,227.4 125.8,226.7 125.0,225.8 124.2,225.1 123.5,224.5 123.2,223.4 123.3,222.6 120.7,218.6 119.9,217.6 118.5,215.9 117.9,213.8 118.0,212.5 117.3,208.7 117.0,208.0 116.1,207.4 114.7,204.6 114.3,203.6 114.1,203.0 114.0,201.9 114.9,201.4 115.2,202.3 115.8,201.3 115.9,200.7 115.1,198.3 114.9,197.8 114.3,196.9 113.3,196.1 112.7,195.9 111.8,195.6 111.5,194.7 111.1,191.2 111.7,191.2 112.0,190.2 111.9,189.5 111.7,188.6 111.5,188.1 111.0,187.6 110.5,186.9 109.0,183.4 109.2,180.9 109.5,179.8 109.9,179.3 109.1,176.4 108.7,175.8 108.5,175.3 108.2,173.4 108.4,172.8 108.9,171.4 109.4,169.3 109.3,168.6 109.0,167.8 108.2,166.6 108.0,166.1 107.9,165.4 108.0,164.7 107.8,163.5 106.8,161.7 105.4,160.1 104.2,158.8 104.0,158.2 104.0,157.7 104.4,156.9 104.3,156.2 103.4,154.2 103.1,153.6 102.2,151.9 101.7,150.9 101.4,149.9 101.2,149.0 101.0,146.4 101.1,145.9 102.2,143.1 102.0,138.7 101.9,138.1 101.6,137.4 100.7,135.3 100.6,134.6 100.7,134.0 101.3,133.1 101.4,133.7 101.9,133.2 101.9,132.5 101.6,131.0 101.1,129.3 100.9,128.8 100.5,128.0 100.1,126.6 100.1,125.2 100.5,123.6 100.9,124.2 100.8,125.1 101.1,125.8 102.2,124.5 102.6,123.6 102.8,121.8 102.6,120.1 102.5,119.5 102.5,118.7 102.4,118.0 102.2,116.6 100.2,112.0 99.7,111.1 97.5,107.6 94.2,103.8 93.6,103.2 92.4,102.2 90.5,100.6 90.8,99.8 90.8,99.2 90.5,98.7 89.0,96.7 88.8,95.8 88.7,95.0 88.5,94.5 87.7,93.3 86.9,92.5 85.3,90.4 82.7,86.9 79.2,81.5 78.7,80.6 78.5,79.8 78.6,79.0 78.4,78.1 78.1,76.9 77.2,75.2 76.6,74.4 76.0,73.3 75.8,72.4 75.8,71.8 75.7,71.2 75.4,69.8 74.9,68.4 74.4,67.2 74.0,66.7 73.3,65.9 72.5,65.5 72.0,65.1 71.6,64.6 71.4,63.5 70.5,61.5 70.1,60.8 69.6,59.8 69.3,59.2 66.8,55.1 66.4,54.4 66.0,53.8 64.6,51.3 64.2,50.3 63.2,48.1 62.1,45.8 61.2,44.0 59.5,41.1 59.1,40.5 58.7,39.9 56.3,36.7 54.7,35.3 54.0,34.9 53.4,34.5 52.5,33.8 51.6,32.9 50.3,31.6 49.9,30.5 49.9,29.7 48.9,27.3 48.6,26.8 47.8,25.7 46.9,24.9 45.9,23.7 45.1,21.7 45.0,21.2 44.5,18.3 44.3,16.8 44.0,12.7 44.0,12.2 44.0,11.1 44.1,10.5 44.3,8.9 44.7,7.8 44.8,6.5 45.8,6.6 47.4,5.7 48.4,4.8 49.4,4.4 50.9,4.0 51.7,3.8 54.2,5.0 54.9,5.5 56.0,5.8 58.9,5.4 59.9,6.0 61.5,6.0 62.5,5.7 66.9,3.2 67.6,2.5 68.1,1.9 69.1,1.3 70.4,0.8 71.0,0.6 73.8,0.0 74.6,0.2 76.0,0.7 77.3,0.5 77.9,0.4 78.5,0.3 80.5,1.2 81.0,1.6 81.7,2.6 81.7,3.3 84.4,5.5 85.2,6.0 88.2,7.7 90.1,9.3 91.4,9.8 92.0,9.5 92.6,9.7 93.2,9.9 95.0,9.8 95.5,9.6 96.1,9.0 99.1,9.0 100.9,9.0 104.7,9.1 112.2,9.1 122.7,9.1 124.5,9.1 132.3,9.0 133.2,9.0 145.8,9.1 159.8,9.1 164.6,9.1 165.7,9.1 169.3,9.1 174.8,9.0 177.2,9.0 178.7,9.0 182.9,9.0 184.2,9.1 185.5,10.8 186.8,12.9 188.2,14.5 190.4,16.4 191.5,17.0 193.9,18.0 195.2,18.2 196.2,18.3 196.8,18.2 198.0,18.1 198.6,17.6 199.3,17.7 200.7,17.8 201.7,18.1 202.6,18.5 204.2,18.9 204.9,18.9 207.3,19.0 210.2,19.1 212.1,19.0 212.8,18.8 214.8,18.8 215.4,19.0 215.9,19.4 216.8,19.5 218.5,19.6 219.1,19.6 221.4,19.3 222.0,18.9 222.9,18.8 223.5,18.8 225.5,19.7 226.7,20.6 227.8,21.4 228.8,21.4 229.6,21.3 232.1,21.7 232.7,22.0 234.2,22.1 235.0,21.7 236.1,21.2 236.6,21.0 237.7,20.8 240.1,20.4 240.7,20.4 242.0,20.5 242.6,20.8 245.1,22.1 253.0,20.7 264.1,18.7 269.8,17.6 276.4,16.4 277.0,16.2 278.8,15.9 284.8,14.8 " />
  </g>
</svg>