<?xml version="1.0" encoding="UTF-8" standalone="yes"?>
<!DOCTYPE svg PUBLIC "-//W3C//DTD SVG 1.0//EN" "http://www.w3.org/TR/2001/REC-SVG-20010904/DTD/svg10.dtd">
<svg height="250" width="370" xmlns="http://www.w3.org/2000/svg" xmlns:svg="http://www.w3.org/2000/svg" xmlns:xlink="http://www.w3.org/1999/xlink">


<g id="background">
<rect id="" width="370" height="250" fill="#222222"/>
</g>
  <g id="524" style="stroke-miterlimit: 3; fill: #F1F1F1; stroke: #000000; stroke-opacity: 1; stroke-width: 0.05; stroke-linejoin: bevel; stroke-linecap: square">
    <polygon id="Nepal" points="91.5,147.6 90.5,147.4 88.5,147.2 87.5,147.5 87.0,147.7 85.6,148.8 84.4,150.3 83.8,150.4 83.3,150.3 78.7,147.9 78.1,147.5 76.1,145.7 70.7,142.8 65.3,140.3 64.7,139.9 64.5,139.4 60.1,136.2 56.6,136.3 53.2,128.9 51.9,127.0 50.6,126.7 49.4,126.3 47.3,125.8 44.5,125.4 40.3,123.7 39.2,123.1 29.6,117.4 24.2,114.0 22.2,112.6 21.5,113.0 20.9,113.4 20.5,114.0 20.8,115.5 19.1,116.9 15.2,115.3 12.2,112.4 9.2,109.9 4.5,107.6 0.7,106.2 0.2,105.7 0.0,103.0 0.1,102.0 0.4,101.4 0.8,100.6 6.6,92.4 8.9,90.8 10.7,88.9 11.3,85.6 11.6,84.4 11.2,83.8 10.7,83.7 10.2,83.6 8.4,79.5 8.4,78.9 8.6,78.3 10.8,76.3 11.9,75.6 13.2,74.7 16.1,71.2 16.6,69.6 16.6,69.1 15.9,68.4 15.2,67.6 15.0,67.0 14.6,64.9 14.8,64.3 16.3,62.7 17.6,62.1 19.1,62.1 19.8,62.0 21.8,60.2 22.4,59.4 23.7,56.9 24.3,55.7 24.8,54.9 25.7,54.6 26.4,54.5 27.6,54.5 28.5,54.2 31.3,52.0 37.3,46.5 40.5,44.6 44.2,43.5 45.1,44.8 46.4,47.0 47.4,49.0 48.5,51.9 50.0,51.5 50.7,51.4 52.0,51.9 53.2,52.4 54.0,52.2 54.7,51.6 54.3,50.3 55.7,49.8 56.6,49.3 60.2,45.3 60.5,44.7 60.9,40.8 60.8,38.8 60.8,38.2 61.5,36.0 62.2,35.3 63.4,35.7 64.3,36.5 65.1,37.2 65.9,37.5 67.7,37.8 68.1,36.6 68.4,35.5 71.4,33.5 72.0,33.5 72.8,33.8 76.1,35.0 79.5,36.3 81.4,35.7 82.2,35.7 86.3,36.3 93.1,37.3 93.6,37.6 95.3,47.1 96.0,49.2 96.6,49.9 98.3,49.5 99.0,49.4 107.6,52.4 115.7,57.7 118.0,60.0 123.8,64.9 127.4,67.9 128.0,68.1 128.6,68.0 129.2,67.3 129.6,66.8 130.5,66.7 133.6,67.7 134.2,67.9 134.8,68.4 136.7,69.9 139.3,70.1 141.4,69.5 142.4,69.5 145.6,71.9 150.0,76.0 151.2,77.1 151.1,78.0 151.0,78.8 151.2,79.3 152.6,81.5 158.6,89.5 161.3,90.7 162.5,90.7 163.7,91.0 164.5,91.0 165.1,90.5 165.2,89.6 165.7,88.5 166.7,87.9 168.0,87.2 175.4,85.1 178.0,84.8 178.6,84.8 184.5,86.4 187.4,88.6 187.8,89.6 187.3,90.3 186.7,90.8 186.5,91.5 186.6,92.1 190.3,95.8 189.9,99.4 190.1,102.0 194.0,104.0 196.7,104.3 197.3,104.7 198.9,106.8 200.1,109.0 201.2,110.2 205.3,111.3 208.3,111.8 211.5,113.7 211.6,114.4 211.2,115.6 211.2,116.1 216.8,118.6 217.8,119.0 222.1,119.2 222.7,119.0 226.2,116.3 226.9,115.3 227.4,114.6 228.1,114.6 229.7,114.8 233.4,116.3 233.7,117.2 233.1,119.6 231.1,122.3 230.0,125.7 229.5,129.3 230.0,129.9 231.2,130.3 235.6,131.0 237.7,131.3 241.9,131.7 242.8,131.6 243.6,131.0 244.5,130.1 245.6,130.0 251.3,130.9 257.6,131.0 258.3,132.4 258.7,132.9 260.3,134.3 262.1,135.3 263.3,135.8 264.3,136.1 265.1,136.8 268.0,143.1 269.0,147.5 269.3,148.0 270.1,148.7 270.9,149.0 273.4,148.8 274.3,148.7 276.2,147.1 276.5,146.4 275.9,144.6 275.0,142.5 274.4,140.2 274.8,139.6 278.4,136.3 279.0,136.3 279.6,136.7 280.0,138.3 280.0,138.9 279.3,139.7 279.1,140.3 279.1,140.8 280.2,143.0 285.9,146.0 286.6,146.4 290.5,147.9 291.0,147.8 293.8,146.4 294.5,145.7 294.8,142.6 296.0,139.4 296.8,138.6 301.4,138.6 302.2,138.7 303.3,139.1 304.5,139.9 304.6,140.9 304.6,142.1 311.3,145.1 313.3,146.1 316.6,145.2 317.5,145.5 319.5,147.0 320.0,148.4 320.2,148.9 321.9,150.7 324.4,151.7 329.6,152.0 330.6,151.8 334.2,150.8 340.1,151.0 342.0,151.7 342.8,152.3 344.1,152.2 345.7,151.5 348.4,152.6 349.8,152.2 351.1,151.7 351.9,151.1 352.6,150.5 353.2,149.6 354.0,147.9 355.1,147.4 360.1,148.7 361.2,148.9 362.4,148.8 363.4,148.3 365.3,148.6 367.6,149.8 369.0,150.2 369.7,150.5 369.7,153.3 367.9,158.2 366.7,161.1 366.4,161.7 365.6,162.3 365.0,162.7 363.7,164.9 363.3,166.3 363.2,167.1 362.7,176.3 361.8,178.7 361.6,180.3 361.6,182.3 360.9,183.5 360.8,184.3 362.5,186.8 363.1,187.2 364.1,187.5 364.8,188.1 366.5,189.8 369.0,194.6 369.9,199.7 370.0,200.3 369.9,201.3 369.3,203.4 369.0,204.1 366.6,208.8 365.7,210.5 366.0,211.9 366.0,212.5 365.5,214.6 365.0,215.1 362.5,217.6 361.8,218.0 361.3,217.9 358.8,216.4 357.8,215.3 356.9,214.3 356.5,213.4 351.6,213.7 347.1,215.1 345.2,216.4 340.8,216.1 339.8,215.6 338.1,214.9 337.3,214.8 336.7,214.8 336.0,214.9 334.2,215.4 333.4,215.7 332.5,216.2 327.9,217.5 323.4,216.4 319.5,212.5 315.9,210.3 314.1,210.7 313.3,210.4 311.2,211.7 310.9,212.3 310.8,212.9 307.5,214.7 303.8,215.5 303.2,215.4 300.2,213.8 291.8,209.8 285.4,207.0 279.9,207.9 279.4,207.9 278.6,206.9 276.6,207.2 275.1,206.5 274.4,205.9 273.5,205.1 272.4,204.5 271.9,204.4 268.8,205.1 268.3,205.5 268.0,206.2 264.2,208.5 263.7,208.7 259.4,205.6 258.4,204.9 258.0,204.3 257.8,203.7 257.7,202.5 257.8,201.2 258.1,199.2 258.0,198.7 257.8,198.1 257.1,197.5 253.6,195.3 253.1,195.2 250.8,196.1 249.3,196.9 247.9,197.6 245.4,198.8 240.3,201.0 239.7,201.1 238.9,201.0 234.9,199.9 234.0,199.5 233.5,198.9 233.2,198.2 223.3,192.1 218.2,189.3 215.8,188.4 214.9,188.6 213.7,188.8 211.5,188.2 209.4,187.4 208.8,187.1 208.6,186.6 208.9,185.7 209.2,185.0 210.2,183.2 210.5,180.2 210.4,179.3 210.3,178.7 209.1,176.0 208.5,175.2 207.1,173.9 206.4,173.6 205.9,173.5 202.1,172.9 197.3,172.4 194.6,172.0 194.1,171.9 192.9,171.5 186.1,165.9 182.1,168.1 181.7,168.7 180.2,169.0 176.6,168.8 175.8,168.6 173.5,169.1 173.6,171.6 172.9,173.1 171.5,172.3 170.4,171.7 169.3,171.2 167.9,170.6 162.7,168.2 161.5,167.8 158.9,167.7 158.0,167.6 152.9,167.7 151.8,170.0 151.7,171.1 151.0,172.1 150.2,173.0 149.7,173.4 148.6,173.9 148.0,173.9 147.2,173.8 146.5,173.5 145.8,172.4 145.6,171.6 142.4,168.9 141.1,168.7 139.9,168.7 136.5,168.8 135.6,168.8 134.8,168.6 132.5,168.2 123.4,166.3 122.3,164.1 122.3,163.5 122.4,162.8 121.8,160.1 121.2,158.1 120.8,157.1 118.7,157.0 118.1,157.0 116.5,157.5 115.7,157.8 114.3,158.0 110.3,158.6 109.3,158.6 108.8,158.6 108.2,158.4 106.9,157.7 102.5,154.8 101.1,153.8 95.3,149.9 91.5,147.6 " />
  </g>
</svg>