<?xml version="1.0" encoding="UTF-8" standalone="yes"?>
<!DOCTYPE svg PUBLIC "-//W3C//DTD SVG 1.0//EN" "http://www.w3.org/TR/2001/REC-SVG-20010904/DTD/svg10.dtd">
<svg height="250" width="370" xmlns="http://www.w3.org/2000/svg" xmlns:svg="http://www.w3.org/2000/svg" xmlns:xlink="http://www.w3.org/1999/xlink">


<g id="background">
<rect id="" width="370" height="250" fill="#222222"/>
</g>
  <g id="528" style="stroke-miterlimit: 3; fill: #F1F1F1; stroke: #000000; stroke-opacity: 1; stroke-width: 0.05; stroke-linejoin: bevel; stroke-linecap: square">
    <polygon id="Netherlands" points="261.6,5.2 260.8,4.8 259.9,3.6 261.7,1.8 262.5,1.4 263.7,1.1 276.9,0.0 277.9,0.0 279.5,0.3 280.1,0.6 280.0,1.2 274.1,2.4 270.6,3.2 269.8,3.3 264.1,3.6 263.2,4.0 261.6,5.2 " />
    <polygon id="Netherlands" points="222.1,4.4 224.0,4.5 231.7,4.3 236.2,4.0 240.7,3.8 243.7,3.7 245.0,3.9 245.4,4.4 244.7,4.8 232.3,6.6 231.1,6.6 229.2,6.4 228.6,6.3 226.6,6.1 225.5,6.2 220.7,7.8 218.8,7.7 217.6,7.5 216.5,6.8 216.1,6.3 216.1,5.7 218.0,3.8 218.8,3.5 219.3,3.6 219.8,4.1 222.1,4.4 " />
    <polygon id="Netherlands" points="328.4,8.6 331.1,14.6 334.6,16.9 335.1,17.2 347.1,22.7 348.1,23.1 349.2,23.3 357.3,24.6 358.3,24.6 358.9,24.3 358.8,30.4 359.2,44.9 359.1,46.2 358.2,49.0 358.0,49.5 357.6,50.2 356.3,52.3 352.1,56.4 348.3,61.1 347.0,62.3 346.3,63.1 346.1,64.6 346.0,65.8 345.9,67.3 345.9,68.8 345.8,71.6 345.4,76.8 345.0,77.9 344.7,78.7 344.0,79.5 343.3,79.7 342.3,79.7 332.8,79.1 332.1,78.5 331.5,78.0 330.5,77.8 320.2,77.7 319.0,77.9 318.0,78.2 314.7,80.0 315.2,80.7 318.3,85.6 314.9,86.3 311.9,87.0 313.1,92.6 317.7,95.1 318.7,95.4 335.1,97.6 335.9,97.5 336.9,96.9 337.7,96.4 338.6,95.3 339.2,95.3 345.4,100.9 346.0,102.0 346.5,104.5 346.3,105.0 345.3,106.4 343.5,108.7 342.9,109.9 342.6,111.0 342.6,111.6 342.9,112.6 344.8,115.5 343.9,116.0 336.8,119.8 331.3,121.3 328.9,123.3 328.7,124.4 328.4,125.2 327.4,126.1 326.7,126.3 325.7,126.3 318.2,126.6 316.1,130.1 315.4,133.8 321.4,136.1 321.9,136.4 324.3,138.1 324.6,139.1 324.7,139.6 324.5,140.1 320.9,143.5 319.8,144.2 317.0,145.5 315.0,146.3 313.0,145.8 312.2,145.3 311.5,144.8 310.7,144.8 303.3,146.4 297.2,148.4 291.3,150.3 281.2,150.8 265.9,146.5 260.6,147.2 249.6,152.4 246.0,154.5 247.7,156.5 248.2,158.2 247.6,158.8 245.0,159.9 252.0,163.6 257.8,172.6 261.3,175.8 263.7,177.1 267.7,180.8 268.2,181.4 269.5,185.2 269.6,194.6 262.3,200.9 256.5,205.7 255.9,207.9 255.8,208.5 256.1,210.5 256.3,211.3 256.9,212.1 257.5,212.4 258.2,215.8 249.6,220.1 241.2,222.0 240.5,222.0 237.3,223.3 237.5,226.0 239.5,230.2 240.3,230.2 241.0,230.1 243.2,229.3 244.4,229.0 250.9,229.5 251.7,229.7 256.6,235.3 257.0,239.1 255.9,240.9 255.2,241.4 254.5,241.4 253.5,241.1 251.7,241.5 250.6,242.0 250.1,245.6 250.4,249.7 242.7,249.8 240.2,250.0 237.6,249.4 231.0,248.6 226.0,249.4 222.0,249.6 221.4,249.4 222.3,248.1 222.7,247.5 222.3,245.3 221.6,245.0 220.7,244.8 218.1,243.8 216.8,242.2 216.5,241.6 216.6,240.5 217.6,238.8 218.3,238.5 227.4,231.3 228.0,228.6 229.1,225.3 232.9,217.3 235.6,215.0 236.2,214.2 235.7,213.5 234.4,212.7 227.1,210.5 217.2,209.2 210.2,207.7 209.3,203.8 208.9,203.2 205.9,201.3 205.0,201.0 204.4,200.9 203.8,200.8 202.7,200.9 201.8,201.7 201.1,202.0 196.0,203.5 195.0,203.6 188.6,203.9 180.4,203.9 180.4,200.1 179.9,199.5 178.9,199.2 176.9,198.7 176.3,198.7 173.9,199.2 172.8,199.1 171.7,198.8 166.2,192.7 165.8,192.2 165.7,191.5 166.0,190.8 166.5,190.3 167.9,189.0 168.2,188.2 167.4,187.2 166.0,185.4 165.3,184.9 162.5,183.6 161.9,183.5 160.8,184.1 160.2,184.6 159.9,186.5 159.6,187.2 158.7,188.0 157.7,188.7 154.7,190.5 153.3,191.3 152.4,191.5 145.4,190.1 143.5,188.7 144.6,185.9 144.7,184.4 142.9,183.1 141.2,182.4 139.5,182.1 138.9,182.0 137.8,182.1 136.7,182.7 132.0,185.1 131.4,185.6 128.9,187.4 128.9,188.4 128.9,188.9 127.0,189.3 126.5,189.3 117.6,189.1 116.7,188.5 116.6,187.8 116.8,186.7 117.3,186.1 117.9,184.6 117.9,183.9 117.0,183.7 112.2,184.1 104.1,186.6 104.0,189.9 104.4,190.4 105.9,191.6 107.6,193.3 107.2,194.6 106.0,195.1 105.0,195.3 103.2,195.3 100.6,195.0 99.5,194.8 93.4,193.5 90.9,193.7 86.4,191.0 73.1,189.1 61.6,188.2 61.3,189.0 59.6,191.4 58.9,191.9 52.6,192.4 52.0,192.3 29.3,187.4 26.6,186.5 25.8,186.2 18.4,180.4 17.5,179.7 17.3,179.1 17.8,178.6 18.5,178.1 19.5,177.5 21.4,176.6 23.7,175.6 24.9,175.1 27.7,174.0 29.0,173.5 30.0,173.4 40.1,173.3 52.9,172.7 56.2,173.2 58.4,174.7 58.8,175.2 59.3,176.1 58.9,176.7 55.8,178.1 53.9,177.5 51.8,177.9 55.9,178.9 57.7,178.5 60.9,177.9 61.6,178.0 62.1,178.1 68.6,180.1 71.7,181.2 73.1,181.9 74.2,182.8 75.5,185.2 76.7,186.8 78.1,187.5 79.4,187.9 81.3,188.2 81.8,188.2 89.6,188.3 91.0,187.9 92.0,187.4 93.2,187.3 94.0,187.0 94.5,186.4 94.7,185.2 94.5,184.5 93.9,183.4 92.2,181.6 88.9,180.7 87.6,180.9 86.5,181.0 75.5,179.6 67.6,175.2 67.1,174.7 67.5,174.1 68.3,173.8 71.8,172.8 73.7,172.4 75.2,172.2 83.4,172.8 85.3,173.2 85.8,173.4 86.9,174.2 86.7,173.2 86.3,172.7 85.8,172.2 84.9,171.7 83.1,171.9 82.0,172.0 80.7,171.9 78.3,170.5 78.1,169.9 77.7,168.7 76.8,169.4 76.1,169.8 74.9,170.3 74.1,170.6 69.8,171.5 68.8,171.7 66.2,172.0 65.1,172.0 59.3,170.2 46.5,166.5 42.0,166.5 41.2,166.3 40.5,165.9 39.7,165.2 39.5,164.6 39.7,163.3 40.3,162.3 41.1,161.6 42.1,161.2 43.0,160.9 47.9,160.0 48.4,160.0 51.0,160.2 52.2,160.4 57.0,160.2 57.6,160.2 64.0,161.0 65.2,161.2 65.8,161.6 68.4,163.3 74.1,166.1 77.5,167.7 78.3,166.9 79.3,166.3 82.2,165.7 83.2,165.5 79.6,163.6 73.5,159.6 73.2,159.0 70.8,156.4 69.8,155.7 68.5,155.3 67.4,155.0 66.3,154.9 64.0,155.0 56.6,156.4 55.9,154.5 55.8,153.8 57.2,153.0 66.5,151.0 67.6,150.8 68.6,150.9 69.4,151.3 70.5,151.9 73.6,149.7 69.5,140.0 69.1,139.0 69.4,138.4 70.0,138.1 71.6,138.2 72.1,138.3 73.4,138.4 75.3,138.5 77.1,138.5 78.1,138.3 79.4,138.0 80.6,137.4 81.6,136.8 100.9,121.5 101.5,121.0 104.3,118.4 105.1,117.6 106.2,116.5 106.9,115.6 108.1,114.1 112.9,107.4 115.0,104.3 116.9,101.5 117.2,100.8 118.0,99.0 119.5,96.3 120.3,95.5 121.0,95.2 127.7,95.9 132.1,98.3 144.7,99.8 148.4,101.6 150.3,103.1 154.4,103.2 158.0,104.3 170.2,107.1 180.2,108.7 181.3,108.7 181.8,108.9 184.9,109.7 185.8,110.0 188.7,112.0 189.3,112.0 191.7,112.4 192.7,112.6 193.5,113.0 195.6,114.2 196.6,114.4 197.2,114.5 197.7,114.4 206.2,113.1 207.1,112.8 208.0,112.2 208.8,111.3 209.7,110.1 210.4,108.6 211.1,107.8 211.7,107.3 215.3,104.9 219.5,103.4 221.0,102.8 222.4,102.3 224.2,101.8 225.1,101.7 226.1,101.4 227.3,100.9 228.2,100.6 228.9,100.3 232.2,98.4 233.0,97.8 235.8,95.2 238.3,90.8 237.8,89.6 235.5,85.5 235.6,83.8 236.2,82.0 227.5,82.0 220.2,82.0 219.0,81.9 213.3,77.6 213.0,77.0 212.7,69.9 212.8,68.7 214.8,66.4 218.5,62.8 219.3,62.1 220.1,61.7 223.8,61.0 217.8,59.5 217.3,59.5 212.6,60.1 212.1,60.7 211.6,61.2 210.8,61.6 209.8,61.7 196.7,59.8 196.1,59.7 194.8,59.2 192.6,57.9 192.1,57.4 191.6,56.6 192.4,55.7 194.4,54.9 195.3,54.6 196.1,54.3 196.7,50.9 196.8,49.6 196.0,43.7 195.7,43.2 192.7,40.0 191.7,40.0 189.4,40.4 186.2,41.6 184.9,42.1 182.5,43.2 176.7,46.8 167.8,51.1 167.0,56.7 170.1,62.5 176.2,68.6 177.0,68.3 178.3,68.3 179.6,68.5 183.9,69.0 184.6,69.4 185.2,70.1 185.5,70.7 186.3,72.9 181.8,74.3 180.6,77.1 179.6,77.8 176.5,79.2 173.9,80.0 172.0,80.5 170.9,80.6 168.3,78.8 163.8,78.7 163.2,78.8 162.4,79.1 161.7,79.5 161.3,80.2 161.2,80.8 162.6,85.0 163.0,85.9 164.8,87.9 166.6,90.1 167.0,91.0 167.1,91.7 166.9,97.7 165.8,99.3 162.9,100.5 161.3,103.0 160.7,103.0 160.2,103.0 151.6,102.0 150.4,101.8 147.4,99.3 142.9,98.4 132.7,97.0 128.6,94.8 120.6,94.3 121.4,92.7 122.3,90.4 124.5,82.9 125.3,79.5 125.7,77.9 125.7,75.3 127.3,68.9 134.2,51.1 134.6,50.4 135.3,49.9 136.0,49.8 138.2,49.6 139.9,49.5 141.4,50.6 141.5,51.6 141.1,52.3 141.2,52.9 141.8,53.8 143.0,54.3 143.8,54.7 146.2,55.4 147.1,55.7 148.5,55.8 150.1,55.6 152.6,55.2 153.5,55.0 166.5,50.4 168.0,49.7 175.0,46.1 179.0,43.4 181.1,42.1 181.8,41.7 186.0,39.8 188.4,39.2 191.4,38.7 193.0,38.1 193.7,37.6 195.2,35.4 196.0,33.6 196.5,31.6 196.3,31.0 198.8,27.1 200.3,25.9 201.0,25.4 210.7,20.2 211.8,19.6 213.0,19.1 239.5,11.7 247.7,10.2 257.7,9.1 265.0,8.9 266.0,8.8 267.0,9.2 276.3,9.9 290.4,7.8 312.6,4.5 314.7,4.2 316.6,4.1 319.9,4.7 326.9,6.5 327.6,6.7 328.2,7.0 328.3,8.1 328.4,8.6 " />
    <polygon id="Netherlands" points="178.0,14.6 176.9,14.7 175.6,14.7 174.6,14.4 174.0,13.9 173.8,13.3 174.0,12.5 175.0,11.8 178.5,10.7 179.4,10.4 207.6,5.6 209.2,5.4 210.8,5.3 211.5,5.8 211.1,6.5 210.4,7.1 209.6,7.4 190.7,11.8 186.9,12.7 178.0,14.6 " />
    <polygon id="Netherlands" points="154.8,24.8 148.7,27.2 148.1,27.1 147.9,26.5 149.0,25.4 150.7,24.4 155.5,21.8 157.7,20.7 158.9,20.1 159.8,19.8 163.7,18.7 165.9,18.2 167.2,18.3 167.7,18.4 168.3,18.9 154.8,24.8 " />
    <polygon id="Netherlands" points="137.4,47.2 136.4,47.4 135.0,47.3 134.0,47.0 133.4,46.6 132.9,46.0 132.3,44.5 132.1,43.1 132.2,42.3 132.8,41.3 133.5,40.4 135.4,38.6 145.4,29.9 146.0,29.5 146.8,29.3 147.7,29.5 148.3,29.9 150.7,33.5 150.7,37.4 150.4,38.2 149.9,38.7 147.5,41.2 145.9,42.8 141.0,45.7 139.4,46.5 137.4,47.2 " />
    <polygon id="Netherlands" points="197.1,79.3 199.4,81.2 200.2,82.0 202.0,84.1 202.7,85.1 202.7,85.8 200.8,86.2 199.3,88.2 199.3,90.5 198.5,90.9 197.4,91.6 195.8,92.1 192.9,92.7 186.3,95.5 176.0,99.4 175.1,99.9 174.5,100.3 173.9,101.0 173.0,101.4 170.9,102.3 164.8,102.0 164.1,101.8 163.4,101.3 163.5,100.7 166.2,99.4 167.2,97.5 168.0,97.0 168.8,94.4 168.4,92.7 168.1,91.9 167.8,91.2 165.2,87.4 163.1,85.7 162.8,85.1 161.9,82.2 161.7,81.4 161.6,80.9 161.7,80.3 162.3,79.6 163.0,79.3 163.7,79.2 167.9,79.2 168.9,79.7 169.6,80.3 170.2,80.8 171.0,81.2 171.6,81.2 172.2,81.1 173.6,80.8 176.9,79.6 179.2,78.7 180.4,78.0 181.2,77.5 181.6,77.0 182.0,76.4 182.2,75.7 182.3,75.1 185.6,74.4 186.1,74.4 188.6,75.1 193.0,76.4 197.1,79.3 " />
    <polygon id="Netherlands" points="228.0,99.4 227.1,99.6 224.1,99.6 221.6,100.0 216.6,101.8 215.3,102.6 214.2,103.5 211.1,103.5 209.9,104.1 208.2,105.1 208.2,105.8 209.4,107.5 207.6,110.7 207.1,111.3 205.6,111.8 197.6,113.1 196.4,113.1 195.4,112.8 194.7,112.4 192.2,111.0 191.1,110.4 188.7,109.0 186.4,108.2 184.0,107.5 181.2,106.9 177.9,106.2 176.2,106.3 175.7,106.3 174.8,106.6 173.7,106.7 172.9,106.5 171.9,105.8 171.6,105.2 171.0,102.5 173.9,101.3 175.1,100.3 177.1,99.4 185.6,96.1 193.3,93.1 196.2,92.3 199.6,90.8 199.9,89.5 202.0,87.3 210.7,83.7 217.1,82.5 233.7,85.3 234.8,86.2 236.3,87.7 236.8,88.5 236.9,89.7 236.3,92.4 235.5,93.3 234.1,95.0 231.1,98.0 230.0,98.6 228.0,99.4 " />
    <polygon id="Netherlands" points="46.7,196.4 55.5,196.9 64.5,194.2 86.0,193.7 86.6,193.8 87.2,193.9 87.8,194.3 89.7,195.9 88.7,196.8 87.5,197.7 83.7,200.4 82.7,201.0 79.6,202.4 73.7,204.8 63.7,208.2 59.3,209.0 58.7,209.1 58.1,209.0 50.5,208.0 49.6,207.7 49.1,206.6 49.6,204.2 48.3,203.7 38.0,201.1 32.5,200.1 31.8,200.1 24.9,201.5 24.5,202.2 24.7,202.8 24.9,203.8 24.9,205.0 21.2,205.6 19.6,205.8 18.4,205.7 17.2,205.5 12.6,203.3 11.9,202.9 11.2,199.6 11.0,193.8 14.2,192.7 24.5,190.4 26.2,190.3 27.3,190.5 35.4,193.1 42.8,195.4 44.0,196.0 44.5,196.1 46.7,196.4 " />
  </g>
</svg>