<?xml version="1.0" encoding="UTF-8" standalone="yes"?>
<!DOCTYPE svg PUBLIC "-//W3C//DTD SVG 1.0//EN" "http://www.w3.org/TR/2001/REC-SVG-20010904/DTD/svg10.dtd">
<svg height="250" width="370" xmlns="http://www.w3.org/2000/svg" xmlns:svg="http://www.w3.org/2000/svg" xmlns:xlink="http://www.w3.org/1999/xlink">


<g id="background">
<rect id="" width="370" height="250" fill="#222222"/>
</g>
  <g id="56" style="stroke-miterlimit: 3; fill: #F1F1F1; stroke: #000000; stroke-opacity: 1; stroke-width: 0.05; stroke-linejoin: bevel; stroke-linecap: square">
    <polygon id="Belgium" points="168.9,52.2 169.6,52.3 171.4,49.7 167.8,48.0 167.1,47.1 166.8,44.5 165.0,43.4 164.1,41.5 166.7,41.4 173.2,42.7 174.3,43.0 177.1,43.2 179.0,43.2 180.1,43.0 181.0,42.8 181.9,41.5 180.0,39.3 178.4,38.1 178.0,37.5 177.7,34.3 186.2,31.5 191.7,30.9 192.3,31.0 192.8,31.5 192.2,33.1 191.5,34.1 191.3,34.9 191.5,36.0 191.9,36.6 201.8,36.9 202.3,36.9 204.3,36.4 204.3,35.9 204.1,35.2 206.9,32.9 207.6,32.4 212.6,29.8 213.7,29.3 214.9,29.2 215.5,29.2 217.3,29.6 219.1,30.3 221.0,31.3 221.0,33.2 219.8,36.2 221.8,37.7 229.1,39.2 229.7,39.2 231.6,38.2 234.8,36.2 235.9,35.5 236.8,34.7 237.1,33.9 237.3,32.2 238.1,31.3 239.3,30.7 239.8,30.8 242.9,32.2 243.6,32.7 245.1,34.7 245.9,35.8 245.6,36.5 244.4,37.6 243.5,38.4 243.2,39.2 243.4,39.9 243.8,40.5 249.3,46.7 250.7,47.2 252.0,47.3 254.0,46.9 254.5,46.8 255.1,46.8 257.3,47.4 258.3,47.7 258.8,48.3 258.8,52.3 267.5,52.3 274.2,52.0 274.8,52.0 275.3,51.9 280.7,50.4 281.5,50.0 282.5,49.2 283.6,49.1 284.3,49.2 284.9,49.2 285.8,49.6 288.6,51.3 289.4,52.2 290.4,56.3 297.7,58.0 308.2,59.3 315.9,61.6 317.3,62.5 317.9,63.0 317.5,63.8 314.3,66.5 310.4,75.0 309.2,78.4 308.6,81.3 298.9,89.0 298.2,89.3 297.3,90.6 297.0,91.9 297.3,92.9 298.4,94.3 301.4,95.6 302.4,95.8 303.2,96.1 303.5,98.0 303.1,99.1 302.2,100.5 302.9,100.7 306.6,100.6 307.1,100.5 312.4,99.6 319.4,100.4 322.1,101.1 324.7,100.9 332.9,100.8 337.0,104.0 347.8,110.5 357.6,113.6 357.8,114.3 355.6,116.9 357.2,125.7 361.5,125.6 362.3,125.8 363.8,126.4 364.8,127.0 367.4,130.4 367.7,131.2 370.0,142.4 365.3,143.4 358.7,146.2 348.4,151.1 347.7,152.0 345.2,158.6 344.7,161.2 343.3,160.8 335.0,158.2 334.5,157.5 334.3,156.0 333.1,156.0 329.5,157.0 328.9,157.3 321.4,163.2 320.9,163.9 320.6,165.7 315.9,174.7 311.8,177.0 310.4,177.5 309.8,178.1 307.6,182.3 306.3,189.3 307.5,193.1 309.2,193.6 311.7,194.5 319.3,200.3 319.9,201.3 322.1,205.8 322.2,207.9 318.7,214.5 316.2,216.6 313.4,217.1 311.9,217.0 303.2,217.3 296.5,218.0 292.8,218.9 286.8,220.3 285.2,220.5 281.7,221.0 281.0,220.5 280.3,219.7 281.3,218.5 281.5,217.8 277.9,211.8 276.8,211.1 275.7,210.5 274.1,209.8 273.5,209.6 267.6,206.4 235.5,192.4 234.4,192.2 231.9,192.4 230.6,193.2 229.6,193.5 228.6,193.6 227.5,193.7 226.9,193.6 223.7,192.9 222.8,191.9 218.7,174.1 220.4,166.8 221.8,164.3 224.4,161.3 225.1,160.9 225.7,160.4 224.6,158.6 219.8,157.3 218.5,157.4 213.1,160.4 206.8,164.7 206.4,165.4 205.9,166.6 206.5,167.5 206.8,168.1 206.5,169.4 205.1,173.2 204.5,173.8 188.9,178.5 184.4,179.3 183.9,179.3 182.7,179.1 181.2,178.7 179.6,178.3 170.3,176.3 163.7,176.8 162.1,177.0 160.6,177.3 157.5,175.7 156.6,175.4 154.2,175.5 154.0,172.5 156.4,160.3 158.6,150.6 155.7,146.3 143.6,139.3 138.4,140.3 129.3,140.8 118.3,139.5 108.9,135.5 108.4,131.9 108.3,131.1 107.3,129.6 106.8,129.1 103.5,126.4 102.3,125.9 93.7,123.6 87.8,124.4 79.7,125.9 79.2,125.9 72.6,123.2 70.8,121.8 67.3,110.1 67.2,109.3 62.9,103.7 61.9,101.8 61.5,100.8 59.8,98.5 58.8,97.8 57.7,97.6 55.1,97.5 48.8,98.6 48.0,98.9 46.6,99.6 45.9,99.5 44.8,99.6 40.2,100.8 38.5,102.3 34.2,106.0 31.3,105.0 23.1,100.9 10.4,95.1 5.4,84.6 5.4,77.9 0.0,68.7 0.9,68.6 1.8,68.3 30.8,57.0 39.7,53.5 45.9,51.0 53.1,47.6 54.8,46.9 56.6,46.4 61.2,45.2 79.6,41.6 79.8,47.7 80.4,50.9 81.2,51.7 85.6,53.9 87.3,54.2 88.7,54.3 90.4,54.1 93.9,53.7 94.3,52.3 94.1,51.2 93.9,50.5 94.3,49.8 101.1,48.3 101.6,48.3 102.3,48.3 108.2,49.4 119.1,52.1 120.1,52.4 119.8,54.7 120.1,56.1 121.3,56.7 129.4,57.7 130.1,57.8 130.7,57.7 135.4,56.9 145.9,53.3 152.2,50.7 155.4,49.3 156.5,48.7 160.5,45.8 161.8,44.8 162.8,43.9 164.5,45.2 165.2,47.1 166.8,48.6 169.6,49.6 169.9,50.3 168.7,51.8 " />
  </g>
</svg>