<?xml version="1.0" encoding="UTF-8" standalone="yes"?>
<!DOCTYPE svg PUBLIC "-//W3C//DTD SVG 1.0//EN" "http://www.w3.org/TR/2001/REC-SVG-20010904/DTD/svg10.dtd">
<svg height="250" width="370" xmlns="http://www.w3.org/2000/svg" xmlns:svg="http://www.w3.org/2000/svg" xmlns:xlink="http://www.w3.org/1999/xlink">


<g id="background">
<rect id="" width="370" height="250" fill="#222222"/>
</g>
  <g id="562" style="stroke-miterlimit: 3; fill: #F1F1F1; stroke: #000000; stroke-opacity: 1; stroke-width: 0.05; stroke-linejoin: bevel; stroke-linecap: square">
    <polygon id="Niger" points="104.2,103.1 104.2,98.4 104.2,94.0 104.2,92.5 106.5,92.0 109.6,91.4 117.8,89.9 126.7,88.2 131.7,87.2 134.0,86.8 136.7,86.3 137.3,86.1 140.5,83.4 147.7,77.2 151.3,74.1 154.9,71.0 160.9,65.8 171.9,56.4 175.9,54.1 177.7,53.0 181.8,50.5 184.6,48.8 195.9,42.0 198.7,40.3 204.7,36.7 214.6,30.8 220.4,27.4 228.4,22.7 233.0,20.0 238.9,16.6 241.7,14.9 243.3,14.0 249.1,10.7 261.9,3.3 263.2,2.6 267.8,0.0 268.4,0.1 274.0,1.3 275.3,1.6 276.5,1.9 278.1,2.2 280.6,2.7 286.9,4.1 291.5,5.1 296.5,6.2 297.5,6.4 298.0,6.5 299.0,6.8 300.7,7.5 301.8,8.1 308.4,13.5 315.3,19.2 317.9,17.9 319.2,17.2 320.8,16.4 327.7,12.9 328.6,12.4 330.6,11.4 331.4,11.0 331.6,11.9 332.5,16.3 334.8,27.9 335.6,32.2 335.7,36.0 335.7,39.5 335.7,40.3 335.8,42.4 336.1,43.0 337.5,43.9 342.8,51.4 343.8,52.9 344.8,54.3 343.8,54.8 343.4,55.4 343.2,56.1 343.3,57.2 343.5,58.0 344.4,58.9 344.9,59.3 345.6,59.6 352.6,67.0 352.2,67.5 350.0,71.5 348.5,74.0 347.4,75.9 346.9,79.6 346.6,82.5 344.9,95.2 344.4,98.9 344.2,100.2 343.6,110.6 343.6,111.5 343.3,116.7 342.6,130.2 341.9,139.4 341.7,140.0 341.2,140.6 339.0,142.9 336.5,145.4 334.1,148.0 329.5,152.8 322.5,160.1 318.2,164.6 316.1,167.5 314.5,169.8 311.9,173.5 310.3,175.8 307.4,179.3 305.8,182.5 305.4,183.3 305.7,184.3 306.0,185.8 305.3,186.3 303.6,188.2 303.7,188.9 303.6,189.4 302.9,190.0 302.2,190.3 300.9,190.4 300.2,190.7 299.4,191.2 299.0,191.8 301.1,201.4 301.9,204.9 302.4,207.2 296.6,207.2 294.6,209.2 294.7,209.8 293.6,211.2 291.9,211.4 291.2,211.3 290.9,210.8 289.6,211.1 287.1,212.1 284.4,214.4 284.0,215.0 281.8,216.3 280.9,216.6 280.2,217.2 279.4,218.2 279.6,219.1 278.5,220.3 277.8,221.0 277.2,220.8 275.9,220.8 271.8,219.8 268.3,218.8 265.8,217.4 264.5,216.7 258.2,214.9 257.3,214.7 256.7,214.5 256.0,214.4 255.3,214.3 254.1,214.4 252.8,214.4 252.0,214.5 251.5,214.5 250.6,214.6 249.6,214.7 249.1,214.8 248.4,214.8 247.8,214.8 247.2,214.7 246.5,214.7 245.0,214.5 244.4,214.3 243.7,214.2 242.6,214.2 241.7,214.2 241.1,214.2 239.4,214.5 238.3,214.8 237.1,215.2 235.6,215.6 234.5,215.8 233.5,215.9 233.0,216.0 230.6,216.5 229.7,216.6 229.0,216.9 225.6,218.7 224.9,219.1 224.3,219.6 223.1,220.8 219.4,225.1 218.1,226.6 213.6,226.3 209.7,226.0 207.1,225.7 206.1,225.7 205.4,225.6 204.7,225.6 200.9,224.6 197.6,223.6 197.3,223.0 196.8,222.2 195.5,221.1 194.9,220.8 194.1,220.6 193.5,220.6 192.2,220.5 190.9,219.4 189.6,218.2 188.9,217.8 188.3,217.7 186.5,216.5 184.5,215.6 179.6,214.9 170.4,220.3 169.6,220.1 167.0,219.7 165.5,221.5 164.3,222.5 163.0,222.5 161.4,222.5 158.3,220.1 157.8,219.2 155.6,215.1 153.4,212.9 150.2,209.6 149.5,209.2 147.3,207.9 146.3,207.9 144.1,208.4 141.2,207.6 140.5,207.3 138.6,206.5 134.9,205.1 134.0,204.7 131.7,203.5 127.9,204.5 127.4,205.6 126.3,206.5 124.7,206.6 120.1,206.9 118.5,206.8 117.7,205.9 112.2,207.1 109.3,207.8 104.3,212.2 102.0,212.3 102.0,213.9 102.0,216.6 102.0,218.6 101.2,222.5 100.6,223.4 98.0,227.7 97.2,228.3 91.8,232.3 91.9,234.1 92.0,238.2 91.8,239.0 91.3,241.2 92.1,243.3 92.1,244.0 90.9,245.2 91.2,247.2 92.0,247.5 92.4,248.8 90.7,250.0 89.8,249.2 89.4,248.3 88.7,247.4 87.9,246.6 85.9,245.7 85.4,245.9 84.8,246.0 84.2,245.4 83.6,244.5 83.4,244.0 83.3,243.4 81.3,241.1 78.1,237.8 75.2,235.6 74.5,235.1 73.3,235.4 72.1,236.0 70.8,237.1 69.7,237.3 68.1,237.6 65.1,238.2 64.7,239.1 64.9,240.7 65.3,241.7 65.2,244.4 65.2,245.7 63.5,243.5 58.0,236.0 58.4,235.4 60.2,234.7 61.5,234.6 62.2,233.3 61.4,231.0 61.0,230.2 59.8,228.9 59.0,228.4 56.5,228.1 55.2,228.7 54.0,230.6 47.8,230.2 42.4,225.7 38.1,222.1 35.9,221.9 35.4,220.5 35.4,215.3 35.4,214.5 36.5,214.7 37.2,215.0 37.9,215.3 39.3,215.7 41.2,215.2 40.9,214.2 40.3,214.1 39.2,214.0 38.2,213.6 36.3,212.6 35.9,212.1 36.0,211.3 35.6,210.5 31.1,208.2 27.7,207.9 27.1,207.4 25.4,204.3 24.3,203.1 21.9,198.7 22.2,198.0 22.7,197.5 23.1,196.2 22.6,195.3 21.3,193.6 20.7,193.5 19.4,192.3 18.5,191.4 18.0,190.2 19.2,186.4 19.6,185.4 18.6,183.6 18.9,183.1 19.4,182.7 19.4,181.9 19.4,181.2 19.3,180.1 20.4,180.4 21.5,180.6 22.9,180.9 24.0,180.6 25.3,180.1 27.6,180.8 28.3,181.1 29.2,181.3 29.9,180.9 30.9,180.8 34.3,180.6 35.1,180.6 37.4,178.4 42.2,174.1 54.3,173.5 56.2,173.4 67.5,172.8 70.0,172.7 74.9,172.8 77.9,172.9 78.4,171.4 84.4,171.8 88.7,172.5 89.1,171.7 89.2,171.0 89.9,169.3 93.2,166.4 93.7,166.2 94.2,166.1 95.0,166.1 95.7,165.9 96.5,165.2 96.9,164.3 98.0,160.2 98.6,157.5 100.5,152.8 100.9,152.1 101.4,151.6 101.9,151.2 102.5,150.9 103.1,150.8 103.2,143.4 103.2,141.6 103.7,139.6 104.3,138.0 104.3,131.7 104.3,127.8 104.3,124.1 104.2,116.8 104.2,103.1 " />
  </g>
</svg>