<?xml version="1.0" encoding="UTF-8" standalone="yes"?>
<!DOCTYPE svg PUBLIC "-//W3C//DTD SVG 1.0//EN" "http://www.w3.org/TR/2001/REC-SVG-20010904/DTD/svg10.dtd">
<svg height="250" width="370" xmlns="http://www.w3.org/2000/svg" xmlns:svg="http://www.w3.org/2000/svg" xmlns:xlink="http://www.w3.org/1999/xlink">


<g id="background">
<rect id="" width="370" height="250" fill="#222222"/>
</g>
  <g id="566" style="stroke-miterlimit: 3; fill: #F1F1F1; stroke: #000000; stroke-opacity: 1; stroke-width: 0.05; stroke-linejoin: bevel; stroke-linecap: square">
    <polygon id="Nigeria" points="112.7,3.7 115.0,4.6 115.9,4.9 119.4,6.0 122.1,5.4 123.3,5.4 126.1,6.9 127.0,7.4 130.9,11.5 133.5,14.2 136.1,18.8 136.9,20.4 140.2,23.2 142.7,23.3 144.3,23.3 145.8,22.1 147.6,19.9 150.8,20.4 151.8,20.6 163.1,14.0 169.1,14.8 171.1,15.3 171.6,15.9 173.8,17.4 174.5,17.5 175.4,18.0 177.0,19.5 178.6,20.9 179.6,21.1 180.2,21.0 180.9,20.9 181.9,21.2 182.6,21.6 183.7,22.4 184.3,23.0 184.8,23.9 185.1,24.5 189.2,25.9 193.5,27.2 194.2,27.1 194.8,27.2 195.6,27.2 196.9,27.3 200.1,27.6 205.0,27.9 210.1,28.3 212.0,26.5 216.6,21.2 218.1,19.7 218.8,19.2 219.6,18.7 223.4,16.6 224.4,16.2 225.8,15.9 228.7,15.4 229.3,15.3 230.6,15.1 231.4,15.0 232.0,14.9 233.8,14.3 235.3,13.9 236.7,13.4 238.2,13.2 239.4,13.1 240.6,13.1 241.6,13.1 242.8,13.3 243.5,13.5 244.8,13.7 245.3,13.7 246.2,13.8 246.9,13.8 247.6,13.8 248.5,13.8 249.2,13.8 250.4,13.6 251.0,13.5 252.1,13.4 252.6,13.4 253.1,13.4 254.7,13.3 256.1,13.3 257.0,13.3 258.0,13.5 258.7,13.7 259.7,13.9 267.2,16.1 269.1,17.0 272.1,18.7 276.5,20.0 281.5,21.2 283.1,21.3 283.8,21.5 284.7,20.6 286.0,19.3 286.3,18.6 285.8,18.0 286.8,16.8 287.7,16.1 288.7,15.7 291.4,14.2 291.9,13.4 294.7,10.9 295.3,10.6 298.3,9.3 299.6,8.9 299.9,9.5 301.2,9.7 303.1,9.5 304.5,7.8 304.4,7.2 306.9,4.5 314.1,4.5 317.6,9.5 321.3,14.6 325.8,21.0 326.5,24.3 328.4,33.0 329.1,36.1 329.0,36.7 328.7,38.4 330.0,40.0 332.2,39.9 334.1,40.0 334.9,40.1 336.1,40.3 336.6,40.4 337.4,41.0 338.2,42.5 340.7,44.3 341.0,45.7 340.0,48.2 340.3,49.4 340.3,52.0 339.8,53.7 339.2,55.5 339.2,57.2 340.4,58.1 340.7,60.0 340.0,61.9 336.0,64.3 335.4,64.6 334.7,64.6 333.6,65.3 332.5,66.3 329.8,68.2 328.8,68.8 328.2,69.1 327.0,68.8 326.4,68.5 324.6,67.9 324.0,67.8 323.3,68.4 320.9,70.7 318.9,73.7 318.0,75.7 318.0,76.4 317.9,76.9 316.6,78.2 316.4,78.8 315.5,80.2 314.8,81.1 314.0,82.1 313.5,82.7 313.1,83.2 312.7,83.8 312.5,84.4 312.1,85.7 311.4,88.1 309.9,94.8 309.9,95.5 310.1,96.0 309.9,96.7 308.6,98.0 306.4,98.5 305.4,98.7 304.8,98.9 304.4,99.4 304.2,100.3 303.8,103.5 303.9,104.3 304.1,104.9 304.6,107.6 304.3,111.7 303.6,112.8 303.0,113.3 302.1,113.7 300.4,113.8 299.7,113.8 298.5,114.2 297.6,114.9 297.0,115.4 295.2,118.1 293.7,125.2 293.9,126.0 294.0,126.6 293.4,130.8 293.1,131.9 292.8,132.7 289.8,135.9 287.9,136.7 286.1,137.2 285.0,136.9 284.4,136.8 282.6,137.4 282.2,138.3 282.7,138.9 282.9,139.6 282.7,140.3 281.6,141.4 281.0,142.0 280.2,142.1 279.6,141.8 279.1,142.0 278.5,142.5 278.2,143.3 278.1,144.6 278.1,145.8 278.5,146.7 278.6,147.5 278.5,148.0 278.3,148.5 277.7,149.2 277.4,149.7 277.2,150.2 277.1,150.9 277.1,152.0 277.3,153.0 276.3,155.0 275.6,156.3 275.0,157.0 274.4,157.6 273.9,158.4 273.6,159.0 273.0,159.9 272.8,160.5 272.6,161.3 272.6,161.9 273.0,162.8 273.0,163.9 269.8,167.4 269.2,168.0 268.6,168.4 267.9,169.2 266.7,171.4 265.8,171.7 265.4,172.4 266.2,172.4 268.9,175.7 268.4,176.9 265.7,179.0 264.1,179.7 262.7,180.4 261.2,181.9 260.4,183.4 260.5,184.0 261.1,184.5 261.2,185.4 261.1,186.0 261.0,186.6 260.5,187.8 259.4,189.3 258.2,189.4 257.5,189.6 256.7,191.7 256.6,192.5 256.0,193.1 254.8,193.6 253.0,193.8 251.2,193.7 250.6,193.8 249.6,193.8 249.0,193.6 248.4,192.2 248.2,191.5 247.8,189.9 247.9,188.4 248.1,187.5 248.1,187.0 247.8,186.4 247.0,185.5 246.4,184.9 245.1,184.9 244.4,184.9 243.4,184.1 242.9,183.6 242.8,182.6 242.4,181.1 242.1,180.5 241.6,180.0 239.0,179.1 236.3,177.8 235.9,177.3 234.5,178.5 233.3,182.3 226.9,182.4 226.1,182.3 225.5,182.0 225.0,181.2 224.8,180.4 224.8,179.7 224.6,179.2 224.3,178.6 222.4,180.1 216.9,184.7 214.6,184.3 214.4,184.9 213.3,188.5 212.4,191.6 211.0,191.4 209.4,192.2 207.6,193.9 206.1,194.6 205.8,195.5 205.3,196.5 204.6,196.6 203.8,196.5 203.3,196.7 202.6,197.8 199.7,201.2 195.8,204.7 193.0,207.5 192.2,207.6 190.5,209.1 190.3,209.6 190.1,212.3 190.8,214.0 191.4,214.5 191.8,215.1 191.9,215.6 191.7,216.2 191.2,216.9 190.5,217.6 190.3,218.2 189.7,221.2 189.6,222.0 189.6,222.8 189.8,223.4 189.4,226.2 189.1,226.9 186.6,230.6 185.7,231.8 184.1,233.8 184.1,234.6 184.5,235.2 184.2,235.8 183.4,236.0 182.9,235.6 182.2,236.2 181.9,236.9 181.8,237.6 182.0,238.1 181.8,238.8 181.2,238.9 180.4,238.8 178.4,237.6 176.9,236.1 175.1,234.8 174.7,235.6 175.1,236.2 175.6,236.7 176.1,237.3 177.3,240.5 175.7,242.8 175.1,243.0 171.0,242.8 168.5,242.8 161.9,243.6 160.8,244.0 160.0,244.2 159.4,244.2 156.5,243.4 156.0,243.1 155.7,240.8 155.8,239.8 156.3,238.7 155.7,239.0 155.3,240.8 155.7,241.4 155.2,242.2 153.6,242.8 149.0,242.6 148.2,242.4 146.6,240.8 144.0,237.5 143.4,238.2 144.1,239.5 144.8,240.1 145.6,240.4 146.4,241.4 146.5,241.9 146.6,243.8 146.5,244.4 146.0,245.0 143.9,245.8 143.1,245.7 142.5,244.3 142.0,242.3 142.7,240.9 143.0,240.4 142.3,239.0 141.1,238.3 139.3,239.5 139.6,240.3 141.4,244.7 141.9,245.7 142.4,246.5 142.6,247.1 141.9,247.5 140.9,247.4 138.7,247.0 137.3,243.5 135.9,237.6 135.9,236.9 136.9,244.3 137.2,245.1 137.7,246.3 138.1,247.3 138.0,248.0 136.6,248.3 135.2,248.3 134.6,248.0 134.4,245.2 134.5,244.3 134.7,243.5 135.0,242.9 135.3,242.3 135.1,241.4 133.0,243.9 133.2,245.6 133.3,246.2 133.8,246.8 134.1,248.4 132.4,248.6 130.9,248.6 128.8,248.7 126.5,249.0 124.0,249.4 123.0,249.5 122.5,249.4 122.3,248.8 122.5,248.3 123.0,247.5 123.6,247.0 124.2,246.3 122.7,245.2 122.0,247.0 121.6,249.1 120.4,249.7 119.0,250.0 117.5,249.6 114.4,248.3 112.5,247.2 109.1,244.4 107.4,242.6 105.7,240.7 105.2,240.1 104.7,239.4 103.6,237.4 102.9,236.1 102.6,235.4 101.7,233.1 99.9,228.2 100.0,227.7 100.7,227.6 101.4,227.7 102.2,228.7 102.8,227.4 101.9,226.3 101.6,226.9 100.8,227.0 99.7,227.1 98.9,222.5 101.7,221.7 104.0,220.3 106.1,217.9 106.6,217.2 104.1,217.9 103.2,218.4 103.1,219.1 103.1,219.6 102.9,220.1 101.1,220.9 99.8,221.0 96.9,219.9 95.0,218.0 94.8,217.2 95.4,216.2 97.2,216.0 97.7,216.0 99.8,216.4 102.9,216.1 103.2,215.6 103.1,215.1 101.7,214.1 100.8,214.4 94.8,216.1 93.7,215.4 92.3,213.1 92.1,212.2 90.0,208.8 88.6,207.1 86.7,204.7 83.5,201.7 82.5,200.8 78.1,197.5 77.0,196.9 76.1,196.5 75.3,196.0 74.6,195.7 73.8,195.5 72.4,195.4 71.8,195.3 66.2,194.5 63.8,194.1 62.9,194.1 60.0,194.0 57.4,194.0 56.0,194.2 52.7,194.3 51.9,194.4 49.6,194.5 48.8,194.5 48.1,193.7 49.2,193.3 51.2,193.4 51.9,193.4 57.0,191.3 60.2,189.6 59.0,189.2 57.9,189.2 56.7,189.3 54.9,190.4 51.7,191.5 50.6,191.3 50.3,190.8 50.5,190.0 49.5,190.1 48.5,190.8 47.6,193.4 48.0,194.3 46.3,195.1 41.0,195.3 39.7,195.3 39.0,195.2 38.3,195.1 37.3,195.0 36.3,195.0 34.9,195.1 34.3,195.2 30.7,195.6 30.7,193.3 30.9,192.8 31.6,190.6 31.8,187.7 31.8,185.2 31.7,181.4 31.0,180.7 31.5,176.7 32.2,175.6 32.0,172.5 31.1,163.6 31.0,162.2 31.2,160.5 31.3,158.8 31.3,158.1 30.3,156.6 30.0,155.6 30.4,152.9 30.9,150.3 31.3,149.1 31.5,148.0 31.5,147.5 31.2,146.9 30.5,144.6 30.5,144.0 30.7,142.1 31.4,141.3 31.7,140.4 31.8,139.6 31.7,138.7 31.7,138.0 31.4,134.4 31.3,133.1 31.4,132.5 32.4,126.7 32.5,126.0 33.1,125.4 35.5,125.1 37.1,125.0 37.7,125.5 40.5,124.8 41.4,122.1 42.3,119.3 42.3,117.6 42.2,117.1 41.9,116.6 41.7,116.0 42.4,114.2 46.2,110.6 47.4,109.4 47.2,108.9 46.8,108.0 46.6,107.5 46.6,107.0 46.9,106.2 50.2,104.9 51.0,105.0 51.6,105.2 52.5,104.3 53.8,102.6 55.6,98.5 55.8,97.2 55.8,96.7 55.1,96.1 53.1,94.0 54.6,90.4 55.8,89.5 56.4,89.5 56.9,89.9 57.7,90.4 58.5,90.7 59.1,89.5 60.2,85.9 60.0,83.2 59.7,82.7 58.4,81.5 57.6,80.5 57.4,79.8 57.7,79.1 58.1,77.8 57.4,74.8 57.0,74.1 56.9,73.3 57.1,72.0 56.6,71.8 56.0,71.6 53.8,68.7 50.3,64.0 51.6,60.5 52.8,58.3 53.7,57.1 55.9,55.7 55.5,54.3 54.4,53.7 54.0,51.2 55.4,49.8 55.4,49.2 54.5,46.4 55.1,43.6 55.3,42.7 55.2,37.6 55.1,35.4 61.7,30.5 62.8,29.7 66.0,24.4 66.7,23.3 67.6,18.6 67.6,16.1 67.7,12.7 67.7,11.0 70.4,10.7 76.2,5.3 80.3,4.4 87.0,2.9 88.0,4.0 90.0,4.1 95.6,3.8 97.5,3.6 98.9,2.5 99.4,1.2 103.7,0.1 104.2,0.0 107.1,1.4 108.2,1.9 112.7,3.7 " />
    <polygon id="Nigeria" points="147.2,247.2 146.6,247.3 145.8,247.2 147.8,243.6 148.4,243.8 149.6,244.4 150.2,244.8 150.1,246.4 147.5,247.1 " />
    <polygon id="Nigeria" points="154.1,245.5 153.2,245.9 151.3,245.8 150.7,245.6 151.0,244.6 151.9,244.5 152.7,244.4 154.4,244.9 154.1,245.5 " />
  </g>
</svg>