<?xml version="1.0" encoding="UTF-8" standalone="yes"?>
<!DOCTYPE svg PUBLIC "-//W3C//DTD SVG 1.0//EN" "http://www.w3.org/TR/2001/REC-SVG-20010904/DTD/svg10.dtd">
<svg height="250" width="370" xmlns="http://www.w3.org/2000/svg" xmlns:svg="http://www.w3.org/2000/svg" xmlns:xlink="http://www.w3.org/1999/xlink">


<g id="background">
<rect id="" width="370" height="250" fill="#222222"/>
</g>
  <g id="578" style="stroke-miterlimit: 3; fill: #F1F1F1; stroke: #000000; stroke-opacity: 1; stroke-width: 0.05; stroke-linejoin: bevel; stroke-linecap: square">
    <polygon id="Norway" points="296.6,34.7 297.3,34.8 298.2,34.6 298.8,34.4 299.4,34.4 299.3,35.0 298.5,35.2 297.9,35.3 298.0,36.0 299.3,36.1 299.9,36.0 300.5,35.7 301.3,35.4 301.9,35.4 301.8,36.0 300.2,36.4 297.9,36.6 296.8,36.5 295.1,36.7 293.8,37.0 293.2,37.1 292.5,37.1 290.8,36.3 292.3,36.0 292.8,35.9 291.5,35.7 290.5,35.8 289.8,35.9 289.3,35.9 289.4,35.1 290.5,34.9 292.1,34.8 293.2,34.7 294.4,34.1 296.0,33.9 296.6,34.7 " />
    <polygon id="Norway" points="10.0,167.6 9.4,167.6 9.9,167.7 9.3,167.4 8.6,167.4 8.0,167.4 7.0,167.3 8.6,167.2 8.0,167.1 7.0,167.1 5.3,167.1 4.5,166.5 4.8,165.8 6.3,165.1 9.2,163.9 10.3,163.2 11.0,163.1 13.6,163.4 14.7,163.5 15.7,164.1 19.1,164.3 20.2,164.3 22.5,164.2 23.4,164.3 24.0,164.5 24.9,164.6 25.9,164.7 26.4,164.6 26.9,164.4 27.5,163.8 28.1,163.7 28.9,163.8 29.6,163.9 28.9,163.5 28.4,163.5 27.8,163.5 27.2,163.6 26.7,163.8 26.3,164.3 25.2,164.3 24.7,164.2 22.4,163.9 18.6,163.7 18.1,163.8 16.6,163.9 16.0,163.8 15.5,163.5 16.5,163.3 17.0,163.2 17.6,163.2 17.0,163.1 16.3,163.1 12.8,162.9 11.4,162.8 10.7,162.9 9.8,163.1 7.6,163.4 6.8,163.2 7.2,162.4 7.9,162.5 10.9,161.7 9.2,160.8 8.2,160.5 6.9,160.4 6.3,159.8 7.4,158.9 8.0,159.1 8.8,159.5 11.6,161.1 11.8,161.8 12.3,161.5 13.0,160.8 12.5,160.6 11.8,160.6 11.2,160.4 10.7,160.2 11.1,159.4 11.7,159.3 14.9,159.5 17.1,159.1 17.6,159.2 18.2,159.5 18.2,160.3 19.9,160.5 23.0,160.8 23.6,161.1 24.3,161.1 23.1,160.7 21.8,160.6 21.0,160.5 20.5,160.4 18.3,159.1 18.6,158.4 19.4,157.8 20.0,157.6 23.3,156.7 23.8,156.8 25.8,158.4 27.0,159.6 27.1,160.1 27.6,160.0 26.1,158.2 25.5,157.8 25.0,157.5 24.7,157.0 25.0,156.5 29.0,155.7 31.4,156.0 31.5,156.6 32.2,157.6 32.8,157.8 33.3,158.3 33.4,159.0 33.1,159.5 32.5,159.9 32.5,160.4 33.3,160.7 33.9,160.7 34.5,160.5 33.8,160.5 33.0,160.4 33.2,159.9 33.7,159.5 33.8,158.9 33.6,158.3 34.7,158.1 37.4,158.0 38.0,158.1 38.7,158.6 38.4,158.0 37.7,157.9 37.2,157.8 36.6,157.9 35.9,158.0 32.9,157.6 32.1,156.9 32.7,156.7 32.0,156.0 31.3,155.6 30.4,155.2 28.8,155.3 27.0,155.8 24.8,156.0 22.9,155.6 24.5,155.1 25.4,155.0 26.3,154.9 27.5,155.0 28.3,155.0 27.1,154.5 26.3,154.5 25.7,154.5 23.7,154.6 23.0,154.5 22.8,153.9 23.3,153.5 23.9,153.4 26.9,153.3 27.7,153.7 29.1,153.0 29.9,152.8 32.8,152.8 34.5,152.8 38.4,153.7 40.4,154.3 40.8,154.9 41.3,154.3 42.8,154.1 44.2,153.9 43.6,153.8 41.8,153.9 41.0,154.0 40.2,154.0 39.7,153.9 39.1,153.6 40.6,152.6 41.7,152.2 44.2,151.8 44.8,151.7 45.4,151.7 47.1,151.6 48.2,151.9 48.9,152.1 47.9,151.3 47.3,151.2 43.0,151.7 41.1,152.1 40.2,152.4 38.7,152.3 38.4,151.7 39.6,151.3 40.2,151.2 40.8,151.0 41.5,151.0 42.2,150.9 42.8,150.8 42.2,150.8 39.8,151.0 39.2,151.2 37.9,151.5 36.1,151.6 33.1,151.8 32.9,150.7 33.2,149.9 32.4,149.2 33.8,148.4 34.5,148.1 36.9,147.7 37.5,147.9 38.6,148.5 39.5,149.1 40.6,149.1 41.2,148.9 41.8,148.5 42.4,148.3 43.3,148.2 44.1,148.3 43.5,148.8 43.0,148.9 45.7,148.6 46.5,148.3 47.1,148.3 48.1,148.6 48.8,149.1 49.3,150.3 49.8,150.7 51.3,151.0 54.1,151.9 54.7,152.3 55.2,152.5 55.2,152.0 51.9,150.7 50.8,150.5 50.0,150.2 49.6,149.5 49.5,148.8 47.4,148.0 46.8,147.8 45.9,148.0 46.8,146.8 47.7,146.5 48.4,146.4 48.9,146.6 49.0,147.2 51.6,148.8 51.9,149.4 54.2,150.1 54.8,150.1 53.1,148.6 53.9,148.5 54.5,148.5 55.3,148.5 56.3,148.4 54.5,148.1 53.3,148.2 52.7,148.3 50.4,147.5 49.5,146.3 50.6,145.9 51.5,145.8 54.7,146.0 55.3,146.0 56.1,145.4 57.4,145.3 58.0,145.2 58.5,145.2 60.4,145.0 59.5,145.0 58.8,145.0 56.0,145.1 54.0,143.9 54.7,143.6 55.4,143.5 56.0,143.5 56.7,143.5 57.9,143.2 57.2,143.0 56.2,142.5 57.6,142.1 60.8,141.7 61.3,141.4 62.1,141.7 62.8,142.1 63.3,142.7 64.5,143.0 66.5,142.8 67.2,142.6 67.9,142.3 66.8,142.6 64.4,142.8 63.6,142.5 63.3,141.2 64.6,140.4 65.8,140.4 67.1,140.4 67.8,140.0 68.7,139.5 70.3,139.2 71.3,139.1 74.6,141.7 74.4,142.4 74.9,142.9 75.8,143.0 77.4,143.4 78.8,143.8 78.9,143.2 78.3,143.1 77.5,143.1 76.9,143.0 76.4,142.9 75.9,142.6 76.1,142.0 77.0,141.8 79.0,141.4 79.5,141.4 81.4,141.6 82.6,141.8 83.3,141.9 85.6,141.8 87.2,141.7 88.0,141.6 87.5,141.3 86.7,141.3 86.2,141.2 85.9,140.7 86.5,140.3 87.7,140.3 88.1,139.5 87.6,139.5 85.5,140.0 84.9,140.2 85.3,139.4 88.2,138.3 88.8,138.1 89.7,137.9 90.4,138.1 91.4,138.0 91.9,137.9 92.4,137.3 93.0,137.1 93.9,137.1 95.1,137.0 95.7,136.8 95.3,136.2 93.3,135.8 92.6,135.8 92.0,136.0 91.2,136.1 90.7,136.1 90.5,135.5 92.9,134.5 94.1,134.3 95.0,134.3 96.0,133.9 95.1,133.5 93.7,133.5 94.2,132.4 93.7,132.3 92.2,133.3 91.7,133.8 91.0,134.1 90.5,134.2 89.9,134.3 89.3,134.5 88.5,134.8 87.8,135.2 86.5,135.6 85.9,135.7 85.1,135.9 83.3,136.6 84.2,136.5 85.8,136.1 87.1,135.7 87.7,135.4 89.4,135.6 90.2,136.1 88.4,137.6 87.6,137.8 86.5,138.0 84.2,138.5 82.9,139.3 80.7,140.0 79.6,140.1 78.9,140.1 78.1,140.3 77.6,140.5 76.5,140.9 75.9,141.0 75.2,141.0 74.2,140.9 72.6,139.2 72.3,138.6 73.2,138.3 74.1,138.1 75.3,137.8 76.1,137.5 75.3,137.1 74.0,137.4 71.5,138.1 69.2,138.7 68.9,137.2 69.4,136.9 70.0,136.7 71.1,136.4 72.8,135.8 73.3,135.5 77.2,134.8 77.7,134.9 76.9,134.1 76.1,134.2 75.0,134.1 75.5,133.0 77.6,131.3 78.8,130.7 80.1,130.1 81.5,129.4 82.3,128.8 82.9,128.8 83.5,129.1 84.4,129.0 83.2,128.5 82.1,128.3 82.6,127.9 83.5,127.9 84.3,128.0 85.9,128.6 86.5,128.8 87.1,128.8 86.5,128.0 85.8,127.8 85.2,127.9 84.6,127.8 86.5,126.8 87.8,127.1 88.3,126.0 88.8,125.5 89.7,125.8 90.1,126.4 93.0,127.6 93.2,128.7 92.3,129.5 92.8,129.3 94.0,128.5 95.4,127.4 96.3,126.3 97.0,126.2 97.9,126.2 99.4,125.8 98.8,125.7 97.5,125.8 96.9,126.0 96.2,125.9 95.7,125.5 94.8,124.6 95.4,124.0 96.9,123.3 97.5,123.1 98.2,123.1 99.5,123.2 100.3,123.0 101.0,122.8 100.4,122.7 99.6,122.7 98.9,122.6 98.2,122.5 99.5,121.7 102.5,120.9 104.1,120.6 105.1,120.6 105.7,120.8 106.3,120.9 105.4,120.4 104.9,120.3 103.9,120.3 102.0,120.7 99.7,121.4 95.4,123.0 94.7,123.4 94.2,123.5 93.5,123.6 92.6,123.7 93.3,123.4 94.5,122.7 93.8,122.6 92.6,122.5 94.5,122.0 95.3,121.9 95.9,122.0 96.9,121.8 98.9,121.4 98.0,121.4 93.6,122.0 92.8,122.0 93.4,121.6 94.1,121.3 95.2,121.0 96.8,120.7 97.9,120.5 98.7,120.5 100.1,120.3 100.6,119.8 101.5,119.4 102.4,119.1 103.2,119.1 103.8,119.2 105.3,119.4 106.8,119.2 109.1,118.8 111.9,118.1 116.3,115.6 114.7,116.2 113.1,116.9 110.0,118.0 108.8,118.0 109.1,116.7 110.3,116.6 111.8,116.5 112.6,116.5 109.3,116.1 108.3,116.2 107.8,116.3 106.8,116.8 107.9,115.9 109.9,114.9 110.7,114.7 109.9,113.8 110.8,113.7 111.6,113.9 112.1,114.1 111.7,113.5 111.1,112.9 110.4,112.8 109.8,112.7 109.2,112.6 108.2,111.7 108.1,111.0 109.2,110.2 110.0,109.8 110.5,109.8 111.2,109.9 111.8,110.6 113.6,111.2 114.2,111.1 112.5,110.4 111.3,109.8 111.7,108.2 112.2,107.4 112.9,106.9 113.6,106.7 114.2,106.5 114.8,106.4 115.8,106.6 118.0,107.3 119.4,108.1 119.3,107.3 118.8,106.8 118.1,106.8 117.0,106.6 116.5,106.4 116.6,105.4 115.9,105.2 113.6,105.4 112.6,105.1 114.9,104.2 115.7,104.1 116.6,104.1 118.1,103.9 119.5,103.6 120.4,103.4 120.9,103.2 121.6,102.9 122.1,102.8 124.9,102.7 124.6,103.3 124.5,104.2 125.7,103.3 126.3,102.8 127.0,102.7 127.6,102.6 128.4,102.7 129.1,102.9 131.2,102.5 133.1,101.6 130.7,101.7 127.6,102.1 127.1,102.5 126.1,102.6 125.4,102.5 123.9,102.4 122.3,102.6 119.9,103.2 119.2,103.3 118.2,103.5 117.6,103.4 120.1,102.1 121.9,101.8 123.0,101.8 124.1,101.8 124.7,101.7 123.8,101.6 121.8,101.5 120.7,101.8 119.9,101.9 119.3,101.8 117.8,101.5 117.2,101.1 117.8,100.9 119.2,100.5 119.4,99.9 118.4,99.1 117.7,99.0 116.9,98.8 118.4,98.4 119.0,98.5 120.1,98.8 121.2,98.7 123.6,98.1 124.1,97.8 124.8,97.7 125.9,97.5 126.5,97.6 127.2,97.6 126.3,97.4 124.6,97.5 123.9,97.7 123.2,98.1 121.1,98.4 120.5,98.3 119.6,96.9 122.7,96.8 123.9,97.0 124.7,97.1 124.2,96.7 122.9,96.4 121.8,96.3 121.3,96.3 120.4,96.1 121.1,95.9 122.8,95.9 124.0,96.0 124.7,96.1 126.8,96.3 129.3,95.9 127.5,95.8 126.9,95.8 125.9,96.0 125.4,96.1 124.9,96.0 125.0,95.4 125.6,95.3 126.2,95.3 126.8,95.3 126.2,95.2 125.6,95.2 124.8,95.2 124.3,95.0 125.2,94.8 125.8,94.7 127.6,94.8 131.0,95.0 130.3,94.8 129.0,94.8 126.9,94.3 124.6,93.4 125.0,92.9 125.6,92.9 127.8,92.8 130.2,93.1 132.9,92.2 133.8,92.4 134.3,92.3 134.9,91.8 135.4,91.2 136.7,91.1 138.5,91.3 139.1,91.8 139.3,91.3 137.1,91.0 136.4,91.0 135.3,91.0 135.7,90.0 137.4,89.7 139.5,89.7 140.6,89.8 141.1,89.9 141.7,90.3 141.3,89.7 139.8,89.5 138.7,89.5 139.4,89.2 142.2,89.0 144.1,89.1 144.1,89.6 144.7,90.6 145.3,90.6 144.6,90.1 144.7,89.5 145.4,89.2 146.0,89.0 148.7,89.4 150.1,89.7 150.7,89.9 150.6,90.4 151.5,91.0 152.1,91.1 151.8,90.0 150.7,89.3 151.9,89.1 152.6,89.2 153.3,89.3 153.9,89.4 155.1,89.6 154.9,89.1 150.9,88.7 149.0,88.6 148.5,88.7 147.9,88.8 146.2,88.5 147.0,88.2 147.4,87.7 145.7,87.8 143.2,88.1 141.1,88.9 140.5,89.1 139.9,89.1 138.8,88.5 136.2,88.7 137.7,87.8 139.0,87.1 139.3,86.5 139.8,86.2 140.4,86.0 141.8,86.1 142.4,86.2 143.5,86.3 144.1,86.1 143.5,86.0 142.8,85.8 141.4,85.2 142.6,84.6 143.9,84.2 144.8,84.1 145.7,84.0 146.3,84.0 147.0,84.2 145.3,85.2 144.6,85.3 145.4,85.4 146.7,85.1 149.7,85.2 150.7,85.3 151.3,85.4 152.6,86.4 153.4,87.5 153.9,88.2 154.7,88.0 153.8,87.1 152.4,86.0 152.6,85.5 153.4,85.0 154.9,84.5 155.7,84.3 156.3,84.3 157.1,84.2 157.7,84.2 157.0,84.0 155.3,84.2 154.4,84.4 153.7,84.6 152.9,84.8 150.2,84.8 149.1,84.7 148.5,84.6 147.7,83.4 149.3,82.0 150.2,82.1 151.5,82.4 152.3,82.5 154.3,82.5 153.6,82.3 153.1,82.2 152.4,82.2 150.8,81.7 151.9,81.8 152.7,81.7 153.3,81.7 154.2,81.9 155.8,82.3 156.6,82.6 156.1,81.8 154.7,81.5 154.0,81.3 153.4,81.2 150.5,80.8 147.8,82.0 146.2,82.4 145.2,82.7 144.0,82.9 143.0,83.0 141.8,83.0 142.1,81.9 143.7,81.8 144.9,81.8 145.7,81.6 145.6,81.1 145.0,81.1 143.3,81.2 142.0,81.0 142.4,80.4 145.2,80.2 145.8,80.2 146.6,80.1 146.1,80.0 145.3,80.0 144.4,80.1 143.9,80.2 143.3,80.3 144.7,79.5 145.5,79.5 147.7,79.7 148.3,79.8 148.8,79.9 149.8,79.6 152.5,79.1 155.1,78.7 155.9,78.7 156.4,78.8 157.3,79.1 158.5,78.1 157.0,77.4 156.4,77.5 155.8,77.6 154.0,77.6 152.4,77.3 151.3,77.6 150.9,78.1 149.8,78.1 149.1,77.6 150.0,77.0 151.2,76.3 152.0,76.1 152.5,76.6 153.4,76.4 154.5,75.9 155.1,76.0 155.5,76.7 154.8,76.7 154.2,76.8 154.0,77.3 157.1,76.7 157.7,76.2 158.2,75.4 158.4,74.8 159.2,74.6 159.8,74.7 160.6,75.7 160.4,77.0 161.8,78.3 162.3,79.0 162.2,79.6 164.7,80.5 165.7,80.8 165.5,80.1 164.3,79.9 163.6,79.8 162.8,79.6 162.0,78.0 162.7,77.8 164.0,77.9 164.8,78.1 165.6,78.6 166.4,78.6 166.1,77.8 165.1,77.7 164.4,77.6 164.7,77.1 165.6,76.7 166.1,76.9 166.7,77.1 168.4,77.3 169.1,77.1 166.7,76.7 165.4,76.4 164.9,76.7 163.9,77.0 163.3,76.6 164.9,75.8 165.9,75.5 165.0,75.0 164.0,75.1 163.2,75.2 162.5,75.3 161.8,75.3 162.6,74.9 163.5,74.8 162.9,74.5 160.7,74.2 161.0,73.7 161.6,73.6 166.3,74.4 167.0,74.9 168.0,75.5 169.2,76.0 169.9,76.1 170.4,76.1 169.4,75.6 168.3,75.3 167.5,74.8 165.7,73.9 164.9,73.8 162.7,73.5 163.2,72.9 166.8,72.4 167.4,72.4 169.0,72.4 171.1,72.8 170.9,73.3 171.5,73.5 172.9,73.2 173.5,73.0 174.9,72.8 175.4,73.0 177.7,74.4 177.8,75.3 178.9,74.8 177.9,74.0 177.2,73.8 176.2,73.4 176.0,72.8 176.6,72.4 177.7,72.4 178.5,72.5 179.1,72.7 179.9,72.9 180.6,73.1 181.2,73.0 180.4,72.8 179.9,72.7 178.5,72.3 180.0,72.1 181.0,72.0 180.9,70.7 178.1,71.0 177.4,71.3 176.8,71.7 176.3,71.8 175.7,71.8 174.7,71.9 173.9,71.9 173.3,71.9 173.9,71.7 174.5,71.5 173.2,71.0 172.7,71.0 172.0,71.3 171.3,71.7 168.4,71.9 166.5,71.9 165.6,71.0 166.6,70.5 167.2,70.6 167.7,70.6 167.2,70.1 167.1,69.5 167.8,69.1 169.9,68.6 170.9,68.5 172.6,68.2 175.5,68.1 176.7,67.9 178.0,68.0 178.5,68.2 179.1,68.6 179.6,68.7 182.5,68.9 181.8,68.5 180.7,68.4 180.1,68.4 177.3,67.8 176.5,67.5 179.1,66.7 179.8,66.7 180.4,66.8 181.2,67.0 183.9,67.4 183.0,67.0 182.4,67.0 179.7,66.4 182.2,65.8 183.1,65.5 183.8,65.8 184.5,65.9 185.0,65.8 183.2,65.0 181.9,65.0 181.1,65.1 180.4,65.2 179.8,65.3 179.2,65.5 179.9,64.1 181.9,62.6 182.7,62.4 185.8,62.2 188.8,62.0 187.4,60.8 187.1,60.1 187.6,59.6 188.2,59.6 189.0,59.3 189.5,58.6 189.5,58.0 190.7,57.2 191.3,57.2 191.9,57.5 194.1,58.8 194.7,59.8 196.6,60.4 196.6,59.9 197.9,59.5 199.3,59.5 200.3,59.9 201.0,60.0 200.4,59.5 198.8,59.2 198.1,59.2 196.6,58.9 196.0,58.8 193.6,57.8 193.6,57.0 196.5,56.4 198.9,56.3 199.9,57.3 201.2,58.4 202.4,58.9 203.1,59.1 204.4,59.1 205.2,59.2 206.0,59.3 206.2,59.9 205.6,60.1 205.0,60.1 204.1,60.1 203.5,60.3 205.5,60.9 207.3,60.8 207.4,59.6 206.9,59.1 206.2,58.8 205.3,58.7 204.6,58.6 204.1,58.7 203.5,58.8 202.8,58.7 201.1,57.7 201.1,57.0 202.4,56.5 203.4,56.4 204.1,56.5 204.7,56.7 204.3,56.1 202.3,56.2 201.6,56.5 201.1,56.5 200.5,56.2 200.2,55.5 201.0,54.9 202.6,54.0 203.6,53.6 204.5,53.2 211.0,52.6 211.7,52.7 211.0,54.2 210.7,54.7 211.2,54.8 211.2,55.4 209.9,56.9 208.5,58.4 210.6,58.0 211.1,57.4 211.1,56.7 212.7,54.0 214.2,53.0 215.7,52.8 216.2,52.2 217.2,51.0 219.0,50.4 219.5,50.6 220.5,51.2 221.0,51.7 220.6,52.5 220.0,53.5 219.8,54.0 219.5,54.6 219.2,56.0 219.0,57.3 217.7,58.4 216.5,58.8 215.9,59.0 215.2,59.1 213.9,60.1 215.4,59.7 217.6,58.8 219.4,58.2 220.1,57.4 221.6,56.0 222.3,56.1 222.9,56.4 223.6,56.6 224.7,56.8 226.9,57.2 224.5,56.3 222.2,55.4 223.0,53.4 223.8,53.3 225.0,53.1 225.9,52.9 226.4,52.7 226.5,52.2 227.7,51.4 229.9,50.8 229.2,51.2 227.6,52.1 228.3,52.6 228.9,53.0 229.7,53.0 231.0,51.8 232.2,50.4 233.4,49.7 233.9,49.7 234.9,49.7 236.8,50.2 237.5,50.7 237.8,51.3 238.6,51.6 239.5,51.6 240.2,51.8 241.5,52.4 242.0,52.8 242.6,53.2 243.5,53.8 244.4,53.7 243.3,52.2 241.7,50.9 240.2,49.5 240.9,49.3 241.5,49.3 242.8,49.2 243.4,49.2 244.3,48.7 243.8,48.6 242.9,48.8 239.6,49.2 235.8,48.7 235.1,48.0 233.7,47.8 232.9,47.6 231.9,47.2 232.5,47.0 233.3,46.6 236.3,45.8 237.2,45.8 237.6,46.3 239.3,46.7 240.3,46.7 242.7,45.6 245.2,46.1 246.2,46.0 247.2,46.0 246.9,47.5 247.9,48.0 250.5,48.3 249.9,48.0 248.5,47.8 247.8,47.8 248.3,46.5 248.9,46.5 250.0,46.5 251.2,46.7 252.4,46.9 254.9,47.1 256.1,47.1 256.7,47.2 255.5,48.1 254.7,48.4 254.2,48.5 253.1,48.6 251.0,48.8 250.3,48.8 249.7,48.8 248.9,48.9 247.6,49.3 247.1,49.5 247.6,49.5 248.4,49.3 249.3,49.2 249.9,49.1 251.0,49.1 252.2,49.0 254.4,48.7 255.2,48.6 256.9,48.8 257.7,49.7 259.4,50.6 261.4,50.8 263.5,50.3 264.5,49.8 263.6,49.6 262.5,49.6 261.8,49.6 260.7,49.3 259.5,48.8 260.8,48.5 261.8,48.4 261.6,47.4 262.3,46.9 264.1,46.7 263.5,46.5 262.9,46.5 263.5,45.7 265.2,44.7 266.1,44.3 268.3,43.3 269.0,43.1 269.5,43.0 270.7,42.9 271.4,42.9 274.5,43.3 275.3,43.5 275.8,43.7 274.7,42.9 274.0,42.7 273.2,42.1 275.2,40.7 276.1,40.4 277.7,40.5 278.2,40.8 279.7,41.3 280.5,41.5 281.1,41.4 281.1,40.8 278.9,39.7 277.7,39.6 276.7,39.5 274.8,39.3 274.6,38.4 276.4,37.9 277.6,38.6 279.3,39.1 279.9,39.2 279.5,38.0 279.1,36.9 280.2,36.4 280.9,36.4 282.0,36.5 283.0,36.9 284.6,37.3 284.9,36.8 285.4,36.5 287.3,37.2 288.0,37.7 288.5,38.2 288.6,38.7 289.8,38.6 290.5,37.8 290.3,37.3 289.7,36.8 290.5,36.5 291.2,36.7 292.1,37.1 293.9,37.5 297.0,37.5 297.6,37.6 297.8,38.1 297.1,38.4 295.8,38.8 294.6,39.2 294.2,39.7 292.4,40.6 290.0,41.5 288.1,42.2 286.4,42.8 287.1,43.0 288.6,43.2 288.8,44.3 288.2,44.6 287.6,44.5 287.0,44.7 286.3,45.0 286.4,45.5 286.9,46.1 285.3,46.7 284.7,46.9 284.3,47.9 284.2,48.6 284.8,49.1 285.3,49.2 285.8,48.8 285.6,48.3 286.3,48.0 286.3,48.7 287.0,48.9 288.3,48.8 290.5,47.2 292.2,46.3 292.5,45.8 291.8,45.7 291.1,45.6 291.4,45.1 292.2,44.8 293.1,44.3 296.2,42.8 298.3,41.9 299.0,41.6 299.3,41.0 302.4,39.0 303.9,38.1 306.3,37.1 307.0,36.9 308.5,36.7 309.1,37.1 308.6,39.7 308.1,40.1 307.4,40.3 306.9,40.4 305.7,40.5 304.2,40.9 304.7,41.0 305.2,40.9 306.0,40.8 306.6,40.8 308.0,41.0 307.5,42.5 306.8,43.0 306.2,44.0 306.0,44.9 306.6,45.1 307.8,44.8 309.6,44.1 310.1,43.8 310.8,43.3 311.9,43.4 312.6,43.6 313.4,43.4 312.8,42.7 312.6,42.1 313.1,41.8 313.8,41.5 314.4,41.6 316.3,41.9 315.0,41.3 314.2,40.2 314.8,39.7 316.5,39.5 317.2,38.6 317.9,38.5 318.9,38.6 320.2,38.7 320.9,38.8 320.1,38.0 319.4,37.8 318.3,37.7 317.3,37.7 316.6,37.7 315.8,37.6 315.3,37.4 314.7,37.2 314.9,36.6 316.1,35.8 316.8,35.6 319.4,35.9 320.2,35.0 320.9,34.7 322.1,34.5 323.2,34.8 323.7,35.3 325.1,35.6 326.5,35.4 327.1,35.2 329.9,34.9 330.4,35.1 331.8,36.0 333.5,36.1 334.2,36.2 334.4,36.9 333.2,38.0 332.1,38.5 330.6,39.0 330.1,39.1 328.9,39.1 327.2,39.0 324.2,38.9 323.6,39.0 324.6,39.3 325.4,39.3 328.5,39.7 328.0,40.2 327.5,40.3 324.8,40.9 322.2,41.5 322.9,41.6 324.1,41.5 324.7,41.4 328.7,40.7 329.3,40.6 329.8,40.3 330.8,40.0 331.0,40.9 330.5,41.3 329.6,41.7 329.1,41.9 326.9,42.7 326.1,42.9 325.2,43.1 325.3,43.7 326.6,43.4 327.9,43.1 328.4,43.1 329.0,43.0 328.5,43.3 327.8,43.6 328.6,43.9 329.4,43.4 330.2,42.9 331.2,42.9 330.5,43.8 329.6,44.3 329.1,44.9 329.2,46.8 329.5,47.6 329.3,48.2 328.4,48.7 327.5,49.2 328.1,49.1 328.7,48.9 329.2,48.6 329.7,48.2 330.2,47.6 329.7,47.0 329.6,46.1 330.1,44.6 331.6,43.4 333.7,41.2 334.1,40.6 334.3,40.0 337.3,38.1 338.2,37.8 338.9,37.7 339.5,37.7 340.2,37.7 341.4,37.8 344.3,38.2 345.4,38.9 345.8,40.4 349.0,40.1 349.7,39.9 350.2,39.7 351.6,39.7 351.9,40.3 351.5,40.8 350.8,41.2 352.1,41.2 352.6,41.1 353.2,40.8 354.1,40.2 354.7,40.1 355.9,40.1 356.5,40.1 357.7,40.5 359.7,41.5 359.1,42.0 358.2,42.3 355.9,42.5 355.1,42.5 355.7,42.7 356.9,42.8 357.9,42.8 358.7,42.7 359.3,42.5 360.0,42.3 360.6,42.3 361.4,42.2 363.1,42.4 363.8,43.2 366.5,44.0 367.9,43.7 369.0,44.5 369.5,45.2 370.0,46.0 367.7,46.4 365.2,46.4 362.4,46.6 360.0,47.5 360.3,48.0 359.7,48.3 356.5,49.0 354.0,49.1 353.2,49.1 352.1,49.1 348.1,48.7 344.6,48.4 341.4,48.2 338.4,47.7 337.4,47.5 336.7,47.5 336.1,47.5 335.6,47.6 336.1,47.8 336.7,47.7 337.3,47.7 336.3,48.3 335.6,48.4 338.6,49.0 341.0,49.3 343.8,49.8 344.6,49.8 346.5,50.0 348.3,50.2 349.9,50.4 349.2,51.0 348.0,51.2 347.0,51.5 346.1,52.0 346.7,52.1 347.5,51.7 348.3,51.3 350.8,51.2 351.7,52.3 350.6,53.1 350.0,53.2 347.9,54.7 348.4,54.7 348.9,54.3 350.1,53.8 350.6,53.7 354.2,53.5 355.3,53.8 356.9,54.3 357.6,54.4 356.9,53.9 356.7,53.3 357.6,53.3 357.2,52.8 357.1,52.1 359.0,51.7 360.5,52.4 360.8,53.3 360.8,53.9 360.6,54.4 359.8,54.6 360.7,54.7 361.2,54.4 361.5,53.7 361.1,52.8 362.7,52.6 363.8,52.6 364.9,52.7 365.9,52.9 366.9,52.9 367.5,53.8 368.1,54.3 368.2,54.8 368.2,55.4 368.0,56.1 367.5,56.4 366.5,56.6 365.7,56.6 362.6,56.4 361.3,56.1 360.4,55.7 359.8,55.4 359.2,55.2 357.8,54.7 357.1,54.7 356.5,54.7 356.0,54.9 356.8,55.2 357.5,55.8 356.3,57.0 353.5,57.9 350.2,58.8 349.4,59.0 348.5,59.1 347.7,59.2 346.6,59.3 345.4,59.5 345.1,60.0 345.4,60.6 345.1,61.3 344.5,62.3 343.8,62.8 342.8,63.3 341.8,63.6 341.2,63.6 340.3,63.3 339.4,63.0 338.5,62.7 338.0,62.3 337.9,61.8 338.4,60.8 339.6,60.2 340.8,59.6 341.4,59.4 342.6,58.8 344.7,57.7 345.1,57.1 343.5,55.2 342.7,54.4 341.1,53.9 340.2,53.8 339.7,53.7 337.4,53.4 336.7,53.3 332.6,52.5 332.1,52.3 331.8,51.8 330.8,51.5 330.1,51.4 329.3,51.2 328.5,51.0 326.9,50.1 326.6,49.5 326.2,48.9 325.6,48.8 321.4,49.0 318.9,49.8 317.2,50.1 317.2,50.7 315.9,50.9 314.1,51.3 313.5,51.3 311.6,51.1 311.1,50.9 310.3,50.7 307.6,50.7 305.7,50.9 305.1,51.2 304.6,51.8 301.4,53.5 300.9,53.7 299.1,54.0 298.5,54.3 298.5,54.9 298.5,55.6 297.2,57.2 296.7,58.6 295.8,59.1 295.0,60.4 294.9,61.0 295.2,62.5 295.7,63.4 295.6,64.2 294.7,64.9 294.1,65.3 293.6,65.7 293.0,65.7 292.1,65.6 291.2,65.5 290.7,65.6 290.1,65.8 288.3,66.4 287.6,66.8 286.5,68.5 286.5,69.0 284.1,69.9 283.0,69.8 282.4,69.1 281.8,68.9 280.7,68.5 279.8,68.4 279.1,68.3 278.2,68.3 277.3,68.2 276.1,68.1 274.0,67.5 272.7,67.0 272.2,66.7 271.6,66.5 270.7,66.3 269.6,66.3 269.0,66.3 268.5,66.5 268.0,67.1 267.4,67.6 266.9,68.0 266.3,68.0 265.2,68.1 264.3,68.2 263.6,68.3 262.7,68.5 261.7,68.8 261.1,68.9 259.9,69.2 259.3,69.1 258.4,68.5 255.1,68.3 254.3,68.3 250.7,67.7 250.0,67.8 248.6,68.0 248.2,67.0 247.9,66.2 246.9,65.7 245.8,65.0 243.6,63.3 243.0,62.9 238.6,60.0 233.6,59.4 229.8,60.8 229.7,61.8 230.2,62.4 230.2,63.2 229.5,63.5 228.8,63.4 228.2,63.2 226.8,62.8 225.9,62.7 225.2,62.7 224.5,62.8 223.6,63.0 222.6,63.2 216.4,63.4 218.4,64.4 219.5,65.0 220.0,67.0 219.5,67.4 218.4,68.3 217.9,68.7 216.0,69.8 214.5,70.4 216.3,71.0 218.0,71.2 217.4,71.8 216.1,72.2 215.5,72.5 214.8,72.9 214.2,73.3 213.7,73.2 213.1,73.1 211.1,72.8 208.7,72.4 206.9,72.1 200.4,71.2 195.7,71.3 192.1,70.4 189.2,70.8 188.5,70.9 187.9,71.8 187.9,72.5 188.1,73.0 188.3,73.5 188.6,74.1 189.3,75.7 186.3,78.0 185.5,78.7 184.7,78.6 183.5,78.2 182.6,77.9 181.4,77.6 177.0,76.7 176.4,77.1 175.8,77.6 169.3,79.4 168.7,80.3 167.8,81.7 167.4,82.4 166.3,83.5 164.8,84.6 162.0,85.0 160.3,86.2 161.1,86.8 162.0,87.2 162.8,87.7 163.9,88.3 164.7,89.5 164.1,91.7 159.3,93.5 155.4,96.4 153.9,97.5 152.5,98.1 150.2,99.2 150.8,100.3 151.4,101.5 151.7,102.0 145.5,103.9 144.9,103.9 141.2,104.0 138.2,104.1 138.4,104.9 138.7,105.6 139.1,106.7 139.7,107.7 140.0,108.4 139.6,109.1 139.1,109.6 138.6,110.2 138.2,111.7 138.1,112.7 138.1,113.7 138.1,114.7 138.1,115.6 136.3,116.5 136.2,117.0 135.8,117.8 135.3,118.5 134.5,119.3 132.5,120.6 130.6,122.2 129.5,123.1 128.8,123.7 127.3,124.8 126.7,125.4 126.7,125.9 128.7,126.5 129.8,126.8 131.6,127.1 132.8,127.3 133.3,129.1 133.3,131.3 131.0,133.7 121.3,132.7 120.4,132.6 119.9,132.7 119.1,132.8 117.6,132.9 117.0,133.0 116.3,133.2 115.0,133.6 114.3,133.8 112.7,134.4 112.1,134.7 110.6,135.7 109.8,136.3 108.1,137.7 105.4,139.6 105.7,140.7 105.1,141.8 104.3,142.5 103.2,143.4 102.3,144.1 103.6,145.4 105.2,147.3 105.3,147.9 104.8,148.4 104.0,149.0 103.9,150.2 104.1,150.7 104.5,151.4 103.9,152.6 103.9,153.6 104.4,154.5 105.3,155.5 105.8,156.0 106.6,157.2 107.3,158.1 106.8,159.9 106.2,161.8 106.0,162.4 105.7,163.1 105.4,164.1 104.9,165.7 108.7,167.8 109.2,167.9 109.8,167.9 110.5,167.9 114.0,170.1 115.2,170.8 114.8,171.5 114.3,172.4 114.0,173.1 112.6,174.6 111.9,175.1 111.1,175.2 110.2,175.2 109.6,175.1 108.9,175.1 107.3,175.5 106.7,175.6 106.1,175.8 107.0,176.6 107.5,177.5 107.9,178.2 108.1,178.7 108.5,179.2 109.1,179.9 110.3,181.1 111.4,182.5 111.7,183.1 111.6,183.7 111.5,184.3 110.7,185.1 110.3,186.9 110.3,187.5 110.2,188.1 109.9,188.8 107.7,190.2 105.9,191.1 105.2,191.4 103.7,191.5 103.2,191.4 102.6,191.3 101.5,191.7 100.6,192.0 101.4,192.5 101.8,193.0 101.9,193.8 100.8,194.7 100.2,194.9 98.5,195.5 99.6,197.8 100.2,199.3 100.4,200.0 100.3,200.5 99.8,201.0 99.6,202.1 99.7,202.6 98.0,205.1 97.4,205.3 96.2,205.5 95.5,205.5 95.1,205.0 95.2,204.0 94.6,202.8 93.9,202.3 93.4,202.3 92.1,202.3 90.1,202.2 88.4,201.5 87.8,201.9 86.4,201.2 84.5,198.8 84.4,197.8 84.9,197.4 84.5,196.7 84.2,196.1 84.2,195.3 83.1,193.8 83.4,192.8 84.1,191.9 84.6,192.1 85.0,192.7 85.6,192.6 85.7,191.4 84.9,191.2 84.4,191.5 83.4,191.6 82.8,191.6 82.2,191.8 82.0,192.6 82.1,193.2 82.1,193.7 82.5,194.3 83.0,194.5 83.6,194.9 83.8,195.4 83.4,196.0 82.4,196.5 81.8,196.7 81.2,196.6 81.2,195.9 81.0,194.6 80.6,194.1 79.3,193.6 78.7,193.6 78.8,194.1 79.5,194.3 80.5,194.6 80.8,195.4 80.6,196.3 80.0,196.5 79.3,196.2 78.7,196.0 80.1,197.2 81.2,197.6 81.9,197.9 82.5,199.5 81.9,200.3 81.4,200.3 80.6,200.1 79.8,201.0 78.5,203.3 77.3,203.6 75.6,203.8 75.5,204.3 74.6,204.5 73.5,204.5 72.9,204.3 73.0,203.8 72.3,203.3 69.8,202.2 69.1,202.2 70.0,203.0 70.8,203.4 70.9,204.1 69.8,204.9 68.3,205.4 67.0,206.1 66.1,207.2 63.9,208.6 62.1,209.2 61.3,209.4 60.6,209.8 58.9,211.1 57.6,211.6 56.9,212.6 54.4,214.0 52.9,214.3 50.7,215.0 50.4,216.1 49.4,215.9 49.1,216.4 46.4,216.7 44.6,216.9 42.5,217.2 42.0,217.6 41.1,217.7 40.0,217.8 38.4,217.7 36.8,217.3 35.4,217.2 34.4,217.4 33.5,218.0 32.4,217.3 30.2,216.3 29.5,216.2 29.5,216.9 27.8,216.9 27.1,216.5 27.5,215.7 28.9,214.9 30.0,214.5 27.9,214.2 24.3,214.0 23.3,213.5 22.6,213.3 21.4,213.1 19.5,212.5 18.9,212.0 18.8,211.4 18.2,211.2 17.2,211.2 16.2,211.1 14.3,210.2 12.5,208.5 11.7,207.4 12.6,206.3 12.9,205.6 13.0,204.3 13.0,203.4 15.2,204.2 15.7,204.8 16.4,204.9 17.0,204.4 17.6,204.4 18.4,204.8 19.4,205.4 20.1,205.8 20.8,206.1 21.7,206.2 22.5,206.2 21.8,206.1 21.2,206.0 20.5,205.7 20.1,205.2 20.8,204.6 22.0,204.1 22.9,203.9 25.0,203.6 26.1,203.4 27.5,203.3 26.3,203.2 24.9,203.3 22.2,203.8 21.7,203.9 21.1,204.1 19.9,205.2 18.9,204.4 18.8,203.7 17.5,203.0 17.8,202.5 18.7,202.2 19.4,201.8 20.2,201.0 21.3,200.4 23.6,199.6 24.1,199.5 25.0,199.4 25.6,199.4 25.0,199.3 23.9,199.3 23.4,199.5 22.9,199.8 21.2,200.2 19.2,199.2 19.7,198.7 20.3,198.3 22.3,197.2 24.8,196.3 25.5,196.1 22.9,195.7 22.5,196.3 21.7,197.2 21.1,197.7 20.4,198.0 18.6,198.9 17.7,198.3 17.7,197.7 18.5,197.7 19.1,197.6 21.3,197.2 17.8,197.2 16.6,197.3 15.3,197.7 14.6,198.1 15.2,198.0 15.7,197.9 16.4,197.8 17.2,198.4 17.3,199.0 14.9,199.5 14.1,199.4 13.7,198.7 13.4,199.3 12.8,199.9 12.1,200.0 10.8,199.8 9.3,199.0 8.2,197.8 7.9,197.0 9.6,195.1 11.3,194.1 12.0,193.7 12.5,194.0 12.4,194.5 12.1,195.4 11.7,196.2 12.2,196.5 12.9,195.8 12.6,195.3 12.8,194.7 13.5,194.4 14.8,194.5 15.7,194.4 16.6,193.8 17.8,193.5 18.4,193.5 20.1,193.5 23.5,192.1 22.2,192.2 21.5,192.4 20.8,192.8 20.1,193.2 19.1,193.3 17.1,193.1 16.5,192.9 15.1,192.2 15.6,191.1 16.1,190.9 16.8,190.7 17.6,190.6 18.6,190.6 18.6,189.8 19.3,189.2 20.8,188.4 20.3,187.4 22.2,185.7 23.9,184.9 25.9,184.1 26.6,183.9 27.2,183.9 27.9,184.0 27.8,184.6 27.4,185.1 26.7,186.2 26.4,187.7 26.4,188.3 26.6,188.8 26.6,188.2 26.8,187.5 27.4,186.3 27.9,185.4 28.4,184.7 29.7,183.7 30.3,183.4 31.0,183.2 32.3,183.1 33.0,183.1 33.6,183.2 34.3,183.2 33.0,182.8 32.9,182.2 33.4,181.8 32.6,181.9 32.0,182.3 30.7,183.0 28.9,183.7 28.1,183.9 27.6,183.7 25.8,183.7 24.5,184.0 23.7,184.3 23.2,184.5 22.5,184.2 21.9,185.0 21.5,185.9 21.1,186.5 19.0,186.6 17.9,187.7 17.6,189.2 16.7,189.8 15.9,190.1 15.3,189.8 14.9,189.2 14.3,187.8 13.8,187.9 13.2,187.9 14.2,185.5 14.7,184.9 15.4,184.7 14.1,184.8 12.9,186.3 11.6,187.4 11.1,188.0 10.4,187.8 9.6,187.2 8.4,187.0 9.7,186.2 7.7,186.0 7.3,185.0 8.2,184.4 8.8,183.9 8.5,183.3 8.9,182.8 9.6,182.5 10.2,182.8 10.8,183.2 11.7,183.8 12.5,184.0 13.8,184.1 15.1,183.5 15.3,183.0 15.4,180.4 14.6,179.9 13.2,180.2 12.8,180.9 10.4,182.0 9.8,182.1 9.2,182.1 8.6,182.0 6.6,180.8 7.3,180.7 7.9,181.1 8.5,181.3 7.3,180.0 6.5,179.7 5.7,179.5 4.3,178.7 5.3,178.6 6.7,179.1 8.4,179.6 9.2,179.8 9.6,180.4 10.1,180.9 11.2,181.1 11.4,180.6 11.0,180.0 10.4,179.7 9.8,179.5 9.0,179.3 10.2,178.0 11.3,177.8 11.9,177.8 12.5,177.8 11.8,177.3 10.2,177.6 9.8,178.2 8.9,178.5 7.3,178.6 6.7,178.3 6.2,178.2 5.1,176.6 5.4,175.9 5.4,175.4 6.0,175.0 6.8,174.9 7.6,174.9 8.6,175.1 9.4,175.5 11.2,175.5 11.7,175.4 14.1,174.6 15.5,174.5 16.4,174.4 16.9,174.4 18.2,174.2 20.8,174.2 22.8,174.6 23.8,175.0 24.5,175.0 26.5,174.5 27.6,173.8 28.5,173.8 30.7,173.9 32.6,174.7 33.4,175.7 35.1,176.9 35.0,177.5 35.6,177.3 35.7,176.7 34.9,176.5 34.3,176.2 33.5,175.4 33.2,174.8 34.1,174.5 35.7,174.4 37.7,174.1 39.3,173.3 38.6,173.1 37.5,171.8 38.4,170.8 39.6,169.9 40.5,169.6 41.1,169.4 39.8,169.6 39.2,169.8 37.9,170.6 37.2,171.3 37.1,172.0 38.2,173.2 37.2,173.7 35.4,173.9 32.8,174.3 32.3,174.2 32.0,173.6 31.1,173.4 30.1,173.3 29.5,173.4 27.5,173.0 27.6,172.4 28.2,172.0 29.0,171.1 29.3,170.4 27.6,172.1 26.6,172.4 26.8,173.0 26.4,174.0 25.4,174.3 24.1,174.3 22.6,174.0 18.8,173.7 15.8,173.7 13.2,174.0 12.6,174.2 11.9,174.6 11.0,174.9 9.9,174.5 9.2,174.3 7.5,174.0 6.9,173.9 6.0,173.7 6.7,173.2 7.6,173.4 8.1,173.6 8.8,173.4 8.1,173.0 7.2,172.7 6.6,172.8 5.6,172.9 4.6,172.3 7.7,171.2 11.1,170.7 11.6,170.7 12.2,170.7 13.2,170.8 14.1,170.9 11.6,170.6 11.0,170.6 9.0,170.8 7.6,171.0 7.1,171.1 6.5,171.4 5.9,171.4 5.4,171.0 4.6,170.2 6.2,169.7 7.9,169.5 10.0,169.6 12.7,169.9 14.0,169.6 16.0,169.6 16.6,169.6 16.0,169.1 15.4,169.0 14.8,169.0 14.3,169.0 13.8,169.2 13.3,169.4 11.8,169.6 7.9,168.9 7.4,168.7 7.3,168.2 8.8,168.2 8.3,167.8 7.5,167.7 8.2,167.5 9.1,167.5 9.9,167.6 " />
    <polygon id="Norway" points="282.2,35.7 281.3,35.6 280.4,35.4 281.2,34.6 281.8,34.6 282.9,34.7 282.4,35.6 " />
    <polygon id="Norway" points="271.9,37.3 269.8,36.7 269.3,36.2 269.9,35.8 270.7,35.7 271.9,35.7 274.1,36.1 274.4,36.7 273.4,37.1 272.3,37.3 " />
    <polygon id="Norway" points="263.3,39.1 262.6,39.7 261.2,40.1 259.6,40.9 258.3,41.9 255.6,42.5 254.0,42.7 253.5,42.2 252.0,42.1 251.9,42.7 249.6,43.1 247.8,43.2 247.2,43.1 246.5,42.9 245.3,43.5 245.2,42.8 246.2,42.5 246.7,41.8 246.1,41.6 245.0,41.7 244.4,41.6 243.3,41.6 242.4,41.1 245.1,40.9 246.0,41.0 246.9,40.9 248.3,40.6 248.6,40.1 250.3,40.1 251.7,40.3 252.2,40.5 251.6,40.8 252.9,41.1 254.3,41.1 254.2,40.4 253.7,40.1 253.2,39.9 254.0,39.5 255.1,39.8 255.6,40.4 256.3,40.7 256.9,40.8 258.5,39.7 259.3,39.0 261.0,39.2 261.8,39.1 261.4,38.1 262.0,38.0 263.2,38.7 " />
    <polygon id="Norway" points="269.2,42.9 268.3,42.8 267.6,42.8 267.0,42.4 265.9,40.4 266.7,39.7 267.4,39.6 268.3,39.6 270.6,40.2 271.4,40.4 272.7,41.3 270.4,42.7 269.6,42.8 " />
    <polygon id="Norway" points="265.4,41.9 266.2,43.0 266.3,43.5 264.6,44.6 261.9,45.7 260.3,46.1 259.2,46.2 258.7,46.1 258.2,46.0 255.0,44.3 255.6,43.7 259.5,42.4 260.2,42.4 260.7,42.6 262.7,42.3 262.6,41.6 263.6,41.3 264.6,41.5 265.3,41.9 " />
    <polygon id="Norway" points="254.7,45.4 255.5,45.5 256.3,45.6 257.2,46.2 256.7,46.6 255.9,46.5 255.2,46.5 254.2,46.5 252.0,46.3 251.1,46.3 249.6,46.0 248.9,45.8 248.3,45.4 249.7,44.8 252.3,44.5 254.7,45.4 " />
    <polygon id="Norway" points="239.9,46.3 239.3,46.4 238.7,45.8 238.7,45.3 238.8,44.7 239.4,44.6 240.7,45.1 240.0,46.2 " />
    <polygon id="Norway" points="216.7,48.6 215.3,49.2 214.1,49.3 212.8,49.1 212.1,49.1 211.5,48.7 211.6,48.1 211.0,47.6 210.3,47.1 209.1,46.8 209.2,46.3 210.5,46.0 212.1,47.1 212.9,47.6 214.9,48.0 216.0,48.3 216.8,48.4 " />
    <polygon id="Norway" points="203.7,48.3 203.1,48.3 201.7,47.8 203.0,46.6 203.9,46.4 204.6,46.6 204.7,47.5 204.4,48.1 203.7,48.3 " />
    <polygon id="Norway" points="226.7,47.3 226.2,49.2 225.4,49.3 224.2,49.4 223.6,49.4 223.0,48.9 222.4,49.2 221.6,49.2 221.0,49.1 220.5,48.6 220.7,48.0 221.1,47.4 222.8,46.9 224.7,46.7 225.6,46.7 226.4,47.0 " />
    <polygon id="Norway" points="209.6,48.6 208.5,48.6 206.2,48.3 206.6,47.6 207.1,47.5 209.4,48.2 " />
    <polygon id="Norway" points="227.9,48.9 227.2,48.9 226.7,48.7 226.7,48.1 227.2,48.0 227.9,48.3 227.9,48.9 " />
    <polygon id="Norway" points="198.1,48.5 200.2,48.3 201.1,48.8 200.5,49.2 199.8,49.2 198.8,49.4 198.2,49.6 197.5,50.1 197.0,50.2 196.3,49.4 197.0,48.3 197.6,48.2 " />
    <polygon id="Norway" points="205.3,49.7 206.2,50.0 206.8,50.2 207.4,49.6 207.9,49.3 208.5,49.3 210.2,49.7 210.7,50.0 208.2,51.4 206.8,52.3 206.0,52.6 205.1,52.7 203.6,52.9 203.0,53.0 202.4,52.9 201.7,52.3 200.5,51.8 199.5,51.6 199.0,51.5 197.9,51.3 197.3,51.1 198.8,49.9 199.4,49.7 200.3,49.6 201.2,49.6 201.9,49.7 202.6,49.2 203.2,48.9 204.2,48.7 205.3,49.2 " />
    <polygon id="Norway" points="229.1,49.7 228.4,49.7 229.2,49.1 229.8,49.3 229.1,49.7 " />
    <polygon id="Norway" points="227.6,49.6 228.3,50.0 229.7,49.9 230.4,49.9 228.4,50.8 227.5,50.9 226.8,50.9 226.3,50.8 225.7,50.2 226.0,49.7 226.6,49.4 227.6,49.6 " />
    <polygon id="Norway" points="214.5,49.9 213.9,49.9 214.5,49.7 215.0,49.8 214.5,49.9 " />
    <polygon id="Norway" points="209.0,52.1 207.7,52.3 208.4,51.6 212.3,50.0 212.9,50.1 213.7,50.4 212.2,51.8 211.3,51.9 209.0,52.1 " />
    <polygon id="Norway" points="239.3,51.0 238.8,51.1 239.3,50.8 " />
    <polygon id="Norway" points="352.5,53.4 351.2,53.4 351.7,52.8 352.2,52.5 352.3,51.9 352.4,51.4 353.2,51.3 354.6,51.5 355.6,52.4 354.4,53.0 352.7,53.4 " />
    <polygon id="Norway" points="224.6,52.7 223.5,52.9 223.0,52.7 222.9,52.2 223.3,51.6 223.8,51.3 225.3,51.3 225.4,52.5 224.6,52.7 " />
    <polygon id="Norway" points="199.6,54.3 198.2,54.6 197.8,55.1 198.4,55.2 198.9,55.6 198.1,56.0 197.4,56.2 195.7,56.2 194.6,56.2 192.8,56.4 191.9,56.5 190.5,56.6 189.8,56.6 187.7,56.1 187.1,55.8 187.6,55.3 189.2,55.1 190.9,55.3 189.7,54.2 191.3,54.1 192.7,54.2 195.4,54.3 196.0,54.4 194.4,54.0 193.9,54.0 193.2,54.0 192.2,53.9 191.6,53.3 192.5,52.9 193.9,53.4 196.0,53.3 196.2,53.8 197.0,54.4 197.6,54.5 197.8,53.3 197.4,52.7 196.7,52.4 196.3,51.9 198.4,51.7 201.0,52.5 201.7,52.8 201.9,53.4 201.3,53.7 200.2,54.2 199.6,54.3 " />
    <polygon id="Norway" points="357.1,53.1 356.5,53.1 357.1,53.0 " />
    <polygon id="Norway" points="182.0,56.8 182.7,56.9 182.5,56.4 182.2,55.8 184.9,55.8 186.6,56.7 188.1,58.0 188.5,58.9 187.9,59.1 186.7,59.2 186.0,59.4 185.4,60.6 186.4,61.2 187.1,61.2 185.7,61.7 185.2,61.7 181.3,61.8 180.4,61.3 178.8,61.7 176.1,62.7 175.6,63.1 176.1,63.5 175.5,63.8 174.4,64.0 173.8,64.0 174.3,63.3 174.9,63.1 172.5,63.1 171.7,63.2 170.5,63.3 170.0,63.1 170.0,62.6 170.7,62.3 172.0,62.3 173.2,62.2 175.0,61.6 175.6,61.3 174.9,61.4 174.3,61.5 173.6,61.5 172.3,61.3 171.4,60.9 171.9,60.8 173.1,60.7 173.7,60.8 174.6,60.9 174.2,60.1 171.9,59.9 173.3,59.6 174.2,59.6 173.6,59.1 172.8,59.1 171.9,59.1 172.2,58.5 173.7,58.4 176.0,58.3 177.2,58.3 178.6,58.2 179.9,58.1 178.8,57.9 177.6,57.9 176.8,57.8 175.7,57.1 176.3,57.0 177.1,57.5 178.2,57.3 177.4,56.7 178.9,56.7 179.5,56.8 180.7,57.2 181.4,57.6 181.0,56.9 180.4,56.5 179.8,56.4 179.7,55.6 180.5,55.8 181.1,56.1 181.8,56.6 " />
    <polygon id="Norway" points="152.5,65.3 151.7,65.8 151.0,65.4 151.0,64.4 153.0,62.7 153.7,62.3 154.8,62.1 155.5,62.0 156.0,62.0 156.5,61.5 157.0,60.9 158.8,60.1 160.7,59.6 161.2,60.0 160.4,61.8 159.5,62.2 158.7,62.5 157.4,63.2 155.4,64.0 154.1,64.3 152.5,65.3 " />
    <polygon id="Norway" points="179.0,64.1 178.3,64.2 178.1,63.7 178.6,63.2 181.0,62.7 180.5,63.3 179.3,63.9 " />
    <polygon id="Norway" points="150.5,66.2 150.8,68.1 150.6,68.6 149.7,68.9 146.1,69.9 143.8,69.9 143.3,69.8 142.4,69.4 143.1,69.0 144.0,68.8 146.0,68.5 147.2,68.3 147.3,67.5 146.0,67.4 145.3,67.3 145.8,67.5 145.1,68.2 143.9,68.5 142.7,68.7 141.6,68.8 140.5,68.7 138.9,69.3 138.2,69.6 137.4,69.5 136.5,68.8 137.4,67.3 137.9,67.0 138.4,66.8 140.0,66.4 140.6,66.4 143.6,67.4 144.3,67.0 143.9,66.3 144.5,66.0 145.9,66.1 146.4,66.2 147.0,66.6 146.3,65.5 145.6,65.1 145.3,64.4 146.4,63.9 147.0,63.8 147.6,64.3 148.0,65.4 149.3,65.7 150.4,66.1 " />
    <polygon id="Norway" points="166.7,65.7 166.0,65.7 165.0,65.5 164.4,65.3 162.9,64.6 163.5,64.1 166.8,64.5 167.5,64.7 167.4,65.5 166.7,65.7 " />
    <polygon id="Norway" points="159.0,67.5 158.7,68.0 157.2,68.9 156.5,69.0 156.0,69.2 155.5,70.5 156.4,70.3 156.5,69.7 157.0,69.3 158.8,68.7 160.4,67.7 160.8,67.1 160.5,66.5 161.6,66.1 164.1,66.0 165.2,66.1 166.0,66.7 166.8,67.3 167.1,68.2 167.0,68.9 166.5,69.3 166.0,69.6 166.2,70.3 164.2,70.2 162.4,70.3 161.0,70.8 160.3,71.0 158.6,72.7 157.9,72.9 157.3,72.9 157.1,71.9 156.2,72.5 154.9,73.2 153.4,73.7 152.6,73.4 151.1,73.3 150.3,73.5 149.7,73.4 150.6,72.7 151.3,72.5 152.2,72.2 153.1,71.5 153.1,71.0 152.9,71.5 152.3,71.7 151.3,72.2 150.0,72.5 148.8,72.9 147.9,73.5 146.7,74.1 145.5,74.5 145.0,74.5 145.1,73.8 146.3,72.9 148.6,71.4 149.8,71.2 148.8,70.7 148.2,70.7 147.7,70.7 148.3,70.1 150.0,69.8 151.6,68.8 151.3,68.3 151.5,67.8 153.4,67.8 154.0,67.9 154.6,68.1 155.1,68.2 154.4,67.8 153.7,67.6 153.1,67.6 152.5,67.7 151.6,67.5 151.5,66.7 154.0,64.8 154.7,64.6 157.3,64.5 157.9,64.6 158.1,65.5 157.4,66.9 158.3,67.0 158.9,67.1 " />
    <polygon id="Norway" points="144.5,65.8 143.9,65.8 143.2,65.7 143.1,65.0 144.5,65.0 144.8,65.6 " />
    <polygon id="Norway" points="176.5,67.0 175.9,66.9 174.3,65.4 177.3,65.1 178.1,65.3 179.1,65.8 177.4,66.7 176.7,66.9 " />
    <polygon id="Norway" points="174.8,67.5 173.5,67.5 172.6,67.6 170.7,67.9 170.9,67.3 172.7,66.2 173.3,66.1 175.2,67.2 " />
    <polygon id="Norway" points="164.8,72.2 164.0,72.3 163.3,72.3 162.0,72.4 160.8,72.7 161.1,71.3 161.7,71.0 162.4,70.7 163.7,70.5 164.4,70.6 164.9,70.8 165.6,71.4 164.8,72.2 " />
    <polygon id="Norway" points="145.5,73.0 143.0,74.1 142.1,74.3 138.6,75.2 136.7,75.4 134.5,75.8 134.0,75.9 134.0,75.2 135.4,73.7 136.0,73.5 137.0,73.9 137.9,73.8 137.8,73.3 137.2,73.0 138.0,72.7 138.8,72.4 139.6,72.1 141.8,72.0 142.4,72.1 142.3,72.6 141.7,73.1 142.2,72.9 143.2,72.7 143.7,72.0 147.2,71.7 146.8,72.2 145.6,73.0 " />
    <polygon id="Norway" points="134.0,74.6 133.4,74.6 131.9,74.0 132.8,73.5 134.2,73.8 134.5,74.3 134.0,74.6 " />
    <polygon id="Norway" points="130.8,74.4 129.6,74.0 130.2,73.5 130.8,73.5 131.1,74.3 " />
    <polygon id="Norway" points="130.7,74.7 131.5,74.6 132.1,74.3 133.0,74.5 131.7,75.5 130.3,75.6 129.2,75.8 129.1,76.3 127.1,77.0 126.2,77.1 125.0,77.0 124.5,77.4 123.8,77.3 123.8,76.7 124.6,76.2 124.7,75.1 125.1,74.3 126.4,74.0 128.4,74.2 129.6,74.4 130.5,74.6 " />
    <polygon id="Norway" points="143.3,75.0 142.8,75.0 142.7,74.4 143.5,74.1 144.1,74.1 144.0,74.7 143.5,75.0 " />
    <polygon id="Norway" points="123.3,76.4 122.5,77.6 122.0,77.8 120.8,78.1 120.3,77.7 119.8,77.9 119.5,77.3 121.3,76.0 122.2,75.9 122.7,76.0 123.3,76.3 " />
    <polygon id="Norway" points="115.0,80.7 114.4,80.7 115.7,78.7 116.3,78.0 118.0,76.6 118.6,76.7 119.3,76.8 119.1,78.6 117.3,79.7 115.0,80.7 " />
    <polygon id="Norway" points="157.8,78.3 157.2,78.3 154.5,78.3 153.7,78.3 152.4,78.3 152.9,77.9 153.7,77.8 154.3,77.8 155.1,77.8 157.1,77.8 157.7,78.0 " />
    <polygon id="Norway" points="148.0,79.4 147.2,79.4 145.3,79.3 144.6,79.3 144.6,78.7 145.7,78.6 146.4,78.6 149.4,79.1 148.9,79.2 148.3,79.3 " />
    <polygon id="Norway" points="134.7,87.0 134.2,87.0 134.8,86.5 135.8,86.1 136.3,86.0 136.2,86.6 134.7,87.0 " />
    <polygon id="Norway" points="134.8,90.1 134.1,91.9 133.5,92.0 133.0,91.3 132.4,91.0 131.7,91.0 131.1,90.9 132.0,90.3 134.1,90.0 134.8,90.1 " />
    <polygon id="Norway" points="114.3,103.0 113.2,102.6 113.8,102.1 114.3,102.0 114.9,101.9 115.5,102.2 115.1,102.7 114.3,103.0 " />
    <polygon id="Norway" points="117.0,102.8 116.2,102.8 116.7,102.4 117.5,102.2 118.3,102.0 119.1,102.0 118.4,102.4 117.2,102.7 " />
    <polygon id="Norway" points="108.1,105.6 107.4,105.8 108.0,104.9 109.9,104.1 109.2,103.7 109.9,103.3 110.9,103.0 111.6,103.3 112.4,104.5 110.6,105.2 109.6,105.4 108.9,105.5 108.1,105.6 " />
    <polygon id="Norway" points="110.8,107.4 110.0,107.8 109.3,107.9 109.8,107.6 109.0,107.4 109.6,106.4 110.3,106.1 110.9,105.9 111.5,105.7 112.1,105.7 115.3,105.7 115.8,105.8 114.9,106.1 114.2,106.2 112.8,106.5 111.4,107.1 110.9,107.3 " />
    <polygon id="Norway" points="102.8,111.2 101.8,111.8 101.3,111.4 100.5,111.4 99.9,111.4 100.1,110.9 100.6,110.4 101.7,110.1 103.1,110.2 102.8,111.2 " />
    <polygon id="Norway" points="104.3,117.0 104.5,116.4 104.9,115.8 105.6,114.3 106.0,113.3 106.3,112.4 107.0,111.9 108.7,112.9 109.4,113.3 110.2,114.5 108.4,115.2 106.6,116.0 105.8,116.5 105.2,116.7 104.4,117.0 " />
    <polygon id="Norway" points="105.4,119.2 103.4,119.0 104.5,117.4 105.3,117.1 105.9,117.1 106.7,117.5 107.6,118.4 106.9,118.8 106.3,119.0 105.4,119.2 " />
    <polygon id="Norway" points="98.1,119.0 97.4,119.4 96.7,119.3 97.2,118.6 98.2,118.3 99.9,118.3 99.2,118.7 98.7,118.9 98.1,119.0 " />
    <polygon id="Norway" points="90.8,120.4 86.6,121.8 85.9,122.0 85.6,121.4 86.3,121.0 87.4,121.0 88.8,120.6 89.5,120.5 90.0,120.1 90.5,120.2 " />
    <polygon id="Norway" points="92.9,121.6 92.3,121.9 91.2,122.3 90.1,122.1 88.5,121.8 87.9,122.0 87.0,122.1 88.0,121.6 90.7,120.6 92.9,121.4 " />
    <polygon id="Norway" points="94.1,124.8 93.8,125.5 92.9,125.0 92.3,125.1 91.7,125.0 92.3,124.4 93.1,124.4 93.8,124.5 " />
    <polygon id="Norway" points="95.6,126.7 95.1,127.3 93.2,126.8 92.5,126.8 91.8,126.9 89.8,125.6 89.8,125.1 90.4,124.8 92.7,125.5 95.5,126.6 " />
    <polygon id="Norway" points="90.1,137.3 89.5,137.5 90.0,136.8 91.3,136.6 92.1,136.5 91.3,136.9 90.2,137.2 " />
    <polygon id="Norway" points="58.6,136.6 58.8,137.7 58.1,138.2 56.5,138.4 53.9,138.6 52.4,138.5 51.7,138.7 51.1,138.5 51.8,138.2 52.9,138.1 53.6,138.0 54.7,137.8 56.7,137.3 57.5,136.7 58.3,136.6 " />
    <polygon id="Norway" points="54.2,141.9 53.6,141.9 53.0,141.9 51.4,141.8 51.3,141.1 51.9,140.7 53.3,140.1 54.1,140.0 55.9,140.0 55.9,139.4 58.7,139.0 60.5,138.8 63.7,140.0 62.5,140.5 62.0,140.7 60.7,140.9 59.5,141.1 58.3,141.2 57.3,141.3 56.5,141.3 55.7,141.5 54.9,141.7 54.3,141.9 " />
    <polygon id="Norway" points="49.5,142.9 48.6,143.3 47.1,143.6 47.0,143.0 46.2,142.9 45.6,142.9 44.5,142.8 44.2,142.2 47.1,141.4 48.3,141.4 49.7,142.3 49.5,142.9 " />
    <polygon id="Norway" points="54.4,143.4 53.9,143.4 53.3,143.3 54.0,142.7 54.7,142.5 55.5,142.6 56.6,142.9 55.1,143.4 54.4,143.4 " />
    <polygon id="Norway" points="52.7,145.7 52.2,145.6 51.1,144.7 51.0,144.2 53.2,143.9 55.1,144.9 55.2,145.4 54.6,145.6 54.1,145.7 52.7,145.7 " />
    <polygon id="Norway" points="48.1,145.9 47.3,145.9 46.3,145.6 47.9,144.7 48.5,144.6 49.0,144.7 49.6,145.2 49.9,145.7 49.2,145.9 48.5,145.9 " />
    <polygon id="Norway" points="51.0,145.7 50.3,145.7 49.8,145.0 50.3,144.7 51.2,145.2 51.0,145.7 " />
    <polygon id="Norway" points="44.6,147.6 43.9,147.6 43.2,147.3 43.2,146.7 44.8,146.6 45.8,146.6 45.7,147.2 45.0,147.5 " />
    <polygon id="Norway" points="41.0,148.6 40.4,148.8 39.8,148.5 39.1,148.4 38.5,148.2 38.9,147.1 41.7,146.6 42.4,146.8 43.2,147.9 41.0,148.6 " />
    <polygon id="Norway" points="31.7,151.0 30.2,150.6 30.1,150.1 32.0,150.0 31.8,151.0 " />
    <polygon id="Norway" points="29.6,152.6 28.8,152.8 28.7,151.8 31.5,151.5 32.2,152.0 31.3,152.3 30.4,152.4 29.7,152.5 " />
    <polygon id="Norway" points="22.8,156.4 22.3,156.4 21.4,156.4 20.6,156.4 20.1,156.2 19.6,155.8 21.8,155.7 23.7,156.0 22.8,156.4 " />
    <polygon id="Norway" points="17.1,158.5 17.2,158.0 17.0,157.3 16.5,157.2 16.9,156.4 17.4,156.1 18.1,155.9 18.7,156.0 19.7,157.0 18.5,157.9 17.9,158.3 17.4,158.5 " />
    <polygon id="Norway" points="14.4,159.3 13.8,159.3 13.0,159.3 12.4,158.8 12.9,158.0 14.9,157.8 16.6,158.1 16.5,158.8 15.9,159.1 15.1,159.2 14.4,159.3 " />
    <polygon id="Norway" points="6.3,163.0 5.7,162.3 5.5,161.7 6.7,161.6 6.4,162.8 " />
    <polygon id="Norway" points="4.4,165.0 3.8,164.9 2.6,164.2 3.5,163.5 4.1,163.3 8.1,163.9 5.3,164.9 4.4,165.0 " />
    <polygon id="Norway" points="5.1,174.4 4.1,175.0 3.5,174.6 2.8,174.9 2.4,173.8 3.2,173.4 4.3,173.2 5.1,174.2 " />
    <polygon id="Norway" points="1.1,176.1 0.3,175.9 0.0,175.1 0.6,174.9 1.4,175.9 " />
    <polygon id="Norway" points="7.5,181.7 6.3,181.5 5.4,181.2 4.2,180.5 3.6,180.0 4.6,179.8 5.1,179.9 7.1,181.2 " />
    <polygon id="Norway" points="13.0,183.8 12.4,183.8 11.8,183.5 10.3,182.5 10.8,182.1 11.7,181.8 12.7,181.4 13.4,181.1 13.6,180.5 14.1,180.2 14.8,180.3 15.0,180.9 14.8,183.2 13.8,183.7 13.0,183.8 " />
    <polygon id="Norway" points="7.9,182.8 6.7,182.4 5.7,182.2 5.1,182.0 4.3,181.5 5.5,181.5 6.8,181.7 7.6,182.1 8.1,182.7 " />
    <polygon id="Norway" points="8.0,184.1 7.3,184.3 5.6,183.0 5.3,182.4 6.5,182.7 7.5,183.0 8.1,183.4 8.2,183.9 " />
    <polygon id="Norway" points="6.9,187.3 5.2,186.8 4.6,186.4 4.4,185.9 4.5,183.9 6.3,185.0 6.7,185.6 6.9,186.8 " />
    <polygon id="Norway" points="8.3,186.5 " />
    <polygon id="Norway" points="18.7,188.6 18.1,188.3 18.3,187.8 19.0,187.6 19.5,187.8 19.4,188.4 18.8,188.6 " />
    <polygon id="Norway" points="9.1,189.8 8.1,189.7 7.5,189.0 7.7,188.2 8.4,188.5 8.9,189.0 9.1,189.8 " />
    <polygon id="Norway" points="12.7,191.4 10.4,190.1 11.5,189.3 12.4,189.1 14.3,188.8 14.6,189.5 13.6,190.9 12.8,191.3 " />
    <polygon id="Norway" points="11.1,193.3 10.6,193.3 9.7,192.9 9.0,191.5 9.1,190.4 9.9,190.2 11.1,190.7 11.8,191.4 12.2,192.0 12.2,192.6 11.4,193.3 " />
    <polygon id="Norway" points="9.0,192.7 9.7,193.4 10.1,194.0 9.4,194.3 9.5,193.5 8.5,193.3 7.9,193.5 7.7,194.2 8.1,194.9 7.9,195.5 6.9,194.9 6.3,193.0 6.8,191.8 7.3,191.6 8.9,192.6 " />
    <polygon id="Norway" points="9.3,200.8 9.0,201.8 8.4,201.7 7.6,201.8 7.2,201.0 7.2,200.2 7.8,198.1 8.4,198.3 9.3,199.4 9.4,200.2 9.3,200.8 " />
    <polygon id="Norway" points="18.6,200.7 18.0,200.6 18.0,200.1 18.5,199.9 19.1,199.8 19.7,199.8 20.0,200.3 19.2,200.6 18.6,200.7 " />
    <polygon id="Norway" points="15.5,202.8 13.1,202.1 14.9,202.0 15.5,202.3 " />
    <polygon id="Norway" points="18.8,204.2 " />
    <polygon id="Norway" points="16.2,204.6 " />
    <polygon id="Norway" points="57.7,212.1 " />
  </g>
</svg>