<?xml version="1.0" encoding="UTF-8" standalone="yes"?>
<!DOCTYPE svg PUBLIC "-//W3C//DTD SVG 1.0//EN" "http://www.w3.org/TR/2001/REC-SVG-20010904/DTD/svg10.dtd">
<svg height="250" width="370" xmlns="http://www.w3.org/2000/svg" xmlns:svg="http://www.w3.org/2000/svg" xmlns:xlink="http://www.w3.org/1999/xlink">


<g id="background">
<rect id="" width="370" height="250" fill="#222222"/>
</g>
  <g id="580" style="stroke-miterlimit: 3; fill: #F1F1F1; stroke: #000000; stroke-opacity: 1; stroke-width: 0.05; stroke-linejoin: bevel; stroke-linecap: square">
    <polygon id="None" points="167.9,1.5 167.3,1.4 167.1,0.8 167.3,0.2 167.9,0.0 168.4,0.5 168.1,1.2 " />
    <polygon id="None" points="180.9,21.1 180.4,21.2 179.7,20.7 179.9,19.9 180.5,19.6 181.4,20.0 181.5,20.6 180.9,21.1 " />
    <polygon id="None" points="186.7,35.0 186.2,34.9 185.6,34.2 185.8,33.7 186.5,33.6 187.0,34.1 187.1,34.7 " />
    <polygon id="None" points="197.2,71.1 196.4,71.0 195.9,70.4 195.9,69.5 196.1,68.6 196.3,68.1 196.9,67.6 197.6,68.0 198.3,68.8 198.4,70.0 198.2,70.5 197.6,71.0 " />
    <polygon id="None" points="199.5,97.4 198.7,97.2 198.9,96.4 201.1,92.4 202.2,92.4 202.9,92.7 203.4,93.6 203.2,94.2 199.8,97.2 " />
    <polygon id="None" points="204.3,115.8 203.6,115.8 202.9,115.4 202.9,114.8 203.4,114.3 204.2,114.4 204.7,115.0 204.6,115.6 " />
    <polygon id="None" points="204.3,126.7 203.7,126.6 203.4,125.7 204.3,125.8 204.6,126.5 " />
    <polygon id="None" points="201.9,150.2 201.1,150.3 200.8,149.6 201.4,149.1 202.0,149.4 202.0,150.1 " />
    <polygon id="None" points="196.3,163.6 195.7,163.5 195.2,162.9 195.2,162.2 195.7,161.9 198.1,162.3 198.6,162.8 198.3,163.4 196.3,163.6 " />
    <polygon id="None" points="199.5,210.1 199.4,211.9 197.7,211.6 197.2,210.8 197.4,209.8 197.9,208.4 199.3,206.1 201.6,205.0 202.4,204.9 201.9,205.9 199.6,209.7 " />
    <polygon id="None" points="195.1,218.9 194.6,218.7 193.2,215.4 193.7,214.0 195.2,212.1 195.8,212.3 196.1,212.8 196.6,215.7 196.5,216.7 195.7,218.5 195.1,218.9 " />
    <polygon id="None" points="191.7,222.0 191.3,221.3 192.7,221.1 192.8,221.8 191.7,222.0 " />
    <polygon id="None" points="181.8,247.9 178.9,250.0 177.7,249.4 176.9,249.1 176.1,249.6 175.6,249.1 175.8,248.6 178.0,247.4 180.1,246.5 180.8,246.4 181.3,246.4 182.0,246.5 182.2,247.2 182.0,247.8 " />
  </g>
</svg>