<?xml version="1.0" encoding="UTF-8" standalone="yes"?>
<!DOCTYPE svg PUBLIC "-//W3C//DTD SVG 1.0//EN" "http://www.w3.org/TR/2001/REC-SVG-20010904/DTD/svg10.dtd">
<svg height="250" width="370" xmlns="http://www.w3.org/2000/svg" xmlns:svg="http://www.w3.org/2000/svg" xmlns:xlink="http://www.w3.org/1999/xlink">


<g id="background">
<rect id="" width="370" height="250" fill="#222222"/>
</g>
  <g id="584" style="stroke-miterlimit: 3; fill: #F1F1F1; stroke: #000000; stroke-opacity: 1; stroke-width: 0.05; stroke-linejoin: bevel; stroke-linecap: square">
    <polygon id="Marshall Islands" points="235.2,0.5 " />
    <polygon id="Marshall Islands" points="132.5,80.5 131.9,80.3 132.5,80.2 " />
    <polygon id="Marshall Islands" points="139.8,82.9 138.6,82.2 139.1,82.2 139.7,82.4 " />
    <polygon id="Marshall Islands" points="194.4,89.5 " />
    <polygon id="Marshall Islands" points="50.4,90.2 " />
    <polygon id="Marshall Islands" points="259.6,93.5 " />
    <polygon id="Marshall Islands" points="176.7,96.0 176.2,95.9 175.5,95.7 177.0,95.3 176.9,95.9 " />
    <polygon id="Marshall Islands" points="262.5,115.6 261.9,115.4 262.5,115.6 " />
    <polygon id="Marshall Islands" points="267.6,137.8 267.0,137.9 267.6,137.6 " />
    <polygon id="Marshall Islands" points="270.2,140.4 " />
    <polygon id="Marshall Islands" points="175.2,146.6 174.7,146.3 175.2,146.2 " />
    <polygon id="Marshall Islands" points="139.3,150.1 139.0,149.5 139.3,150.1 " />
    <polygon id="Marshall Islands" points="286.8,158.7 286.5,158.1 287.0,158.1 286.9,158.6 " />
    <polygon id="Marshall Islands" points="200.5,163.2 200.4,162.6 200.5,163.2 " />
    <polygon id="Marshall Islands" points="214.7,190.3 214.0,190.2 214.7,190.1 " />
    <polygon id="Marshall Islands" points="234.6,195.2 233.9,194.1 234.5,194.1 234.9,194.7 " />
    <polygon id="Marshall Islands" points="223.7,200.1 223.1,199.4 223.1,198.7 223.1,198.1 223.6,199.7 " />
    <polygon id="Marshall Islands" points="229.1,202.8 229.6,203.1 229.0,203.1 227.2,202.6 226.4,202.3 229.1,202.8 " />
    <polygon id="Marshall Islands" points="316.5,208.5 315.9,208.4 316.7,207.4 316.8,208.3 " />
    <polygon id="Marshall Islands" points="321.4,232.8 " />
    <polygon id="Marshall Islands" points="312.0,236.7 311.4,236.7 311.4,236.2 312.0,236.7 " />
    <polygon id="Marshall Islands" points="210.2,249.2 209.9,248.6 210.2,249.2 " />
    <polygon id="Marshall Islands" points="210.9,250.0 210.4,249.8 211.0,248.9 211.3,249.5 210.9,250.0 " />
  </g>
</svg>