<?xml version="1.0" encoding="UTF-8" standalone="yes"?>
<!DOCTYPE svg PUBLIC "-//W3C//DTD SVG 1.0//EN" "http://www.w3.org/TR/2001/REC-SVG-20010904/DTD/svg10.dtd">
<svg height="250" width="370" xmlns="http://www.w3.org/2000/svg" xmlns:svg="http://www.w3.org/2000/svg" xmlns:xlink="http://www.w3.org/1999/xlink">


<g id="background">
<rect id="" width="370" height="250" fill="#222222"/>
</g>
  <g id="585" style="stroke-miterlimit: 3; fill: #F1F1F1; stroke: #000000; stroke-opacity: 1; stroke-width: 0.05; stroke-linejoin: bevel; stroke-linecap: square">
    <polygon id="Palau" points="301.4,36.7 298.3,38.5 297.7,38.3 297.0,37.6 293.6,29.9 299.7,13.7 300.5,12.4 301.5,11.9 303.9,11.6 304.6,11.6 305.9,11.4 307.5,11.0 308.5,10.6 309.6,9.5 309.7,8.3 309.2,6.0 308.7,4.5 307.7,2.6 307.3,1.7 307.1,1.1 307.3,0.6 308.1,0.0 308.8,0.0 310.0,0.9 310.5,2.0 310.9,3.6 311.4,7.4 311.4,8.8 310.9,13.2 310.4,15.5 308.3,24.5 301.4,36.7 " />
    <polygon id="Palau" points="292.1,37.8 296.4,39.6 297.4,40.7 297.6,41.2 297.6,41.9 297.2,42.9 296.4,43.5 294.6,41.1 294.0,40.3 293.2,39.8 292.2,39.4 291.6,39.5 291.0,41.0 290.1,41.1 289.4,39.7 289.5,38.4 290.3,37.8 290.9,37.7 291.5,37.6 292.1,37.8 " />
    <polygon id="Palau" points="282.5,52.7 281.8,52.7 280.8,52.3 279.8,51.2 279.1,49.8 278.8,48.7 278.7,48.1 279.1,47.2 288.8,46.2 289.6,49.2 282.5,52.7 " />
    <polygon id="Palau" points="284.1,60.4 283.4,60.5 282.9,60.4 282.0,59.9 281.2,59.3 280.3,58.1 280.0,57.0 280.6,56.3 282.4,55.3 283.0,55.1 283.5,55.1 284.8,59.3 284.9,59.9 284.1,60.4 " />
    <polygon id="Palau" points="272.0,73.8 267.9,76.7 267.1,76.1 267.1,75.4 271.1,68.3 271.8,67.6 272.3,67.6 273.0,68.3 273.0,68.9 272.2,73.3 " />
    <polygon id="Palau" points="260.8,86.6 260.2,86.7 259.5,86.6 258.6,86.1 258.0,85.3 257.5,83.7 257.6,82.4 257.7,81.9 258.6,81.3 259.2,81.2 260.2,81.4 261.1,81.9 261.7,82.6 262.1,84.4 261.9,85.6 261.3,86.4 " />
    <polygon id="Palau" points="61.9,249.9 61.3,250.0 60.4,249.6 60.0,248.6 60.0,248.1 61.0,247.6 61.8,248.2 62.4,249.0 62.3,249.6 " />
  </g>
</svg>