<?xml version="1.0" encoding="UTF-8" standalone="yes"?>
<!DOCTYPE svg PUBLIC "-//W3C//DTD SVG 1.0//EN" "http://www.w3.org/TR/2001/REC-SVG-20010904/DTD/svg10.dtd">
<svg height="250" width="370" xmlns="http://www.w3.org/2000/svg" xmlns:svg="http://www.w3.org/2000/svg" xmlns:xlink="http://www.w3.org/1999/xlink">


<g id="background">
<rect id="" width="370" height="250" fill="#222222"/>
</g>
  <g id="586" style="stroke-miterlimit: 3; fill: #F1F1F1; stroke: #000000; stroke-opacity: 1; stroke-width: 0.05; stroke-linejoin: bevel; stroke-linecap: square">
    <polygon id="Pakistan" points="287.8,0.8 290.7,1.5 291.5,1.3 293.6,1.1 294.5,1.7 295.3,2.0 296.4,2.2 297.1,2.3 298.1,2.5 298.7,2.9 299.1,3.8 299.1,4.4 299.1,5.5 299.4,6.0 300.2,6.3 300.8,6.3 301.1,5.7 301.7,5.5 303.1,5.6 304.5,5.9 305.0,6.1 305.8,6.5 306.8,7.1 307.3,7.5 308.0,8.1 309.9,11.1 310.1,11.7 310.7,15.4 309.9,16.6 308.8,17.4 308.3,17.8 308.5,18.4 309.0,19.3 309.6,19.7 310.4,19.8 311.1,19.8 311.9,20.0 312.7,21.6 312.8,22.3 312.8,23.0 313.3,23.4 314.2,23.4 315.4,23.2 317.1,22.8 318.1,22.5 320.2,21.6 320.6,23.1 320.5,23.7 321.0,24.4 321.6,24.5 322.7,25.0 323.2,25.2 323.9,25.9 324.4,26.3 326.6,27.1 330.6,28.2 333.3,28.6 335.8,29.5 336.3,29.7 337.0,29.7 337.8,29.5 338.6,29.5 340.1,29.7 341.2,29.9 341.8,29.9 342.6,29.5 343.1,29.1 344.0,29.2 343.1,29.7 339.2,31.7 336.0,33.3 334.7,33.9 333.1,34.7 329.5,36.6 329.8,37.6 329.7,38.3 329.2,38.8 327.7,41.1 327.6,42.3 327.0,44.5 326.1,44.9 325.6,44.9 324.9,44.7 324.2,44.0 323.7,43.4 323.1,43.3 322.2,43.3 319.5,43.1 319.0,42.9 318.3,42.9 315.6,44.1 314.5,45.2 314.3,45.7 313.2,46.2 312.4,46.2 311.5,45.7 310.8,45.5 310.2,45.5 309.7,45.5 308.6,45.9 307.8,46.4 307.3,46.9 306.9,47.4 306.2,47.8 303.6,47.9 298.5,46.9 297.8,46.6 295.7,45.5 294.8,45.6 293.7,45.6 292.4,45.4 285.4,44.3 284.4,44.0 282.9,43.6 282.1,43.3 281.3,43.0 279.8,42.6 279.2,42.6 278.7,42.7 278.1,42.8 277.1,43.1 276.4,43.5 275.5,44.1 274.9,44.3 273.7,44.4 272.3,44.6 271.7,44.9 271.3,45.5 270.7,47.2 270.2,47.7 268.9,49.5 268.7,50.0 268.9,50.6 269.7,51.3 270.3,51.4 271.1,51.4 271.9,51.5 272.8,53.2 272.9,53.7 272.3,54.2 271.7,54.5 271.1,54.8 270.8,55.4 270.9,56.0 271.4,56.6 272.0,57.0 272.5,57.1 273.5,56.8 274.1,56.7 277.1,56.9 277.6,57.1 278.0,57.7 277.8,58.5 277.3,59.1 276.5,59.6 276.0,59.9 275.3,60.2 274.7,60.2 273.9,60.2 273.3,60.5 272.7,61.4 272.4,61.9 272.2,62.8 272.3,63.4 272.7,63.9 273.3,64.3 274.1,64.7 274.7,65.0 275.4,65.4 275.9,66.1 275.8,66.9 275.1,69.0 274.7,69.8 274.1,70.3 273.6,70.5 272.9,70.8 272.7,71.4 272.7,72.2 273.1,72.8 275.7,75.1 276.3,75.4 276.8,75.5 277.7,75.5 278.4,75.7 278.9,76.1 279.3,78.3 279.2,78.8 278.7,79.4 279.1,80.0 282.4,80.6 283.7,80.4 284.3,80.2 285.0,81.5 284.7,83.5 285.3,85.2 285.9,85.7 286.4,85.9 289.3,86.1 291.4,85.8 291.9,85.7 292.4,85.8 295.4,87.1 297.0,88.0 297.3,88.9 297.7,89.5 298.5,90.1 298.3,90.6 296.9,92.1 296.0,92.9 294.8,93.2 292.0,93.9 291.1,94.0 290.0,93.5 289.4,93.6 288.4,94.7 286.4,95.7 285.1,96.2 283.8,96.9 281.6,99.8 282.1,100.6 282.6,101.2 283.3,102.5 284.3,104.7 284.2,105.5 283.4,105.9 282.7,106.7 282.3,110.1 282.6,111.1 282.9,111.9 283.5,111.8 283.8,111.2 285.3,111.2 285.6,112.1 284.8,112.5 282.9,113.4 279.6,115.3 278.2,116.1 277.0,117.7 275.9,119.1 274.6,119.9 273.4,120.8 272.4,122.6 270.1,124.7 269.9,125.3 270.5,125.5 271.3,126.1 271.6,126.8 271.8,127.6 271.9,128.3 271.3,129.5 268.7,130.7 267.4,131.0 266.4,131.3 264.8,131.6 261.6,132.9 260.0,136.8 259.0,139.8 258.8,140.4 255.4,146.1 254.7,146.8 253.6,148.1 252.9,149.9 250.8,150.8 248.7,151.6 247.0,152.5 246.3,152.9 245.5,153.3 242.4,154.7 240.6,156.6 239.8,159.1 239.1,161.5 237.7,163.3 236.7,164.0 235.0,165.4 233.6,167.1 233.3,169.2 233.2,170.1 229.4,171.4 228.4,171.6 227.2,171.8 226.2,171.8 225.5,171.8 224.6,171.8 223.9,171.9 223.0,171.9 221.2,172.2 220.6,172.3 219.3,172.7 218.5,173.1 217.5,173.6 216.3,174.1 215.6,174.4 215.1,174.6 214.4,174.8 213.9,174.9 213.2,174.9 212.4,174.8 211.7,174.5 210.4,172.5 210.1,172.0 210.2,171.4 210.1,170.7 208.8,169.4 208.1,169.0 207.5,168.7 206.8,168.5 204.9,168.9 202.0,171.1 200.1,172.6 199.8,173.3 199.3,174.5 198.9,175.5 198.7,176.1 198.4,176.9 195.3,180.5 193.2,182.3 192.5,182.6 191.9,182.9 190.1,184.6 188.7,187.8 188.1,191.2 188.1,191.7 188.4,192.3 188.7,192.9 189.7,193.2 190.9,193.7 192.0,194.1 192.5,194.3 193.1,194.8 193.5,195.3 194.4,195.8 195.7,195.8 196.7,195.7 198.5,195.6 199.1,195.6 199.8,195.8 200.4,196.1 201.2,196.8 201.2,199.5 201.0,202.1 200.6,203.3 200.0,204.3 199.6,204.8 199.3,206.9 199.9,208.3 202.8,212.2 203.7,212.5 204.3,212.7 204.9,212.9 207.1,212.7 207.7,212.7 208.4,212.4 209.1,212.1 209.7,212.2 210.2,212.4 210.4,213.3 210.4,213.8 210.3,214.7 210.3,215.3 210.3,217.2 210.3,217.7 211.7,220.2 212.5,221.0 213.1,221.5 213.8,222.0 214.2,222.6 214.3,223.2 214.5,224.0 214.7,224.8 215.2,226.3 215.7,227.4 216.3,228.2 217.7,231.0 216.6,232.0 216.1,232.6 216.0,233.7 216.3,235.2 216.9,235.7 218.0,235.8 218.4,236.4 217.0,237.4 216.3,237.4 215.6,237.2 215.1,237.4 213.9,238.2 214.3,239.0 212.8,239.6 212.0,239.8 210.0,239.7 209.5,239.5 208.8,239.1 208.6,238.1 208.6,237.0 209.0,236.4 208.3,236.0 205.5,236.7 203.9,237.3 202.9,237.7 201.3,238.3 200.5,238.3 200.0,238.4 199.4,239.7 199.1,240.5 198.2,241.0 192.6,241.0 192.0,240.5 191.1,239.6 190.2,238.9 189.2,238.9 186.1,238.8 183.8,238.9 180.7,238.6 179.5,239.2 178.8,239.4 178.3,238.7 177.8,238.1 175.7,237.9 175.0,237.9 174.3,238.3 174.3,243.4 174.3,244.2 174.3,244.7 173.3,244.7 172.2,244.7 167.6,244.8 165.8,245.2 164.5,246.5 164.2,247.1 164.0,248.5 163.4,248.9 163.4,248.4 163.6,247.7 163.8,247.1 163.3,246.1 163.0,248.9 163.2,250.0 162.1,249.8 161.4,249.4 161.4,248.9 161.7,248.0 161.4,246.0 160.8,245.3 160.9,246.0 161.3,247.3 160.8,248.5 159.4,247.8 158.6,246.8 157.9,246.0 157.4,246.7 157.4,247.4 155.0,248.1 154.3,248.0 153.6,248.0 153.1,247.0 152.2,246.6 151.4,246.5 151.7,245.4 151.0,244.7 150.7,243.3 149.6,243.1 148.7,243.0 148.2,242.8 147.3,240.9 147.1,240.2 146.9,238.9 147.0,238.2 146.8,236.2 146.3,235.7 145.7,234.6 144.5,232.8 144.4,232.2 145.3,230.9 146.1,230.6 146.1,229.8 144.3,229.3 141.2,228.8 139.0,228.2 136.9,228.3 136.3,228.6 135.6,228.7 135.0,228.7 135.3,228.0 136.1,227.5 135.6,227.2 135.6,226.7 136.1,224.5 136.5,223.0 136.8,222.3 136.5,221.4 136.1,220.9 135.1,220.1 133.9,219.4 133.5,218.4 133.2,217.0 133.1,216.1 131.1,214.4 129.7,214.0 127.6,214.3 126.6,214.6 126.0,214.9 125.6,215.9 126.7,215.9 127.2,215.6 127.8,215.4 129.1,215.1 132.0,216.4 132.5,217.8 131.9,218.0 129.7,217.9 129.0,217.4 128.3,217.2 127.4,217.2 125.6,217.4 121.6,217.8 119.0,218.3 116.9,219.0 115.3,218.9 114.4,218.6 113.0,218.3 110.6,218.3 109.0,218.4 108.2,218.8 107.9,219.4 107.5,220.0 106.9,220.1 106.3,219.9 105.3,219.6 103.1,219.4 100.3,219.4 99.7,219.5 99.2,219.6 98.5,220.1 98.1,220.7 97.9,221.4 98.6,221.9 97.8,222.4 97.2,222.3 97.4,221.6 97.1,220.9 95.7,220.4 95.0,220.5 92.8,220.5 87.4,219.4 87.0,217.8 87.6,217.4 88.1,217.6 88.4,217.0 87.8,217.0 86.5,217.2 85.3,217.6 85.8,218.2 86.4,217.7 87.0,218.7 86.7,219.2 85.6,219.2 84.3,219.2 83.7,219.1 82.6,218.7 81.9,218.5 80.9,218.3 80.1,218.3 79.2,218.4 78.4,218.6 77.6,218.7 77.0,219.0 76.5,219.4 75.7,220.2 75.9,220.8 74.9,221.5 72.6,221.4 72.0,221.2 71.2,221.0 70.3,220.8 69.8,220.7 69.2,220.7 68.6,221.1 67.3,221.4 66.6,221.4 66.0,221.3 64.7,221.1 63.8,220.9 63.3,220.8 62.1,220.6 59.4,220.6 58.7,220.6 58.0,220.7 57.2,220.9 55.2,222.1 54.1,222.3 53.7,221.8 53.1,221.5 52.6,221.3 51.3,221.4 50.7,221.5 50.2,221.7 49.6,222.1 48.5,223.3 47.4,223.2 46.5,223.4 46.0,223.6 45.8,224.1 45.4,224.7 43.8,224.9 43.3,224.7 43.1,223.9 43.6,223.5 44.1,222.4 44.1,221.9 42.4,221.7 41.4,221.7 41.5,219.9 41.6,219.0 41.7,218.2 41.8,216.0 41.9,214.4 42.3,210.6 43.1,210.5 43.6,210.5 44.1,209.7 44.3,207.6 44.8,204.8 45.1,203.4 45.3,202.8 45.7,202.3 49.3,201.0 50.1,200.9 50.7,199.7 51.6,199.8 52.3,200.0 53.2,200.1 53.5,199.5 53.3,199.0 54.0,197.4 56.2,196.2 57.7,196.0 58.4,196.0 59.4,195.9 61.3,195.5 62.1,195.4 62.5,194.7 63.7,194.6 66.4,194.7 67.2,194.8 67.9,194.9 69.9,195.0 70.9,190.8 71.7,189.3 71.6,187.1 71.6,186.5 72.0,185.9 72.9,185.6 72.3,184.0 70.7,183.1 67.6,183.6 66.9,183.8 65.9,184.1 63.6,183.8 62.8,183.2 63.1,180.9 63.7,179.7 63.9,179.2 63.6,174.3 63.4,173.4 63.2,172.5 62.6,170.4 62.5,169.9 62.4,169.4 62.6,168.0 62.8,166.2 62.9,165.4 62.8,164.5 61.0,164.7 60.2,164.9 59.3,165.0 58.1,163.9 57.4,162.9 55.8,161.6 54.2,161.2 52.1,160.8 47.3,159.5 46.7,159.3 44.9,157.7 41.7,154.7 40.4,152.4 39.7,151.0 39.1,149.4 37.6,148.0 36.2,145.7 36.1,145.2 35.4,143.3 34.8,142.6 30.3,138.0 27.0,134.6 29.2,135.2 30.7,135.6 44.3,139.4 48.4,140.6 50.1,141.1 52.8,141.9 54.5,142.3 55.8,142.7 56.8,143.0 58.6,143.0 70.7,141.9 71.2,141.9 77.3,141.3 77.9,141.3 80.0,141.7 85.8,142.6 86.7,143.0 88.6,142.2 89.2,141.6 90.5,141.0 92.7,140.4 94.5,140.0 95.8,139.9 97.9,139.7 98.6,139.7 99.4,139.8 100.0,139.9 101.9,140.1 104.9,140.6 109.0,139.5 115.4,137.9 118.0,137.2 120.4,136.6 124.2,135.7 125.4,135.4 127.8,134.8 128.6,134.0 129.7,132.8 128.5,131.7 128.0,131.3 127.4,130.9 128.1,129.2 128.4,128.5 128.8,128.0 129.5,123.8 129.3,122.8 128.8,122.5 128.3,121.5 130.4,114.4 130.9,114.2 131.5,114.1 133.0,113.9 133.5,113.7 135.7,111.8 135.9,111.0 136.4,109.6 139.0,108.1 140.8,107.4 141.8,107.3 142.5,107.4 142.5,108.2 142.7,108.8 145.9,109.2 146.4,109.2 148.8,109.3 153.1,108.3 156.2,107.1 156.6,106.3 156.1,105.7 155.5,105.6 154.9,105.6 154.1,105.8 153.2,105.3 152.4,103.6 153.8,103.3 154.4,103.5 155.3,103.4 157.0,102.5 157.4,101.8 158.1,101.4 159.0,101.3 159.5,101.5 161.2,100.5 162.6,99.1 163.1,98.3 163.4,97.8 164.4,98.1 165.3,98.8 170.3,99.7 170.8,99.5 170.9,99.0 170.1,98.9 168.9,98.9 169.4,98.1 170.1,97.9 170.6,97.8 171.2,98.0 172.5,98.7 173.8,99.7 174.0,100.2 175.3,101.8 175.9,102.0 179.3,101.2 180.9,100.1 181.5,99.6 182.0,98.9 182.8,97.8 183.0,97.3 184.3,96.1 185.2,95.7 184.5,93.9 184.2,92.1 184.1,91.6 184.2,90.9 184.5,89.3 184.5,88.7 184.2,88.0 183.9,87.5 183.7,86.9 183.7,86.3 183.9,85.7 184.2,85.0 184.8,84.5 185.7,84.2 186.5,83.6 187.0,83.0 187.5,82.3 187.5,81.8 186.9,80.8 186.4,80.3 187.7,79.0 188.5,78.4 188.5,77.5 188.4,77.0 188.2,76.2 188.5,75.3 189.3,74.5 189.9,74.3 190.7,74.4 195.3,74.3 195.8,74.2 198.3,73.4 200.5,72.1 201.9,71.3 203.8,69.8 203.6,68.9 203.1,68.1 202.3,67.3 201.6,67.1 200.9,66.3 201.0,65.7 201.2,65.2 201.4,64.7 201.4,64.0 200.3,62.2 199.7,62.3 197.6,62.0 196.2,60.0 195.3,58.6 195.8,56.8 196.4,56.5 197.5,56.3 198.8,56.6 200.0,56.9 201.5,57.4 204.1,57.9 206.6,58.3 208.2,58.3 212.6,58.1 214.1,57.9 217.9,56.3 218.9,54.2 219.4,50.7 218.5,50.1 218.0,50.0 216.4,48.6 216.0,47.8 216.0,47.3 217.8,46.8 218.4,45.8 218.1,45.2 218.1,44.7 219.6,43.7 221.9,41.7 223.9,40.1 225.3,39.6 225.8,38.9 226.4,37.1 227.1,36.3 227.9,34.2 226.8,33.2 226.6,32.6 227.1,32.0 228.0,31.3 228.5,30.7 227.7,28.7 227.0,27.6 226.3,26.2 226.6,25.6 224.8,22.5 223.6,21.3 222.6,20.7 220.6,19.4 219.9,19.1 221.0,17.4 225.1,14.8 227.3,13.4 227.5,12.6 228.0,11.5 228.5,11.1 229.7,11.7 230.3,12.1 234.6,9.7 237.8,7.8 238.5,7.1 238.4,6.6 239.2,6.3 241.3,5.7 242.7,5.6 243.8,5.6 244.5,5.3 245.1,4.9 245.9,4.4 247.2,4.3 249.1,4.1 249.6,4.2 250.2,4.3 251.2,4.3 251.8,4.2 252.4,4.0 254.8,3.6 261.0,3.2 262.8,3.2 263.8,3.4 265.7,3.0 266.3,2.9 269.3,3.1 271.0,3.6 271.6,4.1 273.1,4.6 273.7,4.5 274.6,4.2 276.3,3.0 280.2,1.2 281.2,1.0 281.8,1.1 282.3,1.6 282.8,1.9 283.2,0.9 285.0,0.1 285.6,0.1 287.8,0.8 " />
    <polygon id="Pakistan" points="150.1,244.1 149.5,244.1 148.9,243.5 150.2,243.1 150.2,244.0 " />
  </g>
</svg>