<?xml version="1.0" encoding="UTF-8" standalone="yes"?>
<!DOCTYPE svg PUBLIC "-//W3C//DTD SVG 1.0//EN" "http://www.w3.org/TR/2001/REC-SVG-20010904/DTD/svg10.dtd">
<svg height="250" width="370" xmlns="http://www.w3.org/2000/svg" xmlns:svg="http://www.w3.org/2000/svg" xmlns:xlink="http://www.w3.org/1999/xlink">


<g id="background">
<rect id="" width="370" height="250" fill="#222222"/>
</g>
  <g id="608" style="stroke-miterlimit: 3; fill: #F1F1F1; stroke: #000000; stroke-opacity: 1; stroke-width: 0.05; stroke-linejoin: bevel; stroke-linecap: square">
    <polygon id="Philippines" points="188.0,1.2 " />
    <polygon id="Philippines" points="185.8,7.5 185.6,6.6 186.2,5.5 186.8,5.4 186.9,6.4 186.5,7.0 185.9,7.5 " />
    <polygon id="Philippines" points="187.9,12.7 187.4,12.6 187.4,11.9 188.3,10.9 188.8,10.6 188.3,12.5 " />
    <polygon id="Philippines" points="186.9,13.7 186.2,13.7 186.2,13.0 186.7,12.9 186.9,13.6 " />
    <polygon id="Philippines" points="188.2,25.9 187.2,25.3 188.2,24.4 188.7,25.1 188.2,25.9 " />
    <polygon id="Philippines" points="181.6,29.1 179.8,28.8 179.0,27.8 179.4,27.2 181.4,27.2 181.7,28.7 " />
    <polygon id="Philippines" points="177.3,33.0 176.6,32.3 176.5,31.4 176.7,30.6 177.3,31.5 177.3,32.0 177.3,32.6 " />
    <polygon id="Philippines" points="186.8,35.7 186.3,35.9 186.1,35.2 186.7,33.5 187.2,33.0 187.8,33.1 188.5,33.6 186.8,35.7 " />
    <polygon id="Philippines" points="179.5,35.5 178.5,35.6 177.9,35.5 177.8,35.0 179.5,34.6 180.8,34.9 179.5,35.5 " />
    <polygon id="Philippines" points="177.3,39.7 179.2,40.8 182.3,42.5 183.1,42.8 185.6,43.7 186.3,43.9 187.0,44.1 187.7,44.2 188.7,44.0 190.4,42.6 190.6,41.8 191.0,40.6 192.0,40.4 193.5,42.5 193.8,43.6 193.7,44.1 193.1,45.1 192.6,45.7 192.1,45.9 191.5,46.5 191.2,47.1 191.4,47.7 191.6,48.3 191.4,49.3 191.2,50.0 191.0,50.9 190.8,51.6 191.2,54.3 191.9,56.4 192.3,57.4 192.5,57.9 193.1,58.3 193.9,58.3 195.1,59.4 195.0,61.0 195.5,61.6 196.0,61.7 196.6,61.5 196.7,62.0 196.5,62.8 195.7,65.3 195.1,66.7 193.3,70.1 192.9,70.6 191.8,72.1 192.0,72.7 192.1,73.2 191.8,74.6 191.6,75.2 191.0,75.9 190.2,76.6 189.4,77.7 188.8,78.2 188.9,77.4 189.6,76.5 190.4,75.5 190.8,74.9 190.2,74.7 189.7,75.3 188.9,76.0 188.3,76.5 185.3,77.7 184.7,77.6 183.6,78.5 182.2,79.9 181.8,80.5 181.8,81.1 182.0,82.0 182.6,82.3 183.1,82.5 183.2,83.0 182.6,84.2 181.0,86.0 179.7,88.1 179.2,88.8 179.5,89.9 180.0,90.7 180.5,90.8 181.7,93.5 182.2,95.1 182.3,95.6 182.6,96.6 183.1,97.2 184.1,98.4 182.8,98.9 182.7,99.6 183.2,101.7 183.7,103.2 184.3,103.8 185.0,105.4 184.9,105.9 184.6,106.4 185.0,107.0 187.3,108.9 187.8,109.2 188.8,109.6 190.2,110.2 190.7,110.3 191.5,110.3 192.2,110.6 193.2,109.6 193.3,109.0 192.7,108.3 192.1,107.9 191.4,107.3 191.1,106.8 192.5,105.4 192.7,106.0 192.7,107.0 193.2,107.5 193.9,107.3 193.8,106.7 193.7,106.2 194.1,105.3 195.5,104.1 196.5,103.8 197.8,104.2 198.9,103.9 199.4,103.9 200.3,104.2 201.4,104.7 202.7,106.0 204.4,107.9 205.2,109.4 205.3,110.6 204.8,111.3 204.6,111.8 204.5,112.3 205.3,112.9 205.7,113.4 205.3,114.0 205.8,113.4 207.8,113.0 208.6,112.2 208.7,111.5 208.3,110.1 207.5,109.5 207.3,109.0 208.1,108.3 209.0,107.7 209.8,108.6 210.1,109.3 210.7,109.6 212.5,110.3 214.1,110.9 217.8,112.2 218.5,112.7 218.6,113.3 216.1,113.7 215.5,113.7 214.7,113.5 213.2,113.2 212.6,113.3 212.2,114.0 211.9,114.6 211.9,115.4 213.4,116.7 213.9,116.9 214.5,117.5 214.9,118.6 215.1,119.1 215.7,119.6 216.3,119.9 216.4,120.5 217.0,120.6 216.3,120.7 215.7,120.7 215.3,121.3 215.3,122.8 215.6,123.4 216.5,122.9 216.9,122.3 217.5,122.0 218.6,122.6 219.2,123.1 220.2,124.0 220.6,123.4 221.6,123.1 221.9,123.6 221.3,124.7 220.9,125.6 221.3,126.3 221.4,127.1 221.2,128.7 221.0,129.2 220.4,130.9 219.5,131.3 218.9,131.1 217.1,129.5 216.9,128.8 216.7,128.2 216.5,126.8 216.9,126.2 217.5,126.4 218.1,126.5 219.2,126.1 219.7,125.4 219.4,124.7 217.4,124.6 217.2,125.1 216.8,125.7 216.3,126.1 214.9,126.4 213.5,125.9 212.7,125.6 211.5,124.7 210.7,123.8 210.2,123.5 209.5,123.8 208.7,124.0 208.3,123.4 208.2,122.5 208.3,121.9 207.5,119.8 207.0,118.4 206.9,117.9 206.3,117.3 204.8,116.6 204.0,116.4 202.2,115.5 201.4,114.8 201.7,113.8 201.4,113.1 200.4,112.2 197.9,110.6 197.1,110.0 196.6,110.2 196.3,111.4 196.0,113.5 196.3,114.4 197.4,116.0 197.9,116.6 198.5,117.4 198.8,118.0 198.9,118.5 199.2,120.4 198.0,121.6 197.5,121.7 196.6,120.7 196.6,119.9 196.6,119.3 196.1,118.1 194.7,116.3 193.7,115.4 192.7,115.0 191.8,115.0 191.3,114.0 190.3,112.6 189.6,112.4 187.2,111.2 186.0,110.6 185.9,110.0 184.9,109.5 184.4,109.5 180.6,111.5 180.2,112.2 179.3,114.1 178.5,114.5 177.7,115.2 176.9,114.7 176.3,114.4 175.4,114.6 174.3,114.1 174.4,113.4 174.2,112.7 173.4,112.3 172.4,112.4 172.2,111.2 171.9,110.6 169.9,110.1 169.2,110.1 168.3,111.1 168.3,111.6 168.5,112.1 167.8,111.9 167.7,110.9 167.6,109.8 167.5,107.2 167.2,105.7 167.8,104.9 168.4,104.7 169.0,104.6 169.7,104.2 171.0,103.0 172.0,102.2 173.0,101.8 173.3,101.3 173.3,100.7 172.9,99.5 172.4,98.8 171.8,98.1 171.0,97.5 170.3,97.5 169.7,97.6 168.6,97.3 167.6,96.8 166.8,96.5 166.6,98.1 167.1,99.0 167.5,101.1 167.5,101.7 167.1,102.3 166.5,102.6 165.8,102.5 165.2,102.3 164.2,102.0 164.1,101.4 163.1,99.5 162.1,98.6 162.1,97.9 162.2,97.4 162.8,96.9 162.0,96.1 161.5,96.7 161.3,97.3 160.7,97.8 160.1,97.5 159.6,97.1 159.1,95.5 159.1,94.9 159.2,94.1 159.3,93.5 159.1,92.4 158.9,91.3 158.5,89.8 157.7,88.6 157.4,88.1 156.8,87.6 156.8,86.6 157.6,85.9 156.9,84.4 157.1,83.1 156.6,81.7 157.0,81.1 156.2,79.3 155.5,79.4 154.9,79.9 154.5,79.3 154.6,76.0 155.0,73.9 155.3,73.4 156.5,72.6 157.2,72.8 157.2,73.6 157.1,74.3 157.3,75.0 158.5,75.9 159.7,76.9 159.8,77.5 160.7,78.1 161.3,78.2 161.8,78.1 162.5,78.0 163.4,77.5 164.3,76.8 164.7,76.3 164.6,75.5 164.4,75.0 163.8,74.3 163.4,72.1 163.1,69.9 163.1,69.1 163.9,65.7 165.1,64.0 165.2,63.3 165.1,62.7 164.8,60.8 165.2,58.0 165.3,57.3 164.8,55.7 164.3,55.3 163.5,55.0 163.7,53.8 163.9,53.2 164.7,52.7 165.2,51.0 165.1,49.4 165.6,47.1 166.2,45.4 166.8,44.5 167.3,43.5 167.4,42.7 167.3,41.9 167.0,41.2 167.2,40.6 167.8,40.0 168.4,40.1 168.9,40.3 169.5,40.3 170.2,39.9 171.6,39.0 172.0,39.6 172.5,39.8 173.0,39.6 173.9,39.1 175.0,38.8 175.8,38.8 176.5,39.2 177.3,39.7 " />
    <polygon id="Philippines" points="158.3,75.2 157.2,74.2 157.5,73.7 158.1,73.4 158.6,73.9 158.6,74.9 " />
    <polygon id="Philippines" points="189.4,93.9 189.5,94.4 189.0,94.0 188.5,94.5 188.1,95.3 188.2,95.8 188.5,96.4 189.1,98.1 188.7,98.9 187.9,99.5 187.4,99.3 187.2,98.7 187.2,98.1 187.6,97.6 187.3,97.1 186.6,95.7 186.1,94.9 185.8,94.1 186.1,93.5 187.6,93.0 188.6,93.1 189.3,93.7 " />
    <polygon id="Philippines" points="192.5,98.0 191.8,97.5 190.4,96.9 190.1,96.3 191.5,96.2 192.6,97.1 192.5,98.0 " />
    <polygon id="Philippines" points="191.2,109.0 190.5,108.7 188.6,107.4 187.4,106.2 190.5,107.7 191.1,108.2 191.5,108.8 " />
    <polygon id="Philippines" points="223.3,109.8 224.3,110.0 224.9,110.6 225.3,111.2 225.3,112.1 224.0,115.8 223.7,115.3 222.9,115.2 222.2,115.6 222.1,116.4 219.8,114.9 219.5,114.3 219.8,113.8 220.4,113.5 220.9,112.7 221.0,112.2 221.2,110.2 221.0,109.7 220.9,109.0 220.9,108.3 222.1,107.5 222.8,108.3 223.2,109.0 223.3,109.8 " />
    <polygon id="Philippines" points="224.2,109.9 223.9,109.3 224.3,109.8 " />
    <polygon id="Philippines" points="223.5,109.7 " />
    <polygon id="Philippines" points="162.6,112.7 162.5,113.8 161.3,113.0 160.2,112.6 159.7,112.0 159.5,111.3 160.0,111.1 160.5,111.2 161.7,111.8 162.2,112.2 162.6,112.7 " />
    <polygon id="Philippines" points="199.8,112.4 " />
    <polygon id="Philippines" points="190.5,118.0 189.5,120.6 189.1,121.1 188.6,121.1 186.6,119.9 186.2,119.1 186.0,118.5 185.8,117.6 186.7,116.0 188.8,115.9 190.3,116.9 190.6,117.5 190.5,118.0 " />
    <polygon id="Philippines" points="169.2,116.9 172.2,116.4 173.0,116.2 173.3,117.1 174.0,117.7 174.6,118.0 175.7,118.0 176.3,117.8 178.0,118.9 181.1,121.9 181.2,123.4 180.9,124.0 180.7,127.6 181.2,128.3 181.8,129.3 181.9,130.2 181.2,130.9 180.6,131.5 179.7,132.7 179.8,133.4 180.1,134.0 179.3,134.0 178.7,134.5 176.8,135.8 175.5,135.7 175.0,135.1 175.0,134.6 174.9,134.1 173.2,132.9 172.4,131.7 172.4,131.1 172.5,130.2 172.1,129.5 171.4,128.6 170.9,128.4 170.2,127.6 170.2,126.8 170.2,125.5 169.8,124.0 169.4,123.3 168.7,122.1 168.2,121.3 167.3,120.8 166.5,120.7 164.2,118.5 163.6,118.4 163.0,117.8 163.1,117.0 163.8,116.4 164.4,116.2 168.4,116.7 168.9,116.8 " />
    <polygon id="Philippines" points="190.9,118.2 " />
    <polygon id="Philippines" points="217.7,120.5 217.1,120.7 216.8,120.1 216.6,119.0 217.6,119.1 217.3,119.9 217.7,120.5 " />
    <polygon id="Philippines" points="219.7,120.8 219.1,120.8 218.3,120.6 217.8,120.2 219.2,119.8 219.7,119.9 220.4,120.1 219.9,120.7 " />
    <polygon id="Philippines" points="222.3,121.6 220.6,121.3 221.0,120.6 221.9,120.9 222.3,121.4 " />
    <polygon id="Philippines" points="209.6,128.8 208.6,128.1 207.1,126.7 204.3,124.3 203.6,124.1 203.1,123.7 202.7,122.5 203.7,121.9 204.4,122.1 206.0,124.4 207.2,125.6 208.1,126.6 209.5,128.5 " />
    <polygon id="Philippines" points="189.4,136.7 188.9,137.9 188.2,137.1 187.4,135.0 187.7,133.8 188.2,133.2 188.7,132.6 188.8,132.1 188.7,130.8 188.6,130.3 189.2,129.8 190.5,129.1 190.8,129.7 190.7,130.7 190.3,133.0 189.4,136.7 " />
    <polygon id="Philippines" points="215.8,134.1 215.0,133.4 214.3,132.4 213.3,131.0 212.6,129.8 213.4,129.1 214.5,129.9 214.9,130.5 215.3,131.6 215.9,133.8 " />
    <polygon id="Philippines" points="193.3,132.0 192.8,131.8 192.4,130.8 192.9,129.8 193.6,130.9 193.6,131.6 " />
    <polygon id="Philippines" points="214.0,134.1 216.0,135.7 217.1,136.1 219.6,139.7 220.1,141.6 220.2,143.4 219.1,142.5 217.8,141.4 216.9,140.9 216.0,140.6 213.1,137.9 212.7,137.1 212.0,136.3 211.1,136.2 210.5,136.3 209.1,138.0 207.7,139.8 206.4,140.8 207.0,138.3 207.5,137.3 208.4,135.6 207.9,134.2 207.4,130.5 208.7,130.6 210.8,131.5 212.0,132.5 214.0,134.1 " />
    <polygon id="Philippines" points="226.0,131.4 228.9,131.7 230.0,131.6 232.1,131.3 234.8,131.2 235.3,131.2 235.7,130.7 236.3,130.6 237.0,130.9 237.6,131.4 238.6,132.4 239.0,133.1 238.6,134.0 238.6,134.8 239.2,135.3 240.1,134.9 240.9,135.3 241.8,136.2 242.0,136.8 241.4,136.9 240.9,137.4 242.1,138.4 241.5,139.0 240.8,140.1 240.7,140.7 240.9,142.0 241.0,144.6 240.9,145.2 242.2,147.7 242.6,148.3 243.2,148.5 243.7,149.0 243.8,149.6 243.3,150.1 242.5,150.6 242.2,151.5 243.1,151.8 243.1,151.2 244.2,151.5 245.5,153.5 245.7,154.1 245.0,154.1 244.5,153.2 244.2,152.5 242.8,152.3 242.3,152.3 241.2,153.0 238.2,152.6 237.1,151.8 236.7,150.7 236.1,150.3 235.3,150.3 234.1,149.2 234.0,148.2 233.7,147.7 232.7,147.4 232.1,147.5 231.5,147.1 231.7,146.6 232.4,145.9 233.0,145.9 233.5,145.8 234.0,145.2 234.8,143.5 234.3,142.8 232.1,142.3 230.7,140.9 229.5,139.2 228.8,138.7 228.0,138.4 226.5,138.0 226.0,137.4 225.0,136.5 224.2,135.0 223.3,132.3 222.9,131.1 223.4,130.7 224.3,131.2 226.0,131.4 " />
    <polygon id="Philippines" points="199.0,134.7 198.3,135.3 197.0,133.9 196.2,133.6 195.6,133.4 195.1,132.8 195.5,132.0 196.0,131.8 196.7,131.7 198.0,131.8 198.5,131.9 199.2,132.8 199.4,133.3 199.3,133.8 199.1,134.5 " />
    <polygon id="Philippines" points="160.8,137.6 161.6,137.3 162.0,136.6 163.3,138.1 163.5,139.1 162.9,139.6 161.7,139.6 160.9,138.9 160.3,138.9 160.1,139.7 159.6,139.7 159.0,139.3 158.5,139.6 157.9,139.0 157.4,138.3 156.2,135.7 156.3,134.6 157.1,134.4 159.7,136.3 160.2,137.0 160.8,137.5 " />
    <polygon id="Philippines" points="175.5,137.0 174.2,136.0 174.0,135.5 174.1,135.0 174.8,135.0 175.1,135.8 175.6,136.9 " />
    <polygon id="Philippines" points="157.6,139.0 " />
    <polygon id="Philippines" points="159.6,140.0 159.2,139.5 159.6,140.0 " />
    <polygon id="Philippines" points="162.3,142.0 161.4,140.5 162.1,139.7 162.5,140.4 162.3,142.0 " />
    <polygon id="Philippines" points="157.8,144.6 157.2,143.0 156.3,141.0 156.2,140.3 156.5,139.7 158.5,140.4 159.3,141.4 158.9,141.9 159.3,142.6 159.1,143.3 158.3,144.2 157.8,144.6 " />
    <polygon id="Philippines" points="192.1,142.4 194.8,144.0 196.5,145.6 197.5,146.6 199.3,145.8 200.0,145.4 201.2,145.3 202.2,146.4 202.3,147.1 201.8,147.6 202.4,148.0 203.8,147.1 204.9,146.5 205.5,146.1 206.0,145.5 206.1,148.5 205.2,150.9 205.6,151.4 205.7,152.0 203.0,153.9 201.9,154.1 200.6,154.7 199.8,155.2 200.2,155.8 200.3,156.6 200.0,157.2 198.2,157.5 197.6,158.7 196.0,159.4 194.5,159.5 192.6,159.8 191.8,160.1 190.2,160.9 189.7,161.8 189.1,162.7 188.2,163.4 187.5,163.2 187.4,162.1 188.0,161.4 188.2,160.4 188.2,159.9 188.3,159.4 188.0,158.7 187.6,157.8 187.9,156.7 188.3,155.7 189.1,154.7 189.4,154.1 189.3,153.2 189.2,152.7 189.2,151.9 189.4,151.0 189.2,149.6 189.4,148.4 189.7,147.3 190.0,145.5 190.2,144.7 190.1,143.9 189.7,143.4 188.4,143.1 187.8,143.0 186.8,143.1 186.9,140.9 187.9,140.4 188.7,140.7 189.2,141.3 190.2,141.9 190.9,142.0 191.8,142.2 " />
    <polygon id="Philippines" points="159.0,142.0 " />
    <polygon id="Philippines" points="231.6,146.5 230.7,146.0 229.9,144.0 230.0,143.5 231.8,145.5 231.8,146.3 " />
    <polygon id="Philippines" points="227.8,147.4 226.4,147.5 225.7,147.1 225.2,146.3 224.1,144.3 225.3,143.8 226.0,143.8 227.0,144.2 228.2,146.2 228.3,146.8 227.8,147.4 " />
    <polygon id="Philippines" points="228.7,150.1 229.6,149.9 230.2,149.6 231.2,148.8 232.0,148.1 233.3,148.1 233.7,148.6 233.8,150.7 234.6,151.5 234.8,154.4 234.7,155.3 234.5,155.9 234.3,156.5 234.3,157.4 234.3,158.3 234.9,158.9 235.5,158.9 236.3,160.4 236.9,161.4 237.0,163.0 237.7,163.7 238.2,164.7 238.3,165.2 238.1,165.7 236.0,167.0 235.5,166.5 235.2,166.0 234.8,164.9 234.6,164.2 234.0,163.9 234.0,166.0 234.3,167.3 234.6,168.5 234.6,169.0 233.9,169.1 231.8,167.7 230.6,166.7 230.9,165.2 230.9,164.7 230.2,164.0 229.9,163.3 230.1,162.6 230.4,161.9 230.6,161.0 231.2,159.7 231.1,158.7 230.8,157.9 230.5,157.3 229.4,155.6 228.4,154.6 227.7,154.3 227.3,155.0 227.4,155.6 227.1,156.2 226.4,156.6 225.4,155.8 225.1,154.9 225.1,152.8 225.1,150.9 224.6,150.1 223.5,147.4 223.3,146.6 223.8,145.9 227.1,148.4 227.4,149.4 227.8,149.9 228.7,150.1 " />
    <polygon id="Philippines" points="155.7,148.8 154.7,148.4 154.2,147.9 153.9,147.4 155.4,146.6 155.9,146.7 156.4,147.0 156.4,147.7 156.1,148.3 155.7,148.8 " />
    <polygon id="Philippines" points="150.8,149.4 151.3,149.4 151.7,150.1 151.5,151.2 150.6,154.6 150.4,156.3 150.9,157.1 151.4,157.2 152.0,157.0 152.3,158.7 152.6,159.5 153.5,161.4 154.0,162.0 153.4,162.3 151.9,163.5 150.6,164.1 150.1,164.0 149.0,164.5 148.1,165.0 147.6,165.6 147.1,166.3 146.6,167.2 146.7,167.8 146.4,168.5 146.1,169.0 145.6,169.3 142.6,170.0 141.8,170.1 141.2,170.0 139.4,170.8 138.5,173.2 138.5,174.0 138.8,174.5 139.4,174.9 137.5,177.1 134.9,180.3 133.3,181.9 130.7,182.5 130.1,182.6 129.4,184.1 128.6,185.7 128.0,186.7 127.4,186.8 126.6,187.3 125.0,188.4 124.7,189.0 124.1,189.6 122.4,190.1 120.9,191.3 119.6,192.4 118.5,192.6 117.7,193.2 116.5,194.3 115.9,195.0 115.3,194.8 116.1,192.2 116.3,191.5 116.7,190.8 118.0,189.0 119.5,187.8 119.9,187.1 120.6,186.1 122.8,183.7 124.7,182.2 126.5,180.9 127.2,180.8 128.3,180.9 129.8,179.5 133.0,176.0 133.1,175.5 134.4,174.2 135.1,173.7 135.8,173.2 137.1,171.6 137.7,170.7 137.9,170.1 138.0,169.6 139.4,167.8 139.6,168.6 139.5,169.3 140.1,169.2 140.4,168.1 140.0,167.1 140.9,166.5 141.4,166.7 141.9,166.6 143.0,165.0 143.3,164.4 142.7,164.5 143.2,163.0 144.5,163.3 145.0,163.8 145.6,163.4 147.8,160.9 148.3,158.9 147.8,158.0 147.2,158.1 146.6,156.6 146.3,155.4 147.1,155.3 149.4,158.2 149.6,158.8 149.7,157.2 149.4,156.5 148.6,156.4 147.8,155.4 147.7,154.9 147.7,154.4 148.0,153.0 148.7,153.8 149.2,154.1 149.6,152.4 149.6,151.1 149.6,150.5 149.5,149.9 149.6,149.4 150.2,148.1 150.8,148.5 150.8,149.4 " />
    <polygon id="Philippines" points="151.2,149.0 " />
    <polygon id="Philippines" points="215.2,152.3 214.3,151.2 214.7,150.2 215.3,150.3 215.7,151.7 215.2,152.3 " />
    <polygon id="Philippines" points="219.3,152.7 219.2,153.7 219.7,154.4 219.8,156.4 219.5,157.6 219.4,160.3 219.2,162.8 219.0,163.5 219.0,164.3 218.4,164.8 215.9,166.2 214.7,167.1 213.5,168.5 213.3,169.3 213.3,170.0 213.3,170.6 213.1,171.5 212.6,171.9 212.0,172.7 211.6,173.7 211.6,174.5 211.0,176.2 210.5,177.0 209.4,178.3 208.9,178.6 208.3,177.5 208.5,176.4 209.1,173.1 209.4,171.6 210.0,171.4 209.8,170.7 209.5,169.9 210.0,168.9 210.7,168.4 211.5,167.5 212.1,166.2 212.9,164.4 213.9,163.4 214.6,162.2 214.5,161.6 214.7,161.1 215.3,159.9 215.8,159.2 216.4,158.3 216.9,157.4 217.5,155.7 218.4,153.2 218.3,152.5 218.1,151.9 218.9,150.5 219.7,150.3 220.0,150.8 219.6,151.4 219.3,152.7 " />
    <polygon id="Philippines" points="244.3,153.2 " />
    <polygon id="Philippines" points="212.4,157.6 210.9,161.8 210.2,162.4 209.5,162.8 209.1,163.5 208.9,165.5 208.7,166.1 208.1,167.8 207.9,168.3 207.4,169.3 206.9,169.9 206.2,171.0 205.9,172.2 206.2,173.4 206.3,174.1 206.1,174.8 205.6,174.9 206.1,176.6 206.7,177.6 207.4,178.5 208.4,179.6 208.5,180.4 208.3,181.4 208.0,181.9 207.5,182.6 206.7,183.4 205.8,184.2 204.0,184.4 202.9,183.8 202.4,182.8 202.1,181.9 202.0,181.3 201.9,180.6 201.8,180.0 200.9,179.5 199.7,179.2 199.1,179.2 198.4,178.8 197.8,178.4 196.9,177.5 195.9,176.4 194.9,174.9 194.6,173.8 194.8,172.7 195.5,170.1 196.1,170.0 196.7,170.0 197.3,170.0 197.8,170.1 198.6,170.1 200.7,169.1 201.6,168.3 201.7,167.4 201.6,164.9 201.2,163.2 201.3,161.4 202.0,161.1 202.5,160.5 203.1,159.3 203.2,158.5 203.3,157.5 203.0,156.9 203.1,156.1 203.8,155.7 206.6,154.5 207.2,154.6 211.4,155.5 212.3,156.9 212.4,157.6 " />
    <polygon id="Philippines" points="174.1,157.7 173.5,157.2 173.6,156.7 174.4,156.0 174.8,156.8 174.6,157.5 " />
    <polygon id="Philippines" points="246.3,159.2 245.8,159.3 244.3,158.4 244.2,157.9 244.5,157.4 246.5,158.6 246.5,159.2 " />
    <polygon id="Philippines" points="198.3,163.0 197.6,163.1 196.9,163.6 195.9,162.5 196.5,160.8 196.9,160.3 198.0,159.0 198.5,158.4 199.4,158.8 199.7,160.0 199.0,162.0 198.3,163.0 " />
    <polygon id="Philippines" points="225.6,160.2 225.0,160.1 225.0,159.5 225.5,158.9 226.0,158.9 226.7,159.4 226.6,160.0 225.9,160.2 " />
    <polygon id="Philippines" points="224.5,160.5 223.8,160.9 223.3,160.9 223.8,159.2 224.4,159.0 224.9,159.9 224.5,160.5 " />
    <polygon id="Philippines" points="155.7,163.0 155.0,162.9 154.5,161.8 154.6,161.2 155.8,160.5 156.7,160.4 158.2,160.6 158.5,161.2 158.2,161.7 157.2,162.5 156.4,162.8 155.7,163.0 " />
    <polygon id="Philippines" points="244.1,172.4 243.0,172.4 243.2,171.8 243.6,171.3 243.4,170.5 241.8,168.7 241.4,168.1 241.9,164.9 243.6,162.8 244.4,163.3 244.1,165.9 244.1,167.2 244.2,167.9 244.8,168.6 244.9,171.3 244.6,172.0 " />
    <polygon id="Philippines" points="226.3,168.9 227.0,168.9 227.5,169.4 227.8,171.0 227.5,171.6 226.9,171.9 227.4,172.4 227.9,172.5 228.1,173.1 227.8,173.7 227.0,173.8 225.2,174.7 224.5,175.4 223.8,175.6 223.2,175.8 220.4,176.0 219.8,176.0 218.3,175.8 216.9,175.3 215.8,173.8 215.7,173.3 215.7,172.1 217.2,171.0 218.3,170.4 219.7,169.7 221.0,168.1 221.1,167.6 222.2,167.3 223.7,167.3 224.7,167.5 225.3,168.3 225.9,168.7 " />
    <polygon id="Philippines" points="238.5,171.1 236.3,168.8 236.0,168.1 236.0,167.5 237.4,167.8 238.4,169.8 238.7,170.7 " />
    <polygon id="Philippines" points="251.0,173.6 249.8,173.6 248.5,172.3 248.8,171.4 249.9,169.3 250.4,168.9 250.7,169.7 251.1,171.2 251.5,172.1 252.0,172.7 251.1,173.6 " />
    <polygon id="Philippines" points="209.6,171.5 " />
    <polygon id="Philippines" points="227.7,171.9 " />
    <polygon id="Philippines" points="250.1,181.3 251.0,181.1 252.1,181.2 252.0,181.8 251.8,183.3 252.9,184.4 252.7,184.9 253.5,185.1 254.2,186.1 254.4,187.2 253.9,188.1 252.2,189.5 251.6,189.9 250.9,190.2 250.6,190.8 251.2,191.8 252.3,192.1 254.7,191.8 255.3,192.3 255.3,193.0 255.0,194.1 254.6,194.6 254.3,196.5 255.3,197.0 256.0,196.4 256.1,198.2 254.8,201.5 255.1,202.4 255.7,202.7 256.2,203.0 257.3,204.2 257.7,204.7 258.3,207.4 258.4,207.9 258.3,208.5 257.7,209.2 257.7,209.8 257.7,210.6 257.8,212.2 256.2,214.4 254.7,215.2 254.1,215.4 253.6,216.4 253.9,216.9 254.5,217.4 254.6,218.2 254.1,218.3 253.6,217.7 253.5,217.1 253.3,216.5 252.6,216.0 251.8,217.0 252.2,217.7 252.8,218.3 253.2,219.0 253.1,219.7 252.7,220.8 252.5,224.0 252.5,225.5 252.2,226.3 252.2,225.5 251.5,224.4 250.9,223.1 250.7,222.6 250.3,220.6 250.6,219.8 250.8,219.2 250.5,217.6 250.0,217.3 249.4,217.0 249.0,216.4 248.9,215.7 249.1,215.1 248.7,214.3 248.0,213.9 246.9,211.4 247.0,210.4 247.1,209.9 246.4,209.7 245.5,210.3 244.6,211.0 244.0,211.6 244.1,212.4 244.2,213.3 243.9,213.8 243.3,214.6 242.8,214.6 242.1,214.7 241.6,215.5 241.6,216.1 241.4,216.8 240.8,217.5 240.2,218.2 239.9,219.3 240.0,221.1 240.8,221.6 241.6,221.8 243.1,223.2 244.6,226.5 244.9,227.8 244.9,228.8 244.8,230.0 244.6,230.8 244.2,231.6 243.7,232.4 242.3,233.7 242.0,234.2 241.6,235.0 241.2,235.7 240.6,236.6 239.9,237.2 239.0,237.0 238.6,236.3 238.8,235.8 238.5,235.1 237.5,234.3 236.8,232.9 237.4,232.3 238.0,231.6 238.5,230.8 238.3,229.5 238.0,228.9 236.9,228.8 235.5,232.3 234.7,232.7 233.5,232.6 231.9,232.2 229.9,231.4 227.0,230.1 225.0,229.0 223.9,228.7 223.0,228.1 221.8,227.2 220.0,224.6 219.6,223.8 219.5,222.9 219.5,222.3 219.7,220.8 219.5,219.1 218.8,218.6 218.2,217.9 218.5,216.3 218.7,215.6 218.9,214.9 219.6,213.6 220.0,213.0 220.5,213.0 221.3,212.6 223.0,209.7 222.8,209.0 222.1,209.0 221.5,209.0 221.0,208.3 220.7,207.2 219.4,205.6 217.7,204.8 217.2,204.6 216.3,204.6 215.5,204.6 215.0,204.3 215.0,203.7 214.3,203.0 213.1,202.6 212.5,202.3 210.8,202.9 210.6,203.8 211.1,204.2 211.1,204.8 211.0,205.3 210.6,205.8 210.0,206.0 209.0,206.6 210.0,208.1 210.6,208.5 210.7,209.5 210.1,209.8 208.9,209.0 208.2,208.3 208.3,207.7 207.3,207.1 206.7,207.5 206.5,208.2 205.7,207.6 205.4,206.9 206.2,206.4 206.7,206.3 205.8,204.5 204.8,204.9 204.3,205.8 204.4,206.4 203.8,208.0 203.1,208.0 202.0,208.1 201.4,208.6 202.3,208.6 202.9,208.9 203.4,209.6 202.3,210.4 201.5,210.6 201.0,210.9 200.6,210.1 200.7,209.3 200.9,208.8 201.4,208.6 200.5,208.1 200.5,204.9 201.0,204.4 200.9,203.9 199.5,203.4 198.6,203.4 198.1,203.5 196.9,204.1 196.4,204.8 195.4,206.2 194.1,208.1 193.8,208.6 193.9,209.1 194.5,209.2 194.1,210.1 193.6,210.5 193.1,210.3 192.8,211.7 192.5,212.8 192.4,213.6 191.5,215.9 190.9,216.7 190.2,216.9 189.3,216.5 188.0,216.0 187.4,215.3 187.1,214.0 187.1,213.0 187.4,212.5 189.2,210.3 189.4,208.6 189.8,207.6 190.1,207.0 190.6,205.5 190.6,205.0 190.3,204.3 190.3,203.4 190.9,202.4 192.0,200.6 192.7,200.1 193.2,199.8 194.0,199.5 195.3,199.0 195.9,199.0 200.4,198.3 201.1,198.2 202.3,197.9 203.6,197.0 203.6,195.0 203.5,193.7 204.2,192.7 204.7,192.2 206.5,191.9 207.1,192.1 207.7,192.3 208.4,192.1 209.4,190.3 209.6,189.4 210.4,189.1 211.9,190.5 213.2,190.1 214.3,190.4 214.9,190.9 215.6,191.7 216.2,192.8 216.5,193.5 216.9,196.6 217.0,197.3 216.7,197.9 215.5,199.0 214.9,199.3 214.4,199.3 213.7,199.8 213.7,200.4 214.2,200.5 215.2,200.0 215.7,199.3 216.6,198.4 218.4,197.4 219.2,197.1 220.1,197.1 220.8,197.2 221.6,197.2 222.3,196.9 222.9,195.9 222.7,195.1 223.2,194.1 223.3,193.4 223.9,191.7 225.5,190.7 226.2,190.8 227.3,191.9 229.2,192.8 229.7,192.8 230.3,192.3 230.6,191.0 230.6,190.4 230.2,189.8 230.7,188.1 230.8,186.4 230.7,185.6 230.9,185.1 231.4,184.8 232.3,184.6 233.6,185.5 234.5,186.3 235.2,187.4 235.8,187.5 236.5,187.2 238.4,185.0 240.6,185.2 241.4,185.0 242.0,184.8 242.2,184.1 242.3,183.5 242.2,182.0 241.9,180.6 241.0,177.7 240.4,175.9 240.1,175.0 240.2,174.0 240.3,173.2 240.8,172.6 241.7,172.8 242.6,173.3 243.0,173.9 243.3,175.2 244.0,175.7 245.5,176.3 246.8,176.6 248.1,177.5 248.4,178.1 247.8,178.4 249.6,180.8 250.1,181.3 " />
    <polygon id="Philippines" points="248.6,176.4 247.8,175.6 247.9,174.1 248.0,173.5 248.7,173.7 249.1,174.6 249.2,175.2 248.9,176.1 " />
    <polygon id="Philippines" points="215.5,176.6 214.9,176.1 215.5,175.5 216.2,175.2 216.7,175.3 216.9,175.9 215.9,176.5 " />
    <polygon id="Philippines" points="214.0,181.4 214.5,182.5 214.1,183.1 213.0,183.5 212.4,183.5 211.1,182.4 210.8,181.7 211.4,181.7 212.1,181.5 212.6,181.1 212.8,180.4 213.4,180.4 214.0,181.4 " />
    <polygon id="Philippines" points="230.8,183.7 229.7,183.3 229.0,182.9 228.6,182.3 228.6,181.8 229.2,181.0 229.7,180.9 230.7,181.7 231.2,182.7 231.3,183.2 " />
    <polygon id="Philippines" points="253.3,184.9 " />
    <polygon id="Philippines" points="252.9,184.7 " />
    <polygon id="Philippines" points="117.3,197.3 116.8,196.8 116.8,195.6 117.0,195.1 117.6,195.0 118.1,195.7 118.0,196.8 117.3,197.3 " />
    <polygon id="Philippines" points="113.1,202.9 112.4,202.0 112.2,201.4 112.1,200.9 112.0,199.6 113.8,198.8 114.2,201.4 113.9,202.0 113.1,202.9 " />
    <polygon id="Philippines" points="246.2,216.2 245.8,216.9 244.3,214.1 244.7,212.4 245.9,213.0 246.2,216.2 " />
    <polygon id="Philippines" points="136.0,214.7 136.1,215.7 135.4,215.6 134.8,215.4 134.3,214.9 135.5,214.5 136.0,214.7 " />
    <polygon id="Philippines" points="192.1,220.4 192.2,221.4 191.6,222.7 191.1,223.4 189.7,224.0 189.1,224.1 188.5,224.2 187.9,223.9 187.4,223.6 185.5,221.4 185.5,220.8 185.9,220.2 186.5,220.1 187.6,220.2 188.2,219.7 188.6,219.2 189.7,219.0 190.2,219.5 190.8,220.1 191.6,220.3 192.1,220.4 " />
    <polygon id="Philippines" points="166.9,226.7 165.6,226.5 166.6,224.8 167.3,224.4 167.1,226.5 " />
    <polygon id="Philippines" points="186.5,230.1 187.3,229.9 187.8,229.6 187.1,230.4 186.5,230.5 185.0,229.3 185.5,229.5 186.5,230.1 " />
    <polygon id="Philippines" points="176.3,229.8 177.3,230.1 179.3,230.2 179.9,230.6 179.4,231.7 178.8,231.7 178.2,232.1 177.7,232.3 177.1,231.4 176.5,231.2 174.7,232.1 172.4,232.1 171.6,231.6 171.5,231.1 171.8,230.4 173.7,229.2 175.2,229.0 175.8,229.2 176.3,229.8 " />
    <polygon id="Philippines" points="176.2,233.6 175.6,233.6 175.6,232.7 176.3,232.9 176.2,233.6 " />
    <polygon id="Philippines" points="171.5,238.1 170.8,237.8 170.7,237.0 171.5,236.8 172.0,237.3 171.6,238.0 " />
    <polygon id="Philippines" points="241.4,239.7 241.0,239.2 241.0,238.6 241.6,238.2 241.7,239.1 241.4,239.7 " />
    <polygon id="Philippines" points="240.4,240.1 239.6,240.1 239.5,239.2 240.1,239.0 240.6,240.0 " />
    <polygon id="Philippines" points="162.1,242.0 161.7,243.6 161.0,243.5 160.0,242.9 159.1,242.8 158.4,243.1 158.2,243.7 158.0,244.2 157.4,244.1 156.1,244.8 155.5,243.6 156.1,243.2 158.7,242.0 159.5,241.4 160.2,240.8 160.9,240.4 161.5,240.3 161.6,240.9 162.1,241.3 162.1,242.0 " />
    <polygon id="Philippines" points="162.0,241.0 " />
    <polygon id="Philippines" points="157.5,244.4 " />
    <polygon id="Philippines" points="158.6,245.1 " />
    <polygon id="Philippines" points="150.3,250.9 150.2,249.8 150.2,249.2 150.2,248.3 150.0,247.7 149.9,247.1 150.5,247.5 150.6,248.1 150.8,249.0 150.8,249.6 150.5,250.3 150.3,250.9 " />
  </g>
</svg>