<?xml version="1.0" encoding="UTF-8" standalone="yes"?>
<!DOCTYPE svg PUBLIC "-//W3C//DTD SVG 1.0//EN" "http://www.w3.org/TR/2001/REC-SVG-20010904/DTD/svg10.dtd">
<svg height="250" width="370" xmlns="http://www.w3.org/2000/svg" xmlns:svg="http://www.w3.org/2000/svg" xmlns:xlink="http://www.w3.org/1999/xlink">


<g id="background">
<rect id="" width="370" height="250" fill="#222222"/>
</g>
  <g id="616" style="stroke-miterlimit: 3; fill: #F1F1F1; stroke: #000000; stroke-opacity: 1; stroke-width: 0.05; stroke-linejoin: bevel; stroke-linecap: square">
    <polygon id="Poland" points="175.1,213.9 175.0,212.6 174.7,211.1 173.7,208.2 172.7,207.8 167.1,205.8 165.1,202.9 165.1,199.5 164.3,199.0 156.6,198.3 153.6,197.6 147.1,194.7 145.6,194.0 144.0,195.7 141.1,196.8 140.4,196.9 139.5,196.9 138.7,196.8 137.8,196.5 131.0,192.1 129.1,190.6 128.8,190.1 129.4,189.7 130.1,189.7 130.7,189.7 132.2,189.5 134.8,188.5 134.9,187.5 134.5,185.1 133.5,184.3 132.7,184.1 132.3,184.7 131.3,185.9 130.1,186.2 129.6,186.2 122.6,186.1 120.6,185.7 117.1,184.2 115.0,183.3 114.3,182.8 111.0,181.4 108.8,180.9 104.5,180.0 103.3,179.8 102.6,179.8 101.8,180.7 104.3,183.5 105.6,184.6 106.7,188.0 105.5,187.8 103.4,187.8 101.1,188.5 99.8,189.3 99.3,189.8 98.7,190.9 96.5,192.4 95.7,192.4 93.4,192.1 92.4,191.6 91.4,190.9 90.6,190.1 90.6,189.5 90.5,188.6 90.0,187.7 86.6,184.8 86.0,184.4 83.4,182.7 80.8,182.1 79.5,181.6 77.8,180.9 77.2,180.4 77.2,179.9 81.1,177.4 82.1,177.6 82.6,177.7 83.2,177.6 84.7,176.7 86.2,174.9 85.6,173.8 83.3,172.2 82.3,171.6 81.7,171.4 78.4,171.3 74.7,171.8 74.0,171.7 72.3,172.6 70.5,172.8 67.7,170.6 61.8,168.5 55.1,167.5 50.7,167.0 46.7,167.2 46.3,165.3 45.8,164.8 44.8,164.4 44.1,164.3 43.1,163.1 42.8,162.4 42.7,161.6 43.5,161.0 42.8,160.0 41.5,159.4 39.2,158.5 33.0,159.7 33.4,160.3 33.3,160.9 32.9,163.9 31.4,164.3 26.3,164.0 26.1,163.4 28.8,160.6 30.1,159.0 31.3,157.2 31.8,156.2 32.4,154.7 33.8,150.2 34.1,149.0 34.0,148.5 33.0,147.5 32.5,147.2 31.9,146.5 31.6,145.9 31.7,142.8 31.0,141.8 29.7,141.2 26.6,140.6 23.1,139.6 22.1,138.5 23.5,137.0 23.8,136.4 23.6,134.7 22.6,133.6 21.4,133.1 20.7,132.6 20.2,132.1 18.0,129.1 17.8,128.3 18.4,127.5 19.3,127.2 21.0,125.9 22.1,124.2 23.8,119.5 22.0,113.2 21.2,112.6 19.9,112.4 17.9,112.0 17.1,111.5 15.4,107.5 15.7,106.3 16.3,106.1 17.2,105.9 18.7,104.4 19.2,103.7 19.3,101.0 18.0,99.8 17.3,99.4 16.4,99.0 15.9,98.8 15.1,98.5 14.3,98.3 13.4,98.0 12.2,97.1 9.8,95.0 9.0,94.5 3.5,91.8 2.9,91.7 1.1,90.1 1.0,86.8 1.9,86.0 3.0,85.6 3.8,85.5 6.3,84.5 8.3,83.4 9.6,81.2 10.1,79.7 10.9,73.8 10.9,72.5 7.1,64.5 5.8,59.2 9.2,59.2 10.5,59.8 11.2,60.0 15.0,60.6 16.1,59.9 18.5,56.8 18.3,54.9 17.3,53.8 16.3,53.3 13.6,53.1 12.9,53.0 10.9,53.0 10.9,53.8 8.3,55.3 6.3,54.6 5.5,54.1 3.7,52.9 3.6,51.8 4.0,50.7 4.5,50.9 5.2,51.0 7.7,51.3 8.6,51.4 9.3,51.3 11.0,51.0 11.7,50.8 13.5,50.0 14.0,49.7 16.3,48.9 23.2,47.0 25.8,46.6 31.9,45.4 41.1,43.3 43.5,42.6 44.1,42.5 45.7,42.3 47.3,42.1 48.5,42.1 50.6,41.9 56.7,40.9 60.2,40.2 60.7,40.1 62.0,39.7 63.5,39.2 65.0,38.9 71.4,38.4 74.4,37.6 73.7,38.2 72.3,38.5 72.9,38.7 74.9,38.7 76.1,38.5 77.7,37.9 77.7,37.4 76.1,37.2 74.8,37.4 76.0,37.0 77.0,36.7 79.1,35.4 78.1,36.1 79.1,36.3 81.8,35.3 81.9,34.6 81.0,34.2 81.4,33.6 84.7,31.0 86.7,29.6 87.7,28.9 88.7,28.3 89.7,27.9 90.8,27.7 93.3,27.2 94.2,27.1 95.3,27.0 95.9,27.0 99.0,26.7 102.3,26.2 103.5,25.9 104.1,25.8 104.7,25.5 107.1,24.2 107.8,23.7 108.9,23.2 115.8,21.1 120.0,20.4 122.7,20.2 126.3,19.9 128.2,19.6 128.9,19.5 132.0,18.9 135.3,18.2 139.8,17.6 140.6,17.5 144.9,17.2 145.6,17.2 155.8,17.1 156.6,17.2 157.4,17.9 160.3,18.9 163.1,19.9 165.0,20.5 166.0,20.8 169.7,22.1 171.0,22.7 172.3,23.4 174.3,24.7 174.6,25.4 174.2,26.1 172.7,25.2 172.1,24.4 171.4,23.5 170.4,22.8 169.8,22.4 164.8,21.1 162.3,20.2 161.7,20.0 160.9,20.8 158.6,20.6 161.0,23.4 162.5,24.7 163.7,26.1 164.1,26.6 164.6,27.6 164.8,30.1 164.6,30.8 164.8,31.4 165.2,31.9 165.7,32.3 166.2,32.5 169.8,33.9 171.7,34.3 174.6,35.0 175.1,35.1 176.4,35.2 177.0,35.3 177.7,35.3 178.9,35.0 179.4,35.3 181.5,35.4 182.3,35.4 185.8,35.2 188.5,35.0 194.5,34.2 196.1,34.0 196.9,33.8 199.5,33.1 200.0,32.9 201.5,32.2 203.3,31.2 203.8,30.9 204.7,31.2 204.0,31.6 200.0,33.4 196.5,34.5 195.7,34.8 194.9,35.0 194.2,35.1 191.2,35.2 190.6,35.3 189.3,35.6 189.9,37.7 194.4,38.1 198.1,36.5 198.6,36.3 201.4,35.2 201.9,35.2 203.7,35.1 207.0,33.9 210.1,31.9 212.4,32.1 217.8,32.5 221.0,32.6 223.5,32.8 228.8,33.3 229.8,33.5 231.4,33.7 233.6,33.9 245.0,34.8 250.9,34.9 259.3,35.4 261.4,35.6 263.2,35.7 265.1,35.8 268.2,35.9 269.9,36.0 271.0,36.0 274.0,36.0 275.7,35.9 277.8,35.9 281.6,35.8 286.3,35.8 291.0,35.7 297.7,35.7 301.5,35.5 302.5,35.5 307.4,35.3 308.5,35.3 315.0,35.1 316.2,35.1 319.7,34.8 320.3,34.7 321.6,33.5 322.2,33.1 322.9,33.0 323.8,33.0 328.2,33.7 328.7,34.0 332.9,36.8 336.2,37.4 341.0,38.9 341.6,39.2 345.5,41.6 346.6,42.9 346.9,43.7 347.8,46.3 347.8,46.9 347.4,49.5 347.2,50.2 347.3,51.0 347.4,51.5 347.6,52.1 348.6,53.9 350.1,58.0 350.5,59.4 350.7,60.0 351.2,61.5 351.4,62.0 351.6,62.7 352.3,64.4 353.4,66.5 353.8,67.3 354.6,68.3 357.7,73.4 360.4,77.8 363.2,84.5 363.0,87.0 363.1,90.3 363.4,93.4 363.5,94.3 363.5,95.0 363.2,95.7 362.5,96.3 361.3,97.0 356.5,99.3 355.9,99.4 355.3,99.3 354.1,99.2 352.9,99.5 352.1,99.7 350.7,100.0 348.0,100.8 347.3,101.1 344.1,102.6 343.3,103.0 342.6,103.6 337.9,108.2 334.8,111.6 335.7,113.4 336.3,113.7 336.9,113.9 339.7,114.2 341.3,114.4 341.9,114.5 350.7,117.9 352.3,119.1 353.1,121.8 351.9,123.8 351.3,125.1 349.3,131.2 348.9,133.7 349.2,134.3 348.4,134.9 348.6,137.1 349.3,138.9 350.0,139.3 351.0,139.5 351.3,140.4 351.7,141.0 352.4,141.0 352.9,141.3 354.3,144.1 353.9,145.3 353.9,148.4 355.7,151.1 356.6,151.7 358.7,152.8 362.1,156.5 363.1,159.3 364.3,160.8 365.2,161.6 366.7,162.7 367.3,163.0 367.8,163.2 368.9,163.4 370.9,164.2 370.6,165.1 369.9,165.3 368.5,165.4 367.6,165.3 366.5,165.3 365.2,165.3 364.6,165.4 364.1,165.8 363.9,166.4 364.0,166.9 366.2,168.7 368.3,170.3 369.6,172.6 369.8,175.1 365.8,180.6 364.7,181.1 363.0,181.1 361.3,181.1 360.0,181.0 358.8,181.1 357.9,181.2 356.6,181.5 355.6,181.7 355.0,181.9 354.5,182.3 354.0,183.6 350.5,186.1 349.7,186.6 348.6,187.1 347.0,187.9 342.6,190.5 341.3,191.4 340.6,191.8 339.9,192.3 337.3,194.2 334.0,196.7 332.7,197.7 320.5,208.1 318.2,210.7 317.0,211.7 316.0,213.2 315.9,213.8 317.3,216.4 318.6,218.2 319.0,218.8 319.8,222.1 319.6,223.0 318.5,225.0 317.7,226.4 317.6,226.9 320.4,227.5 323.2,229.2 324.1,229.7 323.6,230.9 323.6,231.6 324.4,233.0 323.8,233.0 323.2,232.9 318.9,231.3 313.8,229.7 312.9,229.7 312.3,230.1 311.7,229.9 304.8,228.0 303.6,227.9 300.0,227.3 293.4,225.4 292.8,225.1 292.5,224.6 292.6,223.9 292.4,223.1 290.2,220.5 285.6,218.8 277.5,216.9 274.4,217.2 273.2,217.4 272.1,217.8 271.0,217.8 269.5,217.2 265.2,216.2 257.5,217.4 256.5,217.8 256.0,219.8 254.0,221.6 253.0,221.9 251.5,222.1 247.7,220.8 245.0,218.7 239.9,218.4 231.0,218.5 229.8,218.9 225.3,220.5 222.9,221.4 221.5,223.9 221.1,225.2 221.0,225.8 220.8,226.5 220.0,226.5 219.1,226.1 218.4,225.7 217.7,225.2 217.1,224.7 215.3,224.5 214.5,224.6 212.7,225.8 212.0,226.0 210.0,225.8 209.5,225.6 209.0,225.1 209.3,224.4 210.2,223.7 211.0,223.0 210.4,219.6 209.9,218.1 209.1,218.0 206.9,218.4 205.0,218.0 202.1,216.2 200.4,213.3 199.9,211.8 198.2,210.9 197.2,210.8 190.9,213.4 189.7,214.2 188.2,216.6 187.9,217.1 187.5,217.9 186.7,218.3 181.8,218.6 180.4,218.5 179.8,218.4 179.5,216.2 179.5,215.2 175.1,213.9 " />
  </g>
</svg>