<?xml version="1.0" encoding="UTF-8" standalone="yes"?>
<!DOCTYPE svg PUBLIC "-//W3C//DTD SVG 1.0//EN" "http://www.w3.org/TR/2001/REC-SVG-20010904/DTD/svg10.dtd">
<svg height="250" width="370" xmlns="http://www.w3.org/2000/svg" xmlns:svg="http://www.w3.org/2000/svg" xmlns:xlink="http://www.w3.org/1999/xlink">


<g id="background">
<rect id="" width="370" height="250" fill="#222222"/>
</g>
  <g id="626" style="stroke-miterlimit: 3; fill: #F1F1F1; stroke: #000000; stroke-opacity: 1; stroke-width: 0.05; stroke-linejoin: bevel; stroke-linecap: square">
    <polygon id="East Timor" points="363.7,78.2 354.4,85.2 349.3,89.3 345.6,92.6 342.2,96.1 337.2,101.2 322.3,106.7 311.2,109.8 309.7,109.7 308.3,109.9 300.9,111.0 296.3,111.9 295.7,112.1 288.0,115.7 287.1,116.4 282.9,120.6 282.0,122.1 281.5,123.8 280.6,126.1 277.9,129.5 275.6,131.7 273.9,132.3 258.4,134.7 250.9,135.4 248.7,135.3 247.2,135.3 240.2,136.0 239.0,136.3 237.9,136.8 235.9,138.0 234.5,138.9 231.4,141.2 215.2,151.8 213.0,152.5 212.3,152.5 209.3,152.5 207.9,152.2 206.6,152.1 204.4,152.2 203.8,152.4 197.0,154.1 171.6,162.2 154.0,167.9 152.9,168.4 148.4,170.8 145.6,172.6 140.7,177.0 134.8,182.7 133.5,184.5 132.2,185.5 131.1,185.9 129.8,186.2 122.9,186.8 105.0,161.5 126.8,144.9 102.0,132.2 102.7,131.8 104.8,130.0 118.7,110.2 119.0,108.1 119.6,104.9 120.2,102.4 120.6,101.2 121.6,99.2 122.3,98.2 123.7,96.7 124.7,96.0 133.0,93.5 134.2,93.2 156.3,88.9 177.0,85.6 188.5,84.2 190.4,83.7 197.5,81.5 198.6,81.1 199.6,80.5 201.0,79.6 202.1,79.1 203.9,78.7 205.3,78.5 209.0,78.7 211.1,78.9 214.6,79.4 217.7,80.1 220.1,80.8 224.0,83.0 225.9,83.5 226.6,83.6 230.3,83.5 246.6,80.9 247.9,80.6 254.0,78.2 259.9,74.8 260.7,74.1 261.7,72.7 262.3,72.5 268.1,72.3 269.4,72.5 277.5,75.0 278.7,75.4 280.4,76.8 282.4,78.7 283.3,79.3 284.0,79.4 285.4,79.2 309.1,72.1 319.2,67.6 320.8,66.8 321.7,66.2 323.5,64.9 335.6,60.8 357.2,61.7 357.9,61.8 368.9,68.6 369.7,69.4 370.0,70.5 370.0,72.1 369.5,73.2 365.2,77.4 363.7,78.2 " />
    <polygon id="East Timor" points="45.3,158.4 33.7,190.0 0.0,176.0 2.3,175.3 10.2,172.3 11.9,171.7 12.8,171.0 14.1,169.2 15.3,167.3 27.7,162.6 41.6,158.7 42.3,158.5 43.0,158.5 45.3,158.4 " />
  </g>
</svg>