<?xml version="1.0" encoding="UTF-8" standalone="yes"?>
<!DOCTYPE svg PUBLIC "-//W3C//DTD SVG 1.0//EN" "http://www.w3.org/TR/2001/REC-SVG-20010904/DTD/svg10.dtd">
<svg height="250" width="370" xmlns="http://www.w3.org/2000/svg" xmlns:svg="http://www.w3.org/2000/svg" xmlns:xlink="http://www.w3.org/1999/xlink">


<g id="background">
<rect id="" width="370" height="250" fill="#222222"/>
</g>
  <g id="634" style="stroke-miterlimit: 3; fill: #F1F1F1; stroke: #000000; stroke-opacity: 1; stroke-width: 0.05; stroke-linejoin: bevel; stroke-linecap: square">
    <polygon id="Qatar" points="237.8,120.5 236.7,128.8 236.5,131.9 236.4,132.9 236.7,133.7 237.1,134.4 238.6,135.2 241.5,135.9 244.7,135.7 246.6,135.4 247.8,135.4 248.6,135.8 250.1,136.7 251.4,137.6 251.7,138.4 251.7,139.2 251.4,144.1 252.9,147.0 253.1,147.8 253.2,152.6 252.6,177.8 252.5,178.9 246.4,192.1 246.1,192.7 245.0,194.0 240.0,199.8 236.8,202.3 236.1,202.7 235.1,203.9 234.6,204.7 231.2,213.8 230.9,214.7 231.1,217.8 225.2,233.3 224.7,233.9 214.8,244.3 213.5,245.3 210.2,247.6 209.5,247.8 208.7,247.4 208.4,246.7 208.2,243.9 208.8,243.4 209.7,243.2 210.4,242.7 211.5,238.1 211.1,237.5 208.2,234.9 199.2,234.2 191.3,236.6 190.4,236.8 189.7,238.4 190.0,239.2 190.5,239.9 189.7,241.0 187.9,242.6 185.5,244.8 184.2,245.7 174.2,250.0 153.2,246.9 152.0,246.6 136.2,229.6 135.5,228.5 130.4,219.7 131.6,219.0 132.2,218.5 134.0,216.3 134.7,215.2 135.4,213.6 135.7,212.8 135.8,211.7 134.5,200.8 133.3,194.0 126.8,171.6 125.9,169.3 120.5,160.3 120.3,158.8 119.3,151.4 118.6,140.8 118.5,138.9 118.0,113.0 118.0,103.7 118.3,102.8 118.7,102.1 119.7,100.8 122.2,98.7 123.1,98.5 124.0,98.9 126.7,103.8 128.0,106.9 128.7,108.3 129.3,108.9 130.3,109.1 131.3,108.9 132.0,108.5 132.5,107.9 132.2,104.1 130.7,92.1 129.8,87.7 142.3,88.4 148.7,87.3 149.9,86.2 153.0,80.2 152.2,79.9 149.1,81.3 144.8,82.7 143.9,82.9 143.2,82.4 140.0,77.8 139.6,77.2 139.3,76.4 139.3,69.1 139.5,68.1 140.3,66.6 140.9,66.2 141.0,60.4 141.3,58.5 141.9,57.9 144.8,54.2 145.8,54.1 147.2,55.0 148.3,56.2 148.7,56.9 148.9,58.7 149.4,59.4 150.4,59.2 151.0,58.7 152.9,54.9 153.0,53.9 152.5,52.2 152.1,51.6 150.9,51.6 150.0,51.4 149.3,50.9 148.6,49.4 148.7,46.5 149.0,45.7 156.6,29.5 162.0,18.3 162.9,16.8 163.5,16.3 183.7,4.7 193.7,0.4 194.6,0.1 195.6,0.0 196.6,0.1 204.5,3.8 205.9,4.6 208.8,6.3 210.2,7.3 210.6,8.0 210.9,8.7 211.0,10.7 210.6,12.6 210.6,16.7 210.6,17.6 211.1,18.3 217.8,29.2 219.0,30.3 221.0,31.7 231.7,31.4 232.8,31.3 234.8,31.8 235.8,32.1 237.4,32.8 245.1,37.8 245.7,38.4 246.3,39.9 249.6,58.3 249.8,60.1 249.6,63.2 248.8,71.9 242.2,82.8 241.1,83.9 239.2,84.3 236.2,84.7 235.2,84.9 233.8,85.7 232.9,87.9 232.6,88.8 233.7,94.4 231.5,97.8 231.0,98.5 230.7,99.3 230.8,100.3 231.4,101.8 233.3,105.4 234.2,106.6 235.8,107.5 236.2,108.2 236.6,108.8 237.9,111.8 238.4,113.5 238.5,114.5 237.8,120.5 " />
  </g>
</svg>