<?xml version="1.0" encoding="UTF-8" standalone="yes"?>
<!DOCTYPE svg PUBLIC "-//W3C//DTD SVG 1.0//EN" "http://www.w3.org/TR/2001/REC-SVG-20010904/DTD/svg10.dtd">
<svg height="250" width="370" xmlns="http://www.w3.org/2000/svg" xmlns:svg="http://www.w3.org/2000/svg" xmlns:xlink="http://www.w3.org/1999/xlink">


<g id="background">
<rect id="" width="370" height="250" fill="#222222"/>
</g>
  <g id="64" style="stroke-miterlimit: 3; fill: #F1F1F1; stroke: #000000; stroke-opacity: 1; stroke-width: 0.05; stroke-linejoin: bevel; stroke-linecap: square">
    <polygon id="Bhutan" points="188.6,64.4 192.6,63.7 194.3,63.5 195.9,63.5 197.2,63.8 198.5,64.1 199.1,64.2 205.5,64.1 207.0,64.0 208.5,63.8 209.2,63.6 220.5,65.2 229.7,67.0 232.1,66.8 233.7,66.7 237.4,66.9 239.1,67.5 242.0,68.7 243.8,70.2 246.1,72.8 247.0,73.5 248.5,74.5 249.1,74.8 250.3,75.1 256.9,75.6 259.3,75.5 260.1,75.3 261.2,74.7 262.4,73.5 263.0,72.6 263.6,71.6 265.5,69.5 270.4,64.7 272.1,63.7 280.5,63.4 283.2,65.4 286.6,67.7 293.5,71.2 296.8,72.6 300.0,73.4 301.4,73.6 302.4,73.5 304.6,73.3 314.1,75.7 317.0,76.7 318.1,77.2 319.7,78.0 320.7,78.7 321.5,79.5 322.1,80.7 322.2,82.2 321.8,83.3 321.1,84.2 320.3,85.0 319.5,86.5 319.3,87.0 319.1,88.3 319.2,90.4 319.5,96.8 319.7,98.2 319.8,100.4 319.8,101.1 319.5,102.9 319.1,104.0 318.6,105.1 317.3,106.2 316.4,107.0 314.7,107.9 313.8,108.6 312.9,110.0 312.8,111.3 313.1,113.6 313.6,115.7 315.2,120.6 316.8,123.3 321.4,128.6 332.1,134.8 341.2,134.3 351.9,132.8 353.0,132.2 354.1,131.5 355.9,130.0 356.4,129.8 357.2,129.7 357.8,130.0 365.9,141.8 367.1,143.9 369.8,149.6 370.0,150.3 369.9,150.9 362.4,161.4 359.0,163.8 358.4,170.8 358.4,171.5 358.5,172.3 359.0,173.4 360.2,174.8 361.5,175.9 363.1,176.7 364.5,177.7 365.8,178.8 366.5,179.8 367.2,181.6 368.4,184.6 369.6,188.5 369.9,189.9 369.8,190.5 369.7,191.1 368.7,193.8 367.8,195.3 367.1,196.1 366.3,196.7 365.0,197.5 363.8,198.0 361.6,198.5 359.9,198.7 357.0,198.6 356.4,198.5 355.3,198.0 340.1,197.3 339.3,197.4 338.6,197.6 329.7,201.6 328.2,202.7 326.4,204.1 325.7,204.3 307.6,204.0 307.0,203.8 306.0,203.2 304.2,200.0 303.2,197.6 302.5,196.7 301.5,196.1 300.8,196.0 294.0,196.0 293.4,196.3 292.5,197.1 291.4,199.0 290.6,201.2 289.8,202.7 289.1,203.5 288.2,204.2 286.0,205.5 284.1,206.2 281.9,206.7 280.3,206.7 279.0,206.6 278.3,206.5 276.9,205.5 275.6,204.3 273.8,203.8 271.7,203.5 260.5,203.3 252.8,205.6 243.6,206.2 242.6,206.0 240.4,206.0 236.6,206.0 220.0,206.8 218.4,206.9 215.3,207.4 213.7,207.4 212.4,207.2 207.9,206.3 199.9,204.0 198.8,203.5 194.4,201.6 188.6,198.7 188.0,198.3 186.2,196.8 183.8,194.4 182.9,193.6 182.3,193.4 180.4,192.9 179.7,193.0 178.0,193.2 176.5,193.5 161.2,198.7 158.9,200.6 157.8,201.9 157.3,202.9 157.2,204.2 157.3,206.3 157.2,206.9 155.5,208.4 154.3,209.0 153.0,209.5 150.9,210.0 146.3,211.0 121.3,214.3 115.9,214.5 114.5,214.6 112.8,214.9 111.2,215.0 98.0,213.7 96.8,213.3 95.7,212.8 95.4,211.8 98.1,209.6 98.3,209.0 98.1,208.3 97.3,207.5 92.9,205.5 91.2,204.8 90.1,204.4 88.4,203.8 86.0,203.0 84.4,203.1 81.0,204.2 80.3,204.4 78.8,204.4 67.7,197.8 67.0,197.7 60.6,198.6 60.0,198.9 59.1,199.6 57.9,200.9 56.2,201.7 51.6,202.7 49.3,202.8 43.7,202.3 41.2,201.7 40.0,201.4 39.4,201.1 38.4,200.5 38.1,200.0 37.7,198.7 37.4,197.2 37.2,196.1 36.9,195.4 36.3,194.3 32.1,191.3 31.1,190.6 21.5,185.7 15.6,185.0 13.0,175.6 12.9,174.2 12.6,172.8 12.3,172.2 11.5,171.3 8.2,169.0 4.7,166.8 4.2,166.6 0.1,166.0 1.1,162.0 5.1,155.2 6.0,154.5 7.1,153.9 7.7,153.6 9.1,153.2 10.8,153.0 14.7,152.1 15.3,151.9 16.4,151.3 17.3,150.5 17.8,149.5 18.2,147.7 18.2,147.1 18.9,144.3 20.2,141.8 21.4,139.9 22.3,135.8 22.7,134.1 23.3,131.8 24.1,130.2 25.6,128.6 27.9,126.7 28.5,126.4 29.8,125.9 32.7,125.1 34.6,124.3 36.8,123.1 38.8,121.8 41.1,119.9 41.7,119.0 41.4,113.8 45.3,108.5 45.9,107.6 46.8,106.2 47.3,105.2 49.3,101.1 51.2,97.0 51.4,96.4 52.1,94.9 53.2,93.6 54.1,92.8 56.9,91.3 66.9,86.4 69.9,81.6 71.1,79.7 72.3,77.8 76.8,71.4 77.5,70.4 78.7,68.6 80.9,66.0 91.8,56.9 95.9,54.9 96.5,54.7 103.1,53.3 103.9,53.2 106.3,53.1 107.0,53.2 109.4,53.0 113.4,51.6 114.5,51.0 119.3,44.6 122.2,42.5 136.9,36.8 139.2,36.5 139.9,36.6 156.9,39.3 162.1,40.4 164.7,41.0 167.9,41.8 169.8,42.3 171.6,42.9 173.3,43.6 174.7,43.8 176.2,43.8 177.6,44.0 179.3,44.7 180.6,45.8 180.9,46.4 181.1,48.6 180.8,50.4 180.6,51.0 179.5,53.0 178.5,54.4 177.6,55.8 176.5,57.7 175.8,60.0 176.0,61.4 176.3,62.0 178.1,63.5 179.4,63.6 188.6,64.4 " />
  </g>
</svg>