<?xml version="1.0" encoding="UTF-8" standalone="yes"?>
<!DOCTYPE svg PUBLIC "-//W3C//DTD SVG 1.0//EN" "http://www.w3.org/TR/2001/REC-SVG-20010904/DTD/svg10.dtd">
<svg height="250" width="370" xmlns="http://www.w3.org/2000/svg" xmlns:svg="http://www.w3.org/2000/svg" xmlns:xlink="http://www.w3.org/1999/xlink">


<g id="background">
<rect id="" width="370" height="250" fill="#222222"/>
</g>
  <g id="642" style="stroke-miterlimit: 3; fill: #F1F1F1; stroke: #000000; stroke-opacity: 1; stroke-width: 0.05; stroke-linejoin: bevel; stroke-linecap: square">
    <polygon id="Romania" points="18.3,116.6 18.1,116.0 19.4,114.1 20.5,113.3 21.0,113.1 22.0,112.7 23.0,112.6 23.9,112.7 28.6,113.5 30.5,113.9 31.2,114.1 32.2,113.8 36.0,111.9 36.1,110.7 36.3,109.3 36.6,108.5 37.2,107.7 40.4,105.4 40.6,102.6 41.1,100.4 41.8,99.3 46.4,96.7 46.9,96.6 47.4,96.6 48.3,96.6 49.6,95.5 49.9,95.0 48.8,94.4 48.3,94.1 48.4,93.5 49.5,91.5 49.9,91.0 50.5,90.5 53.2,88.8 55.4,85.7 56.3,84.4 56.3,83.9 54.8,83.4 57.0,81.1 57.9,80.5 58.6,80.2 59.3,80.0 60.1,79.5 62.3,76.9 62.4,76.2 62.2,75.6 62.1,75.0 63.2,72.7 65.3,70.3 65.9,70.0 66.9,69.7 67.8,69.7 68.6,69.5 68.9,69.0 69.2,67.5 69.2,66.7 68.8,65.6 68.6,64.7 69.0,64.0 69.6,63.4 73.0,61.5 74.6,61.2 75.3,61.0 75.8,60.5 75.9,59.6 77.2,57.6 79.0,55.8 80.9,54.9 85.9,53.0 87.0,52.9 87.6,53.0 88.2,53.2 89.9,54.0 91.8,54.1 92.4,54.0 93.3,53.9 94.1,53.7 98.8,51.3 99.1,50.8 103.5,46.7 104.9,46.5 109.4,45.2 111.0,44.5 111.6,43.8 112.0,42.8 112.2,42.1 112.5,41.4 113.5,40.8 114.3,40.6 117.8,41.3 118.6,41.8 119.2,43.0 119.8,43.3 121.7,44.1 123.8,44.9 126.6,45.8 127.2,45.8 127.8,45.5 129.9,44.9 140.1,46.2 145.8,46.4 148.0,46.6 150.5,47.3 151.3,48.1 151.9,48.4 156.6,48.7 159.8,47.7 163.2,46.6 163.8,46.5 164.8,46.5 168.9,46.7 169.5,46.9 170.1,47.0 171.0,47.4 173.3,48.7 173.5,49.3 173.3,49.9 174.3,50.8 174.9,51.1 175.5,51.3 177.3,52.0 178.6,52.1 179.1,52.3 179.7,52.9 180.9,54.3 182.1,55.9 182.6,56.2 183.1,56.2 184.5,55.9 185.1,55.8 186.3,55.7 187.5,55.6 188.3,55.4 189.7,54.9 190.6,54.5 191.2,54.2 192.1,53.4 192.7,52.8 193.0,52.1 193.4,51.6 194.9,50.0 195.7,49.4 196.3,49.2 199.1,48.2 199.7,48.1 206.0,47.5 206.9,47.5 208.6,47.4 209.4,47.5 211.7,47.5 216.7,47.5 217.4,47.3 218.4,46.7 219.1,46.4 222.6,45.9 227.1,45.5 229.7,45.6 231.5,45.6 232.2,45.4 232.8,45.1 233.4,44.7 236.3,41.9 238.3,38.5 238.1,38.0 243.8,36.4 245.2,36.4 245.9,36.6 246.4,36.7 247.9,36.2 250.6,34.8 253.3,34.5 257.4,35.1 258.1,35.3 263.2,37.6 265.0,38.8 271.2,45.5 272.8,48.7 273.2,51.0 274.3,53.3 276.0,57.0 276.6,58.2 277.8,59.2 279.1,60.0 282.0,62.0 283.5,65.1 287.6,69.8 289.6,72.0 290.1,72.3 291.6,72.7 292.9,72.9 293.4,73.1 294.1,73.9 295.8,76.2 296.3,78.2 298.8,80.2 301.9,82.4 302.5,82.6 303.8,83.0 304.6,83.2 305.6,83.6 307.0,84.6 307.6,85.2 308.4,87.3 308.8,88.6 309.0,89.9 308.8,90.5 311.1,94.4 312.3,96.1 312.8,96.7 313.4,97.3 313.9,99.3 314.2,106.4 313.9,107.0 311.9,110.5 309.7,116.0 308.8,118.6 308.5,119.5 307.8,120.5 307.6,123.1 307.9,123.9 308.5,124.9 309.0,126.6 310.7,134.3 310.8,136.5 310.6,138.0 310.0,138.4 309.3,138.5 307.0,139.9 311.0,144.2 312.6,145.1 313.3,145.2 315.0,145.7 315.4,146.3 315.4,147.2 315.6,147.8 316.2,148.9 316.7,149.6 317.3,150.1 319.0,151.0 326.8,153.3 331.3,154.2 332.0,154.2 335.1,153.8 335.7,153.5 337.6,151.0 342.3,150.2 352.1,146.1 356.1,145.6 359.7,145.7 363.3,146.6 363.9,146.8 366.0,147.4 366.7,147.7 367.3,148.0 368.6,149.1 369.3,150.0 369.8,151.0 369.9,151.5 370.0,152.3 369.7,154.5 368.4,154.4 368.8,156.0 369.5,158.4 368.8,163.6 367.7,168.7 367.1,169.2 365.2,169.9 361.3,170.4 358.9,170.6 357.4,170.7 356.9,170.7 353.4,170.9 352.0,171.0 346.2,169.8 345.6,169.0 345.3,168.4 345.1,166.3 345.2,165.7 346.1,165.0 346.9,164.7 347.7,164.6 348.0,164.1 345.4,162.7 343.2,162.6 342.6,162.7 339.6,164.2 338.6,164.9 338.1,165.7 338.2,167.5 339.2,168.1 341.4,169.5 340.7,171.6 339.9,172.5 338.5,172.6 335.6,173.9 335.0,174.7 334.9,175.8 335.1,176.7 335.7,177.0 336.3,176.9 337.4,176.8 338.0,176.5 339.8,175.2 339.8,174.7 340.8,174.6 341.8,174.7 343.1,175.1 342.5,176.8 341.8,177.4 341.3,177.3 341.9,176.3 342.6,175.9 342.8,175.4 342.0,175.0 336.5,177.9 335.6,177.4 334.4,177.4 333.9,178.0 334.0,181.7 335.8,181.5 340.7,177.9 340.1,179.0 338.9,180.8 338.5,181.4 337.5,182.6 336.9,183.2 335.9,183.9 335.3,184.3 334.0,185.2 330.0,188.8 329.2,189.9 329.0,190.4 329.0,191.5 329.1,196.0 330.2,203.1 329.7,203.9 328.4,206.8 327.6,208.8 327.3,210.0 327.0,211.4 327.2,212.1 323.3,212.2 320.1,212.0 314.4,211.4 313.5,211.2 311.4,210.6 309.5,210.0 306.1,208.8 305.4,208.5 304.3,207.9 303.9,207.2 302.8,204.6 302.6,204.1 302.5,203.2 302.1,202.7 301.4,202.0 300.9,202.0 299.1,202.8 298.5,203.0 297.7,203.4 297.2,203.5 296.6,203.6 294.3,203.8 293.7,203.7 293.2,203.5 292.4,202.4 291.9,201.3 291.4,200.8 290.9,200.6 290.2,200.6 289.4,201.2 283.6,201.4 281.3,201.3 280.7,201.3 276.7,199.0 275.9,198.1 275.7,197.0 274.8,197.2 274.3,197.4 273.7,197.4 272.8,197.4 271.5,197.0 269.3,196.6 266.4,196.4 261.5,196.8 260.6,197.0 258.7,197.6 256.9,198.4 252.0,199.3 244.4,200.2 242.9,200.5 241.9,200.5 241.0,200.4 237.5,200.9 231.3,202.7 230.7,203.0 230.0,203.4 229.0,204.1 223.6,208.0 221.3,209.9 220.8,210.9 217.2,213.4 216.7,213.7 215.4,214.1 213.1,214.3 210.3,215.4 207.2,216.2 204.5,216.3 203.6,216.7 202.7,216.9 201.9,217.0 201.3,217.0 200.6,216.9 200.0,216.7 198.7,215.8 197.1,215.0 196.6,214.8 195.1,214.4 187.2,213.6 181.6,213.5 178.2,213.4 175.4,213.4 174.7,213.4 174.0,213.2 171.1,212.0 170.5,211.8 169.1,211.6 167.8,211.5 166.9,211.5 165.0,212.2 164.2,212.5 162.9,213.2 161.3,214.0 160.5,214.2 159.6,214.1 158.3,214.0 157.1,214.2 155.8,214.4 154.7,214.5 154.1,214.6 153.1,214.3 151.6,214.0 149.7,213.1 146.5,212.2 138.1,210.5 132.4,210.2 131.8,210.2 130.1,209.7 128.9,209.3 128.0,208.6 125.2,208.0 124.5,207.8 118.8,208.0 118.3,208.1 117.7,208.2 116.5,208.5 115.5,208.8 114.1,209.3 113.5,209.6 110.5,209.9 106.4,209.4 103.5,208.6 102.8,208.3 102.1,207.9 101.7,207.3 101.4,206.5 101.5,205.9 103.0,202.9 104.0,202.2 104.5,202.0 106.1,201.7 107.0,201.7 107.5,201.6 109.0,200.4 109.4,199.8 109.4,199.2 108.5,198.5 107.8,198.2 105.8,198.1 104.6,197.9 104.0,197.7 95.8,193.8 95.2,193.3 95.6,191.8 95.4,191.2 94.8,190.9 94.2,190.7 93.6,190.6 92.6,190.4 91.6,190.3 91.0,190.2 90.0,189.5 89.5,188.9 86.6,184.5 86.3,183.8 86.4,183.2 91.3,180.7 92.3,180.4 93.2,180.6 93.7,180.8 94.6,181.3 95.4,181.6 95.9,181.6 97.3,181.3 98.0,180.9 98.5,180.3 96.6,178.5 94.8,177.8 93.7,177.8 92.8,177.8 92.1,177.7 90.9,177.1 89.7,176.3 88.8,175.6 87.9,174.8 87.2,174.2 86.4,174.0 85.5,174.1 85.0,174.2 81.0,175.9 80.3,176.8 79.1,178.4 78.5,179.1 75.7,182.7 75.0,183.3 74.1,183.3 73.4,183.2 72.6,182.9 71.9,182.6 69.9,180.5 69.7,180.0 69.6,179.0 68.5,177.4 67.9,177.1 64.8,176.6 59.9,176.1 58.1,176.3 54.8,176.3 54.2,176.2 53.5,175.7 53.2,175.1 53.3,174.2 52.8,172.8 52.2,172.1 51.3,171.8 50.4,171.6 49.7,171.6 47.7,171.6 46.9,171.6 45.0,171.5 43.3,169.8 43.4,168.2 44.8,167.8 45.4,167.7 46.5,167.7 47.2,167.8 47.9,167.7 48.8,167.6 50.6,167.2 51.1,166.4 50.7,165.7 49.8,165.0 47.7,164.4 47.1,164.2 46.4,164.4 45.1,164.0 43.8,163.0 43.5,162.2 44.1,161.9 46.5,160.7 49.2,158.0 49.3,157.4 48.0,155.6 45.4,154.4 42.9,154.3 39.9,153.8 31.0,150.4 28.5,149.2 21.5,144.0 21.0,142.9 19.9,139.2 19.9,138.5 20.4,137.8 21.0,137.3 21.4,133.6 21.4,133.1 20.7,132.5 20.1,132.5 19.5,133.3 18.8,133.7 18.1,133.7 15.8,131.6 15.6,130.9 15.6,130.2 13.0,127.7 12.5,127.3 11.8,127.1 11.2,127.0 10.4,127.0 9.6,126.8 4.6,124.4 3.9,123.8 3.6,123.1 3.6,122.6 2.4,121.0 1.8,120.5 0.0,119.0 0.1,118.4 0.6,117.8 3.1,117.3 8.9,116.4 10.8,116.7 11.9,117.0 12.6,117.4 14.1,118.4 16.4,117.9 17.1,117.6 18.1,117.0 " />
  </g>
</svg>