<?xml version="1.0" encoding="UTF-8" standalone="yes"?>
<!DOCTYPE svg PUBLIC "-//W3C//DTD SVG 1.0//EN" "http://www.w3.org/TR/2001/REC-SVG-20010904/DTD/svg10.dtd">
<svg height="250" width="370" xmlns="http://www.w3.org/2000/svg" xmlns:svg="http://www.w3.org/2000/svg" xmlns:xlink="http://www.w3.org/1999/xlink">


<g id="background">
<rect id="" width="370" height="250" fill="#222222"/>
</g>
  <g id="643" style="stroke-miterlimit: 3; fill: #F1F1F1; stroke: #000000; stroke-opacity: 1; stroke-width: 0.05; stroke-linejoin: bevel; stroke-linecap: square">
    <polygon id="Russia" points="143.9,105.3 143.3,105.3 142.8,105.4 143.3,105.2 143.9,105.2 " />
    <polygon id="Russia" points="147.5,105.4 148.1,105.4 148.6,105.4 147.9,105.5 147.4,105.5 146.9,105.4 147.4,105.4 " />
    <polygon id="Russia" points="143.1,105.5 " />
    <polygon id="Russia" points="146.8,105.5 " />
    <polygon id="Russia" points="142.4,105.5 143.0,105.6 142.4,105.7 141.9,105.6 141.4,105.6 142.0,105.5 " />
    <polygon id="Russia" points="143.7,105.8 143.1,105.8 143.6,105.7 " />
    <polygon id="Russia" points="142.1,105.8 141.4,105.9 140.9,105.9 140.4,105.9 141.0,105.8 141.6,105.7 " />
    <polygon id="Russia" points="138.8,105.7 " />
    <polygon id="Russia" points="145.3,105.8 144.8,105.8 145.3,105.8 " />
    <polygon id="Russia" points="181.6,105.9 182.2,106.0 183.1,106.3 183.7,106.4 183.0,106.4 182.5,106.9 181.8,106.9 181.2,106.9 180.7,107.0 180.1,107.0 179.4,107.1 178.9,107.1 178.3,107.0 177.7,106.9 178.2,106.9 177.7,106.8 178.3,106.8 178.8,106.8 178.3,106.8 177.8,106.8 177.1,106.8 177.6,106.7 178.2,106.7 177.6,106.7 178.2,106.6 178.8,106.3 178.2,106.3 178.7,106.2 179.3,106.0 179.8,106.0 180.4,106.0 180.9,105.9 181.4,105.8 " />
    <polygon id="Russia" points="142.2,106.0 141.6,105.9 142.3,105.9 " />
    <polygon id="Russia" points="176.8,106.0 176.2,106.0 175.6,106.0 176.4,105.9 176.9,105.9 " />
    <polygon id="Russia" points="144.4,105.9 143.7,105.9 144.3,105.9 " />
    <polygon id="Russia" points="150.3,106.1 149.7,106.3 149.1,106.4 148.5,106.4 148.0,106.4 147.3,106.3 147.8,106.1 148.4,106.1 148.9,106.1 149.5,105.9 150.0,105.9 " />
    <polygon id="Russia" points="135.0,106.0 " />
    <polygon id="Russia" points="143.1,106.0 " />
    <polygon id="Russia" points="145.7,106.2 145.2,106.2 145.8,106.0 146.4,106.0 145.8,106.2 " />
    <polygon id="Russia" points="139.3,106.0 139.8,106.0 140.4,106.1 141.0,106.1 141.5,106.2 142.1,106.3 141.6,106.4 141.0,106.3 140.4,106.2 139.9,106.1 139.3,106.1 " />
    <polygon id="Russia" points="140.8,106.0 141.4,106.0 141.9,106.0 142.4,106.1 142.9,106.2 142.4,106.2 141.8,106.2 141.2,106.0 140.7,106.0 " />
    <polygon id="Russia" points="143.4,106.0 " />
    <polygon id="Russia" points="143.2,106.1 142.5,106.1 143.0,106.0 " />
    <polygon id="Russia" points="165.2,106.1 164.6,106.3 165.1,106.1 " />
    <polygon id="Russia" points="134.5,106.2 135.1,106.2 135.6,106.3 136.1,106.4 135.6,106.5 135.0,106.6 134.5,106.6 134.0,106.7 133.3,106.7 132.7,107.0 132.2,107.0 131.5,106.9 131.0,106.8 131.5,106.7 132.0,106.8 132.5,106.8 132.0,106.7 132.5,106.7 131.9,106.6 132.5,106.6 133.1,106.6 133.6,106.5 134.1,106.2 134.7,106.2 " />
    <polygon id="Russia" points="143.6,106.3 143.1,106.4 142.5,106.3 143.1,106.2 143.7,106.3 " />
    <polygon id="Russia" points="140.0,106.2 140.5,106.3 139.9,106.3 139.4,106.4 138.8,106.3 139.3,106.2 139.8,106.2 " />
    <polygon id="Russia" points="146.9,106.3 146.4,106.5 145.8,106.7 145.2,106.6 144.6,106.7 144.1,106.6 144.7,106.2 145.6,106.3 146.1,106.2 146.6,106.2 " />
    <polygon id="Russia" points="132.2,106.3 132.9,106.3 132.4,106.4 131.8,106.4 131.3,106.5 130.8,106.6 130.3,106.7 129.8,106.6 129.2,106.5 129.8,106.4 130.6,106.4 131.1,106.4 131.8,106.2 " />
    <polygon id="Russia" points="141.4,106.4 140.8,106.5 140.2,106.5 140.9,106.3 " />
    <polygon id="Russia" points="137.9,106.6 " />
    <polygon id="Russia" points="143.5,106.5 " />
    <polygon id="Russia" points="142.6,106.5 142.1,106.6 142.6,106.5 " />
    <polygon id="Russia" points="138.8,106.7 138.3,106.6 138.8,106.5 " />
    <polygon id="Russia" points="139.5,106.5 " />
    <polygon id="Russia" points="142.6,106.6 143.1,106.6 143.8,106.7 143.3,106.8 142.7,106.8 142.2,107.0 141.7,106.7 142.2,106.6 " />
    <polygon id="Russia" points="139.2,106.7 " />
    <polygon id="Russia" points="139.9,106.7 " />
    <polygon id="Russia" points="140.9,106.7 140.3,106.7 140.9,106.7 " />
    <polygon id="Russia" points="138.1,106.8 137.6,106.9 137.1,106.9 137.6,106.7 " />
    <polygon id="Russia" points="141.7,106.8 141.1,107.0 140.6,107.0 141.1,106.8 141.6,106.8 " />
    <polygon id="Russia" points="136.9,106.8 " />
    <polygon id="Russia" points="139.7,106.9 " />
    <polygon id="Russia" points="138.7,106.9 " />
    <polygon id="Russia" points="134.6,107.0 134.1,107.0 134.6,106.9 " />
    <polygon id="Russia" points="144.9,107.0 " />
    <polygon id="Russia" points="183.3,106.9 183.9,107.2 184.4,107.1 184.9,107.1 185.5,107.2 185.5,107.7 184.9,107.8 185.5,108.0 185.0,108.3 184.4,108.3 183.7,108.3 183.1,108.3 182.6,108.2 182.0,108.2 181.4,108.1 180.8,108.1 180.3,108.0 179.7,107.7 179.1,107.6 178.4,107.6 179.2,107.5 179.9,107.3 180.4,107.1 180.9,107.1 181.6,107.0 182.4,107.0 183.0,106.9 " />
    <polygon id="Russia" points="144.1,107.2 143.5,107.1 144.1,107.0 " />
    <polygon id="Russia" points="135.6,107.1 135.1,107.2 134.6,107.2 135.1,107.1 135.6,107.1 " />
    <polygon id="Russia" points="134.0,107.0 " />
    <polygon id="Russia" points="176.7,107.1 177.2,107.1 177.8,107.1 178.4,107.1 179.1,107.2 178.6,107.4 178.1,107.5 177.5,107.5 176.8,107.3 " />
    <polygon id="Russia" points="133.8,107.1 " />
    <polygon id="Russia" points="179.9,107.1 " />
    <polygon id="Russia" points="143.3,107.2 " />
    <polygon id="Russia" points="177.2,107.5 176.7,107.4 177.3,107.4 " />
    <polygon id="Russia" points="185.8,107.5 " />
    <polygon id="Russia" points="161.4,107.5 162.0,107.5 162.6,107.6 162.0,107.6 161.5,107.6 " />
    <polygon id="Russia" points="177.0,107.7 176.3,107.6 176.9,107.6 " />
    <polygon id="Russia" points="185.7,107.7 " />
    <polygon id="Russia" points="178.0,107.7 177.5,107.7 178.0,107.7 " />
    <polygon id="Russia" points="178.4,107.8 " />
    <polygon id="Russia" points="188.8,107.8 188.3,108.2 188.8,108.1 189.3,108.0 189.9,108.0 190.4,108.2 190.9,108.3 190.8,108.8 190.2,108.8 189.6,108.9 189.1,108.9 188.5,109.0 188.0,109.0 187.3,109.0 186.8,109.0 186.1,109.2 185.6,109.2 185.9,108.7 186.7,108.4 187.3,108.2 187.8,107.8 188.4,107.7 " />
    <polygon id="Russia" points="178.3,108.1 177.8,108.0 178.3,108.1 " />
    <polygon id="Russia" points="192.7,108.9 192.2,109.0 192.7,108.9 " />
    <polygon id="Russia" points="179.4,109.0 " />
    <polygon id="Russia" points="193.6,109.0 193.0,109.1 192.5,109.0 193.1,109.0 " />
    <polygon id="Russia" points="190.2,109.5 190.7,109.5 191.2,109.6 191.8,109.6 191.2,110.0 190.7,110.0 190.1,110.1 190.6,110.1 191.3,110.1 191.8,110.1 192.4,110.2 193.0,110.2 193.5,110.3 192.9,110.5 192.4,110.6 193.0,110.7 193.5,110.7 194.2,110.5 194.8,110.5 195.4,110.5 196.1,110.5 196.6,110.4 197.2,110.5 197.8,110.6 198.3,110.7 198.9,110.9 199.4,111.1 199.9,111.3 199.3,111.5 198.8,111.4 199.3,111.6 199.8,111.7 199.2,112.2 198.4,112.4 197.9,112.6 197.3,112.6 196.8,112.8 196.3,112.9 195.7,113.0 195.2,113.2 194.6,113.4 194.1,113.6 193.3,113.7 192.8,113.9 192.2,114.0 191.6,114.4 191.1,114.5 191.6,114.5 192.2,114.4 192.7,114.2 193.2,114.1 193.8,114.1 194.3,114.1 194.9,114.0 195.4,113.9 195.9,113.8 196.5,113.7 197.0,113.6 196.5,113.6 195.9,113.6 196.4,113.3 197.0,113.4 197.5,113.2 198.1,113.6 198.7,113.6 199.3,113.4 199.4,113.9 199.4,114.4 200.0,114.7 199.4,114.6 199.7,114.1 200.2,114.0 199.7,113.9 200.2,113.7 200.7,113.7 201.3,113.6 202.0,113.6 202.5,113.6 203.3,113.7 203.8,113.7 204.7,113.7 205.3,113.8 204.8,113.8 205.3,114.2 205.8,114.2 206.3,114.4 206.9,114.4 206.4,114.4 206.9,114.3 207.4,114.4 208.2,114.3 208.7,114.4 209.3,114.5 209.8,114.6 210.6,114.6 211.1,114.7 211.6,114.8 212.1,115.0 212.6,115.1 213.1,115.2 213.6,115.5 213.2,114.9 213.8,115.0 214.3,115.0 214.8,115.2 215.5,115.6 216.1,115.6 215.6,115.6 216.2,116.1 216.8,116.3 217.3,116.5 217.8,116.6 218.4,116.3 218.9,115.7 219.4,115.4 220.0,115.8 220.6,116.0 221.2,116.0 221.8,115.8 222.4,115.7 222.9,115.7 223.4,115.8 223.9,115.9 224.5,116.1 225.0,116.1 225.5,115.7 226.1,115.9 226.6,115.9 226.3,115.4 226.8,115.2 226.2,115.2 226.8,114.8 227.3,114.8 227.9,114.8 228.5,114.5 229.0,114.6 229.7,114.6 230.2,114.6 230.8,114.7 231.3,114.7 232.1,114.7 232.9,114.8 233.4,114.9 233.9,115.0 233.3,115.0 232.4,115.0 231.9,114.9 231.4,115.1 232.1,115.1 232.6,115.1 233.4,115.0 234.0,115.0 233.5,115.3 233.0,115.1 232.4,115.5 233.1,115.6 233.8,115.2 234.3,115.0 235.0,115.0 235.6,115.0 236.2,115.1 236.7,115.2 237.2,115.4 236.6,115.5 236.0,115.5 236.6,115.7 237.1,115.7 237.7,115.8 237.2,116.1 237.7,116.0 238.2,116.0 238.8,116.1 239.4,116.4 240.0,116.5 240.6,116.5 241.3,116.5 242.0,116.4 242.7,116.3 243.3,116.3 243.9,116.3 244.7,116.3 245.3,116.3 245.9,116.4 246.4,116.5 246.9,116.6 247.5,117.0 247.1,117.5 247.7,117.7 248.4,117.8 248.5,118.3 248.6,118.8 249.1,118.5 249.0,118.0 249.7,117.8 250.2,117.8 250.8,117.7 251.3,117.7 251.8,117.7 252.4,117.8 252.9,117.8 253.4,117.8 254.0,117.9 254.5,117.9 255.0,117.8 255.7,117.7 256.0,118.2 256.6,118.2 257.1,118.3 257.8,118.6 258.3,118.7 258.7,118.1 258.1,117.8 258.3,117.3 258.9,117.3 259.4,117.4 260.0,117.4 260.6,117.5 261.2,117.6 261.8,117.6 262.3,117.5 262.9,117.5 263.6,117.5 264.1,117.6 264.7,117.7 265.2,117.8 265.8,117.9 266.3,117.9 266.8,118.0 267.4,118.2 267.9,118.4 268.0,119.5 268.0,120.5 268.0,121.5 268.0,122.1 267.5,122.7 266.9,122.8 266.3,122.9 265.7,122.8 265.2,122.6 264.7,122.5 265.2,122.7 264.5,122.7 264.0,122.6 263.4,122.8 262.9,122.8 262.4,122.9 262.9,122.8 263.5,122.8 264.0,122.6 264.6,122.9 265.2,122.8 265.7,123.3 266.3,123.2 266.7,123.9 266.2,124.0 266.7,124.2 267.2,124.4 267.6,124.9 267.1,125.1 266.4,125.2 265.7,125.0 265.2,124.9 264.6,125.1 264.1,125.3 263.5,125.4 262.8,125.6 262.3,125.8 261.7,126.0 261.2,126.1 260.7,126.2 260.2,126.4 259.6,126.8 259.1,127.0 258.6,127.2 258.1,127.7 257.5,127.4 256.9,127.0 256.4,127.1 255.9,127.1 255.3,127.2 254.7,127.3 254.1,127.7 254.0,127.2 253.4,127.4 252.8,127.6 252.3,127.7 251.8,127.7 251.2,127.6 250.7,128.1 250.7,128.6 250.2,128.9 249.7,129.3 249.5,129.8 250.0,129.8 250.5,129.9 250.3,130.4 250.3,130.9 250.9,131.4 250.3,131.7 249.8,131.6 249.2,132.2 249.4,132.7 249.3,133.2 248.8,133.3 248.3,133.3 247.7,133.6 247.3,134.2 247.5,134.7 246.9,134.6 246.3,134.9 246.0,135.5 245.3,136.3 244.7,136.6 244.2,136.9 243.8,136.4 243.8,135.8 243.5,135.2 243.4,134.7 243.3,134.2 243.1,133.7 243.0,133.0 242.9,132.5 243.0,132.0 243.2,131.4 243.5,130.9 244.0,130.6 244.3,130.1 244.8,129.9 245.3,129.8 245.9,129.6 246.5,129.3 247.1,128.9 247.8,128.4 248.3,128.1 248.8,127.7 249.3,127.5 249.9,127.1 250.4,126.9 250.9,126.8 251.4,126.4 251.6,125.9 251.6,125.4 252.2,125.1 252.7,125.2 253.2,125.2 252.7,125.1 252.2,124.9 251.6,124.9 250.9,125.0 250.7,125.6 250.6,126.1 250.1,126.0 249.5,126.2 249.0,126.4 248.5,126.7 247.9,126.9 247.3,126.7 247.6,126.1 247.1,125.9 246.5,125.7 246.0,125.8 245.5,125.9 245.0,125.8 244.4,126.0 243.9,126.4 243.3,126.7 242.7,127.1 242.2,127.3 241.7,127.8 242.2,128.2 241.6,128.5 241.1,128.5 240.6,128.5 240.0,128.8 239.5,128.7 238.9,128.8 238.4,128.8 239.0,128.5 239.5,128.5 239.0,128.4 238.4,128.1 237.9,128.2 237.2,128.0 236.7,127.9 236.2,128.0 235.7,128.4 235.0,128.3 234.5,128.4 234.0,128.3 233.4,128.3 232.9,128.5 232.4,128.3 231.8,128.3 231.3,128.3 230.8,128.3 230.3,128.3 229.7,128.4 229.2,128.6 228.7,129.0 228.1,129.2 227.6,129.5 227.0,130.0 226.5,130.3 225.9,130.6 225.4,130.9 224.9,131.4 224.4,131.7 223.8,132.0 223.2,132.2 222.7,132.6 222.1,132.8 222.6,133.3 223.2,133.2 223.7,133.2 223.6,133.8 224.1,133.9 224.7,133.9 224.2,134.2 224.7,134.3 225.2,133.9 225.8,133.6 226.4,133.6 227.0,133.7 227.5,134.2 228.1,134.5 228.1,135.0 228.1,135.5 228.1,136.1 227.8,136.6 227.4,137.1 227.4,137.6 227.3,138.1 227.3,138.6 227.2,139.1 226.9,139.7 226.3,140.1 225.9,140.6 225.4,141.0 225.2,141.5 224.7,142.1 224.2,142.5 223.6,142.9 223.0,143.4 222.5,143.9 222.2,144.4 221.6,144.7 221.1,145.0 220.3,145.3 219.7,145.5 219.2,145.2 218.6,145.1 218.0,145.4 217.4,145.5 217.8,145.0 217.8,144.3 217.8,143.5 218.3,143.0 218.8,142.9 219.5,143.0 220.1,142.5 220.4,142.0 220.6,141.5 220.9,141.0 221.5,140.3 221.4,139.8 220.8,139.7 220.3,139.9 219.8,139.9 219.3,140.3 218.6,140.3 218.1,140.3 217.6,140.2 217.5,139.7 217.3,139.1 216.7,139.0 216.2,138.7 215.7,138.6 215.1,138.4 214.4,138.4 214.1,137.9 213.9,137.4 213.5,136.9 213.2,136.3 213.1,135.8 212.6,135.3 212.1,134.8 211.5,134.7 211.0,134.7 210.5,134.5 210.0,134.3 209.3,134.4 208.6,134.4 208.0,134.5 207.5,134.6 206.9,134.8 206.4,135.1 207.1,135.3 207.1,135.9 206.6,136.2 206.1,136.7 205.8,137.2 205.6,137.7 205.0,138.0 204.5,138.3 203.8,138.4 203.2,138.3 202.7,138.0 202.1,138.0 201.6,138.1 201.1,137.7 200.6,137.7 200.0,137.9 199.5,138.1 199.0,138.4 198.3,138.5 197.8,138.6 197.3,138.7 196.7,138.8 196.2,138.8 195.7,138.7 195.1,138.6 194.6,138.6 194.1,138.4 193.5,138.0 193.0,137.8 192.5,137.6 192.0,137.6 191.5,137.5 190.9,137.5 190.4,137.6 189.8,137.8 189.2,137.7 188.7,137.6 188.2,137.4 188.0,136.8 187.4,136.4 186.8,136.3 186.3,136.2 185.8,136.2 185.1,136.0 184.6,136.0 184.0,136.2 183.7,136.7 183.8,137.3 183.9,137.9 183.3,138.1 182.7,138.1 182.2,138.0 181.7,138.0 181.2,138.1 180.7,137.9 180.2,137.8 179.6,137.4 179.1,137.3 178.6,137.3 178.0,137.1 177.5,137.2 177.0,137.4 176.5,137.5 175.9,137.8 175.4,138.0 174.9,138.4 174.4,138.4 173.8,138.5 173.3,138.8 172.8,138.9 172.3,138.5 171.7,138.3 171.2,138.4 170.7,138.4 170.4,137.9 169.9,137.7 169.3,137.2 168.8,136.9 168.2,137.0 167.7,137.2 167.2,137.1 166.7,137.0 166.1,136.7 165.6,137.0 165.0,136.8 164.6,136.3 164.1,135.7 163.6,135.2 163.1,134.7 162.6,134.3 162.1,134.0 161.5,133.7 161.0,133.7 160.5,133.8 159.9,134.0 159.3,134.3 158.8,134.2 158.3,134.3 158.8,133.8 158.1,133.9 157.6,133.7 157.1,133.4 156.5,133.7 156.0,133.6 156.0,133.0 155.8,132.5 155.2,132.6 154.6,132.4 154.1,132.5 153.5,132.6 152.9,132.9 152.4,133.0 151.9,133.0 151.4,133.1 150.8,133.2 150.3,133.2 149.8,133.4 149.2,133.5 148.7,133.6 148.2,133.7 147.7,133.8 147.2,133.9 146.6,133.9 146.0,133.8 145.9,134.3 146.4,134.7 145.9,134.9 145.4,135.1 145.6,135.6 145.1,135.8 145.6,136.3 146.2,136.5 146.2,137.0 145.6,137.2 145.0,137.2 144.5,137.4 143.9,137.3 143.3,137.1 142.8,136.9 142.3,137.0 141.7,136.8 141.2,136.9 140.7,137.1 140.1,137.3 139.5,137.0 139.0,137.4 138.6,136.8 138.1,136.6 137.5,136.4 137.0,136.4 136.5,136.2 136.0,136.4 135.4,136.2 134.8,136.5 134.2,136.8 133.7,136.9 133.2,137.3 133.2,137.8 132.7,138.1 132.1,137.6 131.6,138.0 131.1,138.6 130.9,139.3 131.4,139.7 131.5,140.2 132.0,140.2 132.5,140.3 133.1,140.9 132.9,141.5 133.5,141.7 133.0,141.9 132.5,142.3 131.9,142.3 131.7,142.9 131.2,143.4 131.5,143.9 131.8,144.4 131.8,145.1 132.2,145.6 132.6,146.1 132.8,146.6 132.2,146.9 131.7,146.9 131.2,146.4 130.5,146.2 129.9,146.0 129.4,145.5 128.9,145.4 128.4,145.5 127.9,145.4 127.4,145.2 126.9,145.0 126.4,144.9 125.8,144.9 125.2,144.8 124.7,144.6 124.2,144.6 123.7,144.5 123.1,144.0 122.5,143.8 121.9,143.4 121.4,143.4 120.9,143.0 121.4,142.8 121.9,142.3 122.4,142.0 121.9,141.6 122.5,141.4 123.0,141.1 122.4,140.9 122.4,140.4 122.9,140.2 123.4,140.2 124.0,139.8 123.8,139.3 124.3,138.7 123.8,138.4 123.2,138.1 122.7,138.0 122.2,138.0 121.5,137.5 121.0,137.6 120.5,137.6 120.0,137.5 119.4,137.4 119.3,136.9 118.8,136.7 118.2,136.5 118.1,135.9 117.6,135.5 117.0,135.6 116.4,135.6 115.9,135.8 115.5,135.3 115.3,134.8 115.8,134.8 116.3,134.7 116.4,134.2 115.9,134.0 115.2,133.6 114.8,133.1 114.7,132.5 114.3,132.0 113.8,131.9 113.3,132.1 112.7,131.8 112.2,131.7 111.8,131.1 111.6,130.6 111.1,130.2 111.4,129.7 111.3,129.2 111.6,128.6 111.8,128.1 112.5,127.9 113.0,127.7 113.6,127.7 113.0,127.5 112.4,127.3 111.9,127.1 112.4,126.7 113.0,126.4 113.5,126.1 114.0,125.8 114.5,125.4 115.1,125.1 115.3,124.5 114.6,124.2 114.0,124.0 114.5,123.5 114.0,123.2 113.5,122.7 113.6,122.1 113.9,121.6 113.4,121.1 112.9,120.6 113.6,120.1 113.4,119.5 112.6,119.3 112.5,118.8 113.0,118.4 113.5,118.0 114.0,117.8 114.6,117.9 115.3,117.7 115.9,117.6 116.4,117.6 117.0,117.7 116.4,117.8 116.9,117.9 117.5,118.0 116.9,118.4 117.5,118.2 118.1,118.1 118.8,118.2 119.3,118.1 119.8,118.2 120.5,118.4 121.0,118.5 121.5,118.7 122.1,118.9 122.6,119.1 123.2,119.2 123.8,119.4 124.4,119.5 124.9,119.7 125.3,120.2 125.2,120.7 124.6,121.1 123.9,121.3 123.4,121.4 122.9,121.4 122.3,121.4 121.7,121.4 121.2,121.2 120.7,121.2 119.9,121.1 119.4,121.1 118.8,120.9 118.3,120.9 117.8,120.8 117.2,120.7 116.6,120.4 116.0,120.3 116.5,120.5 117.0,120.8 117.5,121.0 118.1,121.2 118.7,121.5 118.6,122.1 118.8,122.6 119.1,123.2 119.6,123.2 120.3,123.4 120.8,123.6 121.3,123.8 121.8,123.7 121.9,123.2 121.2,123.2 120.7,122.8 121.4,122.4 122.0,122.6 122.6,122.8 123.3,122.9 123.8,123.0 124.3,123.0 124.3,122.5 123.9,122.0 124.5,121.7 125.0,121.5 125.6,121.4 126.2,121.1 126.7,121.0 127.3,121.1 127.8,121.2 128.3,121.4 128.6,120.9 128.5,120.4 128.0,120.2 128.4,119.7 128.5,119.2 127.9,119.0 128.4,118.9 129.0,118.9 129.5,118.9 130.2,119.0 130.7,119.2 130.1,119.7 129.6,119.7 129.6,120.2 130.3,120.7 130.8,120.6 131.4,120.6 131.9,120.5 132.3,120.0 132.8,119.8 133.3,119.8 134.0,119.5 134.5,119.3 135.0,119.2 135.9,119.0 136.5,118.9 137.0,119.0 137.6,118.6 138.2,118.5 138.9,118.4 138.4,118.5 138.4,119.0 137.9,119.1 138.5,119.2 139.0,119.1 139.5,119.0 140.0,118.9 140.5,118.8 141.0,118.8 141.6,118.9 142.2,118.7 142.8,118.5 143.4,118.4 144.0,118.6 144.5,119.1 145.1,118.7 145.6,118.5 145.0,118.0 145.5,117.5 146.0,117.6 146.6,117.6 147.2,117.7 147.7,117.7 148.4,117.8 148.9,117.9 149.5,118.0 150.0,118.2 150.5,118.3 151.0,118.4 151.6,118.5 152.1,118.7 152.7,118.9 153.2,119.1 153.7,118.9 153.3,118.4 153.0,117.9 152.5,117.8 152.0,117.7 152.2,117.2 152.1,116.7 151.6,116.6 151.8,116.1 152.3,116.0 152.9,115.8 153.4,115.5 153.8,114.7 154.4,114.3 155.2,114.4 155.7,114.4 156.3,114.4 156.8,114.5 157.6,114.6 157.9,115.1 157.4,115.5 156.9,115.8 157.5,116.2 157.7,116.8 157.6,117.3 157.6,117.8 157.6,118.4 158.1,118.7 158.6,118.9 158.1,119.2 158.1,119.7 157.6,119.9 157.0,120.2 156.4,120.5 155.7,121.0 155.2,120.8 154.6,120.7 154.0,120.7 154.6,121.0 155.2,121.1 155.8,121.1 156.4,121.1 156.9,121.3 157.5,120.9 158.0,120.8 158.5,120.7 159.1,120.1 159.6,119.9 159.8,119.3 159.5,118.7 160.1,118.6 160.6,118.5 161.2,118.5 161.7,118.5 162.3,118.9 162.4,119.4 162.9,119.9 163.5,119.9 164.0,119.9 163.3,119.8 162.8,119.7 162.9,119.2 162.9,118.7 162.4,118.4 161.8,118.3 161.2,118.2 160.7,118.2 160.1,118.3 159.6,118.3 159.0,118.3 158.8,117.8 158.8,117.3 159.3,116.9 158.9,116.4 158.4,116.0 158.6,115.5 159.2,115.4 159.9,115.3 160.1,114.7 160.7,114.7 160.5,115.3 160.6,115.8 161.2,116.1 161.7,116.2 162.3,116.2 162.8,116.2 163.4,116.4 164.1,116.5 163.5,116.3 162.9,116.0 162.3,116.0 161.8,115.9 161.3,115.6 161.9,115.3 162.4,115.4 162.9,115.5 163.1,115.0 163.6,114.9 164.1,115.0 164.7,115.0 165.3,115.1 165.9,115.2 166.5,115.5 167.1,115.6 168.1,115.6 168.6,115.6 168.0,116.0 167.5,116.3 167.5,116.9 168.0,116.4 168.3,117.0 168.9,117.0 168.8,116.5 168.7,116.0 168.6,115.5 168.1,115.4 167.5,115.3 167.0,115.0 166.5,115.0 166.0,114.8 166.0,114.3 165.5,114.1 166.0,113.7 166.6,113.7 167.3,113.6 167.8,113.6 168.6,113.6 169.2,113.6 169.7,113.6 170.2,113.5 170.8,113.6 171.3,113.5 171.9,113.4 172.5,113.4 171.9,113.6 171.2,113.8 171.8,114.1 171.3,114.0 171.8,113.7 172.4,113.7 172.9,113.5 172.4,113.2 171.8,113.0 172.3,112.9 171.7,112.7 171.2,112.6 171.7,112.5 172.3,112.7 172.8,112.3 172.3,112.2 173.0,112.1 173.6,112.1 174.3,111.9 174.9,111.8 175.4,111.7 175.9,111.6 176.4,111.6 177.0,111.6 177.6,111.5 178.1,111.5 178.8,111.4 179.4,111.4 178.9,111.3 179.6,111.2 180.1,111.1 180.7,111.1 181.2,111.1 181.8,111.1 181.3,111.3 181.8,111.3 182.3,111.2 182.9,111.2 183.4,111.3 183.9,111.1 184.5,111.0 185.0,111.0 185.5,111.2 185.0,111.5 185.5,111.8 185.0,111.7 185.5,111.4 185.0,110.9 185.6,110.7 186.2,110.7 186.9,110.7 187.4,110.8 188.0,110.8 187.3,110.7 186.7,110.7 187.1,110.2 187.7,109.9 188.3,109.8 188.8,109.6 189.3,109.6 189.9,109.5 " />
    <polygon id="Russia" points="177.5,109.6 " />
    <polygon id="Russia" points="167.9,109.7 " />
    <polygon id="Russia" points="192.6,109.8 " />
    <polygon id="Russia" points="193.5,109.9 " />
    <polygon id="Russia" points="192.4,109.9 " />
    <polygon id="Russia" points="175.2,109.9 174.6,110.0 175.1,109.9 " />
    <polygon id="Russia" points="191.8,109.9 " />
    <polygon id="Russia" points="182.3,110.1 181.6,110.2 180.9,110.2 181.4,110.1 182.0,110.0 " />
    <polygon id="Russia" points="174.1,110.1 " />
    <polygon id="Russia" points="244.0,110.1 " />
    <polygon id="Russia" points="175.7,110.1 " />
    <polygon id="Russia" points="153.2,110.2 153.7,110.4 153.1,110.9 152.6,111.0 152.0,111.1 151.4,111.2 150.9,111.3 150.2,111.4 149.7,111.4 149.2,111.5 148.6,111.6 148.1,111.7 147.6,111.7 147.0,111.8 146.4,111.9 145.9,112.0 145.4,112.2 144.8,112.3 145.3,112.3 144.7,112.5 144.2,112.5 143.7,112.8 143.0,112.7 142.8,113.2 142.2,113.2 141.6,113.4 141.1,113.4 141.6,113.5 142.2,113.6 141.7,113.7 141.1,114.1 140.6,114.0 140.1,114.0 139.5,113.9 139.0,113.9 138.5,113.9 139.1,113.7 139.7,113.6 139.1,113.6 138.5,113.7 139.0,113.3 139.5,113.1 140.2,113.2 139.7,113.0 140.2,113.0 140.7,112.8 140.1,112.7 140.6,112.6 141.2,112.6 140.6,112.5 141.2,112.3 140.7,112.3 141.2,112.1 141.9,111.9 142.6,111.7 143.1,111.5 143.7,111.4 144.3,111.3 144.8,111.2 145.5,111.1 146.0,110.9 146.7,111.0 147.2,111.0 147.8,111.0 148.3,110.9 148.8,110.9 149.5,110.8 150.0,110.7 150.8,110.7 151.3,110.4 151.8,110.3 152.4,110.2 153.0,110.2 " />
    <polygon id="Russia" points="183.6,110.4 " />
    <polygon id="Russia" points="236.5,110.5 235.9,110.6 236.4,110.4 " />
    <polygon id="Russia" points="183.3,110.6 " />
    <polygon id="Russia" points="181.3,110.5 " />
    <polygon id="Russia" points="180.8,110.5 " />
    <polygon id="Russia" points="182.1,110.5 181.6,110.6 182.1,110.5 " />
    <polygon id="Russia" points="198.6,110.6 198.1,110.6 198.6,110.6 " />
    <polygon id="Russia" points="180.0,110.6 179.5,110.6 180.0,110.6 " />
    <polygon id="Russia" points="199.6,110.9 " />
    <polygon id="Russia" points="182.7,110.9 " />
    <polygon id="Russia" points="182.4,110.9 " />
    <polygon id="Russia" points="182.0,110.9 181.5,111.1 181.0,111.0 181.7,110.9 " />
    <polygon id="Russia" points="180.6,111.0 180.1,111.0 180.6,111.0 " />
    <polygon id="Russia" points="180.8,111.1 " />
    <polygon id="Russia" points="226.1,111.2 226.6,111.3 227.1,111.4 227.8,111.6 228.3,111.2 229.0,111.2 229.5,111.4 230.1,111.4 230.6,111.4 231.2,111.5 231.7,111.5 232.2,111.6 231.7,111.8 231.2,112.2 230.6,112.2 230.0,112.1 229.5,111.9 230.0,111.6 229.4,111.5 229.5,112.1 230.1,112.2 230.6,112.3 229.9,112.4 229.4,112.4 228.7,112.3 228.2,112.3 227.6,112.4 227.0,112.4 226.4,112.3 225.9,112.6 225.3,112.5 224.7,112.4 224.1,112.2 224.1,111.7 224.6,111.2 225.2,111.1 225.7,111.0 " />
    <polygon id="Russia" points="240.0,111.1 " />
    <polygon id="Russia" points="145.2,111.1 144.5,111.1 145.1,111.0 " />
    <polygon id="Russia" points="227.8,111.2 " />
    <polygon id="Russia" points="182.5,111.3 183.0,111.1 182.5,111.3 " />
    <polygon id="Russia" points="168.3,111.3 167.8,111.3 168.3,111.3 " />
    <polygon id="Russia" points="143.4,111.3 143.9,111.2 143.4,111.3 " />
    <polygon id="Russia" points="166.9,111.3 167.4,111.3 166.9,111.3 " />
    <polygon id="Russia" points="143.8,111.3 " />
    <polygon id="Russia" points="222.4,111.9 222.9,111.6 222.4,111.9 " />
    <polygon id="Russia" points="227.7,111.6 " />
    <polygon id="Russia" points="234.1,111.9 234.7,111.8 235.2,111.8 235.7,112.0 236.4,112.0 237.1,112.0 237.7,112.2 237.0,112.5 236.4,112.5 235.8,112.5 235.2,112.4 234.7,112.3 234.2,112.3 233.5,112.1 234.1,111.9 " />
    <polygon id="Russia" points="167.4,111.8 166.8,111.9 167.3,111.7 " />
    <polygon id="Russia" points="167.4,112.1 " />
    <polygon id="Russia" points="172.5,112.3 171.8,112.4 172.4,112.3 " />
    <polygon id="Russia" points="171.0,112.5 170.5,112.5 171.0,112.5 " />
    <polygon id="Russia" points="164.6,112.7 " />
    <polygon id="Russia" points="170.8,112.8 " />
    <polygon id="Russia" points="171.6,112.8 171.0,112.8 171.6,112.7 " />
    <polygon id="Russia" points="198.8,112.8 199.4,112.8 198.8,113.2 198.3,113.1 197.8,113.0 198.3,112.7 198.8,112.8 " />
    <polygon id="Russia" points="170.3,112.8 169.8,112.9 170.3,112.8 " />
    <polygon id="Russia" points="143.7,112.9 " />
    <polygon id="Russia" points="202.3,113.0 " />
    <polygon id="Russia" points="227.9,113.3 227.3,113.4 227.9,113.0 " />
    <polygon id="Russia" points="222.4,113.1 223.0,113.3 222.5,113.2 " />
    <polygon id="Russia" points="170.9,113.2 " />
    <polygon id="Russia" points="167.9,113.2 " />
    <polygon id="Russia" points="168.9,113.2 168.4,113.2 168.9,113.2 " />
    <polygon id="Russia" points="169.8,113.3 169.2,113.3 169.8,113.2 " />
    <polygon id="Russia" points="171.9,113.4 " />
    <polygon id="Russia" points="211.0,113.4 " />
    <polygon id="Russia" points="229.1,113.4 229.6,113.5 230.2,113.7 229.6,114.0 229.1,114.0 228.6,114.0 227.9,113.9 227.3,113.9 226.8,114.0 227.3,113.8 227.8,113.5 228.4,113.4 228.9,113.4 " />
    <polygon id="Russia" points="211.1,113.6 211.6,113.6 212.1,113.8 212.7,113.7 213.2,114.3 212.8,114.8 212.2,115.0 211.7,114.8 211.2,114.7 210.7,114.6 210.2,114.5 209.6,114.4 209.0,114.4 209.5,114.4 210.0,114.1 209.8,113.6 210.4,113.7 211.0,113.5 " />
    <polygon id="Russia" points="172.3,113.6 171.8,113.7 172.3,113.6 " />
    <polygon id="Russia" points="165.6,113.8 " />
    <polygon id="Russia" points="161.2,113.7 160.6,113.9 161.2,113.7 " />
    <polygon id="Russia" points="161.5,113.8 " />
    <polygon id="Russia" points="214.6,113.8 214.0,113.8 214.6,113.8 " />
    <polygon id="Russia" points="213.8,113.8 214.3,113.8 214.9,113.9 215.5,114.1 214.9,114.4 214.4,114.6 213.9,114.6 213.3,114.8 213.3,114.3 213.8,113.8 " />
    <polygon id="Russia" points="156.0,113.8 156.6,114.0 156.1,114.2 155.5,114.2 155.0,114.2 155.7,113.8 " />
    <polygon id="Russia" points="139.9,114.0 140.7,114.0 140.2,114.4 140.7,114.3 140.1,114.5 140.0,115.1 140.1,115.6 140.6,116.0 141.1,116.3 141.6,116.5 142.2,116.6 141.6,116.7 141.1,116.7 140.6,116.7 140.0,116.6 139.4,116.7 138.8,116.6 138.2,116.6 138.7,116.3 138.2,116.2 137.7,115.8 137.1,115.9 136.4,115.9 135.8,115.6 136.4,115.2 136.9,115.3 137.4,114.8 136.8,114.6 137.4,114.4 137.9,114.4 138.4,114.0 139.0,114.0 139.5,113.9 " />
    <polygon id="Russia" points="156.3,114.0 " />
    <polygon id="Russia" points="161.6,114.1 " />
    <polygon id="Russia" points="206.6,114.3 206.0,114.2 206.5,114.2 " />
    <polygon id="Russia" points="159.9,114.2 159.3,114.4 159.9,114.2 " />
    <polygon id="Russia" points="164.8,114.6 164.3,114.6 163.8,114.5 164.3,114.2 164.8,114.6 " />
    <polygon id="Russia" points="209.4,114.5 209.9,114.5 209.3,114.5 208.7,114.4 209.2,114.4 " />
    <polygon id="Russia" points="215.8,114.5 215.1,114.5 215.7,114.5 " />
    <polygon id="Russia" points="215.9,114.6 215.3,114.6 214.8,114.7 214.3,114.7 214.8,114.5 215.4,114.6 215.9,114.6 " />
    <polygon id="Russia" points="158.0,114.7 " />
    <polygon id="Russia" points="215.4,114.7 214.9,114.8 215.4,114.7 " />
    <polygon id="Russia" points="214.7,114.7 215.3,114.9 215.8,114.9 215.3,115.3 214.8,115.1 214.2,114.9 213.7,114.9 213.2,114.9 213.7,114.7 214.3,114.7 " />
    <polygon id="Russia" points="162.9,115.0 162.4,115.0 163.0,114.7 163.5,114.8 163.0,115.0 " />
    <polygon id="Russia" points="225.4,115.5 " />
    <polygon id="Russia" points="224.8,115.9 224.1,115.9 224.7,115.8 " />
    <polygon id="Russia" points="268.0,115.8 268.0,116.4 267.4,116.5 266.9,116.5 267.4,116.0 267.9,115.8 " />
    <polygon id="Russia" points="137.3,116.0 136.8,116.1 137.3,116.0 " />
    <polygon id="Russia" points="137.8,116.1 " />
    <polygon id="Russia" points="138.1,116.3 " />
    <polygon id="Russia" points="248.1,116.6 " />
    <polygon id="Russia" points="168.7,116.7 " />
    <polygon id="Russia" points="249.2,116.6 " />
    <polygon id="Russia" points="249.9,116.7 " />
    <polygon id="Russia" points="141.8,116.9 " />
    <polygon id="Russia" points="168.9,116.9 " />
    <polygon id="Russia" points="144.1,117.1 144.7,117.3 144.2,117.7 143.6,117.5 143.1,117.2 143.6,116.9 " />
    <polygon id="Russia" points="168.4,117.3 " />
    <polygon id="Russia" points="257.2,117.6 256.6,117.8 256.0,117.7 255.5,117.6 256.0,117.4 256.5,117.5 257.1,117.5 " />
    <polygon id="Russia" points="257.9,117.7 " />
    <polygon id="Russia" points="248.9,118.0 " />
    <polygon id="Russia" points="152.1,118.0 " />
    <polygon id="Russia" points="248.9,118.5 248.6,118.0 248.9,118.5 " />
    <polygon id="Russia" points="134.7,118.3 134.2,118.5 133.5,118.7 132.9,118.7 132.6,118.2 133.2,117.9 133.7,117.9 134.3,118.1 " />
    <polygon id="Russia" points="152.0,118.1 " />
    <polygon id="Russia" points="118.4,118.1 " />
    <polygon id="Russia" points="143.9,118.2 " />
    <polygon id="Russia" points="151.0,118.3 " />
    <polygon id="Russia" points="139.2,118.5 " />
    <polygon id="Russia" points="140.0,118.5 " />
    <polygon id="Russia" points="152.3,118.7 " />
    <polygon id="Russia" points="142.5,118.6 142.0,118.7 142.5,118.6 " />
    <polygon id="Russia" points="135.2,119.1 135.9,119.0 135.3,119.0 " />
    <polygon id="Russia" points="138.4,119.2 " />
    <polygon id="Russia" points="138.7,119.2 " />
    <polygon id="Russia" points="154.2,120.7 154.7,120.7 154.2,120.8 " />
    <polygon id="Russia" points="126.9,120.8 " />
    <polygon id="Russia" points="155.0,120.8 " />
    <polygon id="Russia" points="154.3,120.8 " />
    <polygon id="Russia" points="120.1,122.3 " />
    <polygon id="Russia" points="119.8,122.6 " />
    <polygon id="Russia" points="124.4,122.7 " />
    <polygon id="Russia" points="124.5,122.9 " />
    <polygon id="Russia" points="120.0,123.2 " />
    <polygon id="Russia" points="112.5,127.4 " />
    <polygon id="Russia" points="242.9,128.4 " />
    <polygon id="Russia" points="252.2,128.6 251.7,128.9 251.1,129.1 251.8,128.6 " />
    <polygon id="Russia" points="236.2,128.5 " />
    <polygon id="Russia" points="237.8,128.7 " />
    <polygon id="Russia" points="253.7,132.5 254.2,132.9 253.7,132.8 " />
    <polygon id="Russia" points="105.0,132.6 105.7,132.8 106.2,132.8 106.3,133.3 105.8,133.5 105.2,133.5 104.7,133.5 104.0,133.4 103.4,133.4 103.9,133.2 103.4,133.2 103.9,132.9 104.5,132.6 105.0,132.5 " />
    <polygon id="Russia" points="224.8,132.9 224.3,133.0 224.9,132.7 " />
    <polygon id="Russia" points="224.0,132.7 223.5,132.9 224.0,132.7 " />
    <polygon id="Russia" points="255.5,133.1 " />
    <polygon id="Russia" points="103.2,133.3 " />
    <polygon id="Russia" points="224.5,133.4 " />
    <polygon id="Russia" points="224.6,133.5 " />
    <polygon id="Russia" points="230.7,138.7 230.1,138.7 229.8,139.3 229.6,139.8 229.5,140.3 230.1,141.1 230.6,141.6 230.1,141.5 229.5,141.3 229.2,141.9 228.9,141.1 228.9,140.6 229.1,140.1 229.0,139.5 229.0,138.9 229.1,138.4 229.1,137.9 229.0,137.3 229.2,136.8 228.7,136.2 228.6,135.7 228.8,135.2 228.7,134.6 229.3,134.5 229.7,134.0 229.6,133.4 229.8,133.9 230.1,134.5 230.3,135.0 230.2,135.5 230.1,136.0 230.5,136.6 230.6,137.1 230.8,137.6 231.2,138.5 231.5,139.0 231.0,138.7 " />
    <polygon id="Russia" points="242.9,137.1 " />
    <polygon id="Russia" points="243.7,137.3 " />
    <polygon id="Russia" points="243.1,137.8 242.6,137.9 243.2,137.3 " />
    <polygon id="Russia" points="241.7,138.2 " />
    <polygon id="Russia" points="242.0,138.7 " />
    <polygon id="Russia" points="241.7,138.8 " />
    <polygon id="Russia" points="241.3,139.1 " />
    <polygon id="Russia" points="241.3,139.3 " />
    <polygon id="Russia" points="240.5,140.0 " />
    <polygon id="Russia" points="240.3,140.3 " />
    <polygon id="Russia" points="239.8,140.7 " />
    <polygon id="Russia" points="239.5,140.9 239.0,141.3 239.5,140.9 " />
    <polygon id="Russia" points="238.0,141.3 " />
    <polygon id="Russia" points="238.1,141.6 " />
    <polygon id="Russia" points="237.2,142.2 236.7,142.5 237.2,142.0 " />
    <polygon id="Russia" points="133.1,142.4 " />
    <polygon id="Russia" points="132.8,142.4 " />
    <polygon id="Russia" points="132.3,142.6 " />
    <polygon id="Russia" points="236.0,142.7 235.5,142.9 234.9,143.2 234.3,143.5 234.8,143.0 235.4,142.8 235.9,142.6 " />
    <polygon id="Russia" points="233.2,143.6 232.9,144.1 233.2,143.6 " />
    <polygon id="Russia" points="132.1,144.2 " />
    <polygon id="Russia" points="233.7,144.4 " />
    <polygon id="Russia" points="233.2,144.7 " />
    <polygon id="Russia" points="218.5,145.2 " />
  </g>
</svg>