<?xml version="1.0" encoding="UTF-8" standalone="yes"?>
<!DOCTYPE svg PUBLIC "-//W3C//DTD SVG 1.0//EN" "http://www.w3.org/TR/2001/REC-SVG-20010904/DTD/svg10.dtd">
<svg height="250" width="370" xmlns="http://www.w3.org/2000/svg" xmlns:svg="http://www.w3.org/2000/svg" xmlns:xlink="http://www.w3.org/1999/xlink">


<g id="background">
<rect id="" width="370" height="250" fill="#222222"/>
</g>
  <g id="646" style="stroke-miterlimit: 3; fill: #F1F1F1; stroke: #000000; stroke-opacity: 1; stroke-width: 0.05; stroke-linejoin: bevel; stroke-linecap: square">
    <polygon id="Rwanda" points="197.0,177.1 196.2,178.7 194.6,185.7 191.9,213.3 192.5,224.0 192.7,225.5 190.9,230.5 190.7,231.2 189.5,232.9 186.3,237.4 184.4,239.4 182.7,240.6 178.6,242.4 167.3,246.6 166.5,246.7 162.2,247.1 160.2,247.1 158.7,246.8 151.6,243.6 149.5,245.4 148.4,246.2 147.7,246.5 146.2,246.9 145.3,246.8 143.1,246.2 139.2,249.2 138.6,249.6 137.9,249.9 137.1,250.0 128.5,247.2 127.8,246.9 125.3,245.7 117.0,249.7 116.2,249.9 115.2,250.0 114.5,249.8 113.9,249.4 112.9,248.4 112.0,247.4 110.2,241.1 110.3,239.3 111.8,237.9 112.7,236.8 113.0,235.2 112.3,233.9 108.6,229.8 109.1,226.6 109.1,225.6 102.1,222.9 82.5,216.5 76.8,216.9 75.1,217.0 72.8,217.5 72.0,217.8 71.0,218.7 70.2,220.0 69.3,226.5 69.4,228.3 70.2,230.5 70.3,231.3 70.2,232.2 70.0,233.0 68.9,235.7 68.2,236.9 66.1,238.4 66.2,237.5 65.3,235.5 64.9,235.0 63.9,234.0 61.3,231.8 60.0,231.2 59.2,231.0 56.6,231.3 55.7,231.3 53.6,230.5 52.4,229.7 51.4,228.9 48.9,226.5 42.3,208.4 42.0,206.8 43.4,191.3 43.6,190.5 44.1,189.0 44.7,187.8 45.9,186.0 47.1,185.2 48.4,184.6 49.3,184.5 60.6,180.6 75.6,171.9 76.8,171.1 77.8,170.2 78.9,168.4 79.8,166.4 81.1,163.5 83.0,160.1 84.7,156.1 85.9,153.4 86.4,151.0 86.7,147.6 86.7,145.6 86.5,143.9 86.1,142.3 83.6,135.4 81.8,130.1 80.7,126.2 80.3,122.7 80.2,120.9 80.2,119.9 80.6,113.7 81.0,112.2 81.8,110.0 82.6,108.0 83.2,106.7 98.1,84.7 100.9,80.7 112.7,65.4 113.6,64.4 114.1,64.0 125.1,63.5 127.0,63.5 129.0,60.4 132.3,56.1 132.8,55.5 138.6,50.7 142.9,48.2 144.2,47.6 146.9,46.8 148.4,47.0 151.1,47.0 153.1,46.9 157.4,46.4 159.0,46.1 160.4,45.4 161.8,43.0 162.3,42.5 163.9,41.2 164.6,40.9 179.6,37.4 181.3,37.6 183.3,38.5 187.3,44.3 187.5,45.0 187.6,46.9 187.3,48.5 187.4,50.5 188.3,53.4 189.9,56.7 190.7,57.9 191.2,58.3 192.3,59.1 193.8,59.5 194.8,59.5 200.2,57.9 201.5,57.3 219.1,44.2 227.9,36.8 236.0,30.0 243.2,22.6 243.6,22.1 244.0,21.5 245.7,18.5 248.2,12.7 253.6,2.0 254.5,0.9 255.1,0.6 266.2,0.0 268.7,0.2 269.6,0.2 271.0,0.7 271.6,1.1 270.5,2.0 269.4,2.8 267.9,5.2 267.6,5.9 267.9,7.5 269.9,14.7 270.2,15.4 282.9,38.5 283.8,39.6 293.6,47.3 300.5,47.0 307.9,54.0 309.3,64.8 309.3,65.8 320.9,84.8 318.1,91.2 319.0,94.7 319.3,95.7 321.5,105.3 320.0,111.8 317.7,123.5 326.6,138.8 329.5,143.5 329.8,144.2 329.8,145.1 329.6,145.9 329.3,146.6 328.2,147.5 327.6,148.6 323.4,159.8 323.2,160.6 322.6,163.8 322.6,166.3 323.2,169.5 323.6,171.0 323.8,174.5 323.8,176.4 323.3,178.7 322.7,180.0 321.4,182.7 320.6,183.9 320.0,184.3 314.0,187.1 307.3,184.3 305.0,182.7 304.2,182.5 302.4,182.4 286.9,187.8 286.2,188.1 285.6,188.5 284.6,189.7 283.7,189.9 282.0,189.7 276.2,187.8 274.9,187.2 269.8,183.6 268.8,182.6 267.0,180.5 266.7,180.0 266.4,179.2 264.3,177.9 260.5,176.1 259.1,175.5 258.2,175.5 257.4,175.7 256.5,176.6 254.0,180.9 244.0,183.6 226.7,193.5 225.4,194.1 219.9,192.8 219.2,192.6 217.4,191.6 216.3,190.7 204.3,180.8 197.0,177.1 " />
  </g>
</svg>