<?xml version="1.0" encoding="UTF-8" standalone="yes"?>
<!DOCTYPE svg PUBLIC "-//W3C//DTD SVG 1.0//EN" "http://www.w3.org/TR/2001/REC-SVG-20010904/DTD/svg10.dtd">
<svg height="250" width="370" xmlns="http://www.w3.org/2000/svg" xmlns:svg="http://www.w3.org/2000/svg" xmlns:xlink="http://www.w3.org/1999/xlink">


<g id="background">
<rect id="" width="370" height="250" fill="#222222"/>
</g>
  <g id="678" style="stroke-miterlimit: 3; fill: #F1F1F1; stroke: #000000; stroke-opacity: 1; stroke-width: 0.05; stroke-linejoin: bevel; stroke-linecap: square">
    <polygon id="Sao Tome and Principe" points="253.3,21.7 249.8,25.4 242.2,20.3 240.7,18.5 239.1,14.1 239.3,13.2 245.9,2.1 250.3,0.2 250.9,0.0 257.5,1.3 259.0,2.8 259.4,3.5 259.4,4.5 259.2,10.0 253.3,21.7 " />
    <polygon id="Sao Tome and Principe" points="119.8,250.0 119.0,250.0 118.4,249.6 117.4,246.5 111.2,224.1 111.0,223.2 111.4,214.2 114.9,207.4 115.2,206.9 121.3,201.7 133.8,192.8 139.3,192.0 140.3,192.0 141.0,192.1 144.2,193.0 148.5,196.7 153.6,203.7 155.9,209.6 155.8,210.5 154.2,217.1 153.8,218.7 153.4,219.4 151.7,221.7 140.2,237.3 139.7,237.8 125.4,248.7 119.8,250.0 " />
  </g>
</svg>