<?xml version="1.0" encoding="UTF-8" standalone="yes"?>
<!DOCTYPE svg PUBLIC "-//W3C//DTD SVG 1.0//EN" "http://www.w3.org/TR/2001/REC-SVG-20010904/DTD/svg10.dtd">
<svg height="250" width="370" xmlns="http://www.w3.org/2000/svg" xmlns:svg="http://www.w3.org/2000/svg" xmlns:xlink="http://www.w3.org/1999/xlink">


<g id="background">
<rect id="" width="370" height="250" fill="#222222"/>
</g>
  <g id="682" style="stroke-miterlimit: 3; fill: #F1F1F1; stroke: #000000; stroke-opacity: 1; stroke-width: 0.05; stroke-linejoin: bevel; stroke-linecap: square">
    <polygon id="Saudi Arabia" points="179.6,44.7 200.8,46.4 205.4,46.8 207.2,46.1 207.8,46.2 211.1,46.6 214.0,46.9 221.0,47.7 221.7,48.9 222.2,50.0 222.6,50.8 222.8,51.3 222.8,52.1 223.2,53.2 224.5,54.7 233.8,54.6 235.5,54.6 236.8,55.3 237.0,56.5 237.0,57.7 238.3,61.0 239.0,62.2 242.0,64.9 242.5,65.4 242.4,66.3 242.1,66.9 242.2,65.9 241.6,65.5 241.1,66.7 241.9,68.6 242.9,68.9 243.6,68.5 244.6,69.1 245.1,69.7 246.9,69.6 247.8,69.7 248.8,70.5 249.0,71.2 247.9,71.2 246.9,71.0 246.3,71.2 248.1,72.8 250.4,75.5 251.0,75.9 251.8,75.6 252.5,75.3 253.7,77.1 254.4,78.2 254.9,78.7 256.2,79.4 257.3,80.0 257.8,80.1 258.4,80.1 261.4,82.6 261.9,83.2 260.7,82.6 259.4,81.7 259.2,82.5 259.4,84.5 260.1,85.9 260.8,86.3 262.0,86.6 262.6,87.3 262.7,88.5 262.7,89.9 262.5,90.4 261.8,91.5 261.2,91.7 260.4,90.4 259.9,90.1 259.1,91.0 259.3,92.7 261.1,94.2 261.1,94.9 261.5,95.8 262.0,96.5 262.6,97.0 263.2,98.0 263.3,98.5 263.0,98.0 261.9,97.3 264.0,100.3 264.6,100.9 266.3,101.4 266.7,101.9 267.3,103.7 267.5,105.1 267.9,107.3 268.5,107.5 269.2,108.2 270.4,110.0 270.6,111.1 270.6,111.7 271.1,112.4 272.0,111.9 272.5,112.8 274.1,114.5 276.2,114.9 277.2,114.5 277.7,114.0 278.4,114.0 279.2,114.2 279.0,114.8 279.0,115.3 279.7,115.2 280.5,114.3 281.1,113.9 281.8,114.3 280.7,115.7 279.6,116.6 279.2,117.2 278.8,118.1 278.7,118.6 279.3,118.9 279.9,118.9 280.4,118.5 281.2,118.5 281.8,118.6 282.4,119.0 283.0,119.5 283.4,121.5 298.5,139.3 337.2,143.9 338.0,142.9 345.1,153.5 341.4,164.6 335.0,183.7 289.6,198.9 277.8,201.6 259.4,205.7 240.8,209.9 229.6,222.1 219.7,232.8 204.0,250.0 204.0,246.9 204.0,234.1 191.0,229.0 183.8,226.2 176.3,223.2 175.6,222.8 174.6,222.7 171.5,222.9 170.1,223.9 168.0,224.5 165.2,223.8 163.8,222.8 163.3,222.0 161.4,221.2 160.5,221.1 159.8,221.3 159.2,221.7 158.4,222.1 157.7,222.7 156.5,223.9 155.9,227.2 155.5,230.1 156.0,231.5 156.6,233.4 156.7,234.0 155.6,233.9 155.1,234.0 154.8,235.1 154.7,235.7 152.4,237.8 151.2,238.4 150.7,238.5 150.5,237.4 149.6,236.3 149.4,235.7 149.5,235.0 149.6,234.3 148.7,232.4 147.9,231.7 147.4,231.6 146.7,231.0 146.8,230.0 146.8,229.2 146.3,228.6 144.7,227.3 144.0,227.4 144.1,228.5 143.8,227.9 143.6,226.3 143.4,225.3 143.4,224.2 143.3,223.1 143.1,222.4 141.4,220.9 139.9,219.3 136.7,216.8 136.1,216.9 135.3,216.5 134.6,215.8 133.6,214.7 132.4,212.7 132.4,212.1 131.5,211.1 131.1,210.5 130.6,209.6 130.3,209.0 130.1,208.4 130.0,207.1 129.6,206.4 128.8,205.5 128.2,205.2 127.3,204.7 126.5,203.5 126.6,202.5 127.1,201.6 126.5,200.9 125.4,199.8 125.6,199.0 126.0,197.9 125.3,197.4 124.8,197.3 124.3,196.7 124.0,196.1 122.7,192.0 121.1,190.8 119.8,189.8 120.4,188.9 120.2,188.1 119.7,187.4 118.6,186.8 118.0,186.9 116.0,184.1 115.0,183.6 113.3,182.6 112.6,182.2 110.7,180.7 110.2,180.2 109.8,179.6 109.2,179.5 107.6,179.5 106.9,179.4 105.3,178.7 103.2,177.2 102.7,176.6 102.2,175.9 101.7,175.2 101.4,174.5 100.5,172.9 99.8,172.4 99.5,171.8 100.0,171.7 99.5,171.0 98.9,170.9 97.2,169.4 95.8,167.1 95.5,166.4 94.7,164.4 95.5,163.0 95.7,162.5 95.7,161.7 95.6,161.1 95.3,160.5 94.6,159.3 94.5,158.7 94.2,157.7 93.7,156.7 93.0,156.0 93.4,151.7 93.6,150.3 94.7,147.8 94.1,144.7 92.7,142.2 91.6,140.7 90.9,139.6 91.4,139.7 91.6,140.3 92.3,140.7 92.3,139.9 91.6,139.0 89.5,135.8 88.8,134.8 88.5,134.0 88.4,133.3 88.4,132.5 87.8,131.4 87.0,130.6 86.4,130.5 85.3,128.0 84.9,126.6 81.7,124.0 80.1,122.7 79.2,122.2 78.2,121.9 76.2,120.7 74.4,119.4 73.2,118.8 72.3,119.0 72.2,119.5 70.9,119.1 70.3,118.5 69.6,117.7 69.8,117.1 69.7,116.4 68.7,115.1 68.5,114.5 67.9,113.6 66.9,112.7 65.2,110.7 65.8,110.6 66.3,110.5 67.1,108.5 66.8,106.2 66.5,105.4 65.7,104.7 64.9,103.9 64.4,103.1 64.1,102.2 64.1,101.6 61.9,98.4 60.4,97.0 59.7,96.7 59.9,97.3 58.8,96.9 58.3,96.3 58.0,95.7 57.7,95.1 58.0,94.6 58.4,93.9 58.5,93.2 58.2,92.6 57.3,92.2 56.7,92.1 56.1,91.9 55.5,91.3 55.1,90.3 52.5,85.6 51.0,83.3 50.0,82.3 49.3,81.8 48.6,80.3 48.3,79.6 47.7,79.0 46.8,78.3 45.1,76.5 44.8,75.8 44.9,75.2 43.6,73.3 42.5,72.6 41.9,72.1 41.2,71.2 40.7,70.4 40.4,69.7 40.3,68.8 38.6,66.2 37.8,65.0 37.1,64.3 36.2,63.4 35.5,62.9 35.1,62.0 33.5,61.1 32.7,61.1 31.7,61.5 30.4,61.7 28.3,60.7 27.4,61.4 27.3,62.2 26.2,61.5 26.5,60.9 27.0,60.2 28.0,58.5 28.7,56.9 29.2,55.6 29.7,54.8 29.6,53.3 30.2,49.8 30.9,46.0 31.1,44.8 31.3,44.2 31.9,42.6 35.5,42.8 40.9,43.6 48.9,44.8 51.9,42.6 55.4,40.1 59.0,34.6 63.4,33.8 69.1,32.8 70.5,32.5 73.0,27.5 78.0,25.0 71.4,18.2 70.3,17.1 67.4,14.2 63.0,9.8 66.0,9.1 70.0,8.0 73.6,7.1 77.5,6.1 85.4,4.2 93.2,2.3 94.2,1.5 96.1,0.0 100.5,0.7 109.4,2.3 114.5,3.1 130.0,11.8 139.8,15.8 152.5,24.8 154.6,26.3 165.9,34.6 179.6,44.7 " />
    <polygon id="Saudi Arabia" points="26.5,64.2 25.9,64.2 25.1,63.7 25.0,63.1 25.6,62.7 26.3,63.3 26.8,63.9 " />
    <polygon id="Saudi Arabia" points="252.4,72.4 253.9,72.9 253.1,73.2 252.5,72.8 251.9,72.8 251.1,73.6 251.2,73.1 251.8,72.5 252.4,72.4 " />
    <polygon id="Saudi Arabia" points="44.1,76.5 43.7,76.0 44.1,76.5 " />
    <polygon id="Saudi Arabia" points="64.1,108.8 63.5,108.7 63.5,108.2 64.1,108.7 " />
    <polygon id="Saudi Arabia" points="138.3,232.8 137.4,232.7 136.7,232.1 136.0,231.1 136.5,230.6 137.4,230.2 137.4,229.7 136.3,229.2 137.3,229.3 138.4,232.7 " />
    <polygon id="Saudi Arabia" points="137.9,233.5 139.4,233.5 138.9,233.2 139.1,232.0 139.7,232.0 140.6,233.4 140.9,234.3 141.2,235.4 140.6,235.6 139.7,235.0 140.1,234.5 139.6,234.1 139.0,234.0 138.5,234.2 137.9,234.5 136.9,233.9 136.1,233.3 135.1,232.5 134.8,231.2 135.6,231.3 136.1,231.8 136.5,232.4 136.9,233.1 137.7,233.5 " />
  </g>
</svg>