<?xml version="1.0" encoding="UTF-8" standalone="yes"?>
<!DOCTYPE svg PUBLIC "-//W3C//DTD SVG 1.0//EN" "http://www.w3.org/TR/2001/REC-SVG-20010904/DTD/svg10.dtd">
<svg height="250" width="370" xmlns="http://www.w3.org/2000/svg" xmlns:svg="http://www.w3.org/2000/svg" xmlns:xlink="http://www.w3.org/1999/xlink">


<g id="background">
<rect id="" width="370" height="250" fill="#222222"/>
</g>
  <g id="686" style="stroke-miterlimit: 3; fill: #F1F1F1; stroke: #000000; stroke-opacity: 1; stroke-width: 0.05; stroke-linejoin: bevel; stroke-linecap: square">
    <polygon id="Senegal" points="32.1,118.4 31.3,117.0 30.6,116.1 29.5,115.2 27.7,114.1 21.4,111.6 19.0,111.1 18.0,111.2 17.0,111.5 16.2,111.9 15.7,112.5 16.2,113.1 16.2,114.9 15.6,116.0 15.1,116.0 10.5,111.0 10.0,110.3 12.5,109.6 13.6,109.4 14.7,109.3 16.5,108.7 18.8,108.0 27.3,103.8 30.3,102.3 31.1,101.9 32.3,101.1 33.2,100.3 42.1,90.1 47.2,84.0 48.0,82.8 50.3,78.6 52.4,74.5 53.3,73.0 55.3,70.2 55.9,69.4 57.2,67.8 59.4,64.8 66.4,53.3 66.9,52.2 67.0,51.6 66.9,50.8 66.4,50.1 66.3,49.5 67.2,38.7 67.5,36.0 68.7,34.1 74.2,27.7 74.8,27.5 75.4,26.9 76.5,24.2 76.7,23.6 77.2,21.1 77.8,17.9 79.1,13.6 80.2,11.3 80.4,10.8 81.0,10.2 81.5,9.9 89.2,8.0 90.4,8.0 91.1,8.2 91.8,9.0 91.8,9.6 93.8,11.6 94.5,12.1 98.3,11.6 101.8,10.6 102.8,10.3 103.5,10.2 104.2,10.3 107.6,10.9 111.8,11.6 113.8,12.0 114.8,12.2 115.5,12.2 116.3,12.1 121.6,10.2 125.4,7.8 129.3,6.5 134.2,7.5 140.8,7.6 149.4,4.8 153.0,3.3 153.9,2.2 154.2,1.3 154.5,0.6 155.2,0.1 155.9,0.0 156.5,0.2 156.8,0.7 157.0,2.1 157.2,2.7 159.7,3.3 162.7,3.2 168.3,2.8 174.7,2.8 175.1,3.6 182.3,3.8 183.0,3.8 185.2,3.5 187.7,2.4 191.2,3.0 191.7,3.1 198.6,8.3 199.2,8.8 209.7,19.1 212.4,22.0 212.2,22.6 212.9,26.0 221.5,32.0 222.2,31.5 227.3,29.2 227.8,28.9 228.4,29.1 228.6,29.7 227.9,30.9 227.7,31.5 228.1,32.4 229.8,33.8 230.5,33.8 231.9,32.9 234.9,31.8 235.7,31.7 238.7,31.9 245.6,36.1 249.8,43.5 254.3,57.6 257.8,60.6 262.5,66.1 262.4,66.8 262.6,67.4 263.1,68.1 264.6,69.0 265.3,69.1 269.0,67.9 269.9,67.6 270.6,67.7 270.8,68.3 271.7,73.8 272.0,75.2 272.3,75.7 273.6,76.4 275.2,77.2 276.1,77.8 277.1,78.8 277.4,79.4 277.4,80.1 277.2,81.0 276.4,81.4 275.7,81.3 274.8,81.1 274.6,82.1 276.9,84.5 280.6,87.9 284.9,90.8 286.2,91.4 286.9,90.6 288.0,90.4 289.3,90.6 297.5,95.5 298.1,96.1 299.5,99.2 299.6,99.8 299.4,100.5 299.5,101.2 299.7,101.8 302.7,104.8 309.1,108.6 311.3,109.8 311.3,110.6 315.1,118.7 312.9,122.6 312.4,124.4 313.5,130.8 316.7,132.0 323.3,137.3 324.0,138.1 326.2,143.5 326.4,144.1 326.3,145.3 325.1,149.5 324.9,150.1 324.5,151.9 324.4,152.6 324.7,155.0 325.0,155.6 325.8,156.4 326.7,157.0 328.0,158.1 328.5,158.8 328.6,159.9 328.5,161.4 328.2,163.0 327.9,164.2 327.6,165.1 326.9,166.0 326.1,166.7 324.7,167.7 322.9,168.8 321.6,170.6 322.0,172.4 323.3,175.5 325.8,178.6 327.0,180.1 327.5,180.3 332.2,186.2 331.6,188.3 331.8,188.9 335.7,192.7 336.3,192.8 336.9,192.3 338.9,190.0 339.1,189.0 339.9,187.1 341.2,186.7 345.9,187.9 347.6,189.8 350.7,194.1 351.3,195.2 351.6,195.7 351.3,196.2 350.6,197.4 350.4,198.0 350.6,198.9 352.0,202.1 352.8,203.7 355.3,205.2 356.2,205.5 360.6,210.9 361.0,211.8 361.2,213.6 361.2,214.3 359.7,219.8 358.0,229.8 358.4,234.8 358.9,236.7 360.9,241.7 360.9,244.0 357.8,242.9 355.6,242.4 354.5,242.3 352.6,242.4 345.8,242.9 345.1,243.4 343.7,244.4 342.7,244.9 340.2,245.5 339.0,245.6 334.3,245.2 331.2,243.9 323.3,244.4 317.9,245.4 317.1,246.2 316.4,246.7 315.5,247.0 314.1,247.5 305.6,250.0 304.0,248.2 303.3,246.8 302.8,246.2 299.9,245.1 298.3,244.8 297.6,244.6 296.9,244.6 296.3,244.8 292.1,246.5 289.6,242.7 288.9,242.2 280.4,240.7 277.1,238.0 274.5,236.3 273.9,236.0 273.1,236.1 272.2,236.4 271.5,236.9 271.2,237.8 271.0,239.8 270.4,240.4 269.8,240.6 266.2,240.2 265.3,239.6 264.7,238.6 264.4,237.0 265.1,235.5 265.8,234.2 265.9,233.6 265.5,231.6 264.8,230.8 256.6,230.0 250.6,230.2 248.0,229.3 232.6,228.6 227.7,228.6 219.5,228.7 211.5,228.7 204.1,228.6 203.1,228.6 191.9,228.5 189.0,228.5 181.9,228.5 174.9,228.4 173.9,228.4 161.6,228.4 158.8,228.3 142.0,228.2 135.4,232.1 133.9,233.1 130.6,235.8 119.4,240.8 115.4,242.7 108.4,242.1 103.9,241.7 99.7,242.4 97.5,241.5 96.4,241.0 95.2,240.6 93.9,240.3 92.8,240.3 91.7,240.3 85.6,240.9 75.8,245.8 68.2,247.4 66.6,247.0 66.1,246.8 59.8,246.6 58.5,246.7 58.0,246.9 57.1,248.0 56.7,248.8 55.9,248.1 52.6,243.5 52.2,242.7 51.9,242.1 51.8,241.4 51.9,239.6 52.7,238.1 53.9,236.8 64.1,231.2 69.0,233.2 73.5,235.4 75.8,236.2 76.9,236.0 77.9,235.4 80.9,233.7 84.2,233.5 86.3,234.1 90.9,232.7 95.5,231.3 96.7,231.3 97.3,231.4 98.0,231.9 99.5,233.2 101.1,234.3 107.1,235.8 107.9,235.8 109.0,234.7 110.1,233.8 110.8,233.6 112.7,233.7 114.8,234.2 115.3,235.0 115.6,235.9 116.5,236.6 118.1,236.9 118.8,236.9 121.6,235.3 125.2,231.5 125.6,230.7 124.3,227.5 123.6,226.6 124.2,222.7 129.9,221.4 131.1,221.8 131.7,222.0 132.2,219.8 129.1,219.8 124.8,221.1 123.7,221.9 123.0,222.8 122.8,223.4 122.3,225.2 122.6,226.1 123.1,226.7 123.7,229.7 123.7,230.3 122.8,231.4 119.2,234.6 118.1,235.4 117.4,235.6 116.4,235.0 116.5,234.5 116.7,233.9 116.6,233.2 116.3,232.6 114.8,232.2 110.9,231.9 106.3,232.6 103.4,233.4 102.7,233.4 100.7,232.2 98.5,230.0 96.6,227.2 96.3,225.9 95.0,229.6 93.6,231.0 88.9,232.5 88.3,232.7 85.8,232.3 80.8,232.9 77.6,234.0 77.0,235.0 76.5,235.1 73.6,234.4 71.8,233.4 65.0,229.0 63.4,225.6 63.8,224.8 63.8,223.0 63.7,222.3 60.6,226.0 60.5,228.1 60.6,228.9 60.7,229.6 60.8,230.3 60.8,231.1 56.6,234.1 54.8,235.0 53.9,234.9 53.2,233.9 52.3,226.6 52.0,221.6 52.0,220.8 52.1,220.2 52.9,218.7 53.8,217.6 54.3,216.5 54.5,215.6 54.9,210.2 54.9,208.8 54.9,207.6 54.8,206.8 57.3,201.6 57.6,201.1 58.2,200.9 62.3,200.9 97.6,201.0 103.5,201.1 105.3,201.2 108.3,201.2 108.4,196.3 108.4,191.4 108.7,190.4 130.6,188.9 133.9,189.4 135.4,189.4 137.6,189.1 138.2,188.9 139.4,188.4 140.4,187.8 141.3,187.1 142.0,186.3 142.6,185.2 142.8,183.9 142.8,182.9 142.8,182.1 142.9,180.7 143.0,180.0 144.5,178.8 145.6,177.1 146.1,176.8 146.8,176.6 148.1,176.3 149.6,178.1 151.6,180.0 155.0,182.2 156.0,182.8 157.0,183.4 158.7,184.0 163.9,185.5 167.2,186.0 167.8,186.2 168.4,187.2 169.3,188.7 170.7,189.7 171.8,190.2 172.4,190.3 173.1,190.5 174.5,190.7 180.2,191.1 181.7,192.4 189.0,196.0 189.5,196.2 191.4,196.7 199.2,197.1 200.3,197.1 201.0,196.9 202.7,196.2 203.8,195.6 205.9,194.0 208.6,193.5 211.8,193.0 218.3,192.1 218.9,191.9 219.4,191.6 221.2,190.2 222.4,188.6 222.7,188.1 222.8,187.1 222.8,186.4 222.7,185.3 222.4,184.8 221.2,182.9 220.4,182.1 219.9,181.8 218.9,181.3 218.3,180.0 218.0,179.4 217.0,178.4 216.3,178.0 215.7,177.8 212.9,177.1 212.1,177.1 207.0,178.2 206.4,178.4 201.4,180.3 200.5,180.6 199.7,181.1 199.0,181.6 198.4,182.2 197.7,183.0 192.5,184.4 190.7,183.9 189.9,183.5 188.7,182.7 187.2,181.8 186.6,181.2 186.0,180.3 184.5,179.8 184.2,177.8 184.0,176.7 183.7,176.2 183.1,174.9 182.2,174.1 181.1,173.4 179.8,172.7 178.9,172.4 177.3,172.1 176.1,172.2 175.4,172.3 174.8,172.5 173.3,173.1 171.9,174.1 170.7,175.3 166.3,173.1 166.2,171.6 165.9,170.3 165.6,169.4 164.9,168.1 164.6,167.6 163.8,166.8 162.6,165.9 161.1,165.1 160.0,164.7 159.0,164.5 150.4,163.2 145.1,165.0 142.1,166.8 140.1,167.9 139.2,166.6 138.6,166.0 138.0,165.5 137.1,165.1 136.5,165.0 135.8,165.0 134.8,165.2 133.7,165.8 130.5,167.9 129.6,168.7 128.7,169.7 127.6,171.7 127.3,172.6 126.9,173.8 126.7,176.5 121.7,176.6 117.7,176.6 101.5,176.5 92.5,176.5 87.8,176.5 65.3,176.7 62.2,172.8 61.1,171.0 60.8,170.3 61.2,167.4 61.7,166.3 62.2,165.7 63.3,164.4 64.9,162.8 66.7,162.3 67.8,162.9 69.2,160.9 69.6,155.7 65.6,161.1 58.1,166.4 57.5,166.5 57.0,166.2 55.6,163.8 55.4,162.4 54.9,156.7 55.0,156.1 55.4,155.3 56.2,154.6 56.9,154.0 57.9,153.7 58.6,153.7 60.1,154.6 61.1,155.5 64.6,153.2 64.9,152.3 65.0,151.8 65.7,150.3 68.7,147.3 74.1,145.0 76.7,144.1 76.2,143.9 75.6,144.1 71.7,143.4 68.3,145.2 66.5,148.1 65.6,149.5 61.6,153.0 61.0,153.2 60.3,153.3 59.5,153.3 53.3,152.6 52.1,148.2 51.2,146.3 48.7,144.4 47.8,143.6 47.5,143.1 47.4,142.5 46.2,138.3 43.6,131.9 42.5,130.6 41.9,129.9 41.0,129.2 40.4,128.8 39.7,128.5 38.5,128.2 37.3,127.7 36.5,127.0 35.5,125.6 33.7,122.2 32.1,118.4 " />
  </g>
</svg>