<?xml version="1.0" encoding="UTF-8" standalone="yes"?>
<!DOCTYPE svg PUBLIC "-//W3C//DTD SVG 1.0//EN" "http://www.w3.org/TR/2001/REC-SVG-20010904/DTD/svg10.dtd">
<svg height="250" width="370" xmlns="http://www.w3.org/2000/svg" xmlns:svg="http://www.w3.org/2000/svg" xmlns:xlink="http://www.w3.org/1999/xlink">


<g id="background">
<rect id="" width="370" height="250" fill="#222222"/>
</g>
  <g id="688" style="stroke-miterlimit: 3; fill: #F1F1F1; stroke: #000000; stroke-opacity: 1; stroke-width: 0.05; stroke-linejoin: bevel; stroke-linecap: square">
    <polygon id="Serbia" points="136.5,209.2 138.5,204.5 138.6,203.8 137.8,203.3 136.4,202.7 135.2,202.5 133.8,202.4 133.3,202.3 131.2,201.1 131.0,200.3 131.8,199.3 133.2,198.2 134.7,197.4 136.2,197.0 136.8,196.9 137.5,197.0 138.4,197.1 145.8,197.7 154.3,193.5 154.2,192.6 152.5,190.4 149.6,188.1 149.0,187.8 147.4,187.2 142.7,185.7 141.9,185.5 141.2,185.5 135.8,183.6 134.4,181.7 130.6,178.6 127.8,177.7 119.9,175.3 114.6,174.0 113.3,173.8 112.5,173.6 112.0,173.4 108.4,170.2 107.1,169.1 106.9,168.3 106.3,167.4 104.5,165.5 100.2,162.3 90.7,157.9 89.3,157.3 87.8,154.2 91.2,152.4 98.2,150.1 102.3,150.8 103.1,149.9 104.1,144.6 104.1,143.9 103.8,142.3 103.5,141.5 103.1,140.3 102.8,139.8 102.0,139.2 99.9,137.6 95.8,134.2 89.1,128.2 88.3,125.9 88.4,125.3 92.3,126.2 94.9,127.1 95.7,127.9 99.3,128.3 102.6,128.5 104.3,128.5 104.9,128.4 110.2,125.1 110.4,123.3 109.1,122.6 102.7,119.1 95.3,114.0 88.4,110.8 84.2,109.6 82.1,107.9 80.6,105.5 80.7,104.3 81.7,96.3 82.4,95.7 85.8,93.7 92.7,85.3 94.0,82.9 94.5,81.8 96.7,76.2 96.0,74.7 92.5,73.6 91.9,73.5 85.4,72.7 84.8,72.7 84.3,72.8 81.6,74.0 76.9,76.3 76.2,75.2 75.5,74.7 74.8,74.0 75.2,73.2 76.5,72.3 77.1,72.2 81.3,66.4 80.6,62.7 84.0,56.0 85.4,55.7 86.6,56.0 87.2,56.2 88.2,56.8 88.9,57.6 89.7,57.9 94.9,58.3 98.3,58.2 99.0,57.9 99.1,57.3 99.2,56.1 99.1,55.2 98.8,54.7 97.7,54.6 97.1,54.7 95.2,54.7 94.5,54.7 93.1,54.5 91.0,54.2 89.6,54.0 85.6,52.7 82.6,51.7 81.1,51.1 73.9,46.8 73.3,45.8 74.4,40.3 75.2,39.5 75.8,39.5 76.3,39.6 77.0,40.0 77.6,40.2 78.8,40.2 79.7,40.0 80.3,39.4 80.5,38.9 80.1,38.1 76.0,35.8 75.4,35.7 74.8,35.8 73.1,37.0 72.0,37.2 71.2,37.1 70.7,37.0 69.1,35.5 68.8,34.9 69.2,32.8 69.5,32.3 70.7,32.1 72.3,30.5 72.7,30.0 72.2,23.3 70.2,21.4 69.3,20.9 68.2,20.6 64.9,17.8 64.0,15.5 65.1,15.6 66.4,15.6 74.3,13.2 75.0,12.6 79.2,9.5 80.1,9.1 80.8,9.0 81.5,9.0 82.1,9.3 83.2,11.0 83.9,11.3 90.9,11.2 101.2,6.2 104.1,4.0 104.5,3.3 103.8,2.7 104.0,2.2 106.9,0.5 107.6,0.4 112.7,0.0 113.5,0.0 115.2,0.3 117.6,1.1 123.3,1.9 124.3,1.5 130.1,0.6 138.9,0.8 144.0,1.7 147.3,3.7 150.1,6.1 150.9,6.8 152.7,8.9 152.8,9.9 153.2,10.9 154.2,11.8 161.6,15.3 162.2,15.5 162.8,15.6 163.9,15.5 164.8,15.7 165.8,16.1 166.6,16.6 170.2,20.1 170.3,21.3 170.5,21.9 173.4,25.2 174.1,25.5 175.1,25.4 175.6,25.3 176.2,24.9 176.5,24.4 177.1,23.7 177.6,23.6 178.4,23.8 178.9,24.5 178.9,25.3 178.5,30.3 177.5,31.4 176.8,32.3 176.7,33.0 178.3,38.9 179.1,40.6 189.4,48.3 193.0,50.0 205.6,54.8 206.1,55.0 210.5,55.7 213.6,55.8 214.2,55.9 217.5,57.4 218.1,57.7 219.9,59.5 220.0,60.2 219.9,60.9 215.8,65.2 212.2,66.9 211.7,67.1 211.4,67.8 211.9,68.5 213.6,69.8 215.0,70.5 215.7,70.6 216.7,70.3 217.4,70.4 220.7,71.5 221.4,71.8 222.0,72.4 222.3,73.0 222.5,73.6 222.5,74.3 221.9,74.7 219.2,75.2 217.8,75.5 216.9,75.5 215.9,75.4 214.2,75.4 213.3,75.5 211.7,75.9 211.2,77.9 211.1,78.5 213.0,80.7 213.6,81.0 216.4,81.2 217.6,81.1 220.5,81.1 221.6,81.2 222.9,81.5 224.2,82.0 224.9,82.5 225.7,84.6 225.7,85.8 225.7,86.3 225.9,86.9 226.7,87.6 227.7,88.1 232.3,88.2 232.9,88.1 235.5,87.8 242.7,88.5 247.3,89.3 248.0,89.6 249.6,91.8 249.9,93.5 250.2,94.2 252.8,97.0 254.1,97.7 255.4,98.3 256.4,98.4 257.7,98.4 258.8,97.5 262.9,92.2 263.8,91.2 265.2,89.3 265.5,88.7 265.8,88.1 266.5,87.4 272.4,85.0 273.2,84.8 274.4,84.7 275.1,84.8 275.7,85.0 276.3,85.4 277.3,86.5 278.0,87.1 279.3,88.0 281.2,89.2 282.2,89.8 282.9,90.1 283.9,90.3 285.2,90.3 286.1,90.2 286.8,90.3 289.0,91.0 292.0,93.6 292.2,94.2 291.6,94.9 290.9,95.2 289.0,95.8 288.4,95.9 287.7,95.8 287.1,95.6 286.6,95.4 285.3,94.7 284.5,94.4 283.9,94.2 283.2,94.2 282.1,94.3 274.7,98.1 274.4,98.7 274.6,99.9 278.6,106.1 279.0,106.6 279.7,107.4 280.7,108.3 281.3,108.5 282.2,108.7 283.6,108.9 285.0,109.1 286.0,109.3 286.8,109.5 287.7,110.0 287.9,110.8 287.3,113.1 285.7,113.7 283.7,116.3 283.5,119.0 279.9,122.4 279.0,122.7 272.3,125.5 269.2,136.1 271.5,141.9 271.9,142.9 279.0,156.1 279.8,156.8 284.3,159.0 286.6,159.8 289.5,160.7 292.0,161.5 295.6,164.4 296.2,165.0 296.8,167.0 297.1,167.6 300.2,170.5 302.3,171.7 306.0,172.7 305.4,175.7 303.8,178.0 291.1,190.0 290.3,190.2 286.2,190.8 283.5,190.0 282.9,189.9 281.8,190.1 278.3,190.9 277.7,191.2 273.9,193.9 273.4,194.6 273.8,207.0 274.8,208.8 278.2,211.0 279.4,211.9 280.3,213.5 279.1,217.0 278.1,218.4 274.5,220.7 271.7,222.3 269.1,222.9 267.4,221.1 266.7,220.8 265.8,220.8 260.8,221.9 260.3,222.6 259.9,223.2 259.2,223.4 258.6,223.5 252.8,224.3 252.1,224.3 251.5,224.2 249.3,223.3 239.6,222.5 238.8,222.7 236.8,224.1 236.4,224.7 236.1,225.6 235.7,226.4 235.2,226.8 232.8,227.9 231.9,228.2 231.3,228.2 229.5,227.8 226.0,227.0 218.0,226.2 217.1,226.3 210.3,230.4 207.9,232.9 202.9,233.3 198.4,230.2 197.6,230.0 196.9,230.0 196.2,230.2 185.3,234.7 179.1,236.5 178.4,236.7 177.7,237.3 177.0,238.7 176.2,242.1 176.3,242.7 177.3,244.8 177.4,245.7 177.1,246.4 175.4,248.9 174.7,249.5 173.6,250.0 173.0,250.0 168.9,250.0 167.9,249.6 167.4,249.2 166.5,248.5 165.9,247.1 166.0,246.4 166.8,245.6 167.7,245.3 168.3,244.3 168.4,243.8 166.8,239.1 162.8,229.4 161.8,228.4 159.6,226.4 158.8,225.8 154.7,224.1 152.9,223.6 147.3,223.0 146.5,222.7 146.1,221.3 146.3,220.6 145.3,217.2 145.1,216.6 142.1,212.4 141.5,212.0 138.5,211.0 138.0,210.6 136.5,209.2 " />
  </g>
</svg>