<?xml version="1.0" encoding="UTF-8" standalone="yes"?>
<!DOCTYPE svg PUBLIC "-//W3C//DTD SVG 1.0//EN" "http://www.w3.org/TR/2001/REC-SVG-20010904/DTD/svg10.dtd">
<svg height="250" width="370" xmlns="http://www.w3.org/2000/svg" xmlns:svg="http://www.w3.org/2000/svg" xmlns:xlink="http://www.w3.org/1999/xlink">


<g id="background">
<rect id="" width="370" height="250" fill="#222222"/>
</g>
  <g id="694" style="stroke-miterlimit: 3; fill: #F1F1F1; stroke: #000000; stroke-opacity: 1; stroke-width: 0.05; stroke-linejoin: bevel; stroke-linecap: square">
    <polygon id="Sierra Leone" points="231.3,0.0 233.9,0.9 234.9,2.3 239.5,11.3 240.9,12.1 244.5,15.3 246.8,17.5 248.9,20.0 250.3,22.0 256.1,32.1 261.8,42.1 268.9,49.4 273.1,53.0 276.4,55.9 276.7,56.8 275.7,62.1 274.9,63.6 274.3,64.1 273.6,64.6 271.2,68.2 269.8,72.9 269.8,73.5 270.1,74.3 270.8,74.8 271.6,74.9 272.7,75.0 274.8,74.8 279.9,75.1 280.8,75.3 283.6,76.3 283.1,77.8 281.7,81.8 281.5,82.7 281.2,84.7 281.7,91.2 281.9,92.7 282.6,95.4 288.3,103.5 289.1,104.6 286.7,112.0 286.2,112.0 283.2,113.7 279.7,118.0 273.6,133.0 273.4,138.2 284.5,137.5 285.4,137.2 286.5,136.6 287.5,135.9 289.7,134.4 290.3,133.9 294.5,129.8 295.6,127.0 298.1,122.8 298.6,122.2 303.5,121.1 308.3,122.7 308.5,125.2 308.5,125.7 306.0,145.9 305.5,147.0 303.5,149.0 302.2,150.0 301.1,150.6 295.1,151.1 294.2,150.9 293.2,150.7 291.7,150.7 291.2,150.8 289.5,151.4 288.8,151.8 287.8,152.4 287.0,153.3 281.1,159.6 281.1,173.9 280.6,181.0 277.0,181.9 274.3,183.2 272.6,184.9 271.1,186.7 269.2,189.3 262.5,197.7 261.3,199.3 259.8,200.6 258.4,201.5 256.2,202.6 255.4,202.6 254.8,202.2 254.2,202.2 240.3,212.5 238.0,215.2 237.5,215.8 237.3,216.7 237.0,217.6 233.6,222.6 232.9,223.0 232.0,223.3 229.3,224.0 226.9,224.7 223.9,226.1 221.2,231.5 220.9,234.3 220.1,237.4 217.8,242.3 214.4,248.5 213.8,249.0 211.0,250.0 208.7,249.7 205.4,248.6 202.6,247.5 202.1,247.0 200.9,245.8 196.8,242.4 196.1,241.9 194.5,240.7 188.9,236.9 182.0,232.7 180.2,231.8 176.3,230.2 141.3,217.3 136.4,215.6 131.5,213.9 130.1,213.5 128.7,213.3 126.4,212.3 127.0,207.4 129.2,204.0 131.6,201.4 132.2,200.8 134.7,200.5 138.1,200.5 141.5,200.8 142.4,201.0 142.9,201.0 148.6,198.9 151.4,197.5 152.1,196.6 152.5,195.8 152.3,195.1 147.2,194.3 146.3,196.0 145.2,196.5 143.5,197.2 136.0,199.5 135.0,199.6 132.2,199.1 130.1,198.7 124.0,192.3 123.5,191.6 119.6,188.4 118.5,188.4 111.1,186.7 105.1,183.6 96.6,177.3 89.4,170.6 89.5,169.9 94.3,167.9 95.6,167.5 95.3,165.4 93.5,154.3 90.9,149.8 90.2,149.4 89.0,148.9 88.1,148.1 87.6,147.5 87.1,145.2 87.6,143.5 88.1,142.3 85.5,143.5 75.2,146.6 73.4,145.0 68.5,134.8 63.4,128.0 62.6,122.1 63.4,121.9 70.0,122.3 71.5,123.6 72.1,124.1 73.4,125.6 73.8,126.4 74.1,127.2 74.5,127.9 80.5,132.3 81.3,132.5 81.9,132.5 82.9,132.1 83.2,131.6 80.7,129.5 78.5,128.2 76.3,127.0 75.7,126.5 75.7,126.0 76.3,124.9 78.3,123.0 84.9,117.2 86.9,116.9 91.5,117.5 94.4,116.3 91.8,114.7 90.4,114.3 83.2,114.7 77.8,115.3 77.4,116.1 74.5,120.3 73.9,120.8 73.2,120.8 72.6,120.3 71.5,118.6 70.6,117.2 66.5,108.3 66.3,98.7 66.3,97.2 66.6,95.8 67.3,94.8 69.0,93.1 69.6,92.6 75.3,92.4 71.7,88.2 67.4,85.4 64.4,84.9 62.7,81.5 62.0,78.5 62.4,77.6 63.9,76.4 64.6,76.0 65.9,75.5 70.8,74.1 71.3,74.1 74.1,76.4 75.1,77.1 76.3,77.5 77.3,77.6 77.8,77.5 79.1,77.0 83.5,74.1 85.4,72.7 85.9,72.0 88.0,67.3 89.2,62.1 90.1,58.9 90.5,58.2 91.7,57.6 92.2,57.6 97.2,57.7 97.9,58.2 100.6,57.9 102.5,56.9 112.0,47.2 113.3,42.4 116.0,34.5 117.2,31.8 119.9,29.7 119.7,29.2 119.7,27.6 127.3,10.9 130.3,8.9 148.2,4.8 148.8,5.2 149.1,6.5 149.6,7.1 154.4,9.6 156.2,10.0 158.5,9.5 175.7,5.7 176.0,4.9 175.5,4.2 175.3,3.3 175.4,2.3 175.9,0.1 201.8,0.0 202.4,0.1 209.5,0.0 211.4,0.0 231.3,0.0 " />
    <polygon id="Sierra Leone" points="124.7,208.7 121.9,209.6 120.6,207.4 119.5,206.3 118.8,205.9 117.0,204.9 115.3,204.4 112.0,203.3 111.2,203.0 109.0,202.4 106.8,201.9 102.0,200.8 90.1,197.8 94.4,194.4 95.4,193.8 111.4,192.1 112.5,192.0 115.1,191.8 116.1,191.9 119.3,192.2 124.6,195.0 125.2,195.5 127.0,197.1 127.1,202.8 124.7,208.7 " />
  </g>
</svg>