<?xml version="1.0" encoding="UTF-8" standalone="yes"?>
<!DOCTYPE svg PUBLIC "-//W3C//DTD SVG 1.0//EN" "http://www.w3.org/TR/2001/REC-SVG-20010904/DTD/svg10.dtd">
<svg height="250" width="370" xmlns="http://www.w3.org/2000/svg" xmlns:svg="http://www.w3.org/2000/svg" xmlns:xlink="http://www.w3.org/1999/xlink">


<g id="background">
<rect id="" width="370" height="250" fill="#222222"/>
</g>
  <g id="70" style="stroke-miterlimit: 3; fill: #F1F1F1; stroke: #000000; stroke-opacity: 1; stroke-width: 0.05; stroke-linejoin: bevel; stroke-linecap: square">
    <polygon id="Bosnia and Herzegovina" points="183.2,220.1 176.6,215.0 184.9,213.5 185.6,213.2 186.3,212.8 186.7,212.2 186.0,210.5 185.1,208.3 184.5,207.1 184.0,206.1 183.2,204.7 182.5,203.9 181.4,202.7 177.6,200.3 175.9,199.4 174.8,198.9 163.2,193.2 151.6,184.8 150.6,183.8 149.8,182.3 149.4,181.4 148.8,179.7 148.7,179.0 146.7,171.4 146.8,170.7 147.2,170.1 148.0,169.4 148.2,168.7 147.9,168.0 147.2,167.2 145.9,166.4 143.7,165.5 137.8,163.7 133.6,162.9 132.1,162.2 129.6,161.1 128.5,160.5 127.3,159.8 120.8,155.5 118.9,153.9 117.2,152.2 107.2,142.6 96.3,133.3 95.9,131.9 95.3,131.0 94.9,130.5 90.6,125.7 89.9,125.0 80.1,116.0 79.5,115.6 78.2,115.2 77.1,115.1 73.3,114.7 71.0,114.3 69.9,113.8 68.9,113.2 63.3,109.7 61.8,108.6 60.9,107.6 60.3,106.3 59.8,104.6 59.1,103.5 58.4,102.7 56.4,100.8 54.9,99.7 53.5,99.0 52.4,98.8 50.3,98.9 48.8,99.1 46.4,99.4 45.2,99.4 44.3,99.2 43.7,98.7 48.2,88.1 48.7,84.5 42.8,72.2 42.1,71.0 41.4,70.3 40.7,69.9 37.3,68.1 33.5,64.1 31.4,60.1 26.9,53.0 26.4,52.4 25.2,51.6 23.8,51.3 18.8,51.4 17.8,51.3 17.0,51.1 8.9,45.4 8.2,44.6 6.5,42.8 6.1,42.0 6.2,40.9 6.7,40.4 9.0,31.8 8.6,19.4 8.6,17.8 8.7,17.0 10.1,9.6 10.7,8.7 11.3,8.0 12.1,7.2 12.9,6.5 14.1,5.6 15.1,5.0 19.5,4.0 23.5,3.5 24.5,3.5 31.8,4.4 32.5,4.7 33.8,5.6 40.5,12.5 41.2,13.4 48.7,20.5 49.8,21.4 50.8,22.0 53.4,23.2 54.8,23.9 57.4,24.7 62.1,24.5 62.9,24.3 63.5,23.8 63.7,23.1 64.3,20.7 69.1,13.1 74.5,7.4 76.9,5.2 77.5,4.8 79.1,3.8 80.5,3.6 85.0,3.3 86.1,3.3 88.7,4.2 91.8,5.2 93.6,5.6 105.6,7.3 106.7,7.3 108.0,7.0 108.7,6.6 108.8,5.9 115.0,0.0 126.4,3.6 126.7,4.9 127.0,5.5 127.6,6.0 129.6,7.2 139.4,10.9 140.4,10.9 144.3,11.0 145.3,10.9 145.8,10.5 149.2,8.3 167.5,12.5 167.8,13.7 167.8,14.3 168.7,14.4 171.1,14.5 178.2,14.5 186.9,13.3 193.2,16.6 200.1,19.5 201.9,20.0 203.0,20.1 203.9,20.0 207.5,18.3 209.4,17.2 222.1,15.0 225.8,16.7 226.7,16.9 227.6,17.0 231.0,17.3 232.2,17.4 233.9,17.1 234.6,16.8 235.3,16.4 235.8,15.8 235.7,15.2 235.3,14.6 235.1,14.0 235.2,13.2 235.6,12.6 237.2,12.0 238.9,11.8 240.6,12.0 254.4,14.5 274.3,16.9 289.1,24.9 289.3,25.5 289.7,29.3 289.4,30.0 288.7,30.3 287.9,30.2 287.2,29.8 286.3,29.7 286.1,30.3 286.7,32.4 288.5,33.9 289.1,34.3 292.8,36.8 293.5,37.3 294.3,37.5 295.3,37.7 304.2,38.2 305.2,38.2 310.9,37.6 311.9,37.5 319.4,33.8 323.7,31.9 324.6,31.7 325.6,31.7 335.9,32.9 336.9,33.1 342.6,34.9 343.5,37.0 340.2,46.0 339.3,48.0 337.2,52.0 326.1,65.3 320.8,68.6 320.0,68.9 319.6,69.6 317.9,82.3 317.8,84.3 320.0,87.9 322.8,90.5 323.5,90.9 329.9,92.6 341.3,97.8 353.2,106.1 363.4,111.6 365.3,112.1 365.6,112.7 365.7,115.2 365.2,115.7 357.5,120.7 356.7,121.0 355.8,121.1 353.1,121.0 347.9,120.9 342.8,120.4 342.0,120.1 341.5,119.6 341.1,119.1 337.0,117.5 330.8,115.9 330.1,116.2 330.1,116.9 331.4,120.7 342.1,130.2 348.7,135.7 352.2,138.3 353.3,139.1 353.8,140.0 354.3,141.3 354.5,141.9 355.0,143.2 355.4,145.0 355.4,145.7 355.5,146.9 353.9,155.4 352.7,156.9 346.0,155.7 334.8,159.4 329.4,162.3 327.8,161.5 309.3,158.3 303.7,162.3 303.4,163.0 303.5,163.8 304.1,167.4 304.5,167.9 306.0,167.9 307.1,167.9 308.0,168.1 309.2,168.6 310.3,169.5 310.7,170.1 316.8,181.2 316.7,181.9 315.5,185.5 314.9,186.8 314.5,187.5 313.3,188.3 312.7,188.4 309.7,187.6 304.2,182.9 303.7,182.0 303.9,181.2 304.5,180.3 304.5,179.6 300.7,176.7 300.2,176.6 299.7,176.6 297.8,176.8 296.4,177.0 293.3,177.6 281.0,185.7 280.4,186.1 275.4,196.2 275.2,196.9 275.3,197.6 275.8,198.5 276.1,199.1 276.5,201.3 276.6,202.4 276.5,203.1 275.9,205.4 275.5,206.0 274.9,206.4 274.1,206.6 269.3,207.1 266.7,207.7 265.2,208.2 264.1,208.7 262.7,209.7 261.6,210.7 260.4,212.4 260.1,213.1 259.9,213.8 257.7,225.2 257.8,226.0 261.0,231.4 263.3,234.7 264.3,235.3 265.2,235.5 266.2,235.6 267.3,236.2 267.6,236.7 269.0,241.0 269.1,241.7 268.8,242.8 268.4,243.5 266.5,245.0 265.3,245.8 258.5,249.7 257.8,250.0 253.7,246.2 252.4,245.5 249.1,244.4 247.7,244.1 246.6,244.2 244.4,245.0 243.6,245.3 242.3,245.5 241.2,245.4 240.5,245.1 237.1,242.9 236.1,242.3 230.4,238.0 215.5,231.9 213.9,231.3 211.9,230.2 204.7,226.5 204.2,226.1 201.5,223.1 200.9,221.8 196.8,218.7 191.9,217.2 189.2,216.6 187.6,216.5 186.7,217.1 183.2,220.1 " />
  </g>
</svg>