<?xml version="1.0" encoding="UTF-8" standalone="yes"?>
<!DOCTYPE svg PUBLIC "-//W3C//DTD SVG 1.0//EN" "http://www.w3.org/TR/2001/REC-SVG-20010904/DTD/svg10.dtd">
<svg height="250" width="370" xmlns="http://www.w3.org/2000/svg" xmlns:svg="http://www.w3.org/2000/svg" xmlns:xlink="http://www.w3.org/1999/xlink">


<g id="background">
<rect id="" width="370" height="250" fill="#222222"/>
</g>
  <g id="702" style="stroke-miterlimit: 3; fill: #F1F1F1; stroke: #000000; stroke-opacity: 1; stroke-width: 0.05; stroke-linejoin: bevel; stroke-linecap: square">
    <polygon id="Singapore" points="361.4,93.4 368.0,100.3 370.0,105.5 369.1,111.8 365.1,122.4 355.6,133.9 329.8,158.0 211.0,221.7 204.7,222.0 162.8,221.4 12.4,179.2 7.5,176.9 4.0,173.5 1.4,169.2 0.0,163.4 0.3,157.7 2.6,147.1 30.1,85.7 32.4,80.8 38.2,72.4 45.0,64.7 56.0,54.4 64.6,49.2 75.2,45.8 168.8,29.7 182.3,29.4 194.9,31.1 214.4,40.3 246.6,58.4 259.2,67.3 264.1,69.6 337.8,89.4 361.4,93.4 " />
  </g>
</svg>