<?xml version="1.0" encoding="UTF-8" standalone="yes"?>
<!DOCTYPE svg PUBLIC "-//W3C//DTD SVG 1.0//EN" "http://www.w3.org/TR/2001/REC-SVG-20010904/DTD/svg10.dtd">
<svg height="250" width="370" xmlns="http://www.w3.org/2000/svg" xmlns:svg="http://www.w3.org/2000/svg" xmlns:xlink="http://www.w3.org/1999/xlink">


<g id="background">
<rect id="" width="370" height="250" fill="#222222"/>
</g>
  <g id="703" style="stroke-miterlimit: 3; fill: #F1F1F1; stroke: #000000; stroke-opacity: 1; stroke-width: 0.05; stroke-linejoin: bevel; stroke-linecap: square">
    <polygon id="Slovakia" points="26.6,167.4 26.0,167.3 22.7,167.5 22.1,167.6 21.1,168.2 17.9,166.5 15.6,163.3 14.8,160.2 12.9,159.8 12.3,159.6 10.2,158.0 8.8,156.8 7.4,153.3 7.2,152.3 7.1,151.0 5.6,150.9 0.5,146.0 0.1,145.4 0.0,144.6 1.0,139.9 1.6,138.8 4.4,136.2 6.0,134.5 6.7,131.9 6.9,128.9 9.6,124.9 11.8,120.9 12.9,119.5 17.5,115.3 22.5,112.7 25.3,112.5 25.9,112.5 26.7,112.6 31.8,114.0 34.7,115.5 35.3,115.7 36.5,115.8 37.4,115.5 42.9,114.7 52.1,113.9 52.7,113.9 54.2,113.9 56.4,113.6 59.4,112.3 64.8,108.9 69.3,105.3 79.9,101.6 83.0,98.9 84.6,96.8 84.9,96.2 84.5,94.9 85.1,94.0 85.5,93.0 86.3,90.7 86.4,88.7 86.7,88.1 88.5,85.9 89.1,85.6 92.5,84.9 93.3,84.8 94.9,84.6 95.6,84.4 99.6,82.9 110.1,75.0 110.5,74.3 110.5,73.3 110.7,72.8 111.4,72.3 112.7,72.1 117.5,71.7 126.4,71.0 130.1,70.8 137.7,73.1 137.7,74.8 137.9,78.1 138.3,78.6 139.3,78.8 141.8,78.9 149.8,78.4 150.4,78.4 151.8,77.8 152.6,77.2 152.4,76.4 152.9,75.5 155.3,71.6 156.9,70.4 157.7,70.0 168.7,65.4 170.5,65.5 173.5,67.1 174.4,69.6 177.0,74.5 182.4,78.0 185.7,78.6 189.5,77.9 190.3,77.8 190.9,78.0 191.9,80.7 193.3,86.1 193.1,86.6 191.4,87.9 189.8,89.2 189.3,90.3 189.7,90.9 190.2,91.3 190.9,91.5 194.1,91.9 195.9,91.5 198.5,89.8 199.1,89.5 200.4,89.3 202.8,89.6 203.5,89.7 204.2,89.9 204.6,90.5 205.8,91.4 207.0,92.1 208.6,92.8 209.3,92.9 210.0,92.8 210.4,91.6 210.5,90.5 211.2,88.2 213.8,83.9 217.8,82.3 225.7,79.5 227.8,78.9 243.5,78.7 252.4,79.1 257.0,82.9 263.4,85.1 266.3,84.8 267.9,84.3 271.5,81.0 272.4,77.8 273.5,77.1 274.1,76.9 287.2,74.7 295.1,76.5 297.4,77.5 298.9,77.7 299.6,77.6 301.6,77.0 303.7,76.5 308.4,76.0 309.2,76.1 323.4,79.4 331.1,82.2 335.1,86.3 335.5,88.3 335.5,89.5 335.6,90.0 336.3,90.6 337.0,90.8 348.4,94.3 354.8,95.3 356.1,95.3 356.8,95.4 368.4,98.5 369.0,98.7 370.0,99.1 369.6,101.7 368.8,104.3 368.1,104.8 363.7,107.6 361.4,111.4 359.1,116.9 359.1,117.4 355.3,124.3 354.8,124.9 349.1,128.6 345.1,130.6 344.2,131.4 344.0,132.2 343.7,142.3 341.1,144.4 340.5,144.6 339.4,144.5 338.6,144.2 337.6,144.0 335.8,143.9 331.6,144.3 329.7,144.5 325.0,145.3 324.4,145.5 323.9,145.8 323.3,146.3 322.8,146.9 319.9,147.0 316.5,146.3 315.7,145.9 309.8,139.9 309.5,138.7 309.5,138.1 309.4,137.6 309.1,136.9 302.0,133.5 298.2,131.9 297.1,131.7 289.2,133.5 285.6,135.2 279.1,135.9 274.6,135.8 266.3,135.2 265.3,134.9 260.8,133.4 259.3,132.5 258.8,132.0 258.2,131.8 257.4,131.7 250.6,132.2 247.2,132.5 246.2,132.8 239.4,134.3 236.9,136.4 236.8,137.7 234.2,139.5 233.2,140.4 232.7,140.9 231.4,142.8 231.1,143.5 230.7,145.0 230.6,145.5 228.2,149.0 227.7,149.6 226.5,150.5 225.0,151.5 223.9,152.3 223.4,152.5 222.6,152.5 219.7,151.2 213.6,154.4 210.5,156.2 208.3,157.6 205.5,157.7 204.8,157.8 202.8,158.9 202.1,159.3 200.7,160.1 199.2,160.6 198.5,160.6 190.8,157.2 191.0,156.5 190.5,156.0 188.6,155.4 182.6,154.0 181.5,153.9 180.6,153.9 174.7,155.2 173.7,155.7 172.7,157.8 172.2,159.3 172.0,160.0 171.8,160.7 170.9,162.8 170.3,163.4 169.6,163.4 153.2,165.1 148.8,165.0 142.5,164.4 139.9,164.5 139.1,164.7 137.5,165.1 133.9,165.2 130.0,165.7 128.6,166.7 125.0,171.2 124.3,173.8 124.2,175.0 124.7,176.9 126.0,177.3 128.1,178.3 130.3,179.8 130.0,180.8 126.1,180.8 124.6,180.9 123.6,181.1 122.9,181.5 122.5,182.1 121.7,182.8 119.7,183.9 118.8,184.4 117.5,184.6 116.3,184.6 113.7,184.3 110.1,184.0 104.3,184.0 101.8,184.9 99.6,185.4 96.9,185.8 95.3,186.0 94.3,186.0 87.7,185.3 83.6,184.8 82.8,184.7 80.6,184.6 73.5,184.3 69.7,185.0 68.7,185.2 61.5,185.4 56.4,183.8 41.8,176.9 40.5,176.2 40.0,175.7 39.4,175.0 39.0,174.4 37.0,172.6 33.4,169.7 32.4,169.2 30.5,169.1 28.0,168.9 27.5,168.7 26.8,168.0 26.6,167.4 " />
  </g>
</svg>