<?xml version="1.0" encoding="UTF-8" standalone="yes"?>
<!DOCTYPE svg PUBLIC "-//W3C//DTD SVG 1.0//EN" "http://www.w3.org/TR/2001/REC-SVG-20010904/DTD/svg10.dtd">
<svg height="250" width="370" xmlns="http://www.w3.org/2000/svg" xmlns:svg="http://www.w3.org/2000/svg" xmlns:xlink="http://www.w3.org/1999/xlink">


<g id="background">
<rect id="" width="370" height="250" fill="#222222"/>
</g>
  <g id="704" style="stroke-miterlimit: 3; fill: #F1F1F1; stroke: #000000; stroke-opacity: 1; stroke-width: 0.05; stroke-linejoin: bevel; stroke-linecap: square">
    <polygon id="Vietnam" points="182.1,4.7 182.9,4.7 185.3,5.3 186.5,6.4 186.9,6.9 189.1,6.7 189.4,6.2 190.6,5.8 191.6,5.9 192.5,6.1 193.0,6.3 193.5,7.1 193.5,7.7 194.1,8.1 195.0,8.1 197.3,7.5 197.8,7.0 199.3,7.1 201.1,7.9 202.1,8.7 202.6,9.7 201.4,11.9 200.1,12.2 199.6,12.3 198.6,14.9 198.7,15.6 198.8,16.5 199.4,16.9 200.0,17.0 201.1,18.8 200.6,19.2 201.0,22.1 201.8,22.6 203.9,22.9 204.6,23.1 206.4,23.6 206.9,23.8 207.0,24.4 206.5,25.1 206.6,25.6 209.7,27.4 210.3,27.6 211.1,27.1 211.9,27.9 212.4,29.3 215.1,29.6 217.4,29.2 218.1,28.9 218.6,28.7 219.2,28.3 220.6,28.4 221.7,29.5 222.1,30.1 222.6,30.4 223.7,30.7 224.3,31.2 222.1,32.1 221.7,31.6 221.7,30.7 220.7,30.6 219.7,31.4 218.1,32.9 216.4,34.5 214.4,34.6 213.3,34.0 212.4,35.0 212.2,36.3 212.7,37.2 212.5,37.7 212.4,38.5 212.5,39.1 211.9,39.4 210.7,39.5 210.1,39.6 208.8,40.8 207.5,40.4 207.6,39.8 208.2,39.2 208.7,38.9 206.8,39.6 206.5,40.3 205.8,40.4 205.2,40.3 204.7,40.1 204.0,39.8 204.4,40.3 204.9,40.6 205.2,41.1 204.2,41.1 203.9,41.7 203.4,40.9 202.4,40.6 202.9,40.2 203.0,39.3 200.3,39.1 200.6,39.8 201.3,40.4 202.1,40.6 201.8,41.4 201.1,41.6 201.9,42.2 201.6,42.9 202.5,43.9 202.4,44.6 200.9,45.6 200.3,45.8 199.4,45.7 199.8,46.4 199.2,50.5 198.9,51.5 198.1,51.1 198.7,51.8 198.3,52.3 197.4,52.8 195.1,53.6 194.8,54.2 192.8,56.3 192.2,56.7 191.2,57.0 191.2,55.9 190.7,57.0 190.0,56.7 188.7,57.5 187.8,59.9 186.1,63.2 186.2,63.8 186.0,65.6 185.7,66.5 185.7,67.3 186.0,68.7 184.9,69.5 183.3,72.2 182.7,73.3 183.1,75.1 184.0,75.7 185.0,77.0 185.2,78.6 185.8,78.9 186.1,79.7 186.6,80.7 187.1,81.5 187.8,82.3 190.2,84.9 191.2,85.7 192.0,85.8 193.6,86.6 196.8,89.6 197.2,90.2 197.6,90.7 197.0,92.3 196.8,92.9 196.5,94.6 197.7,95.5 199.2,97.8 200.2,99.3 201.1,100.4 201.9,101.3 203.2,102.3 205.2,103.8 206.5,104.7 207.1,105.2 208.1,105.7 208.4,107.0 209.2,108.9 212.0,110.7 214.2,112.4 215.4,113.3 214.3,113.1 213.7,113.2 214.7,113.8 215.5,114.0 216.3,114.3 218.0,115.4 220.2,117.6 219.7,117.6 219.9,118.8 221.2,119.4 221.8,119.2 222.0,118.6 222.6,118.4 223.6,118.6 224.6,119.9 226.3,120.7 225.6,121.4 225.5,122.1 226.5,124.1 227.1,123.6 227.0,123.0 227.1,121.8 228.7,121.5 228.5,122.2 227.6,122.4 227.6,123.0 227.7,123.5 227.9,124.4 228.3,125.0 230.3,127.4 232.0,130.2 233.7,132.9 235.5,134.1 236.7,133.8 237.2,133.9 238.1,136.3 238.3,138.8 238.8,141.0 239.2,141.8 239.6,142.7 239.8,143.3 240.2,144.1 241.4,145.6 241.6,146.5 241.4,147.1 241.4,148.7 242.1,151.1 242.7,152.3 243.2,152.9 243.5,153.9 243.7,155.9 244.4,157.4 245.2,160.2 245.2,160.9 245.3,161.9 244.6,162.2 244.5,161.1 244.5,160.0 243.7,161.0 243.8,162.4 244.0,163.1 244.1,164.1 244.4,165.5 244.3,166.5 243.9,167.4 243.9,167.9 245.1,172.5 245.4,173.0 246.4,174.5 246.7,175.0 247.3,175.5 247.9,176.4 247.9,176.9 247.4,177.5 246.3,177.9 244.0,180.2 243.4,181.1 243.4,182.0 243.5,182.5 244.3,183.3 245.1,184.0 245.9,185.0 245.2,185.9 244.7,185.7 244.3,185.0 243.8,184.5 243.2,184.1 242.5,184.4 243.0,185.0 243.7,186.3 243.6,187.1 243.5,190.0 244.6,193.6 243.9,192.9 243.9,192.1 243.3,189.8 243.1,190.9 243.5,191.5 243.6,192.1 243.4,192.8 242.8,193.4 242.3,193.8 242.1,194.3 243.3,195.3 243.8,195.9 243.6,196.8 243.1,198.0 242.3,199.1 241.4,198.9 240.8,198.5 240.4,200.0 240.4,201.2 240.3,202.0 240.5,202.5 239.6,203.3 239.0,203.5 238.5,203.3 237.8,203.0 236.9,203.3 236.1,203.9 234.5,205.5 233.0,205.6 232.3,206.1 231.7,206.7 231.3,207.3 227.4,209.6 226.8,209.6 225.4,209.9 224.7,210.4 224.1,211.3 223.9,212.0 223.7,212.6 223.4,213.2 223.1,213.8 222.4,213.7 221.8,213.5 221.3,213.5 220.3,213.8 219.7,214.3 219.0,214.8 216.1,215.9 215.3,216.8 214.0,217.6 211.8,218.1 211.1,218.8 210.1,218.9 209.8,218.2 209.1,217.6 208.5,217.7 207.1,217.2 206.8,216.6 206.7,215.3 206.6,214.8 206.6,215.6 206.6,216.5 206.1,216.0 206.2,215.2 205.9,216.0 206.1,216.7 205.8,217.5 205.5,217.0 205.1,216.0 205.2,215.5 204.6,214.9 202.7,214.3 202.2,214.1 202.0,214.7 202.3,215.6 201.8,216.1 201.8,216.9 200.8,217.2 200.0,217.8 199.3,218.3 201.6,217.7 202.7,218.9 202.7,220.3 202.6,220.9 200.9,220.7 200.3,220.9 199.0,220.7 198.4,220.4 197.7,220.5 197.0,220.4 196.5,220.3 197.2,220.8 199.1,221.5 200.4,221.9 201.0,222.0 202.7,222.9 202.9,223.5 202.5,224.2 200.3,226.1 199.7,226.1 197.6,225.0 196.1,223.2 195.8,222.6 195.4,222.0 194.9,221.5 194.3,221.3 195.8,223.5 196.9,224.7 197.6,225.5 198.2,225.8 198.9,226.0 200.6,227.1 201.0,227.8 200.6,228.3 199.8,228.8 197.5,227.0 196.7,226.6 195.8,226.0 194.3,224.5 193.6,223.7 193.2,223.2 192.1,222.1 191.4,221.6 192.1,222.8 193.9,224.6 194.4,225.2 197.0,227.7 197.8,228.7 198.9,230.0 199.1,231.2 199.0,231.7 198.5,232.7 197.9,233.2 196.4,233.5 193.6,232.0 190.6,229.3 189.9,228.5 189.4,227.8 189.0,227.2 187.9,226.2 186.5,225.6 187.3,226.7 188.0,227.3 188.7,228.0 189.5,228.9 190.2,229.6 190.6,230.2 192.4,233.1 192.8,233.7 192.9,234.2 192.6,236.3 191.9,236.5 189.2,237.4 187.0,238.3 186.3,238.6 182.9,239.8 181.9,240.2 181.3,240.4 180.1,241.6 179.3,242.5 179.0,243.5 178.4,245.0 178.1,245.6 177.6,246.3 174.6,248.8 172.7,249.4 170.2,250.0 168.4,249.5 169.7,248.3 170.5,247.7 171.0,246.9 171.0,245.9 170.4,246.1 169.8,246.4 169.1,246.4 168.9,245.9 169.1,242.3 169.4,238.1 169.5,237.1 169.6,235.0 169.6,233.5 169.6,232.9 170.0,230.8 170.3,229.6 170.5,229.0 172.9,226.9 173.4,226.7 174.0,227.2 174.2,227.9 174.2,226.5 173.9,225.8 173.3,225.0 172.2,223.9 171.3,223.9 170.7,224.1 169.9,223.3 169.4,222.7 169.1,222.1 168.1,221.7 167.6,221.7 165.8,222.8 165.5,221.8 165.3,221.1 163.9,219.0 163.0,218.5 163.7,218.5 164.7,217.9 165.0,217.2 165.5,216.6 166.7,216.5 167.3,216.6 167.9,216.7 168.5,216.8 169.0,216.8 169.8,216.8 170.4,216.6 171.0,215.9 171.3,215.3 172.0,214.6 173.3,213.9 173.9,213.6 174.0,213.1 173.4,211.7 173.0,210.8 173.2,210.3 174.0,209.5 175.6,210.3 176.3,210.6 177.5,210.8 178.4,210.9 178.7,210.3 179.6,209.3 181.2,209.6 181.8,209.5 182.3,209.4 183.1,209.2 184.0,208.8 184.5,208.5 185.1,208.3 186.9,210.1 188.6,210.7 190.7,212.0 192.7,212.6 192.3,210.9 191.8,210.1 191.8,209.3 192.5,209.1 192.6,207.9 192.0,207.1 191.4,207.3 188.4,205.3 187.1,203.8 187.3,202.5 187.6,201.4 187.3,199.6 186.2,198.6 186.8,197.5 187.3,197.3 187.8,197.5 188.4,197.9 189.5,196.6 189.6,196.1 190.0,195.6 190.6,195.6 193.7,196.4 194.3,197.1 196.4,197.3 197.0,197.4 196.9,196.7 196.7,195.3 197.1,193.7 196.4,192.4 199.8,192.2 201.1,192.4 201.7,192.2 202.6,190.5 203.8,190.6 204.5,190.7 205.5,190.5 207.1,189.4 207.6,188.8 208.1,188.1 208.9,187.2 209.4,186.9 210.3,186.6 211.2,186.3 212.1,186.1 212.6,186.5 213.4,187.5 215.3,186.0 215.6,185.5 216.3,182.4 216.2,181.6 215.8,178.3 215.0,177.2 214.6,175.7 214.4,174.5 216.5,169.6 217.0,168.4 216.9,165.8 216.2,164.8 214.1,161.4 214.2,160.6 214.2,159.1 212.7,157.9 212.0,156.0 212.1,155.5 212.7,154.0 212.8,153.1 212.6,152.4 213.1,150.8 213.7,150.5 214.2,150.8 214.7,149.8 215.2,148.7 215.7,146.9 215.6,146.1 215.5,143.6 215.4,142.4 214.4,141.6 214.1,140.7 216.1,140.3 216.6,140.0 217.1,138.9 217.6,137.5 218.0,136.4 216.3,134.5 215.0,133.1 213.3,132.5 212.3,131.6 210.7,130.1 209.4,128.1 209.2,127.6 209.6,126.5 210.2,126.3 213.0,125.6 214.1,124.0 214.1,122.8 212.7,123.0 212.0,123.2 209.5,121.4 208.9,120.9 208.7,120.2 208.7,119.6 207.8,119.0 206.7,118.9 206.0,119.0 205.9,118.4 204.4,115.3 203.9,114.9 203.3,115.5 203.1,116.1 202.6,116.7 202.1,117.0 201.2,116.7 199.0,113.2 198.8,112.6 198.7,109.2 198.7,108.2 198.8,107.2 198.3,107.7 196.8,107.4 196.4,106.1 195.1,104.3 193.7,103.0 192.9,102.8 191.9,102.0 190.9,101.2 190.0,100.3 188.1,98.2 187.5,97.3 186.9,96.7 186.4,96.3 185.8,96.1 185.2,95.9 183.9,93.4 183.0,90.5 182.2,89.4 180.9,87.4 179.2,87.4 178.4,87.4 177.8,86.9 177.9,86.2 177.4,86.1 176.8,86.0 175.5,84.6 174.3,83.0 174.1,82.4 174.3,81.6 174.9,80.2 175.7,79.9 175.7,79.4 174.8,78.9 174.2,78.5 172.9,78.1 171.3,77.7 168.1,76.8 166.8,76.1 165.4,75.2 164.7,74.3 164.4,73.7 160.4,71.5 159.2,71.5 159.3,70.9 158.5,70.2 156.6,69.3 155.7,69.3 153.4,68.4 154.9,66.8 155.9,66.3 157.2,65.2 157.2,64.7 157.2,63.9 156.6,63.6 156.1,62.8 155.8,62.1 156.4,61.8 157.0,62.1 157.7,62.2 159.1,61.5 159.6,61.4 162.6,62.0 163.1,62.4 164.2,63.1 165.1,63.1 166.3,63.0 166.6,62.3 166.7,61.7 167.5,60.7 168.5,60.5 169.5,60.1 169.9,59.2 169.2,58.7 168.7,58.7 168.9,58.2 169.7,57.5 170.7,56.9 171.7,56.6 172.1,54.8 171.4,53.4 169.9,52.6 167.6,51.1 167.4,50.6 166.0,49.4 165.0,49.3 164.4,49.5 162.6,49.2 162.0,49.0 163.1,47.9 164.2,47.7 165.6,46.4 166.3,45.7 165.8,45.2 164.0,44.4 162.4,43.3 161.3,42.3 161.1,41.7 160.5,41.2 159.4,40.7 158.7,40.5 157.3,39.9 153.0,42.0 151.7,43.1 151.6,43.9 151.1,45.0 150.3,45.3 149.4,44.3 148.8,43.9 145.7,43.0 144.6,42.8 142.2,42.4 141.6,42.2 140.6,41.4 140.0,40.3 139.3,38.9 137.6,36.9 137.1,36.7 137.2,35.7 136.6,35.2 136.9,33.0 136.9,32.1 136.4,32.2 136.7,31.7 137.6,30.6 138.1,30.0 138.4,29.2 138.3,27.5 138.1,27.0 136.2,27.3 134.5,28.1 133.1,28.4 132.7,27.1 132.8,26.3 132.6,25.1 131.9,23.8 131.0,23.6 130.4,23.4 129.2,21.4 128.8,20.7 127.0,19.2 126.4,18.9 125.7,18.5 124.8,17.6 124.7,17.0 124.3,16.1 124.5,15.4 126.2,14.3 128.2,12.3 128.8,10.9 129.2,10.1 129.6,9.5 130.2,9.5 133.5,11.0 136.0,12.3 136.5,13.0 137.3,14.3 138.9,15.2 139.6,15.2 141.3,13.5 144.0,9.2 144.8,9.2 145.3,9.6 145.8,10.3 145.8,10.8 146.3,11.7 146.8,12.3 147.4,12.7 148.4,11.7 148.3,11.2 148.1,10.6 148.9,9.4 149.6,9.3 152.0,11.6 152.5,12.2 153.1,12.8 153.9,13.5 154.7,14.0 155.6,13.7 155.7,13.2 156.0,11.2 156.4,10.2 157.2,9.2 159.6,8.5 159.8,9.2 159.9,10.1 161.5,11.0 163.3,10.0 163.9,9.4 164.6,8.9 165.2,8.5 166.3,8.6 166.8,8.8 167.7,8.8 169.9,6.4 169.4,4.4 169.4,3.9 170.8,2.6 176.7,0.5 178.4,0.0 179.1,0.9 181.3,2.6 181.8,3.1 181.9,3.8 181.9,4.3 " />
    <polygon id="Vietnam" points="223.1,32.8 222.3,33.2 221.3,33.3 220.2,33.3 220.9,33.0 222.4,32.7 223.0,32.7 " />
    <polygon id="Vietnam" points="218.8,34.3 218.2,34.4 219.7,33.5 218.9,34.2 " />
    <polygon id="Vietnam" points="212.7,38.7 212.6,38.2 213.7,35.5 214.2,34.9 215.1,35.7 216.4,35.8 215.4,36.9 214.7,37.3 214.0,38.0 213.0,38.6 " />
    <polygon id="Vietnam" points="214.9,37.3 " />
    <polygon id="Vietnam" points="216.0,39.9 215.8,39.2 216.1,38.2 216.7,37.5 216.5,38.3 216.1,39.8 " />
    <polygon id="Vietnam" points="220.8,38.9 220.3,39.6 220.3,38.9 " />
    <polygon id="Vietnam" points="214.0,41.1 213.0,41.3 213.8,40.8 214.4,40.0 214.7,39.3 215.5,38.9 215.0,40.7 214.2,41.1 " />
    <polygon id="Vietnam" points="218.9,40.6 218.7,39.5 219.3,39.5 219.4,40.1 218.9,40.6 " />
    <polygon id="Vietnam" points="202.0,40.3 201.1,40.3 201.9,40.1 " />
    <polygon id="Vietnam" points="214.0,40.5 214.1,40.0 214.0,40.5 " />
    <polygon id="Vietnam" points="204.4,40.1 " />
    <polygon id="Vietnam" points="214.5,42.2 215.5,40.1 215.4,40.9 214.5,42.2 " />
    <polygon id="Vietnam" points="205.3,40.6 " />
    <polygon id="Vietnam" points="204.1,43.1 203.4,42.6 202.7,42.1 202.2,41.7 202.5,40.9 203.0,40.9 203.8,42.0 204.4,42.9 " />
    <polygon id="Vietnam" points="202.0,42.0 201.5,41.7 202.0,41.9 " />
    <polygon id="Vietnam" points="207.4,44.1 206.1,44.0 204.9,43.0 204.6,42.5 205.6,42.0 206.5,41.9 207.7,42.6 207.4,44.1 " />
    <polygon id="Vietnam" points="212.6,42.9 212.0,42.7 211.8,42.2 212.7,42.5 " />
    <polygon id="Vietnam" points="218.6,54.3 " />
    <polygon id="Vietnam" points="221.8,118.2 221.2,118.2 217.8,114.9 219.2,115.6 221.8,117.9 " />
    <polygon id="Vietnam" points="246.7,185.8 " />
    <polygon id="Vietnam" points="245.7,188.6 245.1,188.7 244.4,188.3 245.1,187.9 245.7,188.0 245.7,188.6 " />
    <polygon id="Vietnam" points="203.7,218.8 203.2,218.7 202.6,218.2 202.2,217.6 202.0,216.2 202.5,215.9 202.5,215.3 202.2,214.7 203.3,215.1 203.9,215.7 203.7,216.6 204.1,217.1 203.9,217.7 203.8,218.2 203.8,218.7 " />
    <polygon id="Vietnam" points="204.6,216.8 204.0,216.6 203.7,216.0 204.0,215.5 203.7,215.0 204.2,214.9 205.0,215.6 205.0,216.3 " />
    <polygon id="Vietnam" points="239.4,217.1 238.8,216.5 239.3,216.5 239.5,217.0 " />
    <polygon id="Vietnam" points="204.4,219.3 204.1,218.5 204.2,217.5 204.3,217.0 205.0,216.8 205.2,218.0 205.9,218.7 204.4,219.3 " />
    <polygon id="Vietnam" points="207.8,220.2 207.3,219.2 208.9,218.4 208.9,217.9 209.4,218.1 207.8,220.2 " />
    <polygon id="Vietnam" points="156.9,219.5 156.9,221.4 155.9,224.3 154.8,222.0 154.6,221.5 154.2,220.9 153.4,220.5 152.7,219.5 155.1,218.3 155.7,218.2 156.4,218.8 156.8,219.4 " />
    <polygon id="Vietnam" points="200.1,221.0 200.7,220.9 201.8,221.1 202.0,221.6 200.7,221.4 200.2,221.2 198.4,220.9 198.9,220.9 200.1,221.0 " />
    <polygon id="Vietnam" points="199.4,221.3 199.9,221.3 200.5,221.4 199.9,221.4 199.2,221.3 " />
    <polygon id="Vietnam" points="198.5,228.6 196.7,227.0 197.2,227.0 198.4,228.1 " />
    <polygon id="Vietnam" points="193.7,233.6 192.8,233.1 191.8,231.7 191.3,231.0 190.8,229.8 191.7,230.9 192.4,231.7 193.2,232.3 193.8,232.5 194.3,233.0 193.9,233.5 " />
    <polygon id="Vietnam" points="147.0,237.2 146.6,237.8 146.6,237.3 " />
    <polygon id="Vietnam" points="199.5,248.5 198.7,247.9 199.3,247.1 199.9,246.7 200.5,246.5 199.5,248.5 " />
  </g>
</svg>