<?xml version="1.0" encoding="UTF-8" standalone="yes"?>
<!DOCTYPE svg PUBLIC "-//W3C//DTD SVG 1.0//EN" "http://www.w3.org/TR/2001/REC-SVG-20010904/DTD/svg10.dtd">
<svg height="250" width="370" xmlns="http://www.w3.org/2000/svg" xmlns:svg="http://www.w3.org/2000/svg" xmlns:xlink="http://www.w3.org/1999/xlink">


<g id="background">
<rect id="" width="370" height="250" fill="#222222"/>
</g>
  <g id="705" style="stroke-miterlimit: 3; fill: #F1F1F1; stroke: #000000; stroke-opacity: 1; stroke-width: 0.05; stroke-linejoin: bevel; stroke-linecap: square">
    <polygon id="Slovenia" points="38.5,82.7 45.1,83.7 53.1,83.5 63.6,83.9 79.9,86.9 80.5,87.1 83.7,87.9 84.5,88.4 85.3,89.5 85.9,90.5 88.1,92.2 89.1,92.5 125.6,95.0 133.3,96.4 163.9,84.6 165.4,81.0 166.3,78.1 166.6,77.2 170.0,73.0 170.7,72.5 190.8,68.3 192.9,68.3 194.1,68.7 197.1,67.8 197.6,67.7 201.5,67.7 232.1,68.3 254.6,64.3 278.1,60.7 281.1,60.3 283.0,60.1 285.1,60.2 298.9,56.9 298.9,56.0 298.6,48.2 298.9,47.5 299.5,47.3 301.3,47.3 313.1,43.3 315.9,44.4 316.4,44.6 317.0,44.6 320.4,44.2 321.0,44.0 322.2,43.3 326.3,42.6 326.9,42.5 331.2,42.8 333.9,43.2 335.0,43.6 340.0,45.9 340.5,46.6 338.9,50.3 336.8,51.3 336.3,52.0 336.3,53.0 337.4,56.2 341.1,60.4 342.1,60.6 343.3,60.2 344.5,62.6 347.1,67.5 361.0,84.6 370.0,88.5 369.0,88.6 367.3,88.8 365.9,88.6 364.1,88.2 359.7,86.7 357.4,85.6 357.1,84.9 353.8,83.4 353.2,83.3 344.3,81.6 338.8,81.9 333.8,82.2 330.9,84.1 329.9,85.0 329.2,85.9 328.9,86.9 330.8,95.0 316.3,96.5 309.0,99.0 308.8,100.4 308.8,101.4 309.1,102.6 309.8,104.8 309.2,105.4 302.2,108.9 277.1,116.4 265.3,117.3 263.2,117.1 262.6,117.1 261.4,117.4 260.6,117.9 260.0,118.6 255.7,124.0 254.5,126.4 255.1,129.8 257.7,133.1 258.5,133.7 260.9,135.2 261.4,135.4 263.4,135.6 266.6,136.5 267.2,136.7 267.9,137.7 268.1,138.7 268.6,150.2 265.6,161.0 260.9,163.4 260.2,163.4 259.7,163.3 258.3,162.7 257.2,161.9 256.7,161.2 256.1,160.6 255.4,160.5 254.7,160.5 242.8,162.0 223.8,169.9 222.5,170.5 221.0,171.6 219.5,173.2 219.0,174.0 217.8,176.9 217.7,177.4 218.0,178.1 218.8,178.8 219.3,178.9 220.3,178.6 220.5,177.8 220.4,176.8 225.5,175.8 226.7,175.9 227.5,176.4 227.7,177.2 226.0,183.1 220.8,185.6 219.3,189.6 220.2,195.8 220.7,196.5 217.3,204.8 205.5,209.0 204.2,208.9 202.8,208.3 196.2,203.9 183.1,200.4 176.2,201.3 175.6,202.6 174.9,203.2 169.9,204.1 166.2,204.5 165.2,204.5 164.6,204.4 153.8,196.9 142.6,188.2 141.4,187.0 140.7,185.9 140.7,184.5 141.0,181.7 141.0,181.1 140.4,180.5 139.8,180.4 137.0,181.0 135.6,181.6 132.2,187.6 128.3,194.6 127.7,195.7 126.5,197.1 118.9,201.2 117.5,201.7 116.4,202.0 115.2,202.2 86.5,203.3 70.3,203.7 69.5,204.8 68.6,205.2 65.3,205.5 60.1,205.8 36.8,206.9 33.9,206.8 32.7,206.6 30.4,206.1 29.4,205.8 28.0,205.2 25.8,204.1 24.3,203.0 23.7,198.5 32.4,195.5 41.5,195.2 42.0,195.1 42.5,194.3 38.3,189.5 48.1,190.6 51.0,190.8 53.7,190.7 55.1,190.3 61.4,185.1 61.3,184.4 51.9,175.5 47.4,171.8 46.6,171.3 46.1,171.1 36.1,167.9 26.1,165.4 24.7,164.8 22.5,160.7 22.3,159.9 23.6,156.3 24.1,155.5 26.2,154.3 27.0,153.3 28.8,149.6 29.0,148.6 29.2,146.0 29.1,144.8 28.6,144.1 28.0,144.0 25.1,143.9 23.1,144.0 21.5,145.5 20.8,146.1 18.3,146.9 17.8,146.7 15.4,145.2 13.7,144.2 11.1,141.8 15.9,135.9 17.9,134.0 18.6,133.5 19.7,133.1 20.3,133.1 21.3,132.7 24.2,131.0 30.1,126.8 30.7,126.1 32.6,123.6 32.8,122.8 32.3,122.1 31.5,121.6 19.2,118.1 12.4,116.6 11.8,116.4 9.4,116.8 8.3,118.1 4.9,118.9 4.3,118.8 3.8,118.6 0.1,109.5 6.6,103.4 14.7,99.0 31.5,91.5 34.7,92.0 35.8,91.1 36.1,90.3 37.6,86.6 38.5,84.1 38.6,83.1 " />
  </g>
</svg>