<?xml version="1.0" encoding="UTF-8" standalone="yes"?>
<!DOCTYPE svg PUBLIC "-//W3C//DTD SVG 1.0//EN" "http://www.w3.org/TR/2001/REC-SVG-20010904/DTD/svg10.dtd">
<svg height="250" width="370" xmlns="http://www.w3.org/2000/svg" xmlns:svg="http://www.w3.org/2000/svg" xmlns:xlink="http://www.w3.org/1999/xlink">


<g id="background">
<rect id="" width="370" height="250" fill="#222222"/>
</g>
  <g id="706" style="stroke-miterlimit: 3; fill: #F1F1F1; stroke: #000000; stroke-opacity: 1; stroke-width: 0.05; stroke-linejoin: bevel; stroke-linecap: square">
    <polygon id="Somalia" points="125.8,17.9 126.4,16.9 128.0,14.5 128.8,13.4 130.3,11.1 130.6,10.6 131.0,10.0 131.4,9.3 132.1,9.6 133.7,10.9 135.1,11.5 135.7,13.3 136.0,14.0 138.3,17.2 139.8,19.1 141.8,21.3 144.0,23.4 148.5,26.6 149.8,27.7 150.6,28.2 152.2,28.7 155.2,28.7 156.1,28.6 156.8,28.3 157.3,28.1 158.3,27.9 159.0,27.8 159.8,28.0 160.4,28.2 161.4,28.5 162.3,28.5 163.1,28.4 166.4,26.5 168.0,25.5 168.6,24.8 169.4,24.1 170.0,24.1 170.7,24.2 171.6,24.1 172.9,23.5 175.0,22.1 176.3,21.1 177.2,20.3 178.0,20.2 178.9,20.8 179.9,21.0 181.3,21.7 183.3,22.1 184.0,22.2 184.8,22.0 185.3,21.8 186.2,21.8 186.7,22.1 187.2,22.8 187.8,23.3 189.3,23.6 190.0,23.6 193.5,22.7 195.9,21.3 199.7,19.1 201.1,18.5 201.7,18.1 202.7,17.2 203.1,16.6 206.3,15.1 206.8,14.8 207.4,14.6 208.9,14.5 209.6,14.6 210.2,14.8 211.2,15.3 212.0,15.8 212.8,16.1 213.7,15.8 214.6,15.5 216.7,15.5 217.3,15.7 220.6,15.5 221.2,15.3 222.0,14.6 222.5,14.1 224.6,12.9 228.0,12.2 230.4,11.9 233.4,12.9 234.1,13.2 234.6,13.4 235.9,13.5 236.5,13.4 237.0,13.3 240.2,12.5 244.4,11.7 246.0,10.9 246.7,10.0 247.2,9.6 249.0,9.3 249.5,9.3 250.1,9.4 250.7,9.6 256.3,8.6 256.9,8.5 260.2,7.0 262.9,5.5 263.9,4.5 264.3,3.9 264.5,3.3 264.7,2.3 265.0,1.7 265.8,1.1 266.6,0.6 269.1,0.0 271.7,0.7 276.0,2.0 278.3,2.5 278.4,3.1 277.8,5.6 277.0,6.6 276.4,7.3 275.7,8.5 274.7,11.9 274.6,14.0 274.8,14.5 275.5,15.0 276.2,15.0 276.3,15.8 275.9,16.6 275.7,17.2 275.5,17.7 275.4,18.4 275.7,22.7 276.0,24.6 275.3,27.0 274.9,27.6 274.2,27.7 273.6,28.1 274.2,28.1 275.8,28.1 276.9,27.5 276.8,26.4 280.2,27.3 280.8,27.9 280.5,28.9 280.0,29.4 278.4,29.2 278.2,28.6 277.5,28.4 276.0,28.7 275.1,28.8 274.5,29.0 273.9,29.2 272.7,29.6 271.7,30.1 271.4,30.8 271.4,33.4 271.5,35.8 270.0,43.0 269.7,44.0 269.9,44.7 270.0,45.4 270.4,45.9 270.4,46.4 270.0,47.2 269.1,48.8 268.2,49.3 267.5,49.8 267.1,50.4 266.8,51.0 266.9,51.7 267.0,52.4 266.8,53.0 265.3,54.7 264.5,55.1 263.9,55.5 262.8,57.1 261.0,61.4 261.0,62.4 260.9,63.1 260.3,64.0 259.8,64.3 258.6,65.8 258.4,66.4 258.0,67.0 257.6,67.6 257.3,68.9 256.9,69.6 256.4,70.2 255.6,70.7 254.6,71.3 253.9,71.7 252.2,73.5 251.7,74.3 251.5,75.0 251.4,75.9 251.3,78.1 250.1,80.6 248.9,83.0 248.4,83.9 247.8,85.0 245.6,87.9 244.1,89.9 243.7,90.4 243.0,91.5 241.3,94.5 240.7,95.6 238.6,100.6 238.1,101.8 238.0,102.5 238.1,103.2 238.2,103.8 238.2,104.7 238.0,105.4 237.8,105.9 237.5,106.7 234.0,112.8 233.4,113.7 230.6,118.1 229.2,120.1 227.9,121.9 225.2,125.3 224.4,126.2 224.0,126.7 222.1,129.6 221.4,130.8 220.7,132.1 220.4,132.7 219.4,134.8 218.5,136.4 217.6,137.6 217.0,138.2 216.1,139.2 213.2,142.5 212.1,143.6 211.1,144.6 210.6,145.2 210.1,145.9 209.5,146.9 208.4,148.2 207.0,149.5 204.3,151.9 203.5,152.8 202.1,154.5 200.9,155.7 200.4,156.3 197.8,159.1 195.8,161.5 191.8,165.2 190.7,166.3 188.3,168.2 186.1,170.6 185.0,172.0 183.8,173.3 182.6,174.4 182.1,174.9 180.5,176.0 179.9,176.4 177.9,177.5 176.1,178.5 174.2,179.6 173.6,180.1 170.2,182.0 168.1,183.1 167.1,183.6 165.9,184.2 165.1,184.5 164.6,184.7 163.6,185.3 162.3,186.1 160.7,187.2 156.2,190.2 155.2,190.9 151.5,193.8 148.4,196.5 147.8,197.0 147.2,197.8 146.4,198.6 144.2,200.6 143.0,201.4 142.2,201.8 141.4,202.4 138.9,204.6 135.8,207.4 133.1,210.5 132.1,211.4 131.7,212.0 131.0,212.7 129.3,214.4 126.9,217.1 124.9,219.4 123.4,221.0 122.8,221.6 121.7,222.6 120.3,223.7 119.1,224.9 118.1,226.2 117.2,227.4 116.7,228.0 116.1,228.4 114.1,230.9 112.5,233.0 111.8,233.9 109.8,235.7 108.1,238.0 107.0,240.0 104.8,243.8 102.9,246.7 102.1,248.0 101.1,249.4 100.5,250.0 100.4,248.5 97.2,244.3 93.1,238.9 90.2,235.2 90.0,219.3 90.0,195.3 90.0,177.1 90.0,169.6 90.0,167.5 95.5,162.2 96.4,161.3 104.9,149.3 106.7,146.7 107.4,145.8 107.4,145.2 107.7,144.5 109.3,143.5 109.9,142.9 110.7,142.5 111.3,142.4 112.1,142.3 112.9,142.3 113.7,142.4 115.2,142.4 115.9,142.3 117.5,141.9 119.6,141.4 120.1,141.3 121.9,141.1 122.6,141.0 123.8,140.7 124.3,140.5 125.3,139.6 125.6,139.0 125.8,138.1 126.1,137.3 126.3,136.8 128.2,135.1 129.7,134.0 130.4,133.5 132.8,132.4 133.4,132.1 135.8,131.0 137.3,130.5 139.4,129.8 140.3,129.6 140.9,129.6 141.6,129.5 142.1,129.4 143.1,129.2 143.8,129.0 144.4,128.7 146.1,128.5 149.2,128.7 150.5,128.8 153.7,129.0 154.6,129.1 162.6,129.6 163.5,128.6 165.2,126.7 170.3,121.1 172.4,118.8 176.6,114.3 181.0,109.5 181.6,108.8 183.9,106.5 192.1,98.1 199.9,90.1 210.3,80.3 212.2,78.6 214.1,76.8 216.7,74.3 218.2,72.8 216.6,72.8 215.7,72.8 213.8,72.8 211.2,72.8 201.7,72.8 200.3,72.8 196.3,71.5 191.9,70.0 187.9,68.6 182.9,66.9 174.8,64.2 171.0,62.9 167.0,61.6 163.5,60.4 157.1,58.3 145.4,54.4 140.2,49.7 138.3,48.1 137.5,48.4 136.9,48.1 135.2,47.1 134.7,46.7 134.7,45.9 133.9,44.3 133.0,43.3 132.5,43.0 131.9,42.7 131.6,42.0 131.4,40.8 131.2,40.1 131.0,38.8 130.6,38.2 130.1,38.0 129.5,38.0 129.0,37.9 128.3,37.5 127.9,36.9 127.6,36.4 127.5,35.8 127.2,34.9 126.5,34.1 125.9,33.8 125.0,33.2 124.4,32.6 123.5,30.5 123.3,29.9 123.3,29.3 123.2,28.6 122.9,27.9 122.4,27.3 121.8,26.8 121.0,25.6 120.7,24.9 122.5,22.0 123.9,20.2 125.4,18.7 125.8,17.9 " />
  </g>
</svg>