<?xml version="1.0" encoding="UTF-8" standalone="yes"?>
<!DOCTYPE svg PUBLIC "-//W3C//DTD SVG 1.0//EN" "http://www.w3.org/TR/2001/REC-SVG-20010904/DTD/svg10.dtd">
<svg height="250" width="370" xmlns="http://www.w3.org/2000/svg" xmlns:svg="http://www.w3.org/2000/svg" xmlns:xlink="http://www.w3.org/1999/xlink">


<g id="background">
<rect id="" width="370" height="250" fill="#222222"/>
</g>
  <g id="710" style="stroke-miterlimit: 3; fill: #F1F1F1; stroke: #000000; stroke-opacity: 1; stroke-width: 0.05; stroke-linejoin: bevel; stroke-linecap: square">
    <polygon id="South Africa" points="238.0,62.6 238.5,62.6 239.4,63.0 242.0,64.1 242.8,64.1 243.4,64.0 243.9,63.8 244.7,63.9 245.5,64.0 246.2,63.7 246.9,63.6 247.5,63.5 248.1,63.5 248.8,63.7 249.8,64.0 250.3,63.9 250.8,63.9 251.7,64.3 252.1,64.8 254.3,71.2 254.8,72.6 254.6,73.8 254.6,74.9 254.7,75.5 255.3,76.1 256.0,76.9 256.1,77.5 256.4,78.2 256.9,79.3 257.6,79.8 258.0,80.4 258.0,82.2 258.6,83.5 259.3,85.1 259.2,87.9 259.2,88.8 259.3,90.1 259.4,91.2 259.4,91.9 259.3,94.3 259.1,95.1 259.1,95.9 259.3,97.0 259.0,97.6 258.4,99.0 258.9,100.5 258.0,100.9 257.3,100.5 256.5,100.0 255.1,99.2 253.4,98.2 252.5,98.4 250.4,100.0 250.3,100.7 249.9,101.5 249.7,102.0 249.2,102.7 248.8,103.3 248.2,104.0 247.4,104.8 247.2,105.4 247.1,106.4 247.1,107.1 247.2,107.8 247.2,108.4 247.3,108.9 247.8,108.9 248.8,110.6 249.7,111.7 250.8,113.0 251.3,113.2 251.9,113.4 253.3,113.8 254.4,114.1 256.0,114.1 256.8,114.1 258.5,114.1 259.0,114.2 258.9,113.6 258.9,113.1 258.8,112.4 258.9,111.5 259.3,109.0 260.0,109.0 260.6,109.3 262.7,109.6 266.1,109.5 266.9,109.5 268.2,109.4 268.0,110.2 267.9,111.0 267.7,112.1 266.7,114.5 266.4,115.4 266.1,116.0 265.8,117.0 265.6,117.9 265.1,119.9 265.2,120.4 264.9,122.2 264.7,122.9 264.2,123.6 263.8,124.2 263.6,124.8 263.5,125.4 263.3,126.0 263.0,126.6 262.0,127.5 261.1,128.3 259.4,129.7 258.4,130.2 257.9,130.4 256.9,130.5 256.4,131.1 255.9,131.6 254.8,132.7 253.7,133.8 253.2,134.3 252.4,135.0 251.3,136.5 250.6,137.5 249.2,139.9 249.8,140.0 248.9,141.0 248.3,141.4 247.8,141.9 247.5,142.5 246.6,144.2 246.2,144.8 245.4,145.9 243.9,148.3 243.3,149.4 241.3,151.8 240.7,152.4 239.3,154.1 238.1,155.1 237.5,155.5 237.0,155.6 236.2,156.2 235.3,157.1 234.5,157.6 233.2,158.3 232.2,159.3 231.7,159.9 231.0,160.8 229.9,161.9 228.3,163.5 227.3,164.4 225.5,165.8 224.7,166.6 222.6,168.3 221.6,168.9 220.0,170.0 217.9,171.8 217.3,172.1 216.2,172.5 215.0,173.5 213.4,174.5 212.4,175.1 211.0,176.0 209.9,176.6 209.2,177.0 207.8,177.4 206.2,178.0 205.3,178.4 204.1,178.9 203.5,179.1 201.7,179.1 201.1,178.8 199.9,178.6 198.8,178.5 197.7,178.6 197.1,178.7 196.5,178.9 195.5,179.4 195.1,179.9 194.9,180.6 195.3,181.1 195.8,181.7 195.1,181.9 193.2,181.8 192.3,181.6 191.8,181.4 191.2,181.2 190.7,181.1 189.5,181.0 189.0,181.1 188.2,181.3 187.9,181.9 187.0,183.5 185.3,183.1 184.7,183.2 183.9,183.1 183.3,183.0 182.6,182.5 179.1,181.9 175.6,181.3 175.0,181.3 174.5,181.3 173.2,181.5 172.6,181.7 172.3,182.3 171.0,182.4 169.3,182.3 168.2,182.4 166.8,181.9 164.0,181.5 163.4,181.9 162.7,182.1 162.1,182.0 161.6,182.0 160.6,182.2 159.9,182.4 158.0,183.7 157.7,184.2 157.5,184.8 156.9,185.2 155.8,185.4 155.1,185.4 154.5,185.2 153.9,185.0 152.8,185.2 152.2,185.6 151.6,185.8 150.6,185.6 149.8,185.3 149.3,185.1 148.1,185.1 147.4,185.2 146.4,186.0 145.7,185.9 145.1,185.9 144.4,185.9 143.8,186.0 143.2,186.2 142.7,186.6 140.7,188.1 139.6,188.6 138.9,189.2 138.2,189.7 137.7,189.4 137.2,189.1 135.5,189.0 135.0,189.3 134.4,189.0 133.8,188.6 132.6,187.7 131.5,187.4 132.0,186.8 131.9,186.3 131.5,185.8 130.9,185.6 130.3,185.7 129.7,185.6 129.2,184.9 128.3,184.9 127.5,185.0 126.9,185.2 126.4,185.1 126.4,184.5 126.8,184.0 126.9,183.0 126.5,182.5 125.9,182.2 125.4,182.2 124.3,182.2 123.8,182.2 123.2,182.4 122.7,183.1 123.1,183.8 123.2,184.9 122.5,184.7 122.1,184.0 121.4,181.8 122.0,180.6 122.8,180.5 123.0,179.6 122.7,178.5 121.4,176.3 120.9,175.7 119.9,174.8 119.4,173.9 119.5,173.4 118.6,171.7 118.1,171.4 117.5,171.8 116.7,169.7 117.3,169.1 118.1,168.7 118.6,169.0 119.3,169.2 120.8,168.1 121.2,167.6 121.5,166.7 121.6,166.1 121.8,164.3 121.7,163.6 121.4,162.8 121.0,160.8 121.1,160.3 120.5,158.7 120.1,158.0 119.4,157.2 118.8,156.5 117.6,155.1 117.1,154.6 116.3,153.5 115.9,152.8 115.5,152.1 114.4,150.6 113.1,148.2 112.7,147.4 112.4,146.8 111.8,145.8 111.1,144.7 110.5,143.2 110.0,141.9 109.4,140.4 109.1,139.6 108.8,138.3 108.2,136.4 107.6,134.8 106.5,132.7 106.4,132.1 104.9,130.1 104.3,129.9 103.5,128.1 103.1,127.5 103.1,126.9 104.4,126.0 105.0,125.7 105.5,126.0 106.0,125.5 106.2,124.7 106.4,123.4 107.0,122.0 108.8,121.3 109.4,121.6 109.9,122.1 110.1,122.8 110.2,123.3 111.0,123.4 111.5,123.3 112.2,124.5 112.2,125.1 111.8,126.4 112.2,128.1 112.8,128.1 114.0,127.9 114.2,128.5 114.8,128.8 115.4,128.6 117.4,128.9 118.0,129.1 118.6,129.6 120.0,130.2 121.7,129.9 125.5,129.4 127.8,129.7 128.2,130.2 129.4,130.7 129.9,130.6 130.9,130.1 130.8,129.4 131.0,128.6 131.6,128.3 132.5,128.3 133.3,127.8 133.5,127.0 134.0,126.4 135.7,125.9 136.2,126.0 138.4,125.3 138.4,124.6 138.4,121.7 138.4,119.7 138.4,116.8 138.4,115.9 138.4,114.7 138.4,111.3 138.4,105.0 138.4,99.6 138.4,97.0 138.4,95.0 138.4,93.1 138.4,91.7 138.4,89.4 138.4,88.8 139.0,89.1 139.7,89.6 140.7,90.0 142.3,91.2 142.9,92.4 143.8,93.8 144.5,94.8 144.9,95.7 145.3,96.7 145.2,97.2 145.3,97.8 145.8,98.5 146.3,99.1 146.5,99.7 147.1,102.2 146.4,103.4 146.0,104.0 145.4,104.8 144.8,105.3 144.5,106.1 144.6,108.6 144.8,109.2 145.5,109.7 146.1,109.6 146.6,109.2 147.3,108.9 148.0,109.0 148.7,109.4 149.5,109.6 150.3,109.6 151.3,109.4 151.9,109.3 152.6,109.2 153.1,109.3 153.7,109.5 154.6,109.6 155.2,109.6 156.0,109.2 156.3,108.6 156.1,108.0 157.0,107.5 158.1,107.6 158.7,107.4 159.9,106.4 160.1,105.8 160.3,105.2 161.0,104.3 162.2,103.8 163.4,102.9 164.8,102.0 165.2,101.1 165.7,100.9 166.0,99.4 166.0,98.9 166.1,98.3 166.6,97.8 166.9,97.0 166.7,96.5 167.7,94.8 168.3,94.2 170.6,93.5 171.4,93.5 173.1,93.6 173.9,94.2 174.6,94.7 175.2,95.1 175.7,95.4 177.4,96.7 178.7,97.5 179.8,97.2 180.5,97.1 181.1,97.6 182.2,98.4 182.7,98.5 183.4,98.3 184.0,98.6 184.9,99.0 185.5,99.2 186.7,99.2 187.7,99.0 188.3,98.6 188.8,98.2 189.5,98.2 190.1,98.4 192.3,98.4 192.8,98.3 193.9,97.7 194.6,97.1 195.0,96.4 195.5,95.6 196.5,92.9 197.1,91.3 197.5,89.9 197.6,89.1 197.5,88.3 199.0,87.9 200.5,87.4 201.5,87.2 202.4,87.0 202.9,87.1 203.5,86.6 203.7,86.1 204.0,85.5 206.0,83.9 206.7,83.7 207.3,83.4 207.7,81.6 208.1,80.0 208.5,78.3 208.7,77.7 208.9,77.2 209.6,77.1 210.4,76.0 212.2,74.7 213.0,74.6 213.9,74.6 214.5,74.2 214.6,73.4 215.9,72.7 216.8,72.4 218.4,71.0 218.7,70.2 219.4,69.3 220.0,68.7 220.5,68.4 220.6,67.9 221.9,66.8 222.5,66.4 223.5,66.4 225.3,66.3 227.3,65.6 228.1,65.2 228.6,64.6 228.6,63.9 229.3,62.9 231.8,62.6 232.8,62.6 233.4,62.3 235.8,62.0 236.3,62.0 237.2,62.3 238.0,62.6 " />
  </g>
</svg>