<?xml version="1.0" encoding="UTF-8" standalone="yes"?>
<!DOCTYPE svg PUBLIC "-//W3C//DTD SVG 1.0//EN" "http://www.w3.org/TR/2001/REC-SVG-20010904/DTD/svg10.dtd">
<svg height="250" width="370" xmlns="http://www.w3.org/2000/svg" xmlns:svg="http://www.w3.org/2000/svg" xmlns:xlink="http://www.w3.org/1999/xlink">


<g id="background">
<rect id="" width="370" height="250" fill="#222222"/>
</g>
  <g id="716" style="stroke-miterlimit: 3; fill: #F1F1F1; stroke: #000000; stroke-opacity: 1; stroke-width: 0.05; stroke-linejoin: bevel; stroke-linecap: square">
    <polygon id="Zimbabwe" points="326.0,61.6 326.1,63.0 327.1,63.8 327.7,64.3 328.0,65.0 324.9,70.1 325.0,71.0 325.4,72.1 326.0,72.6 327.5,73.1 327.9,73.9 328.1,74.7 328.0,75.4 327.0,79.3 326.3,81.7 325.7,81.7 324.7,84.2 324.5,87.7 324.8,90.2 325.1,91.4 325.6,92.4 326.0,93.1 326.5,95.2 326.3,96.0 325.4,97.0 325.3,97.7 327.2,99.8 328.3,100.8 329.1,101.3 327.4,105.4 326.4,106.3 324.7,107.2 323.6,107.5 322.4,108.2 322.4,109.6 323.0,111.2 324.6,114.0 323.8,116.9 323.2,117.6 322.3,117.8 321.7,117.6 320.7,117.3 319.8,117.3 318.8,117.7 315.7,119.2 315.4,123.4 315.8,125.7 316.0,126.2 316.9,126.4 317.9,126.4 318.8,126.2 320.0,126.1 320.6,126.3 322.2,128.9 322.2,129.6 321.1,135.5 320.6,136.6 319.4,138.4 318.8,138.7 318.4,142.2 318.6,142.8 319.5,142.9 320.1,142.7 320.8,143.0 321.0,143.6 321.0,148.1 325.9,150.7 328.7,154.1 327.2,160.1 325.8,163.0 322.9,166.8 322.5,168.3 322.3,170.5 321.9,172.1 319.2,175.5 314.2,182.7 310.0,182.6 308.2,184.2 307.5,186.5 307.5,187.2 308.1,192.3 308.5,193.8 308.9,195.8 307.4,198.7 303.5,202.9 302.9,203.8 304.9,207.0 307.2,210.8 307.7,211.6 307.0,211.0 305.0,210.3 304.4,210.8 287.0,228.8 278.3,237.8 267.9,248.3 267.4,248.8 266.0,249.7 264.2,250.8 263.6,250.6 263.0,249.6 262.4,249.1 259.0,247.7 258.1,247.6 257.2,247.8 256.5,248.1 255.3,248.0 252.2,247.3 250.3,246.6 249.5,246.4 247.0,246.3 244.9,246.5 242.0,247.1 239.7,247.8 236.7,247.6 235.2,247.3 234.3,247.2 233.1,247.6 231.8,248.0 231.1,248.2 229.7,248.4 227.4,248.5 217.3,244.5 214.2,242.9 212.8,242.9 212.3,242.9 210.1,242.3 209.2,241.8 206.1,240.9 204.0,240.8 196.0,241.8 193.1,242.8 192.7,242.3 189.2,238.6 188.3,238.5 187.6,238.6 186.3,238.7 185.1,238.6 184.5,238.4 183.6,238.0 182.8,237.7 182.2,237.3 181.6,236.5 181.1,235.5 180.8,234.8 180.6,234.2 180.6,233.4 180.6,232.5 180.8,231.9 181.2,231.0 181.8,230.1 182.3,229.5 182.2,228.8 181.6,228.3 179.1,227.3 177.9,227.3 176.9,227.3 174.5,226.7 166.5,222.9 163.7,222.2 163.0,222.3 162.0,222.8 161.4,223.3 159.8,223.1 157.6,222.2 156.6,221.6 155.5,221.1 153.2,220.6 152.3,220.7 151.4,220.9 150.1,220.9 148.6,220.8 144.6,220.2 143.2,219.8 142.9,219.0 141.6,215.4 140.5,213.1 138.9,210.3 137.0,207.5 136.6,206.9 134.5,205.2 133.5,204.7 132.8,204.1 131.1,201.7 131.2,196.6 131.3,194.2 131.8,193.4 132.6,191.3 132.7,189.7 132.6,182.4 132.5,181.4 132.1,180.8 131.3,180.2 128.5,179.5 124.8,179.7 121.7,179.6 119.2,179.3 118.5,179.4 117.7,179.7 116.6,180.2 116.5,178.9 116.7,176.4 116.8,173.8 116.5,171.1 116.2,170.3 114.6,166.5 114.1,165.7 113.5,165.3 108.8,163.2 105.4,162.7 104.7,162.6 96.2,159.8 95.7,159.5 94.7,157.7 92.6,157.3 91.8,157.1 91.2,156.4 90.9,155.7 90.8,155.0 90.0,154.3 88.8,153.5 83.9,150.3 82.2,148.1 78.9,146.7 78.2,146.5 76.5,145.7 75.5,145.1 74.7,144.2 72.7,139.2 71.1,135.2 69.9,132.3 69.1,131.3 68.0,129.8 67.7,129.3 67.8,127.7 68.6,125.4 68.3,124.0 68.1,123.4 67.5,122.3 67.0,121.6 64.5,119.8 61.6,114.8 58.7,110.4 56.6,108.4 54.5,106.3 51.8,103.5 51.3,102.7 50.9,101.6 50.7,100.7 49.9,98.8 48.8,96.8 47.1,93.6 46.6,93.1 45.9,92.8 44.2,91.6 43.7,91.1 42.5,88.9 41.2,85.9 41.0,84.8 41.1,83.6 41.3,83.0 42.0,81.4 43.8,82.5 44.3,82.8 45.0,83.0 47.4,83.3 48.2,83.4 51.2,83.6 54.6,82.8 55.3,82.5 55.9,82.1 56.6,81.7 57.4,81.6 61.1,83.7 63.7,85.3 63.9,85.9 63.4,86.1 63.9,87.7 65.6,88.3 67.3,88.8 68.0,88.9 72.5,87.5 73.6,86.1 76.1,85.1 77.5,85.1 82.4,86.1 84.9,86.8 89.8,88.5 90.9,89.6 91.2,90.2 94.4,91.4 95.0,91.3 95.7,90.5 96.3,90.0 100.0,88.7 101.7,88.1 103.8,87.7 105.7,87.4 106.6,87.3 107.2,87.2 111.2,83.6 111.5,83.0 111.1,81.9 111.3,81.3 118.6,73.0 125.0,67.5 128.2,64.6 129.3,60.2 131.8,56.6 135.5,51.3 136.2,50.4 143.6,47.2 147.7,45.4 152.2,41.7 164.1,36.8 170.0,35.6 170.5,35.4 172.5,33.1 172.9,32.4 173.9,29.8 174.1,28.9 174.0,28.3 173.6,27.4 173.4,26.4 173.8,21.0 174.2,17.4 174.4,16.5 176.4,14.3 177.3,13.8 179.0,13.3 182.3,11.1 188.3,7.0 191.8,5.5 192.4,5.3 200.1,2.7 200.7,2.6 201.3,2.7 202.3,3.0 203.5,3.0 206.2,2.2 208.8,1.3 209.5,1.1 210.4,1.0 221.8,1.6 222.3,1.6 225.6,1.9 227.0,2.3 228.9,2.6 230.1,2.3 230.6,2.0 231.4,1.6 231.7,15.2 246.3,15.3 255.5,15.7 258.0,14.9 258.7,14.9 263.1,15.8 264.4,16.3 265.5,17.6 265.5,18.5 267.7,20.5 268.5,21.0 271.7,22.0 273.3,22.3 273.9,22.2 274.4,22.2 277.3,22.4 279.0,22.7 279.5,23.0 281.7,24.7 286.0,28.2 286.2,28.7 286.2,29.7 286.3,30.3 287.0,30.7 289.1,31.1 291.5,31.6 292.0,31.6 293.2,31.6 295.4,31.3 297.8,31.3 298.5,31.3 299.1,31.3 300.5,31.6 302.7,32.2 303.6,32.4 304.7,32.7 311.0,35.2 315.5,37.2 315.8,37.9 316.5,40.6 317.9,41.5 319.1,41.5 323.7,41.0 325.8,41.2 325.6,42.6 325.3,43.6 325.0,44.4 324.6,45.4 324.2,46.1 323.8,46.7 323.3,47.3 322.6,48.0 321.5,48.9 323.4,53.9 324.1,55.0 325.3,57.3 325.7,58.4 326.0,60.3 326.1,61.2 " />
  </g>
</svg>