<?xml version="1.0" encoding="UTF-8" standalone="yes"?>
<!DOCTYPE svg PUBLIC "-//W3C//DTD SVG 1.0//EN" "http://www.w3.org/TR/2001/REC-SVG-20010904/DTD/svg10.dtd">
<svg height="250" width="370" xmlns="http://www.w3.org/2000/svg" xmlns:svg="http://www.w3.org/2000/svg" xmlns:xlink="http://www.w3.org/1999/xlink">


<g id="background">
<rect id="" width="370" height="250" fill="#222222"/>
</g>
  <g id="72" style="stroke-miterlimit: 3; fill: #F1F1F1; stroke: #000000; stroke-opacity: 1; stroke-width: 0.05; stroke-linejoin: bevel; stroke-linecap: square">
    <polygon id="Botswana" points="248.4,164.1 247.3,169.0 246.3,173.4 245.6,177.7 245.1,178.4 243.7,179.1 242.9,179.3 242.4,179.4 241.9,179.5 237.3,183.0 236.3,184.0 235.9,184.5 235.4,185.5 235.1,186.4 234.6,187.1 233.3,188.2 232.8,188.2 231.9,188.0 229.3,188.5 226.7,189.2 222.6,190.5 219.8,191.2 218.5,191.4 218.5,193.0 218.7,193.7 218.6,195.7 217.3,199.6 215.7,204.2 213.4,210.4 213.0,211.4 211.7,213.6 210.9,215.1 210.5,215.6 208.6,217.1 206.1,218.5 204.7,219.1 204.2,219.2 199.4,219.4 198.7,219.4 197.9,219.0 197.2,218.7 196.7,218.6 195.6,218.5 195.0,218.5 193.3,219.6 192.0,220.6 189.1,221.3 186.1,221.2 185.2,221.1 184.7,221.0 184.0,220.7 181.7,219.7 180.8,219.4 180.0,219.0 179.3,218.7 178.7,219.2 178.0,219.4 176.8,219.2 174.8,218.2 173.8,217.1 173.4,216.4 172.4,215.6 170.2,215.9 168.4,216.3 167.4,216.5 164.5,215.7 163.9,214.9 160.0,211.3 159.4,211.0 158.0,210.4 157.5,210.1 156.0,209.1 154.2,207.7 152.2,206.1 147.1,205.7 144.9,205.7 140.0,206.7 138.8,207.7 137.1,209.4 134.9,213.0 134.4,213.9 134.9,215.3 134.6,216.8 134.2,217.4 133.7,217.9 133.1,218.3 132.8,218.8 132.5,220.4 132.6,221.8 132.0,225.1 131.7,225.9 131.0,226.3 130.4,226.3 129.3,228.5 129.3,229.0 125.3,231.5 122.2,233.8 118.9,235.3 117.5,236.7 116.9,237.8 116.5,239.1 116.4,239.6 115.8,240.7 113.8,242.9 113.3,243.4 112.5,243.6 111.3,244.1 109.1,244.3 108.6,244.2 107.9,244.1 106.8,244.2 105.9,244.6 105.5,245.3 105.8,246.0 106.0,246.9 105.9,247.6 105.3,248.4 103.6,249.4 103.1,249.7 101.5,249.6 99.0,249.4 97.8,249.1 97.3,248.8 96.7,248.6 95.9,248.5 95.1,248.5 94.0,248.7 92.2,249.2 89.5,249.6 88.6,249.8 87.4,249.7 85.2,249.3 84.7,249.2 84.1,248.9 83.6,248.3 82.5,247.9 81.8,247.8 80.6,248.1 79.9,248.3 79.3,248.8 78.1,249.6 76.5,250.0 74.8,248.7 74.1,247.0 73.7,240.7 73.7,240.1 73.9,238.4 74.3,237.9 74.9,237.7 76.1,236.7 77.6,234.8 79.0,232.8 80.7,230.0 79.4,222.7 78.7,221.1 77.4,219.4 75.9,217.4 75.8,215.9 76.1,214.9 76.0,214.4 75.0,211.6 74.5,210.5 73.9,209.4 71.9,206.6 69.5,202.7 67.8,199.5 64.3,196.6 63.4,196.0 61.7,195.3 60.9,195.3 58.7,193.7 57.1,192.0 57.2,190.9 57.2,186.7 57.1,182.1 57.1,178.7 57.1,169.6 57.1,167.2 57.1,164.3 57.1,161.3 57.1,155.9 57.1,151.9 57.1,146.8 57.1,142.7 57.0,141.9 57.0,135.8 57.0,129.7 57.0,123.3 57.0,118.4 57.0,116.1 65.6,116.0 75.0,116.0 82.3,115.9 84.4,115.9 84.4,115.1 84.4,114.4 84.4,104.9 84.4,97.3 84.4,89.0 84.4,88.3 84.4,83.6 84.4,65.9 84.4,60.9 84.4,38.2 84.4,25.1 84.4,19.1 84.4,15.3 84.4,14.8 91.1,14.6 97.3,14.4 107.1,12.6 119.3,10.2 125.8,9.1 129.6,8.4 141.7,6.1 147.5,5.9 148.2,6.4 148.5,7.2 148.6,8.1 149.6,9.5 150.5,10.9 151.4,11.3 152.0,11.6 153.4,12.8 153.9,13.3 154.8,15.0 155.0,15.7 155.1,18.0 155.3,18.9 156.0,19.3 157.5,18.9 159.3,17.7 161.3,15.7 162.3,14.8 162.7,14.1 163.4,13.3 164.0,13.3 164.7,12.5 166.2,11.1 167.3,10.6 174.5,6.4 176.8,4.7 177.7,4.5 178.5,4.7 179.1,5.2 179.5,6.0 180.1,6.9 180.6,7.6 181.5,7.7 182.3,7.6 183.0,7.3 185.7,4.5 189.7,1.6 192.8,0.9 193.8,1.1 194.6,1.2 196.2,1.4 197.1,1.3 197.9,0.8 198.6,0.1 199.3,0.0 201.4,0.4 201.3,1.8 201.1,3.1 201.1,3.6 202.1,6.1 203.1,7.8 204.6,9.0 205.2,9.3 206.9,12.1 207.7,13.6 208.3,15.0 208.5,15.7 208.6,16.3 208.9,16.8 211.0,19.2 212.7,20.7 214.3,22.3 216.5,25.6 218.4,29.1 220.3,30.5 220.8,31.1 221.3,32.0 221.7,33.2 221.1,35.2 221.0,36.1 221.2,36.8 222.0,37.9 222.7,38.7 223.6,40.8 224.8,43.8 226.2,47.3 226.5,47.9 227.3,48.5 228.6,49.2 229.2,49.4 231.9,50.5 233.2,52.1 236.8,54.5 237.7,55.1 238.2,55.5 238.4,56.1 238.6,56.7 239.1,57.2 239.7,57.3 241.2,57.6 241.9,58.9 248.7,61.3 249.2,61.3 251.7,61.7 255.2,63.3 255.9,63.9 257.3,67.1 257.5,67.6 257.8,69.5 257.7,71.6 257.5,73.5 257.4,74.6 258.4,74.0 259.0,73.8 259.5,73.8 261.4,74.0 263.7,74.1 266.1,73.9 268.3,74.3 268.9,74.6 269.3,75.1 269.5,76.1 269.6,81.6 269.5,82.8 269.1,84.1 268.7,84.6 268.5,86.7 268.4,90.2 269.4,91.9 269.9,92.5 271.0,93.1 272.5,94.4 274.3,97.0 275.4,99.0 276.1,100.5 277.2,103.5 277.5,104.0 278.2,104.3 281.5,104.8 282.6,104.9 283.6,104.9 284.3,104.7 284.8,104.6 286.7,105.0 287.5,105.4 288.2,105.8 289.6,106.4 290.7,106.7 291.5,106.3 292.3,105.9 292.8,105.9 294.7,106.3 300.6,109.1 302.3,109.6 303.2,109.7 304.0,109.6 306.2,110.4 306.7,111.0 306.3,111.7 305.9,112.4 305.6,113.1 305.4,114.2 305.4,114.8 305.8,115.8 306.1,116.3 306.5,117.0 307.1,117.4 307.6,117.7 308.4,117.9 309.3,118.2 310.5,118.2 311.2,118.0 311.9,118.1 314.5,120.8 312.1,121.3 306.5,122.0 305.8,122.1 305.2,122.2 303.4,124.6 303.5,125.4 303.6,126.1 303.5,126.7 303.2,127.3 302.8,127.9 302.1,128.6 299.8,129.5 294.8,131.4 289.6,131.7 287.0,131.8 285.2,132.7 282.4,134.5 281.6,135.3 281.4,136.0 281.5,136.7 281.3,137.2 280.0,138.1 278.4,139.7 276.3,142.2 275.5,144.3 271.1,148.1 269.0,149.0 266.2,149.5 265.3,150.8 265.0,151.8 265.2,152.4 264.9,153.0 264.2,153.8 263.4,154.0 262.0,154.1 260.7,154.1 259.0,154.4 253.6,157.9 252.2,159.7 251.5,160.9 250.5,161.6 249.9,161.1 248.9,162.5 248.4,164.1 " />
  </g>
</svg>