<?xml version="1.0" encoding="UTF-8" standalone="yes"?>
<!DOCTYPE svg PUBLIC "-//W3C//DTD SVG 1.0//EN" "http://www.w3.org/TR/2001/REC-SVG-20010904/DTD/svg10.dtd">
<svg height="250" width="370" xmlns="http://www.w3.org/2000/svg" xmlns:svg="http://www.w3.org/2000/svg" xmlns:xlink="http://www.w3.org/1999/xlink">


<g id="background">
<rect id="" width="370" height="250" fill="#222222"/>
</g>
  <g id="724" style="stroke-miterlimit: 3; fill: #F1F1F1; stroke: #000000; stroke-opacity: 1; stroke-width: 0.05; stroke-linejoin: bevel; stroke-linecap: square">
    <polygon id="Spain" points="170.8,0.2 170.9,0.9 171.5,0.7 172.9,0.4 173.5,0.4 176.1,0.6 176.9,0.7 178.4,1.5 179.0,2.2 179.5,2.7 180.1,3.2 180.8,3.2 183.4,3.3 183.4,4.4 183.8,3.6 185.0,3.0 187.7,3.2 190.3,3.3 192.1,3.4 194.3,3.3 195.0,3.1 197.9,3.3 198.4,3.2 200.4,2.8 201.4,2.3 203.0,2.4 203.7,3.0 204.4,3.5 205.0,3.5 205.6,3.4 206.6,3.4 207.9,3.4 208.9,3.4 210.6,3.7 211.4,4.3 212.1,4.6 214.2,4.7 215.4,4.8 216.9,5.0 218.8,5.3 220.4,5.6 221.4,5.7 222.6,5.8 224.0,5.7 224.5,5.8 225.7,5.9 226.3,5.9 227.1,5.8 228.7,5.5 229.8,5.1 231.4,4.7 233.5,4.3 234.2,4.7 237.0,4.1 237.6,4.1 239.1,4.8 241.0,5.5 242.6,5.8 243.7,6.5 245.7,6.4 247.0,5.2 248.3,5.3 249.0,5.3 250.2,5.4 252.8,5.9 253.6,6.1 254.4,6.7 256.1,7.2 257.0,7.4 258.9,7.5 259.7,7.4 261.9,6.8 264.0,6.1 264.7,5.9 265.0,6.7 265.7,7.3 266.3,7.2 266.9,7.2 269.2,7.5 270.7,7.7 271.1,8.6 270.7,9.8 270.1,10.4 270.1,11.1 270.9,11.4 271.5,11.5 272.4,10.9 273.9,11.3 275.9,11.9 277.1,12.3 277.9,12.6 279.9,12.8 280.7,12.5 281.3,12.9 281.2,13.4 283.8,15.4 286.5,15.1 287.5,14.7 288.5,14.8 289.4,15.2 290.2,15.4 291.6,16.4 292.5,16.8 294.3,16.5 295.2,16.1 296.6,16.3 299.3,16.8 300.3,16.7 301.2,16.7 301.8,16.7 302.8,16.7 303.1,16.2 302.6,15.3 302.9,14.5 303.6,14.2 305.3,14.6 306.4,14.9 309.4,15.3 309.9,15.6 310.2,16.1 310.7,16.5 313.0,16.4 313.6,16.4 314.5,17.4 314.9,18.1 314.6,19.0 314.6,19.8 315.0,20.5 316.0,20.7 318.2,20.2 319.2,19.7 320.1,19.9 321.2,20.2 322.1,20.5 322.9,21.1 323.2,21.7 323.8,22.0 324.5,21.9 325.3,21.5 325.7,21.0 327.6,20.7 328.7,21.0 330.3,21.6 331.0,22.1 331.7,22.3 333.9,22.2 333.7,21.6 334.8,21.0 338.3,20.0 339.7,20.1 340.2,20.7 341.5,20.7 341.5,21.5 342.0,22.1 342.7,22.0 343.4,22.2 343.9,22.4 343.5,23.3 342.4,23.9 341.9,23.6 341.2,23.5 340.8,24.1 340.8,25.1 341.1,25.6 341.6,25.7 342.3,26.3 342.4,28.3 342.2,29.1 340.9,29.8 339.2,31.0 338.2,31.7 334.7,33.2 334.0,33.5 332.9,33.8 332.2,34.0 327.8,35.8 326.1,37.6 325.8,38.2 325.3,38.5 324.7,38.7 323.8,38.9 321.8,39.1 319.8,39.6 318.9,39.8 318.1,39.9 317.6,39.9 316.3,40.1 315.8,40.2 313.0,40.9 311.2,41.4 308.7,42.0 307.9,42.2 307.2,42.7 306.6,43.2 303.5,45.9 303.7,46.4 305.5,47.1 306.1,47.1 305.9,47.8 303.2,49.6 302.5,49.8 302.0,49.5 303.5,49.2 304.0,48.5 303.3,48.6 302.1,48.7 300.9,49.6 300.6,50.2 299.6,51.5 298.1,53.8 296.9,54.8 295.8,55.6 293.3,57.9 292.0,60.1 291.2,60.8 290.7,61.3 289.8,62.5 287.7,65.9 287.3,67.1 288.8,71.7 289.5,73.1 290.3,74.3 291.1,75.0 291.8,75.6 292.7,76.1 293.3,76.1 293.9,76.2 294.8,76.6 295.6,77.0 295.9,77.7 295.1,78.6 293.2,79.6 292.4,79.7 291.8,80.2 290.4,81.1 288.1,81.9 287.5,82.2 286.8,82.6 284.6,84.4 283.2,86.6 282.4,88.7 280.9,91.1 280.8,91.7 280.1,92.5 279.5,93.3 279.3,93.9 279.9,94.6 281.1,95.2 281.7,95.1 281.2,95.7 278.4,96.4 277.8,96.3 276.3,96.0 273.4,96.0 272.0,96.3 270.2,97.3 269.6,98.1 268.3,98.7 267.2,99.1 266.5,99.5 264.8,101.3 264.5,101.9 264.3,102.6 263.9,103.7 263.1,105.4 262.7,105.9 261.8,106.5 260.7,107.9 260.6,108.4 259.7,109.0 258.7,109.3 258.0,108.6 257.2,107.7 256.2,107.4 254.1,107.6 253.0,107.8 252.4,108.3 252.3,108.8 251.6,109.6 250.8,109.8 249.6,109.9 248.2,109.7 247.7,109.1 247.2,108.8 244.1,108.8 242.5,108.8 241.0,109.0 240.5,109.2 239.6,109.7 239.0,109.7 238.5,109.6 237.9,109.3 236.8,108.9 236.1,109.0 235.6,109.1 234.8,109.1 233.9,108.9 232.9,108.8 230.2,108.9 227.9,109.3 226.9,109.4 225.6,109.4 225.0,109.3 224.4,109.2 223.8,109.6 223.4,110.3 223.0,110.8 220.8,112.5 219.6,112.9 218.9,112.9 218.3,112.8 217.7,112.7 217.0,112.7 216.4,112.7 213.9,113.5 212.5,114.0 211.7,114.7 210.2,116.8 210.0,117.4 209.9,117.9 209.2,117.7 208.6,117.7 208.2,118.2 208.4,119.1 205.6,120.3 202.7,119.3 202.2,118.8 201.4,117.9 200.8,117.6 199.2,117.6 197.1,115.7 196.1,114.2 195.5,113.1 196.1,113.2 196.9,112.5 196.0,111.5 195.0,110.9 194.4,110.8 193.6,110.8 193.0,109.8 192.7,109.3 194.1,107.1 190.6,104.6 188.3,103.5 185.6,102.4 184.7,101.5 184.5,102.2 183.3,101.6 182.1,101.5 181.4,101.6 180.1,101.7 179.0,101.9 178.1,102.3 177.4,101.0 177.3,99.2 177.2,98.4 176.9,97.8 176.6,97.2 176.0,96.4 177.2,94.1 177.5,93.4 178.2,92.9 179.1,92.3 179.7,91.6 180.2,90.5 180.1,89.8 180.8,89.5 182.2,89.3 184.0,89.0 184.8,87.3 185.0,86.7 185.0,86.1 184.2,86.2 183.6,86.5 182.8,86.7 182.1,85.9 181.5,85.0 181.1,84.5 179.8,83.0 179.2,82.6 179.9,78.5 180.9,77.8 181.5,77.3 182.8,76.5 184.7,73.6 184.7,73.1 184.3,72.5 183.8,72.1 183.2,72.1 182.5,72.3 181.9,72.2 180.3,70.6 179.2,68.6 179.1,67.9 178.3,66.3 176.3,64.7 176.0,64.1 175.8,63.6 177.7,63.9 178.9,64.0 179.9,63.5 180.9,63.6 181.5,63.7 183.2,63.7 183.8,63.5 184.2,62.7 186.1,58.3 185.9,57.8 185.2,56.9 184.4,56.6 183.9,56.3 183.7,55.5 183.9,55.0 184.9,54.4 185.5,54.5 186.0,54.4 186.7,53.5 186.9,52.4 187.2,50.3 186.9,47.1 187.2,45.3 186.3,43.8 185.8,43.3 185.2,42.8 186.4,42.5 187.1,42.2 187.7,41.7 187.9,41.2 188.9,39.7 189.6,39.2 190.3,39.2 190.9,39.2 191.7,38.8 192.8,38.0 194.0,37.1 195.0,36.2 196.2,34.8 196.6,34.1 195.7,33.1 194.9,32.7 194.2,32.5 193.0,32.4 192.3,32.6 191.7,32.7 191.2,32.4 191.1,31.1 191.4,29.9 191.1,28.7 190.4,28.2 188.9,28.4 185.5,28.3 184.9,28.2 184.3,27.9 183.2,28.2 182.6,27.8 182.1,27.6 181.3,27.8 181.2,28.4 181.2,29.0 179.9,29.6 179.0,29.9 177.7,30.2 174.7,30.1 174.8,29.5 173.4,29.0 172.3,29.0 170.9,29.6 169.8,29.3 168.0,30.1 167.2,30.4 166.5,30.4 166.1,29.9 165.5,29.4 165.2,28.9 166.0,27.9 166.9,27.3 167.4,26.6 165.6,25.2 164.7,25.3 163.8,25.9 161.7,26.1 160.6,26.2 159.2,26.5 158.7,26.8 157.1,27.9 156.6,28.6 155.9,28.7 155.2,29.4 154.8,28.5 154.7,25.8 156.0,24.6 156.6,24.2 157.4,23.7 158.6,23.0 159.6,22.1 159.0,22.0 158.5,22.5 158.0,23.1 156.8,23.4 156.3,23.5 155.3,23.6 155.4,22.9 156.3,22.2 157.9,21.2 158.4,20.8 157.9,20.7 157.1,21.0 156.6,21.3 155.6,21.4 155.0,21.0 154.5,20.2 154.9,19.7 155.1,20.3 155.6,20.3 156.0,19.4 155.7,18.9 156.5,18.2 157.0,17.6 157.4,17.0 155.4,17.2 154.4,17.7 154.0,18.4 153.2,19.2 152.5,19.3 152.1,18.5 152.6,17.1 152.8,16.5 154.3,15.3 153.0,15.4 151.8,16.0 151.2,15.5 151.1,15.0 151.2,14.4 150.9,13.6 150.6,13.1 149.1,13.3 148.5,13.2 149.1,11.2 149.8,9.6 150.5,9.1 151.0,8.9 151.7,9.0 152.5,8.8 153.8,8.4 153.4,7.8 155.0,7.0 155.8,6.9 156.5,7.3 157.4,7.5 157.9,7.4 162.3,6.0 163.5,5.7 164.5,3.4 168.5,1.1 170.2,0.1 170.8,0.1 " />
    <polygon id="Spain" points="358.8,59.0 359.4,60.3 359.4,60.8 359.1,61.4 358.5,61.4 356.3,60.5 355.8,60.0 355.2,59.8 354.3,59.5 353.6,59.5 352.8,59.7 351.8,59.6 351.4,58.2 351.9,57.6 352.5,57.5 353.6,57.5 356.4,57.6 357.2,57.7 358.3,58.5 " />
    <polygon id="Spain" points="342.9,62.6 343.6,62.4 344.2,62.1 345.0,62.0 345.8,62.3 346.5,62.8 346.2,63.7 344.9,65.4 344.2,65.8 343.5,66.7 343.2,67.5 342.8,68.3 340.3,69.7 339.5,69.6 338.8,69.0 336.4,68.5 335.7,68.3 335.1,67.6 334.8,66.6 335.2,66.1 334.3,65.4 333.7,65.2 332.0,65.8 330.3,65.9 329.6,65.8 329.5,64.4 331.9,63.1 334.1,61.6 335.6,60.9 338.8,59.8 340.1,59.7 340.4,60.2 341.0,61.4 341.4,61.9 342.8,62.5 " />
    <polygon id="Spain" points="316.3,74.7 314.3,76.3 313.8,76.6 313.6,76.0 312.3,75.8 311.5,75.9 311.6,74.7 312.6,73.5 313.1,73.1 313.7,72.8 315.4,72.3 316.1,72.1 317.3,72.5 317.6,73.5 316.3,74.7 " />
    <polygon id="Spain" points="317.0,78.8 316.9,79.3 316.3,79.3 315.7,79.0 315.1,78.8 314.1,79.5 314.0,78.9 314.0,78.4 314.9,78.0 316.9,78.7 " />
    <polygon id="Spain" points="185.2,102.3 184.7,102.1 185.2,102.3 " />
    <polygon id="Spain" points="245.5,121.8 " />
    <polygon id="Spain" points="210.1,122.3 209.7,122.9 209.2,122.4 208.9,121.8 209.5,121.7 210.1,122.0 " />
    <polygon id="Spain" points="247.2,131.8 246.7,131.7 246.5,131.2 247.1,131.3 " />
    <polygon id="Spain" points="81.7,230.0 81.0,230.2 80.5,230.1 80.0,230.3 79.2,231.2 78.4,231.1 77.9,230.3 78.2,229.0 78.8,228.1 79.5,227.6 81.2,227.0 81.9,226.7 83.7,225.1 84.3,225.3 84.5,226.3 83.9,228.7 83.3,229.2 82.7,229.5 81.7,230.0 " />
    <polygon id="Spain" points="16.2,237.4 15.6,236.5 15.6,236.0 14.2,233.4 13.6,232.8 14.0,231.9 15.1,231.3 16.8,231.3 17.3,231.6 18.0,232.8 17.7,235.0 17.4,235.7 17.0,236.2 16.2,237.4 " />
    <polygon id="Spain" points="70.6,243.7 69.6,243.6 68.7,243.3 69.2,242.9 70.1,242.5 70.8,242.2 71.6,241.7 72.3,240.9 72.5,240.4 72.5,239.8 73.5,237.7 74.3,236.4 74.8,235.6 75.3,234.5 75.5,233.9 75.5,233.4 76.4,232.9 77.4,232.7 78.0,233.1 78.3,233.7 78.4,234.7 78.4,235.4 78.3,236.1 77.8,238.5 77.4,239.3 77.1,240.0 76.7,240.6 75.4,241.0 74.8,241.1 74.1,241.3 72.5,241.8 71.9,242.5 71.3,243.1 70.7,243.6 " />
    <polygon id="Spain" points="39.3,238.6 38.5,240.9 38.2,242.1 37.3,243.1 36.5,244.0 35.9,244.1 34.5,244.5 33.9,244.0 33.4,243.3 33.0,242.8 32.4,242.2 31.7,241.4 30.5,239.1 31.6,238.6 32.3,238.7 33.0,238.8 33.9,238.7 35.9,238.3 37.0,238.0 38.1,236.9 38.4,236.3 40.4,235.6 42.2,235.5 42.2,236.6 41.3,237.0 39.3,238.6 " />
    <polygon id="Spain" points="26.4,244.1 25.6,244.2 24.5,243.7 24.1,243.1 24.0,242.6 24.2,241.8 25.1,241.2 26.1,241.5 27.4,242.1 27.8,242.6 27.6,243.2 26.7,244.0 " />
    <polygon id="Spain" points="51.5,248.2 50.8,248.4 49.8,248.2 48.0,247.0 47.4,245.7 47.4,245.0 47.5,244.4 48.0,244.2 48.8,243.7 49.2,243.1 49.3,242.3 50.3,242.0 53.4,242.3 54.5,244.2 54.0,246.8 53.5,247.5 52.8,247.7 52.0,248.0 " />
    <polygon id="Spain" points="15.0,247.9 14.2,249.3 13.9,250.0 11.3,249.0 11.0,248.5 11.5,247.9 12.6,248.2 13.4,247.6 14.7,246.7 15.2,246.8 15.5,247.5 " />
  </g>
</svg>