<?xml version="1.0" encoding="UTF-8" standalone="yes"?>
<!DOCTYPE svg PUBLIC "-//W3C//DTD SVG 1.0//EN" "http://www.w3.org/TR/2001/REC-SVG-20010904/DTD/svg10.dtd">
<svg height="250" width="370" xmlns="http://www.w3.org/2000/svg" xmlns:svg="http://www.w3.org/2000/svg" xmlns:xlink="http://www.w3.org/1999/xlink">


<g id="background">
<rect id="" width="370" height="250" fill="#222222"/>
</g>
  <g id="732" style="stroke-miterlimit: 3; fill: #F1F1F1; stroke: #000000; stroke-opacity: 1; stroke-width: 0.05; stroke-linejoin: bevel; stroke-linecap: square">
    <polygon id="Western Sahara" points="82.4,229.2 76.9,229.2 72.4,229.2 67.7,229.2 51.1,229.2 38.5,229.2 38.2,230.6 37.0,236.8 35.4,241.3 35.0,242.4 34.3,244.3 34.1,244.9 34.9,250.0 33.3,247.6 33.0,247.1 33.3,244.1 33.4,243.5 34.5,237.9 35.7,231.1 36.0,228.2 36.4,225.5 36.6,224.7 37.5,221.4 37.9,218.8 38.3,215.8 38.1,213.4 38.3,211.7 39.8,207.3 42.1,202.7 47.0,195.8 48.6,194.6 49.4,194.7 49.9,195.2 51.2,195.1 53.7,194.2 54.8,193.7 55.2,193.1 56.1,191.5 56.3,190.3 57.5,186.5 58.1,186.1 58.7,185.7 59.2,185.4 59.9,184.8 60.5,182.3 60.7,180.3 60.6,179.2 60.8,177.9 61.3,176.5 63.1,172.7 63.7,172.6 64.5,172.3 65.8,171.5 66.5,170.7 67.0,169.7 67.3,169.0 67.4,168.4 67.6,167.8 67.7,167.2 67.5,166.5 66.6,165.9 69.1,160.0 70.3,157.3 70.9,156.6 71.7,155.9 72.4,155.0 73.1,154.0 73.7,153.0 74.1,151.0 74.4,150.3 75.7,148.1 77.3,145.9 77.8,145.4 79.0,144.5 79.5,143.8 81.5,140.7 81.7,138.2 81.7,137.6 81.1,136.1 77.7,139.0 77.0,139.8 76.7,140.5 75.7,142.7 75.6,143.4 75.1,144.3 73.6,145.7 73.0,145.7 72.7,145.0 75.5,140.5 76.2,139.3 77.9,137.6 78.9,136.5 79.5,136.1 83.8,133.3 88.2,130.6 90.2,128.2 92.7,125.5 96.1,122.8 98.4,120.8 99.0,119.9 100.0,118.5 100.4,117.9 100.8,117.0 102.7,115.1 103.2,114.8 103.9,114.5 104.5,114.3 105.6,114.1 106.9,113.8 108.1,113.2 112.7,108.0 113.1,107.4 115.2,99.7 115.4,95.2 115.3,94.1 114.9,93.3 114.8,92.1 114.8,89.1 115.4,86.1 115.9,84.2 116.7,81.2 118.2,79.2 120.7,74.0 122.0,70.0 122.6,68.7 123.4,67.4 124.2,66.5 124.8,65.9 125.8,64.5 126.1,64.0 126.7,62.7 127.5,60.8 127.7,59.8 127.9,58.3 128.1,57.0 127.8,56.2 127.7,55.6 127.8,54.7 128.1,54.2 130.1,51.5 130.7,51.0 131.9,50.6 133.0,50.4 133.8,50.1 134.5,49.8 136.3,48.2 137.3,47.3 138.3,46.0 141.6,44.8 143.0,44.6 143.9,44.4 144.9,44.1 148.6,42.0 156.0,37.7 158.9,35.8 159.7,35.1 160.9,33.9 161.7,32.9 162.9,30.6 163.4,29.6 164.2,27.9 166.2,21.8 166.6,20.6 166.6,19.9 166.7,18.9 166.8,18.3 167.0,17.7 167.3,17.0 168.1,15.7 169.0,14.7 169.6,14.0 170.7,12.3 172.6,8.3 172.8,7.8 173.6,5.6 175.3,0.0 179.2,0.0 187.4,0.0 279.5,0.0 286.0,0.1 287.9,0.1 289.5,0.1 290.3,0.0 292.7,0.0 296.4,0.0 302.4,0.0 314.5,0.0 315.7,0.0 338.6,0.0 338.6,2.4 338.6,6.1 338.6,13.6 338.6,25.4 338.6,30.2 338.6,45.9 338.6,55.5 338.6,58.0 338.6,60.4 312.1,60.4 306.0,60.4 303.6,60.4 301.2,60.4 294.0,60.4 291.5,60.4 290.3,60.4 285.5,60.4 272.2,60.4 263.8,60.4 244.5,60.4 228.7,60.4 217.9,60.4 217.9,70.0 217.9,72.5 217.9,73.7 217.9,85.7 217.9,88.2 217.9,89.3 217.9,101.4 217.9,103.8 217.9,105.1 217.9,118.3 217.9,120.7 217.9,132.8 217.9,140.1 217.9,152.6 214.3,153.5 209.5,155.2 204.6,157.5 197.2,158.5 196.3,159.0 194.8,159.9 190.9,162.4 181.7,168.1 179.9,170.4 177.9,172.9 176.8,175.9 176.2,177.8 178.3,184.6 178.8,186.4 178.9,187.1 179.3,193.5 179.5,197.8 179.8,202.1 179.9,204.0 180.5,212.6 181.5,226.1 181.7,229.2 168.0,229.1 148.8,229.1 135.1,229.1 134.5,229.1 128.5,229.1 120.6,229.2 109.1,229.3 101.1,229.2 82.4,229.2 " />
  </g>
</svg>