<?xml version="1.0" encoding="UTF-8" standalone="yes"?>
<!DOCTYPE svg PUBLIC "-//W3C//DTD SVG 1.0//EN" "http://www.w3.org/TR/2001/REC-SVG-20010904/DTD/svg10.dtd">
<svg height="250" width="370" xmlns="http://www.w3.org/2000/svg" xmlns:svg="http://www.w3.org/2000/svg" xmlns:xlink="http://www.w3.org/1999/xlink">


<g id="background">
<rect id="" width="370" height="250" fill="#222222"/>
</g>
  <g id="736" style="stroke-miterlimit: 3; fill: #F1F1F1; stroke: #000000; stroke-opacity: 1; stroke-width: 0.05; stroke-linejoin: bevel; stroke-linecap: square">
    <polygon id="Sudan" points="202.4,4.1 203.0,4.1 204.1,4.1 209.7,4.1 214.2,4.0 214.9,4.0 215.6,4.0 216.3,4.1 218.4,4.1 225.3,4.1 227.8,4.1 229.1,4.1 232.9,4.1 233.5,4.1 234.6,4.1 235.8,4.1 237.4,4.1 237.9,4.2 240.9,4.2 245.3,4.2 245.8,4.1 248.3,4.1 248.9,4.1 249.6,4.1 251.8,4.1 254.5,4.1 255.7,4.1 260.2,4.1 261.9,4.1 263.4,4.1 266.5,4.1 267.0,4.1 268.5,4.1 270.4,4.1 272.3,4.1 272.8,4.1 274.0,4.1 274.8,4.1 274.7,6.9 275.1,8.9 276.4,11.6 277.3,13.0 277.7,13.5 278.3,14.1 279.1,14.8 279.6,15.3 280.5,16.5 280.5,17.1 279.7,17.4 279.0,16.3 279.5,16.6 280.1,16.7 279.5,15.7 278.6,14.9 277.8,14.6 277.6,15.1 278.3,17.9 278.6,20.2 278.7,21.4 279.2,22.4 279.4,23.2 279.5,24.5 278.9,25.4 278.8,26.4 278.8,27.8 278.9,30.5 279.3,31.9 279.7,32.6 280.0,33.9 279.9,34.9 279.6,36.5 279.9,37.0 280.3,37.8 280.5,38.7 280.5,39.3 280.6,40.1 280.7,40.9 280.9,42.1 281.2,43.0 282.2,46.0 283.3,47.8 283.9,48.0 285.0,48.0 285.6,47.9 286.4,48.0 286.6,48.6 287.5,49.4 288.3,49.8 289.0,50.2 289.7,50.8 290.5,51.8 291.1,52.8 290.9,53.3 291.8,54.0 292.3,54.3 293.4,54.5 294.7,55.0 295.6,55.7 297.0,56.0 297.6,56.5 297.9,57.3 296.5,58.6 295.9,59.2 294.7,61.9 293.3,63.7 291.6,64.1 291.1,63.6 290.5,63.4 289.3,64.1 288.9,64.7 288.4,64.9 286.4,65.7 284.7,66.0 284.2,66.2 283.3,66.5 283.4,67.1 283.5,67.7 282.9,69.3 282.1,70.3 281.5,70.2 279.9,70.4 278.5,70.6 277.9,70.2 276.8,69.8 276.5,70.4 276.6,73.5 276.3,74.5 275.7,75.0 275.2,75.6 275.1,77.0 275.2,77.7 275.7,78.3 276.1,80.3 275.8,80.8 275.3,81.3 274.9,82.2 274.1,84.4 273.3,86.7 272.4,87.4 272.0,88.7 271.4,91.0 271.2,91.7 270.6,93.4 270.3,94.4 269.5,95.1 269.1,96.6 270.0,104.8 270.3,107.1 269.0,111.4 269.6,113.0 268.8,114.8 268.6,115.3 268.6,115.9 268.4,116.6 267.9,117.2 266.4,119.3 265.2,123.6 265.3,124.2 265.0,124.8 264.9,125.4 265.0,127.8 264.4,128.2 263.7,128.0 262.6,128.0 259.1,128.6 259.1,129.1 258.4,129.6 254.9,135.2 253.5,137.7 253.3,138.4 252.8,138.9 252.0,139.1 251.4,139.4 250.9,140.0 250.6,140.6 250.5,141.2 250.6,142.1 251.0,142.9 251.0,143.4 249.9,145.9 249.6,146.6 249.3,147.1 249.3,147.7 249.8,148.2 249.5,149.4 248.8,151.4 249.4,152.0 249.4,152.7 247.9,154.4 247.1,154.5 245.9,153.5 244.3,152.3 242.3,153.7 241.1,155.8 240.6,156.4 240.8,159.5 241.0,160.4 241.0,161.1 240.7,162.6 239.5,163.8 239.3,164.5 239.2,165.5 238.3,167.4 237.5,170.2 237.6,171.5 237.7,172.4 238.2,178.1 238.1,180.1 238.0,182.4 238.0,183.1 237.3,183.9 236.4,184.7 235.8,185.1 235.2,185.1 234.4,185.2 233.9,185.4 233.3,186.0 232.7,185.9 232.0,185.1 231.5,184.6 229.9,184.6 228.2,185.0 227.5,184.9 226.6,184.7 225.4,185.5 225.2,186.1 225.3,187.2 225.4,187.9 225.6,188.9 224.8,189.5 223.5,190.9 223.0,191.8 223.0,192.4 223.3,192.9 223.7,193.6 224.3,193.8 226.5,194.0 228.9,194.3 231.7,195.1 232.5,195.4 234.8,197.1 236.7,199.1 236.8,200.2 236.7,200.8 237.7,201.6 238.6,201.9 239.0,203.0 239.4,203.7 240.1,204.5 240.7,204.8 241.3,204.8 242.1,205.1 242.7,205.3 242.9,206.1 243.4,207.5 243.9,207.8 244.4,207.8 245.1,208.0 245.8,208.5 246.4,209.3 247.7,212.7 247.8,213.7 248.0,214.4 248.6,215.7 249.2,216.2 249.5,216.7 249.6,217.4 249.4,217.9 249.6,219.2 250.1,220.0 251.1,221.7 251.1,222.5 253.6,224.1 253.5,224.7 253.7,225.8 254.3,226.2 255.3,225.6 255.8,225.1 256.5,225.1 259.4,226.0 260.1,226.4 260.7,226.5 260.4,227.3 260.4,228.0 260.8,228.5 260.8,229.0 260.4,229.5 260.1,233.6 262.1,235.7 259.2,236.0 258.3,236.0 257.5,236.0 256.5,236.0 251.7,236.1 249.1,236.1 247.4,236.1 246.7,236.1 245.9,236.1 242.8,236.1 241.8,236.1 237.7,240.0 236.3,241.3 230.1,247.4 228.2,247.5 226.3,247.4 225.5,247.4 224.7,246.8 223.3,245.7 222.8,246.1 222.2,246.4 221.7,246.8 220.4,247.2 219.3,247.5 218.6,247.5 216.1,247.6 215.1,247.7 212.4,249.4 212.4,249.9 212.3,250.7 211.5,250.6 211.0,250.5 210.6,249.8 210.1,249.7 209.1,249.7 208.9,248.5 207.8,247.2 207.0,246.7 206.4,247.4 205.8,248.0 203.6,248.9 202.5,248.3 201.4,247.6 200.2,247.0 199.1,247.0 196.2,248.3 194.9,250.0 194.6,250.6 193.5,248.8 192.9,249.0 191.4,249.4 190.9,249.5 190.7,248.9 190.8,248.4 190.4,246.1 189.8,246.0 188.8,245.8 187.8,245.2 186.8,244.8 186.2,244.9 185.7,244.6 185.3,243.7 185.1,243.0 184.4,242.7 183.9,242.5 182.9,241.1 182.5,240.4 181.0,239.6 180.5,239.4 180.3,238.5 180.4,238.0 180.6,236.8 179.0,236.0 178.3,235.7 176.3,235.1 175.9,235.7 175.9,236.3 175.5,237.2 174.1,239.0 172.9,239.6 172.4,239.6 171.8,239.1 169.9,237.6 169.4,237.8 168.3,237.9 167.4,237.8 167.1,237.3 166.7,236.7 165.9,237.1 165.5,237.7 165.1,238.5 164.1,238.9 163.1,239.3 162.7,239.8 161.2,240.4 159.1,239.6 157.5,238.5 156.7,237.5 155.4,236.9 154.6,236.8 153.6,236.3 153.3,235.4 153.5,234.8 153.5,234.2 151.9,232.3 150.0,231.7 149.1,230.7 149.1,230.0 148.4,229.0 147.9,228.7 147.3,228.1 146.7,227.1 146.4,226.5 146.2,225.3 146.4,224.2 146.7,223.7 146.8,223.2 146.2,222.3 145.8,221.5 144.9,220.6 142.8,219.4 142.0,219.4 141.2,219.1 140.7,218.2 139.5,217.4 139.0,217.3 138.4,217.5 137.8,217.4 137.2,217.2 135.6,216.6 135.8,215.9 136.3,215.5 136.7,214.9 135.8,213.6 134.6,212.9 133.8,212.4 133.6,211.3 134.5,209.8 135.1,209.1 134.5,208.4 134.0,208.2 133.3,208.2 131.3,206.5 130.5,205.5 130.3,204.7 129.5,204.0 127.7,202.8 126.1,202.0 124.6,201.4 122.4,200.2 121.3,199.7 121.0,199.1 120.7,198.5 120.0,197.9 119.3,197.6 118.7,196.6 119.6,195.9 120.1,195.8 120.3,195.2 120.2,193.9 119.8,193.0 118.8,192.2 118.2,192.2 117.6,192.4 117.0,191.9 115.9,190.8 115.6,190.3 115.6,189.8 114.7,188.8 113.7,188.3 112.7,188.1 111.8,188.0 111.3,187.9 109.4,187.7 107.5,187.4 106.4,187.2 105.8,187.0 105.2,186.5 104.9,185.9 105.1,184.6 105.7,183.9 106.3,183.3 105.7,181.7 105.0,181.7 104.1,181.7 103.6,181.6 102.0,181.3 100.6,181.2 100.0,181.2 97.1,181.5 96.5,181.3 96.3,180.7 96.4,180.1 96.9,179.6 97.4,178.8 97.4,177.7 96.8,178.0 96.2,178.0 95.7,177.6 96.0,175.8 96.2,175.2 96.7,175.1 97.3,175.0 98.3,173.9 98.5,171.8 98.0,170.4 98.3,169.8 98.9,168.7 98.6,166.0 96.8,163.1 94.0,158.5 90.4,155.3 89.8,154.9 88.9,153.5 88.3,152.6 87.9,151.9 88.2,151.2 89.3,148.2 89.3,147.2 88.8,145.5 86.8,145.1 85.0,144.1 84.5,143.5 84.1,142.9 83.7,142.4 83.9,140.2 84.3,138.5 84.5,137.6 83.8,136.5 83.0,135.3 82.2,133.0 81.7,131.1 82.5,129.4 80.7,128.5 79.3,127.5 78.5,128.5 78.0,128.8 77.3,129.0 76.4,129.0 75.7,128.9 75.1,128.6 74.1,127.0 74.8,124.9 75.5,123.5 76.6,122.3 77.1,122.2 78.3,121.7 79.9,119.9 80.2,119.4 79.3,117.6 78.1,115.4 77.4,113.8 78.9,111.9 79.4,111.3 80.5,110.7 81.2,110.4 82.1,110.1 83.7,109.2 83.9,108.6 83.8,107.9 83.1,107.6 82.3,106.4 82.3,105.8 82.3,104.6 81.6,104.0 81.4,103.4 81.7,102.9 82.6,102.4 85.7,101.6 85.4,100.8 85.2,100.1 85.2,99.5 86.3,97.8 86.8,97.3 87.5,96.5 88.2,96.1 88.8,95.9 89.3,94.8 89.5,93.7 89.6,93.0 89.6,92.4 89.4,91.9 88.8,91.3 88.6,90.7 88.8,90.0 91.1,88.1 91.9,88.0 92.9,88.1 93.7,88.3 94.4,88.4 95.0,88.3 95.7,88.0 96.7,87.6 97.6,87.4 98.5,87.4 100.2,87.5 101.2,87.7 102.3,88.0 102.9,88.2 103.0,86.4 103.0,82.4 103.0,80.6 103.0,53.5 103.0,50.4 103.0,47.4 103.0,46.4 103.0,38.3 103.0,37.5 103.0,32.0 103.0,30.9 103.6,30.8 105.0,30.8 109.1,30.8 110.7,30.8 111.4,30.8 113.2,30.8 116.1,30.8 116.3,17.3 116.3,4.1 117.6,4.1 119.2,4.1 121.8,4.1 126.7,4.1 134.2,4.1 138.3,4.1 140.8,4.2 141.9,4.1 142.6,4.1 144.2,4.1 144.8,4.1 146.6,4.1 147.4,4.2 148.2,4.2 152.7,4.1 159.3,4.1 159.8,4.0 160.6,4.1 164.3,4.1 169.9,4.2 170.6,4.2 171.2,4.2 171.8,4.2 173.0,4.2 176.7,4.1 177.9,4.1 184.4,4.1 186.7,4.1 188.1,4.1 189.2,4.1 191.0,4.1 192.2,4.1 193.0,4.1 198.6,4.1 199.1,4.1 200.0,4.1 200.6,3.0 201.5,1.4 202.1,1.0 202.7,1.1 203.2,1.7 202.6,3.7 " />
    <polygon id="Sudan" points="280.0,20.8 279.7,20.1 279.8,19.6 280.0,20.6 " />
  </g>
</svg>