<?xml version="1.0" encoding="UTF-8" standalone="yes"?>
<!DOCTYPE svg PUBLIC "-//W3C//DTD SVG 1.0//EN" "http://www.w3.org/TR/2001/REC-SVG-20010904/DTD/svg10.dtd">
<svg height="250" width="370" xmlns="http://www.w3.org/2000/svg" xmlns:svg="http://www.w3.org/2000/svg" xmlns:xlink="http://www.w3.org/1999/xlink">


<g id="background">
<rect id="" width="370" height="250" fill="#222222"/>
</g>
  <g id="744" style="stroke-miterlimit: 3; fill: #F1F1F1; stroke: #000000; stroke-opacity: 1; stroke-width: 0.05; stroke-linejoin: bevel; stroke-linecap: square">
    <polygon id="Svalbard and Jan Mayen" points="241.0,86.2 241.5,86.2 242.1,86.2 241.4,86.5 240.9,86.3 239.7,86.3 238.6,86.0 239.1,85.8 239.6,85.9 241.0,86.2 " />
    <polygon id="Svalbard and Jan Mayen" points="245.1,86.4 244.6,86.6 244.0,86.7 243.3,86.8 242.8,86.6 243.6,86.4 244.1,86.3 244.7,86.3 " />
    <polygon id="Svalbard and Jan Mayen" points="240.4,87.0 239.9,86.9 239.0,86.8 238.4,86.7 239.3,86.6 240.4,86.7 " />
    <polygon id="Svalbard and Jan Mayen" points="233.8,88.1 233.2,88.0 234.0,87.7 234.6,87.7 235.2,87.8 234.4,88.1 233.8,88.1 " />
    <polygon id="Svalbard and Jan Mayen" points="268.7,88.2 267.8,88.2 267.1,88.1 266.4,88.1 266.9,87.9 267.7,87.9 268.2,87.9 268.9,88.1 " />
    <polygon id="Svalbard and Jan Mayen" points="233.8,88.1 234.4,88.2 235.2,88.7 235.7,88.7 236.3,88.6 237.0,88.6 237.7,88.7 238.6,89.4 239.3,89.6 239.9,89.6 240.6,89.5 240.8,90.2 241.5,90.3 243.2,90.3 244.8,90.1 246.3,89.8 248.0,89.8 248.9,89.8 249.4,89.9 249.5,90.4 248.5,90.6 247.9,90.7 247.4,90.9 248.3,90.9 248.8,90.8 250.9,91.1 251.5,91.4 252.0,91.8 252.8,92.1 253.3,92.0 253.8,90.6 254.1,89.9 255.0,89.7 253.7,89.4 253.2,89.1 253.6,88.6 254.5,88.5 255.4,88.6 255.9,88.6 255.4,89.1 256.1,89.3 257.1,88.7 257.6,88.0 258.1,88.2 259.5,88.3 260.6,88.3 261.1,88.4 260.5,88.8 259.9,88.8 260.7,89.2 261.3,89.2 260.9,89.8 260.1,89.9 259.2,90.0 258.5,90.7 259.0,91.0 259.7,91.1 260.2,91.1 259.5,90.8 260.3,90.5 262.0,90.3 262.5,90.4 262.9,90.9 263.4,90.9 264.6,90.3 264.4,89.6 265.1,89.7 266.5,89.8 265.8,89.6 266.4,89.5 268.3,89.6 269.0,89.7 269.5,89.6 268.9,89.4 268.2,89.3 268.8,89.0 269.4,89.0 270.6,89.2 271.4,89.5 270.4,89.6 271.0,89.9 272.4,89.7 272.9,89.2 273.5,89.3 273.3,89.8 272.8,90.0 274.5,89.9 275.5,89.9 276.1,89.8 276.9,89.8 277.4,89.8 276.7,89.9 278.2,90.2 279.0,90.1 280.2,90.3 281.6,90.6 283.3,90.5 284.6,90.5 287.5,90.5 289.1,90.6 289.9,90.8 290.5,91.0 291.9,91.1 292.5,91.2 292.0,91.8 291.5,92.2 292.0,92.5 292.5,92.6 291.8,93.2 291.2,93.3 290.3,93.3 289.6,93.4 289.1,93.6 288.0,93.7 286.9,94.0 286.3,94.3 284.2,94.7 283.0,94.8 281.2,95.1 281.9,95.4 282.5,95.9 281.1,96.5 280.5,96.7 279.7,96.9 278.9,96.9 278.2,97.0 277.5,97.2 276.2,97.4 275.0,97.4 274.5,97.4 273.6,97.0 273.0,97.0 272.3,97.2 271.5,97.3 270.9,97.4 270.1,97.5 269.5,97.5 268.8,97.6 268.4,98.2 267.5,98.5 265.8,98.6 264.9,98.6 263.9,98.6 262.6,98.6 261.8,98.6 261.0,98.5 258.3,98.3 257.6,98.2 257.1,98.1 256.4,97.9 255.8,97.7 255.7,97.1 256.4,97.0 257.2,96.8 255.9,96.8 254.4,96.8 253.5,96.8 252.7,96.8 252.2,96.8 251.6,96.8 249.9,96.9 249.4,97.0 248.9,97.1 248.3,97.1 247.7,97.1 247.0,96.9 245.9,96.9 245.4,96.9 243.9,97.0 243.0,97.0 242.2,97.1 240.8,97.0 240.4,96.4 239.8,96.4 239.2,96.4 238.6,96.4 236.6,96.4 235.3,96.2 233.8,95.9 233.0,95.8 232.1,95.7 231.6,95.5 232.3,95.0 233.3,95.0 235.3,94.9 235.9,94.9 236.5,95.0 237.2,95.2 237.8,95.3 238.9,95.3 240.0,95.3 240.9,95.3 241.4,95.4 242.6,95.5 243.2,95.5 242.6,95.3 241.7,95.2 240.7,95.1 239.8,95.1 238.2,94.6 242.4,94.3 243.2,94.3 243.9,94.3 244.7,94.3 245.5,94.3 246.4,94.3 247.9,94.3 248.7,94.4 249.2,94.4 250.2,94.0 251.7,93.9 252.6,93.8 253.1,93.8 252.5,93.6 251.1,93.7 250.1,93.9 248.8,93.9 249.3,93.5 248.0,93.3 245.7,93.4 243.5,93.5 240.9,93.6 240.4,93.6 239.6,93.6 239.1,93.6 238.3,93.6 237.8,93.6 237.1,93.7 236.4,93.7 235.7,93.8 235.0,93.9 233.8,94.1 230.9,94.3 230.2,94.3 229.6,94.1 226.4,94.2 224.9,94.3 224.3,94.2 223.6,93.9 223.0,93.7 222.1,93.7 220.6,93.1 219.5,92.7 220.2,92.6 221.1,92.4 222.2,92.4 223.0,92.4 223.5,92.3 224.4,92.2 222.9,91.7 222.4,91.7 221.0,91.6 220.2,91.6 219.5,91.4 220.1,91.4 220.7,91.4 221.2,91.4 218.8,91.0 217.8,91.0 216.6,91.0 217.2,90.8 218.6,90.5 219.6,90.5 220.3,90.6 221.5,90.6 223.0,90.5 223.7,90.7 224.4,90.5 225.5,90.5 227.8,91.0 228.4,91.3 229.1,91.3 231.0,90.8 230.2,90.6 229.6,90.6 228.8,90.6 228.1,90.4 227.1,89.9 226.2,89.3 226.8,89.2 227.6,89.2 228.4,89.3 229.0,89.4 229.6,89.5 231.1,90.2 231.8,90.3 232.8,90.3 232.9,89.8 233.2,89.3 232.1,88.8 231.0,88.9 230.4,88.9 230.0,88.3 231.5,88.0 233.8,88.1 " />
    <polygon id="Svalbard and Jan Mayen" points="269.3,88.9 268.1,88.9 267.6,88.8 268.1,88.3 269.6,88.8 " />
    <polygon id="Svalbard and Jan Mayen" points="222.7,90.0 221.9,90.1 221.4,89.9 220.5,89.8 219.4,89.7 220.0,89.3 220.7,89.1 221.3,89.1 223.0,89.3 224.3,89.5 223.4,89.9 222.7,90.0 " />
    <polygon id="Svalbard and Jan Mayen" points="333.9,91.2 333.3,91.3 332.7,91.3 332.2,91.3 328.8,91.3 327.6,91.4 326.5,91.3 329.3,91.0 331.9,90.8 333.6,90.7 335.7,90.5 337.0,90.5 338.1,90.4 339.2,90.3 341.1,90.1 342.1,90.0 343.2,90.1 343.8,90.2 343.1,90.4 341.2,90.6 338.5,90.8 337.6,90.9 336.5,91.0 335.2,91.1 333.9,91.2 " />
    <polygon id="Svalbard and Jan Mayen" points="297.4,91.1 296.9,91.1 296.3,91.1 297.1,90.6 297.8,90.7 298.6,90.7 299.2,90.8 298.6,91.0 297.4,91.1 " />
    <polygon id="Svalbard and Jan Mayen" points="370.0,90.9 369.3,90.9 368.7,90.8 368.0,90.8 368.9,90.7 369.8,90.8 " />
    <polygon id="Svalbard and Jan Mayen" points="208.8,93.0 209.4,93.0 209.4,92.5 210.0,92.3 212.0,92.5 213.2,92.6 214.6,92.8 217.1,93.6 218.7,94.0 218.1,94.6 217.6,94.7 217.1,94.8 216.2,95.5 216.5,96.1 216.5,96.6 215.5,96.9 216.8,96.9 217.7,96.7 218.4,96.3 218.6,95.7 219.6,95.1 220.2,95.0 220.9,95.0 223.6,95.5 224.2,95.7 225.2,96.4 225.3,97.5 225.1,98.0 225.6,98.7 226.1,98.8 227.3,98.9 227.8,98.9 228.3,98.8 228.8,98.6 232.1,98.8 232.7,99.0 233.6,99.9 234.3,99.9 234.8,100.0 236.5,100.1 237.1,100.3 237.8,100.5 238.5,100.6 240.4,100.7 241.4,100.7 242.1,100.7 242.9,100.8 244.4,101.1 245.4,101.1 246.7,101.3 246.8,101.9 245.4,102.6 244.0,102.7 243.4,102.9 242.8,102.9 241.9,102.8 241.3,102.6 240.6,102.5 239.8,102.6 239.2,103.0 238.6,103.1 238.0,103.0 237.4,102.9 236.2,102.9 235.2,102.9 234.6,103.1 232.4,103.1 231.9,103.2 231.0,103.4 231.7,103.9 230.8,104.0 230.3,104.0 229.4,104.2 228.1,104.3 226.4,104.4 226.7,104.9 226.5,105.4 226.3,106.0 227.1,107.3 225.3,107.8 224.6,107.9 223.9,107.8 223.4,107.7 222.7,107.6 221.8,107.8 221.0,108.9 221.7,109.2 221.9,109.9 221.2,111.0 220.7,112.0 220.2,112.2 218.4,112.2 217.7,112.0 216.5,112.2 215.5,112.7 214.7,113.3 214.2,114.2 213.6,114.7 213.0,115.6 212.4,115.8 211.9,115.7 211.3,115.7 212.1,116.1 212.6,116.2 212.0,116.8 210.6,117.3 209.8,117.6 210.4,118.0 211.0,118.1 211.6,118.3 210.2,119.4 209.1,119.6 208.2,119.6 207.1,119.6 204.9,118.9 204.1,118.4 202.3,118.2 201.7,118.1 200.8,117.7 200.3,117.5 199.1,117.3 198.4,117.2 199.9,116.7 201.2,116.6 202.3,116.4 203.3,116.3 204.6,116.4 205.8,116.3 206.3,116.3 205.1,116.1 203.0,116.0 202.3,115.5 201.2,115.6 200.3,116.1 198.9,116.1 197.4,116.1 196.1,116.0 195.2,115.7 194.5,115.3 192.0,114.7 191.4,114.7 190.7,114.7 190.1,114.8 189.2,114.6 188.6,114.2 187.2,113.7 186.6,113.1 185.9,112.9 185.4,112.1 186.5,111.6 187.4,111.5 188.7,111.4 189.9,111.5 190.5,111.6 190.3,112.1 190.8,112.2 191.8,112.2 193.1,111.7 193.6,111.7 194.7,111.7 195.4,111.8 197.5,111.9 198.1,111.9 198.7,111.9 199.4,111.8 200.1,111.8 200.8,111.9 201.6,112.1 202.2,112.3 202.8,112.5 203.7,112.6 204.6,112.4 203.8,112.2 202.8,112.1 202.1,111.9 201.5,111.6 200.3,111.5 199.1,111.4 196.0,111.2 195.3,111.2 194.0,111.2 193.4,111.2 192.0,110.9 193.0,110.7 195.0,110.5 195.8,110.4 197.6,110.3 199.3,110.1 200.2,110.1 202.2,110.0 204.0,109.9 207.7,109.7 208.6,109.6 209.4,109.1 210.2,108.9 209.3,108.7 208.1,108.9 207.5,109.2 205.7,109.3 204.5,109.3 203.4,109.3 202.0,109.4 201.5,109.5 200.9,109.5 200.3,109.4 199.4,109.3 197.3,109.2 196.8,109.2 196.0,109.4 195.2,109.7 194.5,109.8 193.1,109.8 192.0,110.0 191.0,110.0 189.7,110.1 188.0,110.0 187.3,109.9 186.5,110.1 185.8,110.3 184.2,110.3 184.6,109.7 184.1,109.5 183.5,109.2 183.1,108.5 182.8,107.7 185.1,107.3 185.6,107.3 186.4,107.5 187.0,107.6 188.0,108.0 188.5,108.4 188.7,107.9 188.2,107.7 188.8,107.3 189.3,107.4 189.9,107.4 190.5,107.3 191.1,107.3 192.0,107.2 192.7,107.2 193.4,107.3 194.0,107.3 194.6,106.9 195.9,106.5 196.5,106.3 197.6,106.2 198.3,106.2 198.8,106.2 199.4,106.3 200.0,106.3 199.2,106.0 200.3,105.4 202.1,105.3 203.0,105.2 204.1,105.3 206.0,105.4 208.0,105.4 208.8,105.4 209.3,105.3 210.6,105.1 212.6,104.7 212.0,104.6 209.6,104.9 209.0,105.0 207.1,104.8 206.4,104.6 205.7,104.6 204.8,104.5 205.9,103.9 206.5,103.5 207.7,103.2 208.6,102.9 208.0,102.7 207.3,102.7 206.8,102.3 206.2,102.4 204.8,103.5 204.3,103.6 203.4,103.8 202.8,104.0 202.1,104.2 201.4,104.3 200.1,104.3 199.3,104.4 198.0,104.5 197.1,104.3 196.5,104.1 195.7,103.4 196.9,103.2 197.4,103.1 198.2,102.4 198.0,101.6 197.3,101.3 196.7,101.4 195.9,101.9 195.9,102.6 194.4,103.2 193.8,103.3 193.3,103.2 192.6,102.9 192.7,102.2 191.7,102.2 191.0,102.4 190.4,102.6 190.4,103.4 189.7,103.8 189.2,104.1 190.0,104.4 190.7,104.4 191.4,104.5 191.9,105.0 191.2,105.1 189.7,105.0 189.0,105.0 188.5,105.4 187.6,105.9 187.0,106.0 186.0,105.8 184.1,105.9 184.7,106.2 183.8,106.5 183.1,106.5 181.2,106.4 179.9,106.3 179.2,106.3 178.7,106.4 178.1,106.5 177.4,106.2 177.0,105.3 176.4,105.2 175.8,105.2 174.9,105.0 173.0,104.3 174.3,104.1 175.7,104.1 177.2,104.1 178.8,103.9 179.5,103.8 178.8,103.7 177.8,103.8 177.0,103.9 175.3,103.8 173.9,103.7 173.0,103.7 171.2,103.3 170.3,103.2 169.8,103.1 169.3,103.0 167.2,102.2 167.6,101.7 168.3,101.5 168.8,101.5 169.4,101.5 168.7,101.2 167.8,101.2 167.1,101.1 166.6,101.0 165.4,100.7 164.7,100.5 165.3,100.3 166.3,100.2 166.8,100.2 167.4,100.3 168.6,100.4 169.9,100.6 171.8,100.9 172.4,100.9 173.8,100.8 173.6,100.1 172.9,100.1 172.4,100.1 171.8,100.2 170.9,100.3 170.3,100.3 169.2,99.8 168.2,99.6 169.2,98.7 169.9,98.4 170.4,98.4 170.9,97.7 169.9,97.7 169.3,98.1 168.6,98.2 167.7,97.8 167.1,97.5 166.4,97.8 167.0,98.1 167.6,98.4 165.3,99.1 163.8,99.3 163.3,98.5 162.1,97.7 161.2,97.4 160.7,97.1 161.3,96.5 160.6,96.1 159.8,96.0 161.3,95.5 162.1,95.6 162.8,95.6 163.4,95.5 162.1,95.4 161.2,95.3 161.8,94.9 162.3,94.8 163.0,94.9 164.9,94.9 164.0,94.5 163.5,94.3 163.8,93.8 164.7,93.8 165.5,93.9 166.2,93.9 167.4,93.3 168.3,93.3 169.5,93.8 170.3,94.5 171.2,94.7 172.2,94.7 172.7,94.7 172.5,94.1 171.8,94.0 171.3,93.6 171.8,93.3 172.6,93.3 173.2,93.4 173.9,93.6 174.8,93.9 176.3,93.8 177.0,93.7 177.7,93.5 180.8,93.2 181.3,93.2 182.3,93.2 183.2,93.1 183.9,93.0 184.7,93.0 185.4,93.1 185.8,93.8 185.3,94.2 184.7,94.3 183.9,94.4 183.1,94.4 180.6,94.4 178.4,94.5 177.0,94.9 175.6,95.2 175.1,95.3 174.2,95.3 173.6,95.4 174.1,95.6 174.9,95.6 176.4,95.5 178.0,95.3 180.2,95.2 181.8,95.3 181.0,95.9 180.3,95.9 181.4,96.5 181.9,96.5 182.6,96.1 184.2,96.6 185.1,96.9 185.3,97.5 186.2,97.9 186.8,97.9 187.3,97.4 186.3,96.4 185.7,96.2 185.1,95.7 185.9,95.4 186.7,95.2 187.2,95.1 189.3,94.2 189.8,93.9 190.3,93.6 192.3,93.7 192.9,93.9 194.2,94.3 195.2,94.9 195.7,95.0 196.3,95.1 196.5,95.8 197.7,97.0 198.2,97.4 199.4,97.8 200.3,98.1 199.9,99.1 200.4,98.8 201.1,98.7 202.0,99.0 202.9,99.4 203.2,100.1 204.8,100.7 205.3,100.8 206.2,100.7 205.4,100.3 204.8,99.7 204.2,99.2 203.7,98.9 203.4,98.4 202.8,97.9 202.2,97.7 201.7,96.9 201.3,96.0 201.2,95.5 200.6,95.0 200.1,94.7 199.3,93.9 199.3,93.4 199.8,93.0 200.5,93.0 201.1,93.0 202.2,93.1 202.7,93.1 203.3,93.0 202.5,92.8 201.8,92.5 202.4,91.9 204.4,91.5 206.4,91.6 208.0,92.8 208.5,92.9 " />
    <polygon id="Svalbard and Jan Mayen" points="161.9,94.1 161.3,94.1 160.8,94.1 160.0,94.1 159.3,94.1 160.0,93.7 160.9,93.8 161.9,94.1 " />
    <polygon id="Svalbard and Jan Mayen" points="161.3,94.8 160.2,94.8 159.6,94.3 161.0,94.2 161.8,94.3 162.5,94.6 161.5,94.8 " />
    <polygon id="Svalbard and Jan Mayen" points="235.2,97.1 235.7,97.2 234.8,97.2 233.5,97.3 232.7,97.3 232.0,97.3 231.4,96.9 232.2,96.8 232.8,96.8 234.6,97.0 235.2,97.1 " />
    <polygon id="Svalbard and Jan Mayen" points="234.4,98.1 234.6,97.5 235.5,97.5 234.4,98.1 " />
    <polygon id="Svalbard and Jan Mayen" points="241.1,99.6 240.2,99.9 238.4,100.0 237.7,100.1 237.1,100.1 236.5,99.9 235.5,99.9 234.8,99.8 235.1,99.1 236.0,99.0 238.4,99.1 240.0,99.3 240.7,99.5 " />
    <polygon id="Svalbard and Jan Mayen" points="244.2,99.7 243.7,99.9 242.9,99.8 242.4,99.9 241.8,99.8 242.6,99.7 243.2,99.7 243.8,99.7 " />
    <polygon id="Svalbard and Jan Mayen" points="316.5,100.2 315.9,100.3 316.8,100.0 317.3,100.0 316.7,100.2 " />
    <polygon id="Svalbard and Jan Mayen" points="307.0,100.7 307.6,100.9 309.3,100.9 310.1,100.8 310.7,100.8 311.3,100.8 311.9,100.7 312.4,100.8 311.4,101.0 310.8,101.0 310.2,101.1 309.5,101.3 308.8,101.3 307.7,101.2 307.2,101.1 306.5,101.0 305.8,100.8 305.0,100.8 303.9,100.9 302.7,100.9 302.2,101.0 301.4,101.1 300.2,101.3 299.7,101.5 298.9,101.1 299.9,100.7 300.5,100.7 301.3,100.7 301.8,100.7 303.7,100.4 304.5,100.4 305.7,100.4 306.2,100.5 306.8,100.6 " />
    <polygon id="Svalbard and Jan Mayen" points="164.1,103.2 164.1,103.8 165.3,103.7 165.9,104.0 166.6,104.3 167.4,104.4 168.1,104.5 169.0,104.8 170.0,105.4 170.8,105.8 171.3,106.4 170.6,106.4 169.5,106.3 169.0,106.2 168.8,105.7 166.9,105.1 166.2,104.9 164.7,104.5 163.8,104.5 163.3,104.6 162.5,104.4 161.9,103.9 161.5,103.4 160.8,103.0 159.7,102.5 159.2,102.3 158.3,101.9 157.8,100.9 158.4,100.8 160.5,101.0 161.1,101.1 161.9,101.4 163.2,102.0 163.2,102.8 164.1,103.2 " />
    <polygon id="Svalbard and Jan Mayen" points="289.5,102.4 290.3,102.5 289.7,102.9 288.8,103.0 288.2,102.8 287.4,102.6 286.6,102.5 285.8,101.9 286.4,101.6 287.0,101.5 287.6,101.6 289.0,102.3 289.5,102.4 " />
    <polygon id="Svalbard and Jan Mayen" points="246.4,103.5 247.0,103.5 247.8,103.3 248.5,103.3 249.6,103.5 250.7,103.4 251.4,103.7 252.3,104.1 252.3,105.4 252.6,105.9 251.8,106.1 250.7,106.1 249.9,106.1 248.7,106.0 247.5,106.1 245.8,106.2 244.6,106.3 243.6,106.4 242.6,106.4 242.1,106.3 241.4,106.3 240.7,106.3 240.1,106.5 239.5,106.5 240.0,106.1 240.6,105.8 239.8,105.6 238.7,105.6 238.1,105.6 238.7,105.3 239.4,105.4 238.7,104.7 237.2,104.5 236.4,104.4 235.6,104.4 236.7,104.1 239.2,103.9 240.6,103.7 241.8,103.7 242.7,103.7 243.2,103.6 243.7,103.1 244.8,103.1 245.8,103.2 246.4,103.5 " />
    <polygon id="Svalbard and Jan Mayen" points="261.2,106.5 262.2,106.8 261.5,107.2 260.2,107.3 259.6,107.3 259.0,107.7 259.4,108.2 260.8,108.4 261.3,108.5 261.9,108.6 263.1,109.0 263.6,109.2 265.3,109.3 266.0,109.3 266.7,109.1 268.4,109.0 269.3,109.0 270.8,109.3 271.7,109.6 272.7,109.8 273.4,109.9 272.6,110.3 270.8,110.4 268.7,110.6 268.0,110.8 267.2,111.0 266.6,111.3 266.1,111.8 264.5,112.5 263.6,112.6 263.0,112.7 262.3,112.9 261.6,113.1 261.1,113.2 260.4,113.0 259.3,113.0 258.2,113.3 257.5,113.9 256.8,114.0 255.6,114.1 254.5,114.0 253.9,114.1 254.2,113.6 253.9,112.9 255.2,112.3 256.0,112.2 256.7,111.8 254.4,111.6 253.8,111.6 253.3,111.6 252.8,111.7 252.2,112.1 251.5,112.1 249.2,112.2 248.3,112.2 247.6,112.2 246.1,112.3 245.5,112.4 244.9,112.5 244.1,112.6 243.4,112.6 242.0,112.6 241.4,112.5 241.2,111.8 242.1,111.4 243.0,111.4 243.9,111.3 244.3,110.8 244.5,110.3 246.1,109.5 247.6,108.8 246.8,108.5 246.0,108.4 245.0,108.3 244.1,108.1 243.4,107.9 242.7,107.8 242.2,107.7 241.5,107.5 242.2,107.1 245.8,106.6 248.1,106.5 249.2,106.4 250.0,106.4 251.6,106.5 253.7,106.5 254.2,106.4 257.2,106.1 258.1,106.1 260.3,106.3 261.2,106.5 " />
    <polygon id="Svalbard and Jan Mayen" points="260.8,114.0 260.2,114.2 259.6,114.2 259.0,114.2 259.7,114.0 260.2,114.0 260.9,113.9 " />
    <polygon id="Svalbard and Jan Mayen" points="274.7,120.4 274.2,120.6 275.1,119.9 275.7,119.7 276.9,119.3 277.8,118.9 278.3,118.5 278.9,118.5 278.0,119.1 277.1,119.4 276.4,119.6 274.9,120.3 " />
    <polygon id="Svalbard and Jan Mayen" points="227.8,137.4 226.9,137.5 226.0,137.2 225.5,137.0 224.6,136.4 225.1,136.2 225.7,136.2 227.3,136.1 228.6,136.4 228.2,137.1 " />
    <polygon id="Svalbard and Jan Mayen" points="6.7,164.6 5.8,164.8 5.3,164.7 4.5,164.7 3.9,164.8 1.5,165.7 0.9,166.0 0.4,166.0 0.1,165.5 1.5,165.0 2.9,164.8 4.3,164.5 4.9,164.3 5.5,163.8 6.2,163.4 8.0,163.0 9.0,163.0 9.6,163.2 9.2,164.0 8.1,164.4 6.7,164.6 " />
  </g>
</svg>