<?xml version="1.0" encoding="UTF-8" standalone="yes"?>
<!DOCTYPE svg PUBLIC "-//W3C//DTD SVG 1.0//EN" "http://www.w3.org/TR/2001/REC-SVG-20010904/DTD/svg10.dtd">
<svg height="250" width="370" xmlns="http://www.w3.org/2000/svg" xmlns:svg="http://www.w3.org/2000/svg" xmlns:xlink="http://www.w3.org/1999/xlink">


<g id="background">
<rect id="" width="370" height="250" fill="#222222"/>
</g>
  <g id="748" style="stroke-miterlimit: 3; fill: #F1F1F1; stroke: #000000; stroke-opacity: 1; stroke-width: 0.05; stroke-linejoin: bevel; stroke-linecap: square">
    <polygon id="Swaziland" points="96.3,90.8 106.9,80.3 112.6,71.7 119.8,60.5 121.8,57.1 123.9,52.7 126.8,46.0 128.7,41.6 129.2,40.1 131.5,31.5 131.9,29.2 162.2,4.2 163.8,3.6 178.1,0.0 204.7,15.6 227.3,28.8 232.9,32.2 239.8,36.3 249.9,42.1 264.2,36.1 268.9,41.3 280.9,48.6 285.0,66.2 285.4,68.3 278.8,83.9 280.5,104.7 283.2,109.7 288.5,120.2 289.5,122.4 290.0,168.2 290.1,174.9 284.4,170.7 282.7,170.1 281.7,169.9 272.6,169.6 270.6,169.9 264.1,208.5 262.6,217.9 262.9,222.7 263.6,233.1 264.2,241.7 266.8,245.7 267.2,249.9 266.6,250.0 257.4,250.0 231.7,249.8 218.9,249.7 193.2,249.4 176.8,244.4 155.5,237.8 146.2,234.9 137.2,232.1 120.7,212.3 106.8,194.0 97.7,169.4 95.9,164.3 94.2,166.6 93.6,167.2 92.3,168.1 91.5,168.5 84.3,171.3 83.7,171.0 83.2,170.3 82.9,168.5 81.7,159.8 80.8,153.3 80.7,150.0 80.3,139.1 80.0,128.2 80.6,116.5 81.6,113.2 84.9,104.3 96.3,90.8 " />
  </g>
</svg>