<?xml version="1.0" encoding="UTF-8" standalone="yes"?>
<!DOCTYPE svg PUBLIC "-//W3C//DTD SVG 1.0//EN" "http://www.w3.org/TR/2001/REC-SVG-20010904/DTD/svg10.dtd">
<svg height="250" width="370" xmlns="http://www.w3.org/2000/svg" xmlns:svg="http://www.w3.org/2000/svg" xmlns:xlink="http://www.w3.org/1999/xlink">


<g id="background">
<rect id="" width="370" height="250" fill="#222222"/>
</g>
  <g id="752" style="stroke-miterlimit: 3; fill: #F1F1F1; stroke: #000000; stroke-opacity: 1; stroke-width: 0.05; stroke-linejoin: bevel; stroke-linecap: square">
    <polygon id="Sweden" points="262.0,8.9 263.0,8.9 263.6,8.9 264.3,9.2 265.4,9.8 266.1,10.2 266.6,10.6 268.2,10.8 272.2,10.9 273.3,11.1 274.6,11.3 276.1,11.5 277.5,11.6 280.5,12.2 281.2,12.8 281.9,13.3 282.5,13.4 283.1,13.5 284.6,14.0 290.1,17.8 290.6,18.3 293.4,19.5 295.3,20.1 295.8,20.4 295.4,20.9 294.8,21.2 293.6,21.3 293.0,21.4 292.5,21.8 292.3,22.5 292.6,24.6 292.9,25.4 292.3,27.4 291.6,28.6 291.9,29.3 292.6,29.6 293.3,29.4 294.3,29.3 297.1,29.8 297.7,30.0 298.0,31.5 297.4,32.3 296.6,32.5 295.3,32.6 294.7,32.8 294.1,34.6 296.1,36.7 297.0,37.4 298.0,37.9 299.5,38.8 300.7,39.6 301.9,41.0 301.0,41.4 300.0,42.1 300.1,42.8 300.1,43.4 299.9,45.2 299.6,45.7 298.8,45.8 296.9,46.6 295.8,47.3 295.4,47.8 295.7,50.0 296.2,51.0 296.8,52.0 297.4,52.4 298.4,52.7 299.1,52.8 299.7,52.9 300.3,53.1 300.8,53.5 301.3,54.4 302.5,55.4 304.8,58.7 304.7,59.3 304.1,59.4 303.4,59.3 302.9,59.3 301.7,59.5 301.1,59.7 300.6,60.2 297.8,59.5 295.6,59.3 293.1,59.4 291.6,60.1 290.9,60.0 288.2,59.4 288.0,60.1 286.3,61.0 285.2,61.2 283.7,60.3 280.6,59.1 279.9,58.4 278.7,57.8 277.8,57.5 277.2,57.5 277.8,58.0 278.3,59.3 278.0,60.1 277.3,60.3 277.3,59.8 276.6,59.5 274.2,58.5 273.7,58.4 273.1,58.3 272.3,58.3 271.5,58.9 270.2,61.4 270.0,62.5 270.6,62.6 271.2,62.7 270.9,62.2 272.5,62.5 273.2,63.8 272.7,64.2 272.1,63.9 269.9,63.5 269.2,63.4 266.9,62.9 263.0,61.8 262.3,61.3 261.2,60.8 262.3,61.9 265.9,63.1 266.5,63.2 267.6,63.4 269.1,64.0 268.5,64.3 266.5,64.6 265.5,64.6 263.8,64.4 263.3,64.2 262.8,64.3 263.7,64.9 264.4,65.1 265.1,65.1 266.0,65.6 265.8,66.2 264.2,66.7 259.6,66.9 259.0,66.8 258.4,66.5 257.2,66.5 255.9,66.9 256.3,67.5 257.0,68.0 257.8,68.2 258.4,68.0 260.0,68.7 259.3,69.5 258.0,69.7 257.3,69.7 256.3,68.8 255.7,68.3 253.4,67.2 252.1,67.8 253.1,68.1 254.9,68.4 256.5,69.4 257.2,70.0 258.4,71.0 257.9,72.8 257.0,72.9 256.3,72.9 256.0,73.4 254.1,74.4 252.7,74.8 251.9,74.9 251.0,76.0 251.1,76.5 250.6,77.1 249.7,77.3 249.0,77.2 248.8,76.7 248.1,76.8 248.0,77.3 248.8,77.8 249.5,78.1 250.2,78.1 251.2,77.9 252.0,78.0 252.6,78.2 252.8,80.1 252.1,80.0 251.6,79.7 250.2,79.0 249.5,79.0 249.3,79.6 252.2,81.0 253.8,81.4 255.7,81.7 257.3,82.5 257.9,84.2 255.6,85.6 254.4,86.1 253.1,86.6 252.5,86.8 252.0,86.7 246.7,89.5 245.5,91.3 245.3,92.2 243.5,94.3 242.3,95.0 240.7,95.6 238.8,95.9 238.1,95.4 237.2,96.6 236.6,97.7 236.1,98.1 234.8,98.4 233.8,98.3 230.9,98.5 229.2,98.8 227.2,99.3 224.9,100.7 224.4,101.1 225.0,102.0 223.7,102.5 223.0,102.6 222.4,102.3 222.5,101.8 220.0,100.4 219.3,100.2 218.6,100.4 219.4,102.2 217.5,102.5 216.6,102.2 216.1,102.0 215.8,102.8 215.0,104.5 213.7,104.7 211.9,105.8 211.7,106.4 212.4,106.5 212.0,107.2 211.5,107.2 210.3,106.6 210.0,106.0 209.1,105.4 207.4,105.8 208.0,106.2 208.7,106.3 209.3,106.7 206.9,107.5 206.3,107.1 206.8,106.9 206.0,106.6 206.0,107.3 204.4,107.9 202.9,108.3 199.6,109.5 197.9,110.5 198.9,110.6 199.7,110.5 202.2,110.7 202.7,110.7 203.2,111.2 201.2,112.9 196.4,114.5 194.9,114.7 194.1,114.4 194.9,114.0 193.9,113.4 193.3,113.3 192.3,113.7 191.3,113.3 190.3,111.9 189.7,111.1 189.5,110.5 187.2,110.5 187.7,110.9 188.4,111.2 189.6,111.6 190.4,112.5 192.5,115.3 192.7,116.0 192.5,116.7 191.9,116.6 190.4,116.4 192.0,117.1 193.2,117.2 193.4,117.9 192.2,118.5 189.7,119.8 189.2,119.8 188.6,119.5 187.6,119.5 187.0,119.6 186.4,120.0 186.6,120.7 185.7,120.7 184.7,120.6 184.0,120.3 183.0,119.4 182.3,119.0 181.8,118.8 180.5,119.7 180.9,122.1 181.1,122.6 182.8,123.8 183.5,123.9 184.4,124.1 185.7,124.3 186.3,124.4 185.3,124.8 184.5,125.1 184.7,124.5 184.1,124.4 183.6,125.0 183.2,126.4 182.8,128.5 182.2,128.9 181.7,128.8 180.8,129.5 180.5,132.0 181.4,133.1 182.4,133.6 182.9,133.5 183.5,133.7 183.9,134.2 183.5,135.2 182.5,135.4 181.9,134.9 181.5,134.3 180.8,134.0 178.6,133.7 177.1,133.7 177.7,134.0 178.4,134.0 179.1,134.3 177.8,135.3 177.3,135.3 176.7,135.2 176.2,135.9 176.5,136.7 177.3,137.4 178.4,138.8 177.5,139.2 176.9,139.0 176.4,139.4 177.0,140.3 178.1,140.9 178.1,141.8 177.7,143.4 177.3,146.0 177.1,147.9 178.0,148.4 178.8,148.8 179.4,149.7 179.5,151.0 179.6,151.7 179.4,152.8 180.9,153.4 181.6,153.6 183.9,153.4 184.5,153.4 185.5,153.6 186.2,153.9 185.5,154.4 185.4,154.9 185.8,155.6 186.4,155.9 187.0,156.0 187.7,156.1 187.6,155.5 188.5,154.7 189.7,154.3 190.4,154.2 191.4,154.2 192.0,154.3 192.5,154.9 194.4,156.8 196.5,158.8 197.0,159.1 197.6,158.7 198.3,158.6 200.5,158.8 201.1,159.6 203.1,160.5 203.7,160.8 203.2,161.0 202.3,160.9 201.2,160.8 200.6,160.7 199.7,160.2 199.0,159.8 198.5,159.4 199.8,161.3 201.8,162.3 204.0,162.4 205.6,162.7 206.7,163.1 207.5,163.3 207.6,164.0 208.7,165.8 209.5,166.5 210.2,166.5 210.9,166.7 211.6,166.9 212.1,168.0 211.6,168.3 210.3,167.5 209.6,167.4 208.3,168.8 209.6,169.0 210.2,169.0 212.2,169.2 212.2,169.8 211.4,170.2 210.7,170.2 210.0,170.2 207.9,170.3 206.2,170.7 205.7,171.1 205.3,171.6 205.9,171.5 204.7,172.5 199.5,174.8 198.4,174.7 197.7,174.6 197.3,175.1 197.6,175.7 198.5,175.9 195.8,175.9 196.3,175.5 196.2,175.0 194.9,175.0 194.2,175.3 193.6,176.2 194.2,176.6 194.3,177.2 192.7,177.0 191.5,177.2 190.7,177.0 190.0,176.8 189.2,176.5 188.6,176.2 188.2,175.6 188.6,174.5 189.0,173.9 189.7,173.7 189.4,172.7 188.1,171.7 187.4,171.2 187.5,171.9 186.1,171.7 185.4,171.4 186.0,171.2 186.3,170.2 185.9,169.0 185.2,168.6 184.9,169.2 184.3,169.6 183.7,169.7 182.5,169.9 182.5,171.0 183.7,172.6 184.3,172.9 183.9,172.2 183.7,171.4 183.6,170.8 184.2,170.0 185.1,169.9 185.6,170.0 185.6,170.6 184.6,171.1 185.1,171.6 187.0,172.2 187.9,172.5 188.7,173.5 187.8,175.2 184.4,174.4 183.9,174.1 184.3,173.5 183.5,173.5 182.5,173.1 181.3,172.3 181.4,171.4 180.6,172.0 181.1,172.7 181.7,173.2 182.0,174.3 180.3,174.4 179.1,174.1 177.7,173.5 176.5,173.3 175.6,173.4 174.9,173.5 173.5,173.4 171.9,172.6 171.2,172.6 170.5,173.1 168.2,173.3 167.5,172.7 166.5,172.2 165.9,172.2 165.3,172.4 166.0,173.1 165.1,174.2 162.2,174.8 159.4,174.8 158.0,174.7 157.4,174.5 156.8,174.3 157.4,175.0 158.0,175.2 159.2,175.3 160.9,175.2 161.7,175.1 162.3,175.0 168.2,174.7 168.7,174.9 169.8,175.6 170.8,176.2 172.0,176.4 171.5,175.8 170.9,175.6 169.4,175.0 168.9,174.8 171.3,174.3 172.5,174.8 173.2,175.2 176.4,176.5 177.6,176.5 179.5,176.8 180.0,176.9 179.8,177.5 179.2,178.0 179.0,178.6 179.6,178.6 181.0,178.8 181.6,178.8 181.0,178.2 180.7,177.5 181.9,177.6 182.4,177.7 183.0,177.9 185.0,178.2 187.9,178.4 189.8,178.5 190.9,177.9 191.5,177.5 192.2,177.3 192.9,177.4 193.5,177.5 195.0,177.5 196.4,177.3 197.0,177.0 197.6,176.7 198.9,176.5 199.7,176.6 200.6,176.8 201.2,177.2 201.1,176.6 200.8,176.1 200.4,175.5 201.3,175.4 202.1,175.6 203.7,176.5 204.3,177.1 204.2,177.7 203.4,177.8 202.1,177.9 199.7,177.8 199.0,177.7 198.4,177.3 197.6,177.6 197.5,178.4 198.2,179.3 198.3,180.9 196.8,181.1 195.1,181.6 193.0,182.5 190.7,184.9 190.6,185.6 188.8,184.3 188.2,183.0 188.4,181.5 188.2,181.0 186.6,180.3 185.7,181.9 185.5,182.6 185.8,183.1 185.6,183.8 184.9,184.2 185.9,184.8 185.0,186.0 180.7,187.8 179.3,188.1 178.4,188.2 177.2,188.2 176.1,187.6 175.0,187.8 175.9,188.3 176.8,188.7 175.0,189.9 172.8,190.3 170.5,190.2 169.6,190.1 168.5,189.9 164.6,189.6 163.7,189.5 161.6,189.4 160.6,189.4 159.7,190.1 161.5,190.3 162.9,190.5 163.7,190.3 164.1,189.8 168.0,190.2 169.1,190.5 170.3,190.9 173.1,192.5 171.4,193.4 169.9,193.7 167.1,193.4 166.5,193.3 165.9,193.1 165.2,192.9 164.1,192.8 166.6,193.6 168.6,194.0 170.2,194.8 170.5,195.6 171.2,197.9 170.8,199.0 170.1,199.2 169.7,200.0 169.5,200.6 169.8,201.3 167.8,201.7 168.4,201.9 169.4,202.0 170.2,202.9 170.2,203.6 169.7,203.8 168.2,203.6 167.5,203.5 167.1,202.9 165.6,201.6 165.7,203.7 166.4,204.2 168.5,205.8 167.4,205.7 166.9,205.1 166.4,204.8 163.8,203.5 164.6,204.3 167.0,205.7 168.2,206.2 168.8,206.6 167.5,208.4 167.7,209.7 168.7,210.9 168.4,212.3 167.8,212.4 167.5,212.9 166.5,212.8 164.8,214.5 164.5,216.0 164.5,216.7 165.5,217.6 166.1,217.6 166.8,218.8 165.3,219.1 164.4,220.6 164.2,221.7 163.9,222.6 163.6,223.5 163.0,224.8 161.8,226.0 161.1,226.0 160.1,226.9 158.4,229.5 158.0,230.2 157.8,230.8 157.1,232.2 156.9,233.1 156.3,234.0 153.7,236.3 152.3,235.9 152.1,235.3 149.9,234.7 148.8,234.4 144.8,235.4 142.0,235.2 139.6,235.0 135.2,235.0 132.8,235.0 132.2,235.2 132.1,235.8 132.6,236.1 133.4,236.9 133.7,237.4 133.2,237.8 131.3,237.8 130.7,237.0 129.9,236.9 129.0,237.3 126.4,238.7 125.7,239.1 124.5,240.0 124.0,240.7 123.5,241.4 123.3,242.0 123.2,242.7 123.4,243.3 124.8,244.4 125.9,245.6 126.5,246.3 125.8,247.0 123.2,249.1 122.7,249.3 121.9,249.3 120.8,249.1 119.8,248.8 119.2,248.5 118.5,248.3 117.7,248.3 114.8,248.4 113.2,248.6 110.6,249.2 110.0,249.4 109.3,249.7 108.3,250.0 107.8,250.0 107.0,250.0 101.2,248.9 100.0,246.4 100.0,245.8 100.8,245.4 102.1,244.8 102.6,244.1 102.6,243.6 100.2,241.2 95.7,236.8 94.8,236.1 93.9,235.4 91.5,232.6 94.7,233.2 96.4,233.9 97.6,233.9 98.3,233.6 98.4,233.1 96.8,231.5 95.6,231.0 95.0,230.9 94.7,230.2 95.5,229.5 96.4,229.4 97.6,229.8 98.4,229.9 99.1,229.9 99.7,229.6 100.2,228.8 100.3,228.3 100.0,227.4 99.4,226.3 98.2,226.0 97.6,226.2 96.5,226.3 95.5,225.6 94.5,224.4 94.2,223.8 94.2,223.2 92.1,221.9 90.9,221.6 89.7,221.3 89.6,220.3 88.5,219.1 87.9,218.9 86.0,216.4 85.3,215.2 86.0,214.6 85.9,214.1 85.0,212.0 84.3,211.5 83.5,211.8 83.4,212.4 83.1,213.4 82.2,212.9 81.5,212.1 81.6,210.4 81.9,209.5 81.7,208.6 80.8,208.7 80.2,207.7 80.9,207.3 78.7,207.2 77.9,207.1 78.2,205.0 77.2,204.3 77.6,203.7 78.6,203.5 79.5,201.4 79.6,200.8 79.6,199.8 80.3,198.7 80.9,198.0 79.6,195.7 78.4,195.5 76.4,196.5 75.9,196.9 74.8,197.3 74.1,197.2 72.4,196.8 72.1,195.8 69.4,195.2 68.7,194.2 69.3,192.3 69.7,191.5 69.9,191.0 69.8,190.0 68.9,189.1 68.3,188.6 68.4,187.9 69.0,187.2 69.3,186.3 68.6,184.8 68.1,184.7 67.5,184.5 67.1,183.2 68.1,182.1 68.8,181.9 69.9,181.6 70.8,181.5 71.4,181.8 71.9,182.4 72.4,183.1 72.9,183.5 72.8,184.6 72.8,185.2 73.5,185.4 74.1,185.4 75.7,185.2 76.4,185.0 78.7,181.7 78.5,181.1 78.7,180.1 79.0,179.4 79.5,179.0 79.6,178.3 79.5,177.8 78.5,175.5 77.2,172.5 78.8,171.7 79.8,171.5 81.4,170.6 81.5,169.8 81.4,169.2 81.1,168.7 79.9,167.9 80.6,167.6 82.5,167.0 83.2,167.1 83.9,167.2 85.2,167.2 85.8,167.1 86.8,166.7 88.9,165.6 91.7,163.9 92.2,163.3 92.4,162.4 92.5,161.9 92.5,161.2 92.9,159.0 93.7,158.2 94.2,157.3 94.3,156.7 94.1,155.7 92.5,153.6 91.0,152.1 90.3,151.4 89.9,150.9 89.4,149.9 88.9,148.9 88.2,147.8 87.5,147.2 87.3,146.7 88.6,146.3 90.3,145.9 91.2,145.9 92.4,145.9 93.6,146.0 94.2,146.0 94.9,145.8 95.5,145.3 97.3,143.2 97.8,142.4 98.4,141.2 98.9,140.3 97.4,139.3 92.9,136.5 92.0,136.5 91.4,136.5 90.7,136.4 85.9,133.8 86.2,131.5 86.4,130.9 86.6,130.2 86.9,129.3 87.2,128.5 88.0,126.0 88.6,123.9 88.2,123.0 87.7,122.5 87.1,121.5 86.6,120.9 86.0,120.3 84.8,119.0 84.1,117.9 84.1,116.5 84.6,115.6 84.9,115.0 84.5,114.0 84.2,113.4 83.8,112.4 84.3,111.9 85.3,111.0 86.0,110.4 85.9,109.6 83.9,107.3 82.1,105.5 83.3,104.5 84.7,103.3 85.8,102.5 86.8,101.6 85.8,99.8 89.6,97.1 91.9,95.2 92.9,94.5 94.8,93.2 95.7,92.8 97.7,92.1 98.7,91.7 100.4,91.2 101.3,91.0 102.1,90.9 104.0,90.7 105.0,90.6 105.7,90.5 106.8,90.6 119.4,92.0 122.4,89.0 122.5,86.1 121.8,83.6 120.3,83.3 117.9,83.0 116.4,82.6 113.9,81.8 113.8,81.1 114.4,80.5 116.7,78.8 117.5,78.1 118.9,77.0 121.4,74.9 124.0,73.1 125.1,72.1 125.5,71.6 126.2,70.2 126.4,69.5 128.7,68.3 128.7,67.4 128.7,65.8 128.8,64.6 128.8,63.3 129.4,61.3 130.0,60.6 130.7,59.9 131.2,59.1 130.8,58.0 130.3,57.0 129.6,55.6 129.2,54.3 129.0,53.7 132.8,53.2 137.6,53.0 138.4,53.0 146.5,50.6 146.1,49.9 145.2,48.3 144.7,47.3 147.5,45.6 149.3,44.7 151.3,43.3 156.3,39.5 162.6,37.2 163.5,34.6 162.7,33.2 160.9,32.0 160.2,31.5 159.1,31.1 158.2,30.5 157.7,30.0 159.7,28.4 163.1,28.1 165.4,26.4 166.5,25.6 167.5,24.2 168.6,22.4 169.4,21.2 177.8,18.8 178.6,18.2 179.4,17.7 185.2,18.8 186.2,19.1 186.8,19.2 187.9,19.6 189.0,20.0 189.5,20.2 190.5,20.3 191.5,19.4 195.1,16.6 194.5,14.2 194.2,13.5 193.9,12.9 193.6,12.2 193.6,11.3 194.1,10.4 195.3,9.9 199.1,9.5 203.7,10.7 209.9,10.4 218.3,11.7 220.7,12.0 223.9,12.5 226.5,12.9 227.2,13.1 227.9,13.2 228.6,12.7 229.2,12.4 229.9,12.0 230.4,11.8 232.1,11.2 232.7,10.9 230.6,10.2 228.2,9.4 230.2,8.7 232.3,7.5 233.4,6.7 234.8,5.6 235.4,5.0 234.8,2.4 233.4,1.7 230.8,0.3 238.8,0.1 239.6,0.0 240.9,0.3 242.6,0.5 243.5,0.7 244.5,0.9 245.1,1.1 246.0,1.6 245.7,2.2 245.1,2.7 245.7,3.2 246.2,3.3 247.1,3.3 247.7,3.3 248.3,3.4 251.0,4.4 254.9,6.1 255.4,6.7 256.1,7.1 257.3,7.3 257.9,7.3 258.6,7.5 260.0,8.0 260.3,8.5 261.1,8.8 262.0,8.9 " />
    <polygon id="Sweden" points="245.2,96.7 244.4,96.5 244.9,95.9 245.6,96.0 245.2,96.7 " />
    <polygon id="Sweden" points="193.7,116.4 193.1,116.2 193.3,115.2 193.9,115.1 195.0,115.1 195.4,115.7 194.7,116.1 193.7,116.4 " />
    <polygon id="Sweden" points="183.6,122.0 182.7,122.0 182.1,121.9 181.1,120.1 182.8,120.2 183.7,121.1 184.3,122.0 183.6,122.0 " />
    <polygon id="Sweden" points="203.0,159.5 202.1,159.3 199.9,158.4 199.6,157.5 199.4,156.1 200.0,156.0 200.9,157.3 201.8,158.7 202.4,158.8 203.0,159.4 " />
    <polygon id="Sweden" points="203.1,175.1 202.2,174.8 202.2,174.2 203.0,173.7 203.7,173.3 204.3,173.2 206.1,173.3 204.8,173.7 203.4,174.2 203.7,174.8 203.1,175.1 " />
    <polygon id="Sweden" points="179.2,176.5 178.6,176.5 177.2,176.3 175.7,175.0 177.1,175.0 178.7,175.1 179.2,175.2 180.1,175.9 179.2,176.5 " />
    <polygon id="Sweden" points="187.8,177.9 189.3,178.2 188.2,178.2 186.8,178.0 186.2,177.9 185.5,177.6 183.9,175.9 184.8,175.5 185.7,176.4 186.0,176.9 186.0,177.5 187.8,177.9 " />
    <polygon id="Sweden" points="188.7,177.6 188.1,177.7 187.5,177.5 186.9,177.3 185.6,176.1 185.8,175.5 187.8,176.1 188.5,176.5 188.8,177.4 " />
    <polygon id="Sweden" points="202.4,179.2 201.8,179.2 200.5,178.7 199.7,178.1 201.1,178.0 201.6,178.0 203.6,178.6 203.0,179.1 202.4,179.2 " />
    <polygon id="Sweden" points="200.0,182.9 199.5,182.9 199.8,181.8 200.7,181.2 201.3,181.1 200.3,182.6 " />
    <polygon id="Sweden" points="187.0,184.8 186.1,183.9 186.4,182.6 187.1,182.6 187.5,183.2 187.1,183.7 186.9,184.6 " />
    <polygon id="Sweden" points="215.1,195.4 214.2,194.6 214.9,194.4 215.6,194.5 216.4,194.7 216.3,195.2 215.1,195.4 " />
    <polygon id="Sweden" points="79.7,199.3 78.1,199.7 77.4,199.7 76.4,199.6 75.7,199.4 75.1,199.4 73.6,199.7 73.5,200.2 72.4,199.1 77.2,196.3 78.0,196.3 78.5,196.4 79.4,197.0 79.9,197.6 79.9,198.4 79.8,199.1 " />
    <polygon id="Sweden" points="171.0,199.4 170.4,199.8 170.9,199.3 " />
    <polygon id="Sweden" points="75.9,202.7 74.7,202.5 74.5,201.9 74.1,201.3 74.5,200.6 78.5,200.8 78.5,201.4 77.1,202.3 75.9,202.7 " />
    <polygon id="Sweden" points="216.9,202.3 216.0,202.7 215.5,202.4 213.9,202.8 213.4,203.2 213.1,204.4 212.5,204.2 211.5,203.4 212.4,202.1 216.0,201.9 216.9,202.2 " />
    <polygon id="Sweden" points="196.3,221.3 195.7,221.4 195.1,221.3 196.4,219.9 197.3,219.2 197.2,218.3 195.8,217.2 195.3,215.5 195.5,214.0 195.2,212.3 194.7,211.0 194.6,210.4 195.1,209.7 195.9,209.0 196.5,208.7 197.0,208.5 197.6,208.2 198.8,207.3 199.6,206.6 200.2,205.9 200.9,205.1 205.0,203.1 205.6,203.0 208.7,203.0 209.2,203.0 210.9,203.2 211.4,204.7 209.5,206.3 208.1,206.6 207.3,206.9 207.0,207.7 206.4,210.5 206.6,211.1 205.6,215.2 204.6,215.7 202.6,216.4 202.0,216.7 200.9,216.9 200.2,217.1 199.6,217.5 198.9,218.3 198.7,219.3 198.1,220.9 196.5,221.3 " />
    <polygon id="Sweden" points="171.4,222.9 170.9,222.9 170.4,223.3 169.4,225.2 167.7,228.5 166.7,230.5 166.5,231.1 166.2,232.0 165.2,233.6 164.1,234.1 163.5,233.0 163.3,229.5 163.3,228.3 163.8,227.3 166.0,223.8 167.3,222.1 167.9,221.9 169.8,220.8 171.6,218.6 172.5,217.3 173.6,215.7 173.6,215.1 173.8,214.4 174.2,213.8 174.8,213.5 175.4,213.2 176.2,213.4 176.6,213.9 175.3,216.3 174.5,217.3 173.7,218.4 173.0,219.0 172.2,221.0 171.6,222.6 " />
  </g>
</svg>