<?xml version="1.0" encoding="UTF-8" standalone="yes"?>
<!DOCTYPE svg PUBLIC "-//W3C//DTD SVG 1.0//EN" "http://www.w3.org/TR/2001/REC-SVG-20010904/DTD/svg10.dtd">
<svg height="250" width="370" xmlns="http://www.w3.org/2000/svg" xmlns:svg="http://www.w3.org/2000/svg" xmlns:xlink="http://www.w3.org/1999/xlink">


<g id="background">
<rect id="" width="370" height="250" fill="#222222"/>
</g>
  <g id="756" style="stroke-miterlimit: 3; fill: #F1F1F1; stroke: #000000; stroke-opacity: 1; stroke-width: 0.05; stroke-linejoin: bevel; stroke-linecap: square">
    <polygon id="Switzerland" points="225.5,53.2 225.4,52.4 224.6,51.9 222.6,52.0 222.5,52.8 222.9,53.5 225.5,53.2 " />
    <polygon id="Switzerland" points="142.6,65.8 148.5,65.0 159.7,64.6 160.3,64.9 161.8,65.1 170.1,64.7 174.5,64.4 175.5,64.0 175.9,63.5 176.2,62.9 182.5,59.7 183.2,59.5 184.2,59.4 187.1,59.6 190.6,60.1 191.3,60.7 199.4,62.8 203.0,63.3 205.4,61.0 206.5,60.2 209.2,58.6 209.9,58.4 210.9,58.5 213.1,59.2 213.7,60.0 214.0,61.3 214.5,61.9 215.8,61.2 218.9,57.4 218.9,56.8 218.2,56.2 217.3,55.6 214.9,55.5 212.5,55.6 211.3,55.9 210.6,56.5 209.8,57.1 207.9,57.3 206.3,57.3 202.1,55.5 201.2,54.7 200.7,53.0 206.1,47.5 206.6,47.0 213.2,44.3 213.7,44.2 217.2,44.5 221.5,45.0 223.5,45.9 227.5,48.0 227.7,48.5 227.5,51.8 227.2,52.5 226.3,53.2 228.4,53.4 229.7,53.6 232.8,54.5 230.8,52.1 230.6,51.5 232.8,50.1 233.6,50.0 235.7,51.5 237.4,53.1 239.6,56.7 240.4,57.0 241.4,57.0 242.5,57.0 243.8,56.8 244.9,56.5 247.0,55.6 248.0,55.2 248.9,54.7 249.6,54.4 251.2,54.0 252.7,53.9 255.6,54.1 256.3,54.2 270.6,56.0 288.3,63.1 295.6,66.0 294.8,68.9 295.2,69.6 297.5,71.8 299.2,71.9 302.1,72.6 302.7,73.0 304.3,77.6 304.0,78.5 303.6,79.0 302.4,79.7 301.7,80.0 300.8,80.1 300.3,80.2 299.5,80.2 298.7,80.8 293.4,87.0 292.8,87.8 290.3,91.3 289.4,92.6 288.9,93.9 288.8,94.5 288.8,95.5 289.3,96.7 290.0,97.7 290.6,98.8 291.0,100.3 291.1,101.3 291.1,102.0 290.9,102.7 288.0,105.5 288.9,105.2 290.6,104.9 293.2,104.5 293.8,104.5 298.2,105.0 300.9,105.6 308.1,106.1 320.4,108.3 322.2,109.9 322.0,110.8 321.3,111.8 320.8,112.6 320.6,113.3 320.9,115.0 325.7,117.4 335.8,121.2 340.0,122.5 341.0,122.5 342.5,122.4 343.4,122.3 345.0,121.9 349.3,120.5 349.9,120.1 356.6,115.7 357.5,113.9 359.3,111.4 359.9,110.6 362.5,110.0 363.8,110.1 366.2,111.5 370.9,115.3 369.6,120.8 367.6,129.6 369.5,140.0 370.8,141.4 370.8,143.4 369.9,146.0 369.5,146.9 368.4,147.7 367.8,147.9 358.6,147.1 356.0,146.7 351.3,144.3 351.1,143.7 351.2,143.0 351.7,141.8 351.8,141.1 350.8,140.0 350.1,139.7 345.8,140.3 340.8,142.0 335.3,147.6 334.7,150.6 334.6,151.3 334.6,155.0 334.8,155.6 335.5,156.2 336.5,156.7 338.3,157.3 343.6,160.1 345.5,169.8 345.1,171.0 342.5,173.0 342.0,173.3 337.4,174.0 336.5,174.0 335.7,173.4 330.6,168.2 329.6,164.9 330.3,163.7 330.5,163.1 329.8,162.4 326.9,161.0 323.7,160.7 319.0,161.8 315.7,162.7 312.2,164.1 307.7,167.3 307.1,167.6 306.2,167.7 300.3,168.2 296.8,167.8 294.0,167.1 291.8,165.9 286.7,160.6 286.0,157.1 286.4,153.4 279.7,150.5 278.7,150.4 273.9,150.8 272.8,151.1 272.3,151.5 271.6,152.1 269.6,155.4 269.6,156.0 269.9,156.6 271.5,157.0 272.1,157.4 273.5,163.2 273.2,165.3 271.8,168.1 269.1,172.7 268.7,173.2 264.7,176.8 264.0,177.4 262.2,178.0 261.0,178.3 260.0,178.9 256.0,182.1 252.1,187.4 250.6,190.2 249.0,193.9 250.6,196.6 251.2,197.3 251.8,197.6 254.6,198.3 255.7,198.9 256.2,200.1 256.1,200.6 252.2,205.3 249.1,206.0 245.2,204.7 244.0,202.8 244.0,202.1 243.2,200.2 241.0,196.2 235.0,193.3 233.9,193.0 234.2,189.5 234.8,189.1 236.9,187.6 237.2,187.0 237.0,186.1 236.7,185.6 235.7,184.7 235.0,184.1 234.3,183.8 228.5,182.1 227.0,183.2 225.9,183.7 224.7,183.8 224.0,183.8 217.9,182.2 205.1,173.0 203.8,171.9 202.9,168.2 203.7,166.1 204.9,164.7 205.5,161.9 205.5,161.2 205.2,155.7 205.0,155.1 204.3,154.4 203.1,154.1 197.3,154.9 196.6,155.2 192.4,157.3 178.8,173.5 179.2,174.1 180.3,176.6 180.4,177.3 179.7,179.5 168.6,191.0 167.2,191.9 165.2,192.3 163.3,192.5 160.1,192.5 159.4,192.8 157.7,193.9 156.5,196.3 155.6,198.7 155.0,198.7 149.7,198.3 146.4,197.6 143.6,196.7 139.0,193.7 129.5,193.5 123.1,196.9 120.7,197.8 117.8,198.9 116.6,199.0 113.3,198.5 110.1,198.3 109.4,198.4 104.4,200.4 101.7,201.7 101.0,201.9 95.2,201.8 94.2,201.7 93.0,201.3 91.9,200.5 90.7,199.5 88.7,197.6 88.1,195.2 86.3,192.3 80.1,187.5 75.3,184.8 68.2,180.4 67.7,178.8 69.2,161.1 69.8,159.0 70.0,158.1 69.5,157.1 68.5,156.5 64.1,155.4 61.3,154.8 55.6,154.1 46.3,154.5 45.5,154.6 44.0,155.0 30.6,158.8 29.2,159.2 28.0,159.8 23.9,162.8 23.1,163.8 22.6,164.7 22.2,165.7 23.7,166.2 26.0,170.6 23.9,174.2 19.2,177.9 16.2,179.5 14.7,179.8 13.9,179.9 3.5,180.0 1.1,175.5 1.0,174.9 2.2,173.9 4.5,172.9 6.2,172.3 8.7,171.5 9.7,171.6 10.5,171.9 12.6,171.3 13.4,170.7 13.4,170.1 12.5,167.7 13.2,167.1 13.6,166.5 16.4,162.3 16.7,161.8 16.6,161.2 16.2,160.4 12.9,158.5 9.6,157.2 10.9,155.3 14.8,147.9 14.4,144.3 14.2,143.8 25.8,136.2 32.1,133.8 32.8,133.6 33.8,133.1 39.4,130.0 40.8,128.7 41.2,128.2 40.3,123.4 41.4,118.8 47.0,112.6 50.1,111.9 54.6,110.7 55.3,110.5 56.1,109.9 59.3,107.4 61.0,105.0 68.7,99.5 73.3,96.7 72.4,96.5 83.3,86.4 85.6,80.4 84.0,80.7 80.0,80.9 75.9,81.0 75.9,80.4 76.1,79.7 84.8,69.6 87.6,68.7 97.6,69.4 100.2,73.8 100.9,74.1 105.3,75.7 106.1,75.7 108.1,74.9 110.8,74.2 113.1,74.3 113.7,74.4 114.7,74.7 116.9,74.9 119.6,73.8 121.0,72.6 122.6,71.8 126.2,69.7 126.3,65.7 127.6,64.7 128.3,64.4 130.3,64.0 130.6,63.1 131.2,62.7 132.0,62.5 133.6,62.4 138.0,60.8 140.8,60.6 140.6,62.8 136.4,64.3 139.3,65.2 142.6,65.8 " />
  </g>
</svg>