<?xml version="1.0" encoding="UTF-8" standalone="yes"?>
<!DOCTYPE svg PUBLIC "-//W3C//DTD SVG 1.0//EN" "http://www.w3.org/TR/2001/REC-SVG-20010904/DTD/svg10.dtd">
<svg height="250" width="370" xmlns="http://www.w3.org/2000/svg" xmlns:svg="http://www.w3.org/2000/svg" xmlns:xlink="http://www.w3.org/1999/xlink">


<g id="background">
<rect id="" width="370" height="250" fill="#222222"/>
</g>
  <g id="760" style="stroke-miterlimit: 3; fill: #F1F1F1; stroke: #000000; stroke-opacity: 1; stroke-width: 0.05; stroke-linejoin: bevel; stroke-linecap: square">
    <polygon id="Syria" points="354.6,9.2 355.7,10.6 355.8,11.2 355.2,11.8 328.5,34.7 306.8,38.4 305.0,41.1 301.1,47.0 299.3,62.1 300.1,63.4 304.5,71.0 305.5,72.9 305.8,83.1 305.8,83.6 302.7,87.4 300.5,90.2 300.2,91.5 300.1,92.8 300.1,94.8 299.7,96.6 299.3,97.8 298.9,99.0 298.6,99.8 297.7,102.3 297.3,103.8 297.2,105.0 297.1,105.9 297.2,109.4 297.3,111.6 297.7,119.2 298.0,125.7 297.6,126.2 291.5,134.7 288.1,141.5 286.7,144.2 269.6,152.2 246.3,163.2 244.6,164.1 236.3,167.9 226.1,172.7 215.2,177.8 205.5,182.4 184.1,192.6 176.5,196.3 175.7,196.6 170.9,199.1 162.6,203.4 151.8,209.1 133.8,218.7 117.0,227.7 110.6,231.1 93.3,240.6 78.9,248.6 77.4,250.0 71.7,248.8 67.7,248.2 61.3,247.5 59.9,246.9 55.5,246.6 52.8,244.0 51.2,242.7 45.3,239.0 43.7,239.7 41.7,239.2 39.4,238.5 36.7,234.9 35.5,232.4 32.0,229.6 25.0,228.4 23.5,228.1 20.2,229.8 19.4,230.2 17.7,231.3 17.6,230.5 17.9,229.2 18.6,227.5 18.7,226.5 18.5,225.7 18.1,225.2 17.2,224.8 17.4,223.1 17.4,222.5 16.2,221.0 16.4,220.5 16.9,219.0 17.0,215.5 17.4,213.0 17.8,210.9 17.9,209.2 18.6,205.2 19.4,203.5 19.4,203.0 18.8,202.9 17.9,202.7 17.3,202.9 16.8,203.3 16.3,201.9 16.9,201.4 23.8,198.4 24.6,198.1 25.8,197.4 26.1,196.9 26.3,196.0 26.5,195.3 27.9,194.6 29.2,194.1 29.7,193.9 32.1,192.1 37.1,187.7 38.3,186.4 38.2,185.6 36.6,184.4 34.0,183.3 33.1,183.5 32.5,183.4 32.0,182.6 33.8,179.6 36.2,176.9 38.9,174.0 47.5,172.5 53.1,174.0 53.9,174.0 54.8,173.4 55.0,172.6 53.8,171.4 53.2,171.2 52.1,171.4 49.7,169.9 49.6,169.4 51.6,166.9 52.1,166.2 53.0,165.4 55.3,163.6 61.3,159.9 66.7,155.0 65.3,153.9 62.8,148.0 61.8,143.6 58.2,140.6 57.0,140.1 53.0,140.1 53.7,138.3 55.3,137.4 58.0,135.5 58.5,133.9 58.5,133.4 54.3,133.2 50.4,133.0 41.6,132.9 41.0,133.2 39.8,133.4 37.2,133.5 36.6,133.5 34.0,132.8 32.8,130.4 31.9,128.2 29.5,121.4 29.1,120.0 29.1,119.1 29.2,115.7 29.5,111.8 29.6,110.0 31.5,107.3 33.0,105.6 33.3,104.9 32.9,103.7 32.4,102.8 31.8,101.9 31.3,93.9 28.3,91.1 22.0,85.8 24.4,83.0 26.7,79.5 27.4,78.1 29.3,71.7 31.5,68.5 36.2,69.9 40.9,71.8 41.8,72.2 42.6,73.2 43.2,73.9 43.8,74.0 44.5,72.1 44.5,70.9 44.6,69.8 44.8,69.2 46.1,67.1 46.8,66.5 50.4,66.3 54.1,65.0 54.6,63.3 54.8,60.6 54.4,59.7 54.2,56.1 55.1,54.1 60.8,53.1 62.3,53.0 64.3,53.4 66.0,53.8 66.5,53.8 69.2,53.5 69.7,53.2 70.2,52.4 70.1,50.6 68.6,49.2 64.6,44.9 64.1,44.0 63.0,40.5 64.8,33.7 68.5,24.6 68.7,24.0 68.7,23.4 69.2,22.9 70.7,23.2 82.3,25.7 84.4,26.5 85.0,26.7 87.0,28.2 87.5,28.7 92.0,31.7 98.1,31.4 99.1,31.5 103.7,31.8 104.3,31.9 112.4,30.8 113.4,30.2 114.0,29.8 114.6,29.6 119.2,27.8 120.8,27.3 121.7,27.2 122.6,27.3 123.9,27.3 124.6,27.3 130.4,25.6 131.4,25.3 132.0,24.9 133.2,24.2 134.1,23.8 135.5,23.4 137.0,23.1 138.6,22.1 140.3,21.1 141.0,20.8 144.9,19.3 147.4,18.9 148.1,18.9 155.2,19.7 157.6,20.3 161.6,21.7 162.6,22.2 163.4,22.7 167.4,26.2 170.2,28.4 171.5,29.2 172.1,29.5 172.8,29.6 174.7,29.8 181.7,29.9 184.4,29.8 185.4,29.6 186.3,29.4 188.0,29.2 188.5,29.3 189.8,29.5 190.9,29.9 192.6,30.5 194.3,31.1 195.0,31.3 196.4,31.4 197.1,31.4 199.0,31.3 201.6,30.8 208.1,29.8 215.6,28.7 226.7,27.1 227.6,26.9 232.4,25.3 233.4,25.0 236.7,23.9 247.1,19.8 249.5,18.6 250.3,18.2 257.2,14.5 258.4,13.9 259.2,13.7 260.5,13.5 261.8,13.5 262.4,13.3 268.2,11.1 269.6,10.5 270.3,10.1 271.3,9.6 275.0,8.7 276.8,8.4 281.6,8.1 283.0,8.1 292.5,9.7 296.9,10.8 297.4,11.0 304.7,10.8 309.3,10.6 310.8,10.6 313.6,10.4 314.5,10.3 328.7,8.1 336.5,5.9 339.6,4.9 340.9,4.1 344.1,1.7 345.8,0.0 347.6,0.1 351.5,1.0 354.1,2.6 354.6,3.2 354.7,7.7 354.7,8.5 354.6,9.2 " />
  </g>
</svg>