<?xml version="1.0" encoding="UTF-8" standalone="yes"?>
<!DOCTYPE svg PUBLIC "-//W3C//DTD SVG 1.0//EN" "http://www.w3.org/TR/2001/REC-SVG-20010904/DTD/svg10.dtd">
<svg height="250" width="370" xmlns="http://www.w3.org/2000/svg" xmlns:svg="http://www.w3.org/2000/svg" xmlns:xlink="http://www.w3.org/1999/xlink">


<g id="background">
<rect id="" width="370" height="250" fill="#222222"/>
</g>
  <g id="762" style="stroke-miterlimit: 3; fill: #F1F1F1; stroke: #000000; stroke-opacity: 1; stroke-width: 0.05; stroke-linejoin: bevel; stroke-linecap: square">
    <polygon id="Tajikistan" points="357.1,202.3 353.9,198.6 353.2,198.1 346.2,194.6 345.5,195.0 344.1,195.2 339.9,195.4 334.3,194.8 332.8,194.6 332.2,194.4 329.1,194.2 326.2,194.1 325.5,194.1 324.6,194.5 324.6,195.3 320.7,197.6 315.7,198.7 308.1,200.7 307.4,201.0 306.8,201.2 306.2,201.8 305.5,202.5 304.9,202.8 301.5,203.0 296.8,202.2 296.3,202.0 295.8,201.3 296.6,199.8 297.0,199.3 297.6,199.0 299.7,198.8 300.6,198.9 302.7,197.5 303.1,196.9 303.3,193.1 301.9,192.7 300.2,192.8 298.8,192.8 297.8,192.9 295.8,192.9 295.2,192.8 293.6,192.3 292.5,191.8 291.7,191.5 291.0,191.2 290.0,191.1 288.1,191.0 287.1,191.0 281.1,191.6 280.3,191.8 279.6,192.1 274.0,194.4 271.6,196.3 266.6,199.1 261.7,201.5 261.2,201.8 259.3,202.4 258.4,202.3 257.7,202.4 257.0,202.6 256.0,203.5 255.1,204.9 253.9,207.1 253.4,208.2 252.7,209.2 250.8,212.1 243.7,213.4 239.6,213.3 238.6,213.4 235.6,214.0 233.7,214.5 232.5,215.0 230.0,216.1 221.5,221.5 216.0,225.3 211.8,228.0 210.7,228.4 208.9,228.7 207.8,228.9 204.8,229.0 204.0,228.8 201.6,228.0 201.0,227.8 199.5,226.5 198.9,225.9 198.2,224.8 194.0,216.9 193.6,216.1 192.4,210.7 192.3,209.9 192.6,205.9 193.1,203.7 193.6,202.9 194.1,202.3 194.7,201.4 195.0,200.6 195.2,198.8 195.3,196.0 195.0,193.7 195.4,187.1 195.7,184.9 197.6,179.1 199.1,175.8 199.8,174.9 199.9,173.9 200.0,172.1 199.9,170.8 199.3,170.1 197.8,168.9 197.2,168.7 196.3,168.6 195.5,168.7 192.6,169.7 190.4,170.6 187.8,171.5 187.2,171.3 183.9,169.9 183.9,169.1 184.5,167.0 186.9,162.2 187.9,160.2 188.5,159.4 188.9,158.5 189.2,157.1 189.3,155.0 189.1,154.4 186.8,152.3 186.0,152.0 185.0,151.9 184.0,151.9 183.4,151.7 182.3,151.3 181.6,150.8 180.3,149.7 179.7,148.7 179.1,148.1 171.8,144.3 171.0,143.9 170.4,143.9 169.7,143.9 161.5,145.3 158.3,146.8 155.3,149.4 153.0,151.5 150.6,153.9 150.1,154.5 147.9,158.3 141.1,165.1 139.5,166.1 138.7,166.2 137.9,167.3 136.6,168.6 135.8,169.1 134.5,169.5 132.7,169.0 132.2,169.8 132.5,172.2 132.9,173.1 134.0,174.0 134.6,174.1 135.2,174.3 135.7,174.5 136.3,175.0 137.3,176.9 138.0,179.0 138.2,180.3 136.6,184.4 132.0,188.1 131.0,188.5 130.4,188.5 129.1,188.3 128.5,188.2 127.6,187.9 126.5,187.9 125.3,187.7 122.7,186.8 122.1,186.1 121.7,185.2 120.8,184.5 120.2,184.4 119.2,184.5 118.4,184.7 117.4,185.1 114.9,185.9 109.1,186.3 104.8,186.1 102.3,185.9 101.7,186.0 95.4,191.9 95.2,193.6 95.1,195.1 95.4,197.2 95.8,198.1 96.5,200.4 97.5,203.7 97.3,204.2 96.7,205.2 95.7,206.0 93.3,207.4 92.5,207.9 90.9,208.6 89.7,208.9 89.0,209.0 87.0,208.0 84.5,206.3 83.5,205.9 78.9,201.6 77.9,199.6 77.3,198.9 76.4,198.4 75.5,198.1 72.4,197.5 68.3,198.2 61.5,200.5 60.3,201.9 59.9,203.1 59.8,203.8 49.7,207.8 45.9,208.3 43.5,212.0 39.2,212.5 38.3,212.8 32.8,216.7 30.1,216.5 20.2,209.3 19.4,208.4 19.4,207.8 19.6,204.7 20.5,204.0 21.0,203.5 21.5,202.8 22.3,201.4 22.5,200.2 22.7,198.7 22.7,197.8 22.5,196.8 22.1,195.3 21.8,194.7 21.4,193.8 21.4,192.4 21.8,190.8 22.4,189.6 23.4,187.9 25.5,185.1 26.1,184.3 27.1,183.4 28.9,181.9 29.5,181.4 30.3,180.8 32.5,178.5 33.5,177.3 34.4,175.9 34.8,175.2 35.9,172.9 36.2,171.6 36.6,170.5 37.2,169.6 37.7,169.4 38.6,169.2 41.3,168.9 42.0,168.8 42.8,168.5 46.0,164.0 46.8,162.1 48.0,158.7 48.2,157.5 48.2,156.9 48.0,156.2 47.7,155.6 47.3,154.9 46.3,153.8 45.7,153.3 43.5,152.0 42.4,151.5 40.8,150.7 40.2,150.5 36.1,146.1 33.5,140.6 33.6,134.7 35.4,128.5 36.3,128.3 36.9,128.2 38.1,127.5 39.1,126.3 39.3,125.8 39.3,125.2 38.9,123.8 37.3,122.1 36.9,121.5 36.5,120.9 36.1,120.0 35.4,119.0 29.3,118.5 27.0,119.0 24.2,119.9 23.6,120.0 22.9,119.9 18.3,119.3 17.1,119.2 16.3,119.0 15.7,118.3 16.0,113.4 15.6,112.5 12.8,111.1 12.0,110.8 11.3,110.7 10.6,110.7 9.6,110.8 8.0,111.0 7.2,110.9 0.8,109.0 0.2,108.5 0.1,107.7 0.0,106.0 0.1,105.2 2.0,104.9 3.1,101.6 3.6,98.2 3.7,97.0 3.7,96.0 6.6,93.9 15.0,89.8 16.3,89.3 17.3,89.1 18.7,89.1 21.9,89.5 22.7,89.6 23.6,90.0 25.7,90.5 33.9,92.1 37.1,92.6 38.3,92.7 46.8,93.5 48.2,93.6 52.4,93.5 54.2,93.1 55.1,92.8 55.6,92.6 58.7,89.4 59.3,88.8 59.8,87.9 59.8,82.4 60.2,79.2 60.4,78.3 61.1,78.1 63.8,77.6 64.4,77.8 64.8,78.5 65.5,79.5 66.0,79.7 72.2,77.4 72.7,77.1 73.0,76.4 70.9,74.0 70.3,73.5 69.3,72.6 68.6,71.9 68.3,71.2 67.1,68.5 68.8,68.0 74.2,68.0 76.6,68.4 77.2,68.3 77.8,67.3 77.8,66.8 77.7,66.3 77.3,65.4 76.8,64.8 72.7,64.5 71.9,64.4 71.4,64.6 67.9,65.5 66.1,65.8 63.8,66.1 63.3,66.0 62.3,65.8 60.2,65.0 59.1,64.4 58.5,63.9 58.5,63.2 59.0,63.0 60.4,62.9 62.6,62.4 63.6,62.2 64.2,62.1 64.8,62.0 66.4,61.7 78.9,60.3 80.3,60.5 81.1,60.7 83.4,61.6 84.0,61.8 86.2,62.3 86.9,62.4 87.7,62.5 88.5,62.6 89.1,62.5 91.4,62.3 91.9,62.1 92.5,61.6 93.4,56.1 93.3,55.5 92.9,53.9 89.7,48.0 90.1,43.4 93.4,36.1 93.8,35.4 94.6,34.7 95.8,34.0 96.6,33.6 98.0,33.3 98.7,33.2 102.6,34.6 104.3,36.0 104.9,37.0 105.4,37.6 108.7,40.3 109.3,40.8 110.2,41.2 110.9,41.4 111.7,41.4 112.3,41.3 112.8,41.1 113.6,40.5 114.4,39.7 115.6,38.2 116.3,37.7 117.4,37.4 119.9,36.9 121.8,36.6 123.1,36.4 123.6,36.2 124.6,35.9 127.0,35.2 136.4,31.1 139.6,29.3 140.3,28.8 141.6,27.5 142.1,26.8 142.4,26.3 142.5,25.4 142.4,24.3 142.3,23.8 142.5,23.2 143.1,22.6 144.1,22.1 144.7,22.0 145.8,22.0 146.4,22.2 147.0,22.5 150.6,25.4 155.8,30.4 156.2,32.4 158.1,35.1 160.4,35.5 161.4,35.9 162.0,36.4 162.3,37.3 161.4,38.2 159.5,39.6 149.9,45.1 144.3,48.4 142.4,49.1 141.9,49.4 141.0,49.9 140.7,50.6 141.0,51.2 142.4,53.8 146.2,55.0 152.5,59.5 153.0,60.4 154.0,61.5 155.0,61.8 157.8,61.9 158.5,61.9 159.7,61.8 160.4,61.6 162.2,61.2 163.5,60.8 164.9,60.3 165.8,60.1 169.9,60.0 171.1,60.0 171.7,60.6 171.8,61.4 171.7,62.0 171.4,62.6 170.7,63.0 170.2,63.2 169.6,63.4 168.4,63.6 166.6,63.5 156.7,66.4 155.9,66.7 155.7,67.3 155.7,68.8 155.9,69.8 155.6,71.1 155.1,72.1 154.1,73.0 153.2,73.6 148.5,75.9 147.8,76.0 146.9,75.3 146.7,74.6 147.6,73.2 148.6,72.3 149.1,72.1 150.0,71.9 150.8,71.1 151.1,70.3 150.3,69.4 149.1,68.9 144.8,68.3 141.4,67.7 140.5,67.4 139.9,67.1 139.3,66.1 138.4,65.4 137.9,65.2 127.1,61.8 125.8,61.4 125.0,61.2 116.0,63.5 110.1,65.3 107.5,66.0 106.0,66.3 104.8,66.5 104.1,66.4 103.3,65.5 102.7,65.6 101.2,67.8 100.7,68.5 100.5,69.0 100.2,69.9 101.0,73.1 101.5,73.6 102.4,74.3 102.2,74.8 100.9,75.3 98.1,76.1 97.4,76.2 96.9,75.1 96.7,74.4 96.2,73.9 93.9,72.0 93.3,71.8 90.8,76.9 90.0,79.2 89.5,81.1 89.1,82.6 89.1,83.2 89.4,83.9 90.0,84.4 91.3,85.4 91.9,86.2 92.2,87.7 92.2,89.1 92.1,90.2 91.9,90.8 91.6,92.1 91.6,92.6 91.8,93.4 92.5,94.1 93.0,94.4 101.3,93.5 102.2,93.3 103.1,93.1 103.8,92.7 104.4,92.2 105.0,91.6 106.2,91.3 109.1,91.1 110.8,91.1 112.8,91.4 113.9,91.6 114.8,92.0 116.1,92.9 116.6,93.2 117.2,93.5 123.0,92.7 133.2,91.2 135.9,91.6 138.9,92.8 141.5,91.4 147.0,90.3 147.9,90.1 148.6,90.2 154.0,91.2 154.6,91.4 155.5,92.3 156.0,92.9 156.4,94.4 156.5,94.9 157.5,95.7 158.8,98.8 164.8,99.4 171.5,99.9 172.5,99.8 173.3,99.6 173.8,99.0 174.6,97.4 175.1,96.3 175.3,95.8 176.5,94.7 177.1,94.5 181.2,93.7 187.4,91.9 191.2,90.2 194.3,89.5 195.2,89.8 196.3,90.3 197.5,91.3 198.1,92.1 198.0,92.8 197.5,93.4 196.8,94.2 196.3,95.0 196.3,95.6 197.0,96.6 197.6,97.1 198.6,97.4 199.8,97.6 200.6,97.7 202.9,97.6 204.2,97.4 205.3,97.2 206.2,96.9 206.8,96.8 207.5,96.9 208.1,97.7 208.6,99.0 208.6,99.8 208.6,100.4 207.4,101.5 206.8,102.1 206.6,102.6 206.7,103.4 207.1,104.3 207.8,105.3 208.5,105.7 209.2,105.9 212.2,105.4 213.0,105.1 214.5,104.4 216.1,103.4 217.5,102.6 218.3,102.2 222.2,101.1 222.9,101.2 223.5,101.7 224.0,102.7 225.8,105.9 230.7,109.7 231.3,109.8 233.7,106.7 234.0,105.8 234.2,104.9 234.5,104.0 235.4,103.0 236.0,102.8 238.9,101.9 239.6,101.9 240.7,102.2 242.2,102.3 247.3,101.7 247.8,101.5 248.9,100.7 249.5,100.1 250.0,99.9 250.7,99.9 251.8,100.1 256.0,101.0 257.1,101.3 259.8,101.7 273.8,102.2 274.7,102.1 275.3,101.9 282.8,100.2 283.6,99.9 283.7,99.4 283.8,98.5 284.0,98.0 289.8,96.7 291.0,96.5 291.7,96.5 297.5,97.1 298.2,101.6 298.2,102.6 297.1,105.0 296.4,106.3 295.9,107.2 295.7,107.9 296.0,108.5 300.7,115.0 301.5,115.7 302.9,116.3 303.6,116.8 306.2,118.9 306.8,120.0 306.8,121.1 306.2,121.6 305.5,121.9 304.5,121.8 303.5,121.9 302.3,122.1 301.7,122.4 300.7,123.0 300.2,123.9 299.9,124.5 299.9,125.3 300.2,125.8 300.9,126.7 302.6,130.2 304.5,135.4 304.5,136.0 304.9,137.0 306.4,138.2 310.8,140.6 312.0,140.9 312.6,140.9 317.1,140.8 317.8,140.3 317.7,139.7 317.1,139.0 316.7,138.1 316.7,137.6 319.6,134.6 320.2,134.3 320.9,134.1 330.6,134.3 332.5,135.0 345.9,139.5 351.1,141.2 354.1,143.7 354.9,146.0 354.9,146.5 354.8,147.6 354.3,148.4 353.7,149.0 352.9,149.7 352.3,150.2 351.7,151.0 351.4,151.7 351.4,152.2 351.3,156.9 352.4,162.5 352.8,163.1 353.8,163.7 354.5,164.1 356.4,164.8 357.0,165.3 357.2,165.9 357.2,166.4 356.9,170.2 356.5,173.4 357.0,174.1 357.9,174.8 359.0,175.2 359.5,175.4 360.4,175.9 360.7,176.4 360.4,177.4 358.6,180.6 358.2,181.2 357.3,181.6 356.6,182.4 357.4,184.9 357.8,185.7 358.3,186.5 359.2,187.2 362.5,188.6 363.1,188.8 363.6,189.0 364.7,189.8 370.0,194.2 365.7,198.3 364.9,198.7 358.5,201.8 357.1,202.3 " />
  </g>
</svg>