<?xml version="1.0" encoding="UTF-8" standalone="yes"?>
<!DOCTYPE svg PUBLIC "-//W3C//DTD SVG 1.0//EN" "http://www.w3.org/TR/2001/REC-SVG-20010904/DTD/svg10.dtd">
<svg height="250" width="370" xmlns="http://www.w3.org/2000/svg" xmlns:svg="http://www.w3.org/2000/svg" xmlns:xlink="http://www.w3.org/1999/xlink">


<g id="background">
<rect id="" width="370" height="250" fill="#222222"/>
</g>
  <g id="764" style="stroke-miterlimit: 3; fill: #F1F1F1; stroke: #000000; stroke-opacity: 1; stroke-width: 0.05; stroke-linejoin: bevel; stroke-linecap: square">
    <polygon id="Thailand" points="162.1,2.8 162.5,3.5 163.5,3.8 164.6,2.7 165.2,2.1 166.0,2.0 166.6,2.2 167.1,2.9 167.3,3.4 167.8,4.6 168.4,5.5 169.4,6.2 170.5,5.9 170.4,7.0 170.1,8.3 169.4,10.6 168.3,11.8 167.8,12.4 167.6,13.0 168.3,15.0 168.9,16.4 169.5,16.8 170.4,17.2 171.1,16.5 171.7,16.2 172.6,16.5 173.4,16.9 174.5,16.8 175.1,16.1 175.7,15.5 176.9,15.1 178.1,15.1 178.7,15.3 181.2,15.5 181.9,15.6 182.4,16.1 182.4,16.7 182.2,17.5 181.6,17.6 181.0,19.1 181.0,19.6 182.5,23.8 183.5,24.6 183.4,25.3 182.7,25.9 182.0,27.2 181.8,27.8 181.6,29.9 182.2,30.8 181.7,31.6 180.7,32.9 180.1,33.3 179.5,33.6 178.7,34.8 178.6,35.3 179.1,35.9 180.1,36.5 180.6,39.5 180.5,40.9 180.1,42.0 179.6,43.1 179.0,43.7 178.3,44.0 177.5,45.7 177.3,46.4 177.5,47.0 176.9,48.2 176.4,48.8 176.1,49.5 176.6,49.8 177.4,49.8 178.1,50.1 178.8,50.7 180.2,51.5 181.5,50.3 182.9,48.7 183.6,48.2 185.9,46.7 187.5,46.0 187.3,44.9 188.2,44.3 189.3,44.0 190.1,42.9 190.4,41.8 190.9,41.3 192.0,41.7 192.5,41.9 193.1,41.7 194.5,40.3 195.2,39.3 196.0,38.8 196.9,38.9 197.5,39.1 198.1,40.1 198.8,40.9 199.5,41.6 201.6,42.7 202.5,42.9 203.2,42.9 203.8,42.9 204.5,43.1 204.8,43.8 204.8,44.3 206.0,45.4 206.8,44.4 208.7,43.0 210.4,42.3 211.0,42.4 211.6,42.8 212.1,42.5 212.5,42.0 212.5,40.3 213.3,40.0 215.7,37.8 215.6,36.8 215.4,36.3 215.9,35.7 216.5,35.3 217.6,35.1 218.4,35.1 219.9,35.3 221.6,35.8 224.2,36.7 225.6,37.2 227.0,37.0 227.5,36.8 229.0,38.3 229.4,39.0 229.8,39.8 229.9,40.5 231.5,42.2 231.9,42.7 232.3,43.5 232.6,44.3 232.9,44.9 233.9,45.3 234.9,46.8 235.3,47.4 235.9,48.2 238.9,49.8 239.7,50.2 240.3,50.8 241.5,52.3 241.8,52.8 241.9,54.4 242.0,55.2 241.9,56.1 241.8,56.7 241.3,57.7 240.9,58.5 240.7,59.2 240.7,59.7 240.7,60.2 240.8,60.8 241.1,63.4 241.2,64.0 241.2,64.6 240.9,65.4 240.8,66.5 240.8,67.1 243.5,70.2 244.5,71.1 245.0,71.5 245.5,72.2 245.5,73.0 245.8,73.8 246.4,74.5 248.3,75.2 248.9,75.3 249.8,75.4 250.3,75.5 252.0,75.8 251.6,76.3 250.9,77.3 251.7,79.0 252.3,80.0 253.0,80.2 253.6,80.1 254.5,80.4 255.1,80.7 255.8,81.6 255.9,82.1 255.8,83.0 255.3,85.1 255.2,85.6 254.6,86.2 254.1,86.3 253.1,90.1 253.0,90.9 253.9,91.8 255.1,93.0 254.8,94.5 254.3,95.4 253.9,95.9 254.0,98.9 254.1,99.6 254.2,100.1 253.8,100.9 252.6,102.3 251.3,103.0 250.1,103.6 249.0,104.1 248.4,103.9 247.9,104.8 247.7,105.5 247.1,106.0 246.5,106.2 246.0,106.0 245.3,105.0 245.0,104.4 245.2,103.6 244.6,103.2 243.7,103.1 241.9,102.3 239.1,102.6 238.5,103.1 238.2,103.6 237.6,103.7 236.3,103.9 235.4,103.5 233.1,103.0 230.4,103.4 229.2,103.8 226.9,104.1 223.6,103.3 223.2,102.7 222.5,102.3 221.0,102.7 220.1,103.1 219.4,103.5 217.9,103.8 217.1,103.8 216.1,103.9 215.5,104.2 214.5,104.3 213.8,104.5 213.0,105.0 212.4,105.3 212.0,105.8 211.2,106.3 210.7,106.4 210.3,107.0 210.3,107.5 209.7,109.2 209.0,110.0 208.1,110.6 207.7,111.3 207.4,112.3 206.8,113.7 205.1,114.6 204.2,115.1 203.9,115.7 204.6,116.2 204.0,116.9 203.4,117.2 202.4,117.3 201.2,117.1 200.6,118.3 200.5,120.3 200.5,121.4 200.3,122.0 201.1,123.9 201.5,124.8 202.8,127.1 203.5,130.0 203.3,130.8 203.0,131.8 203.1,132.4 204.0,132.7 205.1,133.4 207.6,136.0 207.8,136.6 207.2,137.2 206.6,140.3 206.6,140.8 208.7,146.2 209.5,147.2 209.9,147.8 210.1,149.3 209.8,148.3 208.1,145.7 207.6,144.3 207.4,143.1 205.4,140.7 204.5,140.2 203.9,140.2 203.3,141.6 200.2,140.3 199.9,138.7 200.6,137.9 199.8,138.3 199.0,138.6 198.1,138.1 196.5,136.5 195.7,135.5 195.6,134.6 195.5,134.1 194.9,134.0 193.6,134.7 192.7,134.0 192.3,133.3 192.1,132.7 191.3,132.1 190.5,131.7 189.8,131.7 189.1,131.9 188.7,132.6 187.2,132.9 184.2,133.4 183.3,133.0 182.6,132.7 182.1,132.6 181.5,132.5 179.5,132.2 178.8,132.2 177.5,132.7 177.2,133.3 176.5,133.3 175.2,132.1 174.9,131.3 175.4,130.7 176.3,127.0 176.0,125.5 176.7,123.5 176.6,122.9 176.3,122.1 176.4,121.1 177.1,120.9 177.4,120.3 177.2,118.9 176.2,118.9 175.2,118.8 174.6,118.6 173.6,118.4 170.5,118.0 168.7,118.4 168.0,118.5 166.4,118.6 164.5,118.8 162.3,119.6 161.7,119.7 160.3,121.4 160.1,122.1 160.7,123.1 161.6,123.9 162.5,125.9 162.2,126.4 161.7,127.2 160.3,131.0 160.1,132.2 160.1,132.8 160.3,135.7 160.9,137.8 161.1,140.2 160.3,142.1 159.5,142.9 158.7,143.6 158.2,144.5 157.8,145.2 157.1,148.0 156.4,148.8 154.7,151.7 154.6,152.3 154.2,153.8 153.9,154.5 152.4,157.8 152.2,158.5 152.2,159.3 152.6,159.8 152.5,160.3 152.2,161.0 152.3,161.6 152.0,162.4 151.0,164.3 150.0,165.9 149.4,166.2 148.0,168.5 147.9,169.5 147.2,171.0 146.5,171.1 146.5,172.0 147.2,173.9 146.6,175.0 146.4,175.9 146.6,177.3 146.7,178.9 146.8,179.8 146.3,180.8 146.5,181.9 146.9,183.3 148.3,186.4 148.7,187.0 149.0,187.7 147.8,188.4 147.7,188.9 147.9,189.7 148.3,190.4 150.1,190.8 151.3,190.9 152.1,190.8 153.7,189.6 155.8,188.8 156.4,188.8 157.3,188.9 158.0,189.0 158.6,190.3 158.9,192.0 159.4,194.7 159.5,196.0 159.6,196.5 160.0,200.1 160.2,200.8 160.6,201.4 161.2,201.8 161.7,202.4 162.1,203.3 162.4,204.0 163.3,204.6 163.9,204.3 163.8,203.2 163.3,202.6 164.3,203.3 164.8,204.2 165.1,205.0 165.3,205.7 165.4,206.2 165.5,207.5 165.7,208.5 165.8,209.2 166.3,211.3 166.5,212.1 166.8,213.5 167.1,214.4 167.2,215.4 167.3,215.9 167.7,217.8 167.9,218.9 168.1,219.5 168.5,221.0 168.8,221.7 169.3,222.6 169.8,223.3 170.3,223.8 170.5,224.5 170.0,224.6 168.2,223.1 167.5,220.1 167.4,219.6 167.2,218.7 165.8,214.8 165.2,214.5 164.3,214.8 163.4,215.6 163.2,216.2 163.3,217.2 163.7,218.7 163.9,219.3 165.3,221.5 165.9,222.2 166.8,222.3 167.4,224.4 167.8,225.1 169.2,225.7 169.8,225.7 170.6,225.1 171.1,224.9 171.7,225.5 172.4,226.5 173.0,227.5 173.6,228.2 174.2,228.6 176.2,229.3 176.9,229.8 177.5,230.2 178.1,230.5 178.7,230.4 180.0,230.3 180.8,230.3 183.6,230.1 183.3,229.4 182.7,229.0 183.3,229.0 185.7,230.0 186.5,230.3 187.2,230.8 187.6,231.6 189.0,233.9 189.8,235.1 190.2,235.7 190.5,236.2 191.0,236.9 194.7,239.9 195.3,240.3 196.1,240.8 196.0,242.2 194.7,244.1 194.1,244.7 193.6,245.3 193.5,246.0 193.6,246.5 193.6,247.1 191.7,249.1 191.1,249.0 190.6,248.4 189.4,248.8 188.8,247.9 188.8,247.3 187.9,246.4 187.4,246.2 186.2,246.8 185.3,247.1 182.9,248.0 182.0,249.5 181.4,250.3 180.9,250.6 180.4,250.9 179.9,250.9 178.6,249.3 177.5,248.5 178.2,246.5 178.7,246.2 179.3,246.0 179.6,245.0 179.4,243.9 179.3,242.8 179.5,241.8 179.6,240.6 177.8,240.2 176.9,240.7 175.2,240.8 175.1,240.0 175.2,239.4 174.8,237.7 173.5,236.3 172.9,236.7 172.3,237.1 171.6,237.2 168.1,236.1 167.3,235.7 166.5,235.0 166.4,234.4 165.9,233.1 165.2,232.9 164.4,232.8 163.7,234.2 163.9,234.8 163.7,236.7 163.2,237.4 162.5,235.9 161.9,236.1 161.0,235.5 160.6,234.9 160.3,234.3 159.6,233.2 158.2,231.7 157.3,230.9 155.9,230.5 155.4,229.9 155.4,228.2 155.4,227.5 155.6,227.0 156.4,226.0 155.5,226.0 153.9,225.6 152.9,223.9 150.6,222.9 149.7,221.7 149.7,220.8 149.8,220.3 148.6,217.5 148.3,216.9 146.2,215.5 145.9,216.1 144.7,216.1 144.3,215.2 144.2,214.2 144.5,212.8 143.2,211.5 142.0,210.8 141.2,211.1 140.1,210.8 139.6,210.0 139.6,209.2 139.6,208.0 139.6,207.4 138.9,205.9 138.3,206.0 137.6,206.4 137.6,205.6 137.7,205.0 136.4,205.0 135.0,205.6 134.5,206.0 134.9,207.2 134.5,208.5 133.7,208.8 132.4,207.5 131.7,206.4 130.9,203.9 130.4,202.1 130.3,201.5 130.8,200.7 131.0,199.3 131.4,196.6 131.9,195.7 132.6,194.6 132.8,194.0 132.9,193.2 133.0,192.3 132.6,190.7 132.9,190.2 133.6,188.7 133.6,188.2 133.8,187.5 134.6,185.0 136.5,181.9 136.2,180.6 136.3,179.4 136.7,178.9 138.7,174.8 139.2,173.2 139.6,171.9 139.7,170.9 139.8,170.4 140.2,169.9 140.9,168.6 140.6,167.4 140.1,166.7 140.2,166.0 140.9,165.0 141.5,164.4 142.2,164.2 142.8,163.5 144.7,161.2 145.7,160.3 146.3,159.9 146.8,159.7 147.5,158.8 148.2,157.8 149.4,155.8 149.9,154.6 151.8,150.9 153.2,149.9 154.6,148.1 155.1,146.6 154.5,146.4 153.8,145.7 153.3,143.3 153.4,141.9 153.6,141.3 152.3,140.4 151.6,138.6 151.4,137.9 151.1,135.2 151.3,133.9 149.1,132.4 148.0,131.4 145.8,125.9 145.9,123.8 146.6,123.4 147.3,123.3 147.5,122.8 147.6,119.9 147.5,118.9 147.1,117.6 146.9,117.0 146.8,116.0 146.8,115.5 146.8,114.5 146.1,113.7 144.5,111.0 144.0,109.7 143.5,108.6 142.9,108.2 142.0,107.6 140.7,106.7 139.9,106.2 137.5,104.5 136.7,103.4 136.2,102.3 135.8,101.7 134.9,100.1 134.4,99.5 133.9,99.0 132.6,97.9 131.5,96.3 131.2,95.2 131.4,94.7 131.2,94.1 131.0,93.5 130.4,91.7 130.5,89.6 131.1,89.3 133.7,88.4 134.2,87.0 135.4,86.5 136.2,86.8 136.5,87.4 136.9,86.9 137.1,86.0 137.1,85.3 136.8,84.0 136.6,83.0 136.7,82.1 136.6,81.2 137.4,76.7 137.7,75.4 138.4,74.2 140.2,74.0 140.8,74.4 141.4,73.9 142.4,71.8 142.7,69.7 141.6,68.7 141.0,69.3 140.3,70.2 139.1,71.5 138.3,69.7 138.3,68.6 136.5,65.5 135.9,64.6 135.2,63.9 135.3,63.1 136.3,61.7 135.7,60.3 134.8,59.0 134.2,58.4 133.4,58.4 132.2,56.9 131.6,56.3 130.5,55.3 129.0,54.0 127.9,52.3 126.5,50.4 125.8,49.7 124.6,48.8 123.6,47.7 121.8,44.9 122.0,43.8 122.6,43.3 122.8,42.8 121.8,40.2 121.2,39.5 120.8,38.8 120.6,38.3 121.1,37.8 120.7,37.2 120.2,36.9 119.7,36.9 119.4,37.5 118.8,37.9 117.9,36.9 117.8,36.2 117.6,35.5 116.9,34.2 116.4,33.6 116.0,33.1 116.2,32.6 117.6,34.0 118.7,34.0 119.4,34.0 120.7,33.1 122.7,32.7 123.2,32.8 123.3,32.2 123.3,31.7 123.4,31.1 122.8,27.8 122.3,27.4 121.8,27.0 122.8,25.0 123.3,24.4 124.0,24.0 124.4,22.7 124.4,22.0 124.2,20.7 123.7,19.5 123.5,18.9 124.8,16.7 124.8,15.9 125.4,15.9 126.4,15.4 127.6,14.7 127.7,14.2 127.5,13.6 127.8,12.1 128.4,11.9 129.4,12.3 130.0,12.7 130.7,13.3 131.1,13.9 132.5,13.9 133.6,13.8 135.1,13.8 135.8,13.6 138.0,13.0 141.1,11.8 142.0,12.4 143.0,12.5 143.8,12.4 144.4,11.6 144.6,10.9 144.4,10.4 144.3,9.9 144.6,8.1 145.1,7.1 146.6,6.6 147.3,6.6 148.0,6.7 148.6,7.1 149.2,7.5 151.3,7.1 152.1,6.7 152.6,6.2 153.3,5.4 152.4,3.5 152.7,2.7 154.2,3.2 155.1,3.4 157.0,3.1 157.6,3.0 158.0,2.5 158.3,1.9 158.8,1.3 160.1,1.0 160.5,1.6 161.1,2.2 162.0,2.8 " />
    <polygon id="Thailand" points="174.5,124.5 174.3,123.8 174.6,124.4 " />
    <polygon id="Thailand" points="172.4,128.0 172.2,127.5 172.4,128.0 " />
    <polygon id="Thailand" points="198.6,138.8 " />
    <polygon id="Thailand" points="201.8,144.4 199.8,144.3 198.7,141.4 199.6,141.2 200.4,141.7 200.7,142.2 201.4,143.3 202.0,144.0 " />
    <polygon id="Thailand" points="204.5,151.0 203.5,150.3 203.4,148.8 203.8,147.8 204.7,148.7 204.8,149.3 204.6,150.9 " />
    <polygon id="Thailand" points="162.1,182.6 160.8,182.3 160.3,181.4 160.5,180.8 161.2,180.7 162.1,181.4 162.1,182.6 " />
    <polygon id="Thailand" points="133.9,182.1 133.9,181.2 134.1,181.8 " />
    <polygon id="Thailand" points="155.5,184.0 " />
    <polygon id="Thailand" points="160.4,187.2 159.8,187.1 159.6,185.0 160.5,184.5 162.0,184.3 162.2,184.8 161.9,186.2 161.1,187.0 160.4,187.2 " />
    <polygon id="Thailand" points="134.9,184.5 " />
    <polygon id="Thailand" points="155.4,185.7 155.5,185.1 155.6,185.6 " />
    <polygon id="Thailand" points="125.3,186.8 124.8,187.0 124.5,186.5 125.1,186.2 125.4,186.8 " />
    <polygon id="Thailand" points="125.0,187.7 124.3,187.4 124.5,186.9 125.0,187.5 " />
    <polygon id="Thailand" points="131.5,193.7 131.1,192.1 131.2,191.5 131.8,191.5 132.4,192.3 132.5,192.9 132.1,193.5 131.5,193.7 " />
    <polygon id="Thailand" points="137.4,209.6 136.8,209.3 137.2,208.3 137.7,207.9 137.8,208.4 137.5,209.6 " />
    <polygon id="Thailand" points="133.8,212.0 134.0,212.7 134.4,213.2 132.4,215.1 131.8,214.7 131.6,212.4 131.8,208.0 132.4,208.0 132.7,208.8 133.6,209.6 134.1,210.8 133.8,211.4 133.8,212.0 " />
    <polygon id="Thailand" points="137.2,212.7 136.7,212.5 136.0,209.7 135.9,209.0 137.1,209.7 137.4,210.2 137.4,211.6 137.3,212.6 " />
    <polygon id="Thailand" points="134.4,212.2 " />
    <polygon id="Thailand" points="145.9,217.9 144.7,217.1 144.9,216.6 145.8,216.6 146.0,217.2 146.0,217.9 " />
    <polygon id="Thailand" points="145.8,220.0 145.2,219.9 144.7,219.2 144.4,218.5 144.4,218.0 144.3,217.2 145.1,217.6 145.8,219.8 " />
    <polygon id="Thailand" points="150.5,224.6 150.1,223.6 150.7,223.5 150.6,224.5 " />
    <polygon id="Thailand" points="169.8,225.3 " />
    <polygon id="Thailand" points="155.2,236.4 154.0,235.0 155.1,232.9 155.7,234.9 155.8,235.5 155.2,236.4 " />
    <polygon id="Thailand" points="147.6,235.8 147.0,235.8 147.2,235.2 148.0,235.1 147.6,235.8 " />
  </g>
</svg>