<?xml version="1.0" encoding="UTF-8" standalone="yes"?>
<!DOCTYPE svg PUBLIC "-//W3C//DTD SVG 1.0//EN" "http://www.w3.org/TR/2001/REC-SVG-20010904/DTD/svg10.dtd">
<svg height="250" width="370" xmlns="http://www.w3.org/2000/svg" xmlns:svg="http://www.w3.org/2000/svg" xmlns:xlink="http://www.w3.org/1999/xlink">


<g id="background">
<rect id="" width="370" height="250" fill="#222222"/>
</g>
  <g id="784" style="stroke-miterlimit: 3; fill: #F1F1F1; stroke: #000000; stroke-opacity: 1; stroke-width: 0.05; stroke-linejoin: bevel; stroke-linecap: square">
    <polygon id="United Arab Emirates" points="345.3,31.1 349.2,33.2 351.5,32.5 355.4,34.3 356.1,34.7 357.0,35.3 358.7,40.4 358.7,41.4 358.4,44.8 358.1,48.0 358.5,50.9 359.2,53.8 359.6,55.3 359.0,59.6 357.9,71.2 357.8,72.6 357.8,73.5 359.0,80.0 358.4,80.0 357.5,80.2 356.8,80.5 356.3,81.0 356.2,81.9 356.5,83.9 356.6,85.2 356.3,86.0 355.3,86.6 354.5,86.8 353.4,87.3 352.9,87.8 352.3,88.9 351.4,89.5 350.3,90.0 348.4,90.6 345.6,91.2 345.0,94.4 342.6,97.2 339.5,97.8 337.5,97.5 336.4,97.0 335.9,96.5 330.7,88.5 330.4,87.8 330.5,87.0 331.1,86.5 332.0,86.4 332.9,86.6 333.7,87.0 334.4,87.3 335.7,88.2 334.7,83.0 334.3,81.9 333.9,81.3 333.3,80.8 332.7,80.4 331.3,80.0 330.3,79.8 328.7,79.7 327.3,79.9 325.8,80.5 324.4,81.2 323.4,81.8 322.3,82.7 320.8,84.3 319.0,86.3 318.0,87.4 317.7,88.2 317.7,90.1 318.5,98.1 318.9,100.2 320.6,103.9 318.4,107.8 316.3,109.4 316.0,110.1 316.1,110.9 317.3,116.4 318.9,120.8 318.6,127.9 316.0,132.2 315.8,133.0 315.8,133.5 316.0,134.3 321.8,135.5 323.7,134.8 324.3,134.4 325.0,134.0 326.8,133.8 327.3,133.8 328.3,134.0 328.8,134.6 333.6,144.7 333.8,145.5 333.1,145.8 331.9,146.2 322.9,148.5 317.6,149.5 309.3,148.8 308.3,148.7 306.4,148.8 305.1,149.1 296.5,153.0 298.2,157.7 298.8,158.1 299.9,159.1 300.2,160.3 300.5,166.9 300.4,167.4 300.2,168.2 294.7,176.9 290.1,186.7 285.7,199.8 284.7,202.5 284.2,203.6 283.3,205.3 282.7,206.3 281.0,208.8 278.9,212.0 277.2,214.6 276.8,215.8 275.1,221.9 274.9,223.4 274.9,229.4 275.0,231.1 275.3,234.2 275.4,236.4 275.3,237.4 275.3,238.4 274.0,245.2 269.8,250.0 84.4,227.9 12.0,142.5 12.0,132.2 14.9,131.8 22.3,132.1 25.8,138.1 25.5,139.9 25.7,141.6 26.8,147.4 26.9,148.1 27.6,149.8 28.3,150.8 28.9,151.3 29.7,151.5 31.6,151.9 37.4,151.9 48.0,154.2 48.8,154.1 57.2,153.2 59.0,152.9 60.6,152.4 65.5,151.1 66.8,150.6 73.3,147.4 74.0,147.0 80.1,142.2 84.0,137.5 84.3,136.9 85.0,136.5 87.0,136.5 87.9,136.8 88.4,137.2 89.5,138.9 90.9,140.6 91.6,141.1 98.1,141.1 110.5,141.0 118.7,142.2 120.4,142.0 125.2,141.1 130.9,141.1 138.2,143.5 144.7,143.2 147.9,143.3 152.5,144.5 153.4,144.8 154.7,145.6 155.2,146.1 155.5,146.9 155.9,147.4 156.7,147.8 157.7,147.8 178.0,146.7 195.7,140.9 196.4,140.6 200.6,137.7 204.9,135.2 214.7,132.7 217.8,130.6 218.3,130.0 220.1,126.7 221.1,124.4 221.6,121.5 222.9,119.4 223.7,119.1 224.5,119.2 226.1,119.6 226.9,119.7 227.6,119.5 228.4,119.3 229.2,118.8 235.6,102.9 234.7,99.0 234.1,98.7 234.2,96.9 238.4,92.9 255.6,81.9 260.0,80.3 260.8,79.8 263.1,78.1 264.3,77.2 268.9,72.3 272.4,68.5 273.4,67.4 274.4,66.2 275.2,64.9 276.1,63.7 278.6,60.9 281.4,58.1 283.2,56.4 286.3,52.4 290.3,50.0 292.8,49.0 293.5,48.6 294.3,47.6 295.2,45.3 296.1,44.2 297.1,41.5 297.7,39.4 298.5,38.0 298.9,37.4 299.4,36.8 300.1,36.4 300.7,36.4 300.7,37.2 300.3,37.8 299.1,38.8 298.8,39.5 299.0,40.4 300.1,41.0 301.5,40.4 302.4,40.4 305.1,39.9 305.6,39.4 305.8,38.6 305.7,37.9 306.1,36.9 306.8,35.9 309.6,33.4 313.7,30.6 321.5,26.6 322.1,26.1 333.4,15.1 333.9,14.5 334.2,13.7 335.1,11.3 337.2,4.7 337.4,3.8 337.8,1.3 342.7,0.0 343.5,0.0 345.4,5.0 344.0,12.8 342.1,18.2 342.2,25.3 342.6,30.3 343.5,30.5 345.3,31.1 " />
    <polygon id="United Arab Emirates" points="304.3,37.2 303.7,37.3 304.2,36.3 304.4,36.9 " />
    <polygon id="United Arab Emirates" points="219.0,114.7 218.2,114.7 217.4,114.6 216.6,114.4 216.1,113.7 216.4,113.1 220.0,108.4 220.8,108.2 221.4,109.3 220.5,114.2 219.8,114.6 219.0,114.7 " />
    <polygon id="United Arab Emirates" points="224.4,114.4 224.5,115.1 223.8,115.0 223.0,114.6 222.3,114.1 221.6,113.5 221.2,112.8 221.1,112.1 221.7,111.5 224.4,114.4 " />
    <polygon id="United Arab Emirates" points="221.3,120.6 214.8,119.3 211.0,118.0 211.1,117.3 211.9,116.6 214.6,114.6 215.4,114.9 221.2,119.6 221.5,120.3 " />
    <polygon id="United Arab Emirates" points="143.5,127.5 142.6,127.8 142.0,127.1 142.0,126.4 142.3,124.9 142.7,124.3 143.4,123.9 144.2,123.9 144.9,124.0 145.7,124.4 146.0,125.1 145.8,125.8 143.5,127.5 " />
    <polygon id="United Arab Emirates" points="86.8,131.5 86.1,131.4 85.0,130.4 84.3,129.6 83.7,128.2 83.6,127.4 83.7,126.4 84.2,125.3 84.6,124.7 87.6,124.0 88.5,124.0 89.5,124.8 89.9,125.9 89.7,128.1 87.1,131.3 " />
    <polygon id="United Arab Emirates" points="206.3,130.1 204.0,131.5 203.2,131.2 200.1,128.5 199.7,127.9 199.9,127.1 201.8,125.4 202.7,125.2 203.8,125.6 204.5,126.0 205.7,127.8 206.6,129.4 206.3,130.1 " />
    <polygon id="United Arab Emirates" points="122.6,128.4 121.8,128.6 121.0,128.1 120.4,127.4 120.3,126.7 120.5,126.1 120.9,125.4 121.4,125.2 122.3,126.2 122.5,127.8 122.6,128.4 " />
    <polygon id="United Arab Emirates" points="138.1,131.6 134.3,132.3 132.3,130.9 132.9,129.1 139.3,127.2 139.9,127.8 139.8,128.5 139.7,129.2 138.9,131.1 138.1,131.6 " />
    <polygon id="United Arab Emirates" points="184.6,138.2 183.9,140.3 183.4,140.8 179.8,141.4 174.1,141.0 171.4,141.9 164.0,139.4 162.8,139.7 162.1,140.0 161.1,140.0 160.3,139.8 159.8,139.2 159.9,138.7 160.4,138.1 161.0,137.7 166.0,134.9 175.9,131.6 176.7,131.6 184.1,137.1 184.5,137.8 " />
  </g>
</svg>