<?xml version="1.0" encoding="UTF-8" standalone="yes"?>
<!DOCTYPE svg PUBLIC "-//W3C//DTD SVG 1.0//EN" "http://www.w3.org/TR/2001/REC-SVG-20010904/DTD/svg10.dtd">
<svg height="250" width="370" xmlns="http://www.w3.org/2000/svg" xmlns:svg="http://www.w3.org/2000/svg" xmlns:xlink="http://www.w3.org/1999/xlink">


<g id="background">
<rect id="" width="370" height="250" fill="#222222"/>
</g>
  <g id="788" style="stroke-miterlimit: 3; fill: #F1F1F1; stroke: #000000; stroke-opacity: 1; stroke-width: 0.05; stroke-linejoin: bevel; stroke-linecap: square">
    <polygon id="Tunisia" points="163.8,1.0 163.1,1.0 163.1,0.5 164.5,0.0 164.8,0.6 163.8,1.0 " />
    <polygon id="Tunisia" points="195.5,13.7 196.3,13.6 197.0,13.3 197.6,12.8 198.4,11.8 198.4,11.3 197.9,11.0 196.0,10.6 198.3,10.0 202.2,9.5 202.8,9.5 207.2,11.1 207.8,11.3 209.5,12.1 208.1,13.1 208.0,12.6 206.0,12.7 205.4,13.0 205.1,13.6 205.9,13.9 207.4,14.1 208.1,14.1 206.7,16.1 206.7,16.9 207.6,18.8 212.2,22.2 212.7,22.8 210.9,24.8 210.3,24.5 210.4,24.0 209.9,23.7 207.9,24.1 207.5,24.7 207.4,25.4 209.2,25.8 211.5,27.0 212.2,27.5 213.4,27.8 214.8,27.9 215.8,27.7 216.5,27.4 217.4,26.9 218.6,26.3 219.6,24.7 220.1,23.5 221.3,22.6 222.2,22.7 223.3,22.7 223.8,22.6 225.0,22.5 225.5,22.2 228.7,20.3 230.6,18.6 231.4,17.4 231.6,16.9 236.1,15.4 236.7,15.7 237.4,16.7 238.6,21.7 236.4,24.8 234.4,26.7 234.0,27.2 231.5,30.5 230.4,32.4 229.6,33.9 229.4,34.4 229.0,35.5 228.7,36.2 228.2,36.8 227.6,37.0 226.2,37.2 223.9,37.8 220.4,39.1 219.6,39.5 219.0,40.0 218.4,40.7 218.0,41.3 217.7,41.8 217.3,42.8 217.0,43.8 216.5,46.2 216.4,46.9 216.4,48.5 216.5,49.1 217.0,50.7 218.6,53.6 221.4,57.2 222.2,58.1 224.3,59.9 226.2,60.5 228.7,62.0 228.9,62.5 229.5,63.0 230.4,63.5 231.0,63.7 231.9,63.9 232.7,63.9 234.1,64.2 234.8,64.3 235.4,64.6 236.0,65.0 235.5,67.6 236.1,69.1 235.8,73.4 235.7,74.0 235.8,75.1 236.6,76.3 238.0,77.5 238.5,77.9 239.3,78.4 237.7,80.9 237.1,81.3 236.3,81.8 235.8,82.4 235.6,83.1 235.6,83.7 235.6,84.5 235.5,85.3 232.0,90.7 229.0,94.0 226.0,98.0 225.2,98.8 224.1,99.1 223.4,99.1 222.8,99.3 222.2,99.8 220.7,102.3 220.0,102.8 217.9,103.2 215.8,104.0 215.2,104.4 214.5,105.2 213.7,106.2 212.3,107.2 206.3,109.9 205.6,110.2 204.8,110.3 202.1,113.7 201.6,114.6 201.3,115.3 201.3,117.4 201.5,118.4 201.9,119.9 202.1,120.6 203.2,122.7 203.6,123.3 204.1,124.1 206.5,127.0 210.0,129.7 211.6,131.0 212.2,131.4 213.0,131.9 214.2,132.3 216.5,133.1 217.0,133.5 219.0,133.1 221.6,132.4 222.5,131.9 223.4,131.3 224.6,131.0 225.3,131.1 225.6,132.0 225.4,134.6 225.1,135.4 224.2,136.2 223.7,136.8 224.4,138.5 226.2,139.2 227.1,139.0 231.8,137.2 232.3,136.7 232.7,136.1 232.7,135.4 231.9,134.7 231.8,134.1 232.8,133.8 234.2,133.5 235.9,133.9 236.7,134.2 237.8,135.0 238.3,135.8 238.7,136.4 239.0,137.3 239.0,138.4 238.7,139.3 238.6,139.9 238.5,140.6 239.1,145.3 239.5,146.1 240.8,148.0 246.8,149.1 247.6,149.1 249.5,149.2 250.0,148.9 251.6,148.9 253.1,149.5 253.0,150.3 252.9,151.0 252.8,151.6 252.4,152.8 252.1,153.6 251.9,154.2 251.6,157.3 251.4,160.0 251.0,167.1 251.2,168.1 252.0,169.1 252.7,169.6 253.4,170.2 254.0,170.6 254.4,171.2 254.8,172.0 255.0,172.6 255.0,173.3 254.5,174.4 253.8,175.0 252.7,175.6 251.6,176.2 249.3,177.5 246.2,178.6 241.3,180.6 240.0,181.1 236.1,182.7 231.0,184.8 230.7,185.5 230.3,186.4 229.3,188.2 228.5,188.9 225.4,190.7 224.8,190.9 222.0,194.2 219.0,197.7 218.1,198.4 217.0,199.1 216.3,199.2 215.3,199.0 214.4,198.9 213.8,198.8 213.0,198.8 211.8,199.1 210.7,200.0 205.6,206.3 205.4,207.1 205.1,209.3 206.7,213.0 208.3,216.8 209.9,221.1 210.8,226.7 210.3,228.3 208.5,232.3 208.2,233.0 203.7,237.9 200.2,242.2 197.3,245.6 196.8,246.1 196.0,246.5 195.1,246.3 191.8,247.2 188.4,248.5 185.0,250.0 184.4,247.6 182.6,240.6 181.6,236.3 179.7,229.3 178.1,222.7 176.8,218.0 173.9,206.7 172.8,202.4 170.2,192.6 169.4,189.6 168.6,186.5 166.9,185.1 162.0,182.1 156.0,178.4 151.6,175.7 146.6,172.7 144.4,171.4 144.1,169.9 143.5,165.3 143.3,164.3 143.1,162.4 142.9,161.0 141.8,159.6 137.8,154.4 135.5,151.4 134.9,151.6 134.1,151.7 133.2,151.5 124.7,148.4 124.1,148.0 123.2,146.9 123.0,145.5 123.0,144.4 123.0,142.6 123.0,141.7 123.0,141.0 121.3,138.0 117.3,132.3 115.8,127.6 115.0,125.0 115.0,124.1 115.2,123.1 115.6,122.2 115.9,121.3 115.9,120.6 115.8,118.7 116.2,117.6 119.4,114.6 120.1,114.1 120.7,113.9 121.5,113.6 122.2,113.5 123.2,113.4 123.9,113.2 124.4,113.0 125.0,112.6 126.2,109.8 126.4,109.3 126.3,108.6 126.4,107.8 126.9,107.0 127.9,106.2 133.6,103.7 134.8,103.3 136.0,102.9 136.6,102.7 141.0,99.1 141.1,98.6 140.3,98.0 140.2,97.2 140.7,96.6 141.5,95.9 142.2,95.5 141.9,92.6 141.8,92.0 142.2,88.1 143.5,83.5 144.0,82.8 146.1,80.3 144.2,77.1 143.4,76.4 142.9,75.3 142.8,74.3 142.7,73.5 143.0,72.3 143.2,71.7 144.3,66.9 144.2,65.6 144.2,64.5 144.1,63.9 143.9,63.4 143.5,62.8 142.7,62.2 142.0,61.4 141.8,60.9 141.6,60.4 141.4,59.1 141.3,57.6 141.4,55.7 141.6,55.1 142.0,54.0 142.3,52.7 142.8,49.3 143.3,46.0 143.3,45.3 143.7,42.9 145.1,40.4 145.2,39.9 145.3,38.5 145.2,37.5 142.9,36.3 142.2,36.2 141.1,36.2 140.5,36.2 139.8,36.1 139.1,36.0 138.6,35.4 138.7,34.7 139.0,34.1 139.8,33.5 140.3,33.3 141.0,33.1 144.3,32.1 147.4,30.4 148.0,29.9 148.7,28.1 148.7,27.2 154.2,24.2 154.0,22.5 153.7,20.5 155.2,20.0 158.4,19.7 159.1,19.7 160.5,19.2 161.8,18.6 162.4,18.2 163.1,17.8 163.7,17.4 164.6,16.7 165.2,16.1 165.7,15.5 166.1,14.7 168.1,13.3 168.9,13.0 169.4,12.9 172.0,12.0 177.8,10.7 185.8,8.1 189.0,7.0 189.6,6.9 191.8,6.8 195.9,7.2 196.4,8.7 196.1,9.4 195.5,9.9 194.4,10.4 193.5,10.5 193.0,11.1 193.5,12.3 194.3,13.3 195.1,13.6 " />
    <polygon id="Tunisia" points="228.5,14.4 227.9,14.3 228.7,14.2 " />
    <polygon id="Tunisia" points="239.8,98.0 239.2,98.2 239.2,97.2 243.0,93.0 244.3,93.1 244.9,93.3 244.8,95.6 243.9,96.1 242.7,96.5 241.7,96.8 241.1,97.1 239.9,97.9 " />
    <polygon id="Tunisia" points="237.3,99.2 236.3,100.0 235.1,99.6 233.8,99.0 233.8,98.5 236.7,98.3 237.3,99.2 " />
    <polygon id="Tunisia" points="234.8,129.7 232.9,130.6 231.1,132.3 230.7,133.0 230.4,133.5 230.3,132.0 230.2,131.5 229.6,130.8 229.0,130.4 228.3,130.2 227.5,130.4 227.1,130.9 226.3,131.2 225.8,131.0 225.5,130.3 225.3,129.8 225.7,125.2 227.0,124.7 228.1,124.7 232.1,125.3 234.0,126.0 236.5,127.4 237.0,128.0 235.4,129.5 234.8,129.7 " />
  </g>
</svg>