<?xml version="1.0" encoding="UTF-8" standalone="yes"?>
<!DOCTYPE svg PUBLIC "-//W3C//DTD SVG 1.0//EN" "http://www.w3.org/TR/2001/REC-SVG-20010904/DTD/svg10.dtd">
<svg height="250" width="370" xmlns="http://www.w3.org/2000/svg" xmlns:svg="http://www.w3.org/2000/svg" xmlns:xlink="http://www.w3.org/1999/xlink">


<g id="background">
<rect id="" width="370" height="250" fill="#222222"/>
</g>
  <g id="792" style="stroke-miterlimit: 3; fill: #F1F1F1; stroke: #000000; stroke-opacity: 1; stroke-width: 0.05; stroke-linejoin: bevel; stroke-linecap: square">
    <polygon id="Turkey" points="34.4,67.4 35.3,68.0 37.5,69.3 38.3,68.8 38.9,68.5 40.4,68.0 42.8,67.6 43.5,67.5 44.3,67.7 45.6,67.9 46.4,67.9 46.7,68.8 46.7,69.4 46.1,69.6 45.5,70.0 45.5,70.8 47.6,74.4 48.7,75.4 49.8,76.5 50.8,77.1 51.6,77.5 52.5,77.8 55.0,78.8 61.4,81.2 62.2,81.5 64.2,82.0 65.8,82.3 66.3,82.0 67.1,82.1 67.5,82.8 66.8,83.5 66.2,83.9 66.7,84.5 66.5,85.3 66.1,85.9 63.5,87.3 62.3,87.7 58.2,87.7 57.7,87.6 57.7,86.8 57.4,86.1 57.1,85.6 56.3,85.4 56.9,85.8 57.1,86.5 56.8,87.0 56.2,87.1 55.3,86.6 54.7,86.2 54.1,86.0 53.4,85.9 50.8,85.4 50.2,85.4 49.3,85.4 48.7,85.5 47.8,85.7 46.3,86.2 45.8,86.7 45.3,87.5 44.0,87.5 43.4,87.4 42.8,87.0 41.9,86.7 41.1,86.7 40.1,86.8 36.7,87.2 36.2,87.5 35.7,88.6 35.5,89.6 32.6,92.6 30.2,94.0 29.5,94.3 27.2,94.8 26.2,95.5 24.5,95.9 21.6,96.9 20.7,97.5 20.7,98.0 19.4,99.3 18.8,99.9 18.1,100.3 16.0,101.6 14.2,103.6 13.7,104.1 11.8,105.2 11.0,105.4 12.1,103.0 12.5,102.5 12.8,101.4 12.0,100.4 12.2,99.7 15.6,98.0 18.0,96.9 19.0,96.5 19.6,96.4 20.6,96.4 22.5,95.5 23.4,94.9 23.0,93.9 22.5,93.5 21.0,93.9 20.5,93.9 19.8,93.9 18.7,94.0 16.0,94.3 14.4,94.5 13.7,94.7 13.1,94.8 10.4,94.8 9.6,94.7 9.0,94.4 8.6,93.6 8.4,92.0 9.2,92.0 9.8,91.8 10.8,90.4 11.6,89.3 12.3,89.1 13.0,88.8 14.4,87.8 14.7,86.5 13.7,85.1 13.8,82.4 14.4,82.0 14.9,82.0 15.5,81.9 19.1,80.6 19.7,80.1 19.8,79.6 19.8,79.0 19.2,76.4 18.5,75.1 17.5,74.7 15.2,73.6 14.5,73.2 13.9,72.7 14.1,72.0 14.7,71.1 16.1,71.0 16.7,71.0 17.7,71.0 18.3,70.5 18.6,69.6 18.3,69.0 19.5,68.1 25.5,67.5 26.1,67.5 27.4,66.0 28.2,65.9 31.3,65.5 32.3,65.6 32.9,65.9 33.8,66.3 34.4,67.4 " />
    <polygon id="Turkey" points="183.2,68.3 183.1,68.9 183.9,70.3 185.4,72.0 186.4,72.9 190.1,74.3 190.8,74.5 191.9,74.7 192.4,74.8 193.1,74.7 193.7,74.6 196.2,74.0 198.2,73.4 198.9,73.1 199.7,72.7 201.6,73.6 202.1,74.0 202.7,74.6 203.1,75.3 203.2,76.2 202.9,76.8 202.9,77.5 203.9,78.8 205.3,80.0 207.3,81.4 208.3,82.0 208.9,82.2 209.5,82.3 210.3,82.1 210.9,81.7 211.6,81.2 212.4,80.2 213.1,80.0 214.4,79.9 216.3,80.0 217.2,80.2 218.6,80.8 219.9,81.5 220.5,81.9 220.5,82.5 220.5,83.1 220.9,83.6 222.3,84.0 222.9,84.1 224.5,84.2 225.7,84.3 228.0,85.4 229.6,86.1 230.1,86.3 231.2,86.2 231.7,86.0 232.1,85.4 232.6,84.7 233.1,84.3 234.5,84.6 235.1,85.0 235.0,85.5 235.3,86.0 237.2,87.2 238.0,87.1 238.9,87.2 241.0,87.6 242.3,87.9 245.4,88.4 246.0,88.6 247.4,88.6 249.3,88.5 252.9,87.9 253.9,87.4 254.5,86.9 255.0,86.7 257.1,86.1 258.5,86.2 259.6,86.1 260.4,85.9 261.3,85.7 262.6,85.5 263.1,85.9 263.7,86.0 264.9,85.6 265.4,85.4 265.9,85.2 266.4,84.9 267.7,85.0 269.1,85.8 271.9,86.9 276.2,87.8 279.4,88.4 280.0,88.5 280.8,88.5 283.1,87.7 284.4,87.3 285.0,86.7 285.6,86.5 286.7,86.1 287.3,86.1 289.1,85.9 290.2,85.4 292.0,84.3 292.8,83.7 293.9,83.1 294.9,83.3 295.5,83.3 298.0,82.5 300.5,81.4 301.2,81.0 301.9,80.6 303.4,79.9 304.4,79.7 305.1,79.4 306.7,77.7 307.4,76.8 308.2,76.9 311.2,77.4 311.8,77.9 313.0,78.5 314.2,78.1 314.7,77.5 315.5,77.0 316.1,76.9 318.4,77.1 319.7,77.1 321.8,77.4 322.5,77.7 323.6,78.0 325.3,78.5 325.8,78.4 327.1,77.3 327.9,75.7 329.1,75.5 329.6,75.4 332.2,75.6 333.7,77.1 336.1,79.3 338.2,80.7 340.3,83.2 342.6,83.0 343.3,83.0 344.0,83.3 344.5,83.6 344.9,84.2 344.7,84.7 345.0,86.4 346.5,87.0 347.0,87.0 348.8,88.3 350.1,91.4 350.3,91.9 350.1,93.4 349.7,94.2 348.4,96.0 347.2,96.5 347.1,97.5 347.5,99.1 348.6,100.9 349.7,103.0 349.0,103.3 348.4,103.7 348.7,104.2 353.4,105.9 354.6,106.0 355.7,106.1 360.5,105.3 361.8,105.8 362.8,106.2 364.5,106.9 365.7,107.9 365.9,108.6 366.5,109.5 367.4,109.9 369.5,111.4 370.2,111.9 370.9,113.1 369.5,112.1 366.9,110.5 364.2,112.0 364.3,113.2 363.5,116.9 363.0,117.4 361.7,117.9 361.1,118.1 359.8,117.8 359.0,117.5 356.8,117.6 355.9,118.0 356.3,118.7 359.3,122.8 358.9,124.4 358.4,125.2 358.5,126.2 359.1,127.6 359.9,128.1 360.5,128.2 361.0,128.7 360.9,129.3 360.2,130.8 360.8,132.2 361.2,133.0 361.3,134.7 361.3,135.4 361.1,135.9 361.0,137.1 361.5,137.6 363.5,137.2 364.4,138.1 364.3,138.6 362.8,140.8 361.4,143.0 359.7,145.6 359.4,146.8 360.8,147.3 366.2,149.3 367.0,150.1 366.7,150.8 366.4,152.3 366.4,155.4 367.0,155.8 367.6,155.9 370.6,158.0 370.9,158.5 370.9,159.0 370.4,160.8 369.9,160.9 367.6,160.5 366.4,161.0 365.8,161.5 364.6,162.4 363.5,162.9 361.9,163.4 361.7,164.0 361.3,164.7 360.1,164.5 359.0,162.5 359.5,161.2 360.1,161.1 360.3,160.4 360.2,159.8 359.6,158.9 357.5,158.1 356.5,158.1 355.4,158.0 354.3,158.6 353.9,159.3 353.4,159.8 351.6,159.9 347.8,159.7 345.4,159.3 338.8,156.9 335.9,157.6 335.3,157.8 334.3,157.8 333.8,157.7 332.5,157.3 331.8,156.7 330.5,157.4 327.9,160.7 327.7,161.2 326.8,161.3 323.8,161.9 323.3,159.8 322.2,159.0 320.7,158.6 320.0,158.6 319.4,159.1 318.1,160.1 317.6,160.4 316.4,160.8 313.4,161.7 307.9,162.5 306.5,162.6 305.9,162.6 304.2,162.7 301.5,162.8 299.5,162.3 295.8,161.7 295.3,161.7 293.4,161.8 292.7,161.9 291.3,162.2 290.7,162.6 290.1,162.8 287.9,163.7 287.2,163.8 286.7,163.8 285.9,164.1 283.3,165.5 282.0,166.2 278.0,167.7 276.8,168.2 274.5,168.9 269.9,169.6 267.0,170.0 264.5,170.4 263.5,170.6 263.0,170.6 262.0,170.6 261.1,170.3 260.4,170.0 259.5,169.8 258.8,169.8 257.9,170.0 257.1,170.0 254.2,170.0 253.5,169.9 253.0,169.8 252.5,169.5 251.4,168.6 249.8,167.3 249.2,166.9 247.6,166.4 246.7,166.1 244.1,165.8 242.7,166.0 241.2,166.6 240.3,167.0 239.7,167.4 239.1,167.5 238.6,167.7 237.8,168.1 237.1,168.4 235.1,169.0 234.1,169.0 233.5,169.1 232.9,169.2 231.1,169.9 230.2,170.4 227.3,170.8 225.1,170.6 222.4,170.7 220.8,169.7 219.8,168.9 218.6,168.4 214.2,167.5 213.6,167.4 213.4,168.0 211.9,171.5 211.2,174.0 211.5,175.3 211.9,175.8 213.4,177.5 213.9,177.9 214.0,178.7 212.8,179.2 211.7,179.1 211.0,178.9 210.4,179.0 208.2,179.4 207.9,180.0 207.9,181.4 208.1,181.9 208.0,182.9 207.9,183.5 206.4,184.1 205.1,184.1 204.3,185.0 204.1,185.8 204.0,186.9 203.4,186.7 202.7,186.2 200.9,185.4 199.1,184.9 200.2,183.6 199.7,182.2 199.5,181.6 197.7,179.2 196.6,178.0 196.4,177.4 197.1,176.6 199.1,174.8 201.3,173.2 203.5,172.1 204.1,172.1 204.8,171.0 204.6,168.7 204.3,168.2 203.8,167.5 203.2,166.9 202.1,166.0 201.2,165.6 200.6,165.7 199.9,166.1 198.9,167.1 197.3,168.4 196.7,168.7 195.2,168.9 194.7,168.7 193.8,168.9 193.1,169.3 192.4,169.8 193.1,170.2 193.6,171.1 193.6,171.6 193.0,172.0 192.2,172.3 191.6,171.9 191.0,171.7 189.3,172.3 188.1,172.8 184.8,171.5 181.8,169.9 181.2,169.7 180.2,169.5 179.7,169.5 179.2,169.0 178.3,168.3 177.0,167.9 176.3,167.8 175.6,167.8 174.7,167.9 173.0,168.5 171.2,169.8 169.0,171.2 168.2,171.6 167.6,172.0 166.9,172.6 166.4,173.3 164.9,174.6 163.6,175.5 163.4,176.2 162.6,177.6 161.8,178.1 160.8,178.1 159.7,177.4 158.4,178.4 157.1,179.5 156.3,180.0 155.3,179.9 154.5,180.0 153.1,180.8 149.7,180.8 148.2,181.1 143.6,181.7 141.7,181.6 140.1,182.2 139.2,182.8 138.3,182.9 136.3,182.7 134.6,181.9 133.6,181.7 133.1,181.6 130.5,180.1 128.7,178.3 127.3,176.8 126.8,175.9 126.2,175.2 125.4,174.3 124.6,173.5 123.8,173.0 123.2,173.0 119.9,172.1 118.4,171.2 115.3,170.0 111.5,168.4 111.0,168.0 109.8,167.7 105.0,167.1 103.9,167.0 101.9,167.0 100.7,167.1 99.5,167.2 99.0,167.0 98.4,166.6 97.9,166.4 97.3,166.7 96.8,167.0 96.0,168.1 95.6,169.5 95.4,171.6 94.9,173.9 94.0,175.2 93.9,175.9 94.1,176.5 94.5,177.3 93.0,179.1 92.5,179.5 92.3,178.9 91.8,178.4 90.3,177.7 89.7,177.6 88.9,177.6 88.2,177.7 87.6,177.9 87.6,178.5 86.5,178.9 84.3,179.4 80.4,180.5 79.6,180.4 78.7,180.8 77.6,180.2 76.4,179.6 75.2,179.5 72.2,179.0 71.5,178.7 70.9,178.2 69.0,177.1 68.3,176.7 67.7,176.1 67.3,174.4 67.8,173.3 67.5,172.8 67.0,172.7 66.4,172.8 65.8,173.0 65.9,172.2 66.1,171.6 67.1,171.4 66.4,170.3 64.2,169.2 62.9,170.2 62.6,170.8 61.4,170.5 58.8,169.8 58.1,168.6 57.9,168.0 55.0,166.5 53.8,166.8 53.5,167.3 54.2,167.4 53.9,168.3 52.1,167.5 51.5,167.1 50.9,167.3 50.7,168.0 50.9,168.7 51.4,169.4 50.6,170.0 47.4,172.1 45.8,172.8 45.3,172.0 46.2,171.9 47.1,171.9 47.8,171.2 47.3,170.5 46.8,170.2 45.9,170.5 46.2,170.0 46.9,169.8 47.7,169.8 48.5,169.6 48.5,168.2 47.9,168.0 46.8,168.6 46.3,168.8 44.6,169.2 42.6,168.9 41.0,168.9 40.5,169.0 40.1,169.7 36.7,170.5 36.1,170.8 34.1,170.3 33.7,169.8 35.9,169.0 41.0,168.5 44.5,168.1 46.6,167.6 47.4,165.4 50.0,164.6 52.4,163.7 51.4,163.3 50.2,163.4 46.8,163.7 43.2,163.8 39.9,164.1 36.7,164.3 35.0,163.6 33.5,163.8 33.0,164.5 32.4,164.9 31.8,164.9 31.2,163.5 31.3,162.8 33.0,161.2 33.9,161.3 34.7,161.7 35.3,162.1 37.4,161.6 38.3,159.7 37.7,158.9 36.9,159.1 36.2,159.0 34.8,158.3 34.3,157.8 34.9,156.3 34.1,156.4 33.7,157.0 32.9,157.6 31.5,157.7 30.6,157.4 31.0,156.2 31.1,155.0 31.0,152.9 31.2,150.4 31.6,149.9 31.9,148.8 31.9,147.1 32.1,146.4 32.0,145.8 31.5,145.3 26.5,143.6 25.7,143.6 23.3,141.9 22.4,140.8 20.6,141.0 19.6,141.8 19.3,142.9 18.1,142.6 16.9,141.5 16.0,140.7 14.6,140.5 14.1,140.5 12.8,139.7 13.0,138.2 13.6,137.6 13.8,138.2 14.3,138.8 16.1,138.2 16.7,137.7 17.1,137.1 17.4,136.6 16.8,136.2 15.9,135.8 15.1,136.3 14.4,133.9 14.2,132.9 14.3,132.4 15.2,132.0 15.8,131.9 16.7,131.9 17.6,132.6 18.3,133.3 19.3,134.6 19.6,136.0 19.0,136.1 19.9,138.3 20.5,138.9 21.0,138.8 22.8,138.0 23.6,137.8 25.0,137.6 28.5,137.2 29.0,137.0 29.9,136.3 27.7,135.9 26.8,136.0 25.8,136.3 24.5,135.1 22.0,132.9 21.4,131.0 23.4,130.3 24.9,129.1 27.0,128.2 28.0,128.1 27.9,127.1 26.0,126.7 25.3,126.8 24.6,127.1 24.1,127.3 23.0,126.4 22.8,125.9 22.9,125.2 24.2,124.4 24.3,123.7 23.9,123.1 23.3,122.6 22.2,122.2 21.6,121.3 19.9,120.5 20.3,119.7 23.2,117.8 24.8,116.4 25.5,116.2 25.9,114.9 25.6,114.4 24.7,114.3 23.3,114.7 22.2,114.8 20.9,114.8 20.2,114.9 18.7,115.2 17.9,115.3 11.6,116.6 10.1,116.8 9.4,116.6 8.9,116.4 9.4,114.3 10.1,113.8 10.5,113.3 10.6,112.3 10.5,109.7 10.5,108.3 10.5,107.4 10.9,106.6 11.4,106.1 11.9,106.3 13.1,106.1 13.8,105.9 14.9,104.2 15.2,103.5 15.9,102.5 17.1,102.2 19.2,100.8 20.7,99.5 21.0,99.0 23.1,98.6 24.6,98.6 26.0,98.8 27.3,98.7 27.8,98.2 28.4,97.6 29.1,97.5 31.9,97.4 32.7,98.4 34.3,99.6 35.1,100.0 35.9,100.2 36.6,100.3 37.5,100.4 39.9,100.3 41.1,100.2 41.7,100.2 43.6,99.2 43.0,98.6 42.3,98.7 40.1,96.9 40.5,96.3 41.3,96.0 43.4,96.1 46.2,96.7 46.7,97.2 46.0,97.8 44.8,98.2 44.2,98.6 44.5,99.1 45.1,99.3 46.8,99.1 47.6,98.9 48.1,98.7 49.1,98.6 49.6,98.5 50.8,98.4 55.4,98.6 59.1,99.2 60.6,98.7 61.3,98.6 62.1,98.7 63.0,98.8 63.7,99.2 65.0,99.3 66.3,99.2 68.2,98.0 67.1,97.0 66.3,96.9 65.2,97.2 63.8,97.2 61.1,96.1 61.5,95.6 62.6,95.1 63.4,94.9 64.6,94.2 65.2,93.8 68.4,93.5 70.3,93.4 72.9,92.7 73.6,93.0 74.7,92.3 75.2,92.1 75.8,92.6 79.0,92.6 82.7,92.5 83.3,92.4 83.6,91.9 79.5,91.3 76.9,91.2 76.3,91.3 75.4,91.4 73.4,91.4 72.0,90.7 71.0,89.8 70.4,89.5 68.3,88.8 66.3,87.4 65.9,86.2 67.1,84.6 66.8,83.9 68.0,82.8 68.6,82.5 69.5,82.3 71.0,82.5 74.5,83.1 76.6,83.6 77.2,83.6 80.0,83.8 82.1,84.1 84.4,84.2 87.7,84.2 88.5,84.0 89.8,83.2 91.0,83.0 91.5,83.3 92.9,83.7 94.1,84.0 94.7,84.1 96.4,84.3 99.2,85.2 101.7,85.4 102.8,85.5 103.7,85.5 105.5,85.4 108.5,85.2 109.8,84.7 110.5,84.3 111.3,83.6 111.8,83.1 112.2,81.6 114.6,79.9 115.8,79.6 118.5,78.6 123.2,76.4 126.3,75.2 126.8,74.7 128.6,73.1 133.6,71.3 134.7,70.9 136.6,70.8 137.3,70.5 138.3,70.3 139.4,70.3 141.0,70.0 141.7,69.8 142.3,69.6 143.9,68.8 146.9,68.1 149.0,67.2 150.4,67.3 153.0,67.5 153.6,67.6 154.2,67.8 154.9,67.9 156.9,68.0 157.6,68.0 158.8,68.1 160.5,68.1 161.9,68.0 164.0,68.1 166.0,68.4 166.8,68.6 168.1,68.7 169.0,68.7 172.7,68.6 173.9,68.8 174.4,68.8 175.8,68.7 176.4,68.6 177.2,68.5 178.1,68.2 179.2,67.4 179.7,66.9 180.2,66.3 180.3,65.8 180.9,65.8 181.4,65.9 182.2,66.3 183.6,67.5 183.3,68.1 " />
    <polygon id="Turkey" points="38.5,95.2 37.5,94.9 37.0,93.9 38.4,93.5 39.4,93.5 40.5,93.7 41.0,93.9 38.9,95.0 " />
    <polygon id="Turkey" points="4.1,104.3 2.3,104.4 1.1,103.9 1.1,103.3 2.0,102.7 3.2,102.1 6.2,101.6 7.7,103.1 7.3,103.7 6.7,103.9 4.1,104.3 " />
    <polygon id="Turkey" points="9.0,110.4 7.9,110.1 7.2,109.8 7.7,109.3 8.4,109.3 9.0,109.3 9.1,110.3 " />
  </g>
</svg>