<?xml version="1.0" encoding="UTF-8" standalone="yes"?>
<!DOCTYPE svg PUBLIC "-//W3C//DTD SVG 1.0//EN" "http://www.w3.org/TR/2001/REC-SVG-20010904/DTD/svg10.dtd">
<svg height="250" width="370" xmlns="http://www.w3.org/2000/svg" xmlns:svg="http://www.w3.org/2000/svg" xmlns:xlink="http://www.w3.org/1999/xlink">


<g id="background">
<rect id="" width="370" height="250" fill="#222222"/>
</g>
  <g id="795" style="stroke-miterlimit: 3; fill: #F1F1F1; stroke: #000000; stroke-opacity: 1; stroke-width: 0.05; stroke-linejoin: bevel; stroke-linecap: square">
    <polygon id="Turkmenistan" points="165.8,29.6 166.6,30.3 167.6,31.0 170.3,32.6 170.9,32.8 172.2,33.0 172.8,33.1 173.3,33.0 174.0,32.9 174.8,32.5 175.4,32.6 177.0,33.6 177.7,34.2 178.3,35.0 178.3,35.5 178.2,36.2 178.4,37.0 178.9,37.7 182.6,38.9 183.4,39.1 184.2,39.1 185.3,39.1 185.8,39.0 187.7,38.7 190.7,38.3 193.8,38.5 195.2,38.9 197.9,41.0 198.2,42.5 198.3,45.9 201.1,49.0 201.5,49.7 202.2,50.3 203.9,51.1 204.6,51.8 204.6,52.4 204.0,52.6 203.2,52.3 202.6,52.0 201.5,51.8 200.7,51.8 200.2,52.1 199.4,52.9 199.4,53.5 201.1,55.6 201.6,56.2 202.4,57.1 202.2,57.6 201.6,57.8 200.8,58.1 200.2,58.6 199.9,59.2 199.6,60.9 199.6,61.5 199.9,62.0 201.2,62.8 201.9,63.1 202.6,63.4 203.3,63.6 204.2,63.8 206.0,64.5 206.6,64.8 207.5,65.3 208.2,65.9 208.7,66.4 209.2,66.7 209.8,66.9 210.8,67.0 211.4,67.0 213.0,66.7 214.6,66.3 215.2,66.1 215.9,66.0 218.6,66.0 221.8,66.2 222.4,66.2 223.0,66.6 223.6,67.2 224.1,66.7 225.8,66.5 227.0,66.6 227.5,67.0 228.0,67.6 229.8,68.3 230.6,68.5 231.2,68.5 231.9,68.3 232.8,67.8 233.3,67.3 233.8,65.9 234.0,65.1 234.6,64.8 235.3,64.9 239.4,65.7 240.1,66.0 242.7,67.4 246.3,69.4 248.0,71.4 248.6,72.2 249.1,73.3 249.2,74.1 249.2,74.7 249.1,75.8 249.5,76.9 250.6,79.9 252.5,82.9 253.2,84.0 254.4,85.6 255.1,86.2 256.1,86.3 256.7,86.5 258.1,87.2 258.6,87.5 259.9,91.5 260.2,93.0 260.7,95.2 260.4,95.8 260.4,96.4 261.0,97.8 263.9,100.4 264.7,101.0 268.4,103.1 270.1,103.9 270.8,104.3 272.4,105.2 273.0,105.6 274.4,106.6 275.5,107.4 276.5,107.9 278.0,108.6 278.9,109.1 280.7,110.0 282.8,111.0 284.4,111.7 288.0,113.7 288.8,114.2 290.1,115.2 291.0,116.1 292.3,117.4 293.6,118.9 296.7,120.7 298.7,121.7 301.1,122.9 302.5,123.8 303.6,124.6 305.0,125.3 306.0,125.9 306.6,126.0 307.4,125.8 308.4,125.4 309.3,125.1 310.2,124.9 310.9,125.3 311.5,125.9 312.0,126.5 312.7,127.2 313.6,128.0 317.9,130.9 318.8,131.4 320.9,132.3 322.3,132.8 324.3,133.4 325.0,133.6 325.8,133.8 326.9,134.3 327.6,134.7 330.3,136.4 331.5,137.4 332.7,138.3 334.2,139.4 335.1,140.0 335.8,140.4 342.2,143.7 343.0,144.1 343.8,144.4 344.6,144.5 345.6,144.8 346.1,144.8 347.0,144.8 347.6,144.7 348.3,144.1 348.8,143.8 349.4,143.6 349.9,143.4 350.8,143.4 355.0,144.4 355.7,144.7 360.3,146.7 360.8,147.3 361.4,148.1 362.2,148.6 364.5,149.6 365.1,149.7 366.2,149.6 367.0,149.6 367.6,149.6 368.3,149.8 369.1,150.1 369.6,150.3 370.3,150.6 370.8,151.2 370.9,152.0 370.7,152.6 370.0,153.3 368.0,155.3 367.6,156.2 367.0,162.9 366.9,166.3 367.2,166.9 366.5,167.5 365.7,168.2 365.2,168.4 364.4,167.8 362.8,167.9 362.0,168.2 361.4,168.3 360.8,168.1 358.4,167.0 356.3,165.7 353.7,164.9 347.6,162.7 345.9,162.7 345.3,163.1 344.9,163.8 344.3,164.8 344.3,165.4 344.4,166.0 344.4,166.6 344.4,167.3 342.4,169.7 341.9,170.0 341.3,170.2 339.7,170.3 338.9,170.3 337.9,170.2 336.9,170.2 329.9,170.3 329.4,170.3 328.7,170.6 323.5,172.8 322.9,173.1 322.3,173.4 321.8,174.2 321.7,174.8 321.9,176.0 322.1,176.5 322.3,177.5 322.3,178.0 322.3,178.5 321.7,179.4 320.9,180.6 320.1,181.8 319.6,182.7 318.6,184.1 318.2,184.6 317.9,185.2 317.6,186.1 317.4,187.0 317.4,187.7 317.9,188.7 318.0,189.9 317.8,190.7 317.5,191.7 317.2,192.4 316.6,193.1 315.2,194.8 314.6,195.4 313.8,196.0 313.2,196.4 312.6,196.3 310.7,196.7 305.9,198.3 304.0,199.5 301.2,201.7 299.8,201.7 298.6,201.9 296.5,203.0 295.8,203.2 293.7,203.4 292.6,203.5 292.0,203.5 291.5,203.5 290.8,203.8 290.0,204.7 289.3,205.2 284.4,206.4 283.8,206.5 283.2,206.5 282.6,206.5 281.8,206.4 280.9,206.3 278.9,206.2 278.2,206.9 279.6,208.8 280.3,211.2 279.2,211.6 278.4,212.0 278.0,212.7 278.1,214.2 278.7,214.6 278.4,216.6 278.0,217.3 277.4,217.5 276.8,217.5 276.3,217.5 275.2,217.8 273.5,218.7 272.8,219.1 272.1,219.7 271.3,220.3 268.6,221.9 266.1,222.8 263.9,222.6 263.3,222.1 262.8,221.5 262.0,221.2 261.5,221.2 260.6,221.8 259.6,222.8 258.9,223.5 258.5,224.1 257.9,224.7 256.7,223.6 256.5,222.1 253.8,220.0 253.0,219.1 251.4,217.8 250.8,217.3 250.3,217.0 249.4,216.8 248.8,216.7 244.8,217.8 244.2,218.0 239.0,217.1 237.4,216.2 236.6,215.4 235.3,214.4 234.7,214.3 233.5,212.3 231.4,212.3 230.7,212.9 230.1,212.2 229.6,211.6 229.5,211.1 229.6,210.5 230.3,207.5 229.8,205.7 229.0,204.3 228.8,200.9 229.2,199.9 229.3,199.0 229.3,198.2 228.3,195.2 227.7,191.9 228.5,188.1 227.9,186.3 225.4,185.8 221.8,185.8 218.2,185.8 214.9,185.9 214.2,185.9 210.6,185.9 207.0,185.9 206.2,185.6 201.6,180.0 201.2,179.5 200.3,178.3 199.9,177.6 199.4,176.8 198.3,175.7 197.7,175.4 192.7,173.4 190.1,172.9 185.7,171.3 184.0,170.6 181.8,168.3 181.6,167.8 181.3,166.4 181.2,165.6 181.2,164.6 181.4,164.1 180.6,162.9 179.9,162.6 179.4,162.7 178.6,163.1 178.0,163.3 176.8,162.8 175.0,161.7 173.7,160.8 172.9,160.3 171.0,159.7 170.0,159.3 166.7,159.0 166.2,159.5 164.4,159.8 163.4,159.8 162.8,159.7 158.5,159.8 157.9,160.0 156.1,160.0 151.9,159.2 151.4,158.9 151.4,158.2 150.8,156.3 150.1,156.0 138.0,152.6 135.5,152.6 133.3,152.6 131.4,152.3 129.4,151.3 128.8,151.1 129.1,149.2 129.3,148.5 125.9,143.7 125.1,143.4 124.5,143.3 123.8,143.5 123.2,144.3 121.5,145.5 120.9,145.7 118.0,145.2 116.1,144.8 115.5,144.7 114.3,144.2 113.7,143.8 113.2,143.2 111.6,143.8 108.6,144.1 107.8,143.8 105.8,143.9 105.1,143.9 104.3,144.2 103.6,144.7 102.1,145.7 101.8,146.2 102.5,146.7 102.6,147.6 102.3,148.4 99.3,148.8 98.0,148.2 96.4,148.4 95.7,148.6 94.9,148.7 93.5,148.8 92.9,148.8 90.3,148.3 89.4,148.0 88.5,147.5 87.4,147.5 86.9,147.5 85.5,147.8 85.0,147.9 82.0,148.1 79.8,148.3 79.1,148.5 78.3,148.9 77.8,149.4 77.1,149.8 73.5,151.2 72.2,151.6 71.4,151.8 70.8,152.1 69.4,153.1 69.0,153.6 68.6,154.1 66.4,155.8 65.5,156.3 64.7,156.5 63.8,156.9 63.2,157.3 62.6,158.2 61.9,159.8 62.0,160.4 62.6,161.5 62.5,162.1 62.0,163.2 61.2,163.8 59.3,165.2 58.6,165.3 57.9,165.2 57.4,165.1 56.7,164.9 55.9,165.1 54.9,165.5 54.1,165.9 52.6,166.7 51.9,167.0 50.8,167.3 46.8,168.1 39.1,167.6 38.8,164.5 38.2,162.9 37.9,162.1 37.3,159.0 36.9,156.6 36.5,154.2 36.4,153.2 36.5,152.6 36.6,150.4 36.6,149.8 37.0,148.4 37.2,147.6 37.7,145.6 37.9,144.7 38.2,141.4 37.8,140.6 37.5,139.9 37.2,138.6 37.1,138.0 37.0,137.5 37.0,136.6 37.3,135.5 37.7,133.7 38.2,132.8 39.7,130.7 41.1,127.2 40.7,126.3 38.2,124.0 36.4,123.6 35.6,123.9 34.2,123.2 32.2,121.5 31.3,118.8 30.6,116.4 29.6,116.0 27.1,116.4 26.5,116.4 25.9,116.4 23.9,116.1 23.4,115.9 22.1,115.4 21.5,115.3 19.8,115.7 20.1,117.1 20.3,119.2 20.1,120.3 19.5,119.5 18.7,115.8 18.7,113.4 20.9,109.7 21.3,109.0 22.2,107.9 23.2,107.4 22.6,108.2 21.7,109.3 20.8,110.9 21.5,111.3 23.4,111.0 24.5,110.8 25.2,110.7 25.9,110.7 26.9,110.9 27.5,111.3 27.9,112.1 28.9,112.5 30.2,112.7 34.4,111.5 32.3,108.9 28.9,107.7 27.1,107.7 27.2,108.3 26.6,108.0 26.2,107.4 26.3,104.6 28.2,101.8 28.9,101.6 29.5,101.5 30.5,99.7 26.8,98.6 25.9,98.7 25.1,98.9 24.5,99.5 23.5,100.1 22.8,100.3 17.1,99.7 15.3,99.4 13.9,98.9 13.3,99.5 13.5,101.2 14.3,102.1 14.8,102.6 16.2,104.3 16.7,105.3 15.9,105.1 13.3,102.4 13.0,101.7 11.0,99.2 10.3,98.8 9.6,98.3 8.8,97.5 8.7,93.5 7.5,91.6 8.3,87.1 8.7,85.8 9.8,84.0 10.6,83.3 11.2,82.7 12.0,81.6 12.1,80.8 11.6,80.5 11.0,80.2 11.3,79.4 12.1,78.0 12.9,75.4 13.4,72.3 13.3,71.7 13.4,70.6 14.4,71.1 16.2,74.4 16.5,75.6 17.2,77.0 18.3,78.7 19.3,78.9 22.0,78.9 23.8,78.8 25.6,78.7 26.2,79.1 27.3,79.7 27.9,79.7 28.6,79.5 29.4,79.1 30.0,78.8 30.2,77.9 30.0,77.2 30.0,76.6 30.7,75.5 31.9,75.8 32.6,76.4 32.7,77.6 32.6,78.3 33.9,82.1 34.6,82.6 37.9,82.4 42.4,81.7 43.2,81.4 43.8,81.1 44.0,80.1 46.5,79.8 47.4,79.8 47.3,80.5 48.6,81.3 49.2,81.3 50.6,81.2 52.4,80.4 51.2,79.9 49.6,79.1 48.0,76.0 49.5,74.7 50.2,74.6 53.8,76.2 54.0,77.9 56.0,77.5 57.4,77.1 59.8,76.0 60.9,74.8 61.3,73.7 60.6,70.0 54.9,66.3 54.3,66.0 53.2,65.3 52.5,65.1 51.8,64.8 50.9,64.5 50.3,64.4 49.4,64.0 43.6,60.4 42.7,59.2 42.4,58.3 42.1,57.2 42.2,55.5 42.2,54.2 41.4,52.1 40.4,50.6 39.9,50.0 39.4,46.7 39.3,45.7 39.0,45.1 37.9,44.1 36.8,43.6 35.6,43.3 32.9,43.0 32.0,43.0 27.9,43.9 23.4,44.8 22.9,44.9 21.5,44.6 20.7,44.4 19.6,44.2 18.3,44.7 14.7,46.9 14.2,47.4 11.4,52.5 10.8,54.6 12.2,54.5 13.4,55.2 13.1,57.6 12.3,59.4 11.8,60.6 11.3,61.4 11.0,62.1 11.3,64.2 11.7,66.3 12.2,67.4 12.6,67.9 13.2,69.6 13.1,70.2 12.6,71.4 11.9,71.1 11.6,70.3 11.7,69.7 11.3,68.1 11.2,67.4 10.3,65.2 9.4,63.0 8.2,61.7 7.6,61.2 6.1,60.4 4.9,59.8 4.3,59.5 4.2,58.7 4.7,57.9 4.9,57.4 5.0,56.2 4.3,55.1 2.1,53.9 1.0,53.4 2.3,52.4 10.5,46.3 13.4,44.3 14.2,43.9 15.5,43.3 23.8,40.6 24.4,40.4 25.9,40.0 26.9,39.8 27.6,39.6 29.6,39.4 31.1,39.3 32.2,39.2 32.8,39.2 35.6,38.7 38.2,38.3 38.9,38.2 39.7,37.9 41.4,37.6 42.0,37.6 43.0,37.6 46.1,37.9 46.7,38.1 47.4,38.3 48.0,38.6 49.7,39.7 56.3,42.7 60.6,44.8 61.3,45.2 65.8,48.5 66.4,49.0 66.7,49.6 66.5,50.2 66.4,51.1 66.8,51.8 67.6,52.6 68.6,53.5 70.7,55.6 71.4,56.5 72.6,58.1 73.1,58.7 73.5,59.6 73.9,60.1 75.1,61.3 75.8,61.7 76.6,62.0 77.7,62.5 78.2,63.2 78.4,63.7 78.8,64.5 79.2,65.1 81.1,65.8 84.5,65.8 88.3,65.2 89.2,64.9 90.0,64.4 90.6,64.1 91.8,64.0 93.6,64.2 99.1,64.5 102.9,64.7 107.2,65.0 110.3,65.2 110.9,65.2 111.7,65.2 112.9,65.1 114.3,64.9 115.1,64.9 116.4,65.2 117.3,65.5 118.4,65.7 120.4,66.0 121.0,65.8 123.0,63.7 122.7,62.6 122.0,62.3 121.2,61.3 120.7,60.6 119.0,55.0 118.7,50.5 119.0,49.7 119.6,49.2 120.2,49.0 121.1,48.9 122.0,48.6 122.7,48.2 123.2,47.7 123.8,47.1 124.4,46.0 125.0,45.1 125.9,44.2 126.8,43.6 128.0,43.1 128.7,42.8 129.6,42.5 130.4,42.3 131.1,42.2 131.9,42.1 132.5,42.2 133.1,42.3 134.6,42.5 135.5,42.7 136.8,42.7 141.3,41.8 142.2,41.2 143.2,39.8 144.3,37.8 144.6,37.2 144.2,36.3 144.1,35.1 146.0,33.8 146.9,33.5 147.5,33.5 148.2,33.6 152.1,34.4 152.9,34.7 154.0,35.1 155.0,35.5 155.9,36.1 156.3,36.7 156.4,37.2 156.1,38.5 156.3,39.0 157.0,39.0 158.5,39.0 159.0,38.7 154.5,33.1 153.7,32.4 153.0,32.0 152.2,31.8 151.5,31.7 150.7,31.4 149.8,31.1 149.3,30.6 149.4,30.0 152.3,28.7 153.2,28.6 154.2,28.8 155.1,29.2 155.9,29.4 156.5,29.5 157.5,29.6 159.1,29.6 159.8,29.6 160.4,29.3 160.7,28.6 160.8,27.9 160.9,27.1 161.0,26.5 161.4,26.0 164.5,28.4 165.5,29.3 " />
    <polygon id="Turkmenistan" points="17.4,127.3 18.2,131.2 17.6,129.9 17.2,129.0 16.1,124.5 16.2,123.9 16.3,123.4 16.6,122.7 17.2,122.3 17.8,122.4 17.1,122.9 16.9,123.7 16.9,124.3 17.4,127.3 " />
  </g>
</svg>