<?xml version="1.0" encoding="UTF-8" standalone="yes"?>
<!DOCTYPE svg PUBLIC "-//W3C//DTD SVG 1.0//EN" "http://www.w3.org/TR/2001/REC-SVG-20010904/DTD/svg10.dtd">
<svg height="250" width="370" xmlns="http://www.w3.org/2000/svg" xmlns:svg="http://www.w3.org/2000/svg" xmlns:xlink="http://www.w3.org/1999/xlink">


<g id="background">
<rect id="" width="370" height="250" fill="#222222"/>
</g>
  <g id="8" style="stroke-miterlimit: 3; fill: #F1F1F1; stroke: #000000; stroke-opacity: 1; stroke-width: 0.05; stroke-linejoin: bevel; stroke-linecap: square">
    <polygon id="Albania" points="124.7,136.0 125.9,132.7 131.1,116.8 130.9,115.0 130.4,113.9 129.4,112.8 128.6,112.2 127.3,112.0 126.1,112.0 125.3,104.0 131.7,90.5 135.5,89.2 137.0,87.5 137.2,84.8 135.9,80.9 136.6,80.3 137.0,79.8 138.1,73.8 138.3,72.4 138.4,71.7 138.3,71.1 138.0,70.5 132.1,68.5 129.1,67.3 127.5,66.9 125.8,66.5 124.4,66.3 123.5,66.3 122.7,66.4 119.1,67.4 117.0,62.1 117.3,58.5 119.5,49.3 119.9,48.3 120.4,47.9 121.6,46.4 121.6,45.9 120.6,45.1 119.3,44.2 116.1,42.2 113.5,40.7 112.2,39.7 112.4,38.9 131.7,17.7 138.8,10.1 139.3,9.3 139.2,8.4 139.0,7.8 139.6,6.6 141.1,4.9 142.1,3.6 143.0,2.8 147.3,0.3 148.5,0.0 151.0,1.6 152.6,5.3 152.6,6.0 152.1,6.3 151.6,6.3 150.9,6.5 150.5,9.5 152.0,13.0 152.7,13.6 154.1,14.6 155.0,15.1 156.7,15.7 164.8,12.4 166.1,11.9 175.5,8.3 176.2,8.1 176.8,8.2 177.4,8.4 179.5,10.4 180.3,10.9 184.5,12.3 185.4,12.8 189.7,18.9 190.0,19.8 191.5,24.3 191.2,25.3 191.6,27.3 192.3,28.0 200.9,29.0 203.5,29.6 208.8,31.8 209.4,32.1 210.4,32.9 213.6,35.8 214.9,37.1 220.8,51.2 223.1,57.6 223.0,58.6 222.6,59.7 222.1,60.0 220.8,60.5 220.2,60.9 219.6,61.6 219.6,62.6 220.3,64.6 218.6,65.2 215.7,73.3 214.5,75.4 214.3,76.1 214.1,77.4 215.7,85.1 210.1,91.7 209.4,94.1 209.5,94.7 210.4,96.2 213.6,99.6 218.0,103.6 218.0,104.2 217.0,106.8 214.9,108.7 213.1,108.9 212.6,109.3 212.3,110.3 212.5,111.1 213.1,112.5 214.5,117.3 219.4,124.2 221.2,130.0 225.7,130.2 227.0,130.4 232.3,145.0 233.0,145.3 233.9,145.6 237.9,146.0 238.7,145.9 239.5,145.3 240.2,144.3 241.1,143.3 241.7,143.0 249.7,144.4 250.8,144.8 251.7,145.3 252.9,146.4 252.9,149.6 253.0,154.9 256.0,161.3 256.7,161.9 257.3,162.7 258.2,163.7 258.6,164.5 258.8,165.7 258.8,169.0 257.9,173.7 250.3,181.5 249.8,181.9 249.1,182.1 247.6,182.3 246.9,182.0 240.5,182.3 237.1,184.8 236.7,187.9 234.3,194.7 232.8,194.9 232.2,195.3 230.7,197.2 230.4,197.9 230.3,198.6 230.7,199.4 231.2,200.1 231.2,201.7 227.3,212.2 226.6,212.8 225.9,213.0 222.9,213.5 221.6,214.3 219.8,214.7 217.5,215.1 211.4,215.2 209.7,214.4 208.7,214.6 207.8,214.9 206.4,215.8 197.6,221.1 199.3,226.8 202.1,229.6 205.3,233.1 205.9,234.1 205.8,235.1 205.6,235.8 205.2,236.8 203.4,238.1 202.6,238.2 196.8,236.1 195.9,236.4 196.1,239.5 197.8,242.1 198.0,242.6 197.8,243.3 189.8,249.7 188.0,250.0 185.3,249.5 183.2,249.1 180.2,248.0 179.6,247.6 179.0,247.0 174.1,245.7 173.2,245.6 172.6,245.9 171.0,246.5 170.4,246.4 170.0,245.7 170.1,240.0 170.4,231.6 166.3,225.7 160.3,217.5 159.0,216.5 158.3,216.3 157.0,216.0 152.0,214.6 151.3,214.0 150.7,213.1 149.1,212.0 139.7,208.2 130.9,204.5 129.7,203.9 127.0,202.5 126.1,201.9 125.4,201.3 121.8,197.4 112.5,186.0 112.7,185.5 115.0,184.2 116.7,184.7 120.6,188.0 121.5,188.8 121.8,189.4 122.2,190.5 122.2,191.1 122.4,192.0 123.0,193.2 123.7,193.5 124.5,193.6 125.7,193.4 126.5,193.0 127.6,192.2 128.2,191.5 128.4,190.8 129.0,184.4 126.4,174.1 123.4,172.8 121.4,172.4 116.6,169.3 114.0,167.1 117.5,163.6 118.2,162.8 122.2,152.6 122.8,148.8 126.1,147.3 127.0,147.5 127.7,147.4 128.3,147.1 131.8,145.3 132.0,143.6 132.0,143.0 130.9,140.2 126.8,137.1 124.7,136.0 " />
  </g>
</svg>