<?xml version="1.0" encoding="UTF-8" standalone="yes"?>
<!DOCTYPE svg PUBLIC "-//W3C//DTD SVG 1.0//EN" "http://www.w3.org/TR/2001/REC-SVG-20010904/DTD/svg10.dtd">
<svg height="250" width="370" xmlns="http://www.w3.org/2000/svg" xmlns:svg="http://www.w3.org/2000/svg" xmlns:xlink="http://www.w3.org/1999/xlink">


<g id="background">
<rect id="" width="370" height="250" fill="#222222"/>
</g>
  <g id="800" style="stroke-miterlimit: 3; fill: #F1F1F1; stroke: #000000; stroke-opacity: 1; stroke-width: 0.05; stroke-linejoin: bevel; stroke-linecap: square">
    <polygon id="Uganda" points="260.2,0.0 261.2,0.5 261.7,0.8 262.2,1.2 263.1,2.2 264.2,5.5 265.9,11.5 265.9,12.2 268.4,16.8 270.0,19.5 276.1,21.3 277.0,21.5 280.5,24.0 280.7,25.3 280.7,26.7 280.4,30.1 280.1,31.1 279.5,31.7 278.2,32.1 277.9,32.7 278.0,36.6 280.2,42.9 282.5,47.2 284.0,47.8 284.8,48.8 285.3,49.8 285.9,53.3 286.2,56.1 286.5,56.7 289.2,59.6 289.9,59.8 290.5,59.5 291.5,59.0 293.2,60.0 294.5,62.5 294.7,63.2 294.9,66.3 294.9,67.2 295.2,67.8 297.1,71.0 297.5,71.6 300.2,74.6 299.0,79.4 298.9,80.4 299.2,81.8 300.6,85.3 301.6,87.7 303.9,93.8 304.6,102.1 304.2,111.9 302.6,115.3 302.1,116.0 301.5,116.5 300.7,116.7 300.0,116.9 299.2,117.9 298.7,119.1 298.2,121.0 298.2,121.5 298.0,122.2 297.7,122.8 295.2,123.9 295.5,126.6 296.2,127.4 296.6,128.2 296.7,128.7 296.7,129.3 296.7,129.8 296.6,130.3 296.4,131.0 295.5,131.6 293.8,131.9 292.7,132.0 291.3,132.0 290.6,132.3 286.9,134.4 286.3,135.0 285.5,137.3 283.4,136.4 282.9,137.1 282.5,137.6 281.8,139.3 281.5,140.2 281.5,140.7 281.5,141.5 281.6,142.4 281.2,143.5 279.7,147.0 278.3,149.2 272.5,156.4 271.9,157.0 271.2,157.2 269.9,157.4 268.0,158.2 267.4,158.5 265.0,168.2 262.7,172.0 259.5,176.2 256.2,180.7 256.5,181.6 256.9,183.1 257.5,185.2 258.1,187.4 258.8,189.7 259.3,191.1 258.3,196.9 258.1,197.5 256.7,205.1 256.9,227.1 256.8,229.2 236.6,229.1 235.7,229.1 234.2,229.1 229.4,229.1 224.6,229.1 221.3,229.1 216.5,229.1 211.6,229.1 205.1,229.1 202.6,229.1 199.6,229.1 193.9,229.1 158.4,229.1 152.7,229.1 141.6,229.1 140.6,229.0 131.3,229.0 123.8,229.0 118.2,229.0 115.7,229.6 114.9,230.1 110.9,232.0 106.0,231.9 105.3,231.6 104.3,231.5 100.8,231.7 98.7,235.4 97.9,237.2 97.4,238.2 94.9,240.8 92.4,242.9 89.6,245.2 84.1,249.3 82.0,250.0 81.3,249.9 80.8,249.5 80.0,248.1 79.7,247.2 79.7,246.6 79.8,246.1 79.8,245.5 78.5,243.5 77.9,243.2 77.3,243.1 72.7,244.2 71.9,244.7 71.3,245.6 70.4,245.9 69.1,246.1 68.5,246.1 67.6,246.1 67.5,243.6 67.6,242.8 67.3,238.7 67.0,238.1 66.4,237.8 66.0,237.3 66.0,236.7 66.2,225.7 66.3,224.7 66.9,224.4 67.5,224.4 68.1,224.4 68.8,220.1 68.7,219.2 68.2,218.2 68.1,217.4 68.8,213.4 70.2,210.7 69.6,206.2 69.4,204.5 70.4,198.6 71.1,194.1 72.1,188.5 73.1,185.8 73.2,185.2 73.1,184.5 72.4,183.4 72.3,182.9 72.4,182.1 73.1,180.7 74.9,177.7 75.5,177.7 76.2,178.2 76.8,177.9 77.8,173.1 78.6,169.2 81.0,166.4 83.0,164.2 83.1,161.5 82.4,160.4 82.2,158.3 82.1,157.4 82.4,151.1 82.6,150.3 82.8,149.7 83.1,149.0 83.5,148.5 84.2,148.1 85.5,147.2 86.4,146.9 88.6,146.1 89.9,145.8 90.6,146.1 91.2,145.8 91.9,145.0 94.3,141.7 94.6,139.8 94.3,139.1 94.2,138.4 95.0,135.9 96.6,134.2 101.1,132.7 103.6,132.6 104.1,132.5 104.8,132.0 105.9,130.9 108.9,127.3 114.3,120.6 115.0,119.7 115.5,119.3 122.0,114.2 130.3,107.8 137.9,98.1 142.0,92.2 141.8,90.4 137.6,87.5 131.7,83.2 128.8,80.1 128.1,79.6 127.4,79.4 126.8,79.4 126.2,79.7 125.8,80.5 125.5,81.7 125.1,82.5 124.5,82.8 123.9,82.8 123.2,82.6 116.8,77.9 116.9,77.0 116.9,76.5 117.9,71.2 119.3,67.9 120.7,65.1 121.9,63.2 123.2,61.0 123.4,60.2 123.4,58.9 123.3,58.1 122.4,55.5 122.0,54.9 120.5,53.2 119.9,52.9 118.8,52.5 118.3,51.5 118.3,50.7 119.1,47.9 121.2,43.1 122.5,41.0 123.6,39.4 125.7,36.0 125.9,35.3 125.5,31.5 125.1,30.7 124.4,30.6 122.5,32.0 122.6,31.4 122.9,30.8 123.9,28.8 126.7,24.2 127.6,23.3 136.4,18.8 137.6,18.7 141.2,18.8 145.2,20.9 148.9,23.0 152.4,25.0 159.5,22.4 161.5,20.2 163.1,18.5 163.5,17.8 164.7,18.2 166.0,19.1 169.2,22.8 169.6,23.5 170.2,26.4 170.4,27.6 173.7,27.7 175.6,28.1 175.8,28.8 176.1,29.4 176.4,30.0 177.1,30.5 177.8,30.6 178.5,30.8 181.0,31.2 181.4,28.4 181.3,27.5 181.1,26.8 190.3,21.0 193.6,20.9 200.4,20.7 201.9,20.6 204.1,20.5 207.7,19.4 210.9,18.4 212.0,18.0 213.7,16.9 215.5,15.8 217.2,14.7 222.0,18.2 224.5,20.0 227.2,20.1 233.4,20.4 238.9,20.6 239.7,20.1 260.2,0.0 " />
  </g>
</svg>