<?xml version="1.0" encoding="UTF-8" standalone="yes"?>
<!DOCTYPE svg PUBLIC "-//W3C//DTD SVG 1.0//EN" "http://www.w3.org/TR/2001/REC-SVG-20010904/DTD/svg10.dtd">
<svg height="250" width="370" xmlns="http://www.w3.org/2000/svg" xmlns:svg="http://www.w3.org/2000/svg" xmlns:xlink="http://www.w3.org/1999/xlink">


<g id="background">
<rect id="" width="370" height="250" fill="#222222"/>
</g>
  <g id="804" style="stroke-miterlimit: 3; fill: #F1F1F1; stroke: #000000; stroke-opacity: 1; stroke-width: 0.05; stroke-linejoin: bevel; stroke-linecap: square">
    <polygon id="Ukraine" points="231.2,44.3 233.2,44.9 235.0,44.8 235.5,44.6 236.6,44.3 238.1,44.0 239.4,44.1 244.3,47.5 245.2,48.5 244.8,49.0 244.7,50.4 245.0,51.0 245.8,51.9 248.1,53.4 250.0,54.5 251.1,54.8 251.8,55.5 252.2,56.4 252.2,56.9 251.5,57.4 251.0,57.5 248.4,57.7 247.2,57.8 245.5,58.1 245.2,58.7 246.5,59.5 247.9,60.8 248.2,61.5 248.1,63.2 251.0,66.7 251.5,66.7 254.5,67.3 256.9,68.4 257.7,68.5 258.3,68.6 258.9,68.6 259.6,68.6 260.1,68.5 262.0,68.1 262.6,67.6 263.2,67.5 265.2,67.6 266.0,67.8 266.3,68.3 266.2,69.0 266.7,70.5 267.5,71.1 268.3,71.1 269.5,70.9 271.1,71.1 271.3,71.8 270.8,72.0 270.1,72.5 270.9,73.4 273.1,76.8 273.7,78.7 272.3,79.2 271.8,79.5 272.7,82.1 275.8,84.9 276.9,85.4 277.6,85.5 278.9,84.8 280.5,84.0 281.1,83.8 282.0,83.7 282.7,83.7 283.8,83.6 284.4,83.6 285.4,83.7 286.1,83.8 287.1,83.9 288.0,84.4 288.4,85.1 289.8,86.5 290.4,86.8 291.0,86.9 291.6,86.7 292.8,86.2 294.0,86.5 295.6,86.9 295.5,87.5 295.8,88.1 296.5,88.3 297.4,88.3 297.9,87.7 298.6,87.2 300.8,86.2 302.4,85.7 304.2,85.5 304.9,85.5 305.7,85.7 307.4,85.5 309.2,85.1 309.9,84.8 310.7,84.2 311.2,83.9 313.3,83.7 314.2,83.6 318.1,88.9 319.8,90.8 321.0,91.2 321.6,91.4 323.6,92.0 324.8,93.1 325.5,94.0 325.8,94.6 327.4,93.9 329.0,91.4 331.5,91.1 332.0,91.3 332.5,92.1 332.7,92.7 333.3,93.0 335.4,93.6 336.5,93.6 337.2,93.4 337.9,93.4 338.7,93.5 339.4,94.0 342.2,95.1 343.0,95.2 343.7,95.4 344.2,96.0 344.7,96.6 345.4,96.6 347.0,96.4 347.5,96.2 348.3,95.6 349.6,95.1 350.1,95.4 350.7,96.6 350.8,97.2 351.4,97.7 352.5,98.0 353.1,98.1 353.8,98.0 354.3,97.8 355.1,97.6 357.7,98.2 358.4,99.4 358.6,100.1 359.1,100.6 362.1,101.8 362.7,101.9 363.4,101.8 364.2,101.7 365.1,101.4 365.7,100.9 366.4,100.6 367.2,100.5 367.7,100.6 369.2,100.8 369.4,101.4 368.4,102.0 367.8,102.4 367.5,103.0 367.4,103.5 368.1,104.4 369.2,105.4 369.8,105.9 370.0,106.5 369.8,107.9 368.0,109.4 367.4,109.6 366.5,110.0 365.6,110.6 365.1,111.2 365.2,111.8 364.5,112.1 362.7,112.1 360.3,112.4 360.1,112.9 360.0,113.6 361.5,115.1 365.3,115.9 366.6,115.4 367.2,115.3 367.8,115.5 367.8,116.2 367.1,116.9 363.5,116.9 362.9,116.8 362.3,116.9 360.7,118.0 360.2,118.9 359.3,121.0 359.5,121.6 360.8,121.7 361.4,121.7 362.2,121.7 363.1,122.1 363.6,123.3 364.7,126.1 366.3,127.6 365.3,129.2 364.6,129.6 361.7,133.1 362.4,133.8 362.6,134.3 362.3,136.2 361.8,136.9 361.0,137.4 360.0,137.3 359.0,137.1 358.3,137.0 355.6,137.0 354.7,137.1 354.1,137.1 353.6,136.8 352.9,136.7 351.2,136.7 349.7,136.9 348.8,137.1 348.1,137.0 346.6,136.4 344.2,136.4 343.7,136.4 343.2,136.4 342.5,136.7 341.5,138.2 341.1,139.3 341.0,139.9 337.9,141.1 337.1,141.2 336.3,141.3 335.6,141.3 334.7,141.3 332.8,141.6 332.2,141.9 331.5,142.7 331.0,143.8 329.8,147.2 331.4,148.0 330.5,149.5 329.8,150.0 329.9,151.6 328.1,153.0 326.8,152.3 323.1,152.2 322.4,152.2 321.2,152.5 320.6,152.7 320.0,152.8 318.0,152.7 317.2,152.5 316.5,152.4 315.9,152.5 314.2,154.0 312.8,155.3 311.4,156.4 310.1,155.6 309.0,155.7 306.3,156.6 305.6,156.8 304.6,157.1 303.1,157.7 302.2,158.4 299.9,159.3 299.3,159.0 298.7,158.9 296.8,158.8 294.9,159.2 292.8,159.9 291.9,160.2 289.2,161.8 288.7,161.2 288.1,161.0 285.6,161.0 282.3,161.4 280.5,162.0 279.5,162.5 278.7,162.9 278.0,163.6 277.1,164.4 276.6,164.7 275.7,165.0 275.1,165.2 274.5,165.4 273.8,165.5 270.9,167.9 269.5,169.5 267.9,171.4 267.3,171.9 266.2,172.4 263.9,173.2 263.4,173.2 264.6,171.9 265.9,171.5 266.6,171.4 267.4,171.3 267.9,170.9 268.8,169.9 269.2,169.4 270.5,168.2 270.8,167.7 267.8,165.6 268.1,166.2 267.8,166.9 266.2,168.6 264.9,169.4 264.3,169.6 259.8,171.0 257.6,171.1 256.1,172.7 256.1,173.2 255.2,174.6 254.7,175.0 254.2,175.1 253.5,175.0 251.7,174.7 252.2,172.8 253.0,172.5 253.6,172.4 254.1,172.9 254.7,172.7 255.0,171.7 254.5,171.0 254.0,171.0 253.0,171.4 252.5,171.6 249.9,171.2 248.1,170.1 247.4,169.4 246.8,169.0 246.3,169.0 245.8,170.5 245.6,171.3 246.0,172.2 243.9,172.0 243.1,171.3 242.7,170.7 238.6,169.6 236.6,170.2 237.1,171.3 237.7,171.8 238.6,172.3 239.1,171.7 239.1,171.2 240.0,171.4 240.8,173.2 241.1,173.9 242.3,174.4 242.9,174.2 243.1,173.3 242.3,173.2 242.4,172.7 243.0,172.7 243.6,172.9 245.5,174.4 245.6,175.2 246.0,175.9 246.7,176.0 247.2,175.8 247.3,175.3 247.2,174.8 247.8,174.6 247.1,174.3 250.3,174.3 251.0,174.9 251.6,175.6 251.5,176.2 251.0,176.3 250.5,177.0 253.2,177.3 254.8,176.5 254.8,176.0 254.3,175.5 255.8,175.8 256.3,176.1 255.8,177.0 254.4,178.0 252.7,179.3 256.5,179.1 259.3,180.6 261.9,181.7 263.4,182.3 265.1,183.9 265.5,184.6 265.7,185.6 264.8,186.3 264.1,186.4 264.8,187.7 266.0,188.5 266.8,188.4 267.4,188.3 270.6,189.4 270.7,188.4 268.5,186.2 266.7,184.4 265.6,183.4 264.9,182.8 263.7,181.5 263.3,180.9 262.9,180.1 261.7,178.6 260.9,177.5 260.6,176.8 258.8,174.4 257.9,174.1 256.8,173.1 258.2,172.5 259.6,172.9 260.1,173.3 260.7,174.7 260.9,175.5 261.7,177.1 262.5,178.4 263.3,179.8 264.8,181.8 265.3,182.3 268.8,186.1 270.1,187.4 271.1,188.1 273.0,189.1 273.7,189.3 274.9,189.2 277.8,188.6 281.4,187.0 282.8,187.7 283.5,187.8 284.2,187.9 284.9,187.6 285.4,187.0 285.7,186.5 286.7,186.0 287.3,185.8 290.2,185.7 294.2,186.2 296.5,186.6 297.3,187.5 297.3,188.0 296.7,188.5 296.1,188.5 295.5,188.3 294.6,188.2 293.1,189.6 292.6,191.2 292.5,191.9 292.7,192.5 293.2,193.2 293.6,193.7 289.0,195.1 287.1,194.9 284.4,195.0 283.8,195.4 281.3,195.5 280.7,195.3 280.2,194.6 278.8,193.7 277.6,193.2 276.9,193.0 275.9,192.8 275.1,192.8 274.4,192.8 272.5,193.7 271.9,194.3 268.8,196.2 266.8,197.5 266.2,198.2 266.0,198.8 265.6,199.4 264.9,199.6 264.4,199.3 263.8,198.7 263.0,198.6 258.2,199.1 253.8,200.5 252.8,200.9 252.1,201.4 251.4,202.4 250.9,203.0 250.6,203.6 250.1,204.4 246.0,206.8 243.4,207.7 242.3,208.0 241.7,208.0 240.1,207.6 239.6,207.6 238.8,207.9 237.5,207.8 235.5,206.5 234.8,205.8 234.0,205.8 233.4,205.8 232.2,205.3 230.7,204.4 230.2,203.9 232.2,203.4 234.0,203.0 233.7,202.0 233.3,199.8 233.7,198.8 234.3,198.4 234.8,198.3 235.4,197.1 235.3,196.2 234.4,193.6 233.9,193.1 233.2,192.6 231.4,191.7 230.7,191.4 230.2,191.5 229.6,191.7 228.5,192.1 227.9,192.0 226.3,191.4 225.7,191.0 224.3,189.9 222.9,189.0 221.4,188.2 220.0,187.9 219.3,187.9 217.4,187.9 216.8,188.1 216.1,188.4 215.6,188.9 214.0,188.7 212.6,188.3 212.0,187.2 212.2,186.7 212.8,186.0 213.9,185.4 215.1,184.8 219.3,182.8 220.6,182.1 221.1,181.8 223.1,181.1 226.4,180.1 227.4,180.0 228.0,179.9 228.9,179.6 230.0,179.1 230.6,178.7 231.2,178.2 232.5,177.9 234.3,177.6 235.4,177.2 238.4,176.4 238.0,175.9 236.5,175.6 235.9,175.3 235.5,174.8 235.5,173.4 235.4,172.2 235.1,171.6 233.5,172.3 233.1,173.0 232.4,173.6 231.6,173.8 230.6,173.2 229.1,172.2 228.2,171.8 226.6,171.4 225.3,172.0 220.8,172.4 219.5,172.3 218.9,172.1 218.0,172.1 217.4,172.1 215.1,172.5 214.1,172.8 213.4,173.0 212.6,173.2 210.5,172.9 209.1,172.5 207.6,172.2 207.1,171.2 202.7,169.5 200.5,168.9 199.9,168.9 198.7,169.1 198.1,169.0 197.4,168.5 198.2,167.8 198.9,167.7 199.6,167.7 200.4,167.8 201.0,167.7 201.8,167.5 203.3,166.9 203.1,166.3 202.4,165.7 201.4,165.4 198.4,164.8 197.6,164.6 196.3,164.6 195.1,165.1 194.0,164.4 192.5,163.4 192.0,162.8 192.5,163.1 193.2,163.5 193.9,163.6 195.2,163.6 195.8,163.4 196.7,163.4 197.3,163.4 198.8,163.9 200.0,164.1 204.0,164.3 205.8,164.7 207.8,165.1 208.7,165.3 209.4,165.3 210.7,164.8 210.5,164.2 210.8,163.7 211.3,163.4 212.2,162.9 213.4,162.5 214.2,162.4 214.8,162.1 215.4,161.6 212.8,162.2 211.5,162.7 210.8,163.1 209.8,163.3 209.2,163.3 208.6,163.3 208.0,163.0 207.4,162.5 205.9,162.8 205.2,163.2 202.5,161.8 201.9,161.2 201.5,160.5 201.4,159.8 200.8,159.1 200.8,158.5 201.1,157.8 201.6,157.5 202.0,156.9 202.3,156.2 202.3,155.7 201.7,154.1 198.8,150.5 197.1,149.1 196.5,149.3 196.9,150.0 197.8,150.2 198.4,150.6 199.5,152.4 199.0,153.3 198.8,153.9 200.1,155.7 200.7,155.9 201.4,155.6 201.4,156.5 201.1,157.0 199.9,157.6 199.4,158.2 199.4,158.8 199.9,159.2 200.3,159.8 200.3,161.2 199.2,161.8 198.3,162.1 196.8,161.9 196.2,161.6 195.0,161.3 194.4,161.4 193.8,161.7 193.6,162.2 191.5,161.8 191.5,161.3 192.1,161.0 192.9,160.0 193.9,158.5 192.3,159.5 191.9,160.1 191.3,161.0 190.3,161.9 188.7,162.4 187.1,162.3 186.6,162.2 185.5,161.9 184.8,161.9 183.1,162.1 181.9,162.3 180.4,162.8 178.2,163.5 177.1,164.9 177.4,165.5 176.8,166.9 174.6,169.4 171.5,172.8 166.2,177.3 164.4,178.2 162.4,178.8 161.9,178.4 161.1,178.0 160.5,178.0 159.6,178.5 157.1,180.1 156.9,180.6 157.5,181.2 158.1,181.3 157.4,182.0 156.6,182.3 155.9,182.5 154.5,181.0 154.4,180.2 154.6,179.6 154.6,178.8 153.7,178.4 152.8,181.1 152.7,183.8 153.3,185.2 154.4,185.7 155.5,185.6 156.0,186.0 156.2,188.6 155.6,190.6 155.1,190.9 154.3,191.0 154.3,189.8 154.2,189.1 154.0,188.5 152.9,187.5 152.3,187.2 151.2,186.9 149.0,186.3 147.2,186.2 145.2,186.5 139.9,188.7 137.4,189.1 136.4,190.3 134.5,190.7 131.8,190.3 127.7,189.1 127.1,188.8 126.5,188.3 126.1,187.7 125.9,187.1 125.9,186.6 124.7,186.0 124.7,185.3 125.2,184.7 125.7,184.5 126.5,184.4 127.1,184.5 128.1,184.7 129.8,184.9 130.4,184.8 130.9,184.3 130.9,182.1 130.1,181.7 130.8,180.7 132.0,179.6 133.5,179.4 134.0,179.3 135.7,177.9 135.8,177.3 135.5,176.5 135.4,175.9 135.9,175.4 136.5,175.3 137.1,175.2 138.4,174.9 139.6,174.7 141.4,170.8 141.1,170.3 139.5,168.8 139.2,166.1 139.9,165.2 140.4,164.9 141.3,164.6 144.1,163.7 144.7,163.6 145.2,164.2 145.2,164.8 145.2,166.2 144.8,166.8 145.3,167.2 146.8,166.5 146.8,166.0 147.8,165.1 150.4,164.6 150.9,164.7 150.7,165.4 152.8,167.0 153.4,167.2 154.1,166.9 155.6,165.7 157.5,167.2 158.3,167.6 159.3,167.0 160.4,166.9 161.0,167.0 162.1,167.0 163.0,166.9 163.6,166.7 163.8,166.2 163.2,165.9 162.4,165.8 161.8,165.6 161.2,165.4 159.6,164.4 159.0,163.9 159.1,163.3 160.2,163.2 160.5,159.7 160.1,158.0 158.6,157.2 155.7,156.5 152.4,155.4 152.7,153.8 152.3,151.3 152.9,148.7 152.8,148.1 152.4,147.5 151.9,147.1 151.2,147.1 150.6,147.4 150.6,147.9 149.3,148.3 148.4,147.7 148.4,147.1 147.9,146.4 146.7,145.5 145.7,144.9 145.2,144.9 144.6,145.3 143.6,143.9 143.3,143.3 143.3,142.8 143.9,142.2 144.5,141.8 145.8,138.6 144.2,134.7 143.7,134.1 142.9,134.0 142.2,134.0 141.9,134.6 141.4,135.0 140.8,135.1 140.0,134.9 138.7,134.1 138.1,133.6 137.1,131.5 136.5,131.1 135.2,130.8 133.2,130.5 131.7,130.3 130.3,130.9 129.0,130.7 128.0,130.3 127.6,129.7 127.6,129.0 127.0,128.7 126.1,128.8 125.4,129.2 124.8,129.5 124.2,129.4 122.0,129.0 121.8,128.3 122.0,127.8 121.4,127.3 120.3,127.2 119.3,127.0 118.6,126.8 117.8,126.3 117.5,125.7 115.3,124.5 110.7,124.1 110.2,124.1 108.8,124.7 104.5,126.1 99.1,126.3 95.6,126.9 93.8,126.9 93.3,126.7 92.4,127.5 92.0,128.1 90.6,129.1 90.0,129.4 89.2,129.3 88.7,129.2 85.4,129.9 84.6,132.1 83.0,133.6 82.4,133.9 81.3,134.1 79.7,134.0 77.4,134.2 75.8,134.4 75.2,134.6 74.7,134.9 71.7,135.1 70.5,135.0 69.2,135.0 65.5,135.4 63.7,135.9 63.2,136.1 62.1,137.2 61.8,137.8 61.0,138.5 60.2,138.9 59.5,139.2 58.5,139.3 57.8,139.4 57.0,139.6 56.4,139.6 55.7,138.6 55.0,137.8 54.4,137.4 53.7,137.4 52.8,137.1 52.2,136.8 51.7,136.4 51.7,135.8 50.7,135.1 50.0,134.8 49.4,134.7 47.3,134.5 46.7,134.5 44.6,135.1 43.1,135.7 40.7,135.5 40.2,135.3 38.7,134.6 37.3,134.5 34.3,134.4 29.0,133.7 28.0,133.9 27.4,134.2 25.8,133.7 24.7,133.3 23.7,132.9 23.2,132.2 22.7,131.8 21.1,131.5 20.4,131.6 19.9,132.0 19.7,132.6 19.5,133.1 18.3,133.8 16.0,134.5 15.3,134.6 14.5,133.8 15.0,133.2 15.0,132.7 14.4,132.0 13.3,131.3 12.0,131.3 11.2,131.6 10.7,131.8 10.1,131.7 9.4,131.5 9.2,130.7 8.7,129.8 7.3,128.7 6.2,128.7 4.8,128.7 4.0,128.0 2.4,126.3 2.4,125.5 1.6,125.1 0.4,125.3 0.1,122.0 0.5,121.5 1.7,120.9 3.5,119.7 4.8,117.4 5.6,115.4 6.4,114.2 7.8,113.3 8.2,112.4 8.3,111.5 8.9,111.3 12.0,112.2 14.4,113.1 15.1,113.1 14.7,112.6 14.6,112.0 14.9,111.4 14.4,111.0 12.9,110.1 11.4,109.8 11.8,108.7 12.4,107.6 12.1,105.2 11.1,103.9 10.4,102.5 10.8,101.5 11.6,100.8 12.9,99.3 19.7,93.6 20.4,93.0 22.0,91.8 23.6,90.6 24.4,90.0 25.2,89.6 27.6,88.1 28.5,87.7 29.1,87.4 31.3,86.0 31.6,85.2 32.2,84.7 32.9,84.5 33.7,84.4 34.8,84.3 35.5,84.3 36.5,84.4 37.4,84.3 37.9,84.2 40.2,81.0 40.2,79.8 39.4,78.4 38.2,77.5 37.1,76.5 37.1,75.9 37.7,75.6 38.4,75.6 39.0,75.6 39.5,75.6 40.3,75.6 40.9,75.2 39.8,74.6 39.3,74.4 38.7,74.2 37.7,73.5 37.2,73.1 36.5,72.2 36.0,70.7 34.1,68.7 32.9,68.0 32.4,67.7 31.5,66.2 31.4,64.6 31.6,63.9 30.9,62.3 30.3,62.1 29.8,61.3 30.5,61.5 30.4,60.4 29.9,59.8 30.6,59.1 31.1,59.0 32.6,58.7 33.2,58.7 35.8,59.1 36.4,59.5 36.7,60.0 37.4,60.1 38.1,59.9 38.8,59.6 39.4,59.3 43.7,57.0 44.1,56.3 44.2,55.8 44.4,55.2 45.7,54.1 46.3,53.9 52.3,53.8 53.1,53.9 56.2,53.6 58.3,53.4 59.5,53.0 60.4,52.8 61.9,52.4 63.3,52.4 64.2,52.6 64.9,52.8 65.5,53.0 67.5,53.2 69.7,53.2 70.7,53.3 72.3,53.2 73.4,53.1 74.2,52.9 75.3,52.9 79.5,53.4 81.8,54.0 82.5,54.4 83.2,54.5 84.9,54.6 85.9,54.5 86.5,54.5 87.7,54.5 88.0,55.0 89.2,55.5 89.9,55.4 90.7,55.3 91.5,55.3 92.0,55.3 92.8,55.4 93.8,55.6 94.8,56.0 95.8,56.3 97.4,56.6 97.9,56.7 98.4,56.7 99.5,56.4 100.1,56.3 101.2,56.3 102.8,56.4 103.6,56.5 103.7,57.3 103.6,58.0 105.1,59.7 108.1,59.9 108.7,59.8 110.0,59.2 111.8,59.5 113.6,59.8 114.1,59.9 114.5,60.4 113.5,62.0 114.7,62.5 116.2,61.3 116.3,60.7 116.2,60.0 116.7,59.5 117.3,59.3 117.9,59.5 118.4,59.9 119.1,60.3 119.9,60.5 121.5,60.5 122.2,60.5 122.8,60.2 123.3,59.6 123.7,59.1 124.4,58.7 124.9,58.6 125.5,58.6 126.6,60.0 128.9,60.5 129.5,60.3 130.0,60.2 132.8,60.5 133.0,61.0 133.1,61.6 133.4,62.5 133.8,63.1 135.2,63.6 135.7,63.6 135.8,62.9 135.7,62.3 136.3,61.5 137.0,60.9 141.6,59.2 142.3,59.0 143.0,59.0 143.9,59.2 145.5,61.0 145.7,61.6 146.7,63.9 147.5,64.5 149.0,63.9 153.3,62.1 154.3,61.9 155.1,61.9 155.6,62.4 155.8,63.0 157.7,63.0 158.6,62.7 159.3,62.4 160.7,62.1 161.3,62.1 162.0,62.1 164.0,62.0 164.7,62.0 165.5,62.3 168.1,63.8 168.3,64.8 170.6,66.1 172.4,66.9 172.7,66.1 173.6,65.5 174.2,65.4 174.3,64.6 173.1,62.1 172.4,61.0 172.7,58.9 173.9,57.7 174.8,55.9 174.6,55.3 176.4,53.7 178.0,52.7 179.5,52.1 180.8,51.6 180.2,51.0 180.3,50.4 180.8,49.9 183.8,49.8 184.3,49.8 187.6,49.9 188.2,49.4 188.8,49.2 189.4,49.2 190.3,49.1 191.9,49.2 194.4,49.4 196.7,49.4 197.7,49.4 198.4,49.3 199.0,49.3 199.8,49.5 200.3,50.2 202.0,50.5 204.4,50.7 206.7,50.0 208.0,49.5 209.0,48.4 209.5,45.2 210.0,44.8 210.6,44.7 212.9,44.9 213.5,45.0 214.1,45.2 214.6,45.4 215.2,45.7 216.5,46.1 217.1,46.2 217.7,46.3 220.8,46.5 221.5,46.4 222.1,46.0 223.4,45.3 226.7,43.9 230.4,44.1 231.2,44.3 " />
    <polygon id="Ukraine" points="205.6,171.7 203.9,171.4 203.1,171.2 201.3,170.8 199.6,170.6 197.9,170.4 197.2,170.4 196.5,170.3 195.7,170.1 193.6,169.5 193.1,169.3 192.4,168.5 192.0,167.9 191.9,167.3 192.4,167.4 192.5,168.0 192.9,168.8 193.4,169.2 194.2,169.5 195.8,170.0 196.9,170.1 199.2,170.3 203.9,171.1 204.8,171.4 205.6,171.7 " />
    <polygon id="Ukraine" points="247.8,173.5 247.2,173.5 246.6,173.1 246.4,172.6 247.7,170.9 248.6,171.9 248.5,173.0 247.8,173.5 " />
    <polygon id="Ukraine" points="223.5,174.5 222.8,174.5 222.2,174.5 220.6,174.3 217.7,174.0 219.6,173.5 220.2,173.6 221.9,173.7 223.7,174.0 " />
  </g>
</svg>