<?xml version="1.0" encoding="UTF-8" standalone="yes"?>
<!DOCTYPE svg PUBLIC "-//W3C//DTD SVG 1.0//EN" "http://www.w3.org/TR/2001/REC-SVG-20010904/DTD/svg10.dtd">
<svg height="250" width="370" xmlns="http://www.w3.org/2000/svg" xmlns:svg="http://www.w3.org/2000/svg" xmlns:xlink="http://www.w3.org/1999/xlink">


<g id="background">
<rect id="" width="370" height="250" fill="#222222"/>
</g>
  <g id="807" style="stroke-miterlimit: 3; fill: #F1F1F1; stroke: #000000; stroke-opacity: 1; stroke-width: 0.05; stroke-linejoin: bevel; stroke-linecap: square">
    <polygon id="Macedonia" points="52.2,226.4 50.9,227.5 49.5,227.7 43.3,227.0 42.5,226.9 41.0,226.5 39.9,226.1 30.5,200.6 28.3,200.3 20.5,199.9 17.3,189.9 8.8,177.9 6.4,169.5 5.4,167.2 5.0,165.7 5.5,164.0 5.7,163.4 6.4,163.3 9.5,163.0 13.3,159.7 15.0,155.3 15.0,154.7 7.3,147.2 2.0,141.8 0.4,139.2 0.0,138.3 0.0,137.7 1.2,133.5 10.9,122.1 8.1,108.7 8.5,106.4 8.9,105.2 10.9,101.7 16.0,87.6 18.9,86.5 21.2,88.4 22.6,89.4 23.8,89.9 25.0,90.3 35.2,90.3 36.7,90.2 38.6,89.7 39.6,89.2 41.2,87.7 45.4,81.3 45.9,80.3 46.1,79.7 46.1,78.5 46.0,77.3 43.7,73.3 43.3,72.3 43.3,70.6 44.8,63.5 45.1,62.3 47.0,58.9 48.1,57.7 50.3,56.7 65.7,52.4 93.0,41.0 94.7,40.5 96.4,40.5 97.1,40.7 98.3,41.1 108.8,48.1 109.7,48.7 121.7,48.4 121.9,47.9 127.4,41.9 127.9,41.5 144.0,31.9 145.0,31.4 147.2,31.1 167.0,33.1 175.8,35.2 179.2,36.2 180.1,36.2 181.6,36.2 184.0,35.5 189.8,32.7 191.2,31.8 192.0,30.2 192.1,29.6 192.8,27.3 193.8,26.0 198.8,22.4 200.1,22.1 200.8,22.0 225.0,24.1 230.5,26.2 232.0,26.4 233.6,26.4 248.1,24.5 249.6,24.3 250.2,24.1 251.2,23.6 251.9,22.7 252.3,21.7 252.7,21.1 253.5,20.5 265.9,17.8 268.2,17.7 269.4,18.1 274.1,23.1 280.2,29.5 296.0,47.9 309.2,54.8 320.1,60.2 339.1,65.6 340.7,65.7 347.4,78.0 347.8,79.0 350.3,86.1 350.8,87.0 357.0,97.2 359.8,101.4 360.6,102.1 361.3,102.4 365.3,102.6 366.7,103.0 367.4,103.8 369.6,107.7 370.0,108.6 369.8,109.8 369.6,110.3 368.0,112.7 366.9,114.0 363.4,117.6 359.0,121.1 358.5,122.1 358.3,123.3 358.3,127.3 359.4,144.8 360.5,159.5 360.2,160.7 359.7,161.8 358.9,162.6 357.0,163.8 356.0,164.1 354.7,164.0 338.4,163.2 337.1,163.4 333.9,165.6 332.6,166.7 331.4,168.0 330.8,168.8 330.7,169.4 331.3,170.2 331.0,177.1 330.5,180.6 328.4,189.8 328.2,190.4 327.3,191.9 326.4,192.5 325.1,192.8 306.4,196.1 305.7,196.1 305.1,196.1 291.3,195.9 286.3,195.9 284.1,195.9 270.9,194.0 265.4,191.3 259.3,188.8 258.5,188.7 251.1,189.2 218.8,194.1 217.8,194.6 209.5,199.6 208.5,202.6 208.7,203.6 209.2,205.1 209.2,205.6 208.9,206.2 191.7,223.0 190.0,223.5 164.1,231.6 161.2,231.7 160.3,231.5 159.8,231.3 156.7,228.9 155.0,227.0 154.0,226.4 151.7,226.1 138.2,224.9 137.6,225.1 136.2,226.0 135.3,226.7 132.6,229.4 130.9,230.8 129.2,231.3 127.2,231.7 123.1,232.2 99.6,233.8 95.4,233.8 75.5,234.0 75.6,228.9 75.4,228.3 73.9,226.7 71.8,225.6 69.9,224.9 56.1,222.6 55.0,223.0 53.5,224.7 52.2,226.4 " />
  </g>
</svg>