<?xml version="1.0" encoding="UTF-8" standalone="yes"?>
<!DOCTYPE svg PUBLIC "-//W3C//DTD SVG 1.0//EN" "http://www.w3.org/TR/2001/REC-SVG-20010904/DTD/svg10.dtd">
<svg height="250" width="370" xmlns="http://www.w3.org/2000/svg" xmlns:svg="http://www.w3.org/2000/svg" xmlns:xlink="http://www.w3.org/1999/xlink">


<g id="background">
<rect id="" width="370" height="250" fill="#222222"/>
</g>
  <g id="818" style="stroke-miterlimit: 3; fill: #F1F1F1; stroke: #000000; stroke-opacity: 1; stroke-width: 0.05; stroke-linejoin: bevel; stroke-linecap: square">
    <polygon id="Egypt" points="43.8,3.8 45.9,3.8 47.9,3.4 50.1,2.8 53.3,1.8 56.6,0.9 57.6,0.8 58.4,0.7 60.1,0.8 61.1,0.8 61.7,0.9 63.9,1.4 66.0,2.2 69.5,3.1 70.6,3.3 71.2,3.5 74.6,3.8 78.2,4.2 81.6,4.8 84.6,5.5 89.0,6.4 91.5,6.9 93.8,7.0 94.5,7.0 95.6,7.0 96.3,7.2 96.7,8.2 96.9,8.9 97.1,9.5 97.6,10.3 98.8,11.0 99.3,11.1 102.2,11.9 104.2,12.3 107.8,11.4 108.5,11.1 109.2,10.4 109.7,10.7 110.3,12.1 110.5,13.1 110.7,13.8 111.4,14.3 118.2,14.9 120.4,15.0 122.5,14.8 123.6,14.6 124.4,14.7 127.8,15.9 131.9,17.1 132.9,17.4 134.3,18.0 134.6,18.7 136.3,19.9 136.8,20.2 138.7,20.9 140.1,21.3 141.0,21.4 142.3,21.4 143.0,21.3 143.9,21.2 145.0,20.8 145.7,20.6 147.7,20.0 151.7,18.4 152.8,17.8 154.1,16.9 154.7,16.5 155.6,15.9 157.0,15.0 158.5,14.1 160.0,13.2 165.1,9.7 166.3,8.8 167.6,9.5 168.8,11.0 170.6,11.2 172.6,10.6 172.9,9.8 172.9,8.1 174.3,5.1 175.2,5.3 174.7,4.8 174.1,3.9 174.7,3.7 175.3,4.0 175.9,4.6 176.6,4.8 177.3,5.0 177.9,5.1 180.0,4.7 180.6,4.5 183.0,3.8 183.8,3.6 185.1,3.2 186.0,2.8 187.0,2.5 189.7,1.9 183.3,4.7 180.0,5.7 179.4,5.9 179.2,6.5 180.4,6.9 184.4,6.2 188.5,5.9 190.1,5.2 191.2,4.3 193.5,4.0 194.1,4.1 193.9,2.8 193.4,2.4 192.7,2.1 191.9,2.0 190.4,1.7 191.1,1.4 191.7,1.2 193.3,1.2 194.4,1.3 195.9,1.6 196.8,1.9 197.8,2.2 199.8,2.9 202.2,4.2 204.3,5.1 204.8,5.2 205.4,5.3 206.3,5.3 208.3,4.9 210.6,4.3 211.9,3.7 212.6,3.4 213.6,2.9 214.1,2.8 214.9,3.0 215.5,3.5 215.9,4.3 216.5,5.2 217.1,6.0 218.0,6.9 218.7,7.3 219.5,7.5 222.2,9.2 221.3,9.0 219.9,8.3 219.2,7.9 218.7,7.6 217.3,6.9 216.5,6.2 216.1,5.5 215.2,3.5 214.6,3.1 213.4,3.3 210.9,9.0 211.0,9.7 211.7,9.4 212.7,10.4 215.0,12.0 215.7,11.6 217.1,11.1 217.8,11.2 218.0,11.7 217.7,12.4 217.8,13.0 218.9,14.6 220.6,14.8 221.8,13.5 222.9,14.1 223.4,14.0 224.2,13.6 224.4,12.4 224.6,11.4 224.1,9.9 223.5,9.8 222.4,9.6 223.5,9.5 224.0,9.5 225.4,9.8 227.3,11.2 228.9,12.6 229.7,13.6 231.1,14.8 232.4,15.2 234.2,15.4 235.0,15.8 235.6,15.9 237.0,15.6 243.5,12.8 245.5,11.8 246.0,11.8 246.7,14.1 246.5,15.2 248.1,15.0 249.3,14.4 250.8,13.8 253.4,12.7 254.4,13.0 255.3,13.5 256.4,13.7 257.9,13.8 258.4,13.8 259.3,13.8 260.2,13.6 262.1,13.3 263.7,12.9 265.4,12.5 266.9,12.0 268.3,11.5 269.7,11.0 271.5,10.2 274.0,8.6 274.9,9.1 275.6,11.1 276.1,12.5 279.1,20.4 281.4,24.8 283.2,30.1 282.8,31.4 282.8,32.1 284.6,33.2 287.4,40.3 288.2,42.9 290.6,49.4 291.3,51.6 291.3,52.4 291.0,53.0 291.4,54.8 292.1,55.9 291.6,56.0 291.0,56.2 288.4,59.9 288.0,61.0 286.6,65.0 285.9,67.5 284.8,72.7 284.8,74.8 284.9,75.3 284.4,76.4 283.9,77.3 282.9,78.8 282.3,79.9 280.6,83.1 279.4,86.0 279.4,88.4 279.7,89.2 280.4,89.7 280.2,93.9 280.1,94.5 279.9,95.1 277.2,97.8 276.3,98.2 275.7,99.2 275.4,99.9 275.3,100.5 275.3,101.5 274.3,100.5 273.6,100.0 272.2,99.7 268.0,97.4 264.2,95.1 263.7,94.7 262.6,93.9 261.2,92.3 259.0,89.4 258.3,88.3 257.5,87.0 256.6,86.4 255.9,86.2 254.0,85.1 253.4,84.6 250.7,81.9 250.2,81.4 249.1,80.1 248.5,78.7 248.0,77.5 247.1,72.2 247.1,69.8 247.2,69.2 247.3,68.6 241.5,63.2 240.8,63.1 240.1,62.6 236.1,56.8 235.6,55.3 234.8,52.6 234.6,51.4 234.9,50.3 234.9,49.7 234.4,48.9 233.7,48.1 232.7,47.3 231.8,44.7 231.9,43.9 231.9,42.7 229.4,44.2 228.8,45.3 229.1,45.8 229.7,46.2 228.5,48.0 227.5,49.0 226.4,50.7 225.7,53.1 226.3,54.2 227.3,55.3 227.9,55.7 228.5,55.9 231.6,58.6 232.3,59.7 233.2,62.4 233.6,64.1 233.9,65.5 234.1,66.0 233.5,66.9 232.9,68.8 234.7,72.0 236.0,73.3 236.5,73.7 237.2,73.9 237.8,74.5 238.1,75.1 238.4,75.7 238.6,76.3 239.2,78.2 240.9,80.2 242.8,81.9 243.2,82.5 244.8,84.9 246.0,87.0 247.4,88.5 248.6,89.7 251.5,92.5 253.4,93.7 254.0,94.0 254.9,94.5 255.5,95.0 256.2,95.9 257.3,97.5 257.6,98.2 257.9,99.2 258.0,99.7 257.1,99.3 256.3,98.9 255.8,98.7 255.3,98.7 254.9,99.3 255.6,103.7 257.3,105.6 259.2,107.7 260.0,109.2 260.5,110.5 260.5,111.1 260.7,111.6 261.4,112.4 262.8,113.0 264.2,113.6 264.5,114.4 264.5,115.0 264.3,116.2 264.4,117.1 264.6,117.6 267.2,121.9 267.3,125.0 266.9,128.4 267.0,129.2 267.6,129.7 268.3,129.9 268.9,130.4 270.6,133.0 272.4,136.6 273.4,138.5 273.9,139.8 274.2,140.5 277.1,145.6 280.0,150.3 281.3,151.9 281.9,152.5 282.6,152.9 283.1,153.6 284.9,157.1 286.0,159.5 288.7,164.8 289.9,167.1 290.7,168.5 291.5,169.7 292.4,171.0 292.9,171.9 294.2,174.1 296.8,179.3 298.3,184.0 298.2,184.6 300.3,187.1 302.0,188.5 303.3,189.4 304.5,190.5 305.5,191.8 306.1,193.2 307.1,194.2 310.1,196.1 312.7,197.6 313.2,197.8 314.1,198.4 314.9,199.2 315.6,200.2 310.6,199.8 309.1,199.3 309.0,198.7 308.2,198.5 307.6,199.0 307.1,199.6 306.9,202.9 307.4,204.6 307.9,205.2 307.9,206.5 307.6,208.6 307.3,210.8 307.4,211.5 308.4,213.0 308.7,213.5 308.9,214.2 308.9,215.2 309.0,215.9 309.3,217.6 309.6,218.4 310.2,219.3 310.9,220.5 311.2,221.1 311.7,222.9 311.8,223.6 311.9,224.6 313.8,227.3 316.4,230.0 317.1,230.4 318.9,231.2 320.9,232.0 322.0,232.1 324.3,232.6 326.3,233.3 327.6,234.6 330.1,237.9 330.8,239.3 331.9,240.8 332.5,241.6 333.1,241.9 334.5,242.0 339.9,245.7 341.2,246.6 342.8,247.9 343.4,248.4 343.7,249.1 343.6,249.8 341.8,249.8 339.3,249.9 338.3,249.9 334.6,249.9 331.1,249.9 328.2,249.9 327.1,249.9 321.1,249.9 318.1,249.9 314.8,249.9 306.1,249.9 303.8,249.9 298.6,249.8 294.3,249.8 293.6,249.8 293.0,249.8 291.8,249.8 286.9,249.9 285.9,249.9 277.8,250.0 271.7,249.9 270.6,249.9 267.5,249.9 265.2,249.9 263.0,249.9 262.5,249.9 261.9,249.9 254.9,249.8 252.1,249.8 247.4,249.9 233.7,249.8 230.4,249.8 229.7,249.8 229.1,249.8 228.4,249.7 226.9,249.7 225.7,249.7 216.8,249.8 206.0,249.9 203.8,249.9 203.1,249.9 203.1,249.1 204.2,245.9 204.3,245.2 203.6,244.2 202.8,243.8 202.1,243.9 201.6,244.1 201.0,244.7 199.7,247.1 199.3,247.8 198.2,249.9 196.4,249.9 195.3,249.9 184.5,249.9 183.0,249.9 180.6,249.8 178.0,249.8 177.1,249.8 174.9,249.8 172.1,249.8 167.7,249.8 155.0,249.9 152.8,249.9 145.7,250.0 143.8,250.0 143.2,250.0 142.7,250.0 142.1,250.0 141.6,250.0 141.0,250.0 139.5,250.0 128.7,249.9 121.6,249.8 120.1,249.8 119.1,249.8 106.2,249.9 98.1,250.0 97.4,250.0 95.9,249.9 94.3,249.9 91.0,249.8 89.8,249.8 86.7,249.9 85.2,249.9 83.2,250.0 79.0,249.9 78.3,249.9 70.3,249.9 55.8,249.8 46.1,249.9 41.2,249.8 38.2,249.8 35.6,249.9 35.6,248.6 35.6,242.4 35.6,208.9 35.6,197.4 35.5,189.2 35.5,177.7 35.5,172.3 35.5,160.7 35.6,147.0 35.6,133.7 35.6,131.6 35.6,127.6 35.6,121.9 35.6,120.4 35.6,118.3 35.6,109.3 35.6,104.6 35.6,103.1 35.6,100.7 35.7,97.1 35.6,94.4 35.7,91.2 35.6,87.3 35.6,69.7 35.5,62.1 33.3,57.3 32.9,56.6 32.6,55.8 32.4,55.3 32.6,53.4 31.1,47.4 31.3,46.6 31.3,45.8 31.0,44.8 30.7,44.2 29.6,41.8 28.5,39.6 28.1,39.0 28.0,38.3 28.1,37.8 28.3,37.0 29.7,34.8 30.9,33.2 31.7,32.5 32.4,31.6 33.5,29.9 33.7,29.4 35.0,26.2 36.0,22.6 36.0,21.9 35.5,20.9 35.1,20.2 33.3,16.4 33.1,15.9 32.2,12.7 32.1,7.4 32.4,6.8 32.9,6.2 34.6,5.2 35.8,4.3 36.8,3.3 37.1,2.2 37.4,1.7 38.1,1.0 39.0,0.3 39.5,0.0 39.6,0.5 40.0,2.6 40.5,3.0 43.6,3.8 " />
    <polygon id="Egypt" points="247.8,10.7 249.3,11.0 247.9,10.9 247.3,10.8 245.6,10.8 245.0,11.0 242.2,12.4 244.9,10.9 245.6,10.7 247.3,10.7 247.8,10.7 " />
    <polygon id="Egypt" points="255.1,13.2 254.6,12.8 254.0,12.6 251.4,11.6 250.7,11.4 249.8,11.3 250.7,11.3 251.3,11.5 253.2,12.1 254.6,12.8 255.1,13.2 " />
    <polygon id="Egypt" points="218.1,13.0 " />
    <polygon id="Egypt" points="269.4,107.4 269.8,108.6 268.9,108.1 267.7,107.5 267.1,107.6 266.5,106.9 267.1,106.5 267.8,106.5 269.4,107.4 " />
    <polygon id="Egypt" points="268.7,127.9 267.7,126.2 268.6,126.8 268.8,127.5 " />
  </g>
</svg>