<?xml version="1.0" encoding="UTF-8" standalone="yes"?>
<!DOCTYPE svg PUBLIC "-//W3C//DTD SVG 1.0//EN" "http://www.w3.org/TR/2001/REC-SVG-20010904/DTD/svg10.dtd">
<svg height="250" width="370" xmlns="http://www.w3.org/2000/svg" xmlns:svg="http://www.w3.org/2000/svg" xmlns:xlink="http://www.w3.org/1999/xlink">


<g id="background">
<rect id="" width="370" height="250" fill="#222222"/>
</g>
  <g id="826" style="stroke-miterlimit: 3; fill: #F1F1F1; stroke: #000000; stroke-opacity: 1; stroke-width: 0.05; stroke-linejoin: bevel; stroke-linecap: square">
    <polygon id="United Kingdom" points="245.4,3.6 242.8,3.9 242.2,3.7 242.2,3.0 242.7,1.1 244.0,0.1 245.7,0.1 246.5,0.3 246.7,1.2 245.4,3.6 " />
    <polygon id="United Kingdom" points="240.6,8.0 238.9,8.2 238.4,8.2 237.4,7.3 237.1,5.7 237.1,5.0 238.8,2.7 239.3,2.6 240.0,2.6 241.4,2.7 241.7,4.3 240.9,7.4 240.6,8.0 " />
    <polygon id="United Kingdom" points="234.5,8.1 237.5,8.9 240.3,9.1 239.8,11.1 239.0,13.0 237.5,13.4 237.0,13.1 237.0,14.0 237.7,14.9 238.4,15.8 237.8,16.3 237.0,16.4 236.4,17.0 236.2,18.8 235.3,22.5 234.3,22.6 232.8,21.8 233.7,19.4 234.2,19.1 235.1,17.2 235.3,16.7 234.8,14.3 232.1,13.5 233.0,14.1 233.1,14.9 231.0,15.9 230.1,15.5 229.4,15.2 227.8,14.4 226.5,14.2 225.9,13.8 225.4,12.9 226.0,12.5 226.9,12.3 227.6,12.3 230.4,12.1 231.1,12.0 233.4,11.5 234.0,11.2 231.1,8.8 229.8,8.6 228.6,8.4 227.3,8.5 227.7,7.7 228.8,7.1 231.8,5.5 234.4,4.8 234.7,5.3 234.5,8.1 " />
    <polygon id="United Kingdom" points="198.1,35.4 199.0,36.0 198.3,36.9 198.4,36.4 197.0,35.7 196.5,35.6 195.8,36.1 194.9,35.7 193.9,34.8 194.4,34.6 197.9,35.3 " />
    <polygon id="United Kingdom" points="202.8,37.7 202.8,37.1 204.9,35.5 205.7,35.2 208.9,35.0 209.5,35.7 207.1,36.6 205.4,36.6 204.2,36.8 202.8,37.7 " />
    <polygon id="United Kingdom" points="200.3,43.3 201.1,44.1 199.6,44.9 198.5,44.6 196.2,43.6 195.4,43.5 194.2,43.6 193.0,43.8 191.6,44.2 191.1,44.2 188.6,43.4 187.6,43.0 187.3,42.4 187.1,41.9 187.5,39.7 188.3,39.2 189.2,39.0 190.1,38.8 190.9,38.8 193.8,39.4 195.6,40.6 196.8,42.2 198.9,42.7 200.3,43.3 " />
    <polygon id="United Kingdom" points="190.3,47.3 188.9,47.3 185.7,45.1 186.0,44.4 187.6,43.8 190.2,44.8 192.4,46.7 191.9,47.2 190.3,47.3 " />
    <polygon id="United Kingdom" points="197.4,48.3 196.7,48.3 196.2,48.1 194.7,46.3 195.3,46.0 196.1,45.9 197.5,45.9 198.0,45.9 197.5,48.3 " />
    <polygon id="United Kingdom" points="169.2,174.2 169.7,174.1 170.3,174.2 171.2,174.2 172.3,173.9 176.0,172.9 178.8,172.7 179.7,172.8 181.5,173.0 182.1,172.9 185.0,172.0 186.7,171.5 187.2,171.5 187.9,171.4 190.7,172.6 192.6,173.5 193.2,173.7 193.7,173.2 192.7,171.9 192.0,171.4 191.5,171.1 191.1,170.6 193.8,170.0 194.4,170.1 194.9,170.7 195.8,171.0 196.9,172.3 197.8,172.8 198.7,172.9 200.7,172.7 201.2,172.4 202.3,171.5 200.9,171.6 198.9,172.0 198.2,171.9 196.6,171.1 195.4,169.8 193.1,166.8 193.4,166.2 196.0,163.6 196.9,163.2 197.8,162.9 197.3,162.6 196.3,162.6 195.7,162.6 195.0,162.5 194.4,161.9 194.2,161.3 194.3,158.7 195.0,158.2 197.1,157.6 197.9,156.5 199.3,154.6 199.7,153.2 199.8,151.4 197.2,153.0 192.1,154.6 190.6,154.3 186.8,150.9 186.2,150.2 185.6,148.6 184.9,147.9 184.3,147.3 183.5,146.8 182.8,146.3 181.5,145.3 181.0,144.8 182.5,141.8 185.7,137.9 186.6,136.5 188.9,135.1 189.4,135.0 190.8,134.8 191.3,134.9 192.4,135.2 193.2,135.2 194.9,134.9 195.0,134.3 194.4,134.1 192.3,134.4 187.3,134.3 186.6,134.2 185.4,134.0 182.5,133.9 182.3,134.4 181.5,136.5 179.8,136.4 177.0,137.1 175.7,138.1 173.7,139.0 173.1,139.0 170.5,139.0 169.6,138.8 164.7,136.9 164.1,136.4 164.0,135.9 163.0,136.3 162.9,136.8 163.3,137.6 164.5,138.9 164.8,140.3 164.5,140.8 163.8,141.1 161.3,140.5 159.9,139.6 159.0,138.7 157.1,138.2 155.7,137.7 154.4,137.0 153.8,136.7 153.2,136.6 152.2,137.0 151.6,137.3 150.7,138.2 151.1,139.0 151.8,140.1 152.4,140.6 153.1,142.1 151.6,141.9 151.0,141.6 150.6,141.0 150.8,140.0 149.7,139.1 149.0,138.6 148.1,138.1 147.5,137.7 146.8,137.2 145.9,136.1 145.6,135.4 145.7,133.9 146.3,133.4 147.4,133.1 148.6,132.6 149.5,130.6 150.4,130.1 151.3,129.6 152.8,128.6 153.3,127.5 153.5,126.5 155.5,124.3 156.4,123.9 157.1,123.7 157.7,123.7 158.6,122.5 158.5,121.9 157.6,120.8 157.0,120.0 156.5,119.7 155.1,119.3 154.1,118.9 153.0,118.3 152.0,117.9 152.5,112.3 153.8,111.9 154.4,111.9 155.5,112.0 156.4,112.3 159.6,112.6 160.7,112.6 161.7,112.6 158.3,112.0 154.9,111.2 154.2,111.3 153.1,111.1 152.9,110.1 153.0,109.2 153.7,108.2 152.8,108.4 152.5,109.1 152.1,111.2 151.4,112.3 150.7,113.5 150.2,113.9 149.5,113.8 147.3,113.0 145.8,112.4 145.1,112.6 144.6,113.7 145.1,114.3 143.1,114.3 142.1,113.1 142.0,112.5 142.7,110.7 143.4,110.0 145.2,108.1 148.2,106.5 150.4,105.4 151.0,105.1 151.6,104.7 149.1,105.5 145.1,107.6 144.3,108.1 143.2,108.9 142.6,109.5 142.1,110.0 140.9,110.8 140.1,110.7 140.2,112.9 141.1,116.5 140.6,116.8 139.6,117.4 139.4,118.0 138.7,118.9 137.1,124.2 137.6,124.6 138.0,125.3 137.6,125.9 136.8,126.4 136.2,126.7 132.9,127.0 132.3,126.9 131.8,126.7 131.6,125.4 131.6,124.8 132.5,124.1 133.2,123.8 133.4,121.9 133.8,120.2 134.5,118.5 135.9,116.3 135.0,115.8 134.4,115.3 134.3,113.4 134.4,112.8 135.3,111.6 136.5,110.5 136.8,109.9 136.1,110.0 135.5,110.3 134.7,111.2 135.1,109.8 136.1,109.0 136.9,108.2 137.9,107.1 138.1,106.5 137.0,106.9 136.1,107.1 136.2,105.0 136.7,103.4 137.8,102.2 139.8,101.1 142.2,100.8 142.8,101.0 144.3,100.8 145.0,100.7 146.7,99.7 147.3,99.2 148.2,98.0 147.6,98.3 147.2,99.1 145.4,100.2 144.9,100.4 141.4,99.9 140.7,99.8 141.2,98.9 142.0,99.0 144.0,98.2 142.7,98.0 142.0,98.3 141.2,98.1 141.1,97.4 142.6,95.8 144.3,94.5 145.8,93.4 146.7,92.7 147.1,92.1 146.3,92.5 145.5,93.0 144.5,93.8 141.5,95.6 136.9,98.4 136.3,98.8 134.3,99.5 131.7,98.5 130.9,98.4 129.6,98.1 128.5,97.8 127.0,96.8 126.8,96.2 127.5,95.9 129.6,95.8 133.8,95.2 135.0,95.2 135.8,95.2 137.1,95.1 132.9,94.5 132.4,94.5 131.7,94.7 130.9,95.0 130.4,95.2 128.8,95.4 122.6,95.2 121.8,94.9 121.6,94.3 122.5,93.7 123.7,93.4 127.7,92.9 128.3,93.0 129.1,93.5 130.0,93.8 131.5,92.7 130.6,92.4 130.3,91.8 131.8,91.6 132.6,91.5 133.4,91.6 134.6,91.0 132.9,90.3 132.3,90.4 131.1,90.5 130.0,90.7 128.8,90.5 130.8,87.9 131.4,87.7 132.4,87.7 132.9,87.6 133.9,88.2 134.5,88.4 135.0,88.5 136.6,88.4 137.5,88.2 136.8,88.1 135.7,88.3 134.9,88.1 132.1,86.9 131.8,86.4 133.2,85.3 134.0,85.4 134.9,85.3 135.5,85.3 136.6,85.7 137.4,85.9 138.0,85.9 140.7,85.5 139.7,85.2 138.8,85.3 137.2,85.2 135.2,84.3 135.0,82.5 135.8,82.4 137.0,82.1 137.5,82.3 138.5,82.4 139.0,82.7 139.5,82.8 140.2,82.9 138.1,81.6 136.7,81.4 136.1,80.4 136.7,80.3 137.9,79.7 138.5,79.4 139.2,79.1 139.6,78.5 138.3,78.7 135.3,79.4 132.6,80.1 132.0,80.1 131.1,79.7 130.1,77.6 129.9,77.0 130.3,75.4 130.6,74.8 131.1,74.7 132.0,74.9 132.7,75.3 134.8,76.3 135.6,75.9 137.7,75.8 138.2,75.7 137.6,75.3 135.1,75.3 134.5,75.4 133.9,75.1 131.3,73.3 131.1,69.2 131.4,68.4 132.3,68.1 133.4,68.0 134.0,68.5 134.6,69.8 135.2,70.2 135.8,70.4 136.5,69.2 136.1,68.6 135.5,68.4 135.1,67.9 135.1,67.3 135.8,66.8 139.3,68.3 139.9,67.4 142.1,66.9 144.8,67.3 146.9,68.0 147.5,68.5 145.5,66.2 143.8,65.7 140.7,64.3 139.6,63.5 139.7,62.9 140.2,62.8 141.0,63.1 142.5,63.6 143.0,63.5 143.5,62.4 143.5,61.6 143.0,61.6 140.7,59.5 141.3,59.1 145.2,59.3 148.2,59.0 146.9,58.5 146.0,57.6 145.8,57.0 147.3,53.4 149.7,50.8 155.0,51.2 156.6,52.3 157.2,53.1 156.6,53.4 155.3,54.7 157.4,53.9 158.9,53.1 159.0,52.5 159.2,52.0 159.8,51.9 161.1,52.1 161.8,52.2 162.6,52.4 166.3,52.8 170.8,52.3 174.9,52.3 176.1,52.2 177.6,52.1 178.8,51.5 180.4,50.9 182.4,50.8 182.9,51.1 187.0,51.4 187.5,51.0 187.5,49.9 191.5,50.2 195.0,50.2 194.3,54.7 193.0,56.3 190.9,58.0 187.8,58.7 187.3,58.7 186.8,59.0 185.9,59.5 185.4,59.9 185.0,60.5 183.9,61.3 182.6,61.9 179.9,63.0 176.2,64.6 172.7,66.2 172.4,66.7 172.9,67.3 172.3,68.1 170.2,68.4 167.1,68.0 164.5,67.4 163.7,67.2 164.6,68.2 165.9,68.6 169.3,69.0 171.7,69.3 174.4,69.4 175.5,69.3 176.1,69.2 176.6,68.6 177.2,68.2 177.8,68.3 176.9,69.4 175.8,70.3 174.0,71.5 173.4,71.8 172.7,72.1 172.3,71.4 170.7,71.3 165.9,72.5 163.2,74.2 162.7,74.8 164.0,74.4 164.8,74.0 165.5,73.5 166.7,72.9 167.5,72.7 168.3,72.6 170.8,72.7 171.6,73.2 170.1,74.2 168.6,75.0 167.9,75.7 167.2,76.5 167.8,76.8 168.6,76.7 171.7,75.2 178.3,73.6 180.9,73.2 181.9,73.4 183.6,72.7 184.2,72.3 184.2,71.8 187.8,71.4 188.9,71.3 189.6,71.8 190.4,72.1 192.7,72.6 193.7,72.7 194.6,72.8 195.8,72.5 196.3,72.4 196.9,72.1 197.9,71.7 198.9,71.8 200.3,71.8 203.6,72.2 205.4,72.4 206.7,72.6 208.2,72.6 209.3,72.7 214.2,72.6 215.2,72.1 216.7,71.9 217.9,72.0 220.0,72.4 221.6,73.7 222.5,74.7 223.4,76.4 223.6,77.4 221.7,78.8 219.4,80.3 217.2,82.9 216.9,83.6 216.7,84.4 216.3,86.3 214.6,87.9 214.1,88.5 213.9,89.2 214.2,89.7 213.4,90.9 211.2,92.5 210.5,92.8 209.5,93.1 208.9,93.4 207.5,94.4 208.2,94.8 207.2,96.7 206.4,97.5 205.8,97.9 203.8,98.8 201.9,99.6 197.9,100.2 196.5,100.3 194.7,100.4 193.9,100.4 189.2,102.6 189.8,102.8 191.1,102.6 195.6,101.3 197.1,100.7 197.8,100.4 198.5,100.5 199.8,100.7 200.2,101.3 199.8,102.2 200.0,102.8 200.8,103.2 201.7,103.4 202.3,103.4 203.0,103.4 203.7,103.5 205.0,104.3 203.0,105.8 200.4,106.5 199.7,106.6 199.0,106.5 198.4,106.2 197.4,106.1 196.5,106.2 192.4,108.2 192.1,108.7 187.7,110.2 186.6,110.5 185.5,110.3 184.2,110.0 182.5,109.6 179.1,109.5 178.9,110.1 180.3,110.6 185.1,111.0 189.7,111.4 193.5,112.0 194.3,112.1 195.1,111.9 197.0,111.5 197.6,111.3 198.6,110.3 199.3,109.6 200.3,109.4 203.4,109.4 204.0,109.5 204.7,109.8 206.9,110.7 209.8,111.8 212.5,112.6 215.4,113.4 216.6,113.8 217.0,114.4 217.9,115.2 218.4,115.8 218.9,116.3 221.8,118.6 222.5,119.1 223.1,119.1 224.2,119.4 225.5,119.8 226.7,120.3 228.0,122.5 228.2,124.0 227.9,124.6 228.3,127.1 229.4,129.9 230.2,131.6 231.8,133.7 232.6,134.2 232.9,135.3 233.4,136.6 234.3,138.9 237.5,141.7 239.9,142.4 244.1,143.5 251.2,145.5 252.2,146.2 253.7,147.9 254.2,148.5 255.2,150.3 258.1,152.5 259.6,153.0 260.7,153.3 261.5,153.5 262.3,153.8 261.6,154.3 261.0,154.3 260.5,154.5 259.5,155.3 259.2,155.9 260.2,158.3 261.2,159.6 261.9,160.2 262.9,161.0 263.8,161.8 265.5,163.3 267.0,164.6 267.6,165.3 267.6,165.8 266.8,166.5 267.3,165.9 266.6,165.2 265.7,164.9 265.2,164.8 264.5,164.8 263.4,165.1 262.5,165.1 261.7,164.9 261.2,164.7 260.2,163.9 258.9,162.9 257.9,162.6 256.0,162.7 255.4,162.8 254.5,163.0 251.6,163.2 250.9,162.9 250.3,162.7 249.7,162.7 249.2,162.8 248.5,163.0 247.7,163.4 248.3,163.7 252.3,163.7 253.7,163.5 255.2,163.2 257.2,163.1 258.1,163.6 258.6,164.1 259.1,164.6 261.5,166.1 264.8,167.7 266.1,168.3 267.0,168.5 267.5,168.5 269.1,169.8 269.8,170.7 270.3,171.5 271.9,174.0 272.2,175.1 272.3,175.7 272.0,177.2 270.5,177.8 268.8,178.7 268.1,179.2 264.9,181.3 264.2,182.1 264.8,182.1 265.5,181.9 266.1,181.9 266.9,182.2 267.5,182.4 268.1,182.7 269.1,183.8 269.7,184.1 272.5,184.4 273.9,183.4 274.2,182.9 274.3,182.4 275.3,181.0 276.5,180.2 279.4,179.9 284.2,180.1 284.9,180.5 285.7,180.5 286.3,180.5 286.9,180.5 291.2,180.8 293.5,181.0 294.0,181.2 295.1,181.4 296.0,181.8 296.9,182.2 297.7,182.7 298.5,183.1 299.2,183.4 301.8,184.6 302.5,185.1 303.1,185.9 303.5,186.8 304.0,187.9 304.1,190.1 304.1,191.8 303.7,192.8 303.6,193.5 302.7,194.8 301.4,197.8 300.5,200.3 295.9,202.9 294.6,203.9 293.4,202.6 290.9,201.7 291.8,203.4 293.4,205.0 293.6,205.6 292.1,206.6 291.6,206.9 290.0,207.3 289.0,207.5 288.2,207.5 287.0,206.6 285.6,206.6 283.9,207.4 280.7,208.5 280.1,208.7 281.5,209.3 283.9,208.8 284.7,208.3 285.3,208.2 286.0,211.1 285.0,211.8 284.2,212.3 282.9,212.9 282.2,213.1 281.7,213.2 279.7,212.9 279.1,212.8 274.8,213.6 272.9,214.8 273.6,214.9 274.3,214.8 274.8,214.3 276.4,214.0 277.6,214.0 280.1,214.3 280.6,214.6 280.6,215.1 279.9,215.2 279.4,215.1 278.8,215.1 276.9,215.7 277.5,216.2 278.3,216.4 280.2,216.5 284.8,217.3 286.6,217.2 287.3,217.1 288.2,216.7 291.4,216.5 295.8,216.2 296.8,217.5 296.4,220.5 296.1,221.4 295.4,222.0 293.0,222.8 292.3,222.8 289.3,223.4 288.1,224.0 287.0,224.6 286.5,225.2 286.3,225.8 286.3,226.4 283.7,226.8 282.8,226.6 282.0,226.6 280.5,227.3 279.8,227.9 277.1,228.6 275.5,228.8 274.5,228.9 274.0,229.0 273.3,229.1 272.7,229.3 272.1,229.5 271.2,230.1 270.5,230.8 270.0,231.1 269.4,231.1 267.0,230.6 266.4,230.4 265.4,230.1 262.0,229.5 261.0,229.3 259.8,229.1 258.3,229.1 250.9,229.8 249.6,230.0 248.7,230.1 247.9,230.3 247.1,230.5 246.6,230.8 246.4,231.3 245.8,231.4 243.5,230.4 243.8,229.9 244.3,229.7 242.9,228.8 239.1,228.6 237.7,228.7 238.6,229.4 238.4,230.0 233.7,229.9 231.9,230.4 227.7,231.4 226.1,231.1 225.2,231.1 222.6,231.4 219.9,231.7 218.2,231.6 217.7,231.2 216.9,231.6 219.0,232.7 219.5,232.8 219.9,233.4 219.4,234.3 217.2,234.6 215.6,234.1 215.1,233.9 213.9,233.7 209.5,233.3 208.6,233.5 207.8,234.3 207.9,234.8 208.7,235.2 208.0,235.4 207.1,234.4 205.5,233.5 203.3,232.6 202.4,232.3 200.8,231.8 199.6,231.5 198.7,231.3 197.7,231.2 197.1,231.3 196.5,231.7 193.4,232.2 191.6,232.2 190.0,232.6 186.1,233.9 185.5,234.1 184.9,234.6 184.2,235.5 182.9,238.0 180.6,242.7 180.1,242.9 179.4,243.2 178.9,243.3 177.5,243.1 176.9,243.0 176.3,242.7 175.5,241.6 174.0,240.8 173.2,240.8 172.6,241.0 172.0,241.3 171.5,241.2 170.1,240.4 168.9,239.5 164.0,239.7 162.9,239.9 162.4,240.3 161.6,240.5 161.0,240.6 160.3,240.6 157.9,240.6 157.2,240.5 155.2,240.9 153.1,242.7 150.9,243.6 148.7,244.1 148.5,244.8 148.1,246.0 148.6,246.6 148.3,247.1 146.2,247.9 145.7,248.5 144.6,248.6 144.0,248.0 144.1,247.5 143.5,246.6 142.2,245.9 139.1,245.1 138.4,245.1 137.7,245.3 137.5,246.0 137.2,246.6 136.5,246.9 134.9,247.1 134.3,247.1 133.5,246.8 133.6,245.0 133.9,244.5 137.3,243.3 138.1,243.1 138.8,243.1 139.8,243.6 143.7,241.7 146.3,240.1 148.6,238.3 149.3,237.3 148.9,236.6 149.3,235.6 151.7,234.8 152.7,234.7 154.4,234.5 155.0,234.2 155.5,233.3 155.7,232.7 156.7,232.2 157.8,231.6 159.8,230.3 160.1,229.6 160.2,229.1 160.2,228.4 160.3,226.8 160.6,224.9 161.8,224.8 162.8,224.9 164.1,225.3 164.9,225.3 165.7,225.0 167.2,224.1 167.8,223.5 167.6,222.6 167.4,220.9 168.1,220.6 170.0,220.3 171.0,220.2 173.0,220.2 175.3,220.0 177.4,219.6 179.5,219.9 181.1,220.1 181.9,220.1 182.4,219.9 183.9,220.0 185.4,220.3 186.0,220.8 186.6,221.0 188.7,221.0 194.9,220.4 195.3,219.4 195.2,218.9 195.4,218.1 196.5,216.5 198.9,214.9 200.8,213.9 203.5,212.2 205.8,210.1 207.6,208.5 208.6,208.3 209.1,208.2 209.7,207.8 207.9,208.0 205.2,209.6 204.0,210.4 203.2,211.0 202.4,211.6 199.0,212.7 198.0,212.8 197.4,212.8 196.6,212.8 195.1,213.1 192.9,213.9 192.1,214.8 191.9,215.3 191.7,215.8 189.4,216.4 187.6,216.5 186.3,216.4 185.2,216.3 184.4,216.2 183.1,216.0 180.2,214.3 178.4,213.1 177.7,212.1 176.4,211.0 173.8,211.1 168.1,212.7 167.1,212.7 166.3,212.4 166.0,211.3 166.9,210.7 167.8,210.8 168.5,210.9 170.0,210.6 170.9,210.3 171.2,209.8 168.2,209.6 166.7,209.6 162.7,208.3 159.5,208.3 158.3,208.4 157.4,208.6 157.0,209.3 156.9,209.9 156.4,210.3 154.8,210.7 154.2,210.5 153.6,210.3 153.0,210.5 152.3,210.8 151.2,211.5 149.7,211.2 148.8,211.0 149.3,209.8 150.5,209.7 152.0,209.2 153.0,208.8 152.5,208.0 152.3,208.5 151.8,208.9 149.7,209.0 148.3,209.0 145.4,208.9 144.6,208.6 146.1,207.7 147.0,207.6 147.5,207.3 147.2,206.1 146.9,205.6 145.7,205.2 144.9,205.2 143.9,205.2 144.3,204.2 147.5,203.2 148.0,202.7 153.4,201.9 155.1,200.8 155.6,200.2 156.1,199.7 157.4,199.3 157.9,199.2 159.2,199.2 160.6,199.3 161.2,199.1 166.0,197.2 167.4,196.6 168.3,195.9 169.4,194.9 170.4,193.5 171.3,191.1 170.8,189.6 169.8,188.6 170.2,187.4 171.5,185.9 169.7,184.5 169.3,183.9 169.6,182.2 169.6,181.3 167.3,181.3 165.6,181.5 163.2,182.0 162.6,182.3 161.8,182.7 161.2,183.3 160.3,184.1 156.0,184.4 155.4,184.3 155.7,183.5 157.8,182.0 158.5,181.5 159.3,181.1 160.0,181.0 160.6,180.8 162.1,180.1 164.3,178.8 164.8,177.9 165.1,176.8 168.2,174.7 169.2,174.2 " />
    <polygon id="United Kingdom" points="122.3,56.9 121.6,57.8 120.5,58.5 119.5,59.0 119.4,59.6 120.4,59.9 121.9,59.7 123.0,59.1 123.6,59.2 123.3,60.1 121.8,60.8 120.9,61.0 119.4,60.9 118.6,61.4 118.4,61.9 115.6,62.8 114.4,62.9 113.2,63.1 115.6,63.0 117.3,62.7 117.9,62.6 118.9,64.3 118.1,64.8 116.5,65.8 116.1,66.3 114.6,67.0 113.9,67.1 112.7,67.0 112.0,66.9 111.1,66.0 110.8,65.3 111.0,64.6 111.8,64.0 112.5,63.9 113.3,64.0 111.6,63.7 109.5,65.1 110.3,66.1 111.0,66.4 111.7,67.3 110.1,69.0 105.0,71.3 104.4,71.3 101.3,69.3 101.2,68.8 102.0,68.9 102.6,69.1 103.4,68.9 108.0,67.3 106.8,66.6 105.6,66.2 104.4,66.0 103.6,66.1 102.4,65.9 101.5,65.4 102.2,64.9 102.8,64.6 101.9,63.4 101.2,62.2 101.9,60.9 102.7,60.0 103.3,59.6 103.9,59.7 105.9,60.1 105.5,60.7 107.0,62.5 107.0,61.0 108.5,60.6 109.8,60.8 109.0,59.8 108.5,59.1 108.3,58.5 111.6,57.1 112.1,57.2 114.1,56.8 118.8,54.6 119.8,54.1 120.6,53.4 121.2,53.3 121.8,53.7 123.1,55.3 122.3,56.9 " />
    <polygon id="United Kingdom" points="108.6,60.4 107.8,60.4 107.1,60.4 106.6,59.5 107.3,59.3 108.4,59.8 108.8,60.4 " />
    <polygon id="United Kingdom" points="103.9,67.8 102.4,67.8 103.3,67.0 103.9,66.9 104.1,67.5 " />
    <polygon id="United Kingdom" points="68.5,69.4 67.9,69.6 67.3,69.5 67.9,69.1 68.5,69.2 " />
    <polygon id="United Kingdom" points="99.6,71.9 99.1,71.8 99.7,71.2 100.3,71.1 100.8,71.4 99.6,71.9 " />
    <polygon id="United Kingdom" points="99.8,72.2 102.4,73.2 100.7,76.1 98.7,76.4 96.9,76.4 96.6,75.8 96.1,75.3 94.7,74.9 93.7,75.0 93.0,75.0 91.8,74.5 92.8,73.1 94.2,73.0 97.8,72.9 98.5,72.4 99.6,72.2 " />
    <polygon id="United Kingdom" points="123.7,74.9 123.8,76.8 123.6,78.3 123.9,80.8 129.2,82.4 130.8,82.1 132.2,81.7 132.8,81.6 135.0,82.0 134.7,83.1 131.4,85.2 130.9,85.5 130.2,85.8 129.5,86.4 128.6,87.0 127.4,87.3 126.7,87.4 126.2,86.8 127.2,85.4 126.2,83.9 125.3,85.0 124.7,85.0 122.9,84.0 119.8,84.3 116.7,81.9 116.0,81.1 117.2,80.3 117.8,80.4 118.4,80.7 119.0,81.0 119.8,81.1 114.9,78.6 113.8,79.1 114.0,79.8 112.7,80.0 111.2,79.7 110.5,79.3 110.4,78.7 109.3,78.1 109.0,77.6 109.9,76.6 112.4,74.1 113.1,74.2 113.7,74.6 114.0,75.2 116.3,76.3 117.1,76.4 118.4,75.9 117.9,74.1 117.3,73.4 119.0,72.3 120.0,72.2 120.6,72.5 122.8,73.9 123.3,74.4 123.7,74.9 " />
    <polygon id="United Kingdom" points="127.7,76.0 127.2,75.8 127.3,75.0 128.0,74.8 127.7,76.0 " />
    <polygon id="United Kingdom" points="126.3,80.4 125.8,80.5 125.1,79.9 125.2,78.9 125.3,78.1 125.5,77.5 126.2,76.7 126.9,76.3 127.4,76.6 127.2,79.9 126.3,80.4 " />
    <polygon id="United Kingdom" points="97.9,78.8 96.9,78.8 95.4,78.3 94.8,77.8 94.8,77.3 95.9,76.7 97.2,76.9 97.8,76.9 98.5,77.0 99.4,77.4 99.5,78.3 98.6,78.7 97.9,78.8 " />
    <polygon id="United Kingdom" points="99.0,80.2 98.4,80.4 97.6,80.2 98.1,84.4 99.2,85.3 98.0,85.5 97.1,85.5 96.4,85.6 95.9,85.6 95.4,85.4 95.0,84.9 94.5,83.7 94.5,82.9 94.4,79.2 95.7,78.7 96.4,78.9 97.5,79.2 98.9,80.1 " />
    <polygon id="United Kingdom" points="128.3,81.6 127.7,81.5 127.0,81.3 126.5,80.9 127.2,80.6 127.9,80.6 128.5,80.8 128.8,81.3 " />
    <polygon id="United Kingdom" points="115.5,86.7 113.7,86.9 114.2,86.4 115.5,86.5 " />
    <polygon id="United Kingdom" points="92.3,89.2 91.5,89.1 93.9,86.6 94.5,86.9 95.4,88.3 94.1,89.2 93.4,89.3 " />
    <polygon id="United Kingdom" points="119.7,89.4 118.7,89.1 116.7,87.9 117.4,87.2 117.9,86.9 119.0,86.7 120.6,86.9 121.1,87.2 121.3,88.0 121.1,88.7 120.6,89.2 119.8,89.4 " />
    <polygon id="United Kingdom" points="123.6,90.9 122.9,90.8 122.1,90.5 122.2,89.9 123.3,89.3 124.3,89.5 124.3,90.3 123.8,90.9 " />
    <polygon id="United Kingdom" points="113.5,97.5 111.4,98.1 111.0,97.5 112.9,96.3 113.8,95.8 114.5,95.5 115.3,95.2 116.3,95.0 115.9,96.2 113.8,97.4 " />
    <polygon id="United Kingdom" points="131.9,99.1 133.5,99.8 134.9,100.5 134.7,101.6 133.8,102.6 131.3,103.5 130.6,103.7 129.9,103.6 130.3,103.0 129.6,102.7 127.3,103.5 126.6,103.8 120.9,104.9 119.6,104.7 119.0,104.3 118.6,103.7 118.9,103.1 120.1,103.0 120.7,103.3 121.6,103.5 125.4,102.7 126.3,102.4 125.1,102.3 124.5,102.5 123.1,102.6 122.5,102.5 122.4,101.9 123.7,101.0 125.0,100.7 126.2,100.3 126.8,99.9 126.8,99.4 124.7,99.8 124.1,99.9 119.5,98.4 119.6,97.1 122.7,96.1 123.7,95.9 124.3,95.9 125.4,96.2 126.0,96.5 127.0,97.4 127.5,98.2 130.2,98.9 131.5,99.0 " />
    <polygon id="United Kingdom" points="110.0,99.0 109.2,99.0 108.6,99.0 106.9,99.9 106.5,100.7 105.8,100.7 104.7,100.5 104.3,99.5 105.0,99.0 109.5,98.2 110.2,98.6 " />
    <polygon id="United Kingdom" points="123.2,100.2 122.4,100.3 121.6,100.1 121.0,99.9 121.5,99.4 122.3,99.5 123.2,99.9 " />
    <polygon id="United Kingdom" points="137.4,102.0 136.4,102.0 136.8,101.5 137.3,101.4 138.1,101.4 137.5,101.9 " />
    <polygon id="United Kingdom" points="117.7,103.8 117.0,103.7 117.4,103.2 117.9,103.0 117.9,103.6 " />
    <polygon id="United Kingdom" points="135.7,104.6 135.0,104.1 135.4,103.5 136.3,103.4 136.0,104.4 " />
    <polygon id="United Kingdom" points="135.4,106.3 134.6,105.9 135.1,104.9 135.9,104.9 135.4,106.3 " />
    <polygon id="United Kingdom" points="133.0,107.2 134.0,106.3 134.4,106.9 133.7,107.1 133.0,107.2 " />
    <polygon id="United Kingdom" points="128.2,114.7 127.6,115.6 126.3,115.5 125.7,115.3 125.2,115.0 124.9,113.6 125.1,112.9 127.7,110.2 129.1,109.4 131.3,108.3 132.5,107.7 133.5,107.3 134.1,107.9 133.7,108.5 133.1,109.0 130.5,111.9 129.1,113.5 128.2,114.7 " />
    <polygon id="United Kingdom" points="122.5,110.1 121.4,110.0 120.9,110.0 121.6,109.0 122.1,108.6 122.9,108.2 123.8,108.0 122.9,109.9 " />
    <polygon id="United Kingdom" points="124.2,113.5 124.6,115.1 124.9,115.7 125.6,116.0 126.3,117.2 126.4,118.1 125.2,118.8 121.7,120.1 120.7,120.5 120.1,120.5 119.5,120.2 119.6,119.6 120.4,117.5 121.2,116.2 119.5,115.8 119.0,116.0 118.5,116.7 118.0,117.2 116.7,118.1 116.1,118.3 115.5,118.2 115.5,117.1 116.7,114.2 118.5,113.8 119.9,113.9 122.5,112.7 123.2,112.4 123.8,112.3 124.1,113.2 " />
    <polygon id="United Kingdom" points="149.4,117.1 147.1,115.9 145.3,113.7 145.1,113.1 145.7,112.7 148.0,113.6 149.0,114.5 149.6,115.7 149.7,116.9 " />
    <polygon id="United Kingdom" points="147.4,123.6 145.9,123.8 144.7,123.8 143.3,123.4 142.0,122.8 141.6,122.1 140.7,119.9 140.7,119.3 141.1,118.4 142.3,117.6 143.1,117.3 143.7,117.2 144.3,117.3 145.3,117.7 146.0,118.0 147.9,120.9 148.1,123.0 147.4,123.6 " />
    <polygon id="United Kingdom" points="123.0,126.9 122.8,127.6 121.6,127.0 120.9,127.0 121.5,126.6 122.6,126.7 " />
    <polygon id="United Kingdom" points="118.9,128.2 121.1,128.8 123.1,128.6 123.7,128.6 124.6,128.8 125.4,129.2 126.1,129.9 126.0,131.3 126.1,132.3 130.5,136.0 131.7,137.0 132.7,137.0 133.6,137.5 134.1,138.1 134.1,138.9 133.9,139.4 132.8,139.9 132.3,140.0 131.1,140.3 130.1,140.7 129.5,141.1 128.7,142.0 129.0,142.7 129.6,142.7 130.2,141.9 131.1,141.5 132.9,141.1 135.4,141.0 136.1,141.0 136.6,141.0 137.5,141.5 137.7,142.1 138.8,144.2 139.9,145.3 139.9,146.0 139.3,147.7 138.4,148.2 137.3,147.3 137.6,146.8 137.4,146.2 137.4,145.6 137.2,145.1 136.8,144.5 136.1,144.1 135.2,143.7 134.2,143.4 133.7,144.3 134.4,144.6 135.1,145.2 136.7,147.9 137.0,148.6 137.0,149.9 136.4,150.5 135.0,151.3 134.2,151.0 133.1,150.9 131.0,151.0 130.2,151.3 129.8,151.8 130.1,152.6 129.6,153.9 129.1,154.4 127.7,155.1 125.9,155.8 125.4,155.9 124.5,155.7 123.0,154.9 122.5,154.4 120.8,154.2 119.2,153.9 118.6,154.0 116.7,155.2 114.0,155.3 113.1,155.5 112.5,155.5 112.0,155.0 110.1,152.3 107.5,149.9 107.0,148.8 106.0,148.0 104.7,147.3 103.5,147.0 102.7,147.1 100.4,148.8 100.1,149.9 100.8,150.6 100.7,151.4 97.7,153.7 96.9,153.9 91.3,153.6 90.1,153.3 89.8,152.7 88.1,151.9 87.0,151.9 85.4,152.0 84.6,151.7 84.2,150.7 84.1,150.1 83.5,149.8 82.5,149.7 80.5,148.3 79.9,148.1 77.6,146.5 77.3,145.9 80.1,144.9 82.3,144.3 85.0,143.8 86.9,142.9 86.3,142.2 84.7,142.0 83.3,141.3 82.9,140.5 84.8,139.7 85.3,139.8 87.2,140.3 91.4,139.1 93.0,137.5 93.6,136.9 93.9,136.3 94.8,134.7 96.6,132.6 98.3,132.0 98.2,132.6 101.9,132.8 102.6,132.7 103.4,132.2 104.2,131.1 104.8,130.1 106.6,129.8 108.1,129.8 110.2,129.5 112.9,128.9 115.2,128.3 118.3,128.2 118.9,128.2 " />
    <polygon id="United Kingdom" points="169.2,174.2 167.7,174.8 165.2,176.1 164.6,176.5 163.5,176.5 161.7,175.3 159.7,173.1 159.7,170.5 161.8,169.8 162.9,169.7 165.5,170.0 166.2,170.2 167.6,172.0 169.8,172.3 171.3,172.4 170.6,173.5 169.2,174.2 " />
    <polygon id="United Kingdom" points="159.6,173.9 158.8,173.5 157.5,173.0 156.8,172.5 158.3,172.0 159.2,172.6 159.9,173.5 " />
    <polygon id="United Kingdom" points="284.8,216.9 282.2,216.7 281.5,216.4 281.0,215.8 281.3,215.0 282.2,215.1 284.5,215.5 285.4,216.0 285.8,216.5 284.8,216.9 " />
    <polygon id="United Kingdom" points="157.8,221.5 157.3,221.3 157.4,220.7 157.9,221.4 " />
    <polygon id="United Kingdom" points="242.7,230.2 242.2,230.3 240.8,230.0 241.8,229.0 242.4,229.2 242.7,230.1 " />
    <polygon id="United Kingdom" points="239.9,232.3 237.4,234.2 236.9,234.4 236.4,234.6 235.8,234.7 234.8,234.7 232.9,233.8 230.5,232.9 229.9,232.7 229.3,232.7 228.3,232.9 229.3,232.1 234.2,230.3 238.6,231.1 239.1,231.5 239.9,232.3 " />
    <polygon id="United Kingdom" points="120.3,250.0 119.7,250.0 120.2,249.5 " />
  </g>
</svg>