<?xml version="1.0" encoding="UTF-8" standalone="yes"?>
<!DOCTYPE svg PUBLIC "-//W3C//DTD SVG 1.0//EN" "http://www.w3.org/TR/2001/REC-SVG-20010904/DTD/svg10.dtd">
<svg height="250" width="370" xmlns="http://www.w3.org/2000/svg" xmlns:svg="http://www.w3.org/2000/svg" xmlns:xlink="http://www.w3.org/1999/xlink">


<g id="background">
<rect id="" width="370" height="250" fill="#222222"/>
</g>
  <g id="834" style="stroke-miterlimit: 3; fill: #F1F1F1; stroke: #000000; stroke-opacity: 1; stroke-width: 0.05; stroke-linejoin: bevel; stroke-linecap: square">
    <polygon id="Tanzania" points="110.4,0.1 129.2,0.1 132.2,0.1 133.8,0.1 135.2,0.1 138.6,0.1 141.2,0.1 143.7,0.1 145.5,0.1 148.0,0.1 150.6,0.1 151.4,0.1 151.9,0.1 162.6,0.1 163.2,0.1 164.8,0.1 166.2,1.0 174.0,5.4 176.1,6.5 181.1,9.3 193.9,16.5 203.5,21.8 208.2,24.5 211.7,26.4 214.5,28.0 218.5,30.3 226.9,34.9 238.8,41.5 239.4,41.8 240.7,42.5 244.1,44.4 245.7,45.1 246.4,45.4 248.3,46.5 249.9,47.8 250.5,50.9 250.8,52.8 251.0,53.9 250.3,54.0 248.5,55.9 248.2,56.6 248.5,58.3 249.2,58.5 250.2,58.5 251.3,58.8 251.7,59.5 251.8,60.1 252.0,60.9 252.4,61.7 254.0,62.9 267.2,72.3 268.8,73.5 272.0,75.8 274.3,77.4 281.6,82.7 284.5,84.8 285.5,85.5 285.9,86.1 285.9,87.3 285.9,89.6 285.1,91.3 284.4,91.6 284.5,90.8 284.7,90.1 284.2,90.3 284.0,91.3 283.9,91.9 283.7,94.3 282.6,98.8 282.1,100.4 280.8,103.8 280.0,105.9 279.1,107.3 277.5,111.1 276.2,115.4 275.8,116.2 275.5,117.2 275.6,117.7 277.0,119.8 277.1,122.6 277.2,123.8 277.3,124.6 277.7,125.3 278.8,126.7 280.0,127.4 281.2,127.8 281.8,127.5 284.1,129.7 284.7,130.7 286.4,133.6 287.9,135.4 288.8,135.8 289.8,136.1 291.4,136.4 292.2,137.2 292.4,137.9 293.0,138.9 293.5,139.6 293.3,141.6 292.0,143.6 290.6,144.8 289.9,145.8 289.5,146.5 287.7,150.4 287.5,151.3 287.2,153.2 287.2,153.8 287.2,154.3 287.7,157.3 288.3,156.7 288.9,157.0 291.2,158.6 291.1,163.0 288.9,169.4 288.4,169.9 287.6,169.2 287.9,169.9 288.0,172.3 288.7,175.7 289.0,178.5 289.0,179.6 291.4,182.1 293.2,184.2 291.4,183.1 290.2,183.1 289.8,184.0 291.4,184.8 295.5,190.2 295.8,190.9 295.9,194.3 295.8,194.8 297.1,199.3 297.8,201.5 297.9,202.9 297.8,203.8 299.0,204.9 299.4,205.7 299.5,206.3 299.2,207.7 300.0,209.3 301.5,210.0 302.2,210.6 303.3,212.3 303.6,213.5 303.5,214.2 303.7,214.7 304.0,213.6 303.8,213.0 304.0,212.4 305.1,212.8 306.7,213.4 307.0,214.0 307.1,215.3 309.2,216.4 310.1,215.9 309.2,215.3 308.7,215.2 309.4,214.3 313.3,218.1 314.1,219.9 314.2,220.6 313.9,221.2 312.9,222.1 312.3,222.5 307.7,225.3 304.5,227.6 303.2,228.3 301.7,228.8 301.0,229.2 300.1,229.8 299.4,230.3 298.6,230.9 297.0,231.4 296.2,231.5 293.0,232.5 292.4,232.8 289.9,234.6 288.1,235.9 287.4,236.4 286.7,236.7 286.0,236.8 285.5,236.8 284.8,236.4 284.0,236.1 279.2,236.6 278.4,236.8 273.1,239.1 272.5,239.5 270.8,240.7 269.9,241.4 268.9,242.4 267.3,242.0 266.3,241.5 265.7,241.2 265.2,240.8 261.5,239.4 259.7,238.7 258.4,238.8 256.6,239.3 255.8,239.5 255.2,239.8 254.4,240.4 253.3,243.3 253.1,243.9 253.4,244.6 253.3,245.2 252.7,245.8 250.4,246.8 248.1,247.6 245.4,249.4 243.6,249.6 240.5,249.1 238.7,248.8 237.2,248.4 234.2,246.5 230.4,246.0 229.7,246.4 229.2,247.1 228.8,247.7 227.8,248.6 226.7,249.4 224.0,250.0 223.1,249.6 219.7,248.7 218.9,249.0 217.8,249.2 217.2,249.3 215.4,249.2 215.0,248.4 215.1,247.8 215.0,246.6 209.6,242.9 207.2,242.4 204.8,244.0 203.3,245.8 202.9,246.4 201.1,246.9 197.9,246.6 193.2,246.2 187.9,246.1 186.9,246.1 186.9,244.6 186.7,244.1 185.1,241.7 184.6,241.1 183.2,240.5 180.9,237.4 179.6,236.1 179.0,235.8 178.7,235.3 178.2,233.4 178.3,232.4 179.0,231.6 179.4,230.9 179.5,230.2 179.8,227.2 179.8,226.5 179.7,225.2 179.6,224.5 178.9,223.6 178.0,222.6 177.9,222.0 177.8,221.5 177.6,219.0 177.7,218.0 176.9,210.7 176.7,210.0 176.2,208.9 175.7,208.4 174.3,206.7 173.1,205.1 172.2,203.7 169.2,200.8 168.5,200.3 167.6,199.5 166.1,198.0 165.4,197.5 164.7,197.5 163.4,198.5 163.2,199.2 163.3,199.7 163.5,200.4 163.3,201.9 162.5,202.7 162.1,202.1 161.4,201.6 159.1,199.9 154.6,199.8 153.9,200.1 153.0,200.7 152.4,200.7 151.3,200.6 151.0,199.8 150.5,199.0 148.7,197.6 147.1,197.7 146.0,198.0 144.3,197.7 142.0,196.1 141.5,195.4 141.1,194.9 140.4,195.2 139.8,195.6 139.2,195.3 138.2,195.0 137.6,195.0 135.8,194.0 134.2,192.8 132.5,192.6 130.7,192.4 130.1,192.0 129.7,191.5 129.5,190.9 129.4,190.4 127.8,189.2 126.4,189.3 124.9,189.4 124.1,189.4 123.1,189.1 122.5,188.5 121.7,187.8 120.1,187.6 119.3,187.2 118.6,187.3 118.1,187.7 117.5,187.9 116.5,187.0 116.3,186.2 116.3,185.5 116.7,184.9 115.5,184.2 114.0,183.8 113.1,183.6 112.6,183.7 112.0,184.1 111.1,184.3 110.5,184.1 108.4,182.5 107.9,181.9 107.7,180.4 105.9,178.5 104.3,177.7 101.5,177.4 100.0,176.5 99.5,176.4 98.6,176.8 98.1,177.2 97.4,177.3 96.4,177.1 95.6,176.7 94.2,175.8 93.6,175.3 92.6,174.0 91.2,171.8 90.9,171.3 89.8,169.1 89.3,167.6 89.0,166.3 87.8,162.8 87.6,162.3 86.9,161.0 86.6,160.3 85.7,159.1 84.8,157.8 83.5,155.9 82.4,154.1 81.9,153.2 81.6,152.2 81.4,151.0 81.3,150.4 81.3,149.6 81.1,149.1 80.9,148.3 80.2,146.2 79.6,144.8 79.2,144.0 78.8,143.2 77.1,140.7 76.6,140.0 75.7,138.8 75.3,138.3 74.6,137.8 73.0,136.2 72.4,135.7 71.8,135.3 71.0,134.9 70.2,134.5 69.5,134.3 68.8,134.0 65.8,131.6 65.1,131.0 64.7,130.5 62.3,125.7 61.4,124.3 60.9,123.3 60.7,122.7 59.7,117.7 59.6,116.8 59.7,115.9 59.8,115.2 60.1,114.6 60.5,113.9 61.3,113.0 62.0,112.3 62.4,111.7 62.6,111.1 62.8,110.4 62.6,109.1 62.0,106.6 61.4,105.3 61.2,104.7 60.7,104.0 60.3,103.1 60.0,102.1 59.4,100.0 59.1,98.7 58.7,97.4 58.4,96.9 57.7,96.1 57.5,95.5 56.9,94.1 56.6,93.1 56.2,92.0 56.1,91.3 56.0,90.4 56.0,89.7 56.0,88.4 56.2,87.6 56.3,87.0 56.6,86.4 57.3,84.7 57.6,83.9 57.8,83.3 58.0,82.7 58.1,81.5 58.0,80.5 63.7,80.3 65.9,80.1 69.7,77.7 71.9,76.1 75.3,71.9 76.6,69.1 76.6,68.5 78.7,65.0 79.3,64.6 79.9,64.5 80.7,64.9 80.7,64.0 80.4,63.2 80.6,62.6 81.7,59.6 83.0,58.4 83.8,58.0 85.0,57.4 85.7,57.2 86.7,56.4 86.9,55.8 86.1,55.3 86.1,54.8 86.8,54.1 88.5,53.2 89.1,53.6 90.0,53.2 90.7,52.7 91.2,50.4 90.8,48.7 90.8,46.5 88.9,46.4 86.8,46.1 86.6,45.5 85.6,44.7 84.6,44.2 82.9,45.4 81.1,43.5 81.0,43.0 82.5,37.1 83.4,34.2 84.7,32.6 87.6,31.4 88.4,31.7 89.5,32.2 90.5,31.7 91.0,31.0 91.2,30.4 91.1,29.5 91.0,28.8 91.1,27.8 91.8,25.8 92.2,25.3 91.6,24.2 90.1,21.7 90.5,19.8 90.8,18.7 90.4,17.1 90.2,16.4 90.7,15.3 88.8,12.2 88.6,10.3 87.3,9.1 86.2,9.1 84.6,7.8 82.3,3.9 81.9,2.6 82.2,1.8 85.1,1.6 87.3,0.6 88.8,0.0 92.0,0.0 96.0,0.0 100.9,0.0 107.3,0.1 110.4,0.1 " />
    <polygon id="Tanzania" points="297.9,103.9 295.9,103.3 295.7,102.8 295.8,101.7 295.9,101.1 296.7,100.1 297.5,99.1 298.0,97.9 298.1,97.1 296.9,96.4 296.6,94.3 296.5,93.4 296.5,91.8 296.6,91.3 300.7,91.0 301.1,92.9 300.9,93.6 300.3,94.3 299.9,95.5 300.2,96.2 300.7,96.9 300.7,98.3 300.6,99.0 299.4,102.3 297.9,103.9 " />
    <polygon id="Tanzania" points="291.2,121.3 292.4,121.1 292.4,120.0 292.2,119.5 293.1,120.7 294.1,125.1 294.0,126.1 293.8,126.7 293.3,127.2 292.5,127.4 292.0,127.3 291.3,126.7 290.8,125.5 290.1,123.7 287.9,122.2 287.4,122.2 287.5,123.7 286.8,123.6 285.6,122.2 285.2,120.5 285.3,119.9 285.7,119.2 285.7,118.5 285.5,117.4 285.1,116.7 285.1,115.5 285.2,114.6 286.3,113.5 287.5,110.4 288.0,110.0 288.7,110.8 289.1,111.8 289.2,112.8 289.0,114.0 289.3,115.3 289.6,116.1 289.9,116.7 290.6,117.7 290.6,118.6 290.6,119.3 290.9,120.8 291.2,121.3 " />
    <polygon id="Tanzania" points="296.6,162.8 296.0,162.9 295.0,162.4 294.5,161.8 295.9,160.9 299.4,157.9 300.4,156.7 300.8,156.1 301.2,155.6 301.4,155.0 301.9,155.5 301.6,156.8 301.5,157.4 300.5,160.0 300.0,160.8 297.7,162.4 297.0,162.7 " />
  </g>
</svg>