<?xml version="1.0" encoding="UTF-8" standalone="yes"?>
<!DOCTYPE svg PUBLIC "-//W3C//DTD SVG 1.0//EN" "http://www.w3.org/TR/2001/REC-SVG-20010904/DTD/svg10.dtd">
<svg height="250" width="370" xmlns="http://www.w3.org/2000/svg" xmlns:svg="http://www.w3.org/2000/svg" xmlns:xlink="http://www.w3.org/1999/xlink">


<g id="background">
<rect id="" width="370" height="250" fill="#222222"/>
</g>
  <g id="854" style="stroke-miterlimit: 3; fill: #F1F1F1; stroke: #000000; stroke-opacity: 1; stroke-width: 0.05; stroke-linejoin: bevel; stroke-linecap: square">
    <polygon id="Burkina Faso" points="130.1,179.3 130.1,181.3 130.0,184.4 126.9,190.9 126.0,192.2 126.5,194.6 126.5,197.1 127.5,200.5 130.1,207.3 132.0,211.5 132.8,213.8 131.8,216.2 131.8,220.8 132.6,223.0 133.3,232.1 131.8,235.0 132.1,236.8 133.6,238.4 133.3,239.6 132.9,240.8 132.8,241.9 133.2,242.7 134.0,243.5 135.0,244.0 135.9,245.0 136.5,245.9 134.7,249.1 134.0,249.9 133.3,250.0 132.5,249.6 131.5,248.7 129.3,246.2 126.4,242.2 125.5,239.7 124.3,236.8 123.5,235.6 117.3,230.6 113.6,227.7 105.5,226.9 94.9,225.4 91.7,225.8 89.9,226.2 84.0,227.9 83.2,228.5 81.6,229.4 77.3,231.8 73.5,230.8 67.6,234.4 67.1,234.8 66.6,237.5 66.4,238.7 65.2,240.9 64.3,240.2 60.1,238.4 56.2,237.0 52.4,235.6 50.3,236.2 50.0,236.7 47.9,236.6 44.8,234.9 43.2,233.4 43.8,232.9 44.6,232.8 44.3,231.0 42.4,229.4 37.1,225.6 35.3,220.6 29.6,210.2 28.9,209.9 24.2,209.3 23.1,209.3 21.4,209.9 20.0,210.3 18.6,210.6 17.7,210.5 16.8,210.1 14.3,208.1 12.0,204.7 12.1,204.2 13.6,200.2 14.1,195.6 14.4,193.0 14.6,192.3 14.9,191.7 15.4,189.8 16.7,186.9 16.9,186.1 16.7,185.4 15.6,184.3 15.3,183.7 13.8,179.3 13.5,178.1 13.4,176.4 13.8,175.8 14.5,175.6 17.6,175.3 18.6,175.1 19.3,174.8 20.4,174.4 21.1,173.9 21.7,173.3 24.0,168.4 25.7,159.1 26.0,155.9 25.5,154.0 24.8,153.2 23.1,149.2 22.3,144.8 22.9,142.3 27.5,138.3 28.3,137.6 29.7,137.0 31.4,136.5 37.4,135.1 48.1,132.7 51.0,132.5 51.1,131.5 51.3,130.5 53.8,126.6 57.6,123.4 60.5,122.3 59.8,116.8 60.1,115.4 60.4,114.7 61.3,113.5 62.1,112.8 62.8,112.0 60.4,108.1 59.4,107.5 58.8,107.3 58.0,106.6 58.0,106.0 58.2,104.1 66.2,104.1 67.0,104.0 67.5,103.9 69.1,103.2 69.7,101.8 70.3,99.1 69.8,94.2 69.6,93.4 69.1,92.7 68.0,92.0 67.0,91.1 66.7,90.6 64.1,86.7 64.0,86.2 65.0,84.4 68.4,80.9 70.3,79.4 71.5,79.5 72.2,79.2 79.9,70.6 80.4,69.4 83.1,71.4 83.0,72.1 88.3,75.7 95.7,81.7 96.9,82.6 99.0,83.7 100.5,83.7 103.0,84.0 103.6,84.2 104.0,83.6 104.1,82.2 103.9,81.4 103.4,80.7 103.3,79.9 103.7,79.4 104.3,79.4 105.5,79.4 106.4,79.3 112.6,78.9 112.5,77.4 112.4,75.7 111.4,69.7 110.8,67.3 111.5,60.9 113.5,60.4 118.4,61.4 124.6,63.9 125.3,63.7 128.1,62.7 127.8,62.0 127.0,59.8 127.0,55.6 127.1,55.1 129.8,47.3 130.9,45.4 138.3,40.5 140.4,38.3 145.9,34.9 146.7,35.1 149.9,35.9 153.6,36.9 154.4,37.3 156.0,38.0 162.0,40.9 166.4,39.3 166.9,34.0 167.1,32.5 167.2,31.0 167.4,29.6 167.6,26.7 170.8,26.1 176.5,26.4 180.9,25.6 194.8,16.8 196.7,15.6 206.6,13.1 207.4,13.4 210.5,10.7 222.8,0.0 235.1,0.0 237.6,3.4 243.8,0.2 254.6,3.9 265.0,7.4 265.1,8.6 264.5,9.3 263.8,9.8 263.4,10.3 263.1,10.9 265.2,14.5 264.5,16.8 262.0,24.6 263.0,27.2 264.9,28.9 267.7,31.4 268.7,31.6 271.5,35.1 272.4,36.4 272.6,37.0 271.9,39.6 270.7,40.8 270.3,41.3 270.1,42.0 275.1,51.4 277.3,54.0 281.0,60.4 281.5,61.1 282.1,61.5 289.2,62.1 298.4,66.6 299.1,67.9 299.4,68.6 299.2,69.3 299.2,70.1 300.0,71.2 304.0,73.4 306.1,74.1 307.5,74.5 308.3,74.3 308.8,74.2 309.3,74.3 310.8,75.8 310.7,76.4 306.6,77.8 303.3,76.8 301.8,76.1 300.5,75.5 299.1,75.1 298.2,75.2 298.2,76.7 298.1,87.5 298.1,89.5 299.1,90.5 303.7,91.0 312.7,98.4 324.0,107.8 336.9,108.7 339.4,104.7 342.0,103.3 347.2,104.1 348.4,104.7 348.9,105.1 351.3,107.8 352.2,109.4 353.8,114.3 353.3,117.1 352.5,117.0 349.6,117.2 346.4,118.3 345.6,118.8 345.1,119.8 356.6,135.5 359.7,139.7 359.8,140.4 357.5,145.6 356.1,149.2 354.3,150.8 353.8,151.2 351.0,152.9 344.8,159.4 343.7,160.5 343.2,160.9 342.2,161.1 338.3,160.5 337.7,160.4 336.7,159.8 333.9,160.1 331.0,161.1 325.6,162.3 324.6,162.1 324.2,161.6 324.2,160.8 323.7,159.7 322.6,159.3 319.8,159.2 317.7,159.3 317.1,159.5 316.6,159.8 315.9,160.2 313.0,164.0 313.0,164.5 313.3,165.1 313.9,165.7 310.2,168.6 307.0,167.8 305.1,169.6 302.2,174.0 297.9,175.9 296.4,178.1 295.0,179.6 290.3,179.6 286.5,179.6 283.9,179.6 282.3,180.1 276.8,182.2 277.2,180.7 276.9,179.3 272.9,178.3 264.2,176.6 263.0,176.3 256.8,175.1 250.7,173.8 248.4,173.4 246.9,173.1 242.1,172.1 241.9,172.9 238.6,175.7 227.8,183.1 227.3,183.2 225.4,181.4 224.8,179.9 220.2,179.5 215.0,179.1 211.3,178.8 206.6,178.8 206.7,179.5 194.3,179.4 192.2,178.3 186.3,178.2 185.6,179.4 178.7,179.4 167.1,179.4 153.6,179.4 134.4,179.3 130.1,179.3 " />
  </g>
</svg>