<?xml version="1.0" encoding="UTF-8" standalone="yes"?>
<!DOCTYPE svg PUBLIC "-//W3C//DTD SVG 1.0//EN" "http://www.w3.org/TR/2001/REC-SVG-20010904/DTD/svg10.dtd">
<svg height="250" width="370" xmlns="http://www.w3.org/2000/svg" xmlns:svg="http://www.w3.org/2000/svg" xmlns:xlink="http://www.w3.org/1999/xlink">


<g id="background">
<rect id="" width="370" height="250" fill="#222222"/>
</g>
  <g id="860" style="stroke-miterlimit: 3; fill: #F1F1F1; stroke: #000000; stroke-opacity: 1; stroke-width: 0.05; stroke-linejoin: bevel; stroke-linecap: square">
    <polygon id="Uzbekistan" points="180.6,177.9 180.2,177.4 179.6,177.1 179.0,177.2 178.2,177.4 177.6,177.7 177.0,177.9 176.3,177.9 175.2,177.4 174.4,176.9 173.5,176.3 172.0,175.4 170.1,174.4 168.4,173.6 166.2,172.4 165.0,171.2 163.7,169.8 162.9,169.0 162.2,168.4 161.2,167.8 158.2,166.1 156.9,165.5 155.1,164.7 153.7,164.0 152.9,163.6 151.7,163.0 150.8,162.5 149.9,161.8 148.7,161.0 147.0,160.0 146.3,159.6 145.0,159.0 141.9,157.3 141.4,156.9 138.8,154.7 138.4,153.7 138.3,153.1 138.5,152.4 138.2,150.6 137.9,149.3 137.0,146.3 136.4,145.8 135.2,145.2 134.7,145.1 134.1,145.0 133.5,144.7 132.3,143.2 131.7,142.3 130.3,139.9 129.3,137.2 129.0,136.5 128.9,135.8 129.0,135.2 129.0,134.5 128.8,133.8 128.3,133.0 127.0,131.4 123.7,129.4 121.5,128.3 120.9,128.0 117.6,127.3 116.9,127.3 116.3,127.9 116.0,129.1 115.4,129.8 114.7,130.1 114.1,130.3 113.1,130.2 111.5,129.6 111.1,129.0 109.6,128.7 108.2,128.8 107.4,128.8 106.8,128.4 106.3,128.4 103.7,128.2 101.4,128.2 100.9,128.3 100.4,128.5 99.0,128.8 97.7,129.1 96.7,129.1 96.1,128.9 95.5,128.5 94.5,127.7 93.8,127.3 93.2,127.0 92.1,126.5 91.0,126.3 90.4,126.0 89.8,125.8 89.2,125.6 88.5,125.2 87.9,124.5 88.2,122.6 88.4,122.1 89.5,121.5 90.1,121.3 89.8,120.3 89.2,119.6 88.0,118.2 87.7,117.6 88.1,117.0 88.9,116.5 89.5,116.4 90.4,116.7 90.9,116.9 91.6,117.1 92.1,117.0 91.9,116.2 90.2,115.3 89.5,114.8 89.2,114.2 86.8,111.5 86.8,108.7 86.5,107.6 84.5,105.9 83.2,105.4 80.5,105.3 78.1,105.6 76.9,105.7 76.1,105.9 75.2,106.0 74.5,105.9 73.8,105.8 70.8,104.8 70.4,104.2 70.2,103.6 70.3,103.0 69.9,102.1 69.2,101.4 68.0,100.6 67.4,100.5 66.7,100.8 66.1,100.9 65.2,100.9 64.3,100.8 63.6,100.6 61.5,99.2 60.6,98.6 60.0,98.2 58.9,97.1 56.6,95.1 56.0,95.4 55.9,96.0 55.8,96.6 55.7,97.3 55.5,97.8 54.4,98.1 53.1,98.1 52.2,98.0 51.7,97.9 51.0,97.7 50.3,97.4 49.8,97.3 49.0,97.3 46.7,98.2 46.2,98.9 47.4,99.6 48.1,99.8 48.6,99.9 49.3,100.1 49.8,100.4 50.5,101.0 54.3,105.5 52.7,105.9 52.0,105.9 52.1,104.7 52.0,104.0 51.3,103.2 50.1,102.6 49.2,102.3 48.6,102.1 45.3,101.4 44.8,101.3 43.7,101.4 41.9,102.7 42.0,103.7 42.4,104.3 42.2,104.9 41.2,106.5 40.4,107.7 39.7,108.2 35.9,108.9 35.1,108.9 34.1,108.7 32.8,108.6 32.3,108.5 31.8,108.5 31.2,108.5 30.6,108.6 29.9,108.7 29.2,109.0 28.6,109.3 28.0,109.5 27.3,109.9 26.1,110.9 25.7,111.5 25.3,112.3 24.7,113.1 23.8,113.8 23.2,114.0 22.3,114.2 21.8,114.3 21.1,114.7 20.9,115.4 21.1,119.1 22.4,123.5 22.7,124.1 23.4,124.9 24.0,125.3 24.5,126.3 22.9,128.0 22.3,128.2 20.7,128.0 20.1,127.9 19.3,127.6 18.2,127.4 17.3,127.4 16.2,127.5 15.1,127.6 14.4,127.6 11.7,127.4 7.8,127.2 4.7,127.0 0.4,126.8 0.1,126.2 0.0,121.4 0.0,114.5 0.0,109.4 0.1,107.6 0.0,101.9 0.0,95.9 0.0,90.5 0.0,89.0 0.0,83.2 0.0,77.2 0.0,71.8 0.0,70.3 0.0,58.2 0.0,53.3 0.0,47.6 5.6,46.3 8.4,45.6 14.0,44.3 15.4,44.0 16.2,43.9 16.8,43.7 23.0,42.3 30.0,40.7 34.3,39.8 38.4,38.9 43.3,37.9 49.0,36.6 55.2,35.4 78.7,47.6 111.0,64.6 114.5,67.4 121.0,72.8 125.3,76.4 128.4,79.0 129.8,80.3 137.5,79.2 139.8,78.9 142.6,78.6 147.1,78.0 155.4,77.0 160.0,77.4 162.4,77.6 167.4,78.0 172.3,78.4 172.9,78.4 182.3,78.9 185.0,77.8 190.6,75.6 192.5,74.8 194.5,76.7 198.6,80.3 199.7,81.4 204.2,83.4 204.9,83.7 207.7,87.4 210.0,90.9 211.6,93.4 218.1,90.8 217.9,95.0 217.7,97.8 217.5,99.2 217.0,103.1 216.3,103.1 216.2,105.0 216.2,106.6 216.1,111.3 216.1,112.2 226.8,112.2 227.1,114.5 227.2,115.8 227.5,117.7 227.6,118.3 229.2,123.9 231.0,130.0 231.8,130.2 234.3,130.6 238.6,130.7 240.4,130.7 244.6,130.6 246.5,130.5 247.6,130.4 248.6,130.2 250.8,129.9 253.0,129.7 257.2,129.8 258.3,131.0 260.7,132.4 261.6,132.7 261.7,134.1 261.1,135.8 260.8,136.4 260.2,137.0 259.6,137.9 263.1,140.2 264.1,140.7 265.1,141.1 268.4,142.5 268.9,142.5 271.7,142.4 272.2,142.2 272.6,140.9 272.1,139.9 271.3,139.4 270.8,136.8 271.3,135.5 272.5,134.9 273.9,134.4 274.4,134.0 274.7,133.1 275.0,132.4 275.5,131.9 277.4,131.2 280.8,129.5 281.5,129.1 281.7,127.9 281.8,126.2 281.3,125.9 285.0,123.9 285.6,123.6 287.6,123.4 290.7,121.4 293.7,119.4 296.3,118.8 297.0,118.6 298.3,118.6 299.7,118.5 300.3,118.4 302.9,117.0 304.6,116.0 305.6,114.9 306.9,113.2 308.8,111.4 309.4,111.1 310.2,110.7 311.5,110.2 312.0,110.1 312.5,110.3 313.1,110.8 313.2,111.4 314.8,111.8 315.3,111.7 315.7,110.8 315.9,110.3 317.7,108.1 318.6,107.8 319.5,108.0 320.1,108.0 320.6,107.9 321.2,107.6 322.5,106.8 323.8,105.9 324.3,105.7 324.9,105.8 325.6,106.1 326.9,106.9 328.0,107.5 328.8,107.8 329.0,108.4 328.0,109.2 322.9,111.3 322.2,111.4 321.5,111.3 320.7,111.3 320.1,111.8 319.9,112.6 320.1,113.2 319.9,113.8 318.6,114.1 317.9,114.1 316.9,114.1 316.4,114.3 313.2,116.5 312.5,117.5 312.2,118.1 308.3,120.1 307.8,120.3 307.3,120.5 306.2,120.8 305.7,121.1 305.5,121.9 305.7,122.4 306.2,122.7 307.4,122.7 308.0,122.7 308.6,122.8 309.1,122.9 309.8,123.1 310.4,123.4 310.9,123.8 311.9,124.9 312.9,124.8 314.4,124.3 315.1,124.0 315.9,123.6 316.7,123.5 318.2,125.1 318.7,126.1 318.7,126.9 319.2,128.4 322.9,129.4 326.6,130.3 327.5,129.9 328.1,129.6 328.7,129.7 331.7,131.1 332.5,131.2 332.7,130.6 332.7,129.6 332.7,128.8 332.6,128.2 332.5,126.7 332.7,126.2 334.0,126.9 334.6,127.2 335.2,127.3 336.0,127.1 336.5,126.6 337.2,125.4 337.4,124.7 337.4,124.1 336.8,123.5 336.6,122.9 337.0,121.9 337.9,121.8 341.8,126.0 342.3,126.6 342.5,127.3 342.5,128.0 342.3,128.6 342.3,129.4 342.9,129.8 347.0,129.6 347.8,129.4 348.3,129.4 349.4,132.5 349.3,133.0 348.9,133.7 351.6,133.1 353.2,132.9 355.5,133.4 357.2,134.8 357.7,135.3 357.9,135.8 358.9,136.4 359.9,136.6 360.4,136.6 364.1,136.6 367.3,136.6 369.6,137.1 370.0,137.6 369.4,138.1 368.7,138.6 365.1,140.0 363.6,140.4 363.1,140.5 362.2,140.7 360.0,142.7 359.3,143.6 358.7,144.2 358.1,144.3 357.6,144.2 353.6,142.1 353.0,142.1 352.9,143.9 353.3,144.4 354.1,144.8 354.5,145.3 354.3,146.0 354.1,146.6 353.2,146.9 352.2,146.5 350.9,146.0 350.9,145.5 350.3,145.3 349.6,145.3 348.7,145.3 347.2,146.0 345.0,148.1 345.7,149.6 342.7,149.9 340.7,151.0 340.2,151.5 338.7,152.1 334.5,150.7 333.7,150.3 333.5,149.7 331.6,148.8 329.6,148.7 328.5,149.1 326.2,149.4 325.2,149.3 324.6,149.4 323.2,149.5 322.8,150.1 322.3,150.1 320.4,150.1 319.4,150.4 318.7,150.6 317.9,150.8 317.1,150.9 315.6,150.9 315.0,150.7 314.6,150.2 311.7,147.8 309.7,147.2 309.1,146.1 309.1,145.5 309.7,145.1 310.6,144.8 313.2,143.3 317.4,140.8 318.4,140.1 318.6,139.3 318.1,139.0 317.1,138.8 316.0,137.5 315.8,136.6 313.5,134.3 312.0,133.1 311.3,132.8 310.8,132.7 310.3,132.9 309.7,133.6 309.8,134.3 309.6,134.9 308.8,135.9 307.2,136.8 302.7,138.7 301.6,139.1 300.9,139.3 300.4,139.4 299.5,139.5 298.4,139.8 297.8,139.9 297.1,140.6 296.6,141.2 296.0,141.5 295.4,141.6 294.9,141.5 294.4,141.1 292.9,139.8 292.5,139.2 291.7,138.5 290.0,137.9 288.9,138.1 288.0,138.5 287.4,139.2 285.9,142.5 285.6,144.4 287.2,147.3 287.4,148.0 287.0,150.8 286.5,151.1 285.5,151.2 284.8,151.2 284.1,151.1 283.1,150.9 281.8,150.4 281.0,150.2 275.1,150.9 274.4,150.9 273.8,151.1 272.4,151.4 271.8,151.4 271.8,152.0 273.2,152.7 273.9,152.8 275.0,152.7 275.6,152.6 277.3,152.2 278.0,152.1 279.8,152.1 280.3,152.9 280.3,153.7 278.7,153.7 276.3,153.6 275.5,153.8 276.0,155.2 276.4,155.8 277.2,156.4 278.1,157.4 277.7,158.0 275.1,159.0 274.4,158.7 274.2,158.2 272.7,158.3 272.1,160.3 272.1,162.7 271.6,163.4 270.2,164.9 269.6,165.1 268.8,165.3 266.8,165.3 266.2,165.3 262.3,165.0 261.8,164.9 260.3,164.7 256.6,163.9 255.6,163.7 255.0,163.5 253.4,163.3 252.7,163.3 251.7,163.6 247.9,165.5 246.5,166.5 246.5,167.5 246.3,168.9 245.9,170.4 244.9,170.7 244.9,171.8 245.1,172.3 248.0,173.2 249.2,173.2 250.0,173.1 250.7,173.3 251.9,173.9 252.0,176.5 252.6,177.0 253.2,177.1 255.3,177.4 255.9,177.3 257.2,176.9 258.2,176.7 260.9,176.9 261.3,177.4 261.7,178.1 262.4,178.9 262.8,179.8 262.4,180.7 261.9,181.0 261.2,181.2 260.2,184.1 260.1,186.6 261.2,189.1 263.1,191.2 264.2,191.7 265.7,192.5 266.3,193.1 266.7,193.9 266.8,194.5 266.7,195.0 266.2,196.6 265.8,197.4 264.5,199.3 264.0,199.6 262.5,199.8 261.8,200.0 261.4,200.9 261.2,201.5 260.7,202.5 260.1,203.5 259.7,204.0 258.7,205.1 258.0,205.6 257.2,206.3 256.5,207.0 255.6,208.2 255.1,209.1 254.8,209.6 254.6,210.4 254.6,211.0 255.0,211.7 255.1,212.4 255.2,213.2 255.1,213.9 255.0,214.4 254.7,215.1 254.2,215.7 253.6,215.4 253.0,215.1 251.0,214.7 248.4,214.2 246.9,214.6 245.7,215.2 245.2,215.4 243.6,215.6 242.9,215.9 242.2,216.0 241.8,215.2 241.3,214.6 239.1,212.6 237.5,211.8 236.4,211.7 235.4,211.8 234.0,212.1 231.0,212.3 229.0,212.2 228.1,212.0 227.1,212.1 226.6,211.5 226.6,208.5 227.1,203.3 227.3,202.5 228.7,200.9 229.3,200.4 229.8,199.8 230.0,199.2 229.7,198.6 228.8,198.1 227.8,197.7 227.1,197.5 226.1,197.5 225.4,197.6 224.6,197.5 222.6,196.7 222.0,196.3 221.6,195.6 221.1,195.1 217.3,193.5 216.7,193.2 213.2,192.4 212.5,192.4 211.6,192.7 210.8,193.3 210.1,193.5 209.4,193.6 208.1,193.3 207.5,193.2 206.8,192.9 206.1,192.6 201.2,190.1 200.2,189.6 199.5,189.1 198.2,188.1 197.2,187.4 196.6,186.9 194.0,185.1 193.4,184.8 192.5,184.4 192.0,184.3 191.2,184.1 189.6,183.6 188.5,183.2 187.0,182.6 186.0,182.0 182.4,179.6 181.9,179.2 181.4,178.7 180.8,178.0 " />
  </g>
</svg>