<?xml version="1.0" encoding="UTF-8" standalone="yes"?>
<!DOCTYPE svg PUBLIC "-//W3C//DTD SVG 1.0//EN" "http://www.w3.org/TR/2001/REC-SVG-20010904/DTD/svg10.dtd">
<svg height="250" width="370" xmlns="http://www.w3.org/2000/svg" xmlns:svg="http://www.w3.org/2000/svg" xmlns:xlink="http://www.w3.org/1999/xlink">


<g id="background">
<rect id="" width="370" height="250" fill="#222222"/>
</g>
  <g id="887" style="stroke-miterlimit: 3; fill: #F1F1F1; stroke: #000000; stroke-opacity: 1; stroke-width: 0.05; stroke-linejoin: bevel; stroke-linecap: square">
    <polygon id="Yemen" points="300.3,122.3 299.0,124.4 294.4,125.8 291.8,126.8 284.4,130.1 283.1,130.8 282.7,131.6 282.7,132.1 280.2,133.1 277.4,134.1 270.5,136.9 269.7,137.3 267.2,137.9 264.3,138.5 262.3,138.9 257.9,139.9 254.3,140.9 253.5,141.1 253.0,141.0 248.4,141.8 247.9,141.9 246.1,142.6 245.0,143.0 243.8,143.9 236.8,148.1 232.8,148.8 232.2,148.9 232.2,148.3 230.0,148.0 222.1,150.3 216.6,152.2 213.0,153.9 207.9,156.1 203.7,157.9 203.1,158.1 202.4,158.5 200.9,160.5 200.0,162.9 200.3,163.6 200.2,164.2 195.1,169.3 191.5,172.4 190.6,173.0 188.1,172.8 186.4,173.0 185.9,173.1 182.2,174.0 178.6,174.5 177.5,174.6 176.2,174.6 174.9,174.4 173.4,173.5 171.4,172.9 170.4,172.7 169.6,172.6 168.8,172.7 167.7,173.1 167.1,173.3 166.1,174.1 165.6,174.7 164.4,175.7 163.4,176.3 161.8,176.8 160.6,177.0 158.4,177.9 157.4,178.7 157.0,179.3 156.4,179.9 152.0,183.9 150.8,184.8 150.0,185.3 147.8,185.6 146.8,185.9 145.8,186.2 143.2,187.0 138.1,188.0 135.9,188.5 134.4,189.2 133.4,189.9 132.2,190.5 130.6,191.2 128.5,191.9 121.6,192.7 117.8,192.7 116.1,192.4 112.0,192.5 108.3,192.6 105.6,192.9 105.0,193.0 101.3,193.5 96.6,194.7 95.5,195.1 93.4,197.1 92.8,197.7 91.2,199.4 90.9,200.0 90.6,200.5 90.3,201.1 88.7,203.1 87.9,203.5 86.4,203.9 85.9,204.0 85.3,204.0 84.6,204.2 83.4,204.5 82.4,204.7 81.5,205.0 80.1,206.0 79.2,206.8 78.0,209.6 77.7,210.6 77.5,211.7 77.8,212.5 77.1,213.0 76.2,212.7 75.1,212.1 76.0,211.6 77.1,211.5 77.1,210.9 76.6,210.6 76.6,209.9 76.1,209.8 76.0,210.4 74.7,210.4 73.6,211.0 72.8,211.9 72.3,211.5 71.8,211.5 71.9,212.5 72.4,212.0 73.4,212.4 73.3,213.1 72.8,213.6 71.4,213.7 70.5,213.3 70.6,212.6 70.0,212.5 69.3,212.5 68.7,212.4 67.5,213.3 67.4,212.4 65.9,211.3 64.4,211.0 63.8,210.9 62.9,211.0 62.0,211.3 61.3,211.8 59.7,213.3 58.4,214.6 57.5,215.1 54.1,216.5 50.6,217.1 43.5,217.9 42.8,217.7 42.0,216.4 39.3,215.0 35.4,213.7 32.6,213.0 32.0,213.2 31.4,213.5 30.2,214.9 29.6,215.2 28.6,215.3 28.1,215.1 28.5,212.9 28.8,212.1 28.8,211.3 28.7,210.6 26.4,206.3 24.7,203.7 22.4,199.9 21.6,199.0 21.0,197.1 20.9,196.6 21.1,195.7 21.6,194.7 22.4,188.1 22.5,186.5 22.6,185.1 22.7,184.4 22.5,183.0 21.2,178.4 20.7,177.8 20.0,177.3 19.3,176.8 17.7,175.6 16.5,174.4 16.6,171.8 16.9,169.5 17.0,168.9 15.6,165.1 14.4,160.5 14.7,157.6 14.6,157.0 13.4,154.5 12.7,152.7 12.1,150.1 12.0,149.1 12.4,147.5 12.1,145.7 11.8,144.5 9.9,139.5 9.5,138.9 9.0,138.6 7.2,137.7 6.3,137.2 5.1,136.7 3.9,136.7 3.9,135.8 4.4,134.7 5.2,133.8 6.8,136.0 7.7,136.0 7.9,135.2 7.9,132.5 7.2,128.8 6.4,127.1 5.9,126.5 5.1,125.5 4.6,123.4 4.3,121.4 4.4,120.9 5.2,120.4 5.8,120.0 6.3,117.4 7.4,116.8 8.6,115.8 8.9,113.0 9.0,109.9 9.0,109.2 8.0,102.5 7.8,101.6 7.3,100.4 8.3,100.4 11.3,99.0 15.5,95.4 16.0,94.6 16.3,93.5 16.7,91.3 17.3,91.0 18.0,91.0 20.2,91.3 19.9,89.9 18.9,86.3 17.6,83.6 18.5,77.3 19.7,70.5 21.6,68.4 22.2,67.9 23.4,66.9 24.5,66.3 25.2,65.9 26.4,65.2 27.4,64.8 28.0,64.7 29.6,64.9 32.9,66.1 33.6,66.5 34.1,67.3 34.5,68.0 36.7,69.8 37.2,70.1 42.3,71.5 42.9,71.6 47.6,70.3 50.6,68.4 56.6,68.1 58.9,68.3 60.1,68.7 75.9,75.1 90.6,80.9 117.2,91.5 117.2,117.8 117.2,124.0 149.6,88.8 169.8,66.8 192.8,41.8 231.0,33.1 268.8,24.6 293.1,19.1 317.4,70.3 318.3,72.2 327.7,92.2 324.9,92.7 322.4,93.3 321.6,93.9 321.0,94.3 320.0,94.8 316.0,96.4 313.4,97.0 312.3,97.2 311.6,97.3 310.8,97.7 308.8,98.8 308.3,99.1 307.5,99.6 306.8,100.2 302.4,103.7 300.3,106.7 300.0,107.3 298.0,112.5 298.7,116.2 299.8,119.6 300.3,122.3 " />
    <polygon id="Yemen" points="1.2,134.7 0.3,134.2 0.0,133.7 0.4,131.2 0.7,130.4 1.6,129.2 2.7,129.0 3.2,129.3 3.0,131.0 2.4,132.6 1.8,133.8 1.4,134.5 " />
    <polygon id="Yemen" points="7.2,177.0 6.4,176.8 4.5,174.5 4.1,173.8 5.8,172.4 6.5,172.1 7.1,172.6 7.4,173.5 7.6,174.2 7.4,176.8 " />
    <polygon id="Yemen" points="6.2,183.6 4.2,184.8 3.7,184.2 4.8,182.6 5.9,181.6 7.2,181.0 7.3,182.1 6.2,183.6 " />
    <polygon id="Yemen" points="348.2,217.2 349.4,217.5 350.1,217.5 355.3,215.9 357.2,215.0 358.0,214.4 359.1,214.6 359.7,214.8 360.8,215.4 362.1,216.1 363.1,216.2 368.9,218.3 370.0,219.0 369.8,219.5 368.0,221.4 362.1,223.8 360.8,224.7 359.8,225.3 359.2,225.5 355.7,225.6 348.8,226.6 347.9,226.7 347.1,226.7 343.9,226.1 342.7,225.8 341.9,225.5 335.8,221.0 334.3,219.4 335.8,219.1 336.4,218.7 336.8,217.6 336.8,216.9 336.6,216.2 339.6,214.0 344.1,214.3 344.7,214.7 346.3,215.7 347.8,216.8 " />
    <polygon id="Yemen" points="27.4,216.7 26.2,216.2 26.1,215.6 26.9,215.4 27.4,215.7 27.5,216.6 " />
    <polygon id="Yemen" points="300.4,230.1 301.8,230.1 304.4,230.1 305.3,230.1 305.4,231.5 303.7,231.8 301.5,231.7 298.7,231.0 297.2,230.5 296.6,230.2 295.9,229.6 296.0,228.8 297.3,228.6 298.2,228.9 298.9,229.5 299.6,229.9 300.4,230.1 " />
    <polygon id="Yemen" points="326.8,232.1 324.6,231.5 325.0,230.9 325.8,230.7 327.1,230.8 327.7,231.6 327.1,232.0 " />
    <polygon id="Yemen" points="334.7,232.9 332.6,232.8 332.1,232.4 332.7,232.2 333.2,232.1 334.5,232.5 " />
  </g>
</svg>