<?xml version="1.0" encoding="UTF-8" standalone="yes"?>
<!DOCTYPE svg PUBLIC "-//W3C//DTD SVG 1.0//EN" "http://www.w3.org/TR/2001/REC-SVG-20010904/DTD/svg10.dtd">
<svg height="250" width="370" xmlns="http://www.w3.org/2000/svg" xmlns:svg="http://www.w3.org/2000/svg" xmlns:xlink="http://www.w3.org/1999/xlink">


<g id="background">
<rect id="" width="370" height="250" fill="#222222"/>
</g>
  <g id="894" style="stroke-miterlimit: 3; fill: #F1F1F1; stroke: #000000; stroke-opacity: 1; stroke-width: 0.05; stroke-linejoin: bevel; stroke-linecap: square">
    <polygon id="Zambia" points="112.2,237.9 110.8,237.5 108.4,236.8 105.6,236.4 104.5,236.3 104.0,236.3 103.4,236.5 102.6,237.3 102.1,237.3 101.4,237.1 100.4,236.6 98.9,236.0 97.5,235.8 93.7,235.9 88.6,236.9 83.1,238.0 74.4,239.6 73.9,239.4 67.5,235.9 64.0,232.2 56.4,225.6 55.6,224.8 49.7,218.4 44.5,214.0 42.7,212.7 41.9,212.2 40.6,210.9 40.4,208.4 40.3,207.5 39.9,206.6 38.9,204.5 37.5,203.1 37.1,201.6 37.1,198.5 37.1,188.5 37.1,184.6 37.1,171.9 37.1,170.6 37.1,169.3 37.1,166.7 37.1,159.4 37.1,148.1 37.1,147.1 37.1,145.8 37.0,141.0 37.0,140.3 37.0,134.1 37.0,130.6 37.0,122.7 49.7,122.7 62.3,122.7 69.5,122.7 73.1,122.8 77.2,122.8 84.6,122.8 88.2,122.8 87.9,121.6 87.6,121.0 86.7,120.0 86.2,119.5 85.6,119.0 85.1,118.5 84.8,117.8 84.8,116.8 87.0,110.3 87.3,109.8 88.9,107.3 88.8,104.8 88.6,104.1 87.9,103.2 87.3,102.8 87.3,94.3 87.8,93.2 88.1,92.6 87.7,90.3 87.5,89.8 86.9,88.9 88.4,83.6 88.9,82.9 89.8,82.2 88.4,78.4 87.9,75.1 87.4,70.0 87.3,68.8 89.0,68.9 90.0,69.3 90.9,69.8 91.3,71.5 92.2,72.8 95.3,73.2 95.8,73.3 97.1,74.2 97.7,74.8 98.2,77.2 98.1,78.8 97.1,80.6 97.2,82.3 98.8,83.6 100.9,83.7 102.1,83.3 102.6,82.8 103.0,82.2 105.2,80.6 106.3,80.1 112.5,78.7 113.7,78.7 114.6,78.6 116.0,78.7 117.6,78.5 119.2,77.9 120.2,77.3 121.0,76.9 121.6,77.0 121.7,79.0 121.1,80.3 120.5,81.0 120.3,81.5 121.0,85.1 121.2,86.1 122.0,88.2 125.6,90.0 130.5,91.4 134.3,92.3 137.7,94.6 138.4,94.9 139.4,94.9 140.1,94.9 143.3,94.8 149.1,95.0 149.7,95.1 150.4,95.6 153.4,96.6 155.4,97.0 157.3,96.9 160.1,96.7 160.6,96.5 162.4,95.2 163.0,94.6 163.4,93.4 163.5,91.4 164.2,87.3 168.6,86.4 169.1,87.3 169.3,89.1 169.4,89.8 169.3,90.8 169.4,91.5 169.7,92.1 170.2,92.6 172.5,94.1 173.0,94.4 174.0,95.0 175.0,95.7 175.7,96.5 175.9,97.3 175.9,97.8 176.0,98.6 176.9,101.3 177.2,101.9 177.8,102.6 178.4,103.0 179.2,103.4 179.8,104.1 180.1,104.7 180.6,105.0 183.4,104.9 184.1,104.7 184.5,104.1 185.2,103.7 186.0,104.0 186.7,104.3 187.2,104.7 187.9,105.1 190.1,106.6 193.0,108.2 194.6,108.1 196.9,108.3 197.5,108.4 200.0,110.5 202.2,113.9 202.3,114.8 201.6,115.3 201.3,116.1 201.5,116.6 203.0,119.6 203.6,120.1 204.1,119.8 204.5,119.0 205.3,118.5 206.0,118.6 207.4,120.0 209.7,123.3 211.9,126.3 212.9,129.0 213.0,129.6 213.1,130.7 213.2,131.4 214.5,132.7 215.3,132.6 215.8,132.4 216.6,132.5 218.8,133.5 219.3,133.6 221.9,132.0 225.8,130.3 226.4,129.9 227.1,129.4 227.9,128.6 228.4,128.3 229.0,128.2 231.3,129.1 231.5,129.9 231.1,130.4 230.5,130.7 229.9,132.0 229.9,132.6 230.3,133.3 232.5,134.2 234.4,134.1 234.4,133.2 234.4,126.9 234.5,117.1 234.5,111.0 234.5,109.3 234.5,103.0 234.5,101.5 233.6,101.2 228.6,102.1 226.3,103.4 225.4,105.8 226.3,107.2 227.1,107.1 227.5,107.7 227.3,108.4 226.6,108.9 226.0,108.9 224.3,108.3 220.9,106.6 218.7,106.6 218.0,106.8 216.8,107.2 215.7,107.1 214.9,107.0 214.8,106.3 214.2,105.0 212.6,102.5 212.0,101.8 210.0,99.8 206.6,97.0 206.0,96.8 204.8,96.2 201.6,94.1 200.2,91.8 200.1,90.6 199.6,88.8 199.1,87.7 198.8,87.1 198.1,86.2 197.9,85.7 197.9,85.1 197.9,84.1 198.0,83.3 199.2,81.4 200.6,78.3 200.8,77.7 201.1,76.1 202.3,70.9 202.7,68.6 202.8,67.9 203.4,66.7 204.5,64.9 205.3,64.7 206.5,63.4 205.8,61.1 204.9,60.0 203.9,53.0 204.6,50.5 204.6,46.4 204.7,45.4 204.8,44.9 205.6,43.0 206.4,41.7 205.8,40.4 202.4,33.4 202.1,30.8 201.8,30.3 201.0,29.9 200.0,29.7 199.5,29.5 198.8,29.2 198.3,28.7 198.3,28.0 198.6,27.5 199.2,27.0 200.0,26.6 200.7,26.4 201.9,25.7 204.1,24.2 206.6,22.0 207.3,21.2 209.2,19.0 210.2,17.8 210.8,17.1 212.3,14.9 212.9,13.5 213.2,12.9 213.1,12.2 213.0,11.5 212.5,9.7 211.6,8.3 212.2,8.2 213.9,7.9 219.2,7.1 220.1,7.0 224.1,6.4 228.5,5.7 229.0,5.6 237.5,4.3 241.5,3.7 245.9,3.0 250.5,2.3 252.2,2.0 258.0,1.1 258.7,1.0 259.5,2.9 260.5,4.9 261.0,5.8 262.2,7.8 263.7,9.5 264.3,10.1 265.3,10.8 266.2,11.3 267.3,11.7 268.1,11.7 269.0,11.2 269.7,10.8 270.3,10.7 272.2,11.8 275.2,12.2 277.0,13.0 279.0,15.2 279.1,16.6 279.5,17.2 282.0,19.1 282.5,19.3 283.1,19.4 283.7,19.1 284.3,18.7 284.8,18.6 285.8,18.9 287.4,19.3 288.9,19.7 288.4,20.4 288.3,20.9 288.3,21.5 288.4,22.2 289.3,23.1 289.9,23.3 290.5,22.8 291.1,22.5 292.2,22.8 293.9,23.0 295.1,24.0 295.7,24.6 296.3,24.8 297.6,24.9 299.3,24.8 300.5,24.7 302.2,25.7 302.6,26.5 302.9,27.1 303.3,27.8 304.0,28.2 305.9,28.4 307.8,28.6 309.3,29.8 311.2,30.9 312.1,31.0 313.2,31.3 313.8,31.7 313.9,33.0 314.0,33.7 315.2,37.1 315.9,37.4 317.1,37.4 318.1,37.3 318.7,36.6 320.5,36.7 321.1,37.5 321.2,38.0 321.0,38.6 321.0,39.4 321.3,39.9 323.0,41.7 323.5,42.0 324.4,45.0 323.7,46.6 323.5,48.2 323.7,48.7 327.0,50.9 328.8,51.9 329.3,52.3 329.5,53.1 329.1,54.2 329.1,54.9 329.2,55.5 329.7,56.7 331.7,59.4 332.7,60.6 333.0,61.2 332.3,62.0 331.4,62.4 330.6,63.1 329.2,64.6 329.0,65.1 329.0,65.7 328.2,66.4 327.2,67.0 326.6,67.2 325.9,67.0 325.3,66.9 324.0,67.3 322.1,68.4 321.7,68.9 321.6,69.4 324.0,73.9 324.4,74.4 325.0,74.9 325.7,76.0 325.4,76.9 325.2,77.5 323.9,79.6 322.7,81.3 322.0,82.2 321.5,82.8 321.7,85.2 321.9,86.5 322.5,86.5 323.2,86.9 323.5,87.4 323.7,90.9 323.7,94.7 323.3,97.1 323.0,97.7 322.5,98.6 322.2,99.1 322.1,100.4 322.2,101.0 324.3,105.2 324.8,105.7 325.3,106.0 325.8,106.0 326.4,105.8 327.2,105.3 327.8,105.3 329.1,105.6 329.2,106.1 328.9,106.7 328.1,107.1 327.4,107.8 327.5,108.3 324.7,110.9 321.3,112.1 319.6,112.3 318.8,112.0 317.2,112.0 316.5,112.6 314.4,116.3 314.4,118.6 314.9,119.2 315.7,119.5 316.2,120.0 316.0,121.1 315.8,121.7 315.4,122.7 315.1,123.5 315.0,125.1 314.9,126.0 314.7,128.4 313.3,132.3 312.7,133.5 311.0,136.0 310.4,136.4 309.1,136.9 307.8,136.8 307.2,138.0 308.0,138.6 309.1,138.8 309.6,138.7 311.0,140.3 312.8,143.4 315.1,146.3 317.2,147.5 319.4,145.9 320.1,147.2 320.5,147.9 314.9,150.4 299.4,155.7 298.7,155.9 296.0,156.5 292.4,157.4 288.8,158.6 286.9,159.5 285.9,159.9 285.2,160.1 284.5,160.2 283.2,160.4 282.6,160.5 278.6,162.6 278.1,162.9 277.6,163.3 277.0,163.6 276.4,163.7 272.6,164.7 267.7,165.8 267.1,165.9 265.9,166.0 262.5,166.9 259.9,167.6 254.7,169.4 252.8,170.1 252.2,170.3 248.1,172.4 244.8,172.7 245.0,175.6 245.2,176.7 245.8,178.6 246.3,179.7 247.1,180.6 247.8,181.1 248.4,181.5 249.2,185.3 249.5,188.2 249.9,189.2 249.3,189.5 248.5,189.8 246.9,189.6 246.1,189.4 243.6,189.2 235.5,188.8 234.9,188.8 234.4,189.0 232.6,189.6 230.7,190.2 230.1,190.2 229.3,190.0 228.8,189.9 223.1,191.8 220.5,192.8 216.2,195.7 213.9,197.3 212.7,197.6 212.1,198.0 210.8,199.4 210.6,200.1 210.3,202.5 210.0,206.1 210.1,207.0 210.4,207.5 210.4,208.3 209.8,210.3 209.4,210.8 208.1,212.5 203.7,213.4 195.4,216.8 192.4,219.3 189.5,220.6 184.4,222.7 184.0,223.4 181.4,227.0 179.7,229.5 179.2,232.3 176.7,234.5 172.3,238.3 167.3,244.0 167.4,245.2 164.5,248.0 163.5,248.2 162.1,248.4 160.7,248.7 159.5,249.1 157.2,249.9 156.6,250.3 156.1,250.9 153.7,250.3 153.3,249.7 152.7,249.1 149.1,247.8 147.4,247.3 144.1,246.6 143.1,246.6 141.4,247.3 140.6,248.2 137.8,249.2 137.0,249.1 135.8,248.8 134.8,248.5 134.3,247.6 134.7,247.1 132.8,245.7 130.4,244.2 129.7,244.3 128.8,244.9 128.3,245.0 126.0,245.6 123.9,245.5 123.4,245.4 121.7,245.2 120.9,244.8 119.7,244.1 119.2,243.4 114.6,239.6 113.7,239.2 112.6,238.6 112.2,237.9 " />
  </g>
</svg>