<?xml version="1.0" encoding="UTF-8" standalone="yes"?>
<!DOCTYPE svg PUBLIC "-//W3C//DTD SVG 1.0//EN" "http://www.w3.org/TR/2001/REC-SVG-20010904/DTD/svg10.dtd">
<svg height="250" width="370" xmlns="http://www.w3.org/2000/svg" xmlns:svg="http://www.w3.org/2000/svg" xmlns:xlink="http://www.w3.org/1999/xlink">


<g id="background">
<rect id="" width="370" height="250" fill="#222222"/>
</g>
  <g id="96" style="stroke-miterlimit: 3; fill: #F1F1F1; stroke: #000000; stroke-opacity: 1; stroke-width: 0.05; stroke-linejoin: bevel; stroke-linecap: square">
    <polygon id="Brunei" points="247.0,38.8 247.3,40.1 255.9,38.0 249.5,49.8 248.2,51.6 246.5,53.4 242.3,55.8 238.4,56.9 231.5,58.3 228.4,58.4 222.3,58.6 219.3,58.7 216.8,59.5 215.0,60.9 200.5,72.8 199.6,73.8 198.5,75.9 198.1,77.3 197.8,80.2 198.3,83.0 199.6,85.0 201.2,86.7 206.9,114.0 209.4,134.5 210.2,139.8 211.6,146.5 213.0,148.6 213.8,149.3 215.0,149.7 216.7,149.9 218.2,149.6 219.3,168.5 205.0,218.7 204.4,219.9 201.5,223.6 181.2,241.4 179.4,242.9 171.8,247.0 167.0,248.9 164.8,249.7 163.3,250.0 160.5,249.3 159.3,249.0 158.2,248.3 157.3,247.5 157.0,246.0 157.2,241.3 156.7,240.2 124.8,205.9 106.6,192.3 89.7,175.3 89.5,172.1 85.2,150.6 84.1,148.7 73.8,134.1 69.5,128.3 67.0,125.8 55.5,117.4 53.5,116.0 49.9,114.7 47.1,114.2 33.0,111.7 34.6,111.5 43.8,110.8 48.8,110.8 53.4,111.1 56.0,111.8 59.1,113.8 78.6,111.3 80.1,111.1 82.7,110.4 135.6,87.4 137.8,86.2 141.6,83.4 144.1,80.9 146.2,78.1 150.1,73.7 153.1,70.2 163.1,60.4 168.2,55.6 170.9,53.2 175.5,49.6 183.1,43.9 187.9,40.4 230.6,13.7 234.9,11.4 240.4,8.6 242.7,7.6 253.7,3.8 261.2,1.3 263.9,0.7 268.2,0.0 271.3,0.2 275.1,1.3 276.3,1.9 276.9,2.8 276.7,4.0 275.9,4.8 261.5,20.3 249.0,35.8 247.0,38.8 " />
    <polygon id="Brunei" points="305.3,59.9 314.6,89.3 319.7,106.6 319.7,109.7 318.7,113.5 317.3,115.7 316.3,118.0 315.3,123.6 317.2,144.6 317.6,145.9 318.6,148.3 319.9,150.2 321.3,152.1 324.6,155.2 327.4,157.7 329.0,159.3 334.7,165.3 336.2,167.3 337.3,169.3 337.8,170.5 338.4,173.1 338.4,174.8 337.3,176.8 335.6,178.4 334.3,178.9 332.7,179.1 328.8,178.0 278.9,163.9 276.6,162.8 275.7,162.0 274.7,159.7 273.3,154.4 258.6,98.3 257.9,95.7 256.4,79.3 256.5,72.4 258.5,56.2 259.2,58.5 259.9,59.5 261.7,61.0 262.9,61.5 264.2,61.5 266.3,60.4 281.6,49.2 283.4,47.7 284.1,46.7 286.7,36.2 297.9,49.2 305.3,59.9 " />
  </g>
</svg>